ISO-10303-21;
HEADER;
/* Generated by software containing ST-Developer
 * from STEP Tools, Inc. (www.steptools.com) 
 */
/* OPTION: using custom renumber hook */

FILE_DESCRIPTION(
/* description */ ('STEP AP242 Edition 2',
'CAx-IF Rec.Pracs.---Representation and Presentation of Product Manufa
cturing Information (PMI)---4.0---2014-10-13',
'CAx-IF Rec.Pracs.---3D Tessellated Geometry---0.4---2014-09-14','2;1',
'CAx-IF Rec.Pracs.---User Defined Attributes---1.5---2016-08-15'),
/* implementation_level */ '2;1');

FILE_NAME(
/* name */ 'Part Studio 2',
/* time_stamp */ '2026-08-04T15:37:56Z',
/* author */ (''),
/* organization */ (''),
/* preprocessor_version */ 'ST-DEVELOPER v20',
/* originating_system */ 'ONSHAPE BY PTC INC, 1.218',
/* authorisation */ '  ');

FILE_SCHEMA (('AP242_MANAGED_MODEL_BASED_3D_ENGINEERING_MIM_LF { 1 0 10303 442 3 1 4 }'));
ENDSEC;

DATA;
#10=SHAPE_REPRESENTATION_RELATIONSHIP('','',#1297,#11);
#11=ADVANCED_BREP_SHAPE_REPRESENTATION('',(#1295),#2087);
#12=ELLIPSE('',#1350,0.00212132034355965,0.0015);
#13=ELLIPSE('',#1352,0.00212132034355965,0.0015);
#14=ELLIPSE('',#1354,0.00212132034355965,0.0015);
#15=ELLIPSE('',#1357,0.00212132034355965,0.0015);
#16=ELLIPSE('',#1359,0.00212132034355965,0.0015);
#17=ELLIPSE('',#1362,0.00212132034355965,0.0015);
#18=ELLIPSE('',#1364,0.00212132034355965,0.0015);
#19=ELLIPSE('',#1366,0.00212132034355965,0.0015);
#20=CYLINDRICAL_SURFACE('',#1349,0.0015);
#21=CYLINDRICAL_SURFACE('',#1351,0.0015);
#22=CYLINDRICAL_SURFACE('',#1353,0.0015);
#23=CYLINDRICAL_SURFACE('',#1355,0.0015);
#24=CYLINDRICAL_SURFACE('',#1356,0.0015);
#25=CYLINDRICAL_SURFACE('',#1358,0.0015);
#26=CYLINDRICAL_SURFACE('',#1360,0.0015);
#27=CYLINDRICAL_SURFACE('',#1361,0.0015);
#28=CYLINDRICAL_SURFACE('',#1363,0.0015);
#29=CYLINDRICAL_SURFACE('',#1365,0.0015);
#30=CYLINDRICAL_SURFACE('',#1367,0.0015);
#31=CYLINDRICAL_SURFACE('',#1368,0.0015);
#32=CIRCLE('',#1300,0.0015);
#33=CIRCLE('',#1301,0.0015);
#34=CIRCLE('',#1302,0.0015);
#35=CIRCLE('',#1303,0.0015);
#36=CIRCLE('',#1318,0.0015);
#37=CIRCLE('',#1330,0.0015);
#38=CIRCLE('',#1333,0.0015);
#39=CIRCLE('',#1341,0.0015);
#40=CIRCLE('',#1345,0.0015);
#41=CIRCLE('',#1347,0.0015);
#42=ORIENTED_EDGE('',*,*,#402,.F.);
#43=ORIENTED_EDGE('',*,*,#403,.T.);
#44=ORIENTED_EDGE('',*,*,#404,.T.);
#45=ORIENTED_EDGE('',*,*,#405,.T.);
#46=ORIENTED_EDGE('',*,*,#406,.F.);
#47=ORIENTED_EDGE('',*,*,#407,.T.);
#48=ORIENTED_EDGE('',*,*,#408,.F.);
#49=ORIENTED_EDGE('',*,*,#409,.T.);
#50=ORIENTED_EDGE('',*,*,#410,.T.);
#51=ORIENTED_EDGE('',*,*,#411,.F.);
#52=ORIENTED_EDGE('',*,*,#412,.T.);
#53=ORIENTED_EDGE('',*,*,#413,.T.);
#54=ORIENTED_EDGE('',*,*,#414,.F.);
#55=ORIENTED_EDGE('',*,*,#415,.F.);
#56=ORIENTED_EDGE('',*,*,#416,.T.);
#57=ORIENTED_EDGE('',*,*,#417,.F.);
#58=ORIENTED_EDGE('',*,*,#418,.T.);
#59=ORIENTED_EDGE('',*,*,#419,.T.);
#60=ORIENTED_EDGE('',*,*,#420,.F.);
#61=ORIENTED_EDGE('',*,*,#421,.F.);
#62=ORIENTED_EDGE('',*,*,#422,.T.);
#63=ORIENTED_EDGE('',*,*,#423,.F.);
#64=ORIENTED_EDGE('',*,*,#424,.F.);
#65=ORIENTED_EDGE('',*,*,#425,.T.);
#66=ORIENTED_EDGE('',*,*,#426,.F.);
#67=ORIENTED_EDGE('',*,*,#427,.F.);
#68=ORIENTED_EDGE('',*,*,#428,.F.);
#69=ORIENTED_EDGE('',*,*,#429,.T.);
#70=ORIENTED_EDGE('',*,*,#430,.T.);
#71=ORIENTED_EDGE('',*,*,#431,.T.);
#72=ORIENTED_EDGE('',*,*,#432,.F.);
#73=ORIENTED_EDGE('',*,*,#433,.F.);
#74=ORIENTED_EDGE('',*,*,#434,.T.);
#75=ORIENTED_EDGE('',*,*,#435,.T.);
#76=ORIENTED_EDGE('',*,*,#436,.T.);
#77=ORIENTED_EDGE('',*,*,#437,.F.);
#78=ORIENTED_EDGE('',*,*,#438,.T.);
#79=ORIENTED_EDGE('',*,*,#439,.T.);
#80=ORIENTED_EDGE('',*,*,#440,.F.);
#81=ORIENTED_EDGE('',*,*,#441,.T.);
#82=ORIENTED_EDGE('',*,*,#442,.T.);
#83=ORIENTED_EDGE('',*,*,#443,.T.);
#84=ORIENTED_EDGE('',*,*,#444,.T.);
#85=ORIENTED_EDGE('',*,*,#445,.T.);
#86=ORIENTED_EDGE('',*,*,#446,.T.);
#87=ORIENTED_EDGE('',*,*,#447,.T.);
#88=ORIENTED_EDGE('',*,*,#448,.T.);
#89=ORIENTED_EDGE('',*,*,#449,.T.);
#90=ORIENTED_EDGE('',*,*,#450,.F.);
#91=ORIENTED_EDGE('',*,*,#451,.T.);
#92=ORIENTED_EDGE('',*,*,#452,.T.);
#93=ORIENTED_EDGE('',*,*,#414,.T.);
#94=ORIENTED_EDGE('',*,*,#453,.T.);
#95=ORIENTED_EDGE('',*,*,#454,.T.);
#96=ORIENTED_EDGE('',*,*,#438,.F.);
#97=ORIENTED_EDGE('',*,*,#455,.F.);
#98=ORIENTED_EDGE('',*,*,#456,.T.);
#99=ORIENTED_EDGE('',*,*,#457,.T.);
#100=ORIENTED_EDGE('',*,*,#458,.T.);
#101=ORIENTED_EDGE('',*,*,#459,.T.);
#102=ORIENTED_EDGE('',*,*,#460,.F.);
#103=ORIENTED_EDGE('',*,*,#461,.F.);
#104=ORIENTED_EDGE('',*,*,#462,.T.);
#105=ORIENTED_EDGE('',*,*,#463,.T.);
#106=ORIENTED_EDGE('',*,*,#464,.T.);
#107=ORIENTED_EDGE('',*,*,#465,.T.);
#108=ORIENTED_EDGE('',*,*,#419,.F.);
#109=ORIENTED_EDGE('',*,*,#466,.F.);
#110=ORIENTED_EDGE('',*,*,#460,.T.);
#111=ORIENTED_EDGE('',*,*,#467,.F.);
#112=ORIENTED_EDGE('',*,*,#468,.F.);
#113=ORIENTED_EDGE('',*,*,#469,.F.);
#114=ORIENTED_EDGE('',*,*,#440,.T.);
#115=ORIENTED_EDGE('',*,*,#470,.F.);
#116=ORIENTED_EDGE('',*,*,#471,.T.);
#117=ORIENTED_EDGE('',*,*,#472,.T.);
#118=ORIENTED_EDGE('',*,*,#427,.T.);
#119=ORIENTED_EDGE('',*,*,#473,.T.);
#120=ORIENTED_EDGE('',*,*,#474,.T.);
#121=ORIENTED_EDGE('',*,*,#475,.F.);
#122=ORIENTED_EDGE('',*,*,#449,.F.);
#123=ORIENTED_EDGE('',*,*,#476,.F.);
#124=ORIENTED_EDGE('',*,*,#477,.F.);
#125=ORIENTED_EDGE('',*,*,#478,.T.);
#126=ORIENTED_EDGE('',*,*,#445,.F.);
#127=ORIENTED_EDGE('',*,*,#479,.F.);
#128=ORIENTED_EDGE('',*,*,#480,.F.);
#129=ORIENTED_EDGE('',*,*,#481,.T.);
#130=ORIENTED_EDGE('',*,*,#441,.F.);
#131=ORIENTED_EDGE('',*,*,#469,.T.);
#132=ORIENTED_EDGE('',*,*,#482,.T.);
#133=ORIENTED_EDGE('',*,*,#483,.F.);
#134=ORIENTED_EDGE('',*,*,#425,.F.);
#135=ORIENTED_EDGE('',*,*,#484,.F.);
#136=ORIENTED_EDGE('',*,*,#485,.F.);
#137=ORIENTED_EDGE('',*,*,#486,.T.);
#138=ORIENTED_EDGE('',*,*,#412,.F.);
#139=ORIENTED_EDGE('',*,*,#475,.T.);
#140=ORIENTED_EDGE('',*,*,#487,.F.);
#141=ORIENTED_EDGE('',*,*,#473,.F.);
#142=ORIENTED_EDGE('',*,*,#426,.T.);
#143=ORIENTED_EDGE('',*,*,#483,.T.);
#144=ORIENTED_EDGE('',*,*,#468,.T.);
#145=ORIENTED_EDGE('',*,*,#487,.T.);
#146=ORIENTED_EDGE('',*,*,#482,.F.);
#147=ORIENTED_EDGE('',*,*,#474,.F.);
#148=ORIENTED_EDGE('',*,*,#488,.T.);
#149=ORIENTED_EDGE('',*,*,#489,.T.);
#150=ORIENTED_EDGE('',*,*,#435,.F.);
#151=ORIENTED_EDGE('',*,*,#490,.F.);
#152=ORIENTED_EDGE('',*,*,#434,.F.);
#153=ORIENTED_EDGE('',*,*,#491,.F.);
#154=ORIENTED_EDGE('',*,*,#492,.T.);
#155=ORIENTED_EDGE('',*,*,#490,.T.);
#156=ORIENTED_EDGE('',*,*,#433,.T.);
#157=ORIENTED_EDGE('',*,*,#493,.F.);
#158=ORIENTED_EDGE('',*,*,#494,.F.);
#159=ORIENTED_EDGE('',*,*,#491,.T.);
#160=ORIENTED_EDGE('',*,*,#432,.T.);
#161=ORIENTED_EDGE('',*,*,#495,.F.);
#162=ORIENTED_EDGE('',*,*,#496,.F.);
#163=ORIENTED_EDGE('',*,*,#493,.T.);
#164=ORIENTED_EDGE('',*,*,#497,.F.);
#165=ORIENTED_EDGE('',*,*,#498,.T.);
#166=ORIENTED_EDGE('',*,*,#499,.T.);
#167=ORIENTED_EDGE('',*,*,#495,.T.);
#168=ORIENTED_EDGE('',*,*,#431,.F.);
#169=ORIENTED_EDGE('',*,*,#500,.F.);
#170=ORIENTED_EDGE('',*,*,#501,.T.);
#171=ORIENTED_EDGE('',*,*,#497,.T.);
#172=ORIENTED_EDGE('',*,*,#430,.F.);
#173=ORIENTED_EDGE('',*,*,#502,.F.);
#174=ORIENTED_EDGE('',*,*,#503,.T.);
#175=ORIENTED_EDGE('',*,*,#500,.T.);
#176=ORIENTED_EDGE('',*,*,#429,.F.);
#177=ORIENTED_EDGE('',*,*,#437,.T.);
#178=ORIENTED_EDGE('',*,*,#504,.T.);
#179=ORIENTED_EDGE('',*,*,#505,.T.);
#180=ORIENTED_EDGE('',*,*,#455,.T.);
#181=ORIENTED_EDGE('',*,*,#506,.T.);
#182=ORIENTED_EDGE('',*,*,#507,.T.);
#183=ORIENTED_EDGE('',*,*,#488,.F.);
#184=ORIENTED_EDGE('',*,*,#492,.F.);
#185=ORIENTED_EDGE('',*,*,#494,.T.);
#186=ORIENTED_EDGE('',*,*,#496,.T.);
#187=ORIENTED_EDGE('',*,*,#499,.F.);
#188=ORIENTED_EDGE('',*,*,#508,.T.);
#189=ORIENTED_EDGE('',*,*,#403,.F.);
#190=ORIENTED_EDGE('',*,*,#509,.F.);
#191=ORIENTED_EDGE('',*,*,#510,.T.);
#192=ORIENTED_EDGE('',*,*,#511,.T.);
#193=ORIENTED_EDGE('',*,*,#402,.T.);
#194=ORIENTED_EDGE('',*,*,#512,.T.);
#195=ORIENTED_EDGE('',*,*,#513,.F.);
#196=ORIENTED_EDGE('',*,*,#509,.T.);
#197=ORIENTED_EDGE('',*,*,#406,.T.);
#198=ORIENTED_EDGE('',*,*,#514,.T.);
#199=ORIENTED_EDGE('',*,*,#515,.T.);
#200=ORIENTED_EDGE('',*,*,#516,.T.);
#201=ORIENTED_EDGE('',*,*,#517,.T.);
#202=ORIENTED_EDGE('',*,*,#518,.T.);
#203=ORIENTED_EDGE('',*,*,#404,.F.);
#204=ORIENTED_EDGE('',*,*,#511,.F.);
#205=ORIENTED_EDGE('',*,*,#513,.T.);
#206=ORIENTED_EDGE('',*,*,#519,.T.);
#207=ORIENTED_EDGE('',*,*,#517,.F.);
#208=ORIENTED_EDGE('',*,*,#510,.F.);
#209=ORIENTED_EDGE('',*,*,#520,.F.);
#210=ORIENTED_EDGE('',*,*,#521,.T.);
#211=ORIENTED_EDGE('',*,*,#522,.T.);
#212=ORIENTED_EDGE('',*,*,#409,.F.);
#213=ORIENTED_EDGE('',*,*,#523,.F.);
#214=ORIENTED_EDGE('',*,*,#524,.T.);
#215=ORIENTED_EDGE('',*,*,#520,.T.);
#216=ORIENTED_EDGE('',*,*,#408,.T.);
#217=ORIENTED_EDGE('',*,*,#525,.F.);
#218=ORIENTED_EDGE('',*,*,#411,.T.);
#219=ORIENTED_EDGE('',*,*,#526,.F.);
#220=ORIENTED_EDGE('',*,*,#527,.F.);
#221=ORIENTED_EDGE('',*,*,#525,.T.);
#222=ORIENTED_EDGE('',*,*,#522,.F.);
#223=ORIENTED_EDGE('',*,*,#528,.T.);
#224=ORIENTED_EDGE('',*,*,#529,.T.);
#225=ORIENTED_EDGE('',*,*,#526,.T.);
#226=ORIENTED_EDGE('',*,*,#410,.F.);
#227=ORIENTED_EDGE('',*,*,#529,.F.);
#228=ORIENTED_EDGE('',*,*,#530,.T.);
#229=ORIENTED_EDGE('',*,*,#523,.T.);
#230=ORIENTED_EDGE('',*,*,#527,.T.);
#231=ORIENTED_EDGE('',*,*,#418,.F.);
#232=ORIENTED_EDGE('',*,*,#531,.F.);
#233=ORIENTED_EDGE('',*,*,#461,.T.);
#234=ORIENTED_EDGE('',*,*,#466,.T.);
#235=ORIENTED_EDGE('',*,*,#417,.T.);
#236=ORIENTED_EDGE('',*,*,#532,.T.);
#237=ORIENTED_EDGE('',*,*,#456,.F.);
#238=ORIENTED_EDGE('',*,*,#531,.T.);
#239=ORIENTED_EDGE('',*,*,#533,.T.);
#240=ORIENTED_EDGE('',*,*,#534,.T.);
#241=ORIENTED_EDGE('',*,*,#415,.T.);
#242=ORIENTED_EDGE('',*,*,#452,.F.);
#243=ORIENTED_EDGE('',*,*,#535,.T.);
#244=ORIENTED_EDGE('',*,*,#536,.T.);
#245=ORIENTED_EDGE('',*,*,#423,.T.);
#246=ORIENTED_EDGE('',*,*,#537,.F.);
#247=ORIENTED_EDGE('',*,*,#538,.F.);
#248=ORIENTED_EDGE('',*,*,#539,.T.);
#249=ORIENTED_EDGE('',*,*,#537,.T.);
#250=ORIENTED_EDGE('',*,*,#422,.F.);
#251=ORIENTED_EDGE('',*,*,#540,.F.);
#252=ORIENTED_EDGE('',*,*,#541,.T.);
#253=ORIENTED_EDGE('',*,*,#538,.T.);
#254=ORIENTED_EDGE('',*,*,#421,.T.);
#255=ORIENTED_EDGE('',*,*,#542,.F.);
#256=ORIENTED_EDGE('',*,*,#420,.T.);
#257=ORIENTED_EDGE('',*,*,#465,.F.);
#258=ORIENTED_EDGE('',*,*,#543,.F.);
#259=ORIENTED_EDGE('',*,*,#542,.T.);
#260=ORIENTED_EDGE('',*,*,#544,.T.);
#261=ORIENTED_EDGE('',*,*,#545,.T.);
#262=ORIENTED_EDGE('',*,*,#540,.T.);
#263=ORIENTED_EDGE('',*,*,#543,.T.);
#264=ORIENTED_EDGE('',*,*,#464,.F.);
#265=ORIENTED_EDGE('',*,*,#546,.F.);
#266=ORIENTED_EDGE('',*,*,#459,.F.);
#267=ORIENTED_EDGE('',*,*,#547,.T.);
#268=ORIENTED_EDGE('',*,*,#548,.T.);
#269=ORIENTED_EDGE('',*,*,#467,.T.);
#270=ORIENTED_EDGE('',*,*,#549,.F.);
#271=ORIENTED_EDGE('',*,*,#550,.T.);
#272=ORIENTED_EDGE('',*,*,#546,.T.);
#273=ORIENTED_EDGE('',*,*,#463,.F.);
#274=ORIENTED_EDGE('',*,*,#548,.F.);
#275=ORIENTED_EDGE('',*,*,#551,.T.);
#276=ORIENTED_EDGE('',*,*,#549,.T.);
#277=ORIENTED_EDGE('',*,*,#462,.F.);
#278=ORIENTED_EDGE('',*,*,#541,.F.);
#279=ORIENTED_EDGE('',*,*,#545,.F.);
#280=ORIENTED_EDGE('',*,*,#552,.F.);
#281=ORIENTED_EDGE('',*,*,#539,.F.);
#282=ORIENTED_EDGE('',*,*,#547,.F.);
#283=ORIENTED_EDGE('',*,*,#458,.F.);
#284=ORIENTED_EDGE('',*,*,#553,.F.);
#285=ORIENTED_EDGE('',*,*,#451,.F.);
#286=ORIENTED_EDGE('',*,*,#554,.F.);
#287=ORIENTED_EDGE('',*,*,#535,.F.);
#288=ORIENTED_EDGE('',*,*,#552,.T.);
#289=ORIENTED_EDGE('',*,*,#544,.F.);
#290=ORIENTED_EDGE('',*,*,#550,.F.);
#291=ORIENTED_EDGE('',*,*,#551,.F.);
#292=ORIENTED_EDGE('',*,*,#553,.T.);
#293=ORIENTED_EDGE('',*,*,#457,.F.);
#294=ORIENTED_EDGE('',*,*,#555,.F.);
#295=ORIENTED_EDGE('',*,*,#533,.F.);
#296=ORIENTED_EDGE('',*,*,#555,.T.);
#297=ORIENTED_EDGE('',*,*,#532,.F.);
#298=ORIENTED_EDGE('',*,*,#416,.F.);
#299=ORIENTED_EDGE('',*,*,#534,.F.);
#300=ORIENTED_EDGE('',*,*,#407,.F.);
#301=ORIENTED_EDGE('',*,*,#516,.F.);
#302=ORIENTED_EDGE('',*,*,#556,.F.);
#303=ORIENTED_EDGE('',*,*,#512,.F.);
#304=ORIENTED_EDGE('',*,*,#556,.T.);
#305=ORIENTED_EDGE('',*,*,#515,.F.);
#306=ORIENTED_EDGE('',*,*,#557,.F.);
#307=ORIENTED_EDGE('',*,*,#519,.F.);
#308=ORIENTED_EDGE('',*,*,#557,.T.);
#309=ORIENTED_EDGE('',*,*,#514,.F.);
#310=ORIENTED_EDGE('',*,*,#405,.F.);
#311=ORIENTED_EDGE('',*,*,#518,.F.);
#312=ORIENTED_EDGE('',*,*,#498,.F.);
#313=ORIENTED_EDGE('',*,*,#501,.F.);
#314=ORIENTED_EDGE('',*,*,#558,.F.);
#315=ORIENTED_EDGE('',*,*,#508,.F.);
#316=ORIENTED_EDGE('',*,*,#558,.T.);
#317=ORIENTED_EDGE('',*,*,#503,.F.);
#318=ORIENTED_EDGE('',*,*,#559,.F.);
#319=ORIENTED_EDGE('',*,*,#453,.F.);
#320=ORIENTED_EDGE('',*,*,#560,.F.);
#321=ORIENTED_EDGE('',*,*,#506,.F.);
#322=ORIENTED_EDGE('',*,*,#560,.T.);
#323=ORIENTED_EDGE('',*,*,#505,.F.);
#324=ORIENTED_EDGE('',*,*,#561,.F.);
#325=ORIENTED_EDGE('',*,*,#507,.F.);
#326=ORIENTED_EDGE('',*,*,#561,.T.);
#327=ORIENTED_EDGE('',*,*,#504,.F.);
#328=ORIENTED_EDGE('',*,*,#436,.F.);
#329=ORIENTED_EDGE('',*,*,#489,.F.);
#330=ORIENTED_EDGE('',*,*,#524,.F.);
#331=ORIENTED_EDGE('',*,*,#530,.F.);
#332=ORIENTED_EDGE('',*,*,#528,.F.);
#333=ORIENTED_EDGE('',*,*,#521,.F.);
#334=ORIENTED_EDGE('',*,*,#448,.F.);
#335=ORIENTED_EDGE('',*,*,#562,.F.);
#336=ORIENTED_EDGE('',*,*,#563,.T.);
#337=ORIENTED_EDGE('',*,*,#476,.T.);
#338=ORIENTED_EDGE('',*,*,#447,.F.);
#339=ORIENTED_EDGE('',*,*,#564,.F.);
#340=ORIENTED_EDGE('',*,*,#565,.T.);
#341=ORIENTED_EDGE('',*,*,#562,.T.);
#342=ORIENTED_EDGE('',*,*,#446,.F.);
#343=ORIENTED_EDGE('',*,*,#478,.F.);
#344=ORIENTED_EDGE('',*,*,#566,.T.);
#345=ORIENTED_EDGE('',*,*,#564,.T.);
#346=ORIENTED_EDGE('',*,*,#563,.F.);
#347=ORIENTED_EDGE('',*,*,#565,.F.);
#348=ORIENTED_EDGE('',*,*,#566,.F.);
#349=ORIENTED_EDGE('',*,*,#477,.T.);
#350=ORIENTED_EDGE('',*,*,#444,.F.);
#351=ORIENTED_EDGE('',*,*,#567,.F.);
#352=ORIENTED_EDGE('',*,*,#568,.T.);
#353=ORIENTED_EDGE('',*,*,#479,.T.);
#354=ORIENTED_EDGE('',*,*,#443,.F.);
#355=ORIENTED_EDGE('',*,*,#569,.F.);
#356=ORIENTED_EDGE('',*,*,#570,.T.);
#357=ORIENTED_EDGE('',*,*,#567,.T.);
#358=ORIENTED_EDGE('',*,*,#442,.F.);
#359=ORIENTED_EDGE('',*,*,#481,.F.);
#360=ORIENTED_EDGE('',*,*,#571,.T.);
#361=ORIENTED_EDGE('',*,*,#569,.T.);
#362=ORIENTED_EDGE('',*,*,#568,.F.);
#363=ORIENTED_EDGE('',*,*,#570,.F.);
#364=ORIENTED_EDGE('',*,*,#571,.F.);
#365=ORIENTED_EDGE('',*,*,#480,.T.);
#366=ORIENTED_EDGE('',*,*,#572,.T.);
#367=ORIENTED_EDGE('',*,*,#559,.T.);
#368=ORIENTED_EDGE('',*,*,#573,.F.);
#369=ORIENTED_EDGE('',*,*,#574,.F.);
#370=ORIENTED_EDGE('',*,*,#439,.F.);
#371=ORIENTED_EDGE('',*,*,#454,.F.);
#372=ORIENTED_EDGE('',*,*,#572,.F.);
#373=ORIENTED_EDGE('',*,*,#575,.T.);
#374=ORIENTED_EDGE('',*,*,#470,.T.);
#375=ORIENTED_EDGE('',*,*,#428,.T.);
#376=ORIENTED_EDGE('',*,*,#472,.F.);
#377=ORIENTED_EDGE('',*,*,#576,.F.);
#378=ORIENTED_EDGE('',*,*,#573,.T.);
#379=ORIENTED_EDGE('',*,*,#502,.T.);
#380=ORIENTED_EDGE('',*,*,#575,.F.);
#381=ORIENTED_EDGE('',*,*,#574,.T.);
#382=ORIENTED_EDGE('',*,*,#576,.T.);
#383=ORIENTED_EDGE('',*,*,#471,.F.);
#384=ORIENTED_EDGE('',*,*,#413,.F.);
#385=ORIENTED_EDGE('',*,*,#486,.F.);
#386=ORIENTED_EDGE('',*,*,#577,.T.);
#387=ORIENTED_EDGE('',*,*,#578,.T.);
#388=ORIENTED_EDGE('',*,*,#450,.T.);
#389=ORIENTED_EDGE('',*,*,#424,.T.);
#390=ORIENTED_EDGE('',*,*,#536,.F.);
#391=ORIENTED_EDGE('',*,*,#579,.F.);
#392=ORIENTED_EDGE('',*,*,#580,.F.);
#393=ORIENTED_EDGE('',*,*,#484,.T.);
#394=ORIENTED_EDGE('',*,*,#579,.T.);
#395=ORIENTED_EDGE('',*,*,#554,.T.);
#396=ORIENTED_EDGE('',*,*,#578,.F.);
#397=ORIENTED_EDGE('',*,*,#581,.T.);
#398=ORIENTED_EDGE('',*,*,#577,.F.);
#399=ORIENTED_EDGE('',*,*,#485,.T.);
#400=ORIENTED_EDGE('',*,*,#580,.T.);
#401=ORIENTED_EDGE('',*,*,#581,.F.);
#402=EDGE_CURVE('',#582,#583,#698,.T.);
#403=EDGE_CURVE('',#582,#584,#699,.T.);
#404=EDGE_CURVE('',#584,#585,#700,.T.);
#405=EDGE_CURVE('',#585,#586,#32,.F.);
#406=EDGE_CURVE('',#587,#586,#701,.T.);
#407=EDGE_CURVE('',#587,#583,#33,.F.);
#408=EDGE_CURVE('',#588,#589,#702,.T.);
#409=EDGE_CURVE('',#588,#590,#703,.T.);
#410=EDGE_CURVE('',#590,#591,#704,.T.);
#411=EDGE_CURVE('',#589,#591,#705,.T.);
#412=EDGE_CURVE('',#592,#593,#706,.T.);
#413=EDGE_CURVE('',#593,#594,#707,.T.);
#414=EDGE_CURVE('',#595,#594,#708,.T.);
#415=EDGE_CURVE('',#596,#595,#709,.T.);
#416=EDGE_CURVE('',#596,#597,#34,.F.);
#417=EDGE_CURVE('',#598,#597,#710,.T.);
#418=EDGE_CURVE('',#598,#599,#711,.T.);
#419=EDGE_CURVE('',#599,#600,#712,.T.);
#420=EDGE_CURVE('',#601,#600,#713,.T.);
#421=EDGE_CURVE('',#602,#601,#714,.T.);
#422=EDGE_CURVE('',#602,#603,#715,.T.);
#423=EDGE_CURVE('',#604,#603,#716,.T.);
#424=EDGE_CURVE('',#605,#604,#717,.T.);
#425=EDGE_CURVE('',#605,#606,#718,.T.);
#426=EDGE_CURVE('',#607,#606,#719,.T.);
#427=EDGE_CURVE('',#608,#607,#720,.T.);
#428=EDGE_CURVE('',#609,#608,#721,.T.);
#429=EDGE_CURVE('',#609,#610,#722,.T.);
#430=EDGE_CURVE('',#610,#611,#723,.T.);
#431=EDGE_CURVE('',#611,#612,#724,.T.);
#432=EDGE_CURVE('',#613,#612,#725,.T.);
#433=EDGE_CURVE('',#614,#613,#726,.T.);
#434=EDGE_CURVE('',#614,#615,#727,.T.);
#435=EDGE_CURVE('',#615,#616,#728,.T.);
#436=EDGE_CURVE('',#616,#617,#35,.F.);
#437=EDGE_CURVE('',#618,#617,#729,.T.);
#438=EDGE_CURVE('',#618,#619,#730,.T.);
#439=EDGE_CURVE('',#619,#620,#731,.T.);
#440=EDGE_CURVE('',#621,#620,#732,.T.);
#441=EDGE_CURVE('',#621,#622,#733,.T.);
#442=EDGE_CURVE('',#622,#623,#734,.T.);
#443=EDGE_CURVE('',#623,#624,#735,.T.);
#444=EDGE_CURVE('',#624,#625,#736,.T.);
#445=EDGE_CURVE('',#625,#626,#737,.T.);
#446=EDGE_CURVE('',#626,#627,#738,.T.);
#447=EDGE_CURVE('',#627,#628,#739,.T.);
#448=EDGE_CURVE('',#628,#629,#740,.T.);
#449=EDGE_CURVE('',#629,#592,#741,.T.);
#450=EDGE_CURVE('',#630,#594,#742,.T.);
#451=EDGE_CURVE('',#630,#631,#743,.F.);
#452=EDGE_CURVE('',#631,#595,#744,.T.);
#453=EDGE_CURVE('',#632,#633,#745,.T.);
#454=EDGE_CURVE('',#633,#619,#746,.T.);
#455=EDGE_CURVE('',#632,#618,#747,.T.);
#456=EDGE_CURVE('',#634,#635,#748,.T.);
#457=EDGE_CURVE('',#635,#636,#749,.T.);
#458=EDGE_CURVE('',#636,#637,#750,.T.);
#459=EDGE_CURVE('',#637,#638,#751,.T.);
#460=EDGE_CURVE('',#639,#638,#752,.T.);
#461=EDGE_CURVE('',#634,#639,#753,.T.);
#462=EDGE_CURVE('',#640,#641,#754,.T.);
#463=EDGE_CURVE('',#641,#642,#755,.T.);
#464=EDGE_CURVE('',#642,#643,#756,.T.);
#465=EDGE_CURVE('',#643,#600,#757,.T.);
#466=EDGE_CURVE('',#639,#599,#758,.T.);
#467=EDGE_CURVE('',#640,#638,#759,.T.);
#468=EDGE_CURVE('',#644,#645,#760,.T.);
#469=EDGE_CURVE('',#621,#644,#761,.T.);
#470=EDGE_CURVE('',#646,#620,#762,.T.);
#471=EDGE_CURVE('',#646,#647,#763,.T.);
#472=EDGE_CURVE('',#647,#608,#764,.T.);
#473=EDGE_CURVE('',#607,#645,#765,.T.);
#474=EDGE_CURVE('',#644,#648,#766,.T.);
#475=EDGE_CURVE('',#592,#648,#767,.T.);
#476=EDGE_CURVE('',#649,#629,#768,.T.);
#477=EDGE_CURVE('',#650,#649,#769,.T.);
#478=EDGE_CURVE('',#650,#626,#770,.T.);
#479=EDGE_CURVE('',#651,#625,#771,.T.);
#480=EDGE_CURVE('',#652,#651,#772,.T.);
#481=EDGE_CURVE('',#652,#622,#773,.T.);
#482=EDGE_CURVE('',#648,#653,#774,.T.);
#483=EDGE_CURVE('',#606,#653,#775,.T.);
#484=EDGE_CURVE('',#654,#605,#776,.T.);
#485=EDGE_CURVE('',#655,#654,#777,.T.);
#486=EDGE_CURVE('',#655,#593,#778,.T.);
#487=EDGE_CURVE('',#645,#653,#779,.T.);
#488=EDGE_CURVE('',#656,#657,#780,.T.);
#489=EDGE_CURVE('',#657,#616,#781,.T.);
#490=EDGE_CURVE('',#656,#615,#782,.T.);
#491=EDGE_CURVE('',#658,#614,#783,.T.);
#492=EDGE_CURVE('',#658,#656,#784,.T.);
#493=EDGE_CURVE('',#659,#613,#785,.T.);
#494=EDGE_CURVE('',#658,#659,#786,.T.);
#495=EDGE_CURVE('',#660,#612,#787,.T.);
#496=EDGE_CURVE('',#659,#660,#788,.T.);
#497=EDGE_CURVE('',#661,#611,#789,.T.);
#498=EDGE_CURVE('',#661,#662,#36,.T.);
#499=EDGE_CURVE('',#662,#660,#790,.T.);
#500=EDGE_CURVE('',#663,#610,#791,.T.);
#501=EDGE_CURVE('',#663,#661,#792,.T.);
#502=EDGE_CURVE('',#664,#609,#793,.T.);
#503=EDGE_CURVE('',#664,#663,#794,.T.);
#504=EDGE_CURVE('',#617,#665,#795,.F.);
#505=EDGE_CURVE('',#665,#632,#796,.F.);
#506=EDGE_CURVE('',#666,#667,#797,.F.);
#507=EDGE_CURVE('',#667,#657,#798,.T.);
#508=EDGE_CURVE('',#662,#666,#799,.F.);
#509=EDGE_CURVE('',#668,#582,#800,.T.);
#510=EDGE_CURVE('',#668,#669,#801,.T.);
#511=EDGE_CURVE('',#669,#584,#802,.T.);
#512=EDGE_CURVE('',#583,#670,#803,.F.);
#513=EDGE_CURVE('',#668,#670,#804,.T.);
#514=EDGE_CURVE('',#586,#671,#805,.F.);
#515=EDGE_CURVE('',#671,#672,#806,.F.);
#516=EDGE_CURVE('',#672,#587,#807,.T.);
#517=EDGE_CURVE('',#669,#673,#808,.T.);
#518=EDGE_CURVE('',#673,#585,#809,.T.);
#519=EDGE_CURVE('',#670,#673,#810,.T.);
#520=EDGE_CURVE('',#674,#588,#811,.T.);
#521=EDGE_CURVE('',#674,#675,#812,.T.);
#522=EDGE_CURVE('',#675,#590,#813,.T.);
#523=EDGE_CURVE('',#676,#677,#814,.T.);
#524=EDGE_CURVE('',#676,#674,#37,.F.);
#525=EDGE_CURVE('',#677,#589,#815,.T.);
#526=EDGE_CURVE('',#678,#591,#816,.T.);
#527=EDGE_CURVE('',#677,#678,#817,.T.);
#528=EDGE_CURVE('',#675,#679,#38,.T.);
#529=EDGE_CURVE('',#679,#678,#818,.T.);
#530=EDGE_CURVE('',#679,#676,#819,.F.);
#531=EDGE_CURVE('',#634,#598,#820,.T.);
#532=EDGE_CURVE('',#597,#635,#821,.F.);
#533=EDGE_CURVE('',#631,#680,#822,.F.);
#534=EDGE_CURVE('',#680,#596,#823,.T.);
#535=EDGE_CURVE('',#681,#682,#824,.F.);
#536=EDGE_CURVE('',#682,#604,#825,.T.);
#537=EDGE_CURVE('',#681,#603,#826,.T.);
#538=EDGE_CURVE('',#683,#602,#827,.T.);
#539=EDGE_CURVE('',#683,#681,#828,.T.);
#540=EDGE_CURVE('',#684,#685,#829,.T.);
#541=EDGE_CURVE('',#684,#683,#39,.F.);
#542=EDGE_CURVE('',#685,#601,#830,.T.);
#543=EDGE_CURVE('',#685,#643,#831,.T.);
#544=EDGE_CURVE('',#686,#687,#832,.F.);
#545=EDGE_CURVE('',#687,#684,#833,.F.);
#546=EDGE_CURVE('',#686,#642,#834,.T.);
#547=EDGE_CURVE('',#637,#688,#40,.T.);
#548=EDGE_CURVE('',#688,#640,#835,.T.);
#549=EDGE_CURVE('',#689,#641,#836,.T.);
#550=EDGE_CURVE('',#689,#686,#41,.F.);
#551=EDGE_CURVE('',#688,#689,#837,.F.);
#552=EDGE_CURVE('',#681,#687,#12,.T.);
#553=EDGE_CURVE('',#631,#636,#13,.T.);
#554=EDGE_CURVE('',#682,#630,#838,.F.);
#555=EDGE_CURVE('',#680,#635,#14,.T.);
#556=EDGE_CURVE('',#670,#672,#15,.F.);
#557=EDGE_CURVE('',#673,#671,#16,.F.);
#558=EDGE_CURVE('',#666,#663,#17,.F.);
#559=EDGE_CURVE('',#633,#664,#839,.T.);
#560=EDGE_CURVE('',#667,#632,#18,.F.);
#561=EDGE_CURVE('',#657,#665,#19,.F.);
#562=EDGE_CURVE('',#690,#628,#840,.T.);
#563=EDGE_CURVE('',#690,#649,#841,.T.);
#564=EDGE_CURVE('',#691,#627,#842,.T.);
#565=EDGE_CURVE('',#691,#690,#843,.T.);
#566=EDGE_CURVE('',#650,#691,#844,.T.);
#567=EDGE_CURVE('',#692,#624,#845,.T.);
#568=EDGE_CURVE('',#692,#651,#846,.T.);
#569=EDGE_CURVE('',#693,#623,#847,.T.);
#570=EDGE_CURVE('',#693,#692,#848,.T.);
#571=EDGE_CURVE('',#652,#693,#849,.T.);
#572=EDGE_CURVE('',#694,#633,#850,.T.);
#573=EDGE_CURVE('',#695,#664,#851,.T.);
#574=EDGE_CURVE('',#694,#695,#852,.T.);
#575=EDGE_CURVE('',#694,#646,#853,.T.);
#576=EDGE_CURVE('',#695,#647,#854,.T.);
#577=EDGE_CURVE('',#655,#696,#855,.T.);
#578=EDGE_CURVE('',#696,#630,#856,.T.);
#579=EDGE_CURVE('',#697,#682,#857,.T.);
#580=EDGE_CURVE('',#654,#697,#858,.T.);
#581=EDGE_CURVE('',#696,#697,#859,.T.);
#582=VERTEX_POINT('',#1724);
#583=VERTEX_POINT('',#1725);
#584=VERTEX_POINT('',#1727);
#585=VERTEX_POINT('',#1729);
#586=VERTEX_POINT('',#1731);
#587=VERTEX_POINT('',#1733);
#588=VERTEX_POINT('',#1736);
#589=VERTEX_POINT('',#1737);
#590=VERTEX_POINT('',#1739);
#591=VERTEX_POINT('',#1741);
#592=VERTEX_POINT('',#1744);
#593=VERTEX_POINT('',#1745);
#594=VERTEX_POINT('',#1747);
#595=VERTEX_POINT('',#1749);
#596=VERTEX_POINT('',#1751);
#597=VERTEX_POINT('',#1753);
#598=VERTEX_POINT('',#1755);
#599=VERTEX_POINT('',#1757);
#600=VERTEX_POINT('',#1759);
#601=VERTEX_POINT('',#1761);
#602=VERTEX_POINT('',#1763);
#603=VERTEX_POINT('',#1765);
#604=VERTEX_POINT('',#1767);
#605=VERTEX_POINT('',#1769);
#606=VERTEX_POINT('',#1771);
#607=VERTEX_POINT('',#1773);
#608=VERTEX_POINT('',#1775);
#609=VERTEX_POINT('',#1777);
#610=VERTEX_POINT('',#1779);
#611=VERTEX_POINT('',#1781);
#612=VERTEX_POINT('',#1783);
#613=VERTEX_POINT('',#1785);
#614=VERTEX_POINT('',#1787);
#615=VERTEX_POINT('',#1789);
#616=VERTEX_POINT('',#1791);
#617=VERTEX_POINT('',#1793);
#618=VERTEX_POINT('',#1795);
#619=VERTEX_POINT('',#1797);
#620=VERTEX_POINT('',#1799);
#621=VERTEX_POINT('',#1801);
#622=VERTEX_POINT('',#1803);
#623=VERTEX_POINT('',#1805);
#624=VERTEX_POINT('',#1807);
#625=VERTEX_POINT('',#1809);
#626=VERTEX_POINT('',#1811);
#627=VERTEX_POINT('',#1813);
#628=VERTEX_POINT('',#1815);
#629=VERTEX_POINT('',#1817);
#630=VERTEX_POINT('',#1821);
#631=VERTEX_POINT('',#1823);
#632=VERTEX_POINT('',#1827);
#633=VERTEX_POINT('',#1828);
#634=VERTEX_POINT('',#1833);
#635=VERTEX_POINT('',#1834);
#636=VERTEX_POINT('',#1836);
#637=VERTEX_POINT('',#1838);
#638=VERTEX_POINT('',#1840);
#639=VERTEX_POINT('',#1842);
#640=VERTEX_POINT('',#1846);
#641=VERTEX_POINT('',#1847);
#642=VERTEX_POINT('',#1849);
#643=VERTEX_POINT('',#1851);
#644=VERTEX_POINT('',#1857);
#645=VERTEX_POINT('',#1858);
#646=VERTEX_POINT('',#1861);
#647=VERTEX_POINT('',#1863);
#648=VERTEX_POINT('',#1868);
#649=VERTEX_POINT('',#1871);
#650=VERTEX_POINT('',#1873);
#651=VERTEX_POINT('',#1876);
#652=VERTEX_POINT('',#1878);
#653=VERTEX_POINT('',#1882);
#654=VERTEX_POINT('',#1885);
#655=VERTEX_POINT('',#1887);
#656=VERTEX_POINT('',#1894);
#657=VERTEX_POINT('',#1895);
#658=VERTEX_POINT('',#1900);
#659=VERTEX_POINT('',#1904);
#660=VERTEX_POINT('',#1908);
#661=VERTEX_POINT('',#1912);
#662=VERTEX_POINT('',#1914);
#663=VERTEX_POINT('',#1918);
#664=VERTEX_POINT('',#1922);
#665=VERTEX_POINT('',#1926);
#666=VERTEX_POINT('',#1930);
#667=VERTEX_POINT('',#1931);
#668=VERTEX_POINT('',#1936);
#669=VERTEX_POINT('',#1938);
#670=VERTEX_POINT('',#1942);
#671=VERTEX_POINT('',#1946);
#672=VERTEX_POINT('',#1948);
#673=VERTEX_POINT('',#1952);
#674=VERTEX_POINT('',#1958);
#675=VERTEX_POINT('',#1960);
#676=VERTEX_POINT('',#1964);
#677=VERTEX_POINT('',#1965);
#678=VERTEX_POINT('',#1970);
#679=VERTEX_POINT('',#1974);
#680=VERTEX_POINT('',#1984);
#681=VERTEX_POINT('',#1988);
#682=VERTEX_POINT('',#1989);
#683=VERTEX_POINT('',#1994);
#684=VERTEX_POINT('',#1998);
#685=VERTEX_POINT('',#1999);
#686=VERTEX_POINT('',#2006);
#687=VERTEX_POINT('',#2007);
#688=VERTEX_POINT('',#2012);
#689=VERTEX_POINT('',#2016);
#690=VERTEX_POINT('',#2044);
#691=VERTEX_POINT('',#2048);
#692=VERTEX_POINT('',#2055);
#693=VERTEX_POINT('',#2059);
#694=VERTEX_POINT('',#2066);
#695=VERTEX_POINT('',#2068);
#696=VERTEX_POINT('',#2077);
#697=VERTEX_POINT('',#2081);
#698=LINE('',#1723,#860);
#699=LINE('',#1726,#861);
#700=LINE('',#1728,#862);
#701=LINE('',#1732,#863);
#702=LINE('',#1735,#864);
#703=LINE('',#1738,#865);
#704=LINE('',#1740,#866);
#705=LINE('',#1742,#867);
#706=LINE('',#1743,#868);
#707=LINE('',#1746,#869);
#708=LINE('',#1748,#870);
#709=LINE('',#1750,#871);
#710=LINE('',#1754,#872);
#711=LINE('',#1756,#873);
#712=LINE('',#1758,#874);
#713=LINE('',#1760,#875);
#714=LINE('',#1762,#876);
#715=LINE('',#1764,#877);
#716=LINE('',#1766,#878);
#717=LINE('',#1768,#879);
#718=LINE('',#1770,#880);
#719=LINE('',#1772,#881);
#720=LINE('',#1774,#882);
#721=LINE('',#1776,#883);
#722=LINE('',#1778,#884);
#723=LINE('',#1780,#885);
#724=LINE('',#1782,#886);
#725=LINE('',#1784,#887);
#726=LINE('',#1786,#888);
#727=LINE('',#1788,#889);
#728=LINE('',#1790,#890);
#729=LINE('',#1794,#891);
#730=LINE('',#1796,#892);
#731=LINE('',#1798,#893);
#732=LINE('',#1800,#894);
#733=LINE('',#1802,#895);
#734=LINE('',#1804,#896);
#735=LINE('',#1806,#897);
#736=LINE('',#1808,#898);
#737=LINE('',#1810,#899);
#738=LINE('',#1812,#900);
#739=LINE('',#1814,#901);
#740=LINE('',#1816,#902);
#741=LINE('',#1818,#903);
#742=LINE('',#1820,#904);
#743=LINE('',#1822,#905);
#744=LINE('',#1824,#906);
#745=LINE('',#1826,#907);
#746=LINE('',#1829,#908);
#747=LINE('',#1830,#909);
#748=LINE('',#1832,#910);
#749=LINE('',#1835,#911);
#750=LINE('',#1837,#912);
#751=LINE('',#1839,#913);
#752=LINE('',#1841,#914);
#753=LINE('',#1843,#915);
#754=LINE('',#1845,#916);
#755=LINE('',#1848,#917);
#756=LINE('',#1850,#918);
#757=LINE('',#1852,#919);
#758=LINE('',#1853,#920);
#759=LINE('',#1854,#921);
#760=LINE('',#1856,#922);
#761=LINE('',#1859,#923);
#762=LINE('',#1860,#924);
#763=LINE('',#1862,#925);
#764=LINE('',#1864,#926);
#765=LINE('',#1865,#927);
#766=LINE('',#1867,#928);
#767=LINE('',#1869,#929);
#768=LINE('',#1870,#930);
#769=LINE('',#1872,#931);
#770=LINE('',#1874,#932);
#771=LINE('',#1875,#933);
#772=LINE('',#1877,#934);
#773=LINE('',#1879,#935);
#774=LINE('',#1881,#936);
#775=LINE('',#1883,#937);
#776=LINE('',#1884,#938);
#777=LINE('',#1886,#939);
#778=LINE('',#1888,#940);
#779=LINE('',#1890,#941);
#780=LINE('',#1893,#942);
#781=LINE('',#1896,#943);
#782=LINE('',#1897,#944);
#783=LINE('',#1899,#945);
#784=LINE('',#1901,#946);
#785=LINE('',#1903,#947);
#786=LINE('',#1905,#948);
#787=LINE('',#1907,#949);
#788=LINE('',#1909,#950);
#789=LINE('',#1911,#951);
#790=LINE('',#1915,#952);
#791=LINE('',#1917,#953);
#792=LINE('',#1919,#954);
#793=LINE('',#1921,#955);
#794=LINE('',#1923,#956);
#795=LINE('',#1925,#957);
#796=LINE('',#1927,#958);
#797=LINE('',#1929,#959);
#798=LINE('',#1932,#960);
#799=LINE('',#1933,#961);
#800=LINE('',#1935,#962);
#801=LINE('',#1937,#963);
#802=LINE('',#1939,#964);
#803=LINE('',#1941,#965);
#804=LINE('',#1943,#966);
#805=LINE('',#1945,#967);
#806=LINE('',#1947,#968);
#807=LINE('',#1949,#969);
#808=LINE('',#1951,#970);
#809=LINE('',#1953,#971);
#810=LINE('',#1955,#972);
#811=LINE('',#1957,#973);
#812=LINE('',#1959,#974);
#813=LINE('',#1961,#975);
#814=LINE('',#1963,#976);
#815=LINE('',#1967,#977);
#816=LINE('',#1969,#978);
#817=LINE('',#1971,#979);
#818=LINE('',#1975,#980);
#819=LINE('',#1977,#981);
#820=LINE('',#1979,#982);
#821=LINE('',#1981,#983);
#822=LINE('',#1983,#984);
#823=LINE('',#1985,#985);
#824=LINE('',#1987,#986);
#825=LINE('',#1990,#987);
#826=LINE('',#1991,#988);
#827=LINE('',#1993,#989);
#828=LINE('',#1995,#990);
#829=LINE('',#1997,#991);
#830=LINE('',#2001,#992);
#831=LINE('',#2003,#993);
#832=LINE('',#2005,#994);
#833=LINE('',#2008,#995);
#834=LINE('',#2009,#996);
#835=LINE('',#2013,#997);
#836=LINE('',#2015,#998);
#837=LINE('',#2019,#999);
#838=LINE('',#2024,#1000);
#839=LINE('',#2036,#1001);
#840=LINE('',#2043,#1002);
#841=LINE('',#2045,#1003);
#842=LINE('',#2047,#1004);
#843=LINE('',#2049,#1005);
#844=LINE('',#2051,#1006);
#845=LINE('',#2054,#1007);
#846=LINE('',#2056,#1008);
#847=LINE('',#2058,#1009);
#848=LINE('',#2060,#1010);
#849=LINE('',#2062,#1011);
#850=LINE('',#2065,#1012);
#851=LINE('',#2067,#1013);
#852=LINE('',#2069,#1014);
#853=LINE('',#2071,#1015);
#854=LINE('',#2073,#1016);
#855=LINE('',#2076,#1017);
#856=LINE('',#2078,#1018);
#857=LINE('',#2080,#1019);
#858=LINE('',#2082,#1020);
#859=LINE('',#2084,#1021);
#860=VECTOR('',#1389,1.);
#861=VECTOR('',#1390,1.);
#862=VECTOR('',#1391,1.);
#863=VECTOR('',#1394,1.);
#864=VECTOR('',#1397,1.);
#865=VECTOR('',#1398,1.);
#866=VECTOR('',#1399,1.);
#867=VECTOR('',#1400,1.);
#868=VECTOR('',#1401,1.);
#869=VECTOR('',#1402,1.);
#870=VECTOR('',#1403,1.);
#871=VECTOR('',#1404,1.);
#872=VECTOR('',#1407,1.);
#873=VECTOR('',#1408,1.);
#874=VECTOR('',#1409,1.);
#875=VECTOR('',#1410,1.);
#876=VECTOR('',#1411,1.);
#877=VECTOR('',#1412,1.);
#878=VECTOR('',#1413,1.);
#879=VECTOR('',#1414,1.);
#880=VECTOR('',#1415,1.);
#881=VECTOR('',#1416,1.);
#882=VECTOR('',#1417,1.);
#883=VECTOR('',#1418,1.);
#884=VECTOR('',#1419,1.);
#885=VECTOR('',#1420,1.);
#886=VECTOR('',#1421,1.);
#887=VECTOR('',#1422,1.);
#888=VECTOR('',#1423,1.);
#889=VECTOR('',#1424,1.);
#890=VECTOR('',#1425,1.);
#891=VECTOR('',#1428,1.);
#892=VECTOR('',#1429,1.);
#893=VECTOR('',#1430,1.);
#894=VECTOR('',#1431,1.);
#895=VECTOR('',#1432,1.);
#896=VECTOR('',#1433,1.);
#897=VECTOR('',#1434,1.);
#898=VECTOR('',#1435,1.);
#899=VECTOR('',#1436,1.);
#900=VECTOR('',#1437,1.);
#901=VECTOR('',#1438,1.);
#902=VECTOR('',#1439,1.);
#903=VECTOR('',#1440,1.);
#904=VECTOR('',#1443,1.);
#905=VECTOR('',#1444,1.);
#906=VECTOR('',#1445,1.);
#907=VECTOR('',#1448,1.);
#908=VECTOR('',#1449,1.);
#909=VECTOR('',#1450,1.);
#910=VECTOR('',#1453,1.);
#911=VECTOR('',#1454,1.);
#912=VECTOR('',#1455,1.);
#913=VECTOR('',#1456,1.);
#914=VECTOR('',#1457,1.);
#915=VECTOR('',#1458,1.);
#916=VECTOR('',#1461,1.);
#917=VECTOR('',#1462,1.);
#918=VECTOR('',#1463,1.);
#919=VECTOR('',#1464,1.);
#920=VECTOR('',#1465,1.);
#921=VECTOR('',#1466,1.);
#922=VECTOR('',#1469,1.);
#923=VECTOR('',#1470,1.);
#924=VECTOR('',#1471,1.);
#925=VECTOR('',#1472,1.);
#926=VECTOR('',#1473,1.);
#927=VECTOR('',#1474,1.);
#928=VECTOR('',#1477,1.);
#929=VECTOR('',#1478,1.);
#930=VECTOR('',#1479,1.);
#931=VECTOR('',#1480,1.);
#932=VECTOR('',#1481,1.);
#933=VECTOR('',#1482,1.);
#934=VECTOR('',#1483,1.);
#935=VECTOR('',#1484,1.);
#936=VECTOR('',#1487,1.);
#937=VECTOR('',#1488,1.);
#938=VECTOR('',#1489,1.);
#939=VECTOR('',#1490,1.);
#940=VECTOR('',#1491,1.);
#941=VECTOR('',#1494,1.);
#942=VECTOR('',#1499,1.);
#943=VECTOR('',#1500,1.);
#944=VECTOR('',#1501,1.);
#945=VECTOR('',#1504,1.);
#946=VECTOR('',#1505,1.);
#947=VECTOR('',#1508,1.);
#948=VECTOR('',#1509,1.);
#949=VECTOR('',#1512,1.);
#950=VECTOR('',#1513,1.);
#951=VECTOR('',#1516,1.);
#952=VECTOR('',#1519,1.);
#953=VECTOR('',#1522,1.);
#954=VECTOR('',#1523,1.);
#955=VECTOR('',#1526,1.);
#956=VECTOR('',#1527,1.);
#957=VECTOR('',#1530,1.);
#958=VECTOR('',#1531,1.);
#959=VECTOR('',#1534,1.);
#960=VECTOR('',#1535,1.);
#961=VECTOR('',#1536,1.);
#962=VECTOR('',#1539,1.);
#963=VECTOR('',#1540,1.);
#964=VECTOR('',#1541,1.);
#965=VECTOR('',#1544,1.);
#966=VECTOR('',#1545,1.);
#967=VECTOR('',#1548,1.);
#968=VECTOR('',#1549,1.);
#969=VECTOR('',#1550,1.);
#970=VECTOR('',#1553,1.);
#971=VECTOR('',#1554,1.);
#972=VECTOR('',#1557,1.);
#973=VECTOR('',#1560,1.);
#974=VECTOR('',#1561,1.);
#975=VECTOR('',#1562,1.);
#976=VECTOR('',#1565,1.);
#977=VECTOR('',#1568,1.);
#978=VECTOR('',#1571,1.);
#979=VECTOR('',#1572,1.);
#980=VECTOR('',#1577,1.);
#981=VECTOR('',#1580,1.);
#982=VECTOR('',#1583,1.);
#983=VECTOR('',#1586,1.);
#984=VECTOR('',#1589,1.);
#985=VECTOR('',#1590,1.);
#986=VECTOR('',#1593,1.);
#987=VECTOR('',#1594,1.);
#988=VECTOR('',#1595,1.);
#989=VECTOR('',#1598,1.);
#990=VECTOR('',#1599,1.);
#991=VECTOR('',#1602,1.);
#992=VECTOR('',#1605,1.);
#993=VECTOR('',#1608,1.);
#994=VECTOR('',#1611,1.);
#995=VECTOR('',#1612,1.);
#996=VECTOR('',#1613,1.);
#997=VECTOR('',#1618,1.);
#998=VECTOR('',#1621,1.);
#999=VECTOR('',#1626,1.);
#1000=VECTOR('',#1635,1.);
#1001=VECTOR('',#1658,1.);
#1002=VECTOR('',#1671,1.);
#1003=VECTOR('',#1672,1.);
#1004=VECTOR('',#1675,1.);
#1005=VECTOR('',#1676,1.);
#1006=VECTOR('',#1679,1.);
#1007=VECTOR('',#1684,1.);
#1008=VECTOR('',#1685,1.);
#1009=VECTOR('',#1688,1.);
#1010=VECTOR('',#1689,1.);
#1011=VECTOR('',#1692,1.);
#1012=VECTOR('',#1697,1.);
#1013=VECTOR('',#1698,1.);
#1014=VECTOR('',#1699,1.);
#1015=VECTOR('',#1702,1.);
#1016=VECTOR('',#1705,1.);
#1017=VECTOR('',#1710,1.);
#1018=VECTOR('',#1711,1.);
#1019=VECTOR('',#1714,1.);
#1020=VECTOR('',#1715,1.);
#1021=VECTOR('',#1718,1.);
#1022=EDGE_LOOP('',(#42,#43,#44,#45,#46,#47));
#1023=EDGE_LOOP('',(#48,#49,#50,#51));
#1024=EDGE_LOOP('',(#52,#53,#54,#55,#56,#57,#58,#59,#60,#61,#62,#63,#64,
#65,#66,#67,#68,#69,#70,#71,#72,#73,#74,#75,#76,#77,#78,#79,#80,#81,#82,
#83,#84,#85,#86,#87,#88,#89));
#1025=EDGE_LOOP('',(#90,#91,#92,#93));
#1026=EDGE_LOOP('',(#94,#95,#96,#97));
#1027=EDGE_LOOP('',(#98,#99,#100,#101,#102,#103));
#1028=EDGE_LOOP('',(#104,#105,#106,#107,#108,#109,#110,#111));
#1029=EDGE_LOOP('',(#112,#113,#114,#115,#116,#117,#118,#119));
#1030=EDGE_LOOP('',(#120,#121,#122,#123,#124,#125,#126,#127,#128,#129,#130,
#131));
#1031=EDGE_LOOP('',(#132,#133,#134,#135,#136,#137,#138,#139));
#1032=EDGE_LOOP('',(#140,#141,#142,#143));
#1033=EDGE_LOOP('',(#144,#145,#146,#147));
#1034=EDGE_LOOP('',(#148,#149,#150,#151));
#1035=EDGE_LOOP('',(#152,#153,#154,#155));
#1036=EDGE_LOOP('',(#156,#157,#158,#159));
#1037=EDGE_LOOP('',(#160,#161,#162,#163));
#1038=EDGE_LOOP('',(#164,#165,#166,#167,#168));
#1039=EDGE_LOOP('',(#169,#170,#171,#172));
#1040=EDGE_LOOP('',(#173,#174,#175,#176));
#1041=EDGE_LOOP('',(#177,#178,#179,#180));
#1042=EDGE_LOOP('',(#181,#182,#183,#184,#185,#186,#187,#188));
#1043=EDGE_LOOP('',(#189,#190,#191,#192));
#1044=EDGE_LOOP('',(#193,#194,#195,#196));
#1045=EDGE_LOOP('',(#197,#198,#199,#200));
#1046=EDGE_LOOP('',(#201,#202,#203,#204));
#1047=EDGE_LOOP('',(#205,#206,#207,#208));
#1048=EDGE_LOOP('',(#209,#210,#211,#212));
#1049=EDGE_LOOP('',(#213,#214,#215,#216,#217));
#1050=EDGE_LOOP('',(#218,#219,#220,#221));
#1051=EDGE_LOOP('',(#222,#223,#224,#225,#226));
#1052=EDGE_LOOP('',(#227,#228,#229,#230));
#1053=EDGE_LOOP('',(#231,#232,#233,#234));
#1054=EDGE_LOOP('',(#235,#236,#237,#238));
#1055=EDGE_LOOP('',(#239,#240,#241,#242));
#1056=EDGE_LOOP('',(#243,#244,#245,#246));
#1057=EDGE_LOOP('',(#247,#248,#249,#250));
#1058=EDGE_LOOP('',(#251,#252,#253,#254,#255));
#1059=EDGE_LOOP('',(#256,#257,#258,#259));
#1060=EDGE_LOOP('',(#260,#261,#262,#263,#264,#265));
#1061=EDGE_LOOP('',(#266,#267,#268,#269));
#1062=EDGE_LOOP('',(#270,#271,#272,#273));
#1063=EDGE_LOOP('',(#274,#275,#276,#277));
#1064=EDGE_LOOP('',(#278,#279,#280,#281));
#1065=EDGE_LOOP('',(#282,#283,#284,#285,#286,#287,#288,#289,#290,#291));
#1066=EDGE_LOOP('',(#292,#293,#294,#295));
#1067=EDGE_LOOP('',(#296,#297,#298,#299));
#1068=EDGE_LOOP('',(#300,#301,#302,#303));
#1069=EDGE_LOOP('',(#304,#305,#306,#307));
#1070=EDGE_LOOP('',(#308,#309,#310,#311));
#1071=EDGE_LOOP('',(#312,#313,#314,#315));
#1072=EDGE_LOOP('',(#316,#317,#318,#319,#320,#321));
#1073=EDGE_LOOP('',(#322,#323,#324,#325));
#1074=EDGE_LOOP('',(#326,#327,#328,#329));
#1075=EDGE_LOOP('',(#330,#331,#332,#333));
#1076=EDGE_LOOP('',(#334,#335,#336,#337));
#1077=EDGE_LOOP('',(#338,#339,#340,#341));
#1078=EDGE_LOOP('',(#342,#343,#344,#345));
#1079=EDGE_LOOP('',(#346,#347,#348,#349));
#1080=EDGE_LOOP('',(#350,#351,#352,#353));
#1081=EDGE_LOOP('',(#354,#355,#356,#357));
#1082=EDGE_LOOP('',(#358,#359,#360,#361));
#1083=EDGE_LOOP('',(#362,#363,#364,#365));
#1084=EDGE_LOOP('',(#366,#367,#368,#369));
#1085=EDGE_LOOP('',(#370,#371,#372,#373,#374));
#1086=EDGE_LOOP('',(#375,#376,#377,#378,#379));
#1087=EDGE_LOOP('',(#380,#381,#382,#383));
#1088=EDGE_LOOP('',(#384,#385,#386,#387,#388));
#1089=EDGE_LOOP('',(#389,#390,#391,#392,#393));
#1090=EDGE_LOOP('',(#394,#395,#396,#397));
#1091=EDGE_LOOP('',(#398,#399,#400,#401));
#1092=FACE_BOUND('',#1022,.T.);
#1093=FACE_BOUND('',#1023,.T.);
#1094=FACE_BOUND('',#1024,.T.);
#1095=FACE_BOUND('',#1025,.T.);
#1096=FACE_BOUND('',#1026,.T.);
#1097=FACE_BOUND('',#1027,.T.);
#1098=FACE_BOUND('',#1028,.T.);
#1099=FACE_BOUND('',#1029,.T.);
#1100=FACE_BOUND('',#1030,.T.);
#1101=FACE_BOUND('',#1031,.T.);
#1102=FACE_BOUND('',#1032,.T.);
#1103=FACE_BOUND('',#1033,.T.);
#1104=FACE_BOUND('',#1034,.T.);
#1105=FACE_BOUND('',#1035,.T.);
#1106=FACE_BOUND('',#1036,.T.);
#1107=FACE_BOUND('',#1037,.T.);
#1108=FACE_BOUND('',#1038,.T.);
#1109=FACE_BOUND('',#1039,.T.);
#1110=FACE_BOUND('',#1040,.T.);
#1111=FACE_BOUND('',#1041,.T.);
#1112=FACE_BOUND('',#1042,.T.);
#1113=FACE_BOUND('',#1043,.T.);
#1114=FACE_BOUND('',#1044,.T.);
#1115=FACE_BOUND('',#1045,.T.);
#1116=FACE_BOUND('',#1046,.T.);
#1117=FACE_BOUND('',#1047,.T.);
#1118=FACE_BOUND('',#1048,.T.);
#1119=FACE_BOUND('',#1049,.T.);
#1120=FACE_BOUND('',#1050,.T.);
#1121=FACE_BOUND('',#1051,.T.);
#1122=FACE_BOUND('',#1052,.T.);
#1123=FACE_BOUND('',#1053,.T.);
#1124=FACE_BOUND('',#1054,.T.);
#1125=FACE_BOUND('',#1055,.T.);
#1126=FACE_BOUND('',#1056,.T.);
#1127=FACE_BOUND('',#1057,.T.);
#1128=FACE_BOUND('',#1058,.T.);
#1129=FACE_BOUND('',#1059,.T.);
#1130=FACE_BOUND('',#1060,.T.);
#1131=FACE_BOUND('',#1061,.T.);
#1132=FACE_BOUND('',#1062,.T.);
#1133=FACE_BOUND('',#1063,.T.);
#1134=FACE_BOUND('',#1064,.T.);
#1135=FACE_BOUND('',#1065,.T.);
#1136=FACE_BOUND('',#1066,.T.);
#1137=FACE_BOUND('',#1067,.T.);
#1138=FACE_BOUND('',#1068,.T.);
#1139=FACE_BOUND('',#1069,.T.);
#1140=FACE_BOUND('',#1070,.T.);
#1141=FACE_BOUND('',#1071,.T.);
#1142=FACE_BOUND('',#1072,.T.);
#1143=FACE_BOUND('',#1073,.T.);
#1144=FACE_BOUND('',#1074,.T.);
#1145=FACE_BOUND('',#1075,.T.);
#1146=FACE_BOUND('',#1076,.T.);
#1147=FACE_BOUND('',#1077,.T.);
#1148=FACE_BOUND('',#1078,.T.);
#1149=FACE_BOUND('',#1079,.T.);
#1150=FACE_BOUND('',#1080,.T.);
#1151=FACE_BOUND('',#1081,.T.);
#1152=FACE_BOUND('',#1082,.T.);
#1153=FACE_BOUND('',#1083,.T.);
#1154=FACE_BOUND('',#1084,.T.);
#1155=FACE_BOUND('',#1085,.T.);
#1156=FACE_BOUND('',#1086,.T.);
#1157=FACE_BOUND('',#1087,.T.);
#1158=FACE_BOUND('',#1088,.T.);
#1159=FACE_BOUND('',#1089,.T.);
#1160=FACE_BOUND('',#1090,.T.);
#1161=FACE_BOUND('',#1091,.T.);
#1162=PLANE('',#1299);
#1163=PLANE('',#1304);
#1164=PLANE('',#1305);
#1165=PLANE('',#1306);
#1166=PLANE('',#1307);
#1167=PLANE('',#1308);
#1168=PLANE('',#1309);
#1169=PLANE('',#1310);
#1170=PLANE('',#1311);
#1171=PLANE('',#1312);
#1172=PLANE('',#1313);
#1173=PLANE('',#1314);
#1174=PLANE('',#1315);
#1175=PLANE('',#1316);
#1176=PLANE('',#1317);
#1177=PLANE('',#1319);
#1178=PLANE('',#1320);
#1179=PLANE('',#1321);
#1180=PLANE('',#1322);
#1181=PLANE('',#1323);
#1182=PLANE('',#1324);
#1183=PLANE('',#1325);
#1184=PLANE('',#1326);
#1185=PLANE('',#1327);
#1186=PLANE('',#1328);
#1187=PLANE('',#1329);
#1188=PLANE('',#1331);
#1189=PLANE('',#1332);
#1190=PLANE('',#1334);
#1191=PLANE('',#1335);
#1192=PLANE('',#1336);
#1193=PLANE('',#1337);
#1194=PLANE('',#1338);
#1195=PLANE('',#1339);
#1196=PLANE('',#1340);
#1197=PLANE('',#1342);
#1198=PLANE('',#1343);
#1199=PLANE('',#1344);
#1200=PLANE('',#1346);
#1201=PLANE('',#1348);
#1202=PLANE('',#1369);
#1203=PLANE('',#1370);
#1204=PLANE('',#1371);
#1205=PLANE('',#1372);
#1206=PLANE('',#1373);
#1207=PLANE('',#1374);
#1208=PLANE('',#1375);
#1209=PLANE('',#1376);
#1210=PLANE('',#1377);
#1211=PLANE('',#1378);
#1212=PLANE('',#1379);
#1213=PLANE('',#1380);
#1214=PLANE('',#1381);
#1215=PLANE('',#1382);
#1216=PLANE('',#1383);
#1217=PLANE('',#1384);
#1218=ADVANCED_FACE('',(#1092,#1093,#1094),#1162,.T.);
#1219=ADVANCED_FACE('',(#1095),#1163,.F.);
#1220=ADVANCED_FACE('',(#1096),#1164,.T.);
#1221=ADVANCED_FACE('',(#1097),#1165,.T.);
#1222=ADVANCED_FACE('',(#1098),#1166,.T.);
#1223=ADVANCED_FACE('',(#1099),#1167,.T.);
#1224=ADVANCED_FACE('',(#1100),#1168,.F.);
#1225=ADVANCED_FACE('',(#1101),#1169,.F.);
#1226=ADVANCED_FACE('',(#1102),#1170,.T.);
#1227=ADVANCED_FACE('',(#1103),#1171,.F.);
#1228=ADVANCED_FACE('',(#1104),#1172,.T.);
#1229=ADVANCED_FACE('',(#1105),#1173,.T.);
#1230=ADVANCED_FACE('',(#1106),#1174,.F.);
#1231=ADVANCED_FACE('',(#1107),#1175,.F.);
#1232=ADVANCED_FACE('',(#1108),#1176,.T.);
#1233=ADVANCED_FACE('',(#1109),#1177,.T.);
#1234=ADVANCED_FACE('',(#1110),#1178,.T.);
#1235=ADVANCED_FACE('',(#1111),#1179,.F.);
#1236=ADVANCED_FACE('',(#1112),#1180,.T.);
#1237=ADVANCED_FACE('',(#1113),#1181,.T.);
#1238=ADVANCED_FACE('',(#1114),#1182,.F.);
#1239=ADVANCED_FACE('',(#1115),#1183,.F.);
#1240=ADVANCED_FACE('',(#1116),#1184,.T.);
#1241=ADVANCED_FACE('',(#1117),#1185,.T.);
#1242=ADVANCED_FACE('',(#1118),#1186,.T.);
#1243=ADVANCED_FACE('',(#1119),#1187,.F.);
#1244=ADVANCED_FACE('',(#1120),#1188,.F.);
#1245=ADVANCED_FACE('',(#1121),#1189,.T.);
#1246=ADVANCED_FACE('',(#1122),#1190,.T.);
#1247=ADVANCED_FACE('',(#1123),#1191,.T.);
#1248=ADVANCED_FACE('',(#1124),#1192,.F.);
#1249=ADVANCED_FACE('',(#1125),#1193,.F.);
#1250=ADVANCED_FACE('',(#1126),#1194,.F.);
#1251=ADVANCED_FACE('',(#1127),#1195,.T.);
#1252=ADVANCED_FACE('',(#1128),#1196,.F.);
#1253=ADVANCED_FACE('',(#1129),#1197,.F.);
#1254=ADVANCED_FACE('',(#1130),#1198,.T.);
#1255=ADVANCED_FACE('',(#1131),#1199,.T.);
#1256=ADVANCED_FACE('',(#1132),#1200,.F.);
#1257=ADVANCED_FACE('',(#1133),#1201,.T.);
#1258=ADVANCED_FACE('',(#1134),#20,.T.);
#1259=ADVANCED_FACE('',(#1135),#21,.T.);
#1260=ADVANCED_FACE('',(#1136),#22,.T.);
#1261=ADVANCED_FACE('',(#1137),#23,.T.);
#1262=ADVANCED_FACE('',(#1138),#24,.T.);
#1263=ADVANCED_FACE('',(#1139),#25,.T.);
#1264=ADVANCED_FACE('',(#1140),#26,.T.);
#1265=ADVANCED_FACE('',(#1141),#27,.T.);
#1266=ADVANCED_FACE('',(#1142),#28,.T.);
#1267=ADVANCED_FACE('',(#1143),#29,.T.);
#1268=ADVANCED_FACE('',(#1144),#30,.T.);
#1269=ADVANCED_FACE('',(#1145),#31,.T.);
#1270=ADVANCED_FACE('',(#1146),#1202,.T.);
#1271=ADVANCED_FACE('',(#1147),#1203,.T.);
#1272=ADVANCED_FACE('',(#1148),#1204,.T.);
#1273=ADVANCED_FACE('',(#1149),#1205,.T.);
#1274=ADVANCED_FACE('',(#1150),#1206,.T.);
#1275=ADVANCED_FACE('',(#1151),#1207,.T.);
#1276=ADVANCED_FACE('',(#1152),#1208,.T.);
#1277=ADVANCED_FACE('',(#1153),#1209,.T.);
#1278=ADVANCED_FACE('',(#1154),#1210,.F.);
#1279=ADVANCED_FACE('',(#1155),#1211,.T.);
#1280=ADVANCED_FACE('',(#1156),#1212,.F.);
#1281=ADVANCED_FACE('',(#1157),#1213,.T.);
#1282=ADVANCED_FACE('',(#1158),#1214,.T.);
#1283=ADVANCED_FACE('',(#1159),#1215,.F.);
#1284=ADVANCED_FACE('',(#1160),#1216,.T.);
#1285=ADVANCED_FACE('',(#1161),#1217,.T.);
#1286=CLOSED_SHELL('',(#1218,#1219,#1220,#1221,#1222,#1223,#1224,#1225,
#1226,#1227,#1228,#1229,#1230,#1231,#1232,#1233,#1234,#1235,#1236,#1237,
#1238,#1239,#1240,#1241,#1242,#1243,#1244,#1245,#1246,#1247,#1248,#1249,
#1250,#1251,#1252,#1253,#1254,#1255,#1256,#1257,#1258,#1259,#1260,#1261,
#1262,#1263,#1264,#1265,#1266,#1267,#1268,#1269,#1270,#1271,#1272,#1273,
#1274,#1275,#1276,#1277,#1278,#1279,#1280,#1281,#1282,#1283,#1284,#1285));
#1287=STYLED_ITEM('',(#1288),#1295);
#1288=PRESENTATION_STYLE_ASSIGNMENT((#1289));
#1289=SURFACE_STYLE_USAGE(.BOTH.,#1290);
#1290=SURFACE_SIDE_STYLE('',(#1291));
#1291=SURFACE_STYLE_FILL_AREA(#1292);
#1292=FILL_AREA_STYLE('',(#1293));
#1293=FILL_AREA_STYLE_COLOUR('',#1294);
#1294=COLOUR_RGB('',0.615686274509804,0.811764705882353,0.929411764705882);
#1295=MANIFOLD_SOLID_BREP('Part 1',#1286);
#1296=SHAPE_DEFINITION_REPRESENTATION(#2092,#1297);
#1297=SHAPE_REPRESENTATION('Part 1',(#1298),#2087);
#1298=AXIS2_PLACEMENT_3D('',#1721,#1385,#1386);
#1299=AXIS2_PLACEMENT_3D('',#1722,#1387,#1388);
#1300=AXIS2_PLACEMENT_3D('',#1730,#1392,#1393);
#1301=AXIS2_PLACEMENT_3D('',#1734,#1395,#1396);
#1302=AXIS2_PLACEMENT_3D('',#1752,#1405,#1406);
#1303=AXIS2_PLACEMENT_3D('',#1792,#1426,#1427);
#1304=AXIS2_PLACEMENT_3D('',#1819,#1441,#1442);
#1305=AXIS2_PLACEMENT_3D('',#1825,#1446,#1447);
#1306=AXIS2_PLACEMENT_3D('',#1831,#1451,#1452);
#1307=AXIS2_PLACEMENT_3D('',#1844,#1459,#1460);
#1308=AXIS2_PLACEMENT_3D('',#1855,#1467,#1468);
#1309=AXIS2_PLACEMENT_3D('',#1866,#1475,#1476);
#1310=AXIS2_PLACEMENT_3D('',#1880,#1485,#1486);
#1311=AXIS2_PLACEMENT_3D('',#1889,#1492,#1493);
#1312=AXIS2_PLACEMENT_3D('',#1891,#1495,#1496);
#1313=AXIS2_PLACEMENT_3D('',#1892,#1497,#1498);
#1314=AXIS2_PLACEMENT_3D('',#1898,#1502,#1503);
#1315=AXIS2_PLACEMENT_3D('',#1902,#1506,#1507);
#1316=AXIS2_PLACEMENT_3D('',#1906,#1510,#1511);
#1317=AXIS2_PLACEMENT_3D('',#1910,#1514,#1515);
#1318=AXIS2_PLACEMENT_3D('',#1913,#1517,#1518);
#1319=AXIS2_PLACEMENT_3D('',#1916,#1520,#1521);
#1320=AXIS2_PLACEMENT_3D('',#1920,#1524,#1525);
#1321=AXIS2_PLACEMENT_3D('',#1924,#1528,#1529);
#1322=AXIS2_PLACEMENT_3D('',#1928,#1532,#1533);
#1323=AXIS2_PLACEMENT_3D('',#1934,#1537,#1538);
#1324=AXIS2_PLACEMENT_3D('',#1940,#1542,#1543);
#1325=AXIS2_PLACEMENT_3D('',#1944,#1546,#1547);
#1326=AXIS2_PLACEMENT_3D('',#1950,#1551,#1552);
#1327=AXIS2_PLACEMENT_3D('',#1954,#1555,#1556);
#1328=AXIS2_PLACEMENT_3D('',#1956,#1558,#1559);
#1329=AXIS2_PLACEMENT_3D('',#1962,#1563,#1564);
#1330=AXIS2_PLACEMENT_3D('',#1966,#1566,#1567);
#1331=AXIS2_PLACEMENT_3D('',#1968,#1569,#1570);
#1332=AXIS2_PLACEMENT_3D('',#1972,#1573,#1574);
#1333=AXIS2_PLACEMENT_3D('',#1973,#1575,#1576);
#1334=AXIS2_PLACEMENT_3D('',#1976,#1578,#1579);
#1335=AXIS2_PLACEMENT_3D('',#1978,#1581,#1582);
#1336=AXIS2_PLACEMENT_3D('',#1980,#1584,#1585);
#1337=AXIS2_PLACEMENT_3D('',#1982,#1587,#1588);
#1338=AXIS2_PLACEMENT_3D('',#1986,#1591,#1592);
#1339=AXIS2_PLACEMENT_3D('',#1992,#1596,#1597);
#1340=AXIS2_PLACEMENT_3D('',#1996,#1600,#1601);
#1341=AXIS2_PLACEMENT_3D('',#2000,#1603,#1604);
#1342=AXIS2_PLACEMENT_3D('',#2002,#1606,#1607);
#1343=AXIS2_PLACEMENT_3D('',#2004,#1609,#1610);
#1344=AXIS2_PLACEMENT_3D('',#2010,#1614,#1615);
#1345=AXIS2_PLACEMENT_3D('',#2011,#1616,#1617);
#1346=AXIS2_PLACEMENT_3D('',#2014,#1619,#1620);
#1347=AXIS2_PLACEMENT_3D('',#2017,#1622,#1623);
#1348=AXIS2_PLACEMENT_3D('',#2018,#1624,#1625);
#1349=AXIS2_PLACEMENT_3D('',#2020,#1627,#1628);
#1350=AXIS2_PLACEMENT_3D('',#2021,#1629,#1630);
#1351=AXIS2_PLACEMENT_3D('',#2022,#1631,#1632);
#1352=AXIS2_PLACEMENT_3D('',#2023,#1633,#1634);
#1353=AXIS2_PLACEMENT_3D('',#2025,#1636,#1637);
#1354=AXIS2_PLACEMENT_3D('',#2026,#1638,#1639);
#1355=AXIS2_PLACEMENT_3D('',#2027,#1640,#1641);
#1356=AXIS2_PLACEMENT_3D('',#2028,#1642,#1643);
#1357=AXIS2_PLACEMENT_3D('',#2029,#1644,#1645);
#1358=AXIS2_PLACEMENT_3D('',#2030,#1646,#1647);
#1359=AXIS2_PLACEMENT_3D('',#2031,#1648,#1649);
#1360=AXIS2_PLACEMENT_3D('',#2032,#1650,#1651);
#1361=AXIS2_PLACEMENT_3D('',#2033,#1652,#1653);
#1362=AXIS2_PLACEMENT_3D('',#2034,#1654,#1655);
#1363=AXIS2_PLACEMENT_3D('',#2035,#1656,#1657);
#1364=AXIS2_PLACEMENT_3D('',#2037,#1659,#1660);
#1365=AXIS2_PLACEMENT_3D('',#2038,#1661,#1662);
#1366=AXIS2_PLACEMENT_3D('',#2039,#1663,#1664);
#1367=AXIS2_PLACEMENT_3D('',#2040,#1665,#1666);
#1368=AXIS2_PLACEMENT_3D('',#2041,#1667,#1668);
#1369=AXIS2_PLACEMENT_3D('',#2042,#1669,#1670);
#1370=AXIS2_PLACEMENT_3D('',#2046,#1673,#1674);
#1371=AXIS2_PLACEMENT_3D('',#2050,#1677,#1678);
#1372=AXIS2_PLACEMENT_3D('',#2052,#1680,#1681);
#1373=AXIS2_PLACEMENT_3D('',#2053,#1682,#1683);
#1374=AXIS2_PLACEMENT_3D('',#2057,#1686,#1687);
#1375=AXIS2_PLACEMENT_3D('',#2061,#1690,#1691);
#1376=AXIS2_PLACEMENT_3D('',#2063,#1693,#1694);
#1377=AXIS2_PLACEMENT_3D('',#2064,#1695,#1696);
#1378=AXIS2_PLACEMENT_3D('',#2070,#1700,#1701);
#1379=AXIS2_PLACEMENT_3D('',#2072,#1703,#1704);
#1380=AXIS2_PLACEMENT_3D('',#2074,#1706,#1707);
#1381=AXIS2_PLACEMENT_3D('',#2075,#1708,#1709);
#1382=AXIS2_PLACEMENT_3D('',#2079,#1712,#1713);
#1383=AXIS2_PLACEMENT_3D('',#2083,#1716,#1717);
#1384=AXIS2_PLACEMENT_3D('',#2085,#1719,#1720);
#1385=DIRECTION('',(0.,0.,1.));
#1386=DIRECTION('',(1.,0.,0.));
#1387=DIRECTION('',(0.,0.,1.));
#1388=DIRECTION('',(1.,0.,0.));
#1389=DIRECTION('',(0.,-1.,0.));
#1390=DIRECTION('',(1.,0.,0.));
#1391=DIRECTION('',(0.,-1.,0.));
#1392=DIRECTION('',(0.,0.,1.));
#1393=DIRECTION('',(1.,0.,0.));
#1394=DIRECTION('',(1.,0.,0.));
#1395=DIRECTION('',(0.,0.,1.));
#1396=DIRECTION('',(1.,0.,0.));
#1397=DIRECTION('',(0.,-1.,0.));
#1398=DIRECTION('',(1.,0.,0.));
#1399=DIRECTION('',(0.,-1.,0.));
#1400=DIRECTION('',(1.,0.,0.));
#1401=DIRECTION('',(0.,1.,0.));
#1402=DIRECTION('',(-1.,0.,0.));
#1403=DIRECTION('',(0.,1.,0.));
#1404=DIRECTION('',(1.,0.,0.));
#1405=DIRECTION('',(0.,0.,1.));
#1406=DIRECTION('',(1.,0.,0.));
#1407=DIRECTION('',(0.,-1.,0.));
#1408=DIRECTION('',(1.,0.,0.));
#1409=DIRECTION('',(0.,1.,0.));
#1410=DIRECTION('',(1.,0.,0.));
#1411=DIRECTION('',(0.,-1.,0.));
#1412=DIRECTION('',(1.,0.,0.));
#1413=DIRECTION('',(0.,1.,0.));
#1414=DIRECTION('',(-1.,0.,0.));
#1415=DIRECTION('',(0.,1.,0.));
#1416=DIRECTION('',(1.,0.,0.));
#1417=DIRECTION('',(0.,1.,0.));
#1418=DIRECTION('',(-1.,-6.93889390390723E-16,0.));
#1419=DIRECTION('',(0.,1.,0.));
#1420=DIRECTION('',(1.,0.,0.));
#1421=DIRECTION('',(0.,-1.,0.));
#1422=DIRECTION('',(1.,0.,0.));
#1423=DIRECTION('',(0.,1.,0.));
#1424=DIRECTION('',(1.,0.,0.));
#1425=DIRECTION('',(0.,-1.,0.));
#1426=DIRECTION('',(0.,0.,1.));
#1427=DIRECTION('',(1.,0.,0.));
#1428=DIRECTION('',(1.,0.,0.));
#1429=DIRECTION('',(0.,1.,0.));
#1430=DIRECTION('',(-1.,-3.46944695195361E-16,0.));
#1431=DIRECTION('',(0.,1.,0.));
#1432=DIRECTION('',(1.,0.,0.));
#1433=DIRECTION('',(0.,1.,0.));
#1434=DIRECTION('',(1.,0.,0.));
#1435=DIRECTION('',(0.,-1.,0.));
#1436=DIRECTION('',(1.,0.,0.));
#1437=DIRECTION('',(0.,1.,0.));
#1438=DIRECTION('',(1.,0.,0.));
#1439=DIRECTION('',(0.,-1.,0.));
#1440=DIRECTION('',(1.,0.,0.));
#1441=DIRECTION('',(-1.,0.,0.));
#1442=DIRECTION('',(0.,0.,1.));
#1443=DIRECTION('',(0.,0.,-1.));
#1444=DIRECTION('',(0.,1.,0.));
#1445=DIRECTION('',(0.,0.,-1.));
#1446=DIRECTION('',(-1.,0.,0.));
#1447=DIRECTION('',(0.,0.,1.));
#1448=DIRECTION('',(0.,1.,0.));
#1449=DIRECTION('',(0.,0.,-1.));
#1450=DIRECTION('',(0.,0.,-1.));
#1451=DIRECTION('',(0.,0.,1.));
#1452=DIRECTION('',(1.,0.,0.));
#1453=DIRECTION('',(0.,-1.,0.));
#1454=DIRECTION('',(1.,0.,0.));
#1455=DIRECTION('',(0.,1.,0.));
#1456=DIRECTION('',(-1.,-3.46944695195362E-16,0.));
#1457=DIRECTION('',(0.,1.,0.));
#1458=DIRECTION('',(1.,0.,0.));
#1459=DIRECTION('',(-1.,0.,0.));
#1460=DIRECTION('',(0.,0.,1.));
#1461=DIRECTION('',(0.,1.,0.));
#1462=DIRECTION('',(0.,0.,1.));
#1463=DIRECTION('',(0.,1.,0.));
#1464=DIRECTION('',(0.,0.,-1.));
#1465=DIRECTION('',(0.,0.,-1.));
#1466=DIRECTION('',(0.,0.,1.));
#1467=DIRECTION('',(-1.,0.,0.));
#1468=DIRECTION('',(0.,0.,1.));
#1469=DIRECTION('',(0.,1.,0.));
#1470=DIRECTION('',(0.,0.,-1.));
#1471=DIRECTION('',(0.,0.,-1.));
#1472=DIRECTION('',(0.,1.,0.));
#1473=DIRECTION('',(0.,0.,-1.));
#1474=DIRECTION('',(0.,0.,-1.));
#1475=DIRECTION('',(0.,1.,0.));
#1476=DIRECTION('',(0.,0.,1.));
#1477=DIRECTION('',(1.,0.,0.));
#1478=DIRECTION('',(0.,0.,-1.));
#1479=DIRECTION('',(0.,0.,-1.));
#1480=DIRECTION('',(1.,0.,0.));
#1481=DIRECTION('',(0.,0.,-1.));
#1482=DIRECTION('',(0.,0.,-1.));
#1483=DIRECTION('',(1.,0.,0.));
#1484=DIRECTION('',(0.,0.,-1.));
#1485=DIRECTION('',(-1.,0.,0.));
#1486=DIRECTION('',(0.,0.,1.));
#1487=DIRECTION('',(0.,1.,0.));
#1488=DIRECTION('',(0.,0.,-1.));
#1489=DIRECTION('',(0.,0.,-1.));
#1490=DIRECTION('',(0.,1.,0.));
#1491=DIRECTION('',(0.,0.,-1.));
#1492=DIRECTION('',(0.,1.,0.));
#1493=DIRECTION('',(0.,0.,1.));
#1494=DIRECTION('',(1.,0.,0.));
#1495=DIRECTION('',(0.,0.,1.));
#1496=DIRECTION('',(1.,0.,0.));
#1497=DIRECTION('',(1.,0.,0.));
#1498=DIRECTION('',(0.,0.,-1.));
#1499=DIRECTION('',(0.,-1.,0.));
#1500=DIRECTION('',(0.,0.,-1.));
#1501=DIRECTION('',(0.,0.,-1.));
#1502=DIRECTION('',(0.,1.,0.));
#1503=DIRECTION('',(0.,0.,1.));
#1504=DIRECTION('',(0.,0.,-1.));
#1505=DIRECTION('',(1.,0.,0.));
#1506=DIRECTION('',(-1.,0.,0.));
#1507=DIRECTION('',(0.,0.,1.));
#1508=DIRECTION('',(0.,0.,-1.));
#1509=DIRECTION('',(0.,1.,0.));
#1510=DIRECTION('',(0.,1.,0.));
#1511=DIRECTION('',(0.,0.,1.));
#1512=DIRECTION('',(0.,0.,-1.));
#1513=DIRECTION('',(1.,0.,0.));
#1514=DIRECTION('',(1.,0.,0.));
#1515=DIRECTION('',(0.,0.,-1.));
#1516=DIRECTION('',(0.,0.,-1.));
#1517=DIRECTION('',(1.,0.,0.));
#1518=DIRECTION('',(0.,0.,-1.));
#1519=DIRECTION('',(0.,-1.,0.));
#1520=DIRECTION('',(0.,1.,0.));
#1521=DIRECTION('',(0.,0.,1.));
#1522=DIRECTION('',(0.,0.,-1.));
#1523=DIRECTION('',(1.,0.,0.));
#1524=DIRECTION('',(-1.,0.,0.));
#1525=DIRECTION('',(0.,0.,1.));
#1526=DIRECTION('',(0.,0.,-1.));
#1527=DIRECTION('',(0.,1.,0.));
#1528=DIRECTION('',(0.,1.,0.));
#1529=DIRECTION('',(0.,0.,1.));
#1530=DIRECTION('',(0.,0.,-1.));
#1531=DIRECTION('',(1.,0.,0.));
#1532=DIRECTION('',(0.,0.,1.));
#1533=DIRECTION('',(1.,0.,0.));
#1534=DIRECTION('',(0.,1.,0.));
#1535=DIRECTION('',(1.,0.,0.));
#1536=DIRECTION('',(1.,0.,0.));
#1537=DIRECTION('',(0.,1.,0.));
#1538=DIRECTION('',(0.,0.,1.));
#1539=DIRECTION('',(0.,0.,-1.));
#1540=DIRECTION('',(1.,0.,0.));
#1541=DIRECTION('',(0.,0.,-1.));
#1542=DIRECTION('',(1.,0.,0.));
#1543=DIRECTION('',(0.,0.,-1.));
#1544=DIRECTION('',(0.,0.,-1.));
#1545=DIRECTION('',(0.,-1.,0.));
#1546=DIRECTION('',(0.,1.,0.));
#1547=DIRECTION('',(0.,0.,1.));
#1548=DIRECTION('',(0.,0.,-1.));
#1549=DIRECTION('',(1.,0.,0.));
#1550=DIRECTION('',(0.,0.,-1.));
#1551=DIRECTION('',(1.,0.,0.));
#1552=DIRECTION('',(0.,0.,-1.));
#1553=DIRECTION('',(0.,-1.,0.));
#1554=DIRECTION('',(0.,0.,-1.));
#1555=DIRECTION('',(0.,0.,1.));
#1556=DIRECTION('',(1.,0.,0.));
#1557=DIRECTION('',(1.,0.,0.));
#1558=DIRECTION('',(0.,1.,0.));
#1559=DIRECTION('',(0.,0.,1.));
#1560=DIRECTION('',(0.,0.,-1.));
#1561=DIRECTION('',(1.,0.,0.));
#1562=DIRECTION('',(0.,0.,-1.));
#1563=DIRECTION('',(1.,0.,0.));
#1564=DIRECTION('',(0.,0.,-1.));
#1565=DIRECTION('',(0.,-1.,0.));
#1566=DIRECTION('',(1.,0.,0.));
#1567=DIRECTION('',(0.,0.,-1.));
#1568=DIRECTION('',(0.,0.,-1.));
#1569=DIRECTION('',(0.,1.,0.));
#1570=DIRECTION('',(0.,0.,1.));
#1571=DIRECTION('',(0.,0.,-1.));
#1572=DIRECTION('',(1.,0.,0.));
#1573=DIRECTION('',(1.,0.,0.));
#1574=DIRECTION('',(0.,0.,-1.));
#1575=DIRECTION('',(1.,0.,0.));
#1576=DIRECTION('',(0.,0.,-1.));
#1577=DIRECTION('',(0.,-1.,0.));
#1578=DIRECTION('',(0.,0.,1.));
#1579=DIRECTION('',(1.,0.,0.));
#1580=DIRECTION('',(1.,0.,0.));
#1581=DIRECTION('',(0.,1.,0.));
#1582=DIRECTION('',(0.,0.,1.));
#1583=DIRECTION('',(0.,0.,-1.));
#1584=DIRECTION('',(1.,0.,0.));
#1585=DIRECTION('',(0.,0.,-1.));
#1586=DIRECTION('',(0.,0.,-1.));
#1587=DIRECTION('',(0.,1.,0.));
#1588=DIRECTION('',(0.,0.,1.));
#1589=DIRECTION('',(1.,0.,0.));
#1590=DIRECTION('',(0.,0.,-1.));
#1591=DIRECTION('',(-1.,0.,0.));
#1592=DIRECTION('',(0.,0.,1.));
#1593=DIRECTION('',(0.,1.,0.));
#1594=DIRECTION('',(0.,0.,-1.));
#1595=DIRECTION('',(0.,0.,-1.));
#1596=DIRECTION('',(0.,1.,0.));
#1597=DIRECTION('',(0.,0.,1.));
#1598=DIRECTION('',(0.,0.,-1.));
#1599=DIRECTION('',(1.,0.,0.));
#1600=DIRECTION('',(1.,0.,0.));
#1601=DIRECTION('',(0.,0.,-1.));
#1602=DIRECTION('',(0.,-1.,0.));
#1603=DIRECTION('',(1.,0.,0.));
#1604=DIRECTION('',(0.,0.,-1.));
#1605=DIRECTION('',(0.,0.,-1.));
#1606=DIRECTION('',(0.,1.,0.));
#1607=DIRECTION('',(0.,0.,1.));
#1608=DIRECTION('',(1.,0.,0.));
#1609=DIRECTION('',(0.,0.,1.));
#1610=DIRECTION('',(1.,0.,0.));
#1611=DIRECTION('',(0.,-1.,0.));
#1612=DIRECTION('',(1.,0.,0.));
#1613=DIRECTION('',(-1.,0.,0.));
#1614=DIRECTION('',(-3.46944695195362E-16,1.,0.));
#1615=DIRECTION('',(-1.,-3.46944695195362E-16,0.));
#1616=DIRECTION('',(-3.46944695195362E-16,1.,0.));
#1617=DIRECTION('',(-1.,-3.46944695195362E-16,0.));
#1618=DIRECTION('',(-1.,-3.46944695195362E-16,0.));
#1619=DIRECTION('',(0.,1.,0.));
#1620=DIRECTION('',(0.,0.,1.));
#1621=DIRECTION('',(-1.,0.,0.));
#1622=DIRECTION('',(0.,1.,0.));
#1623=DIRECTION('',(0.,0.,1.));
#1624=DIRECTION('',(0.,0.,1.));
#1625=DIRECTION('',(1.,0.,0.));
#1626=DIRECTION('',(0.,-1.,0.));
#1627=DIRECTION('',(1.,0.,0.));
#1628=DIRECTION('',(0.,0.,-1.));
#1629=DIRECTION('',(0.707106781186548,-0.707106781186548,0.));
#1630=DIRECTION('',(-0.707106781186548,-0.707106781186548,0.));
#1631=DIRECTION('',(0.,-1.,0.));
#1632=DIRECTION('',(0.,0.,-1.));
#1633=DIRECTION('',(-0.707106781186548,-0.707106781186548,0.));
#1634=DIRECTION('',(0.707106781186548,-0.707106781186548,0.));
#1635=DIRECTION('',(0.,1.,0.));
#1636=DIRECTION('',(-1.,0.,0.));
#1637=DIRECTION('',(0.,0.,1.));
#1638=DIRECTION('',(-0.707106781186548,0.,-0.707106781186548));
#1639=DIRECTION('',(-0.707106781186548,0.,0.707106781186548));
#1640=DIRECTION('',(0.,0.,-1.));
#1641=DIRECTION('',(-1.,0.,0.));
#1642=DIRECTION('',(0.,0.,-1.));
#1643=DIRECTION('',(-1.,0.,0.));
#1644=DIRECTION('',(-0.707106781186548,0.,-0.707106781186548));
#1645=DIRECTION('',(-0.707106781186548,0.,0.707106781186548));
#1646=DIRECTION('',(-1.,0.,0.));
#1647=DIRECTION('',(0.,0.,1.));
#1648=DIRECTION('',(-0.707106781186548,0.,0.707106781186548));
#1649=DIRECTION('',(-0.707106781186548,0.,-0.707106781186548));
#1650=DIRECTION('',(0.,0.,1.));
#1651=DIRECTION('',(1.,0.,0.));
#1652=DIRECTION('',(1.,0.,0.));
#1653=DIRECTION('',(0.,0.,-1.));
#1654=DIRECTION('',(0.707106781186548,0.707106781186548,0.));
#1655=DIRECTION('',(0.707106781186548,-0.707106781186548,0.));
#1656=DIRECTION('',(0.,1.,0.));
#1657=DIRECTION('',(0.,0.,1.));
#1658=DIRECTION('',(0.,1.,0.));
#1659=DIRECTION('',(-0.707106781186548,0.707106781186548,0.));
#1660=DIRECTION('',(0.707106781186548,0.707106781186548,0.));
#1661=DIRECTION('',(-1.,0.,0.));
#1662=DIRECTION('',(0.,0.,1.));
#1663=DIRECTION('',(-0.707106781186548,0.,0.707106781186548));
#1664=DIRECTION('',(-0.707106781186548,0.,-0.707106781186548));
#1665=DIRECTION('',(0.,0.,1.));
#1666=DIRECTION('',(1.,0.,0.));
#1667=DIRECTION('',(1.,0.,0.));
#1668=DIRECTION('',(0.,0.,-1.));
#1669=DIRECTION('',(1.,0.,0.));
#1670=DIRECTION('',(0.,0.,-1.));
#1671=DIRECTION('',(0.,0.,-1.));
#1672=DIRECTION('',(0.,-1.,0.));
#1673=DIRECTION('',(0.,1.,0.));
#1674=DIRECTION('',(0.,0.,1.));
#1675=DIRECTION('',(0.,0.,-1.));
#1676=DIRECTION('',(1.,0.,0.));
#1677=DIRECTION('',(-1.,0.,0.));
#1678=DIRECTION('',(0.,0.,1.));
#1679=DIRECTION('',(0.,1.,0.));
#1680=DIRECTION('',(0.,0.,1.));
#1681=DIRECTION('',(1.,0.,0.));
#1682=DIRECTION('',(1.,0.,0.));
#1683=DIRECTION('',(0.,0.,-1.));
#1684=DIRECTION('',(0.,0.,-1.));
#1685=DIRECTION('',(0.,-1.,0.));
#1686=DIRECTION('',(0.,1.,0.));
#1687=DIRECTION('',(0.,0.,1.));
#1688=DIRECTION('',(0.,0.,-1.));
#1689=DIRECTION('',(1.,0.,0.));
#1690=DIRECTION('',(-1.,0.,0.));
#1691=DIRECTION('',(0.,0.,1.));
#1692=DIRECTION('',(0.,1.,0.));
#1693=DIRECTION('',(0.,0.,1.));
#1694=DIRECTION('',(1.,0.,0.));
#1695=DIRECTION('',(-1.,0.,0.));
#1696=DIRECTION('',(0.,0.,1.));
#1697=DIRECTION('',(0.,0.,-1.));
#1698=DIRECTION('',(0.,0.,-1.));
#1699=DIRECTION('',(0.,1.,0.));
#1700=DIRECTION('',(3.46944695195361E-16,-1.,0.));
#1701=DIRECTION('',(1.,3.46944695195361E-16,0.));
#1702=DIRECTION('',(-1.,-3.46944695195361E-16,0.));
#1703=DIRECTION('',(6.93889390390723E-16,-1.,0.));
#1704=DIRECTION('',(1.,6.93889390390723E-16,0.));
#1705=DIRECTION('',(-1.,-6.93889390390723E-16,0.));
#1706=DIRECTION('',(0.,0.,1.));
#1707=DIRECTION('',(1.,0.,0.));
#1708=DIRECTION('',(0.,-1.,0.));
#1709=DIRECTION('',(0.,0.,-1.));
#1710=DIRECTION('',(-1.,0.,0.));
#1711=DIRECTION('',(0.,0.,-1.));
#1712=DIRECTION('',(0.,-1.,0.));
#1713=DIRECTION('',(0.,0.,-1.));
#1714=DIRECTION('',(0.,0.,-1.));
#1715=DIRECTION('',(-1.,0.,0.));
#1716=DIRECTION('',(-1.,0.,0.));
#1717=DIRECTION('',(0.,0.,1.));
#1718=DIRECTION('',(0.,1.,0.));
#1719=DIRECTION('',(0.,0.,1.));
#1720=DIRECTION('',(1.,0.,0.));
#1721=CARTESIAN_POINT('',(0.,0.,0.));
#1722=CARTESIAN_POINT('',(0.,0.,0.0025));
#1723=CARTESIAN_POINT('',(-0.00825,-0.01905,0.0025));
#1724=CARTESIAN_POINT('',(-0.00825,-0.0178,0.0025));
#1725=CARTESIAN_POINT('',(-0.00825,-0.0188,0.0025));
#1726=CARTESIAN_POINT('',(0.,-0.0178,0.0025));
#1727=CARTESIAN_POINT('',(0.00825,-0.0178,0.0025));
#1728=CARTESIAN_POINT('',(0.00825,-0.01905,0.0025));
#1729=CARTESIAN_POINT('',(0.00825,-0.0188,0.0025));
#1730=CARTESIAN_POINT('',(0.00675,-0.0188,0.0025));
#1731=CARTESIAN_POINT('',(0.00675,-0.0203,0.0025));
#1732=CARTESIAN_POINT('',(0.,-0.0203,0.0025));
#1733=CARTESIAN_POINT('',(-0.00675,-0.0203,0.0025));
#1734=CARTESIAN_POINT('',(-0.00675,-0.0188,0.0025));
#1735=CARTESIAN_POINT('',(-0.00825,0.01905,0.0025));
#1736=CARTESIAN_POINT('',(-0.00825,0.0203,0.0025));
#1737=CARTESIAN_POINT('',(-0.00825,0.0178,0.0025));
#1738=CARTESIAN_POINT('',(0.,0.0203,0.0025));
#1739=CARTESIAN_POINT('',(0.00825,0.0203,0.0025));
#1740=CARTESIAN_POINT('',(0.00825,0.01905,0.0025));
#1741=CARTESIAN_POINT('',(0.00825,0.0178,0.0025));
#1742=CARTESIAN_POINT('',(0.,0.0178,0.0025));
#1743=CARTESIAN_POINT('',(0.0328,-1.7347234759768E-18,0.0025));
#1744=CARTESIAN_POINT('',(0.0328,-0.0228,0.0025));
#1745=CARTESIAN_POINT('',(0.0328,-0.0048,0.0025));
#1746=CARTESIAN_POINT('',(0.03155,-0.0048,0.0025));
#1747=CARTESIAN_POINT('',(0.0303,-0.0048,0.0025));
#1748=CARTESIAN_POINT('',(0.0303,3.46944695195361E-18,0.0025));
#1749=CARTESIAN_POINT('',(0.0303,-0.0203,0.0025));
#1750=CARTESIAN_POINT('',(0.026025,-0.0203,0.0025));
#1751=CARTESIAN_POINT('',(0.02325,-0.0203,0.0025));
#1752=CARTESIAN_POINT('',(0.02325,-0.0188,0.0025));
#1753=CARTESIAN_POINT('',(0.02175,-0.0188,0.0025));
#1754=CARTESIAN_POINT('',(0.02175,-0.01905,0.0025));
#1755=CARTESIAN_POINT('',(0.02175,-0.0178,0.0025));
#1756=CARTESIAN_POINT('',(0.024775,-0.0178,0.0025));
#1757=CARTESIAN_POINT('',(0.0278,-0.0178,0.0025));
#1758=CARTESIAN_POINT('',(0.0278,0.,0.0025));
#1759=CARTESIAN_POINT('',(0.0278,0.0178,0.0025));
#1760=CARTESIAN_POINT('',(0.024775,0.0178,0.0025));
#1761=CARTESIAN_POINT('',(0.02175,0.0178,0.0025));
#1762=CARTESIAN_POINT('',(0.02175,0.01905,0.0025));
#1763=CARTESIAN_POINT('',(0.02175,0.0203,0.0025));
#1764=CARTESIAN_POINT('',(0.026025,0.0203,0.0025));
#1765=CARTESIAN_POINT('',(0.0303,0.0203,0.0025));
#1766=CARTESIAN_POINT('',(0.0303,3.46944695195361E-18,0.0025));
#1767=CARTESIAN_POINT('',(0.0303,0.0048,0.0025));
#1768=CARTESIAN_POINT('',(0.03155,0.0048,0.0025));
#1769=CARTESIAN_POINT('',(0.0328,0.0048,0.0025));
#1770=CARTESIAN_POINT('',(0.0328,-1.7347234759768E-18,0.0025));
#1771=CARTESIAN_POINT('',(0.0328,0.0228,0.0025));
#1772=CARTESIAN_POINT('',(0.,0.0228,0.0025));
#1773=CARTESIAN_POINT('',(-0.0328,0.0228,0.0025));
#1774=CARTESIAN_POINT('',(-0.0328,0.,0.0025));
#1775=CARTESIAN_POINT('',(-0.0328,0.0042,0.0025));
#1776=CARTESIAN_POINT('',(-0.03155,0.0042,0.0025));
#1777=CARTESIAN_POINT('',(-0.0303,0.0042,0.0025));
#1778=CARTESIAN_POINT('',(-0.0303,0.,0.0025));
#1779=CARTESIAN_POINT('',(-0.0303,0.0203,0.0025));
#1780=CARTESIAN_POINT('',(-0.026025,0.0203,0.0025));
#1781=CARTESIAN_POINT('',(-0.02175,0.0203,0.0025));
#1782=CARTESIAN_POINT('',(-0.02175,0.01905,0.0025));
#1783=CARTESIAN_POINT('',(-0.02175,0.0178,0.0025));
#1784=CARTESIAN_POINT('',(-0.024775,0.0178,0.0025));
#1785=CARTESIAN_POINT('',(-0.0278,0.0178,0.0025));
#1786=CARTESIAN_POINT('',(-0.0278,0.,0.0025));
#1787=CARTESIAN_POINT('',(-0.0278,-0.0178,0.0025));
#1788=CARTESIAN_POINT('',(-0.024775,-0.0178,0.0025));
#1789=CARTESIAN_POINT('',(-0.02175,-0.0178,0.0025));
#1790=CARTESIAN_POINT('',(-0.02175,-0.01905,0.0025));
#1791=CARTESIAN_POINT('',(-0.02175,-0.0188,0.0025));
#1792=CARTESIAN_POINT('',(-0.02325,-0.0188,0.0025));
#1793=CARTESIAN_POINT('',(-0.02325,-0.0203,0.0025));
#1794=CARTESIAN_POINT('',(-0.026025,-0.0203,0.0025));
#1795=CARTESIAN_POINT('',(-0.0303,-0.0203,0.0025));
#1796=CARTESIAN_POINT('',(-0.0303,0.,0.0025));
#1797=CARTESIAN_POINT('',(-0.0303,-0.0042,0.0025));
#1798=CARTESIAN_POINT('',(-0.03155,-0.0042,0.0025));
#1799=CARTESIAN_POINT('',(-0.0328,-0.0042,0.0025));
#1800=CARTESIAN_POINT('',(-0.0328,0.,0.0025));
#1801=CARTESIAN_POINT('',(-0.0328,-0.0228,0.0025));
#1802=CARTESIAN_POINT('',(0.,-0.0228,0.0025));
#1803=CARTESIAN_POINT('',(-0.02175,-0.0228,0.0025));
#1804=CARTESIAN_POINT('',(-0.02175,-0.02155,0.0025));
#1805=CARTESIAN_POINT('',(-0.02175,-0.0203,0.0025));
#1806=CARTESIAN_POINT('',(-0.015,-0.0203,0.0025));
#1807=CARTESIAN_POINT('',(-0.00825,-0.0203,0.0025));
#1808=CARTESIAN_POINT('',(-0.00825,-0.02155,0.0025));
#1809=CARTESIAN_POINT('',(-0.00825,-0.0228,0.0025));
#1810=CARTESIAN_POINT('',(0.,-0.0228,0.0025));
#1811=CARTESIAN_POINT('',(0.00825,-0.0228,0.0025));
#1812=CARTESIAN_POINT('',(0.00825,-0.02155,0.0025));
#1813=CARTESIAN_POINT('',(0.00825,-0.0203,0.0025));
#1814=CARTESIAN_POINT('',(0.015,-0.0203,0.0025));
#1815=CARTESIAN_POINT('',(0.02175,-0.0203,0.0025));
#1816=CARTESIAN_POINT('',(0.02175,-0.02155,0.0025));
#1817=CARTESIAN_POINT('',(0.02175,-0.0228,0.0025));
#1818=CARTESIAN_POINT('',(0.,-0.0228,0.0025));
#1819=CARTESIAN_POINT('',(0.0303,3.46944695195361E-18,0.0075));
#1820=CARTESIAN_POINT('',(0.0303,-0.0048,0.0072));
#1821=CARTESIAN_POINT('',(0.0303,-0.0048,0.006));
#1822=CARTESIAN_POINT('',(0.0303,-0.0203,0.006));
#1823=CARTESIAN_POINT('',(0.0303,-0.0203,0.006));
#1824=CARTESIAN_POINT('',(0.0303,-0.0203,0.0075));
#1825=CARTESIAN_POINT('',(-0.0303,0.,0.0075));
#1826=CARTESIAN_POINT('',(-0.0303,0.,0.006));
#1827=CARTESIAN_POINT('',(-0.0303,-0.0203,0.006));
#1828=CARTESIAN_POINT('',(-0.0303,-0.0042,0.006));
#1829=CARTESIAN_POINT('',(-0.0303,-0.0042,0.0077));
#1830=CARTESIAN_POINT('',(-0.0303,-0.0203,0.0075));
#1831=CARTESIAN_POINT('',(0.,0.,0.0075));
#1832=CARTESIAN_POINT('',(0.02175,-0.01905,0.0075));
#1833=CARTESIAN_POINT('',(0.02175,-0.0178,0.0075));
#1834=CARTESIAN_POINT('',(0.02175,-0.0188,0.0075));
#1835=CARTESIAN_POINT('',(0.0303,-0.0188,0.0075));
#1836=CARTESIAN_POINT('',(0.0288,-0.0188,0.0075));
#1837=CARTESIAN_POINT('',(0.0288,-0.0048,0.0075));
#1838=CARTESIAN_POINT('',(0.0288,-0.0048,0.0075));
#1839=CARTESIAN_POINT('',(0.02905,-0.0048,0.0075));
#1840=CARTESIAN_POINT('',(0.0278,-0.0048,0.0075));
#1841=CARTESIAN_POINT('',(0.0278,0.,0.0075));
#1842=CARTESIAN_POINT('',(0.0278,-0.0178,0.0075));
#1843=CARTESIAN_POINT('',(0.024775,-0.0178,0.0075));
#1844=CARTESIAN_POINT('',(0.0278,0.,0.0075));
#1845=CARTESIAN_POINT('',(0.0278,0.,0.0065));
#1846=CARTESIAN_POINT('',(0.0278,-0.0048,0.0065));
#1847=CARTESIAN_POINT('',(0.0278,0.0048,0.0065));
#1848=CARTESIAN_POINT('',(0.0278,0.0048,0.0065));
#1849=CARTESIAN_POINT('',(0.0278,0.0048,0.0075));
#1850=CARTESIAN_POINT('',(0.0278,0.,0.0075));
#1851=CARTESIAN_POINT('',(0.0278,0.0178,0.0075));
#1852=CARTESIAN_POINT('',(0.0278,0.0178,0.0075));
#1853=CARTESIAN_POINT('',(0.0278,-0.0178,0.0075));
#1854=CARTESIAN_POINT('',(0.0278,-0.0048,0.0065));
#1855=CARTESIAN_POINT('',(-0.0328,0.,0.0025));
#1856=CARTESIAN_POINT('',(-0.0328,0.,0.));
#1857=CARTESIAN_POINT('',(-0.0328,-0.0228,0.));
#1858=CARTESIAN_POINT('',(-0.0328,0.0228,0.));
#1859=CARTESIAN_POINT('',(-0.0328,-0.0228,0.0025));
#1860=CARTESIAN_POINT('',(-0.0328,-0.0042,0.0077));
#1861=CARTESIAN_POINT('',(-0.0328,-0.0042,0.0077));
#1862=CARTESIAN_POINT('',(-0.0328,0.,0.0077));
#1863=CARTESIAN_POINT('',(-0.0328,0.0042,0.0077));
#1864=CARTESIAN_POINT('',(-0.0328,0.0042,0.0077));
#1865=CARTESIAN_POINT('',(-0.0328,0.0228,0.0025));
#1866=CARTESIAN_POINT('',(0.,-0.0228,0.0025));
#1867=CARTESIAN_POINT('',(0.,-0.0228,0.));
#1868=CARTESIAN_POINT('',(0.0328,-0.0228,0.));
#1869=CARTESIAN_POINT('',(0.0328,-0.0228,0.0025));
#1870=CARTESIAN_POINT('',(0.02175,-0.0228,0.00378));
#1871=CARTESIAN_POINT('',(0.02175,-0.0228,0.00378));
#1872=CARTESIAN_POINT('',(0.,-0.0228,0.00378));
#1873=CARTESIAN_POINT('',(0.00825,-0.0228,0.00378));
#1874=CARTESIAN_POINT('',(0.00825,-0.0228,0.00378));
#1875=CARTESIAN_POINT('',(-0.00825,-0.0228,0.00378));
#1876=CARTESIAN_POINT('',(-0.00825,-0.0228,0.00378));
#1877=CARTESIAN_POINT('',(0.,-0.0228,0.00378));
#1878=CARTESIAN_POINT('',(-0.02175,-0.0228,0.00378));
#1879=CARTESIAN_POINT('',(-0.02175,-0.0228,0.00378));
#1880=CARTESIAN_POINT('',(0.0328,-1.7347234759768E-18,0.0025));
#1881=CARTESIAN_POINT('',(0.0328,-1.7347234759768E-18,0.));
#1882=CARTESIAN_POINT('',(0.0328,0.0228,0.));
#1883=CARTESIAN_POINT('',(0.0328,0.0228,0.0025));
#1884=CARTESIAN_POINT('',(0.0328,0.0048,0.0072));
#1885=CARTESIAN_POINT('',(0.0328,0.0048,0.0072));
#1886=CARTESIAN_POINT('',(0.0328,-1.7347234759768E-18,0.0072));
#1887=CARTESIAN_POINT('',(0.0328,-0.0048,0.0072));
#1888=CARTESIAN_POINT('',(0.0328,-0.0048,0.0072));
#1889=CARTESIAN_POINT('',(0.,0.0228,0.0025));
#1890=CARTESIAN_POINT('',(0.,0.0228,0.));
#1891=CARTESIAN_POINT('',(0.,0.,0.));
#1892=CARTESIAN_POINT('',(-0.02175,-0.01905,0.0075));
#1893=CARTESIAN_POINT('',(-0.02175,-0.01905,0.0075));
#1894=CARTESIAN_POINT('',(-0.02175,-0.0178,0.0075));
#1895=CARTESIAN_POINT('',(-0.02175,-0.0188,0.0075));
#1896=CARTESIAN_POINT('',(-0.02175,-0.0188,0.0025));
#1897=CARTESIAN_POINT('',(-0.02175,-0.0178,0.0075));
#1898=CARTESIAN_POINT('',(-0.024775,-0.0178,0.0075));
#1899=CARTESIAN_POINT('',(-0.0278,-0.0178,0.0075));
#1900=CARTESIAN_POINT('',(-0.0278,-0.0178,0.0075));
#1901=CARTESIAN_POINT('',(-0.024775,-0.0178,0.0075));
#1902=CARTESIAN_POINT('',(-0.0278,0.,0.0075));
#1903=CARTESIAN_POINT('',(-0.0278,0.0178,0.0075));
#1904=CARTESIAN_POINT('',(-0.0278,0.0178,0.0075));
#1905=CARTESIAN_POINT('',(-0.0278,0.,0.0075));
#1906=CARTESIAN_POINT('',(-0.024775,0.0178,0.0075));
#1907=CARTESIAN_POINT('',(-0.02175,0.0178,0.0075));
#1908=CARTESIAN_POINT('',(-0.02175,0.0178,0.0075));
#1909=CARTESIAN_POINT('',(-0.024775,0.0178,0.0075));
#1910=CARTESIAN_POINT('',(-0.02175,0.01905,0.0075));
#1911=CARTESIAN_POINT('',(-0.02175,0.0203,0.0075));
#1912=CARTESIAN_POINT('',(-0.02175,0.0203,0.006));
#1913=CARTESIAN_POINT('',(-0.02175,0.0188,0.006));
#1914=CARTESIAN_POINT('',(-0.02175,0.0188,0.0075));
#1915=CARTESIAN_POINT('',(-0.02175,0.01905,0.0075));
#1916=CARTESIAN_POINT('',(-0.026025,0.0203,0.0075));
#1917=CARTESIAN_POINT('',(-0.0303,0.0203,0.0075));
#1918=CARTESIAN_POINT('',(-0.0303,0.0203,0.006));
#1919=CARTESIAN_POINT('',(-0.026025,0.0203,0.006));
#1920=CARTESIAN_POINT('',(-0.0303,0.,0.0075));
#1921=CARTESIAN_POINT('',(-0.0303,0.0042,0.0077));
#1922=CARTESIAN_POINT('',(-0.0303,0.0042,0.006));
#1923=CARTESIAN_POINT('',(-0.0303,0.,0.006));
#1924=CARTESIAN_POINT('',(-0.026025,-0.0203,0.0075));
#1925=CARTESIAN_POINT('',(-0.02325,-0.0203,0.0075));
#1926=CARTESIAN_POINT('',(-0.02325,-0.0203,0.006));
#1927=CARTESIAN_POINT('',(-0.0303,-0.0203,0.006));
#1928=CARTESIAN_POINT('',(0.,0.,0.0075));
#1929=CARTESIAN_POINT('',(-0.0288,0.,0.0075));
#1930=CARTESIAN_POINT('',(-0.0288,0.0188,0.0075));
#1931=CARTESIAN_POINT('',(-0.0288,-0.0188,0.0075));
#1932=CARTESIAN_POINT('',(-0.02175,-0.0188,0.0075));
#1933=CARTESIAN_POINT('',(0.,0.0188,0.0075));
#1934=CARTESIAN_POINT('',(0.,-0.0178,0.0075));
#1935=CARTESIAN_POINT('',(-0.00825,-0.0178,0.0075));
#1936=CARTESIAN_POINT('',(-0.00825,-0.0178,0.0075));
#1937=CARTESIAN_POINT('',(0.,-0.0178,0.0075));
#1938=CARTESIAN_POINT('',(0.00825,-0.0178,0.0075));
#1939=CARTESIAN_POINT('',(0.00825,-0.0178,0.0075));
#1940=CARTESIAN_POINT('',(-0.00825,-0.01905,0.0075));
#1941=CARTESIAN_POINT('',(-0.00825,-0.0188,0.0075));
#1942=CARTESIAN_POINT('',(-0.00825,-0.0188,0.0075));
#1943=CARTESIAN_POINT('',(-0.00825,-0.01905,0.0075));
#1944=CARTESIAN_POINT('',(0.,-0.0203,0.0075));
#1945=CARTESIAN_POINT('',(0.00675,-0.0203,0.0075));
#1946=CARTESIAN_POINT('',(0.00675,-0.0203,0.006));
#1947=CARTESIAN_POINT('',(-0.00825,-0.0203,0.006));
#1948=CARTESIAN_POINT('',(-0.00675,-0.0203,0.006));
#1949=CARTESIAN_POINT('',(-0.00675,-0.0203,0.0075));
#1950=CARTESIAN_POINT('',(0.00825,-0.01905,0.0075));
#1951=CARTESIAN_POINT('',(0.00825,-0.01905,0.0075));
#1952=CARTESIAN_POINT('',(0.00825,-0.0188,0.0075));
#1953=CARTESIAN_POINT('',(0.00825,-0.0188,0.0025));
#1954=CARTESIAN_POINT('',(0.,0.,0.0075));
#1955=CARTESIAN_POINT('',(0.00825,-0.0188,0.0075));
#1956=CARTESIAN_POINT('',(0.,0.0203,0.0075));
#1957=CARTESIAN_POINT('',(-0.00825,0.0203,0.0075));
#1958=CARTESIAN_POINT('',(-0.00825,0.0203,0.006));
#1959=CARTESIAN_POINT('',(0.,0.0203,0.006));
#1960=CARTESIAN_POINT('',(0.00825,0.0203,0.006));
#1961=CARTESIAN_POINT('',(0.00825,0.0203,0.0075));
#1962=CARTESIAN_POINT('',(-0.00825,0.01905,0.0075));
#1963=CARTESIAN_POINT('',(-0.00825,0.01905,0.0075));
#1964=CARTESIAN_POINT('',(-0.00825,0.0188,0.0075));
#1965=CARTESIAN_POINT('',(-0.00825,0.0178,0.0075));
#1966=CARTESIAN_POINT('',(-0.00825,0.0188,0.006));
#1967=CARTESIAN_POINT('',(-0.00825,0.0178,0.0075));
#1968=CARTESIAN_POINT('',(0.,0.0178,0.0075));
#1969=CARTESIAN_POINT('',(0.00825,0.0178,0.0075));
#1970=CARTESIAN_POINT('',(0.00825,0.0178,0.0075));
#1971=CARTESIAN_POINT('',(0.,0.0178,0.0075));
#1972=CARTESIAN_POINT('',(0.00825,0.01905,0.0075));
#1973=CARTESIAN_POINT('',(0.00825,0.0188,0.006));
#1974=CARTESIAN_POINT('',(0.00825,0.0188,0.0075));
#1975=CARTESIAN_POINT('',(0.00825,0.01905,0.0075));
#1976=CARTESIAN_POINT('',(0.,0.,0.0075));
#1977=CARTESIAN_POINT('',(0.,0.0188,0.0075));
#1978=CARTESIAN_POINT('',(0.024775,-0.0178,0.0075));
#1979=CARTESIAN_POINT('',(0.02175,-0.0178,0.0075));
#1980=CARTESIAN_POINT('',(0.02175,-0.01905,0.0075));
#1981=CARTESIAN_POINT('',(0.02175,-0.0188,0.0075));
#1982=CARTESIAN_POINT('',(0.026025,-0.0203,0.0075));
#1983=CARTESIAN_POINT('',(0.02175,-0.0203,0.006));
#1984=CARTESIAN_POINT('',(0.02325,-0.0203,0.006));
#1985=CARTESIAN_POINT('',(0.02325,-0.0203,0.0075));
#1986=CARTESIAN_POINT('',(0.0303,3.46944695195361E-18,0.0075));
#1987=CARTESIAN_POINT('',(0.0303,-0.0203,0.006));
#1988=CARTESIAN_POINT('',(0.0303,0.0203,0.006));
#1989=CARTESIAN_POINT('',(0.0303,0.0048,0.006));
#1990=CARTESIAN_POINT('',(0.0303,0.0048,0.0072));
#1991=CARTESIAN_POINT('',(0.0303,0.0203,0.0075));
#1992=CARTESIAN_POINT('',(0.026025,0.0203,0.0075));
#1993=CARTESIAN_POINT('',(0.02175,0.0203,0.0075));
#1994=CARTESIAN_POINT('',(0.02175,0.0203,0.006));
#1995=CARTESIAN_POINT('',(0.026025,0.0203,0.006));
#1996=CARTESIAN_POINT('',(0.02175,0.01905,0.0075));
#1997=CARTESIAN_POINT('',(0.02175,0.01905,0.0075));
#1998=CARTESIAN_POINT('',(0.02175,0.0188,0.0075));
#1999=CARTESIAN_POINT('',(0.02175,0.0178,0.0075));
#2000=CARTESIAN_POINT('',(0.02175,0.0188,0.006));
#2001=CARTESIAN_POINT('',(0.02175,0.0178,0.0075));
#2002=CARTESIAN_POINT('',(0.024775,0.0178,0.0075));
#2003=CARTESIAN_POINT('',(0.024775,0.0178,0.0075));
#2004=CARTESIAN_POINT('',(0.,0.,0.0075));
#2005=CARTESIAN_POINT('',(0.0288,0.01255,0.0075));
#2006=CARTESIAN_POINT('',(0.0288,0.0048,0.0075));
#2007=CARTESIAN_POINT('',(0.0288,0.0188,0.0075));
#2008=CARTESIAN_POINT('',(0.,0.0188,0.0075));
#2009=CARTESIAN_POINT('',(0.02905,0.0048,0.0075));
#2010=CARTESIAN_POINT('',(0.02905,-0.0048,0.0065));
#2011=CARTESIAN_POINT('',(0.0288,-0.0048,0.006));
#2012=CARTESIAN_POINT('',(0.0302142135623731,-0.0048,0.0065));
#2013=CARTESIAN_POINT('',(0.02905,-0.0048,0.0065));
#2014=CARTESIAN_POINT('',(0.02905,0.0048,0.0065));
#2015=CARTESIAN_POINT('',(0.02905,0.0048,0.0065));
#2016=CARTESIAN_POINT('',(0.0302142135623731,0.0048,0.0065));
#2017=CARTESIAN_POINT('',(0.0288,0.0048,0.006));
#2018=CARTESIAN_POINT('',(0.026025,0.,0.0065));
#2019=CARTESIAN_POINT('',(0.0302142135623731,-0.0048,0.0065));
#2020=CARTESIAN_POINT('',(0.026025,0.0188,0.006));
#2021=CARTESIAN_POINT('',(0.0288,0.0188,0.006));
#2022=CARTESIAN_POINT('',(0.0288,0.,0.006));
#2023=CARTESIAN_POINT('',(0.0288,-0.0188,0.006));
#2024=CARTESIAN_POINT('',(0.0303,-0.0203,0.006));
#2025=CARTESIAN_POINT('',(0.,-0.0188,0.006));
#2026=CARTESIAN_POINT('',(0.02325,-0.0188,0.006));
#2027=CARTESIAN_POINT('',(0.02325,-0.0188,0.0075));
#2028=CARTESIAN_POINT('',(-0.00675,-0.0188,0.0075));
#2029=CARTESIAN_POINT('',(-0.00675,-0.0188,0.006));
#2030=CARTESIAN_POINT('',(0.,-0.0188,0.006));
#2031=CARTESIAN_POINT('',(0.00675,-0.0188,0.006));
#2032=CARTESIAN_POINT('',(0.00675,-0.0188,0.0075));
#2033=CARTESIAN_POINT('',(-0.026025,0.0188,0.006));
#2034=CARTESIAN_POINT('',(-0.0288,0.0188,0.006));
#2035=CARTESIAN_POINT('',(-0.0288,0.,0.006));
#2036=CARTESIAN_POINT('',(-0.0303,0.,0.006));
#2037=CARTESIAN_POINT('',(-0.0288,-0.0188,0.006));
#2038=CARTESIAN_POINT('',(0.,-0.0188,0.006));
#2039=CARTESIAN_POINT('',(-0.02325,-0.0188,0.006));
#2040=CARTESIAN_POINT('',(-0.02325,-0.0188,0.0075));
#2041=CARTESIAN_POINT('',(0.,0.0188,0.006));
#2042=CARTESIAN_POINT('',(0.02175,-0.02155,0.00378));
#2043=CARTESIAN_POINT('',(0.02175,-0.0203,0.00378));
#2044=CARTESIAN_POINT('',(0.02175,-0.0203,0.00378));
#2045=CARTESIAN_POINT('',(0.02175,-0.02155,0.00378));
#2046=CARTESIAN_POINT('',(0.015,-0.0203,0.00378));
#2047=CARTESIAN_POINT('',(0.00825,-0.0203,0.00378));
#2048=CARTESIAN_POINT('',(0.00825,-0.0203,0.00378));
#2049=CARTESIAN_POINT('',(0.015,-0.0203,0.00378));
#2050=CARTESIAN_POINT('',(0.00825,-0.02155,0.00378));
#2051=CARTESIAN_POINT('',(0.00825,-0.02155,0.00378));
#2052=CARTESIAN_POINT('',(0.,0.,0.00378));
#2053=CARTESIAN_POINT('',(-0.00825,-0.02155,0.00378));
#2054=CARTESIAN_POINT('',(-0.00825,-0.0203,0.00378));
#2055=CARTESIAN_POINT('',(-0.00825,-0.0203,0.00378));
#2056=CARTESIAN_POINT('',(-0.00825,-0.02155,0.00378));
#2057=CARTESIAN_POINT('',(-0.015,-0.0203,0.00378));
#2058=CARTESIAN_POINT('',(-0.02175,-0.0203,0.00378));
#2059=CARTESIAN_POINT('',(-0.02175,-0.0203,0.00378));
#2060=CARTESIAN_POINT('',(-0.015,-0.0203,0.00378));
#2061=CARTESIAN_POINT('',(-0.02175,-0.02155,0.00378));
#2062=CARTESIAN_POINT('',(-0.02175,-0.02155,0.00378));
#2063=CARTESIAN_POINT('',(0.,0.,0.00378));
#2064=CARTESIAN_POINT('',(-0.0303,0.,0.0077));
#2065=CARTESIAN_POINT('',(-0.0303,-0.0042,0.0077));
#2066=CARTESIAN_POINT('',(-0.0303,-0.0042,0.0077));
#2067=CARTESIAN_POINT('',(-0.0303,0.0042,0.0077));
#2068=CARTESIAN_POINT('',(-0.0303,0.0042,0.0077));
#2069=CARTESIAN_POINT('',(-0.0303,0.,0.0077));
#2070=CARTESIAN_POINT('',(-0.03155,-0.0042,0.0077));
#2071=CARTESIAN_POINT('',(-0.03155,-0.0042,0.0077));
#2072=CARTESIAN_POINT('',(-0.03155,0.0042,0.0077));
#2073=CARTESIAN_POINT('',(-0.03155,0.0042,0.0077));
#2074=CARTESIAN_POINT('',(0.,0.,0.0077));
#2075=CARTESIAN_POINT('',(0.03155,-0.0048,0.0072));
#2076=CARTESIAN_POINT('',(0.03155,-0.0048,0.0072));
#2077=CARTESIAN_POINT('',(0.0303,-0.0048,0.0072));
#2078=CARTESIAN_POINT('',(0.0303,-0.0048,0.0072));
#2079=CARTESIAN_POINT('',(0.03155,0.0048,0.0072));
#2080=CARTESIAN_POINT('',(0.0303,0.0048,0.0072));
#2081=CARTESIAN_POINT('',(0.0303,0.0048,0.0072));
#2082=CARTESIAN_POINT('',(0.03155,0.0048,0.0072));
#2083=CARTESIAN_POINT('',(0.0303,3.46944695195361E-18,0.0072));
#2084=CARTESIAN_POINT('',(0.0303,3.46944695195361E-18,0.0072));
#2085=CARTESIAN_POINT('',(0.,0.,0.0072));
#2086=MECHANICAL_DESIGN_GEOMETRIC_PRESENTATION_REPRESENTATION('',(#1287),
#2087);
#2087=(
GEOMETRIC_REPRESENTATION_CONTEXT(3)
GLOBAL_UNCERTAINTY_ASSIGNED_CONTEXT((#2088))
GLOBAL_UNIT_ASSIGNED_CONTEXT((#2091,#2090,#2089))
REPRESENTATION_CONTEXT('Part 1','TOP_LEVEL_ASSEMBLY_PART')
);
#2088=UNCERTAINTY_MEASURE_WITH_UNIT(LENGTH_MEASURE(1.E-8),#2091,
'DISTANCE_ACCURACY_VALUE','Maximum Tolerance applied to model');
#2089=(
NAMED_UNIT(*)
SI_UNIT($,.STERADIAN.)
SOLID_ANGLE_UNIT()
);
#2090=(
NAMED_UNIT(*)
PLANE_ANGLE_UNIT()
SI_UNIT($,.RADIAN.)
);
#2091=(
LENGTH_UNIT()
NAMED_UNIT(*)
SI_UNIT($,.METRE.)
);
#2092=PRODUCT_DEFINITION_SHAPE('','',#2093);
#2093=PRODUCT_DEFINITION('','',#2095,#2094);
#2094=PRODUCT_DEFINITION_CONTEXT('',#2101,'design');
#2095=PRODUCT_DEFINITION_FORMATION_WITH_SPECIFIED_SOURCE('','',#2097,
 .NOT_KNOWN.);
#2096=PRODUCT_RELATED_PRODUCT_CATEGORY('','',(#2097));
#2097=PRODUCT('Part 1','Part 1','Part 1',(#2099));
#2098=PRODUCT_CATEGORY('','');
#2099=PRODUCT_CONTEXT('',#2101,'mechanical');
#2100=APPLICATION_PROTOCOL_DEFINITION('international standard',
'ap242_managed_model_based_3d_engineering',2020,#2101);
#2101=APPLICATION_CONTEXT('managed model based 3d engineering');
ENDSEC;
END-ISO-10303-21;
