ISO-10303-21;
HEADER;
/* Generated by software containing ST-Developer
 * from STEP Tools, Inc. (www.steptools.com) 
 */
/* OPTION: using custom renumber hook */

FILE_DESCRIPTION(
/* description */ ('STEP AP242 Edition 2',
'CAx-IF Rec.Pracs.---Representation and Presentation of Product Manufa
cturing Information (PMI)---4.0---2014-10-13',
'CAx-IF Rec.Pracs.---3D Tessellated Geometry---0.4---2014-09-14','2;1',
'CAx-IF Rec.Pracs.---User Defined Attributes---1.5---2016-08-15'),
/* implementation_level */ '2;1');

FILE_NAME(
/* name */ 'Part Studio 1',
/* time_stamp */ '2026-08-04T15:38:25Z',
/* author */ (''),
/* organization */ (''),
/* preprocessor_version */ 'ST-DEVELOPER v20',
/* originating_system */ 'ONSHAPE BY PTC INC, 1.218',
/* authorisation */ '  ');

FILE_SCHEMA (('AP242_MANAGED_MODEL_BASED_3D_ENGINEERING_MIM_LF { 1 0 10303 442 3 1 4 }'));
ENDSEC;

DATA;
#10=SHAPE_REPRESENTATION_RELATIONSHIP('','',#879,#11);
#11=ADVANCED_BREP_SHAPE_REPRESENTATION('',(#877),#1421);
#12=CYLINDRICAL_SURFACE('',#888,0.0023);
#13=CYLINDRICAL_SURFACE('',#892,0.0023);
#14=CYLINDRICAL_SURFACE('',#896,0.0023);
#15=CYLINDRICAL_SURFACE('',#900,0.0023);
#16=CYLINDRICAL_SURFACE('',#904,0.0013);
#17=CYLINDRICAL_SURFACE('',#907,0.0013);
#18=CYLINDRICAL_SURFACE('',#910,0.0013);
#19=CYLINDRICAL_SURFACE('',#913,0.0013);
#20=CIRCLE('',#884,0.0023);
#21=CIRCLE('',#885,0.0023);
#22=CIRCLE('',#886,0.0023);
#23=CIRCLE('',#887,0.0023);
#24=CIRCLE('',#889,0.0023);
#25=CIRCLE('',#891,0.0013);
#26=CIRCLE('',#893,0.0023);
#27=CIRCLE('',#895,0.0013);
#28=CIRCLE('',#897,0.0023);
#29=CIRCLE('',#899,0.0013);
#30=CIRCLE('',#901,0.0023);
#31=CIRCLE('',#903,0.0013);
#32=CIRCLE('',#905,0.0013);
#33=CIRCLE('',#908,0.0013);
#34=CIRCLE('',#911,0.0013);
#35=CIRCLE('',#914,0.0013);
#36=ORIENTED_EDGE('',*,*,#260,.F.);
#37=ORIENTED_EDGE('',*,*,#261,.T.);
#38=ORIENTED_EDGE('',*,*,#262,.T.);
#39=ORIENTED_EDGE('',*,*,#263,.F.);
#40=ORIENTED_EDGE('',*,*,#264,.T.);
#41=ORIENTED_EDGE('',*,*,#265,.T.);
#42=ORIENTED_EDGE('',*,*,#266,.T.);
#43=ORIENTED_EDGE('',*,*,#267,.T.);
#44=ORIENTED_EDGE('',*,*,#268,.F.);
#45=ORIENTED_EDGE('',*,*,#269,.F.);
#46=ORIENTED_EDGE('',*,*,#270,.T.);
#47=ORIENTED_EDGE('',*,*,#271,.F.);
#48=ORIENTED_EDGE('',*,*,#268,.T.);
#49=ORIENTED_EDGE('',*,*,#272,.F.);
#50=ORIENTED_EDGE('',*,*,#273,.F.);
#51=ORIENTED_EDGE('',*,*,#274,.T.);
#52=ORIENTED_EDGE('',*,*,#275,.F.);
#53=ORIENTED_EDGE('',*,*,#276,.F.);
#54=ORIENTED_EDGE('',*,*,#277,.F.);
#55=ORIENTED_EDGE('',*,*,#278,.F.);
#56=ORIENTED_EDGE('',*,*,#279,.F.);
#57=ORIENTED_EDGE('',*,*,#278,.T.);
#58=ORIENTED_EDGE('',*,*,#280,.F.);
#59=ORIENTED_EDGE('',*,*,#279,.T.);
#60=ORIENTED_EDGE('',*,*,#281,.F.);
#61=ORIENTED_EDGE('',*,*,#277,.T.);
#62=ORIENTED_EDGE('',*,*,#282,.F.);
#63=ORIENTED_EDGE('',*,*,#281,.T.);
#64=ORIENTED_EDGE('',*,*,#283,.F.);
#65=ORIENTED_EDGE('',*,*,#276,.T.);
#66=ORIENTED_EDGE('',*,*,#284,.F.);
#67=ORIENTED_EDGE('',*,*,#283,.T.);
#68=ORIENTED_EDGE('',*,*,#285,.F.);
#69=ORIENTED_EDGE('',*,*,#275,.T.);
#70=ORIENTED_EDGE('',*,*,#286,.F.);
#71=ORIENTED_EDGE('',*,*,#285,.T.);
#72=ORIENTED_EDGE('',*,*,#286,.T.);
#73=ORIENTED_EDGE('',*,*,#287,.F.);
#74=ORIENTED_EDGE('',*,*,#287,.T.);
#75=ORIENTED_EDGE('',*,*,#284,.T.);
#76=ORIENTED_EDGE('',*,*,#288,.F.);
#77=ORIENTED_EDGE('',*,*,#288,.T.);
#78=ORIENTED_EDGE('',*,*,#282,.T.);
#79=ORIENTED_EDGE('',*,*,#289,.F.);
#80=ORIENTED_EDGE('',*,*,#289,.T.);
#81=ORIENTED_EDGE('',*,*,#280,.T.);
#82=ORIENTED_EDGE('',*,*,#290,.F.);
#83=ORIENTED_EDGE('',*,*,#290,.T.);
#84=ORIENTED_EDGE('',*,*,#291,.T.);
#85=ORIENTED_EDGE('',*,*,#269,.T.);
#86=ORIENTED_EDGE('',*,*,#274,.F.);
#87=ORIENTED_EDGE('',*,*,#292,.F.);
#88=ORIENTED_EDGE('',*,*,#293,.T.);
#89=ORIENTED_EDGE('',*,*,#294,.T.);
#90=ORIENTED_EDGE('',*,*,#295,.T.);
#91=ORIENTED_EDGE('',*,*,#296,.F.);
#92=ORIENTED_EDGE('',*,*,#297,.T.);
#93=ORIENTED_EDGE('',*,*,#298,.T.);
#94=ORIENTED_EDGE('',*,*,#299,.T.);
#95=ORIENTED_EDGE('',*,*,#300,.F.);
#96=ORIENTED_EDGE('',*,*,#273,.T.);
#97=ORIENTED_EDGE('',*,*,#301,.F.);
#98=ORIENTED_EDGE('',*,*,#302,.F.);
#99=ORIENTED_EDGE('',*,*,#303,.T.);
#100=ORIENTED_EDGE('',*,*,#261,.F.);
#101=ORIENTED_EDGE('',*,*,#304,.F.);
#102=ORIENTED_EDGE('',*,*,#305,.F.);
#103=ORIENTED_EDGE('',*,*,#292,.T.);
#104=ORIENTED_EDGE('',*,*,#267,.F.);
#105=ORIENTED_EDGE('',*,*,#306,.F.);
#106=ORIENTED_EDGE('',*,*,#307,.T.);
#107=ORIENTED_EDGE('',*,*,#308,.F.);
#108=ORIENTED_EDGE('',*,*,#309,.F.);
#109=ORIENTED_EDGE('',*,*,#310,.F.);
#110=ORIENTED_EDGE('',*,*,#311,.T.);
#111=ORIENTED_EDGE('',*,*,#312,.F.);
#112=ORIENTED_EDGE('',*,*,#313,.F.);
#113=ORIENTED_EDGE('',*,*,#314,.F.);
#114=ORIENTED_EDGE('',*,*,#301,.T.);
#115=ORIENTED_EDGE('',*,*,#272,.T.);
#116=ORIENTED_EDGE('',*,*,#315,.T.);
#117=ORIENTED_EDGE('',*,*,#316,.T.);
#118=ORIENTED_EDGE('',*,*,#317,.F.);
#119=ORIENTED_EDGE('',*,*,#318,.F.);
#120=ORIENTED_EDGE('',*,*,#319,.T.);
#121=ORIENTED_EDGE('',*,*,#320,.T.);
#122=ORIENTED_EDGE('',*,*,#316,.F.);
#123=ORIENTED_EDGE('',*,*,#321,.F.);
#124=ORIENTED_EDGE('',*,*,#322,.T.);
#125=ORIENTED_EDGE('',*,*,#323,.T.);
#126=ORIENTED_EDGE('',*,*,#324,.T.);
#127=ORIENTED_EDGE('',*,*,#325,.F.);
#128=ORIENTED_EDGE('',*,*,#326,.T.);
#129=ORIENTED_EDGE('',*,*,#327,.T.);
#130=ORIENTED_EDGE('',*,*,#328,.T.);
#131=ORIENTED_EDGE('',*,*,#329,.F.);
#132=ORIENTED_EDGE('',*,*,#330,.F.);
#133=ORIENTED_EDGE('',*,*,#331,.T.);
#134=ORIENTED_EDGE('',*,*,#332,.F.);
#135=ORIENTED_EDGE('',*,*,#333,.T.);
#136=ORIENTED_EDGE('',*,*,#317,.T.);
#137=ORIENTED_EDGE('',*,*,#320,.F.);
#138=ORIENTED_EDGE('',*,*,#334,.F.);
#139=ORIENTED_EDGE('',*,*,#335,.F.);
#140=ORIENTED_EDGE('',*,*,#333,.F.);
#141=ORIENTED_EDGE('',*,*,#336,.F.);
#142=ORIENTED_EDGE('',*,*,#337,.T.);
#143=ORIENTED_EDGE('',*,*,#338,.F.);
#144=ORIENTED_EDGE('',*,*,#339,.F.);
#145=ORIENTED_EDGE('',*,*,#340,.F.);
#146=ORIENTED_EDGE('',*,*,#341,.T.);
#147=ORIENTED_EDGE('',*,*,#342,.F.);
#148=ORIENTED_EDGE('',*,*,#343,.F.);
#149=ORIENTED_EDGE('',*,*,#344,.F.);
#150=ORIENTED_EDGE('',*,*,#345,.T.);
#151=ORIENTED_EDGE('',*,*,#318,.T.);
#152=ORIENTED_EDGE('',*,*,#315,.F.);
#153=ORIENTED_EDGE('',*,*,#345,.F.);
#154=ORIENTED_EDGE('',*,*,#346,.T.);
#155=ORIENTED_EDGE('',*,*,#347,.T.);
#156=ORIENTED_EDGE('',*,*,#263,.T.);
#157=ORIENTED_EDGE('',*,*,#348,.F.);
#158=ORIENTED_EDGE('',*,*,#349,.T.);
#159=ORIENTED_EDGE('',*,*,#321,.T.);
#160=ORIENTED_EDGE('',*,*,#350,.F.);
#161=ORIENTED_EDGE('',*,*,#295,.F.);
#162=ORIENTED_EDGE('',*,*,#351,.F.);
#163=ORIENTED_EDGE('',*,*,#342,.T.);
#164=ORIENTED_EDGE('',*,*,#352,.F.);
#165=ORIENTED_EDGE('',*,*,#328,.F.);
#166=ORIENTED_EDGE('',*,*,#353,.F.);
#167=ORIENTED_EDGE('',*,*,#308,.T.);
#168=ORIENTED_EDGE('',*,*,#354,.F.);
#169=ORIENTED_EDGE('',*,*,#324,.F.);
#170=ORIENTED_EDGE('',*,*,#355,.F.);
#171=ORIENTED_EDGE('',*,*,#312,.T.);
#172=ORIENTED_EDGE('',*,*,#356,.F.);
#173=ORIENTED_EDGE('',*,*,#299,.F.);
#174=ORIENTED_EDGE('',*,*,#357,.F.);
#175=ORIENTED_EDGE('',*,*,#338,.T.);
#176=ORIENTED_EDGE('',*,*,#271,.T.);
#177=ORIENTED_EDGE('',*,*,#358,.F.);
#178=ORIENTED_EDGE('',*,*,#331,.F.);
#179=ORIENTED_EDGE('',*,*,#359,.T.);
#180=ORIENTED_EDGE('',*,*,#335,.T.);
#181=ORIENTED_EDGE('',*,*,#360,.T.);
#182=ORIENTED_EDGE('',*,*,#265,.F.);
#183=ORIENTED_EDGE('',*,*,#361,.F.);
#184=ORIENTED_EDGE('',*,*,#359,.F.);
#185=ORIENTED_EDGE('',*,*,#330,.T.);
#186=ORIENTED_EDGE('',*,*,#361,.T.);
#187=ORIENTED_EDGE('',*,*,#264,.F.);
#188=ORIENTED_EDGE('',*,*,#296,.T.);
#189=ORIENTED_EDGE('',*,*,#350,.T.);
#190=ORIENTED_EDGE('',*,*,#341,.F.);
#191=ORIENTED_EDGE('',*,*,#362,.F.);
#192=ORIENTED_EDGE('',*,*,#339,.T.);
#193=ORIENTED_EDGE('',*,*,#357,.T.);
#194=ORIENTED_EDGE('',*,*,#298,.F.);
#195=ORIENTED_EDGE('',*,*,#363,.F.);
#196=ORIENTED_EDGE('',*,*,#297,.F.);
#197=ORIENTED_EDGE('',*,*,#362,.T.);
#198=ORIENTED_EDGE('',*,*,#340,.T.);
#199=ORIENTED_EDGE('',*,*,#363,.T.);
#200=ORIENTED_EDGE('',*,*,#300,.T.);
#201=ORIENTED_EDGE('',*,*,#356,.T.);
#202=ORIENTED_EDGE('',*,*,#337,.F.);
#203=ORIENTED_EDGE('',*,*,#364,.F.);
#204=ORIENTED_EDGE('',*,*,#291,.F.);
#205=ORIENTED_EDGE('',*,*,#364,.T.);
#206=ORIENTED_EDGE('',*,*,#336,.T.);
#207=ORIENTED_EDGE('',*,*,#332,.T.);
#208=ORIENTED_EDGE('',*,*,#358,.T.);
#209=ORIENTED_EDGE('',*,*,#270,.F.);
#210=ORIENTED_EDGE('',*,*,#313,.T.);
#211=ORIENTED_EDGE('',*,*,#355,.T.);
#212=ORIENTED_EDGE('',*,*,#323,.F.);
#213=ORIENTED_EDGE('',*,*,#365,.F.);
#214=ORIENTED_EDGE('',*,*,#262,.F.);
#215=ORIENTED_EDGE('',*,*,#303,.F.);
#216=ORIENTED_EDGE('',*,*,#366,.T.);
#217=ORIENTED_EDGE('',*,*,#348,.T.);
#218=ORIENTED_EDGE('',*,*,#314,.T.);
#219=ORIENTED_EDGE('',*,*,#365,.T.);
#220=ORIENTED_EDGE('',*,*,#322,.F.);
#221=ORIENTED_EDGE('',*,*,#349,.F.);
#222=ORIENTED_EDGE('',*,*,#366,.F.);
#223=ORIENTED_EDGE('',*,*,#302,.T.);
#224=ORIENTED_EDGE('',*,*,#309,.T.);
#225=ORIENTED_EDGE('',*,*,#353,.T.);
#226=ORIENTED_EDGE('',*,*,#327,.F.);
#227=ORIENTED_EDGE('',*,*,#367,.F.);
#228=ORIENTED_EDGE('',*,*,#325,.T.);
#229=ORIENTED_EDGE('',*,*,#354,.T.);
#230=ORIENTED_EDGE('',*,*,#311,.F.);
#231=ORIENTED_EDGE('',*,*,#368,.F.);
#232=ORIENTED_EDGE('',*,*,#326,.F.);
#233=ORIENTED_EDGE('',*,*,#368,.T.);
#234=ORIENTED_EDGE('',*,*,#310,.T.);
#235=ORIENTED_EDGE('',*,*,#367,.T.);
#236=ORIENTED_EDGE('',*,*,#329,.T.);
#237=ORIENTED_EDGE('',*,*,#352,.T.);
#238=ORIENTED_EDGE('',*,*,#307,.F.);
#239=ORIENTED_EDGE('',*,*,#369,.F.);
#240=ORIENTED_EDGE('',*,*,#319,.F.);
#241=ORIENTED_EDGE('',*,*,#369,.T.);
#242=ORIENTED_EDGE('',*,*,#306,.T.);
#243=ORIENTED_EDGE('',*,*,#266,.F.);
#244=ORIENTED_EDGE('',*,*,#360,.F.);
#245=ORIENTED_EDGE('',*,*,#334,.T.);
#246=ORIENTED_EDGE('',*,*,#343,.T.);
#247=ORIENTED_EDGE('',*,*,#351,.T.);
#248=ORIENTED_EDGE('',*,*,#294,.F.);
#249=ORIENTED_EDGE('',*,*,#370,.F.);
#250=ORIENTED_EDGE('',*,*,#260,.T.);
#251=ORIENTED_EDGE('',*,*,#347,.F.);
#252=ORIENTED_EDGE('',*,*,#371,.F.);
#253=ORIENTED_EDGE('',*,*,#304,.T.);
#254=ORIENTED_EDGE('',*,*,#344,.T.);
#255=ORIENTED_EDGE('',*,*,#370,.T.);
#256=ORIENTED_EDGE('',*,*,#293,.F.);
#257=ORIENTED_EDGE('',*,*,#305,.T.);
#258=ORIENTED_EDGE('',*,*,#371,.T.);
#259=ORIENTED_EDGE('',*,*,#346,.F.);
#260=EDGE_CURVE('',#372,#373,#452,.T.);
#261=EDGE_CURVE('',#372,#374,#453,.T.);
#262=EDGE_CURVE('',#374,#375,#454,.T.);
#263=EDGE_CURVE('',#373,#375,#455,.T.);
#264=EDGE_CURVE('',#376,#377,#456,.T.);
#265=EDGE_CURVE('',#377,#378,#457,.T.);
#266=EDGE_CURVE('',#378,#379,#458,.T.);
#267=EDGE_CURVE('',#379,#380,#459,.T.);
#268=EDGE_CURVE('',#381,#380,#460,.T.);
#269=EDGE_CURVE('',#382,#381,#461,.T.);
#270=EDGE_CURVE('',#382,#383,#462,.T.);
#271=EDGE_CURVE('',#376,#383,#463,.T.);
#272=EDGE_CURVE('',#384,#380,#464,.T.);
#273=EDGE_CURVE('',#385,#384,#465,.T.);
#274=EDGE_CURVE('',#385,#381,#466,.T.);
#275=EDGE_CURVE('',#386,#386,#20,.T.);
#276=EDGE_CURVE('',#387,#387,#21,.T.);
#277=EDGE_CURVE('',#388,#388,#22,.T.);
#278=EDGE_CURVE('',#389,#389,#23,.T.);
#279=EDGE_CURVE('',#390,#390,#24,.T.);
#280=EDGE_CURVE('',#391,#391,#25,.T.);
#281=EDGE_CURVE('',#392,#392,#26,.T.);
#282=EDGE_CURVE('',#393,#393,#27,.T.);
#283=EDGE_CURVE('',#394,#394,#28,.T.);
#284=EDGE_CURVE('',#395,#395,#29,.T.);
#285=EDGE_CURVE('',#396,#396,#30,.T.);
#286=EDGE_CURVE('',#397,#397,#31,.T.);
#287=EDGE_CURVE('',#398,#398,#32,.T.);
#288=EDGE_CURVE('',#399,#399,#33,.T.);
#289=EDGE_CURVE('',#400,#400,#34,.T.);
#290=EDGE_CURVE('',#401,#401,#35,.T.);
#291=EDGE_CURVE('',#402,#382,#467,.T.);
#292=EDGE_CURVE('',#403,#385,#468,.T.);
#293=EDGE_CURVE('',#403,#404,#469,.T.);
#294=EDGE_CURVE('',#404,#405,#470,.T.);
#295=EDGE_CURVE('',#405,#406,#471,.T.);
#296=EDGE_CURVE('',#407,#406,#472,.T.);
#297=EDGE_CURVE('',#407,#408,#473,.T.);
#298=EDGE_CURVE('',#408,#409,#474,.T.);
#299=EDGE_CURVE('',#409,#410,#475,.T.);
#300=EDGE_CURVE('',#402,#410,#476,.T.);
#301=EDGE_CURVE('',#411,#384,#477,.T.);
#302=EDGE_CURVE('',#412,#411,#478,.T.);
#303=EDGE_CURVE('',#412,#374,#479,.T.);
#304=EDGE_CURVE('',#413,#372,#480,.T.);
#305=EDGE_CURVE('',#403,#413,#481,.T.);
#306=EDGE_CURVE('',#414,#379,#482,.T.);
#307=EDGE_CURVE('',#414,#415,#483,.T.);
#308=EDGE_CURVE('',#416,#415,#484,.T.);
#309=EDGE_CURVE('',#417,#416,#485,.T.);
#310=EDGE_CURVE('',#418,#417,#486,.T.);
#311=EDGE_CURVE('',#418,#419,#487,.T.);
#312=EDGE_CURVE('',#420,#419,#488,.T.);
#313=EDGE_CURVE('',#421,#420,#489,.T.);
#314=EDGE_CURVE('',#411,#421,#490,.T.);
#315=EDGE_CURVE('',#422,#423,#491,.T.);
#316=EDGE_CURVE('',#423,#424,#492,.T.);
#317=EDGE_CURVE('',#425,#424,#493,.T.);
#318=EDGE_CURVE('',#422,#425,#494,.T.);
#319=EDGE_CURVE('',#426,#427,#495,.T.);
#320=EDGE_CURVE('',#427,#424,#496,.T.);
#321=EDGE_CURVE('',#428,#423,#497,.T.);
#322=EDGE_CURVE('',#428,#429,#498,.T.);
#323=EDGE_CURVE('',#429,#430,#499,.T.);
#324=EDGE_CURVE('',#430,#431,#500,.T.);
#325=EDGE_CURVE('',#432,#431,#501,.T.);
#326=EDGE_CURVE('',#432,#433,#502,.T.);
#327=EDGE_CURVE('',#433,#434,#503,.T.);
#328=EDGE_CURVE('',#434,#435,#504,.T.);
#329=EDGE_CURVE('',#426,#435,#505,.T.);
#330=EDGE_CURVE('',#436,#437,#506,.T.);
#331=EDGE_CURVE('',#436,#438,#507,.T.);
#332=EDGE_CURVE('',#439,#438,#508,.T.);
#333=EDGE_CURVE('',#439,#425,#509,.T.);
#334=EDGE_CURVE('',#440,#427,#510,.T.);
#335=EDGE_CURVE('',#437,#440,#511,.T.);
#336=EDGE_CURVE('',#441,#439,#512,.T.);
#337=EDGE_CURVE('',#441,#442,#513,.T.);
#338=EDGE_CURVE('',#443,#442,#514,.T.);
#339=EDGE_CURVE('',#444,#443,#515,.T.);
#340=EDGE_CURVE('',#445,#444,#516,.T.);
#341=EDGE_CURVE('',#445,#446,#517,.T.);
#342=EDGE_CURVE('',#447,#446,#518,.T.);
#343=EDGE_CURVE('',#448,#447,#519,.T.);
#344=EDGE_CURVE('',#449,#448,#520,.T.);
#345=EDGE_CURVE('',#449,#422,#521,.T.);
#346=EDGE_CURVE('',#449,#450,#522,.T.);
#347=EDGE_CURVE('',#450,#373,#523,.T.);
#348=EDGE_CURVE('',#451,#375,#524,.T.);
#349=EDGE_CURVE('',#451,#428,#525,.T.);
#350=EDGE_CURVE('',#406,#446,#526,.T.);
#351=EDGE_CURVE('',#447,#405,#527,.T.);
#352=EDGE_CURVE('',#435,#415,#528,.T.);
#353=EDGE_CURVE('',#416,#434,#529,.T.);
#354=EDGE_CURVE('',#431,#419,#530,.T.);
#355=EDGE_CURVE('',#420,#430,#531,.T.);
#356=EDGE_CURVE('',#410,#442,#532,.T.);
#357=EDGE_CURVE('',#443,#409,#533,.T.);
#358=EDGE_CURVE('',#438,#383,#534,.T.);
#359=EDGE_CURVE('',#436,#376,#535,.T.);
#360=EDGE_CURVE('',#440,#378,#536,.T.);
#361=EDGE_CURVE('',#437,#377,#537,.T.);
#362=EDGE_CURVE('',#407,#445,#538,.T.);
#363=EDGE_CURVE('',#444,#408,#539,.T.);
#364=EDGE_CURVE('',#402,#441,#540,.T.);
#365=EDGE_CURVE('',#421,#429,#541,.T.);
#366=EDGE_CURVE('',#412,#451,#542,.T.);
#367=EDGE_CURVE('',#417,#433,#543,.T.);
#368=EDGE_CURVE('',#432,#418,#544,.T.);
#369=EDGE_CURVE('',#426,#414,#545,.T.);
#370=EDGE_CURVE('',#448,#404,#546,.T.);
#371=EDGE_CURVE('',#413,#450,#547,.T.);
#372=VERTEX_POINT('',#1180);
#373=VERTEX_POINT('',#1181);
#374=VERTEX_POINT('',#1183);
#375=VERTEX_POINT('',#1185);
#376=VERTEX_POINT('',#1189);
#377=VERTEX_POINT('',#1190);
#378=VERTEX_POINT('',#1192);
#379=VERTEX_POINT('',#1194);
#380=VERTEX_POINT('',#1196);
#381=VERTEX_POINT('',#1198);
#382=VERTEX_POINT('',#1200);
#383=VERTEX_POINT('',#1202);
#384=VERTEX_POINT('',#1206);
#385=VERTEX_POINT('',#1208);
#386=VERTEX_POINT('',#1211);
#387=VERTEX_POINT('',#1213);
#388=VERTEX_POINT('',#1215);
#389=VERTEX_POINT('',#1217);
#390=VERTEX_POINT('',#1220);
#391=VERTEX_POINT('',#1223);
#392=VERTEX_POINT('',#1226);
#393=VERTEX_POINT('',#1229);
#394=VERTEX_POINT('',#1232);
#395=VERTEX_POINT('',#1235);
#396=VERTEX_POINT('',#1238);
#397=VERTEX_POINT('',#1241);
#398=VERTEX_POINT('',#1244);
#399=VERTEX_POINT('',#1248);
#400=VERTEX_POINT('',#1252);
#401=VERTEX_POINT('',#1256);
#402=VERTEX_POINT('',#1260);
#403=VERTEX_POINT('',#1262);
#404=VERTEX_POINT('',#1264);
#405=VERTEX_POINT('',#1266);
#406=VERTEX_POINT('',#1268);
#407=VERTEX_POINT('',#1270);
#408=VERTEX_POINT('',#1272);
#409=VERTEX_POINT('',#1274);
#410=VERTEX_POINT('',#1276);
#411=VERTEX_POINT('',#1280);
#412=VERTEX_POINT('',#1282);
#413=VERTEX_POINT('',#1285);
#414=VERTEX_POINT('',#1289);
#415=VERTEX_POINT('',#1291);
#416=VERTEX_POINT('',#1293);
#417=VERTEX_POINT('',#1295);
#418=VERTEX_POINT('',#1297);
#419=VERTEX_POINT('',#1299);
#420=VERTEX_POINT('',#1301);
#421=VERTEX_POINT('',#1303);
#422=VERTEX_POINT('',#1307);
#423=VERTEX_POINT('',#1308);
#424=VERTEX_POINT('',#1310);
#425=VERTEX_POINT('',#1312);
#426=VERTEX_POINT('',#1316);
#427=VERTEX_POINT('',#1317);
#428=VERTEX_POINT('',#1320);
#429=VERTEX_POINT('',#1322);
#430=VERTEX_POINT('',#1324);
#431=VERTEX_POINT('',#1326);
#432=VERTEX_POINT('',#1328);
#433=VERTEX_POINT('',#1330);
#434=VERTEX_POINT('',#1332);
#435=VERTEX_POINT('',#1334);
#436=VERTEX_POINT('',#1338);
#437=VERTEX_POINT('',#1339);
#438=VERTEX_POINT('',#1341);
#439=VERTEX_POINT('',#1343);
#440=VERTEX_POINT('',#1346);
#441=VERTEX_POINT('',#1350);
#442=VERTEX_POINT('',#1352);
#443=VERTEX_POINT('',#1354);
#444=VERTEX_POINT('',#1356);
#445=VERTEX_POINT('',#1358);
#446=VERTEX_POINT('',#1360);
#447=VERTEX_POINT('',#1362);
#448=VERTEX_POINT('',#1364);
#449=VERTEX_POINT('',#1366);
#450=VERTEX_POINT('',#1370);
#451=VERTEX_POINT('',#1373);
#452=LINE('',#1179,#548);
#453=LINE('',#1182,#549);
#454=LINE('',#1184,#550);
#455=LINE('',#1186,#551);
#456=LINE('',#1188,#552);
#457=LINE('',#1191,#553);
#458=LINE('',#1193,#554);
#459=LINE('',#1195,#555);
#460=LINE('',#1197,#556);
#461=LINE('',#1199,#557);
#462=LINE('',#1201,#558);
#463=LINE('',#1203,#559);
#464=LINE('',#1205,#560);
#465=LINE('',#1207,#561);
#466=LINE('',#1209,#562);
#467=LINE('',#1259,#563);
#468=LINE('',#1261,#564);
#469=LINE('',#1263,#565);
#470=LINE('',#1265,#566);
#471=LINE('',#1267,#567);
#472=LINE('',#1269,#568);
#473=LINE('',#1271,#569);
#474=LINE('',#1273,#570);
#475=LINE('',#1275,#571);
#476=LINE('',#1277,#572);
#477=LINE('',#1279,#573);
#478=LINE('',#1281,#574);
#479=LINE('',#1283,#575);
#480=LINE('',#1284,#576);
#481=LINE('',#1286,#577);
#482=LINE('',#1288,#578);
#483=LINE('',#1290,#579);
#484=LINE('',#1292,#580);
#485=LINE('',#1294,#581);
#486=LINE('',#1296,#582);
#487=LINE('',#1298,#583);
#488=LINE('',#1300,#584);
#489=LINE('',#1302,#585);
#490=LINE('',#1304,#586);
#491=LINE('',#1306,#587);
#492=LINE('',#1309,#588);
#493=LINE('',#1311,#589);
#494=LINE('',#1313,#590);
#495=LINE('',#1315,#591);
#496=LINE('',#1318,#592);
#497=LINE('',#1319,#593);
#498=LINE('',#1321,#594);
#499=LINE('',#1323,#595);
#500=LINE('',#1325,#596);
#501=LINE('',#1327,#597);
#502=LINE('',#1329,#598);
#503=LINE('',#1331,#599);
#504=LINE('',#1333,#600);
#505=LINE('',#1335,#601);
#506=LINE('',#1337,#602);
#507=LINE('',#1340,#603);
#508=LINE('',#1342,#604);
#509=LINE('',#1344,#605);
#510=LINE('',#1345,#606);
#511=LINE('',#1347,#607);
#512=LINE('',#1349,#608);
#513=LINE('',#1351,#609);
#514=LINE('',#1353,#610);
#515=LINE('',#1355,#611);
#516=LINE('',#1357,#612);
#517=LINE('',#1359,#613);
#518=LINE('',#1361,#614);
#519=LINE('',#1363,#615);
#520=LINE('',#1365,#616);
#521=LINE('',#1367,#617);
#522=LINE('',#1369,#618);
#523=LINE('',#1371,#619);
#524=LINE('',#1372,#620);
#525=LINE('',#1374,#621);
#526=LINE('',#1376,#622);
#527=LINE('',#1377,#623);
#528=LINE('',#1379,#624);
#529=LINE('',#1380,#625);
#530=LINE('',#1382,#626);
#531=LINE('',#1383,#627);
#532=LINE('',#1385,#628);
#533=LINE('',#1386,#629);
#534=LINE('',#1388,#630);
#535=LINE('',#1389,#631);
#536=LINE('',#1391,#632);
#537=LINE('',#1392,#633);
#538=LINE('',#1395,#634);
#539=LINE('',#1397,#635);
#540=LINE('',#1400,#636);
#541=LINE('',#1403,#637);
#542=LINE('',#1405,#638);
#543=LINE('',#1408,#639);
#544=LINE('',#1410,#640);
#545=LINE('',#1413,#641);
#546=LINE('',#1416,#642);
#547=LINE('',#1418,#643);
#548=VECTOR('',#951,1.);
#549=VECTOR('',#952,1.);
#550=VECTOR('',#953,1.);
#551=VECTOR('',#954,1.);
#552=VECTOR('',#957,1.);
#553=VECTOR('',#958,1.);
#554=VECTOR('',#959,1.);
#555=VECTOR('',#960,1.);
#556=VECTOR('',#961,1.);
#557=VECTOR('',#962,1.);
#558=VECTOR('',#963,1.);
#559=VECTOR('',#964,1.);
#560=VECTOR('',#967,1.);
#561=VECTOR('',#968,1.);
#562=VECTOR('',#969,1.);
#563=VECTOR('',#1036,1.);
#564=VECTOR('',#1037,1.);
#565=VECTOR('',#1038,1.);
#566=VECTOR('',#1039,1.);
#567=VECTOR('',#1040,1.);
#568=VECTOR('',#1041,1.);
#569=VECTOR('',#1042,1.);
#570=VECTOR('',#1043,1.);
#571=VECTOR('',#1044,1.);
#572=VECTOR('',#1045,1.);
#573=VECTOR('',#1048,1.);
#574=VECTOR('',#1049,1.);
#575=VECTOR('',#1050,1.);
#576=VECTOR('',#1051,1.);
#577=VECTOR('',#1052,1.);
#578=VECTOR('',#1055,1.);
#579=VECTOR('',#1056,1.);
#580=VECTOR('',#1057,1.);
#581=VECTOR('',#1058,1.);
#582=VECTOR('',#1059,1.);
#583=VECTOR('',#1060,1.);
#584=VECTOR('',#1061,1.);
#585=VECTOR('',#1062,1.);
#586=VECTOR('',#1063,1.);
#587=VECTOR('',#1066,1.);
#588=VECTOR('',#1067,1.);
#589=VECTOR('',#1068,1.);
#590=VECTOR('',#1069,1.);
#591=VECTOR('',#1072,1.);
#592=VECTOR('',#1073,1.);
#593=VECTOR('',#1074,1.);
#594=VECTOR('',#1075,1.);
#595=VECTOR('',#1076,1.);
#596=VECTOR('',#1077,1.);
#597=VECTOR('',#1078,1.);
#598=VECTOR('',#1079,1.);
#599=VECTOR('',#1080,1.);
#600=VECTOR('',#1081,1.);
#601=VECTOR('',#1082,1.);
#602=VECTOR('',#1085,1.);
#603=VECTOR('',#1086,1.);
#604=VECTOR('',#1087,1.);
#605=VECTOR('',#1088,1.);
#606=VECTOR('',#1089,1.);
#607=VECTOR('',#1090,1.);
#608=VECTOR('',#1093,1.);
#609=VECTOR('',#1094,1.);
#610=VECTOR('',#1095,1.);
#611=VECTOR('',#1096,1.);
#612=VECTOR('',#1097,1.);
#613=VECTOR('',#1098,1.);
#614=VECTOR('',#1099,1.);
#615=VECTOR('',#1100,1.);
#616=VECTOR('',#1101,1.);
#617=VECTOR('',#1102,1.);
#618=VECTOR('',#1105,1.);
#619=VECTOR('',#1106,1.);
#620=VECTOR('',#1107,1.);
#621=VECTOR('',#1108,1.);
#622=VECTOR('',#1111,1.);
#623=VECTOR('',#1112,1.);
#624=VECTOR('',#1115,1.);
#625=VECTOR('',#1116,1.);
#626=VECTOR('',#1119,1.);
#627=VECTOR('',#1120,1.);
#628=VECTOR('',#1123,1.);
#629=VECTOR('',#1124,1.);
#630=VECTOR('',#1127,1.);
#631=VECTOR('',#1128,1.);
#632=VECTOR('',#1131,1.);
#633=VECTOR('',#1132,1.);
#634=VECTOR('',#1137,1.);
#635=VECTOR('',#1140,1.);
#636=VECTOR('',#1145,1.);
#637=VECTOR('',#1150,1.);
#638=VECTOR('',#1153,1.);
#639=VECTOR('',#1158,1.);
#640=VECTOR('',#1161,1.);
#641=VECTOR('',#1166,1.);
#642=VECTOR('',#1171,1.);
#643=VECTOR('',#1174,1.);
#644=EDGE_LOOP('',(#36,#37,#38,#39));
#645=EDGE_LOOP('',(#40,#41,#42,#43,#44,#45,#46,#47));
#646=EDGE_LOOP('',(#48,#49,#50,#51));
#647=EDGE_LOOP('',(#52));
#648=EDGE_LOOP('',(#53));
#649=EDGE_LOOP('',(#54));
#650=EDGE_LOOP('',(#55));
#651=EDGE_LOOP('',(#56));
#652=EDGE_LOOP('',(#57));
#653=EDGE_LOOP('',(#58));
#654=EDGE_LOOP('',(#59));
#655=EDGE_LOOP('',(#60));
#656=EDGE_LOOP('',(#61));
#657=EDGE_LOOP('',(#62));
#658=EDGE_LOOP('',(#63));
#659=EDGE_LOOP('',(#64));
#660=EDGE_LOOP('',(#65));
#661=EDGE_LOOP('',(#66));
#662=EDGE_LOOP('',(#67));
#663=EDGE_LOOP('',(#68));
#664=EDGE_LOOP('',(#69));
#665=EDGE_LOOP('',(#70));
#666=EDGE_LOOP('',(#71));
#667=EDGE_LOOP('',(#72));
#668=EDGE_LOOP('',(#73));
#669=EDGE_LOOP('',(#74));
#670=EDGE_LOOP('',(#75));
#671=EDGE_LOOP('',(#76));
#672=EDGE_LOOP('',(#77));
#673=EDGE_LOOP('',(#78));
#674=EDGE_LOOP('',(#79));
#675=EDGE_LOOP('',(#80));
#676=EDGE_LOOP('',(#81));
#677=EDGE_LOOP('',(#82));
#678=EDGE_LOOP('',(#83));
#679=EDGE_LOOP('',(#84,#85,#86,#87,#88,#89,#90,#91,#92,#93,#94,#95));
#680=EDGE_LOOP('',(#96,#97,#98,#99,#100,#101,#102,#103));
#681=EDGE_LOOP('',(#104,#105,#106,#107,#108,#109,#110,#111,#112,#113,#114,
#115));
#682=EDGE_LOOP('',(#116,#117,#118,#119));
#683=EDGE_LOOP('',(#120,#121,#122,#123,#124,#125,#126,#127,#128,#129,#130,
#131));
#684=EDGE_LOOP('',(#132,#133,#134,#135,#136,#137,#138,#139));
#685=EDGE_LOOP('',(#140,#141,#142,#143,#144,#145,#146,#147,#148,#149,#150,
#151));
#686=EDGE_LOOP('',(#152,#153,#154,#155,#156,#157,#158,#159));
#687=EDGE_LOOP('',(#160,#161,#162,#163));
#688=EDGE_LOOP('',(#164,#165,#166,#167));
#689=EDGE_LOOP('',(#168,#169,#170,#171));
#690=EDGE_LOOP('',(#172,#173,#174,#175));
#691=EDGE_LOOP('',(#176,#177,#178,#179));
#692=EDGE_LOOP('',(#180,#181,#182,#183));
#693=EDGE_LOOP('',(#184,#185,#186,#187));
#694=EDGE_LOOP('',(#188,#189,#190,#191));
#695=EDGE_LOOP('',(#192,#193,#194,#195));
#696=EDGE_LOOP('',(#196,#197,#198,#199));
#697=EDGE_LOOP('',(#200,#201,#202,#203));
#698=EDGE_LOOP('',(#204,#205,#206,#207,#208,#209));
#699=EDGE_LOOP('',(#210,#211,#212,#213));
#700=EDGE_LOOP('',(#214,#215,#216,#217));
#701=EDGE_LOOP('',(#218,#219,#220,#221,#222,#223));
#702=EDGE_LOOP('',(#224,#225,#226,#227));
#703=EDGE_LOOP('',(#228,#229,#230,#231));
#704=EDGE_LOOP('',(#232,#233,#234,#235));
#705=EDGE_LOOP('',(#236,#237,#238,#239));
#706=EDGE_LOOP('',(#240,#241,#242,#243,#244,#245));
#707=EDGE_LOOP('',(#246,#247,#248,#249));
#708=EDGE_LOOP('',(#250,#251,#252,#253));
#709=EDGE_LOOP('',(#254,#255,#256,#257,#258,#259));
#710=FACE_BOUND('',#644,.T.);
#711=FACE_BOUND('',#645,.T.);
#712=FACE_BOUND('',#646,.T.);
#713=FACE_BOUND('',#647,.T.);
#714=FACE_BOUND('',#648,.T.);
#715=FACE_BOUND('',#649,.T.);
#716=FACE_BOUND('',#650,.T.);
#717=FACE_BOUND('',#651,.T.);
#718=FACE_BOUND('',#652,.T.);
#719=FACE_BOUND('',#653,.T.);
#720=FACE_BOUND('',#654,.T.);
#721=FACE_BOUND('',#655,.T.);
#722=FACE_BOUND('',#656,.T.);
#723=FACE_BOUND('',#657,.T.);
#724=FACE_BOUND('',#658,.T.);
#725=FACE_BOUND('',#659,.T.);
#726=FACE_BOUND('',#660,.T.);
#727=FACE_BOUND('',#661,.T.);
#728=FACE_BOUND('',#662,.T.);
#729=FACE_BOUND('',#663,.T.);
#730=FACE_BOUND('',#664,.T.);
#731=FACE_BOUND('',#665,.T.);
#732=FACE_BOUND('',#666,.T.);
#733=FACE_BOUND('',#667,.T.);
#734=FACE_BOUND('',#668,.T.);
#735=FACE_BOUND('',#669,.T.);
#736=FACE_BOUND('',#670,.T.);
#737=FACE_BOUND('',#671,.T.);
#738=FACE_BOUND('',#672,.T.);
#739=FACE_BOUND('',#673,.T.);
#740=FACE_BOUND('',#674,.T.);
#741=FACE_BOUND('',#675,.T.);
#742=FACE_BOUND('',#676,.T.);
#743=FACE_BOUND('',#677,.T.);
#744=FACE_BOUND('',#678,.T.);
#745=FACE_BOUND('',#679,.T.);
#746=FACE_BOUND('',#680,.T.);
#747=FACE_BOUND('',#681,.T.);
#748=FACE_BOUND('',#682,.T.);
#749=FACE_BOUND('',#683,.T.);
#750=FACE_BOUND('',#684,.T.);
#751=FACE_BOUND('',#685,.T.);
#752=FACE_BOUND('',#686,.T.);
#753=FACE_BOUND('',#687,.T.);
#754=FACE_BOUND('',#688,.T.);
#755=FACE_BOUND('',#689,.T.);
#756=FACE_BOUND('',#690,.T.);
#757=FACE_BOUND('',#691,.T.);
#758=FACE_BOUND('',#692,.T.);
#759=FACE_BOUND('',#693,.T.);
#760=FACE_BOUND('',#694,.T.);
#761=FACE_BOUND('',#695,.T.);
#762=FACE_BOUND('',#696,.T.);
#763=FACE_BOUND('',#697,.T.);
#764=FACE_BOUND('',#698,.T.);
#765=FACE_BOUND('',#699,.T.);
#766=FACE_BOUND('',#700,.T.);
#767=FACE_BOUND('',#701,.T.);
#768=FACE_BOUND('',#702,.T.);
#769=FACE_BOUND('',#703,.T.);
#770=FACE_BOUND('',#704,.T.);
#771=FACE_BOUND('',#705,.T.);
#772=FACE_BOUND('',#706,.T.);
#773=FACE_BOUND('',#707,.T.);
#774=FACE_BOUND('',#708,.T.);
#775=FACE_BOUND('',#709,.T.);
#776=PLANE('',#881);
#777=PLANE('',#882);
#778=PLANE('',#883);
#779=PLANE('',#890);
#780=PLANE('',#894);
#781=PLANE('',#898);
#782=PLANE('',#902);
#783=PLANE('',#906);
#784=PLANE('',#909);
#785=PLANE('',#912);
#786=PLANE('',#915);
#787=PLANE('',#916);
#788=PLANE('',#917);
#789=PLANE('',#918);
#790=PLANE('',#919);
#791=PLANE('',#920);
#792=PLANE('',#921);
#793=PLANE('',#922);
#794=PLANE('',#923);
#795=PLANE('',#924);
#796=PLANE('',#925);
#797=PLANE('',#926);
#798=PLANE('',#927);
#799=PLANE('',#928);
#800=PLANE('',#929);
#801=PLANE('',#930);
#802=PLANE('',#931);
#803=PLANE('',#932);
#804=PLANE('',#933);
#805=PLANE('',#934);
#806=PLANE('',#935);
#807=PLANE('',#936);
#808=PLANE('',#937);
#809=PLANE('',#938);
#810=PLANE('',#939);
#811=PLANE('',#940);
#812=PLANE('',#941);
#813=PLANE('',#942);
#814=PLANE('',#943);
#815=PLANE('',#944);
#816=PLANE('',#945);
#817=PLANE('',#946);
#818=ADVANCED_FACE('',(#710),#776,.T.);
#819=ADVANCED_FACE('',(#711),#777,.T.);
#820=ADVANCED_FACE('',(#712,#713,#714,#715,#716),#778,.T.);
#821=ADVANCED_FACE('',(#717,#718),#12,.T.);
#822=ADVANCED_FACE('',(#719,#720),#779,.T.);
#823=ADVANCED_FACE('',(#721,#722),#13,.T.);
#824=ADVANCED_FACE('',(#723,#724),#780,.T.);
#825=ADVANCED_FACE('',(#725,#726),#14,.T.);
#826=ADVANCED_FACE('',(#727,#728),#781,.T.);
#827=ADVANCED_FACE('',(#729,#730),#15,.T.);
#828=ADVANCED_FACE('',(#731,#732),#782,.T.);
#829=ADVANCED_FACE('',(#733,#734),#16,.T.);
#830=ADVANCED_FACE('',(#735),#783,.T.);
#831=ADVANCED_FACE('',(#736,#737),#17,.T.);
#832=ADVANCED_FACE('',(#738),#784,.T.);
#833=ADVANCED_FACE('',(#739,#740),#18,.T.);
#834=ADVANCED_FACE('',(#741),#785,.T.);
#835=ADVANCED_FACE('',(#742,#743),#19,.T.);
#836=ADVANCED_FACE('',(#744),#786,.T.);
#837=ADVANCED_FACE('',(#745),#787,.T.);
#838=ADVANCED_FACE('',(#746),#788,.F.);
#839=ADVANCED_FACE('',(#747),#789,.F.);
#840=ADVANCED_FACE('',(#748),#790,.F.);
#841=ADVANCED_FACE('',(#749),#791,.T.);
#842=ADVANCED_FACE('',(#750),#792,.F.);
#843=ADVANCED_FACE('',(#751),#793,.F.);
#844=ADVANCED_FACE('',(#752),#794,.T.);
#845=ADVANCED_FACE('',(#753),#795,.T.);
#846=ADVANCED_FACE('',(#754),#796,.T.);
#847=ADVANCED_FACE('',(#755),#797,.T.);
#848=ADVANCED_FACE('',(#756),#798,.T.);
#849=ADVANCED_FACE('',(#757),#799,.T.);
#850=ADVANCED_FACE('',(#758),#800,.F.);
#851=ADVANCED_FACE('',(#759),#801,.T.);
#852=ADVANCED_FACE('',(#760),#802,.F.);
#853=ADVANCED_FACE('',(#761),#803,.F.);
#854=ADVANCED_FACE('',(#762),#804,.T.);
#855=ADVANCED_FACE('',(#763),#805,.F.);
#856=ADVANCED_FACE('',(#764),#806,.T.);
#857=ADVANCED_FACE('',(#765),#807,.F.);
#858=ADVANCED_FACE('',(#766),#808,.T.);
#859=ADVANCED_FACE('',(#767),#809,.T.);
#860=ADVANCED_FACE('',(#768),#810,.F.);
#861=ADVANCED_FACE('',(#769),#811,.F.);
#862=ADVANCED_FACE('',(#770),#812,.T.);
#863=ADVANCED_FACE('',(#771),#813,.F.);
#864=ADVANCED_FACE('',(#772),#814,.T.);
#865=ADVANCED_FACE('',(#773),#815,.F.);
#866=ADVANCED_FACE('',(#774),#816,.F.);
#867=ADVANCED_FACE('',(#775),#817,.T.);
#868=CLOSED_SHELL('',(#818,#819,#820,#821,#822,#823,#824,#825,#826,#827,
#828,#829,#830,#831,#832,#833,#834,#835,#836,#837,#838,#839,#840,#841,#842,
#843,#844,#845,#846,#847,#848,#849,#850,#851,#852,#853,#854,#855,#856,#857,
#858,#859,#860,#861,#862,#863,#864,#865,#866,#867));
#869=STYLED_ITEM('',(#870),#877);
#870=PRESENTATION_STYLE_ASSIGNMENT((#871));
#871=SURFACE_STYLE_USAGE(.BOTH.,#872);
#872=SURFACE_SIDE_STYLE('',(#873));
#873=SURFACE_STYLE_FILL_AREA(#874);
#874=FILL_AREA_STYLE('',(#875));
#875=FILL_AREA_STYLE_COLOUR('',#876);
#876=COLOUR_RGB('',0.615686274509804,0.811764705882353,0.929411764705882);
#877=MANIFOLD_SOLID_BREP('Part 1',#868);
#878=SHAPE_DEFINITION_REPRESENTATION(#1426,#879);
#879=SHAPE_REPRESENTATION('Part 1',(#880),#1421);
#880=AXIS2_PLACEMENT_3D('',#1177,#947,#948);
#881=AXIS2_PLACEMENT_3D('',#1178,#949,#950);
#882=AXIS2_PLACEMENT_3D('',#1187,#955,#956);
#883=AXIS2_PLACEMENT_3D('',#1204,#965,#966);
#884=AXIS2_PLACEMENT_3D('',#1210,#970,#971);
#885=AXIS2_PLACEMENT_3D('',#1212,#972,#973);
#886=AXIS2_PLACEMENT_3D('',#1214,#974,#975);
#887=AXIS2_PLACEMENT_3D('',#1216,#976,#977);
#888=AXIS2_PLACEMENT_3D('',#1218,#978,#979);
#889=AXIS2_PLACEMENT_3D('',#1219,#980,#981);
#890=AXIS2_PLACEMENT_3D('',#1221,#982,#983);
#891=AXIS2_PLACEMENT_3D('',#1222,#984,#985);
#892=AXIS2_PLACEMENT_3D('',#1224,#986,#987);
#893=AXIS2_PLACEMENT_3D('',#1225,#988,#989);
#894=AXIS2_PLACEMENT_3D('',#1227,#990,#991);
#895=AXIS2_PLACEMENT_3D('',#1228,#992,#993);
#896=AXIS2_PLACEMENT_3D('',#1230,#994,#995);
#897=AXIS2_PLACEMENT_3D('',#1231,#996,#997);
#898=AXIS2_PLACEMENT_3D('',#1233,#998,#999);
#899=AXIS2_PLACEMENT_3D('',#1234,#1000,#1001);
#900=AXIS2_PLACEMENT_3D('',#1236,#1002,#1003);
#901=AXIS2_PLACEMENT_3D('',#1237,#1004,#1005);
#902=AXIS2_PLACEMENT_3D('',#1239,#1006,#1007);
#903=AXIS2_PLACEMENT_3D('',#1240,#1008,#1009);
#904=AXIS2_PLACEMENT_3D('',#1242,#1010,#1011);
#905=AXIS2_PLACEMENT_3D('',#1243,#1012,#1013);
#906=AXIS2_PLACEMENT_3D('',#1245,#1014,#1015);
#907=AXIS2_PLACEMENT_3D('',#1246,#1016,#1017);
#908=AXIS2_PLACEMENT_3D('',#1247,#1018,#1019);
#909=AXIS2_PLACEMENT_3D('',#1249,#1020,#1021);
#910=AXIS2_PLACEMENT_3D('',#1250,#1022,#1023);
#911=AXIS2_PLACEMENT_3D('',#1251,#1024,#1025);
#912=AXIS2_PLACEMENT_3D('',#1253,#1026,#1027);
#913=AXIS2_PLACEMENT_3D('',#1254,#1028,#1029);
#914=AXIS2_PLACEMENT_3D('',#1255,#1030,#1031);
#915=AXIS2_PLACEMENT_3D('',#1257,#1032,#1033);
#916=AXIS2_PLACEMENT_3D('',#1258,#1034,#1035);
#917=AXIS2_PLACEMENT_3D('',#1278,#1046,#1047);
#918=AXIS2_PLACEMENT_3D('',#1287,#1053,#1054);
#919=AXIS2_PLACEMENT_3D('',#1305,#1064,#1065);
#920=AXIS2_PLACEMENT_3D('',#1314,#1070,#1071);
#921=AXIS2_PLACEMENT_3D('',#1336,#1083,#1084);
#922=AXIS2_PLACEMENT_3D('',#1348,#1091,#1092);
#923=AXIS2_PLACEMENT_3D('',#1368,#1103,#1104);
#924=AXIS2_PLACEMENT_3D('',#1375,#1109,#1110);
#925=AXIS2_PLACEMENT_3D('',#1378,#1113,#1114);
#926=AXIS2_PLACEMENT_3D('',#1381,#1117,#1118);
#927=AXIS2_PLACEMENT_3D('',#1384,#1121,#1122);
#928=AXIS2_PLACEMENT_3D('',#1387,#1125,#1126);
#929=AXIS2_PLACEMENT_3D('',#1390,#1129,#1130);
#930=AXIS2_PLACEMENT_3D('',#1393,#1133,#1134);
#931=AXIS2_PLACEMENT_3D('',#1394,#1135,#1136);
#932=AXIS2_PLACEMENT_3D('',#1396,#1138,#1139);
#933=AXIS2_PLACEMENT_3D('',#1398,#1141,#1142);
#934=AXIS2_PLACEMENT_3D('',#1399,#1143,#1144);
#935=AXIS2_PLACEMENT_3D('',#1401,#1146,#1147);
#936=AXIS2_PLACEMENT_3D('',#1402,#1148,#1149);
#937=AXIS2_PLACEMENT_3D('',#1404,#1151,#1152);
#938=AXIS2_PLACEMENT_3D('',#1406,#1154,#1155);
#939=AXIS2_PLACEMENT_3D('',#1407,#1156,#1157);
#940=AXIS2_PLACEMENT_3D('',#1409,#1159,#1160);
#941=AXIS2_PLACEMENT_3D('',#1411,#1162,#1163);
#942=AXIS2_PLACEMENT_3D('',#1412,#1164,#1165);
#943=AXIS2_PLACEMENT_3D('',#1414,#1167,#1168);
#944=AXIS2_PLACEMENT_3D('',#1415,#1169,#1170);
#945=AXIS2_PLACEMENT_3D('',#1417,#1172,#1173);
#946=AXIS2_PLACEMENT_3D('',#1419,#1175,#1176);
#947=DIRECTION('',(0.,0.,1.));
#948=DIRECTION('',(1.,0.,0.));
#949=DIRECTION('',(0.,0.,1.));
#950=DIRECTION('',(1.,0.,0.));
#951=DIRECTION('',(-1.,0.,0.));
#952=DIRECTION('',(0.,1.,0.));
#953=DIRECTION('',(-1.,0.,0.));
#954=DIRECTION('',(0.,1.,0.));
#955=DIRECTION('',(-1.,0.,0.));
#956=DIRECTION('',(0.,0.,1.));
#957=DIRECTION('',(0.,1.,0.));
#958=DIRECTION('',(0.,0.,1.));
#959=DIRECTION('',(0.,1.,0.));
#960=DIRECTION('',(0.,0.,-1.));
#961=DIRECTION('',(0.,1.,0.));
#962=DIRECTION('',(0.,0.,-1.));
#963=DIRECTION('',(0.,1.,0.));
#964=DIRECTION('',(0.,0.,1.));
#965=DIRECTION('',(0.,0.,1.));
#966=DIRECTION('',(1.,0.,0.));
#967=DIRECTION('',(1.,0.,0.));
#968=DIRECTION('',(0.,1.,0.));
#969=DIRECTION('',(1.,0.,0.));
#970=DIRECTION('',(0.,0.,1.));
#971=DIRECTION('',(1.,0.,0.));
#972=DIRECTION('',(0.,0.,1.));
#973=DIRECTION('',(1.,0.,0.));
#974=DIRECTION('',(0.,0.,1.));
#975=DIRECTION('',(1.,0.,0.));
#976=DIRECTION('',(0.,0.,1.));
#977=DIRECTION('',(1.,0.,0.));
#978=DIRECTION('',(0.,0.,-1.));
#979=DIRECTION('',(-1.,0.,0.));
#980=DIRECTION('',(0.,0.,1.));
#981=DIRECTION('',(1.,0.,0.));
#982=DIRECTION('',(0.,0.,1.));
#983=DIRECTION('',(1.,0.,0.));
#984=DIRECTION('',(0.,0.,1.));
#985=DIRECTION('',(1.,0.,0.));
#986=DIRECTION('',(0.,0.,-1.));
#987=DIRECTION('',(-1.,0.,0.));
#988=DIRECTION('',(0.,0.,1.));
#989=DIRECTION('',(1.,0.,0.));
#990=DIRECTION('',(0.,0.,1.));
#991=DIRECTION('',(1.,0.,0.));
#992=DIRECTION('',(0.,0.,1.));
#993=DIRECTION('',(1.,0.,0.));
#994=DIRECTION('',(0.,0.,-1.));
#995=DIRECTION('',(-1.,0.,0.));
#996=DIRECTION('',(0.,0.,1.));
#997=DIRECTION('',(1.,0.,0.));
#998=DIRECTION('',(0.,0.,1.));
#999=DIRECTION('',(1.,0.,0.));
#1000=DIRECTION('',(0.,0.,1.));
#1001=DIRECTION('',(1.,0.,0.));
#1002=DIRECTION('',(0.,0.,-1.));
#1003=DIRECTION('',(-1.,0.,0.));
#1004=DIRECTION('',(0.,0.,1.));
#1005=DIRECTION('',(1.,0.,0.));
#1006=DIRECTION('',(0.,0.,1.));
#1007=DIRECTION('',(1.,0.,0.));
#1008=DIRECTION('',(0.,0.,1.));
#1009=DIRECTION('',(1.,0.,0.));
#1010=DIRECTION('',(0.,0.,-1.));
#1011=DIRECTION('',(-1.,0.,0.));
#1012=DIRECTION('',(0.,0.,1.));
#1013=DIRECTION('',(1.,0.,0.));
#1014=DIRECTION('',(0.,0.,1.));
#1015=DIRECTION('',(1.,0.,0.));
#1016=DIRECTION('',(0.,0.,-1.));
#1017=DIRECTION('',(-1.,0.,0.));
#1018=DIRECTION('',(0.,0.,1.));
#1019=DIRECTION('',(1.,0.,0.));
#1020=DIRECTION('',(0.,0.,1.));
#1021=DIRECTION('',(1.,0.,0.));
#1022=DIRECTION('',(0.,0.,-1.));
#1023=DIRECTION('',(-1.,0.,0.));
#1024=DIRECTION('',(0.,0.,1.));
#1025=DIRECTION('',(1.,0.,0.));
#1026=DIRECTION('',(0.,0.,1.));
#1027=DIRECTION('',(1.,0.,0.));
#1028=DIRECTION('',(0.,0.,-1.));
#1029=DIRECTION('',(-1.,0.,0.));
#1030=DIRECTION('',(0.,0.,1.));
#1031=DIRECTION('',(1.,0.,0.));
#1032=DIRECTION('',(0.,0.,1.));
#1033=DIRECTION('',(1.,0.,0.));
#1034=DIRECTION('',(0.,1.,0.));
#1035=DIRECTION('',(0.,0.,1.));
#1036=DIRECTION('',(1.,0.,0.));
#1037=DIRECTION('',(0.,0.,-1.));
#1038=DIRECTION('',(1.,0.,0.));
#1039=DIRECTION('',(0.,0.,-1.));
#1040=DIRECTION('',(1.,0.,0.));
#1041=DIRECTION('',(0.,0.,-1.));
#1042=DIRECTION('',(1.,0.,0.));
#1043=DIRECTION('',(0.,0.,-1.));
#1044=DIRECTION('',(1.,0.,0.));
#1045=DIRECTION('',(0.,0.,-1.));
#1046=DIRECTION('',(-1.,0.,0.));
#1047=DIRECTION('',(0.,0.,1.));
#1048=DIRECTION('',(0.,0.,-1.));
#1049=DIRECTION('',(0.,1.,0.));
#1050=DIRECTION('',(0.,0.,-1.));
#1051=DIRECTION('',(0.,0.,-1.));
#1052=DIRECTION('',(0.,1.,0.));
#1053=DIRECTION('',(0.,1.,0.));
#1054=DIRECTION('',(0.,0.,1.));
#1055=DIRECTION('',(1.,0.,0.));
#1056=DIRECTION('',(0.,0.,-1.));
#1057=DIRECTION('',(1.,0.,0.));
#1058=DIRECTION('',(0.,0.,-1.));
#1059=DIRECTION('',(1.,0.,0.));
#1060=DIRECTION('',(0.,0.,-1.));
#1061=DIRECTION('',(1.,0.,0.));
#1062=DIRECTION('',(0.,0.,-1.));
#1063=DIRECTION('',(1.,0.,0.));
#1064=DIRECTION('',(0.,0.,1.));
#1065=DIRECTION('',(1.,0.,0.));
#1066=DIRECTION('',(0.,1.,0.));
#1067=DIRECTION('',(1.,0.,0.));
#1068=DIRECTION('',(0.,1.,0.));
#1069=DIRECTION('',(1.,0.,0.));
#1070=DIRECTION('',(0.,1.,0.));
#1071=DIRECTION('',(0.,0.,1.));
#1072=DIRECTION('',(1.,0.,0.));
#1073=DIRECTION('',(0.,0.,-1.));
#1074=DIRECTION('',(0.,0.,-1.));
#1075=DIRECTION('',(1.,0.,0.));
#1076=DIRECTION('',(0.,0.,-1.));
#1077=DIRECTION('',(1.,0.,0.));
#1078=DIRECTION('',(0.,0.,-1.));
#1079=DIRECTION('',(1.,0.,0.));
#1080=DIRECTION('',(0.,0.,-1.));
#1081=DIRECTION('',(1.,0.,0.));
#1082=DIRECTION('',(0.,0.,-1.));
#1083=DIRECTION('',(-1.,0.,0.));
#1084=DIRECTION('',(0.,0.,1.));
#1085=DIRECTION('',(0.,1.,0.));
#1086=DIRECTION('',(0.,0.,1.));
#1087=DIRECTION('',(0.,1.,0.));
#1088=DIRECTION('',(0.,0.,-1.));
#1089=DIRECTION('',(0.,1.,0.));
#1090=DIRECTION('',(0.,0.,1.));
#1091=DIRECTION('',(0.,1.,0.));
#1092=DIRECTION('',(0.,0.,1.));
#1093=DIRECTION('',(1.,0.,0.));
#1094=DIRECTION('',(0.,0.,-1.));
#1095=DIRECTION('',(1.,0.,0.));
#1096=DIRECTION('',(0.,0.,-1.));
#1097=DIRECTION('',(1.,0.,0.));
#1098=DIRECTION('',(0.,0.,-1.));
#1099=DIRECTION('',(1.,0.,0.));
#1100=DIRECTION('',(0.,0.,-1.));
#1101=DIRECTION('',(1.,0.,0.));
#1102=DIRECTION('',(0.,0.,-1.));
#1103=DIRECTION('',(-1.,0.,0.));
#1104=DIRECTION('',(0.,0.,1.));
#1105=DIRECTION('',(0.,1.,0.));
#1106=DIRECTION('',(0.,0.,-1.));
#1107=DIRECTION('',(0.,0.,-1.));
#1108=DIRECTION('',(0.,1.,0.));
#1109=DIRECTION('',(0.,0.,1.));
#1110=DIRECTION('',(1.,0.,0.));
#1111=DIRECTION('',(0.,-1.,0.));
#1112=DIRECTION('',(0.,1.,0.));
#1113=DIRECTION('',(0.,0.,1.));
#1114=DIRECTION('',(1.,0.,0.));
#1115=DIRECTION('',(0.,-1.,0.));
#1116=DIRECTION('',(0.,1.,0.));
#1117=DIRECTION('',(0.,0.,1.));
#1118=DIRECTION('',(1.,0.,0.));
#1119=DIRECTION('',(0.,-1.,0.));
#1120=DIRECTION('',(0.,1.,0.));
#1121=DIRECTION('',(0.,0.,1.));
#1122=DIRECTION('',(1.,0.,0.));
#1123=DIRECTION('',(0.,-1.,0.));
#1124=DIRECTION('',(0.,1.,0.));
#1125=DIRECTION('',(-3.46944695195362E-16,1.,0.));
#1126=DIRECTION('',(-1.,-3.46944695195362E-16,0.));
#1127=DIRECTION('',(-1.,-3.46944695195362E-16,0.));
#1128=DIRECTION('',(-1.,-3.46944695195362E-16,0.));
#1129=DIRECTION('',(-6.93889390390723E-16,1.,0.));
#1130=DIRECTION('',(-1.,-6.93889390390723E-16,0.));
#1131=DIRECTION('',(-1.,-6.93889390390723E-16,0.));
#1132=DIRECTION('',(-1.,-6.93889390390723E-16,0.));
#1133=DIRECTION('',(0.,0.,1.));
#1134=DIRECTION('',(1.,0.,0.));
#1135=DIRECTION('',(1.,0.,0.));
#1136=DIRECTION('',(0.,0.,-1.));
#1137=DIRECTION('',(0.,-1.,0.));
#1138=DIRECTION('',(-1.,0.,0.));
#1139=DIRECTION('',(0.,0.,1.));
#1140=DIRECTION('',(0.,1.,0.));
#1141=DIRECTION('',(0.,0.,1.));
#1142=DIRECTION('',(1.,0.,0.));
#1143=DIRECTION('',(1.,0.,0.));
#1144=DIRECTION('',(0.,0.,-1.));
#1145=DIRECTION('',(0.,-1.,0.));
#1146=DIRECTION('',(0.,0.,1.));
#1147=DIRECTION('',(1.,0.,0.));
#1148=DIRECTION('',(-1.,0.,0.));
#1149=DIRECTION('',(0.,0.,1.));
#1150=DIRECTION('',(0.,1.,0.));
#1151=DIRECTION('',(0.,-1.,0.));
#1152=DIRECTION('',(0.,0.,-1.));
#1153=DIRECTION('',(-1.,0.,0.));
#1154=DIRECTION('',(0.,0.,1.));
#1155=DIRECTION('',(1.,0.,0.));
#1156=DIRECTION('',(-1.,0.,0.));
#1157=DIRECTION('',(0.,0.,1.));
#1158=DIRECTION('',(0.,1.,0.));
#1159=DIRECTION('',(1.,0.,0.));
#1160=DIRECTION('',(0.,0.,-1.));
#1161=DIRECTION('',(0.,-1.,0.));
#1162=DIRECTION('',(0.,0.,1.));
#1163=DIRECTION('',(1.,0.,0.));
#1164=DIRECTION('',(1.,0.,0.));
#1165=DIRECTION('',(0.,0.,-1.));
#1166=DIRECTION('',(0.,-1.,0.));
#1167=DIRECTION('',(0.,0.,1.));
#1168=DIRECTION('',(1.,0.,0.));
#1169=DIRECTION('',(-1.,0.,0.));
#1170=DIRECTION('',(0.,0.,1.));
#1171=DIRECTION('',(0.,1.,0.));
#1172=DIRECTION('',(0.,-1.,0.));
#1173=DIRECTION('',(0.,0.,-1.));
#1174=DIRECTION('',(-1.,0.,0.));
#1175=DIRECTION('',(0.,0.,1.));
#1176=DIRECTION('',(1.,0.,0.));
#1177=CARTESIAN_POINT('',(0.,0.,0.));
#1178=CARTESIAN_POINT('',(0.,0.,0.0068));
#1179=CARTESIAN_POINT('',(-0.03155,-0.0048,0.0068));
#1180=CARTESIAN_POINT('',(-0.0303,-0.0048,0.0068));
#1181=CARTESIAN_POINT('',(-0.0328,-0.0048,0.0068));
#1182=CARTESIAN_POINT('',(-0.0303,0.,0.0068));
#1183=CARTESIAN_POINT('',(-0.0303,0.0048,0.0068));
#1184=CARTESIAN_POINT('',(-0.03155,0.0048,0.0068));
#1185=CARTESIAN_POINT('',(-0.0328,0.0048,0.0068));
#1186=CARTESIAN_POINT('',(-0.0328,0.,0.0068));
#1187=CARTESIAN_POINT('',(0.0303,3.46944695195361E-18,0.0068));
#1188=CARTESIAN_POINT('',(0.0303,3.46944695195361E-18,0.0065));
#1189=CARTESIAN_POINT('',(0.0303,-0.0042,0.0065));
#1190=CARTESIAN_POINT('',(0.0303,0.0042,0.0065));
#1191=CARTESIAN_POINT('',(0.0303,0.0042,0.0065));
#1192=CARTESIAN_POINT('',(0.0303,0.0042,0.0148));
#1193=CARTESIAN_POINT('',(0.0303,3.46944695195361E-18,0.0148));
#1194=CARTESIAN_POINT('',(0.0303,0.0203,0.0148));
#1195=CARTESIAN_POINT('',(0.0303,0.0203,0.0068));
#1196=CARTESIAN_POINT('',(0.0303,0.0203,0.0025));
#1197=CARTESIAN_POINT('',(0.0303,3.46944695195361E-18,0.0025));
#1198=CARTESIAN_POINT('',(0.0303,-0.0203,0.0025));
#1199=CARTESIAN_POINT('',(0.0303,-0.0203,0.0068));
#1200=CARTESIAN_POINT('',(0.0303,-0.0203,0.0148));
#1201=CARTESIAN_POINT('',(0.0303,3.46944695195361E-18,0.0148));
#1202=CARTESIAN_POINT('',(0.0303,-0.0042,0.0148));
#1203=CARTESIAN_POINT('',(0.0303,-0.0042,0.0065));
#1204=CARTESIAN_POINT('',(0.,0.,0.0025));
#1205=CARTESIAN_POINT('',(0.,0.0203,0.0025));
#1206=CARTESIAN_POINT('',(-0.0303,0.0203,0.0025));
#1207=CARTESIAN_POINT('',(-0.0303,0.,0.0025));
#1208=CARTESIAN_POINT('',(-0.0303,-0.0203,0.0025));
#1209=CARTESIAN_POINT('',(0.,-0.0203,0.0025));
#1210=CARTESIAN_POINT('',(-0.027,-0.017,0.0025));
#1211=CARTESIAN_POINT('',(-0.0247,-0.017,0.0025));
#1212=CARTESIAN_POINT('',(0.027,0.017,0.0025));
#1213=CARTESIAN_POINT('',(0.0293,0.017,0.0025));
#1214=CARTESIAN_POINT('',(-0.027,0.017,0.0025));
#1215=CARTESIAN_POINT('',(-0.0247,0.017,0.0025));
#1216=CARTESIAN_POINT('',(0.027,-0.017,0.0025));
#1217=CARTESIAN_POINT('',(0.0293,-0.017,0.0025));
#1218=CARTESIAN_POINT('',(0.027,-0.017,0.005));
#1219=CARTESIAN_POINT('',(0.027,-0.017,0.005));
#1220=CARTESIAN_POINT('',(0.0293,-0.017,0.005));
#1221=CARTESIAN_POINT('',(0.,0.,0.005));
#1222=CARTESIAN_POINT('',(0.027,-0.017,0.005));
#1223=CARTESIAN_POINT('',(0.0283,-0.017,0.005));
#1224=CARTESIAN_POINT('',(-0.027,0.017,0.005));
#1225=CARTESIAN_POINT('',(-0.027,0.017,0.005));
#1226=CARTESIAN_POINT('',(-0.0247,0.017,0.005));
#1227=CARTESIAN_POINT('',(0.,0.,0.005));
#1228=CARTESIAN_POINT('',(-0.027,0.017,0.005));
#1229=CARTESIAN_POINT('',(-0.0257,0.017,0.005));
#1230=CARTESIAN_POINT('',(0.027,0.017,0.005));
#1231=CARTESIAN_POINT('',(0.027,0.017,0.005));
#1232=CARTESIAN_POINT('',(0.0293,0.017,0.005));
#1233=CARTESIAN_POINT('',(0.,0.,0.005));
#1234=CARTESIAN_POINT('',(0.027,0.017,0.005));
#1235=CARTESIAN_POINT('',(0.0283,0.017,0.005));
#1236=CARTESIAN_POINT('',(-0.027,-0.017,0.005));
#1237=CARTESIAN_POINT('',(-0.027,-0.017,0.005));
#1238=CARTESIAN_POINT('',(-0.0247,-0.017,0.005));
#1239=CARTESIAN_POINT('',(0.,0.,0.005));
#1240=CARTESIAN_POINT('',(-0.027,-0.017,0.005));
#1241=CARTESIAN_POINT('',(-0.0257,-0.017,0.005));
#1242=CARTESIAN_POINT('',(-0.027,-0.017,0.0068));
#1243=CARTESIAN_POINT('',(-0.027,-0.017,0.0068));
#1244=CARTESIAN_POINT('',(-0.0257,-0.017,0.0068));
#1245=CARTESIAN_POINT('',(0.,0.,0.0068));
#1246=CARTESIAN_POINT('',(0.027,0.017,0.0068));
#1247=CARTESIAN_POINT('',(0.027,0.017,0.0068));
#1248=CARTESIAN_POINT('',(0.0283,0.017,0.0068));
#1249=CARTESIAN_POINT('',(0.,0.,0.0068));
#1250=CARTESIAN_POINT('',(-0.027,0.017,0.0068));
#1251=CARTESIAN_POINT('',(-0.027,0.017,0.0068));
#1252=CARTESIAN_POINT('',(-0.0257,0.017,0.0068));
#1253=CARTESIAN_POINT('',(0.,0.,0.0068));
#1254=CARTESIAN_POINT('',(0.027,-0.017,0.0068));
#1255=CARTESIAN_POINT('',(0.027,-0.017,0.0068));
#1256=CARTESIAN_POINT('',(0.0283,-0.017,0.0068));
#1257=CARTESIAN_POINT('',(0.,0.,0.0068));
#1258=CARTESIAN_POINT('',(0.,-0.0203,0.0068));
#1259=CARTESIAN_POINT('',(0.,-0.0203,0.0148));
#1260=CARTESIAN_POINT('',(0.02175,-0.0203,0.0148));
#1261=CARTESIAN_POINT('',(-0.0303,-0.0203,0.0068));
#1262=CARTESIAN_POINT('',(-0.0303,-0.0203,0.0148));
#1263=CARTESIAN_POINT('',(0.,-0.0203,0.0148));
#1264=CARTESIAN_POINT('',(-0.02175,-0.0203,0.0148));
#1265=CARTESIAN_POINT('',(-0.02175,-0.0203,0.0148));
#1266=CARTESIAN_POINT('',(-0.02175,-0.0203,0.0075));
#1267=CARTESIAN_POINT('',(0.,-0.0203,0.0075));
#1268=CARTESIAN_POINT('',(-0.00825,-0.0203,0.0075));
#1269=CARTESIAN_POINT('',(-0.00825,-0.0203,0.0148));
#1270=CARTESIAN_POINT('',(-0.00825,-0.0203,0.0148));
#1271=CARTESIAN_POINT('',(0.,-0.0203,0.0148));
#1272=CARTESIAN_POINT('',(0.00825,-0.0203,0.0148));
#1273=CARTESIAN_POINT('',(0.00825,-0.0203,0.0148));
#1274=CARTESIAN_POINT('',(0.00825,-0.0203,0.0075));
#1275=CARTESIAN_POINT('',(0.,-0.0203,0.0075));
#1276=CARTESIAN_POINT('',(0.02175,-0.0203,0.0075));
#1277=CARTESIAN_POINT('',(0.02175,-0.0203,0.0148));
#1278=CARTESIAN_POINT('',(-0.0303,0.,0.0068));
#1279=CARTESIAN_POINT('',(-0.0303,0.0203,0.0068));
#1280=CARTESIAN_POINT('',(-0.0303,0.0203,0.0148));
#1281=CARTESIAN_POINT('',(-0.0303,0.,0.0148));
#1282=CARTESIAN_POINT('',(-0.0303,0.0048,0.0148));
#1283=CARTESIAN_POINT('',(-0.0303,0.0048,0.0148));
#1284=CARTESIAN_POINT('',(-0.0303,-0.0048,0.0148));
#1285=CARTESIAN_POINT('',(-0.0303,-0.0048,0.0148));
#1286=CARTESIAN_POINT('',(-0.0303,0.,0.0148));
#1287=CARTESIAN_POINT('',(0.,0.0203,0.0068));
#1288=CARTESIAN_POINT('',(0.,0.0203,0.0148));
#1289=CARTESIAN_POINT('',(0.02175,0.0203,0.0148));
#1290=CARTESIAN_POINT('',(0.02175,0.0203,0.0148));
#1291=CARTESIAN_POINT('',(0.02175,0.0203,0.0075));
#1292=CARTESIAN_POINT('',(0.,0.0203,0.0075));
#1293=CARTESIAN_POINT('',(0.00825,0.0203,0.0075));
#1294=CARTESIAN_POINT('',(0.00825,0.0203,0.0148));
#1295=CARTESIAN_POINT('',(0.00825,0.0203,0.0148));
#1296=CARTESIAN_POINT('',(0.,0.0203,0.0148));
#1297=CARTESIAN_POINT('',(-0.00825,0.0203,0.0148));
#1298=CARTESIAN_POINT('',(-0.00825,0.0203,0.0148));
#1299=CARTESIAN_POINT('',(-0.00825,0.0203,0.0075));
#1300=CARTESIAN_POINT('',(0.,0.0203,0.0075));
#1301=CARTESIAN_POINT('',(-0.02175,0.0203,0.0075));
#1302=CARTESIAN_POINT('',(-0.02175,0.0203,0.0148));
#1303=CARTESIAN_POINT('',(-0.02175,0.0203,0.0148));
#1304=CARTESIAN_POINT('',(0.,0.0203,0.0148));
#1305=CARTESIAN_POINT('',(0.,0.,0.));
#1306=CARTESIAN_POINT('',(-0.0328,0.,0.));
#1307=CARTESIAN_POINT('',(-0.0328,-0.0228,0.));
#1308=CARTESIAN_POINT('',(-0.0328,0.0228,0.));
#1309=CARTESIAN_POINT('',(0.,0.0228,0.));
#1310=CARTESIAN_POINT('',(0.0328,0.0228,0.));
#1311=CARTESIAN_POINT('',(0.0328,-1.7347234759768E-18,0.));
#1312=CARTESIAN_POINT('',(0.0328,-0.0228,0.));
#1313=CARTESIAN_POINT('',(0.,-0.0228,0.));
#1314=CARTESIAN_POINT('',(0.,0.0228,0.0025));
#1315=CARTESIAN_POINT('',(0.,0.0228,0.0148));
#1316=CARTESIAN_POINT('',(0.02175,0.0228,0.0148));
#1317=CARTESIAN_POINT('',(0.0328,0.0228,0.0148));
#1318=CARTESIAN_POINT('',(0.0328,0.0228,0.0025));
#1319=CARTESIAN_POINT('',(-0.0328,0.0228,0.0025));
#1320=CARTESIAN_POINT('',(-0.0328,0.0228,0.0148));
#1321=CARTESIAN_POINT('',(0.,0.0228,0.0148));
#1322=CARTESIAN_POINT('',(-0.02175,0.0228,0.0148));
#1323=CARTESIAN_POINT('',(-0.02175,0.0228,0.0148));
#1324=CARTESIAN_POINT('',(-0.02175,0.0228,0.0075));
#1325=CARTESIAN_POINT('',(0.,0.0228,0.0075));
#1326=CARTESIAN_POINT('',(-0.00825,0.0228,0.0075));
#1327=CARTESIAN_POINT('',(-0.00825,0.0228,0.0148));
#1328=CARTESIAN_POINT('',(-0.00825,0.0228,0.0148));
#1329=CARTESIAN_POINT('',(0.,0.0228,0.0148));
#1330=CARTESIAN_POINT('',(0.00825,0.0228,0.0148));
#1331=CARTESIAN_POINT('',(0.00825,0.0228,0.0148));
#1332=CARTESIAN_POINT('',(0.00825,0.0228,0.0075));
#1333=CARTESIAN_POINT('',(0.,0.0228,0.0075));
#1334=CARTESIAN_POINT('',(0.02175,0.0228,0.0075));
#1335=CARTESIAN_POINT('',(0.02175,0.0228,0.0148));
#1336=CARTESIAN_POINT('',(0.0328,-1.7347234759768E-18,0.0025));
#1337=CARTESIAN_POINT('',(0.0328,-1.7347234759768E-18,0.0065));
#1338=CARTESIAN_POINT('',(0.0328,-0.0042,0.0065));
#1339=CARTESIAN_POINT('',(0.0328,0.0042,0.0065));
#1340=CARTESIAN_POINT('',(0.0328,-0.0042,0.0065));
#1341=CARTESIAN_POINT('',(0.0328,-0.0042,0.0148));
#1342=CARTESIAN_POINT('',(0.0328,-1.7347234759768E-18,0.0148));
#1343=CARTESIAN_POINT('',(0.0328,-0.0228,0.0148));
#1344=CARTESIAN_POINT('',(0.0328,-0.0228,0.0025));
#1345=CARTESIAN_POINT('',(0.0328,-1.7347234759768E-18,0.0148));
#1346=CARTESIAN_POINT('',(0.0328,0.0042,0.0148));
#1347=CARTESIAN_POINT('',(0.0328,0.0042,0.0065));
#1348=CARTESIAN_POINT('',(0.,-0.0228,0.0025));
#1349=CARTESIAN_POINT('',(0.,-0.0228,0.0148));
#1350=CARTESIAN_POINT('',(0.02175,-0.0228,0.0148));
#1351=CARTESIAN_POINT('',(0.02175,-0.0228,0.0148));
#1352=CARTESIAN_POINT('',(0.02175,-0.0228,0.0075));
#1353=CARTESIAN_POINT('',(0.,-0.0228,0.0075));
#1354=CARTESIAN_POINT('',(0.00825,-0.0228,0.0075));
#1355=CARTESIAN_POINT('',(0.00825,-0.0228,0.0148));
#1356=CARTESIAN_POINT('',(0.00825,-0.0228,0.0148));
#1357=CARTESIAN_POINT('',(0.,-0.0228,0.0148));
#1358=CARTESIAN_POINT('',(-0.00825,-0.0228,0.0148));
#1359=CARTESIAN_POINT('',(-0.00825,-0.0228,0.0148));
#1360=CARTESIAN_POINT('',(-0.00825,-0.0228,0.0075));
#1361=CARTESIAN_POINT('',(0.,-0.0228,0.0075));
#1362=CARTESIAN_POINT('',(-0.02175,-0.0228,0.0075));
#1363=CARTESIAN_POINT('',(-0.02175,-0.0228,0.0148));
#1364=CARTESIAN_POINT('',(-0.02175,-0.0228,0.0148));
#1365=CARTESIAN_POINT('',(0.,-0.0228,0.0148));
#1366=CARTESIAN_POINT('',(-0.0328,-0.0228,0.0148));
#1367=CARTESIAN_POINT('',(-0.0328,-0.0228,0.0025));
#1368=CARTESIAN_POINT('',(-0.0328,0.,0.0025));
#1369=CARTESIAN_POINT('',(-0.0328,0.,0.0148));
#1370=CARTESIAN_POINT('',(-0.0328,-0.0048,0.0148));
#1371=CARTESIAN_POINT('',(-0.0328,-0.0048,0.0148));
#1372=CARTESIAN_POINT('',(-0.0328,0.0048,0.0148));
#1373=CARTESIAN_POINT('',(-0.0328,0.0048,0.0148));
#1374=CARTESIAN_POINT('',(-0.0328,0.,0.0148));
#1375=CARTESIAN_POINT('',(0.,-3.46944695195361E-18,0.0075));
#1376=CARTESIAN_POINT('',(-0.00825,-0.02155,0.0075));
#1377=CARTESIAN_POINT('',(-0.02175,-0.02155,0.0075));
#1378=CARTESIAN_POINT('',(0.,-3.46944695195361E-18,0.0075));
#1379=CARTESIAN_POINT('',(0.02175,0.02155,0.0075));
#1380=CARTESIAN_POINT('',(0.00825,0.02155,0.0075));
#1381=CARTESIAN_POINT('',(0.,-3.46944695195361E-18,0.0075));
#1382=CARTESIAN_POINT('',(-0.00825,0.02155,0.0075));
#1383=CARTESIAN_POINT('',(-0.02175,0.02155,0.0075));
#1384=CARTESIAN_POINT('',(0.,-3.46944695195361E-18,0.0075));
#1385=CARTESIAN_POINT('',(0.02175,-0.02155,0.0075));
#1386=CARTESIAN_POINT('',(0.00825,-0.02155,0.0075));
#1387=CARTESIAN_POINT('',(0.03155,-0.0042,0.0065));
#1388=CARTESIAN_POINT('',(0.03155,-0.0042,0.0148));
#1389=CARTESIAN_POINT('',(0.03155,-0.0042,0.0065));
#1390=CARTESIAN_POINT('',(0.03155,0.0042,0.0065));
#1391=CARTESIAN_POINT('',(0.03155,0.0042,0.0148));
#1392=CARTESIAN_POINT('',(0.03155,0.0042,0.0065));
#1393=CARTESIAN_POINT('',(0.,-3.46944695195361E-18,0.0065));
#1394=CARTESIAN_POINT('',(-0.00825,-0.02155,0.0148));
#1395=CARTESIAN_POINT('',(-0.00825,-0.02155,0.0148));
#1396=CARTESIAN_POINT('',(0.00825,-0.02155,0.0148));
#1397=CARTESIAN_POINT('',(0.00825,-0.02155,0.0148));
#1398=CARTESIAN_POINT('',(0.,-3.46944695195361E-18,0.0148));
#1399=CARTESIAN_POINT('',(0.02175,-0.02155,0.0148));
#1400=CARTESIAN_POINT('',(0.02175,-0.02155,0.0148));
#1401=CARTESIAN_POINT('',(0.,-3.46944695195361E-18,0.0148));
#1402=CARTESIAN_POINT('',(-0.02175,0.02155,0.0148));
#1403=CARTESIAN_POINT('',(-0.02175,0.02155,0.0148));
#1404=CARTESIAN_POINT('',(-0.03155,0.0048,0.0148));
#1405=CARTESIAN_POINT('',(-0.03155,0.0048,0.0148));
#1406=CARTESIAN_POINT('',(0.,-3.46944695195361E-18,0.0148));
#1407=CARTESIAN_POINT('',(0.00825,0.02155,0.0148));
#1408=CARTESIAN_POINT('',(0.00825,0.02155,0.0148));
#1409=CARTESIAN_POINT('',(-0.00825,0.02155,0.0148));
#1410=CARTESIAN_POINT('',(-0.00825,0.02155,0.0148));
#1411=CARTESIAN_POINT('',(0.,-3.46944695195361E-18,0.0148));
#1412=CARTESIAN_POINT('',(0.02175,0.02155,0.0148));
#1413=CARTESIAN_POINT('',(0.02175,0.02155,0.0148));
#1414=CARTESIAN_POINT('',(0.,-3.46944695195361E-18,0.0148));
#1415=CARTESIAN_POINT('',(-0.02175,-0.02155,0.0148));
#1416=CARTESIAN_POINT('',(-0.02175,-0.02155,0.0148));
#1417=CARTESIAN_POINT('',(-0.03155,-0.0048,0.0148));
#1418=CARTESIAN_POINT('',(-0.03155,-0.0048,0.0148));
#1419=CARTESIAN_POINT('',(0.,-3.46944695195361E-18,0.0148));
#1420=MECHANICAL_DESIGN_GEOMETRIC_PRESENTATION_REPRESENTATION('',(#869),
#1421);
#1421=(
GEOMETRIC_REPRESENTATION_CONTEXT(3)
GLOBAL_UNCERTAINTY_ASSIGNED_CONTEXT((#1422))
GLOBAL_UNIT_ASSIGNED_CONTEXT((#1425,#1424,#1423))
REPRESENTATION_CONTEXT('Part 1','TOP_LEVEL_ASSEMBLY_PART')
);
#1422=UNCERTAINTY_MEASURE_WITH_UNIT(LENGTH_MEASURE(1.E-8),#1425,
'DISTANCE_ACCURACY_VALUE','Maximum Tolerance applied to model');
#1423=(
NAMED_UNIT(*)
SI_UNIT($,.STERADIAN.)
SOLID_ANGLE_UNIT()
);
#1424=(
NAMED_UNIT(*)
PLANE_ANGLE_UNIT()
SI_UNIT($,.RADIAN.)
);
#1425=(
LENGTH_UNIT()
NAMED_UNIT(*)
SI_UNIT($,.METRE.)
);
#1426=PRODUCT_DEFINITION_SHAPE('','',#1427);
#1427=PRODUCT_DEFINITION('','',#1429,#1428);
#1428=PRODUCT_DEFINITION_CONTEXT('',#1435,'design');
#1429=PRODUCT_DEFINITION_FORMATION_WITH_SPECIFIED_SOURCE('','',#1431,
 .NOT_KNOWN.);
#1430=PRODUCT_RELATED_PRODUCT_CATEGORY('','',(#1431));
#1431=PRODUCT('Part 1','Part 1','Part 1',(#1433));
#1432=PRODUCT_CATEGORY('','');
#1433=PRODUCT_CONTEXT('',#1435,'mechanical');
#1434=APPLICATION_PROTOCOL_DEFINITION('international standard',
'ap242_managed_model_based_3d_engineering',2020,#1435);
#1435=APPLICATION_CONTEXT('managed model based 3d engineering');
ENDSEC;
END-ISO-10303-21;
