G04 Layer: TopSilkscreenLayer*
G04 EasyEDA Pro v3.2.148, 2026-08-03 13:40:32*
G04 Gerber Generator version 0.3*
G04 Scale: 100 percent, Rotated: No, Reflected: No*
G04 Dimensions in millimeters*
G04 Leading zeros omitted, absolute positions, 4 integers and 5 decimals*
G04 Generated by one-click*
G04 Object Configs: Pad,Via,Track,Text,Image,Dimension,BoardOutline,BoardCutout,CopperFilled,SolidRegion,FPCStiffener,Line,PlaneZone,ComponentProperty,ComponentSilkscreen,TearDrop*
G04 Layer Configs: 1,15,16,2,3,4,5,6,7,8,9,10,11,13,14,56*
G04 Copper Areas: 0*
%FSLAX45Y45*%
%MOMM*%
%ADD10C,0.1524*%
%ADD11C,0.15*%
%ADD12C,0.254*%
%ADD13C,0.15199*%
%ADD14C,0.1589*%
G75*


G04 Text Start*
G54D10*
G01X-91260Y-2154102D02*
G01X-84910Y-2151054D01*
G01X-78814Y-2144704D01*
G01X-75766Y-2138608D01*
G01X-75766Y-2126162D01*
G01X-78814Y-2120066D01*
G01X-84910Y-2113716D01*
G01X-91260Y-2110668D01*
G01X-100404Y-2107620D01*
G01X-115898Y-2107620D01*
G01X-125296Y-2110668D01*
G01X-131392Y-2113716D01*
G01X-137742Y-2120066D01*
G01X-140790Y-2126162D01*
G01X-140790Y-2138608D01*
G01X-137742Y-2144704D01*
G01X-131392Y-2151054D01*
G01X-125296Y-2154102D01*
G01X-88212Y-2184328D02*
G01X-84910Y-2190424D01*
G01X-75766Y-2199568D01*
G01X-140790Y-2199568D01*
G01X-501260Y-1964102D02*
G01X-494910Y-1961054D01*
G01X-488814Y-1954704D01*
G01X-485766Y-1948608D01*
G01X-485766Y-1936162D01*
G01X-488814Y-1930066D01*
G01X-494910Y-1923716D01*
G01X-501260Y-1920668D01*
G01X-510404Y-1917620D01*
G01X-525898Y-1917620D01*
G01X-535296Y-1920668D01*
G01X-541392Y-1923716D01*
G01X-547742Y-1930066D01*
G01X-550790Y-1936162D01*
G01X-550790Y-1948608D01*
G01X-547742Y-1954704D01*
G01X-541392Y-1961054D01*
G01X-535296Y-1964102D01*
G01X-501260Y-1997376D02*
G01X-498212Y-1997376D01*
G01X-491862Y-2000424D01*
G01X-488814Y-2003472D01*
G01X-485766Y-2009568D01*
G01X-485766Y-2022014D01*
G01X-488814Y-2028364D01*
G01X-491862Y-2031412D01*
G01X-498212Y-2034460D01*
G01X-504308Y-2034460D01*
G01X-510404Y-2031412D01*
G01X-519802Y-2025062D01*
G01X-550790Y-1994328D01*
G01X-550790Y-2037508D01*
G01X501260Y-2145898D02*
G01X494910Y-2148946D01*
G01X488814Y-2155296D01*
G01X485766Y-2161392D01*
G01X485766Y-2173838D01*
G01X488814Y-2179934D01*
G01X494910Y-2186284D01*
G01X501260Y-2189332D01*
G01X510404Y-2192380D01*
G01X525898Y-2192380D01*
G01X535296Y-2189332D01*
G01X541392Y-2186284D01*
G01X547742Y-2179934D01*
G01X550790Y-2173838D01*
G01X550790Y-2161392D01*
G01X547742Y-2155296D01*
G01X541392Y-2148946D01*
G01X535296Y-2145898D01*
G01X485766Y-2109576D02*
G01X485766Y-2075540D01*
G01X510404Y-2094082D01*
G01X510404Y-2084938D01*
G01X513452Y-2078588D01*
G01X516754Y-2075540D01*
G01X525898Y-2072492D01*
G01X532248Y-2072492D01*
G01X541392Y-2075540D01*
G01X547742Y-2081636D01*
G01X550790Y-2091034D01*
G01X550790Y-2100432D01*
G01X547742Y-2109576D01*
G01X544440Y-2112624D01*
G01X538344Y-2115672D01*
G01X81260Y-1955898D02*
G01X74910Y-1958946D01*
G01X68814Y-1965296D01*
G01X65766Y-1971392D01*
G01X65766Y-1983838D01*
G01X68814Y-1989934D01*
G01X74910Y-1996284D01*
G01X81260Y-1999332D01*
G01X90404Y-2002380D01*
G01X105898Y-2002380D01*
G01X115296Y-1999332D01*
G01X121392Y-1996284D01*
G01X127742Y-1989934D01*
G01X130790Y-1983838D01*
G01X130790Y-1971392D01*
G01X127742Y-1965296D01*
G01X121392Y-1958946D01*
G01X115296Y-1955898D01*
G01X65766Y-1894938D02*
G01X108946Y-1925672D01*
G01X108946Y-1879444D01*
G01X65766Y-1894938D02*
G01X130790Y-1894938D01*
G01X721260Y2354102D02*
G01X714910Y2351054D01*
G01X708814Y2344704D01*
G01X705766Y2338608D01*
G01X705766Y2326162D01*
G01X708814Y2320066D01*
G01X714910Y2313716D01*
G01X721260Y2310668D01*
G01X730404Y2307620D01*
G01X745898Y2307620D01*
G01X755296Y2310668D01*
G01X761392Y2313716D01*
G01X767742Y2320066D01*
G01X770790Y2326162D01*
G01X770790Y2338608D01*
G01X767742Y2344704D01*
G01X761392Y2351054D01*
G01X755296Y2354102D01*
G01X705766Y2421412D02*
G01X705766Y2390424D01*
G01X733452Y2387376D01*
G01X730404Y2390424D01*
G01X727356Y2399568D01*
G01X727356Y2408966D01*
G01X730404Y2418364D01*
G01X736754Y2424460D01*
G01X745898Y2427508D01*
G01X752248Y2427508D01*
G01X761392Y2424460D01*
G01X767742Y2418364D01*
G01X770790Y2408966D01*
G01X770790Y2399568D01*
G01X767742Y2390424D01*
G01X764440Y2387376D01*
G01X758344Y2384328D01*
G01X521260Y2354102D02*
G01X514910Y2351054D01*
G01X508814Y2344704D01*
G01X505766Y2338608D01*
G01X505766Y2326162D01*
G01X508814Y2320066D01*
G01X514910Y2313716D01*
G01X521260Y2310668D01*
G01X530404Y2307620D01*
G01X545898Y2307620D01*
G01X555296Y2310668D01*
G01X561392Y2313716D01*
G01X567742Y2320066D01*
G01X570790Y2326162D01*
G01X570790Y2338608D01*
G01X567742Y2344704D01*
G01X561392Y2351054D01*
G01X555296Y2354102D01*
G01X514910Y2421412D02*
G01X508814Y2418364D01*
G01X505766Y2408966D01*
G01X505766Y2402870D01*
G01X508814Y2393472D01*
G01X518212Y2387376D01*
G01X533452Y2384328D01*
G01X548946Y2384328D01*
G01X561392Y2387376D01*
G01X567742Y2393472D01*
G01X570790Y2402870D01*
G01X570790Y2405918D01*
G01X567742Y2415062D01*
G01X561392Y2421412D01*
G01X552248Y2424460D01*
G01X548946Y2424460D01*
G01X539802Y2421412D01*
G01X533452Y2415062D01*
G01X530404Y2405918D01*
G01X530404Y2402870D01*
G01X533452Y2393472D01*
G01X539802Y2387376D01*
G01X548946Y2384328D01*
G01X711260Y-15898D02*
G01X704910Y-18946D01*
G01X698814Y-25296D01*
G01X695766Y-31392D01*
G01X695766Y-43838D01*
G01X698814Y-49934D01*
G01X704910Y-56284D01*
G01X711260Y-59332D01*
G01X720404Y-62380D01*
G01X735898Y-62380D01*
G01X745296Y-59332D01*
G01X751392Y-56284D01*
G01X757742Y-49934D01*
G01X760790Y-43838D01*
G01X760790Y-31392D01*
G01X757742Y-25296D01*
G01X751392Y-18946D01*
G01X745296Y-15898D01*
G01X695766Y57508D02*
G01X760790Y26520D01*
G01X695766Y14328D02*
G01X695766Y57508D01*
G01X-783160Y-645702D02*
G01X-776810Y-642654D01*
G01X-770714Y-636304D01*
G01X-767666Y-630208D01*
G01X-767666Y-617762D01*
G01X-770714Y-611666D01*
G01X-776810Y-605316D01*
G01X-783160Y-602268D01*
G01X-792304Y-599220D01*
G01X-807798Y-599220D01*
G01X-817196Y-602268D01*
G01X-823292Y-605316D01*
G01X-829642Y-611666D01*
G01X-832690Y-617762D01*
G01X-832690Y-630208D01*
G01X-829642Y-636304D01*
G01X-823292Y-642654D01*
G01X-817196Y-645702D01*
G01X-780112Y-675928D02*
G01X-776810Y-682024D01*
G01X-767666Y-691168D01*
G01X-832690Y-691168D01*
G01X-767666Y-739936D02*
G01X-770714Y-730538D01*
G01X-780112Y-724442D01*
G01X-795352Y-721394D01*
G01X-804750Y-721394D01*
G01X-820244Y-724442D01*
G01X-829642Y-730538D01*
G01X-832690Y-739936D01*
G01X-832690Y-746032D01*
G01X-829642Y-755430D01*
G01X-820244Y-761526D01*
G01X-804750Y-764574D01*
G01X-795352Y-764574D01*
G01X-780112Y-761526D01*
G01X-770714Y-755430D01*
G01X-767666Y-746032D01*
G01X-767666Y-739936D01*
G01X1241260Y664102D02*
G01X1234910Y661054D01*
G01X1228814Y654704D01*
G01X1225766Y648608D01*
G01X1225766Y636162D01*
G01X1228814Y630066D01*
G01X1234910Y623716D01*
G01X1241260Y620668D01*
G01X1250404Y617620D01*
G01X1265898Y617620D01*
G01X1275296Y620668D01*
G01X1281392Y623716D01*
G01X1287742Y630066D01*
G01X1290790Y636162D01*
G01X1290790Y648608D01*
G01X1287742Y654704D01*
G01X1281392Y661054D01*
G01X1275296Y664102D01*
G01X1238212Y694328D02*
G01X1234910Y700424D01*
G01X1225766Y709568D01*
G01X1290790Y709568D01*
G01X1238212Y739794D02*
G01X1234910Y745890D01*
G01X1225766Y755034D01*
G01X1290790Y755034D01*
G01X-791260Y2365898D02*
G01X-784910Y2368946D01*
G01X-778814Y2375296D01*
G01X-775766Y2381392D01*
G01X-775766Y2393838D01*
G01X-778814Y2399934D01*
G01X-784910Y2406284D01*
G01X-791260Y2409332D01*
G01X-800404Y2412380D01*
G01X-815898Y2412380D01*
G01X-825296Y2409332D01*
G01X-831392Y2406284D01*
G01X-837742Y2399934D01*
G01X-840790Y2393838D01*
G01X-840790Y2381392D01*
G01X-837742Y2375296D01*
G01X-831392Y2368946D01*
G01X-825296Y2365898D01*
G01X-788212Y2335672D02*
G01X-784910Y2329576D01*
G01X-775766Y2320432D01*
G01X-840790Y2320432D01*
G01X-791260Y2287158D02*
G01X-788212Y2287158D01*
G01X-781862Y2284110D01*
G01X-778814Y2281062D01*
G01X-775766Y2274966D01*
G01X-775766Y2262520D01*
G01X-778814Y2256170D01*
G01X-781862Y2253122D01*
G01X-788212Y2250074D01*
G01X-794308Y2250074D01*
G01X-800404Y2253122D01*
G01X-809802Y2259472D01*
G01X-840790Y2290206D01*
G01X-840790Y2247026D01*
G01X1231260Y-2325898D02*
G01X1224910Y-2328946D01*
G01X1218814Y-2335296D01*
G01X1215766Y-2341392D01*
G01X1215766Y-2353838D01*
G01X1218814Y-2359934D01*
G01X1224910Y-2366284D01*
G01X1231260Y-2369332D01*
G01X1240404Y-2372380D01*
G01X1255898Y-2372380D01*
G01X1265296Y-2369332D01*
G01X1271392Y-2366284D01*
G01X1277742Y-2359934D01*
G01X1280790Y-2353838D01*
G01X1280790Y-2341392D01*
G01X1277742Y-2335296D01*
G01X1271392Y-2328946D01*
G01X1265296Y-2325898D01*
G01X1228212Y-2295672D02*
G01X1224910Y-2289576D01*
G01X1215766Y-2280432D01*
G01X1280790Y-2280432D01*
G01X1215766Y-2244110D02*
G01X1215766Y-2210074D01*
G01X1240404Y-2228616D01*
G01X1240404Y-2219472D01*
G01X1243452Y-2213122D01*
G01X1246754Y-2210074D01*
G01X1255898Y-2207026D01*
G01X1262248Y-2207026D01*
G01X1271392Y-2210074D01*
G01X1277742Y-2216170D01*
G01X1280790Y-2225568D01*
G01X1280790Y-2234966D01*
G01X1277742Y-2244110D01*
G01X1274440Y-2247158D01*
G01X1268344Y-2250206D01*
G01X-810066Y364460D02*
G01X-875090Y364460D01*
G01X-810066Y364460D02*
G01X-810066Y336520D01*
G01X-813114Y327376D01*
G01X-816162Y324328D01*
G01X-822512Y321026D01*
G01X-828608Y321026D01*
G01X-834704Y324328D01*
G01X-837752Y327376D01*
G01X-841054Y336520D01*
G01X-841054Y364460D01*
G01X-841054Y342870D02*
G01X-875090Y321026D01*
G01X-810066Y284704D02*
G01X-810066Y250668D01*
G01X-834704Y269210D01*
G01X-834704Y260066D01*
G01X-837752Y253716D01*
G01X-841054Y250668D01*
G01X-850198Y247620D01*
G01X-856548Y247620D01*
G01X-865692Y250668D01*
G01X-872042Y256764D01*
G01X-875090Y266162D01*
G01X-875090Y275560D01*
G01X-872042Y284704D01*
G01X-868740Y287752D01*
G01X-862644Y290800D01*
G01X-354234Y-42380D02*
G01X-307752Y-42380D01*
G01X-298608Y-39332D01*
G01X-292258Y-32982D01*
G01X-289210Y-23838D01*
G01X-289210Y-17488D01*
G01X-292258Y-8344D01*
G01X-298608Y-2248D01*
G01X-307752Y1054D01*
G01X-354234Y1054D01*
G01X-341788Y31280D02*
G01X-345090Y37376D01*
G01X-354234Y46520D01*
G01X-289210Y46520D01*
G01X-1254430Y-313124D02*
G01X-1254430Y-266642D01*
G01X-1257478Y-257498D01*
G01X-1263828Y-251148D01*
G01X-1272972Y-248100D01*
G01X-1279322Y-248100D01*
G01X-1288466Y-251148D01*
G01X-1294562Y-257498D01*
G01X-1297864Y-266642D01*
G01X-1297864Y-313124D01*
G01X-1331138Y-297630D02*
G01X-1331138Y-300678D01*
G01X-1334186Y-307028D01*
G01X-1337234Y-310076D01*
G01X-1343330Y-313124D01*
G01X-1355776Y-313124D01*
G01X-1362126Y-310076D01*
G01X-1365174Y-307028D01*
G01X-1368222Y-300678D01*
G01X-1368222Y-294582D01*
G01X-1365174Y-288486D01*
G01X-1358824Y-279088D01*
G01X-1328090Y-248100D01*
G01X-1371270Y-248100D01*
G01X1175766Y-52380D02*
G01X1222248Y-52380D01*
G01X1231392Y-49332D01*
G01X1237742Y-42982D01*
G01X1240790Y-33838D01*
G01X1240790Y-27488D01*
G01X1237742Y-18344D01*
G01X1231392Y-12248D01*
G01X1222248Y-8946D01*
G01X1175766Y-8946D01*
G01X1175766Y52014D02*
G01X1218946Y21280D01*
G01X1218946Y67508D01*
G01X1175766Y52014D02*
G01X1240790Y52014D01*
G01X-822380Y-2875766D02*
G01X-822380Y-2922248D01*
G01X-819332Y-2931392D01*
G01X-812982Y-2937742D01*
G01X-803838Y-2940790D01*
G01X-797488Y-2940790D01*
G01X-788344Y-2937742D01*
G01X-782248Y-2931392D01*
G01X-778946Y-2922248D01*
G01X-778946Y-2875766D01*
G01X-705540Y-2884910D02*
G01X-711636Y-2878814D01*
G01X-721034Y-2875766D01*
G01X-733480Y-2875766D01*
G01X-742624Y-2878814D01*
G01X-748720Y-2884910D01*
G01X-748720Y-2891260D01*
G01X-745672Y-2897356D01*
G01X-742624Y-2900404D01*
G01X-736528Y-2903452D01*
G01X-717986Y-2909802D01*
G01X-711636Y-2912850D01*
G01X-708588Y-2915898D01*
G01X-705540Y-2922248D01*
G01X-705540Y-2931392D01*
G01X-711636Y-2937742D01*
G01X-721034Y-2940790D01*
G01X-733480Y-2940790D01*
G01X-742624Y-2937742D01*
G01X-748720Y-2931392D01*
G01X-675314Y-2875766D02*
G01X-675314Y-2940790D01*
G01X-675314Y-2875766D02*
G01X-647628Y-2875766D01*
G01X-638230Y-2878814D01*
G01X-635182Y-2881862D01*
G01X-632134Y-2888212D01*
G01X-632134Y-2894308D01*
G01X-635182Y-2900404D01*
G01X-638230Y-2903452D01*
G01X-647628Y-2906754D01*
G01X-675314Y-2906754D02*
G01X-647628Y-2906754D01*
G01X-638230Y-2909802D01*
G01X-635182Y-2912850D01*
G01X-632134Y-2918946D01*
G01X-632134Y-2928344D01*
G01X-635182Y-2934440D01*
G01X-638230Y-2937742D01*
G01X-647628Y-2940790D01*
G01X-675314Y-2940790D01*
G01X-601908Y-2888212D02*
G01X-595812Y-2884910D01*
G01X-586668Y-2875766D01*
G01X-586668Y-2940790D01*
G01X-1805766Y-387620D02*
G01X-1852248Y-387620D01*
G01X-1861392Y-390668D01*
G01X-1867742Y-397018D01*
G01X-1870790Y-406162D01*
G01X-1870790Y-412512D01*
G01X-1867742Y-421656D01*
G01X-1861392Y-427752D01*
G01X-1852248Y-431054D01*
G01X-1805766Y-431054D01*
G01X-1814910Y-504460D02*
G01X-1808814Y-498364D01*
G01X-1805766Y-488966D01*
G01X-1805766Y-476520D01*
G01X-1808814Y-467376D01*
G01X-1814910Y-461280D01*
G01X-1821260Y-461280D01*
G01X-1827356Y-464328D01*
G01X-1830404Y-467376D01*
G01X-1833452Y-473472D01*
G01X-1839802Y-492014D01*
G01X-1842850Y-498364D01*
G01X-1845898Y-501412D01*
G01X-1852248Y-504460D01*
G01X-1861392Y-504460D01*
G01X-1867742Y-498364D01*
G01X-1870790Y-488966D01*
G01X-1870790Y-476520D01*
G01X-1867742Y-467376D01*
G01X-1861392Y-461280D01*
G01X-1805766Y-534686D02*
G01X-1870790Y-534686D01*
G01X-1805766Y-534686D02*
G01X-1805766Y-562372D01*
G01X-1808814Y-571770D01*
G01X-1811862Y-574818D01*
G01X-1818212Y-577866D01*
G01X-1824308Y-577866D01*
G01X-1830404Y-574818D01*
G01X-1833452Y-571770D01*
G01X-1836754Y-562372D01*
G01X-1836754Y-534686D02*
G01X-1836754Y-562372D01*
G01X-1839802Y-571770D01*
G01X-1842850Y-574818D01*
G01X-1848946Y-577866D01*
G01X-1858344Y-577866D01*
G01X-1864440Y-574818D01*
G01X-1867742Y-571770D01*
G01X-1870790Y-562372D01*
G01X-1870790Y-534686D01*
G01X-1821260Y-611140D02*
G01X-1818212Y-611140D01*
G01X-1811862Y-614188D01*
G01X-1808814Y-617236D01*
G01X-1805766Y-623332D01*
G01X-1805766Y-635778D01*
G01X-1808814Y-642128D01*
G01X-1811862Y-645176D01*
G01X-1818212Y-648224D01*
G01X-1824308Y-648224D01*
G01X-1830404Y-645176D01*
G01X-1839802Y-638826D01*
G01X-1870790Y-608092D01*
G01X-1870790Y-651272D01*
G01X1815766Y447620D02*
G01X1862248Y447620D01*
G01X1871392Y450668D01*
G01X1877742Y457018D01*
G01X1880790Y466162D01*
G01X1880790Y472512D01*
G01X1877742Y481656D01*
G01X1871392Y487752D01*
G01X1862248Y491054D01*
G01X1815766Y491054D01*
G01X1824910Y564460D02*
G01X1818814Y558364D01*
G01X1815766Y548966D01*
G01X1815766Y536520D01*
G01X1818814Y527376D01*
G01X1824910Y521280D01*
G01X1831260Y521280D01*
G01X1837356Y524328D01*
G01X1840404Y527376D01*
G01X1843452Y533472D01*
G01X1849802Y552014D01*
G01X1852850Y558364D01*
G01X1855898Y561412D01*
G01X1862248Y564460D01*
G01X1871392Y564460D01*
G01X1877742Y558364D01*
G01X1880790Y548966D01*
G01X1880790Y536520D01*
G01X1877742Y527376D01*
G01X1871392Y521280D01*
G01X1815766Y594686D02*
G01X1880790Y594686D01*
G01X1815766Y594686D02*
G01X1815766Y622372D01*
G01X1818814Y631770D01*
G01X1821862Y634818D01*
G01X1828212Y637866D01*
G01X1834308Y637866D01*
G01X1840404Y634818D01*
G01X1843452Y631770D01*
G01X1846754Y622372D01*
G01X1846754Y594686D02*
G01X1846754Y622372D01*
G01X1849802Y631770D01*
G01X1852850Y634818D01*
G01X1858946Y637866D01*
G01X1868344Y637866D01*
G01X1874440Y634818D01*
G01X1877742Y631770D01*
G01X1880790Y622372D01*
G01X1880790Y594686D01*
G01X1815766Y674188D02*
G01X1815766Y708224D01*
G01X1840404Y689682D01*
G01X1840404Y698826D01*
G01X1843452Y705176D01*
G01X1846754Y708224D01*
G01X1855898Y711272D01*
G01X1862248Y711272D01*
G01X1871392Y708224D01*
G01X1877742Y702128D01*
G01X1880790Y692730D01*
G01X1880790Y683332D01*
G01X1877742Y674188D01*
G01X1874440Y671140D01*
G01X1868344Y668092D01*
G01X-1845766Y2572380D02*
G01X-1892248Y2572380D01*
G01X-1901392Y2569332D01*
G01X-1907742Y2562982D01*
G01X-1910790Y2553838D01*
G01X-1910790Y2547488D01*
G01X-1907742Y2538344D01*
G01X-1901392Y2532248D01*
G01X-1892248Y2528946D01*
G01X-1845766Y2528946D01*
G01X-1854910Y2455540D02*
G01X-1848814Y2461636D01*
G01X-1845766Y2471034D01*
G01X-1845766Y2483480D01*
G01X-1848814Y2492624D01*
G01X-1854910Y2498720D01*
G01X-1861260Y2498720D01*
G01X-1867356Y2495672D01*
G01X-1870404Y2492624D01*
G01X-1873452Y2486528D01*
G01X-1879802Y2467986D01*
G01X-1882850Y2461636D01*
G01X-1885898Y2458588D01*
G01X-1892248Y2455540D01*
G01X-1901392Y2455540D01*
G01X-1907742Y2461636D01*
G01X-1910790Y2471034D01*
G01X-1910790Y2483480D01*
G01X-1907742Y2492624D01*
G01X-1901392Y2498720D01*
G01X-1845766Y2425314D02*
G01X-1910790Y2425314D01*
G01X-1845766Y2425314D02*
G01X-1845766Y2397628D01*
G01X-1848814Y2388230D01*
G01X-1851862Y2385182D01*
G01X-1858212Y2382134D01*
G01X-1864308Y2382134D01*
G01X-1870404Y2385182D01*
G01X-1873452Y2388230D01*
G01X-1876754Y2397628D01*
G01X-1876754Y2425314D02*
G01X-1876754Y2397628D01*
G01X-1879802Y2388230D01*
G01X-1882850Y2385182D01*
G01X-1888946Y2382134D01*
G01X-1898344Y2382134D01*
G01X-1904440Y2385182D01*
G01X-1907742Y2388230D01*
G01X-1910790Y2397628D01*
G01X-1910790Y2425314D01*
G01X-1845766Y2321174D02*
G01X-1888946Y2351908D01*
G01X-1888946Y2305680D01*
G01X-1845766Y2321174D02*
G01X-1910790Y2321174D01*
G01X1815766Y-2602380D02*
G01X1862248Y-2602380D01*
G01X1871392Y-2599332D01*
G01X1877742Y-2592982D01*
G01X1880790Y-2583838D01*
G01X1880790Y-2577488D01*
G01X1877742Y-2568344D01*
G01X1871392Y-2562248D01*
G01X1862248Y-2558946D01*
G01X1815766Y-2558946D01*
G01X1824910Y-2485540D02*
G01X1818814Y-2491636D01*
G01X1815766Y-2501034D01*
G01X1815766Y-2513480D01*
G01X1818814Y-2522624D01*
G01X1824910Y-2528720D01*
G01X1831260Y-2528720D01*
G01X1837356Y-2525672D01*
G01X1840404Y-2522624D01*
G01X1843452Y-2516528D01*
G01X1849802Y-2497986D01*
G01X1852850Y-2491636D01*
G01X1855898Y-2488588D01*
G01X1862248Y-2485540D01*
G01X1871392Y-2485540D01*
G01X1877742Y-2491636D01*
G01X1880790Y-2501034D01*
G01X1880790Y-2513480D01*
G01X1877742Y-2522624D01*
G01X1871392Y-2528720D01*
G01X1815766Y-2455314D02*
G01X1880790Y-2455314D01*
G01X1815766Y-2455314D02*
G01X1815766Y-2427628D01*
G01X1818814Y-2418230D01*
G01X1821862Y-2415182D01*
G01X1828212Y-2412134D01*
G01X1834308Y-2412134D01*
G01X1840404Y-2415182D01*
G01X1843452Y-2418230D01*
G01X1846754Y-2427628D01*
G01X1846754Y-2455314D02*
G01X1846754Y-2427628D01*
G01X1849802Y-2418230D01*
G01X1852850Y-2415182D01*
G01X1858946Y-2412134D01*
G01X1868344Y-2412134D01*
G01X1874440Y-2415182D01*
G01X1877742Y-2418230D01*
G01X1880790Y-2427628D01*
G01X1880790Y-2455314D01*
G01X1815766Y-2344824D02*
G01X1815766Y-2375812D01*
G01X1843452Y-2378860D01*
G01X1840404Y-2375812D01*
G01X1837356Y-2366668D01*
G01X1837356Y-2357270D01*
G01X1840404Y-2347872D01*
G01X1846754Y-2341776D01*
G01X1855898Y-2338728D01*
G01X1862248Y-2338728D01*
G01X1871392Y-2341776D01*
G01X1877742Y-2347872D01*
G01X1880790Y-2357270D01*
G01X1880790Y-2366668D01*
G01X1877742Y-2375812D01*
G01X1874440Y-2378860D01*
G01X1868344Y-2381908D01*
G01X-527620Y2795766D02*
G01X-527620Y2842248D01*
G01X-530668Y2851392D01*
G01X-537018Y2857742D01*
G01X-546162Y2860790D01*
G01X-552512Y2860790D01*
G01X-561656Y2857742D01*
G01X-567752Y2851392D01*
G01X-571054Y2842248D01*
G01X-571054Y2795766D01*
G01X-644460Y2804910D02*
G01X-638364Y2798814D01*
G01X-628966Y2795766D01*
G01X-616520Y2795766D01*
G01X-607376Y2798814D01*
G01X-601280Y2804910D01*
G01X-601280Y2811260D01*
G01X-604328Y2817356D01*
G01X-607376Y2820404D01*
G01X-613472Y2823452D01*
G01X-632014Y2829802D01*
G01X-638364Y2832850D01*
G01X-641412Y2835898D01*
G01X-644460Y2842248D01*
G01X-644460Y2851392D01*
G01X-638364Y2857742D01*
G01X-628966Y2860790D01*
G01X-616520Y2860790D01*
G01X-607376Y2857742D01*
G01X-601280Y2851392D01*
G01X-674686Y2795766D02*
G01X-674686Y2860790D01*
G01X-674686Y2795766D02*
G01X-702372Y2795766D01*
G01X-711770Y2798814D01*
G01X-714818Y2801862D01*
G01X-717866Y2808212D01*
G01X-717866Y2814308D01*
G01X-714818Y2820404D01*
G01X-711770Y2823452D01*
G01X-702372Y2826754D01*
G01X-674686Y2826754D02*
G01X-702372Y2826754D01*
G01X-711770Y2829802D01*
G01X-714818Y2832850D01*
G01X-717866Y2838946D01*
G01X-717866Y2848344D01*
G01X-714818Y2854440D01*
G01X-711770Y2857742D01*
G01X-702372Y2860790D01*
G01X-674686Y2860790D01*
G01X-785176Y2804910D02*
G01X-782128Y2798814D01*
G01X-772730Y2795766D01*
G01X-766634Y2795766D01*
G01X-757236Y2798814D01*
G01X-751140Y2808212D01*
G01X-748092Y2823452D01*
G01X-748092Y2838946D01*
G01X-751140Y2851392D01*
G01X-757236Y2857742D01*
G01X-766634Y2860790D01*
G01X-769682Y2860790D01*
G01X-778826Y2857742D01*
G01X-785176Y2851392D01*
G01X-788224Y2842248D01*
G01X-788224Y2838946D01*
G01X-785176Y2829802D01*
G01X-778826Y2823452D01*
G01X-769682Y2820404D01*
G01X-766634Y2820404D01*
G01X-757236Y2823452D01*
G01X-751140Y2829802D01*
G01X-748092Y2838946D01*
G36*
G01X-615977Y-779121D02*
G01X-617455Y-778609D01*
G01X-619046Y-777246D01*
G01X-619955Y-775655D01*
G01X-620409Y-768609D01*
G01X-620182Y-761791D01*
G01X-619727Y-743609D01*
G01X-619273Y-725882D01*
G01X-618364Y-689518D01*
G01X-618137Y-681791D01*
G01X-617909Y-673155D01*
G01X-617455Y-670882D01*
G01X-617000Y-669291D01*
G01X-616091Y-667927D01*
G01X-614727Y-667018D01*
G01X-612455Y-666564D01*
G01X-609273Y-666791D01*
G01X-607000Y-667473D01*
G01X-605636Y-668382D01*
G01X-602909Y-671564D01*
G01X-600636Y-674291D01*
G01X-599046Y-675882D01*
G01X-597682Y-677700D01*
G01X-596545Y-678837D01*
G01X-594727Y-681109D01*
G01X-593136Y-682700D01*
G01X-591773Y-684518D01*
G01X-590636Y-685655D01*
G01X-588818Y-687927D01*
G01X-587227Y-689518D01*
G01X-585864Y-691336D01*
G01X-584727Y-692473D01*
G01X-582909Y-694746D01*
G01X-581318Y-696336D01*
G01X-579954Y-698155D01*
G01X-578818Y-699291D01*
G01X-576091Y-702473D01*
G01X-573818Y-705200D01*
G01X-572227Y-706791D01*
G01X-570864Y-708609D01*
G01X-569727Y-709746D01*
G01X-567909Y-712018D01*
G01X-566318Y-713609D01*
G01X-564955Y-715427D01*
G01X-563818Y-716564D01*
G01X-562000Y-718836D01*
G01X-560409Y-720427D01*
G01X-559045Y-722246D01*
G01X-557909Y-723382D01*
G01X-555182Y-726564D01*
G01X-552909Y-729291D01*
G01X-551318Y-730882D01*
G01X-549955Y-732700D01*
G01X-548818Y-733836D01*
G01X-547000Y-736109D01*
G01X-545409Y-737700D01*
G01X-544045Y-739518D01*
G01X-542909Y-740655D01*
G01X-537455Y-747018D01*
G01X-536318Y-748155D01*
G01X-534500Y-750427D01*
G01X-533364Y-751336D01*
G01X-532852Y-749745D01*
G01X-532682Y-744518D01*
G01X-532455Y-736791D01*
G01X-532000Y-719064D01*
G01X-531091Y-682700D01*
G01X-530864Y-676791D01*
G01X-530636Y-669973D01*
G01X-529955Y-667245D01*
G01X-528818Y-665655D01*
G01X-527455Y-664746D01*
G01X-524500Y-664291D01*
G01X-521546Y-664518D01*
G01X-519727Y-665200D01*
G01X-517682Y-666791D01*
G01X-517000Y-670086D01*
G01X-516773Y-677700D01*
G01X-517000Y-688155D01*
G01X-517455Y-707700D01*
G01X-517909Y-727700D01*
G01X-518364Y-747246D01*
G01X-518818Y-767246D01*
G01X-519046Y-769291D01*
G01X-519273Y-771791D01*
G01X-520182Y-774064D01*
G01X-521546Y-775655D01*
G01X-523136Y-776564D01*
G01X-525636Y-777018D01*
G01X-527909Y-776791D01*
G01X-529727Y-776336D01*
G01X-531318Y-775427D01*
G01X-534045Y-772700D01*
G01X-535409Y-770882D01*
G01X-536546Y-769746D01*
G01X-538818Y-767018D01*
G01X-540409Y-765427D01*
G01X-541773Y-763609D01*
G01X-542909Y-762473D01*
G01X-545637Y-759291D01*
G01X-547227Y-757700D01*
G01X-548591Y-755882D01*
G01X-549727Y-754745D01*
G01X-552000Y-752018D01*
G01X-553591Y-750427D01*
G01X-554955Y-748609D01*
G01X-556091Y-747473D01*
G01X-558818Y-744291D01*
G01X-559955Y-743155D01*
G01X-561773Y-740882D01*
G01X-562909Y-739745D01*
G01X-565182Y-737018D01*
G01X-566773Y-735427D01*
G01X-568136Y-733609D01*
G01X-569273Y-732473D01*
G01X-571546Y-729745D01*
G01X-573136Y-728155D01*
G01X-574500Y-726337D01*
G01X-575636Y-725200D01*
G01X-578364Y-722018D01*
G01X-579500Y-720882D01*
G01X-581318Y-718609D01*
G01X-582455Y-717473D01*
G01X-584727Y-714745D01*
G01X-586318Y-713155D01*
G01X-587682Y-711337D01*
G01X-588818Y-710200D01*
G01X-591091Y-707473D01*
G01X-592682Y-705882D01*
G01X-594045Y-704064D01*
G01X-595182Y-702927D01*
G01X-597909Y-699746D01*
G01X-599500Y-698155D01*
G01X-600864Y-696336D01*
G01X-602000Y-695200D01*
G01X-602909Y-694064D01*
G01X-603818Y-693155D01*
G01X-604330Y-694632D01*
G01X-604500Y-699518D01*
G01X-604727Y-706791D01*
G01X-605182Y-728155D01*
G01X-605636Y-749973D01*
G01X-605864Y-760200D01*
G01X-606091Y-771336D01*
G01X-606545Y-774064D01*
G01X-607455Y-776336D01*
G01X-608818Y-777927D01*
G01X-610409Y-778837D01*
G01X-613818Y-779291D01*
G01X-615977Y-779121D01*
G37*
G36*
G01X-723136Y-779746D02*
G01X-725409Y-779291D01*
G01X-726773Y-778609D01*
G01X-728136Y-777700D01*
G01X-729045Y-776336D01*
G01X-729500Y-773837D01*
G01X-729273Y-770882D01*
G01X-728591Y-768155D01*
G01X-727682Y-765655D01*
G01X-726318Y-761564D01*
G01X-725409Y-759291D01*
G01X-724500Y-756564D01*
G01X-720864Y-746564D01*
G01X-719954Y-743836D01*
G01X-719045Y-741564D01*
G01X-717682Y-737473D01*
G01X-716318Y-733836D01*
G01X-715636Y-731791D01*
G01X-714273Y-728155D01*
G01X-713591Y-726109D01*
G01X-712682Y-723836D01*
G01X-712379Y-722927D01*
G01X-697000Y-722927D01*
G01X-697000Y-724518D01*
G01X-684955Y-724745D01*
G01X-673136Y-724745D01*
G01X-673364Y-723836D01*
G01X-674045Y-722246D01*
G01X-674727Y-720427D01*
G01X-675409Y-718382D01*
G01X-676773Y-714745D01*
G01X-677455Y-712700D01*
G01X-678818Y-709064D01*
G01X-679500Y-707018D01*
G01X-680864Y-703382D01*
G01X-681546Y-701337D01*
G01X-682909Y-697700D01*
G01X-683591Y-695655D01*
G01X-684273Y-693836D01*
G01X-684955Y-692246D01*
G01X-685352Y-691848D01*
G01X-685637Y-692018D01*
G01X-686318Y-693155D01*
G01X-687000Y-694973D01*
G01X-687682Y-697018D01*
G01X-688591Y-699291D01*
G01X-689500Y-702018D01*
G01X-693136Y-712018D01*
G01X-694045Y-714745D01*
G01X-694954Y-717018D01*
G01X-695636Y-719064D01*
G01X-696318Y-720882D01*
G01X-697000Y-722927D01*
G01X-697000Y-722927D01*
G01X-712379Y-722927D01*
G01X-711773Y-721109D01*
G01X-709954Y-716109D01*
G01X-709045Y-713382D01*
G01X-708136Y-711109D01*
G01X-706773Y-707018D01*
G01X-705864Y-704746D01*
G01X-704954Y-702018D01*
G01X-704045Y-699746D01*
G01X-702682Y-695655D01*
G01X-701318Y-692018D01*
G01X-700636Y-689973D01*
G01X-699273Y-686336D01*
G01X-698591Y-684291D01*
G01X-697682Y-682018D01*
G01X-696773Y-679291D01*
G01X-695864Y-676791D01*
G01X-694954Y-674518D01*
G01X-694045Y-672473D01*
G01X-693136Y-670655D01*
G01X-692000Y-668837D01*
G01X-690864Y-667245D01*
G01X-689727Y-666109D01*
G01X-688364Y-665200D01*
G01X-686318Y-664518D01*
G01X-684045Y-664746D01*
G01X-682227Y-665427D01*
G01X-680864Y-666336D01*
G01X-679727Y-667473D01*
G01X-678364Y-669064D01*
G01X-677227Y-670882D01*
G01X-676318Y-672700D01*
G01X-675409Y-674746D01*
G01X-674500Y-677018D01*
G01X-673591Y-679746D01*
G01X-672682Y-682018D01*
G01X-671318Y-686109D01*
G01X-669955Y-689746D01*
G01X-669273Y-691791D01*
G01X-667909Y-695427D01*
G01X-667227Y-697473D01*
G01X-666318Y-699746D01*
G01X-665409Y-702473D01*
G01X-661773Y-712473D01*
G01X-660864Y-715200D01*
G01X-659955Y-717473D01*
G01X-658591Y-721564D01*
G01X-657682Y-723836D01*
G01X-656773Y-726564D01*
G01X-655864Y-728836D01*
G01X-654500Y-732927D01*
G01X-653591Y-735200D01*
G01X-652682Y-737927D01*
G01X-651773Y-740200D01*
G01X-650409Y-744291D01*
G01X-649500Y-746564D01*
G01X-648591Y-749291D01*
G01X-644955Y-759291D01*
G01X-644046Y-762018D01*
G01X-643136Y-764291D01*
G01X-641773Y-768382D01*
G01X-641091Y-770882D01*
G01X-641091Y-774064D01*
G01X-642000Y-776791D01*
G01X-643591Y-778382D01*
G01X-645182Y-779291D01*
G01X-647000Y-779746D01*
G01X-649273Y-779518D01*
G01X-651545Y-778609D01*
G01X-653136Y-777246D01*
G01X-654273Y-775655D01*
G01X-655409Y-773609D01*
G01X-656318Y-771336D01*
G01X-660864Y-758836D01*
G01X-661773Y-756109D01*
G01X-662682Y-753836D01*
G01X-663364Y-751791D01*
G01X-664727Y-748155D01*
G01X-665409Y-746109D01*
G01X-666318Y-743836D01*
G01X-667682Y-739745D01*
G01X-703136Y-739745D01*
G01X-703591Y-741109D01*
G01X-707227Y-751109D01*
G01X-708136Y-753836D01*
G01X-709045Y-756109D01*
G01X-709727Y-758155D01*
G01X-711091Y-761791D01*
G01X-711773Y-763836D01*
G01X-712682Y-766109D01*
G01X-713591Y-768836D01*
G01X-714500Y-771336D01*
G01X-715409Y-773609D01*
G01X-716546Y-775655D01*
G01X-717682Y-777246D01*
G01X-718818Y-778382D01*
G01X-720409Y-779291D01*
G01X-723136Y-779746D01*
G37*
G36*
G01X-414671Y-779973D02*
G01X-416318Y-779291D01*
G01X-418136Y-777246D01*
G01X-418818Y-775427D01*
G01X-419045Y-771564D01*
G01X-418818Y-767700D01*
G01X-418364Y-749064D01*
G01X-417455Y-712700D01*
G01X-417377Y-709518D01*
G01X-403136Y-709518D01*
G01X-402909Y-719973D01*
G01X-395864Y-720200D01*
G01X-387909Y-719973D01*
G01X-385182Y-719518D01*
G01X-382909Y-719064D01*
G01X-380864Y-718382D01*
G01X-378364Y-717473D01*
G01X-376091Y-716337D01*
G01X-374500Y-715200D01*
G01X-373364Y-714291D01*
G01X-371091Y-712018D01*
G01X-369955Y-710655D01*
G01X-369046Y-709291D01*
G01X-368364Y-707927D01*
G01X-367682Y-706337D01*
G01X-367000Y-704518D01*
G01X-366545Y-702700D01*
G01X-366318Y-700427D01*
G01X-366545Y-698155D01*
G01X-366773Y-696564D01*
G01X-367227Y-694518D01*
G01X-368137Y-692246D01*
G01X-369046Y-690427D01*
G01X-369955Y-688836D01*
G01X-371091Y-687473D01*
G01X-373364Y-685200D01*
G01X-374500Y-684291D01*
G01X-376091Y-683382D01*
G01X-378136Y-682473D01*
G01X-380636Y-681564D01*
G01X-382909Y-680882D01*
G01X-386091Y-680427D01*
G01X-396091Y-679973D01*
G01X-399728Y-679746D01*
G01X-402682Y-679746D01*
G01X-402682Y-688836D01*
G01X-402909Y-698609D01*
G01X-403136Y-709518D01*
G01X-403136Y-709518D01*
G01X-417377Y-709518D01*
G01X-417000Y-694064D01*
G01X-416546Y-675882D01*
G01X-416318Y-673609D01*
G01X-416091Y-670882D01*
G01X-415409Y-668609D01*
G01X-414273Y-667018D01*
G01X-412682Y-666109D01*
G01X-410182Y-665655D01*
G01X-407909Y-665882D01*
G01X-406546Y-665882D01*
G01X-398136Y-665655D01*
G01X-389727Y-665882D01*
G01X-388136Y-666109D01*
G01X-385637Y-666336D01*
G01X-382909Y-666791D01*
G01X-380636Y-667245D01*
G01X-378818Y-667700D01*
G01X-376773Y-668155D01*
G01X-374727Y-668837D01*
G01X-372909Y-669518D01*
G01X-371318Y-670200D01*
G01X-369727Y-671109D01*
G01X-367455Y-672245D01*
G01X-365182Y-673837D01*
G01X-363364Y-675200D01*
G01X-359955Y-678609D01*
G01X-359046Y-679746D01*
G01X-357909Y-681336D01*
G01X-356773Y-683155D01*
G01X-355864Y-684973D01*
G01X-354955Y-687018D01*
G01X-353591Y-691109D01*
G01X-352909Y-693609D01*
G01X-352455Y-695882D01*
G01X-352227Y-698836D01*
G01X-352455Y-703155D01*
G01X-352909Y-705882D01*
G01X-353364Y-708155D01*
G01X-354046Y-710427D01*
G01X-354955Y-712473D01*
G01X-356091Y-714973D01*
G01X-357227Y-716564D01*
G01X-357909Y-717927D01*
G01X-358818Y-719291D01*
G01X-361545Y-722473D01*
G01X-363818Y-724745D01*
G01X-367455Y-727018D01*
G01X-369500Y-727927D01*
G01X-371773Y-728836D01*
G01X-375864Y-730200D01*
G01X-377682Y-730655D01*
G01X-378420Y-730825D01*
G01X-378818Y-731337D01*
G01X-378705Y-732075D01*
G01X-377909Y-732927D01*
G01X-376091Y-734291D01*
G01X-371091Y-739291D01*
G01X-369273Y-740655D01*
G01X-364727Y-745200D01*
G01X-362455Y-747018D01*
G01X-357909Y-751564D01*
G01X-355636Y-753382D01*
G01X-352227Y-756791D01*
G01X-349500Y-759064D01*
G01X-344955Y-763609D01*
G01X-343818Y-765200D01*
G01X-342909Y-767246D01*
G01X-342909Y-769518D01*
G01X-343591Y-771109D01*
G01X-344500Y-772246D01*
G01X-345636Y-773382D01*
G01X-347227Y-774518D01*
G01X-349500Y-775427D01*
G01X-352455Y-775200D01*
G01X-355182Y-774064D01*
G01X-357227Y-772700D01*
G01X-358818Y-771564D01*
G01X-369046Y-761336D01*
G01X-371318Y-759518D01*
G01X-396318Y-734518D01*
G01X-397511Y-734007D01*
G01X-400182Y-733836D01*
G01X-403591Y-733836D01*
G01X-403591Y-736791D01*
G01X-403818Y-740427D01*
G01X-404273Y-760882D01*
G01X-404500Y-767927D01*
G01X-404955Y-775200D01*
G01X-405864Y-777246D01*
G01X-407227Y-778837D01*
G01X-409045Y-779746D01*
G01X-412455Y-780200D01*
G01X-414671Y-779973D01*
G37*
G36*
G01X-469500Y-779291D02*
G01X-499955Y-779064D01*
G01X-501318Y-778382D01*
G01X-502909Y-777473D01*
G01X-504046Y-776336D01*
G01X-504955Y-774746D01*
G01X-505409Y-772473D01*
G01X-505182Y-769973D01*
G01X-504500Y-767927D01*
G01X-503591Y-766564D01*
G01X-502454Y-765655D01*
G01X-500864Y-764973D01*
G01X-499273Y-764518D01*
G01X-489273Y-764291D01*
G01X-479955Y-764291D01*
G01X-479955Y-758836D01*
G01X-479727Y-752700D01*
G01X-479273Y-734973D01*
G01X-478818Y-717700D01*
G01X-478364Y-699973D01*
G01X-478137Y-690655D01*
G01X-478137Y-682018D01*
G01X-487682Y-682018D01*
G01X-498818Y-681564D01*
G01X-501545Y-680427D01*
G01X-503136Y-678837D01*
G01X-504046Y-677018D01*
G01X-504500Y-674746D01*
G01X-504046Y-672018D01*
G01X-503136Y-670200D01*
G01X-502227Y-669064D01*
G01X-500636Y-667927D01*
G01X-498818Y-667245D01*
G01X-469727Y-667018D01*
G01X-439273Y-667245D01*
G01X-436546Y-667927D01*
G01X-434727Y-669064D01*
G01X-433136Y-670882D01*
G01X-432455Y-672700D01*
G01X-432227Y-674518D01*
G01X-432682Y-677018D01*
G01X-433591Y-678837D01*
G01X-434500Y-679973D01*
G01X-436318Y-681109D01*
G01X-438364Y-681791D01*
G01X-451318Y-682018D01*
G01X-463591Y-682018D01*
G01X-463591Y-683609D01*
G01X-463818Y-685882D01*
G01X-465636Y-758609D01*
G01X-465864Y-761791D01*
G01X-465864Y-764291D01*
G01X-453818Y-764291D01*
G01X-440636Y-764518D01*
G01X-438818Y-764973D01*
G01X-437000Y-765655D01*
G01X-434955Y-767246D01*
G01X-433818Y-769518D01*
G01X-433364Y-771336D01*
G01X-433364Y-772473D01*
G01X-433591Y-773837D01*
G01X-434273Y-775655D01*
G01X-435409Y-777246D01*
G01X-436773Y-778155D01*
G01X-438591Y-778837D01*
G01X-469500Y-779291D01*
G37*
G36*
G01X-115977Y-779121D02*
G01X-117455Y-778609D01*
G01X-119046Y-777246D01*
G01X-119955Y-775655D01*
G01X-120409Y-769064D01*
G01X-120182Y-762700D01*
G01X-119728Y-744973D01*
G01X-118364Y-690427D01*
G01X-118136Y-682700D01*
G01X-117909Y-673609D01*
G01X-117455Y-670882D01*
G01X-117000Y-669291D01*
G01X-116091Y-667927D01*
G01X-114728Y-667018D01*
G01X-112227Y-666564D01*
G01X-109273Y-666791D01*
G01X-107000Y-667473D01*
G01X-104955Y-669064D01*
G01X-103591Y-670882D01*
G01X-102455Y-672018D01*
G01X-100637Y-674291D01*
G01X-99046Y-675882D01*
G01X-97682Y-677700D01*
G01X-96546Y-678837D01*
G01X-93818Y-682018D01*
G01X-91546Y-684746D01*
G01X-89955Y-686336D01*
G01X-88591Y-688155D01*
G01X-87455Y-689291D01*
G01X-85637Y-691564D01*
G01X-84046Y-693155D01*
G01X-82682Y-694973D01*
G01X-81546Y-696109D01*
G01X-79727Y-698382D01*
G01X-78137Y-699973D01*
G01X-76773Y-701791D01*
G01X-75636Y-702927D01*
G01X-72909Y-706109D01*
G01X-70636Y-708836D01*
G01X-69046Y-710427D01*
G01X-67682Y-712246D01*
G01X-66546Y-713382D01*
G01X-64727Y-715655D01*
G01X-63137Y-717246D01*
G01X-61773Y-719064D01*
G01X-60636Y-720200D01*
G01X-58818Y-722473D01*
G01X-57228Y-724064D01*
G01X-55864Y-725882D01*
G01X-54727Y-727018D01*
G01X-52909Y-729291D01*
G01X-51318Y-730882D01*
G01X-49955Y-732700D01*
G01X-48818Y-733836D01*
G01X-46091Y-737018D01*
G01X-43818Y-739745D01*
G01X-42228Y-741337D01*
G01X-40864Y-743155D01*
G01X-39727Y-744291D01*
G01X-37455Y-747018D01*
G01X-36318Y-748155D01*
G01X-34500Y-750427D01*
G01X-33364Y-751336D01*
G01X-32852Y-749859D01*
G01X-32682Y-744973D01*
G01X-32455Y-737700D01*
G01X-32000Y-719973D01*
G01X-31091Y-683609D01*
G01X-30864Y-676336D01*
G01X-30409Y-668837D01*
G01X-29727Y-667018D01*
G01X-28818Y-665655D01*
G01X-27455Y-664746D01*
G01X-24500Y-664291D01*
G01X-21546Y-664518D01*
G01X-19727Y-665200D01*
G01X-17682Y-666791D01*
G01X-17000Y-670200D01*
G01X-16773Y-678155D01*
G01X-17000Y-689064D01*
G01X-17455Y-709064D01*
G01X-17909Y-728609D01*
G01X-18364Y-748609D01*
G01X-18818Y-768155D01*
G01X-19046Y-769746D01*
G01X-19273Y-771791D01*
G01X-20182Y-774064D01*
G01X-21546Y-775655D01*
G01X-23137Y-776564D01*
G01X-25637Y-777018D01*
G01X-27909Y-776791D01*
G01X-29727Y-776336D01*
G01X-31318Y-775427D01*
G01X-33591Y-773155D01*
G01X-35409Y-770882D01*
G01X-36546Y-769746D01*
G01X-38818Y-767018D01*
G01X-40409Y-765427D01*
G01X-41773Y-763609D01*
G01X-42909Y-762473D01*
G01X-45182Y-759746D01*
G01X-46773Y-758155D01*
G01X-48137Y-756336D01*
G01X-49273Y-755200D01*
G01X-52000Y-752018D01*
G01X-53591Y-750427D01*
G01X-54955Y-748609D01*
G01X-56091Y-747473D01*
G01X-58364Y-744745D01*
G01X-59955Y-743155D01*
G01X-61318Y-741337D01*
G01X-62455Y-740200D01*
G01X-64727Y-737473D01*
G01X-66318Y-735882D01*
G01X-67682Y-734064D01*
G01X-68818Y-732927D01*
G01X-71546Y-729745D01*
G01X-73137Y-728155D01*
G01X-74500Y-726337D01*
G01X-75636Y-725200D01*
G01X-77909Y-722473D01*
G01X-79500Y-720882D01*
G01X-80864Y-719064D01*
G01X-82000Y-717927D01*
G01X-84727Y-714745D01*
G01X-85864Y-713609D01*
G01X-87682Y-711337D01*
G01X-88818Y-710200D01*
G01X-91091Y-707473D01*
G01X-92682Y-705882D01*
G01X-94046Y-704064D01*
G01X-95182Y-702927D01*
G01X-97455Y-700200D01*
G01X-99046Y-698609D01*
G01X-100409Y-696791D01*
G01X-101546Y-695655D01*
G01X-102682Y-694291D01*
G01X-103818Y-693155D01*
G01X-104330Y-694802D01*
G01X-104500Y-700200D01*
G01X-104728Y-708155D01*
G01X-105637Y-750882D01*
G01X-106091Y-771336D01*
G01X-106318Y-773155D01*
G01X-106773Y-775200D01*
G01X-107682Y-776791D01*
G01X-108818Y-777927D01*
G01X-110409Y-778837D01*
G01X-113818Y-779291D01*
G01X-115977Y-779121D01*
G37*
G36*
G01X-223137Y-779746D02*
G01X-225409Y-779291D01*
G01X-226773Y-778609D01*
G01X-228137Y-777700D01*
G01X-229046Y-776336D01*
G01X-229500Y-773837D01*
G01X-229273Y-770882D01*
G01X-228591Y-768382D01*
G01X-226773Y-762927D01*
G01X-225864Y-760655D01*
G01X-224500Y-756564D01*
G01X-223591Y-754291D01*
G01X-222682Y-751564D01*
G01X-219046Y-741564D01*
G01X-218137Y-738836D01*
G01X-217227Y-736564D01*
G01X-215864Y-732473D01*
G01X-214500Y-728836D01*
G01X-213818Y-726791D01*
G01X-212966Y-724518D01*
G01X-197000Y-724518D01*
G01X-184955Y-724745D01*
G01X-176148Y-724575D01*
G01X-173364Y-724064D01*
G01X-174046Y-722018D01*
G01X-174955Y-719745D01*
G01X-175637Y-717700D01*
G01X-177000Y-714064D01*
G01X-177682Y-712018D01*
G01X-179046Y-708382D01*
G01X-179727Y-706337D01*
G01X-181091Y-702700D01*
G01X-181773Y-700655D01*
G01X-182682Y-698382D01*
G01X-183591Y-695655D01*
G01X-184500Y-693155D01*
G01X-185409Y-691791D01*
G01X-185807Y-691905D01*
G01X-186091Y-692700D01*
G01X-187455Y-696336D01*
G01X-188137Y-698382D01*
G01X-189046Y-700655D01*
G01X-189955Y-703382D01*
G01X-190864Y-705655D01*
G01X-192228Y-709746D01*
G01X-193137Y-712018D01*
G01X-194046Y-714745D01*
G01X-194955Y-717018D01*
G01X-197000Y-723155D01*
G01X-197000Y-723155D01*
G01X-197000Y-724518D01*
G01X-212966Y-724518D01*
G01X-212455Y-723155D01*
G01X-211773Y-721109D01*
G01X-210864Y-718836D01*
G01X-209955Y-716109D01*
G01X-208137Y-711109D01*
G01X-207228Y-708382D01*
G01X-206318Y-706109D01*
G01X-204955Y-702018D01*
G01X-204046Y-699746D01*
G01X-203137Y-697018D01*
G01X-202228Y-694746D01*
G01X-200864Y-690655D01*
G01X-199500Y-687018D01*
G01X-198818Y-684973D01*
G01X-197455Y-681336D01*
G01X-196773Y-679291D01*
G01X-195864Y-677018D01*
G01X-194955Y-674518D01*
G01X-193137Y-670882D01*
G01X-191773Y-668609D01*
G01X-190409Y-666791D01*
G01X-189046Y-665655D01*
G01X-187228Y-664746D01*
G01X-185182Y-664518D01*
G01X-182909Y-665200D01*
G01X-181318Y-666109D01*
G01X-180182Y-667018D01*
G01X-179046Y-668155D01*
G01X-178137Y-669291D01*
G01X-177228Y-670882D01*
G01X-176318Y-672700D01*
G01X-174955Y-675882D01*
G01X-174273Y-677700D01*
G01X-173591Y-679746D01*
G01X-172682Y-682018D01*
G01X-171773Y-684746D01*
G01X-170864Y-687018D01*
G01X-169500Y-691109D01*
G01X-168591Y-693382D01*
G01X-167682Y-696109D01*
G01X-166773Y-698382D01*
G01X-165409Y-702473D01*
G01X-164046Y-706109D01*
G01X-163364Y-708155D01*
G01X-162000Y-711791D01*
G01X-161318Y-713836D01*
G01X-160409Y-716109D01*
G01X-159500Y-718836D01*
G01X-155864Y-728836D01*
G01X-154955Y-731564D01*
G01X-154046Y-733836D01*
G01X-152682Y-737927D01*
G01X-151773Y-740200D01*
G01X-150864Y-742927D01*
G01X-149955Y-745200D01*
G01X-148591Y-749291D01*
G01X-147682Y-751564D01*
G01X-146773Y-754291D01*
G01X-145864Y-756564D01*
G01X-144500Y-760655D01*
G01X-143136Y-764291D01*
G01X-141773Y-768382D01*
G01X-141091Y-770882D01*
G01X-141091Y-774064D01*
G01X-142000Y-776791D01*
G01X-143591Y-778382D01*
G01X-145182Y-779291D01*
G01X-147000Y-779746D01*
G01X-149273Y-779518D01*
G01X-151546Y-778609D01*
G01X-153136Y-777246D01*
G01X-154273Y-775655D01*
G01X-155409Y-773609D01*
G01X-156318Y-771336D01*
G01X-157227Y-768836D01*
G01X-158136Y-766109D01*
G01X-159046Y-763836D01*
G01X-159727Y-761791D01*
G01X-161091Y-758155D01*
G01X-161773Y-756109D01*
G01X-162682Y-753836D01*
G01X-163591Y-751109D01*
G01X-167227Y-741109D01*
G01X-167682Y-739745D01*
G01X-203137Y-739745D01*
G01X-204500Y-743836D01*
G01X-205409Y-746109D01*
G01X-206091Y-748155D01*
G01X-207455Y-751791D01*
G01X-208137Y-753836D01*
G01X-209046Y-756109D01*
G01X-209955Y-758836D01*
G01X-214500Y-771336D01*
G01X-215409Y-773609D01*
G01X-216545Y-775655D01*
G01X-217682Y-777246D01*
G01X-218818Y-778382D01*
G01X-220409Y-779291D01*
G01X-223137Y-779746D01*
G37*
G36*
G01X-301773Y-781564D02*
G01X-307000Y-781336D01*
G01X-311091Y-781109D01*
G01X-315864Y-780655D01*
G01X-317682Y-779746D01*
G01X-319046Y-778155D01*
G01X-319727Y-776336D01*
G01X-319955Y-772246D01*
G01X-319727Y-768155D01*
G01X-319565Y-761336D01*
G01X-305409Y-761336D01*
G01X-305182Y-767246D01*
G01X-299955Y-767473D01*
G01X-294273Y-767246D01*
G01X-292227Y-767018D01*
G01X-289727Y-766791D01*
G01X-287000Y-766336D01*
G01X-284727Y-765882D01*
G01X-282682Y-765427D01*
G01X-279955Y-764746D01*
G01X-277909Y-764064D01*
G01X-276091Y-763609D01*
G01X-274046Y-762927D01*
G01X-272227Y-762246D01*
G01X-270182Y-761336D01*
G01X-266546Y-759064D01*
G01X-264500Y-757246D01*
G01X-263136Y-755200D01*
G01X-262227Y-753382D01*
G01X-261773Y-749745D01*
G01X-262000Y-746336D01*
G01X-262455Y-744518D01*
G01X-263364Y-742246D01*
G01X-264500Y-740655D01*
G01X-265409Y-739518D01*
G01X-267000Y-737927D01*
G01X-268818Y-736564D01*
G01X-270182Y-735655D01*
G01X-272000Y-734745D01*
G01X-274273Y-733836D01*
G01X-276773Y-732927D01*
G01X-279273Y-732246D01*
G01X-281091Y-731791D01*
G01X-284273Y-731337D01*
G01X-288818Y-730882D01*
G01X-297000Y-730655D01*
G01X-304500Y-730655D01*
G01X-304500Y-732246D01*
G01X-304727Y-734518D01*
G01X-305182Y-754973D01*
G01X-305409Y-761336D01*
G01X-305409Y-761336D01*
G01X-319565Y-761336D01*
G01X-319273Y-749064D01*
G01X-318818Y-729518D01*
G01X-318418Y-712700D01*
G01X-304273Y-712700D01*
G01X-304273Y-715427D01*
G01X-304046Y-716564D01*
G01X-301318Y-716564D01*
G01X-301318Y-716564D01*
G01X-298364Y-716791D01*
G01X-294955Y-717018D01*
G01X-291091Y-716791D01*
G01X-286546Y-716337D01*
G01X-284045Y-715882D01*
G01X-281318Y-715200D01*
G01X-279045Y-714291D01*
G01X-276546Y-712927D01*
G01X-274727Y-711564D01*
G01X-273591Y-710427D01*
G01X-272682Y-709064D01*
G01X-270864Y-705882D01*
G01X-269955Y-703836D01*
G01X-269273Y-701791D01*
G01X-269046Y-698836D01*
G01X-269273Y-694973D01*
G01X-269955Y-692018D01*
G01X-271091Y-689518D01*
G01X-272227Y-687927D01*
G01X-272909Y-686791D01*
G01X-274273Y-685200D01*
G01X-276091Y-683836D01*
G01X-277227Y-682927D01*
G01X-278818Y-682018D01*
G01X-281091Y-681109D01*
G01X-282909Y-680427D01*
G01X-287000Y-679518D01*
G01X-292000Y-679064D01*
G01X-298136Y-678837D01*
G01X-303591Y-678837D01*
G01X-303591Y-685882D01*
G01X-303818Y-693609D01*
G01X-304046Y-702700D01*
G01X-304273Y-712700D01*
G01X-318418Y-712700D01*
G01X-317909Y-691336D01*
G01X-317682Y-682245D01*
G01X-317455Y-672245D01*
G01X-317000Y-669518D01*
G01X-316318Y-667473D01*
G01X-315182Y-665882D01*
G01X-313591Y-664973D01*
G01X-312000Y-664518D01*
G01X-310636Y-664518D01*
G01X-296091Y-664973D01*
G01X-290637Y-665427D01*
G01X-287455Y-665882D01*
G01X-285637Y-666109D01*
G01X-282909Y-666564D01*
G01X-280637Y-667245D01*
G01X-278591Y-667700D01*
G01X-276318Y-668382D01*
G01X-274500Y-669064D01*
G01X-272909Y-669746D01*
G01X-268818Y-671791D01*
G01X-267227Y-672927D01*
G01X-266091Y-673609D01*
G01X-264955Y-674518D01*
G01X-261546Y-677927D01*
G01X-260182Y-679518D01*
G01X-258818Y-681564D01*
G01X-257682Y-683609D01*
G01X-256773Y-685427D01*
G01X-256091Y-687246D01*
G01X-255409Y-689291D01*
G01X-254728Y-691791D01*
G01X-254273Y-694973D01*
G01X-254273Y-697246D01*
G01X-254500Y-698836D01*
G01X-254728Y-701337D01*
G01X-255182Y-703609D01*
G01X-255637Y-705427D01*
G01X-256318Y-707473D01*
G01X-257227Y-709518D01*
G01X-258364Y-711791D01*
G01X-259728Y-714064D01*
G01X-262000Y-717246D01*
G01X-263364Y-718836D01*
G01X-265637Y-721109D01*
G01X-266546Y-722473D01*
G01X-266432Y-723212D01*
G01X-265637Y-723609D01*
G01X-263818Y-724291D01*
G01X-262000Y-725200D01*
G01X-260409Y-726109D01*
G01X-257000Y-728836D01*
G01X-253136Y-732700D01*
G01X-251546Y-734973D01*
G01X-250182Y-737018D01*
G01X-249046Y-739291D01*
G01X-248136Y-741564D01*
G01X-247455Y-743836D01*
G01X-247000Y-745882D01*
G01X-246773Y-748836D01*
G01X-247000Y-751791D01*
G01X-247455Y-754973D01*
G01X-247909Y-756791D01*
G01X-248591Y-759291D01*
G01X-249500Y-761791D01*
G01X-250409Y-763609D01*
G01X-251546Y-765427D01*
G01X-252909Y-767018D01*
G01X-253818Y-768155D01*
G01X-254728Y-769064D01*
G01X-255864Y-769973D01*
G01X-257455Y-771336D01*
G01X-259046Y-772473D01*
G01X-260637Y-773382D01*
G01X-262455Y-774291D01*
G01X-264500Y-775200D01*
G01X-266773Y-776109D01*
G01X-268818Y-776791D01*
G01X-271318Y-777473D01*
G01X-273364Y-778155D01*
G01X-282455Y-779973D01*
G01X-289727Y-780882D01*
G01X-296091Y-781336D01*
G01X-301773Y-781564D01*
G37*
G36*
G01X127318Y-989745D02*
G01X110500Y-989518D01*
G01X108909Y-988609D01*
G01X107318Y-986791D01*
G01X106636Y-984973D01*
G01X106409Y-981109D01*
G01X106636Y-977245D01*
G01X106769Y-971791D01*
G01X120954Y-971791D01*
G01X120954Y-975655D01*
G01X123682Y-975655D01*
G01X123682Y-975655D01*
G01X126636Y-975882D01*
G01X132773Y-976109D01*
G01X139363Y-975882D01*
G01X145272Y-975427D01*
G01X150727Y-974745D01*
G01X153454Y-974291D01*
G01X155727Y-973609D01*
G01X157773Y-973155D01*
G01X160045Y-972473D01*
G01X162091Y-971564D01*
G01X165272Y-969973D01*
G01X166409Y-969064D01*
G01X170500Y-964973D01*
G01X171863Y-963154D01*
G01X173454Y-960882D01*
G01X174591Y-959291D01*
G01X175500Y-957700D01*
G01X176409Y-955882D01*
G01X177091Y-954291D01*
G01X177772Y-952473D01*
G01X178454Y-949973D01*
G01X178909Y-947700D01*
G01X179136Y-944746D01*
G01X178909Y-941336D01*
G01X178000Y-936791D01*
G01X177318Y-934291D01*
G01X176636Y-932245D01*
G01X175954Y-930427D01*
G01X174136Y-926791D01*
G01X173000Y-924746D01*
G01X171863Y-922927D01*
G01X170954Y-921564D01*
G01X169136Y-919291D01*
G01X168227Y-917927D01*
G01X167091Y-916564D01*
G01X165272Y-914291D01*
G01X157318Y-906336D01*
G01X155045Y-904518D01*
G01X153909Y-903382D01*
G01X150272Y-900655D01*
G01X146636Y-898382D01*
G01X143454Y-896564D01*
G01X141409Y-895654D01*
G01X139136Y-894745D01*
G01X137318Y-894064D01*
G01X135045Y-893382D01*
G01X133000Y-892700D01*
G01X128000Y-891791D01*
G01X125045Y-891564D01*
G01X122772Y-891564D01*
G01X122772Y-898836D01*
G01X122545Y-906791D01*
G01X122091Y-926791D01*
G01X121636Y-947245D01*
G01X121182Y-967245D01*
G01X120954Y-971791D01*
G01X106769Y-971791D01*
G01X107091Y-958609D01*
G01X107545Y-940427D01*
G01X108909Y-884518D01*
G01X109136Y-882246D01*
G01X109363Y-879518D01*
G01X110045Y-877246D01*
G01X111182Y-875654D01*
G01X112545Y-874745D01*
G01X114363Y-874291D01*
G01X117545Y-874518D01*
G01X123909Y-875427D01*
G01X126636Y-875882D01*
G01X132773Y-877246D01*
G01X135500Y-877927D01*
G01X140954Y-879745D01*
G01X143227Y-880654D01*
G01X149363Y-883382D01*
G01X151636Y-884518D01*
G01X153909Y-885882D01*
G01X157545Y-888155D01*
G01X159591Y-889518D01*
G01X161181Y-890427D01*
G01X164591Y-893155D01*
G01X170954Y-898609D01*
G01X176636Y-904291D01*
G01X178909Y-907018D01*
G01X180727Y-909291D01*
G01X182091Y-910882D01*
G01X184363Y-914064D01*
G01X185500Y-915882D01*
G01X187318Y-919064D01*
G01X189591Y-923609D01*
G01X190500Y-925882D01*
G01X191409Y-928382D01*
G01X192091Y-930427D01*
G01X193000Y-934064D01*
G01X193454Y-937245D01*
G01X193682Y-942245D01*
G01X193454Y-948154D01*
G01X193000Y-951336D01*
G01X192318Y-954518D01*
G01X191409Y-957245D01*
G01X190500Y-959746D01*
G01X189591Y-961791D01*
G01X188682Y-963609D01*
G01X187545Y-965655D01*
G01X186181Y-967700D01*
G01X185045Y-969291D01*
G01X184136Y-970655D01*
G01X180727Y-974745D01*
G01X177318Y-978155D01*
G01X172545Y-982245D01*
G01X170500Y-983609D01*
G01X168454Y-984745D01*
G01X166181Y-985655D01*
G01X163454Y-986564D01*
G01X161181Y-987246D01*
G01X157091Y-988155D01*
G01X153909Y-988609D01*
G01X150272Y-989064D01*
G01X144363Y-989518D01*
G01X127318Y-989745D01*
G37*
G36*
G01X459818Y-989291D02*
G01X457772Y-989064D01*
G01X456636Y-988382D01*
G01X455272Y-987473D01*
G01X454136Y-986109D01*
G01X453454Y-984518D01*
G01X453227Y-981791D01*
G01X453454Y-979064D01*
G01X453909Y-960427D01*
G01X454363Y-941336D01*
G01X454818Y-922700D01*
G01X455272Y-903609D01*
G01X455727Y-884973D01*
G01X456181Y-879973D01*
G01X456863Y-878155D01*
G01X458000Y-876564D01*
G01X459591Y-875654D01*
G01X462545Y-875200D01*
G01X465500Y-875654D01*
G01X467318Y-876336D01*
G01X468681Y-877246D01*
G01X469591Y-878836D01*
G01X470045Y-885427D01*
G01X469818Y-891791D01*
G01X469363Y-910882D01*
G01X469136Y-917927D01*
G01X469136Y-924291D01*
G01X500500Y-924291D01*
G01X524079Y-924120D01*
G01X532091Y-923609D01*
G01X532545Y-922245D01*
G01X533454Y-886791D01*
G01X533909Y-880427D01*
G01X534363Y-878609D01*
G01X535727Y-876564D01*
G01X538227Y-875427D01*
G01X541636Y-875427D01*
G01X544818Y-876336D01*
G01X546409Y-877700D01*
G01X547318Y-879291D01*
G01X547772Y-884064D01*
G01X547545Y-888609D01*
G01X545727Y-968609D01*
G01X545500Y-974973D01*
G01X545272Y-982700D01*
G01X544590Y-985427D01*
G01X543681Y-986791D01*
G01X542091Y-988155D01*
G01X539590Y-989064D01*
G01X536636Y-989064D01*
G01X534363Y-988382D01*
G01X533000Y-987473D01*
G01X531863Y-986109D01*
G01X531181Y-984518D01*
G01X530954Y-981564D01*
G01X531181Y-978609D01*
G01X531636Y-959973D01*
G01X531863Y-951109D01*
G01X532091Y-941336D01*
G01X532318Y-939746D01*
G01X468681Y-939746D01*
G01X468681Y-944064D01*
G01X468454Y-949064D01*
G01X468000Y-969064D01*
G01X467772Y-976109D01*
G01X467318Y-984064D01*
G01X466409Y-986109D01*
G01X465500Y-987246D01*
G01X463909Y-988382D01*
G01X462090Y-989064D01*
G01X459818Y-989291D01*
G37*
G36*
G01X242091Y-988836D02*
G01X218000Y-988609D01*
G01X216636Y-987927D01*
G01X215273Y-987018D01*
G01X214136Y-985655D01*
G01X213454Y-984064D01*
G01X213227Y-981109D01*
G01X213454Y-978155D01*
G01X215727Y-884973D01*
G01X215954Y-883382D01*
G01X216182Y-880882D01*
G01X217091Y-878382D01*
G01X218681Y-876791D01*
G01X222148Y-876280D01*
G01X230727Y-876109D01*
G01X242545Y-875882D01*
G01X260500Y-875654D01*
G01X279818Y-875882D01*
G01X283000Y-876564D01*
G01X285272Y-877700D01*
G01X287091Y-879518D01*
G01X288000Y-881336D01*
G01X288227Y-883155D01*
G01X288000Y-885427D01*
G01X287318Y-887246D01*
G01X286409Y-888609D01*
G01X284591Y-889745D01*
G01X282545Y-890427D01*
G01X262545Y-890882D01*
G01X246409Y-891109D01*
G01X230273Y-891564D01*
G01X229761Y-894007D01*
G01X229591Y-900427D01*
G01X229363Y-909518D01*
G01X229136Y-913836D01*
G01X229136Y-917473D01*
G01X238681Y-917473D01*
G01X248909Y-917245D01*
G01X260045Y-917018D01*
G01X271181Y-917245D01*
G01X272772Y-917473D01*
G01X274591Y-917927D01*
G01X276636Y-918836D01*
G01X278227Y-919973D01*
G01X279363Y-921791D01*
G01X280045Y-924518D01*
G01X279818Y-927245D01*
G01X279136Y-928837D01*
G01X278227Y-929973D01*
G01X276863Y-930882D01*
G01X275045Y-931564D01*
G01X272091Y-932018D01*
G01X269363Y-932245D01*
G01X248681Y-932473D01*
G01X228681Y-932473D01*
G01X228681Y-940427D01*
G01X228454Y-949064D01*
G01X228000Y-967700D01*
G01X227772Y-971109D01*
G01X227772Y-973836D01*
G01X234363Y-973836D01*
G01X241636Y-973609D01*
G01X257545Y-973382D01*
G01X274818Y-973609D01*
G01X278227Y-974291D01*
G01X280727Y-975427D01*
G01X282545Y-977245D01*
G01X283454Y-979064D01*
G01X283682Y-980882D01*
G01X283454Y-983155D01*
G01X282773Y-984973D01*
G01X281863Y-986336D01*
G01X280045Y-987473D01*
G01X278000Y-988155D01*
G01X266182Y-988609D01*
G01X242091Y-988836D01*
G37*
G36*
G01X396636Y-989291D02*
G01X393000Y-988836D01*
G01X391863Y-987927D01*
G01X390727Y-986336D01*
G01X390216Y-983268D01*
G01X390045Y-976336D01*
G01X390272Y-966791D01*
G01X390727Y-948154D01*
G01X391182Y-929973D01*
G01X391636Y-911336D01*
G01X392091Y-893155D01*
G01X392318Y-891336D01*
G01X392318Y-890200D01*
G01X375045Y-890200D01*
G01X355727Y-889973D01*
G01X352772Y-889291D01*
G01X351182Y-888609D01*
G01X350045Y-887700D01*
G01X349136Y-886336D01*
G01X348454Y-884064D01*
G01X348681Y-881109D01*
G01X349591Y-879064D01*
G01X350500Y-877927D01*
G01X352091Y-877018D01*
G01X353909Y-876336D01*
G01X396636Y-876109D01*
G01X439363Y-876336D01*
G01X441409Y-876791D01*
G01X443909Y-877700D01*
G01X445500Y-879064D01*
G01X446409Y-880654D01*
G01X446863Y-882473D01*
G01X446636Y-884518D01*
G01X445954Y-886336D01*
G01X445045Y-887700D01*
G01X443454Y-888836D01*
G01X441636Y-889518D01*
G01X409363Y-889973D01*
G01X407545Y-890200D01*
G01X406409Y-890200D01*
G01X406409Y-894518D01*
G01X406181Y-899518D01*
G01X404363Y-975882D01*
G01X404136Y-979291D01*
G01X403909Y-983609D01*
G01X403000Y-986336D01*
G01X401636Y-987927D01*
G01X400272Y-988836D01*
G01X396636Y-989291D01*
G37*
G36*
G01X833681Y-1021564D02*
G01X830727Y-1020882D01*
G01X829875Y-1019745D01*
G01X829590Y-1017700D01*
G01X830045Y-1014745D01*
G01X831409Y-1012018D01*
G01X832090Y-1011109D01*
G01X833909Y-1010030D01*
G01X834136Y-1009291D01*
G01X834363Y-1007700D01*
G01X834818Y-1006336D01*
G01X836181Y-1004064D01*
G01X837090Y-1003155D01*
G01X837602Y-1002757D01*
G01X837943Y-1001280D01*
G01X838965Y-1000484D01*
G01X839136Y-999745D01*
G01X839590Y-998382D01*
G01X840272Y-997246D01*
G01X841409Y-996336D01*
G01X842090Y-995882D01*
G01X842318Y-994973D01*
G01X842488Y-994064D01*
G01X843000Y-993609D01*
G01X843511Y-993211D01*
G01X843681Y-992473D01*
G01X844136Y-991336D01*
G01X845500Y-989518D01*
G01X845954Y-988382D01*
G01X846409Y-987018D01*
G01X847772Y-984745D01*
G01X849136Y-982018D01*
G01X849818Y-980882D01*
G01X850954Y-979973D01*
G01X851636Y-979518D01*
G01X851863Y-978609D01*
G01X852034Y-977700D01*
G01X852545Y-977245D01*
G01X853056Y-976848D01*
G01X853227Y-976109D01*
G01X854136Y-974291D01*
G01X855272Y-972473D01*
G01X855954Y-971109D01*
G01X857318Y-968836D01*
G01X857999Y-967473D01*
G01X859818Y-964746D01*
G01X860500Y-963382D01*
G01X861863Y-961109D01*
G01X862545Y-960200D01*
G01X863454Y-959518D01*
G01X863965Y-959064D01*
G01X864136Y-958154D01*
G01X864818Y-956564D01*
G01X865954Y-954746D01*
G01X868681Y-949973D01*
G01X869363Y-949064D01*
G01X863113Y-948552D01*
G01X843909Y-948382D01*
G01X817545Y-948154D01*
G01X816181Y-947473D01*
G01X815670Y-946677D01*
G01X815499Y-945200D01*
G01X815727Y-942700D01*
G01X816408Y-941336D01*
G01X817545Y-940427D01*
G01X818454Y-939746D01*
G01X819363Y-938609D01*
G01X820727Y-937473D01*
G01X821863Y-936336D01*
G01X824590Y-934973D01*
G01X825499Y-933609D01*
G01X826636Y-932473D01*
G01X830045Y-929746D01*
G01X831409Y-928837D01*
G01X833227Y-927700D01*
G01X834590Y-926336D01*
G01X835727Y-924973D01*
G01X837772Y-922927D01*
G01X839363Y-921791D01*
G01X841181Y-920882D01*
G01X842090Y-920200D01*
G01X846181Y-916109D01*
G01X847090Y-915427D01*
G01X848909Y-913609D01*
G01X850045Y-912927D01*
G01X850954Y-912245D01*
G01X852545Y-910655D01*
G01X853681Y-909973D01*
G01X854363Y-909291D01*
G01X856636Y-907927D01*
G01X860500Y-904064D01*
G01X861636Y-903155D01*
G01X862772Y-902018D01*
G01X864363Y-901336D01*
G01X865954Y-900427D01*
G01X866863Y-899291D01*
G01X867772Y-898382D01*
G01X868681Y-897700D01*
G01X869591Y-896791D01*
G01X870954Y-895882D01*
G01X872090Y-895200D01*
G01X873454Y-893836D01*
G01X875272Y-892473D01*
G01X877772Y-889973D01*
G01X879136Y-889291D01*
G01X880272Y-888836D01*
G01X880954Y-888155D01*
G01X882318Y-886336D01*
G01X882999Y-885654D01*
G01X884818Y-884291D01*
G01X886181Y-882927D01*
G01X887318Y-882246D01*
G01X888908Y-881109D01*
G01X890272Y-879973D01*
G01X892090Y-878155D01*
G01X892999Y-877473D01*
G01X894363Y-876109D01*
G01X896636Y-874745D01*
G01X900045Y-871336D01*
G01X903454Y-868609D01*
G01X904818Y-868155D01*
G01X905954Y-867246D01*
G01X907090Y-865882D01*
G01X909136Y-863836D01*
G01X910499Y-862700D01*
G01X912545Y-861337D01*
G01X914363Y-859973D01*
G01X915499Y-859064D01*
G01X916181Y-858382D01*
G01X918909Y-856337D01*
G01X920272Y-855427D01*
G01X922318Y-853382D01*
G01X923000Y-852473D01*
G01X924136Y-851564D01*
G01X925499Y-850655D01*
G01X928681Y-850200D01*
G01X931409Y-850200D01*
G01X931409Y-853609D01*
G01X931238Y-856223D01*
G01X930727Y-857246D01*
G01X930215Y-857643D01*
G01X929875Y-859121D01*
G01X928852Y-859916D01*
G01X928681Y-860655D01*
G01X928227Y-862018D01*
G01X927545Y-863155D01*
G01X925727Y-864973D01*
G01X925272Y-866337D01*
G01X924818Y-867927D01*
G01X924136Y-869064D01*
G01X923454Y-869973D01*
G01X922545Y-870882D01*
G01X922034Y-871280D01*
G01X921863Y-872018D01*
G01X921409Y-873382D01*
G01X920727Y-874291D01*
G01X919306Y-875371D01*
G01X919136Y-876109D01*
G01X918681Y-877473D01*
G01X917772Y-878836D01*
G01X916636Y-880427D01*
G01X915499Y-882246D01*
G01X913909Y-885427D01*
G01X913000Y-886336D01*
G01X912488Y-886734D01*
G01X912147Y-888211D01*
G01X911125Y-889007D01*
G01X910954Y-889745D01*
G01X910499Y-891109D01*
G01X909818Y-892018D01*
G01X908681Y-892927D01*
G01X907999Y-893495D01*
G01X907772Y-894291D01*
G01X907318Y-895654D01*
G01X906409Y-896791D01*
G01X905727Y-898155D01*
G01X905045Y-899291D01*
G01X904363Y-900200D01*
G01X903681Y-901336D01*
G01X902999Y-902700D01*
G01X900272Y-907245D01*
G01X899136Y-908155D01*
G01X898454Y-908552D01*
G01X898227Y-909291D01*
G01X897772Y-910427D01*
G01X897090Y-911336D01*
G01X896636Y-912700D01*
G01X895727Y-914291D01*
G01X894818Y-915655D01*
G01X894136Y-916791D01*
G01X893454Y-918382D01*
G01X893227Y-919291D01*
G01X918454Y-919291D01*
G01X937431Y-919461D01*
G01X943909Y-919973D01*
G01X944818Y-921109D01*
G01X945329Y-921848D01*
G01X945499Y-923155D01*
G01X945045Y-925655D01*
G01X944136Y-927473D01*
G01X943227Y-928837D01*
G01X942090Y-929746D01*
G01X937091Y-934746D01*
G01X935272Y-936109D01*
G01X934363Y-937018D01*
G01X933227Y-937927D01*
G01X932318Y-938609D01*
G01X930727Y-940200D01*
G01X929590Y-940882D01*
G01X927545Y-942927D01*
G01X925727Y-944291D01*
G01X925045Y-945200D01*
G01X923681Y-946564D01*
G01X921636Y-948154D01*
G01X919818Y-949518D01*
G01X918681Y-950427D01*
G01X918000Y-951109D01*
G01X917090Y-951791D01*
G01X915954Y-952700D01*
G01X915045Y-953836D01*
G01X913227Y-955655D01*
G01X912090Y-956336D01*
G01X911181Y-957018D01*
G01X909590Y-958609D01*
G01X908454Y-959518D01*
G01X907318Y-959973D01*
G01X906409Y-960882D01*
G01X905727Y-962018D01*
G01X904818Y-962700D01*
G01X902545Y-964518D01*
G01X901636Y-965200D01*
G01X900272Y-966564D01*
G01X898454Y-967927D01*
G01X897545Y-968836D01*
G01X896181Y-969973D01*
G01X895045Y-970882D01*
G01X894136Y-971791D01*
G01X892999Y-972700D01*
G01X892090Y-973382D01*
G01X890727Y-974745D01*
G01X888908Y-976109D01*
G01X886636Y-978382D01*
G01X885272Y-979518D01*
G01X883681Y-980427D01*
G01X882545Y-981336D01*
G01X881636Y-982245D01*
G01X880727Y-982927D01*
G01X877090Y-986564D01*
G01X875954Y-987473D01*
G01X875045Y-988382D01*
G01X873909Y-989291D01*
G01X872090Y-990655D01*
G01X870500Y-991791D01*
G01X867772Y-994518D01*
G01X865954Y-995882D01*
G01X865045Y-996791D01*
G01X863681Y-997927D01*
G01X862090Y-999064D01*
G01X860727Y-1000427D01*
G01X859591Y-1001336D01*
G01X858909Y-1002018D01*
G01X857999Y-1002700D01*
G01X857090Y-1003609D01*
G01X856636Y-1004121D01*
G01X855727Y-1004291D01*
G01X854363Y-1004745D01*
G01X853681Y-1005882D01*
G01X851863Y-1008155D01*
G01X850727Y-1009291D01*
G01X848909Y-1010427D01*
G01X847545Y-1011791D01*
G01X847090Y-1012302D01*
G01X846181Y-1012473D01*
G01X844590Y-1013155D01*
G01X843909Y-1014518D01*
G01X843000Y-1015427D01*
G01X841863Y-1016336D01*
G01X840272Y-1017927D01*
G01X838454Y-1019291D01*
G01X837090Y-1019973D01*
G01X835954Y-1020882D01*
G01X835159Y-1021393D01*
G01X833681Y-1021564D01*
G37*
G36*
G01X686409Y-988836D02*
G01X678000Y-988609D01*
G01X673454Y-987700D01*
G01X671863Y-987473D01*
G01X670045Y-987018D01*
G01X665954Y-985655D01*
G01X663681Y-984745D01*
G01X661863Y-983836D01*
G01X660272Y-982927D01*
G01X658227Y-981791D01*
G01X656636Y-980655D01*
G01X654363Y-978836D01*
G01X652772Y-977245D01*
G01X651409Y-975427D01*
G01X650500Y-974064D01*
G01X649818Y-972018D01*
G01X650045Y-969064D01*
G01X651181Y-966336D01*
G01X653000Y-964518D01*
G01X655499Y-963836D01*
G01X657772Y-964291D01*
G01X659818Y-965200D01*
G01X662091Y-966564D01*
G01X664363Y-968382D01*
G01X666181Y-969745D01*
G01X667318Y-970655D01*
G01X668909Y-971564D01*
G01X670727Y-972473D01*
G01X672772Y-973382D01*
G01X674818Y-974064D01*
G01X679363Y-974973D01*
G01X683000Y-975427D01*
G01X686636Y-975655D01*
G01X690272Y-975427D01*
G01X691863Y-975200D01*
G01X693909Y-974973D01*
G01X696181Y-974518D01*
G01X698000Y-974064D01*
G01X700272Y-973609D01*
G01X702772Y-972927D01*
G01X704818Y-972245D01*
G01X706636Y-971564D01*
G01X708454Y-970655D01*
G01X710500Y-969518D01*
G01X712090Y-968382D01*
G01X715954Y-964518D01*
G01X717545Y-962245D01*
G01X718681Y-960427D01*
G01X719591Y-958382D01*
G01X720272Y-956336D01*
G01X720500Y-954064D01*
G01X720272Y-950882D01*
G01X719818Y-948609D01*
G01X719136Y-946564D01*
G01X717999Y-944746D01*
G01X716863Y-943609D01*
G01X715272Y-942245D01*
G01X713227Y-941109D01*
G01X710954Y-940200D01*
G01X708909Y-939518D01*
G01X704363Y-938609D01*
G01X700272Y-938155D01*
G01X684818Y-937700D01*
G01X683000Y-937473D01*
G01X680272Y-937245D01*
G01X677545Y-936791D01*
G01X673909Y-935882D01*
G01X671863Y-935200D01*
G01X669818Y-934291D01*
G01X667545Y-933155D01*
G01X665272Y-931564D01*
G01X663454Y-930200D01*
G01X662318Y-929064D01*
G01X660954Y-927245D01*
G01X659590Y-925200D01*
G01X658681Y-923609D01*
G01X658000Y-922018D01*
G01X657318Y-920200D01*
G01X656636Y-918155D01*
G01X656181Y-916336D01*
G01X655954Y-912245D01*
G01X656181Y-907245D01*
G01X656636Y-904973D01*
G01X657091Y-903155D01*
G01X657772Y-900882D01*
G01X658681Y-898609D01*
G01X659818Y-896336D01*
G01X660954Y-894518D01*
G01X661863Y-893155D01*
G01X663681Y-890882D01*
G01X665954Y-888609D01*
G01X668227Y-886791D01*
G01X669818Y-885427D01*
G01X671409Y-884291D01*
G01X673000Y-883382D01*
G01X677091Y-881109D01*
G01X681636Y-879291D01*
G01X684136Y-878382D01*
G01X686181Y-877700D01*
G01X690727Y-876791D01*
G01X693909Y-876336D01*
G01X697545Y-876109D01*
G01X701181Y-876336D01*
G01X703454Y-876564D01*
G01X706181Y-876791D01*
G01X708909Y-877246D01*
G01X712090Y-877927D01*
G01X714363Y-878609D01*
G01X716181Y-879064D01*
G01X717999Y-879745D01*
G01X720045Y-880654D01*
G01X721863Y-881564D01*
G01X725045Y-883382D01*
G01X726636Y-884518D01*
G01X728227Y-885882D01*
G01X729136Y-887246D01*
G01X729591Y-889064D01*
G01X729136Y-891564D01*
G01X727999Y-893382D01*
G01X726181Y-894518D01*
G01X723909Y-895200D01*
G01X722090Y-894973D01*
G01X719818Y-894518D01*
G01X717318Y-893836D01*
G01X715045Y-892927D01*
G01X710272Y-891336D01*
G01X706181Y-890427D01*
G01X703000Y-889973D01*
G01X700272Y-889745D01*
G01X697545Y-889973D01*
G01X693454Y-890427D01*
G01X690954Y-890882D01*
G01X687772Y-891564D01*
G01X685272Y-892473D01*
G01X683000Y-893382D01*
G01X680954Y-894518D01*
G01X679136Y-895654D01*
G01X677772Y-896791D01*
G01X675045Y-899518D01*
G01X673681Y-901564D01*
G01X672772Y-903155D01*
G01X672091Y-904745D01*
G01X671636Y-906336D01*
G01X671409Y-909064D01*
G01X671636Y-912700D01*
G01X672318Y-915655D01*
G01X673227Y-917700D01*
G01X674136Y-919064D01*
G01X675272Y-920200D01*
G01X677091Y-921336D01*
G01X679136Y-922245D01*
G01X680727Y-922700D01*
G01X684818Y-923155D01*
G01X692545Y-923609D01*
G01X703909Y-924064D01*
G01X706181Y-924291D01*
G01X708909Y-924518D01*
G01X711636Y-924973D01*
G01X713909Y-925427D01*
G01X715727Y-925882D01*
G01X717999Y-926564D01*
G01X720272Y-927473D01*
G01X722090Y-928382D01*
G01X723909Y-929518D01*
G01X725500Y-930655D01*
G01X726636Y-931564D01*
G01X728227Y-933155D01*
G01X730045Y-935427D01*
G01X731636Y-937700D01*
G01X732772Y-939518D01*
G01X733681Y-941336D01*
G01X734591Y-943836D01*
G01X735272Y-945882D01*
G01X735727Y-949064D01*
G01X735954Y-951109D01*
G01X735500Y-955200D01*
G01X735045Y-958154D01*
G01X734363Y-960427D01*
G01X733909Y-962245D01*
G01X733227Y-964064D01*
G01X731409Y-967700D01*
G01X730272Y-969518D01*
G01X729136Y-971109D01*
G01X726409Y-974518D01*
G01X724818Y-976109D01*
G01X722545Y-977927D01*
G01X720727Y-979291D01*
G01X718909Y-980427D01*
G01X716863Y-981791D01*
G01X714818Y-982927D01*
G01X713000Y-983836D01*
G01X711409Y-984518D01*
G01X707772Y-985882D01*
G01X705500Y-986564D01*
G01X703454Y-987246D01*
G01X698454Y-988155D01*
G01X694818Y-988609D01*
G01X686409Y-988836D01*
G37*
G36*
G01X597772Y-988836D02*
G01X566863Y-988382D01*
G01X565272Y-987473D01*
G01X563909Y-986564D01*
G01X562772Y-985200D01*
G01X562090Y-983609D01*
G01X561863Y-982018D01*
G01X562090Y-979973D01*
G01X562772Y-977700D01*
G01X564363Y-975655D01*
G01X566409Y-974518D01*
G01X568000Y-974064D01*
G01X578000Y-973836D01*
G01X587318Y-973836D01*
G01X587318Y-970427D01*
G01X587545Y-966336D01*
G01X588000Y-948609D01*
G01X588454Y-931336D01*
G01X589363Y-895882D01*
G01X589591Y-893382D01*
G01X589591Y-891564D01*
G01X580500Y-891564D01*
G01X569818Y-891336D01*
G01X567318Y-890654D01*
G01X565272Y-889518D01*
G01X563682Y-887700D01*
G01X563000Y-885882D01*
G01X562772Y-884291D01*
G01X563227Y-881791D01*
G01X564136Y-879745D01*
G01X565045Y-878609D01*
G01X566636Y-877473D01*
G01X568454Y-876791D01*
G01X598454Y-876564D01*
G01X629363Y-877018D01*
G01X632091Y-878155D01*
G01X633681Y-879745D01*
G01X634590Y-881564D01*
G01X635045Y-883836D01*
G01X634818Y-885882D01*
G01X634136Y-887700D01*
G01X632545Y-889745D01*
G01X630500Y-890882D01*
G01X628909Y-891336D01*
G01X615954Y-891564D01*
G01X603681Y-891564D01*
G01X603681Y-895200D01*
G01X603454Y-899518D01*
G01X602090Y-954064D01*
G01X601863Y-962700D01*
G01X601636Y-972245D01*
G01X601409Y-973836D01*
G01X613909Y-973836D01*
G01X628000Y-974291D01*
G01X630500Y-975200D01*
G01X632091Y-976336D01*
G01X633227Y-977927D01*
G01X633909Y-979518D01*
G01X634136Y-981336D01*
G01X633681Y-983836D01*
G01X632772Y-985655D01*
G01X631863Y-986791D01*
G01X630272Y-987927D01*
G01X628454Y-988609D01*
G01X597772Y-988836D01*
G37*
G36*
G01X-335182Y-1021564D02*
G01X-337000Y-1021336D01*
G01X-338137Y-1020882D01*
G01X-338818Y-1019916D01*
G01X-339046Y-1017473D01*
G01X-338875Y-1015030D01*
G01X-338364Y-1014064D01*
G01X-337852Y-1013666D01*
G01X-337682Y-1012927D01*
G01X-337227Y-1011791D01*
G01X-336546Y-1011109D01*
G01X-335636Y-1010427D01*
G01X-335125Y-1009973D01*
G01X-334955Y-1009064D01*
G01X-334273Y-1006791D01*
G01X-333137Y-1004745D01*
G01X-331318Y-1002018D01*
G01X-330182Y-1000882D01*
G01X-329670Y-1000427D01*
G01X-329500Y-999518D01*
G01X-329046Y-997927D01*
G01X-328364Y-997018D01*
G01X-326943Y-995939D01*
G01X-326773Y-995200D01*
G01X-326318Y-993836D01*
G01X-325636Y-992700D01*
G01X-323364Y-989973D01*
G01X-322909Y-988155D01*
G01X-322000Y-986791D01*
G01X-321489Y-986393D01*
G01X-321318Y-985655D01*
G01X-319955Y-982927D01*
G01X-319500Y-981791D01*
G01X-318818Y-980882D01*
G01X-317909Y-979973D01*
G01X-317398Y-979518D01*
G01X-317057Y-977700D01*
G01X-316546Y-977245D01*
G01X-315636Y-976109D01*
G01X-314955Y-974745D01*
G01X-314046Y-973609D01*
G01X-313364Y-972018D01*
G01X-312682Y-970655D01*
G01X-312000Y-969745D01*
G01X-311318Y-968609D01*
G01X-310636Y-967245D01*
G01X-309955Y-966336D01*
G01X-309273Y-965200D01*
G01X-307909Y-962473D01*
G01X-307000Y-961109D01*
G01X-306091Y-960200D01*
G01X-305182Y-959518D01*
G01X-304671Y-959064D01*
G01X-304500Y-958154D01*
G01X-303818Y-956336D01*
G01X-302909Y-954973D01*
G01X-302455Y-953609D01*
G01X-301546Y-952473D01*
G01X-300864Y-951109D01*
G01X-300409Y-949973D01*
G01X-299727Y-949064D01*
G01X-305977Y-948552D01*
G01X-325182Y-948382D01*
G01X-351545Y-948154D01*
G01X-352682Y-947700D01*
G01X-353137Y-945200D01*
G01X-352909Y-942245D01*
G01X-352227Y-941109D01*
G01X-351318Y-940427D01*
G01X-349273Y-938382D01*
G01X-348137Y-937700D01*
G01X-347227Y-936791D01*
G01X-344500Y-934973D01*
G01X-343591Y-933837D01*
G01X-342455Y-932927D01*
G01X-341318Y-931791D01*
G01X-340182Y-930882D01*
G01X-339273Y-929973D01*
G01X-337909Y-929064D01*
G01X-336546Y-928382D01*
G01X-334500Y-926336D01*
G01X-333591Y-925200D01*
G01X-332455Y-924064D01*
G01X-331091Y-922927D01*
G01X-329727Y-922018D01*
G01X-328137Y-921109D01*
G01X-327000Y-920200D01*
G01X-325636Y-918836D01*
G01X-323818Y-917473D01*
G01X-322909Y-916564D01*
G01X-321773Y-915655D01*
G01X-320864Y-914518D01*
G01X-319727Y-913609D01*
G01X-318818Y-912927D01*
G01X-317909Y-912018D01*
G01X-316318Y-910882D01*
G01X-314955Y-909973D01*
G01X-313875Y-908552D01*
G01X-313137Y-908382D01*
G01X-312000Y-907927D01*
G01X-310409Y-906336D01*
G01X-309500Y-905200D01*
G01X-308364Y-904064D01*
G01X-307000Y-902927D01*
G01X-305864Y-902018D01*
G01X-304500Y-901336D01*
G01X-302909Y-900427D01*
G01X-301773Y-899291D01*
G01X-301091Y-898382D01*
G01X-300182Y-897700D01*
G01X-299273Y-896791D01*
G01X-297909Y-895882D01*
G01X-296546Y-895200D01*
G01X-292000Y-890654D01*
G01X-290182Y-889518D01*
G01X-288591Y-888836D01*
G01X-287682Y-887927D01*
G01X-287000Y-887018D01*
G01X-284273Y-884291D01*
G01X-281546Y-882246D01*
G01X-280182Y-881109D01*
G01X-278591Y-879973D01*
G01X-277455Y-879291D01*
G01X-276546Y-878155D01*
G01X-274500Y-876109D01*
G01X-273364Y-875427D01*
G01X-270637Y-873382D01*
G01X-268591Y-871336D01*
G01X-267455Y-870427D01*
G01X-266546Y-869518D01*
G01X-265409Y-868609D01*
G01X-263818Y-868155D01*
G01X-262682Y-867018D01*
G01X-261546Y-865655D01*
G01X-260182Y-864518D01*
G01X-259046Y-863382D01*
G01X-257682Y-862246D01*
G01X-256091Y-861337D01*
G01X-255182Y-860655D01*
G01X-254273Y-859745D01*
G01X-253136Y-859064D01*
G01X-251091Y-857018D01*
G01X-248818Y-855655D01*
G01X-248136Y-854973D01*
G01X-247455Y-854064D01*
G01X-246546Y-853155D01*
G01X-245637Y-852473D01*
G01X-243364Y-850655D01*
G01X-241318Y-850200D01*
G01X-238364Y-850427D01*
G01X-237227Y-850655D01*
G01X-237227Y-853836D01*
G01X-237398Y-856280D01*
G01X-237909Y-857246D01*
G01X-238420Y-857643D01*
G01X-238762Y-859121D01*
G01X-239273Y-859518D01*
G01X-240182Y-860882D01*
G01X-240864Y-862473D01*
G01X-241546Y-863382D01*
G01X-242227Y-864064D01*
G01X-242909Y-864973D01*
G01X-243818Y-867700D01*
G01X-245182Y-869973D01*
G01X-246091Y-870882D01*
G01X-246602Y-871280D01*
G01X-246773Y-872018D01*
G01X-247227Y-873382D01*
G01X-247909Y-874291D01*
G01X-249046Y-874973D01*
G01X-249728Y-875427D01*
G01X-249955Y-876336D01*
G01X-250409Y-877700D01*
G01X-251091Y-878836D01*
G01X-251773Y-880200D01*
G01X-252682Y-881336D01*
G01X-254046Y-883609D01*
G01X-254728Y-884973D01*
G01X-255637Y-886109D01*
G01X-256318Y-887473D01*
G01X-256489Y-888211D01*
G01X-257000Y-888609D01*
G01X-257909Y-889973D01*
G01X-258591Y-891336D01*
G01X-259273Y-892018D01*
G01X-260182Y-892700D01*
G01X-260693Y-893155D01*
G01X-260864Y-894064D01*
G01X-261318Y-895654D01*
G01X-262227Y-896791D01*
G01X-262909Y-898155D01*
G01X-263591Y-899291D01*
G01X-264955Y-901109D01*
G01X-265864Y-902700D01*
G01X-267000Y-904064D01*
G01X-267512Y-904461D01*
G01X-267682Y-905200D01*
G01X-268136Y-906564D01*
G01X-268818Y-907473D01*
G01X-270239Y-908552D01*
G01X-270409Y-909291D01*
G01X-271091Y-910655D01*
G01X-272909Y-913836D01*
G01X-273818Y-915200D01*
G01X-274727Y-917018D01*
G01X-275637Y-918609D01*
G01X-269500Y-919121D01*
G01X-231659Y-919461D01*
G01X-225182Y-919973D01*
G01X-224273Y-920882D01*
G01X-223705Y-921393D01*
G01X-223364Y-922473D01*
G01X-223364Y-924518D01*
G01X-223818Y-925882D01*
G01X-224727Y-927700D01*
G01X-226091Y-929291D01*
G01X-227227Y-930200D01*
G01X-230409Y-933382D01*
G01X-231318Y-934064D01*
G01X-233364Y-936109D01*
G01X-234727Y-937245D01*
G01X-236546Y-938609D01*
G01X-237909Y-939973D01*
G01X-239273Y-940882D01*
G01X-240182Y-941564D01*
G01X-245409Y-946791D01*
G01X-247000Y-948154D01*
G01X-250409Y-950427D01*
G01X-253136Y-953154D01*
G01X-253818Y-954064D01*
G01X-254728Y-954973D01*
G01X-259273Y-958382D01*
G01X-260182Y-959291D01*
G01X-261318Y-959973D01*
G01X-262227Y-960882D01*
G01X-262909Y-962018D01*
G01X-265182Y-963836D01*
G01X-267455Y-965200D01*
G01X-271091Y-968836D01*
G01X-272455Y-969973D01*
G01X-273818Y-970882D01*
G01X-274727Y-971791D01*
G01X-275864Y-972700D01*
G01X-277000Y-973382D01*
G01X-280637Y-977018D01*
G01X-282909Y-978836D01*
G01X-284045Y-979973D01*
G01X-285409Y-980655D01*
G01X-286148Y-980825D01*
G01X-287227Y-982245D01*
G01X-289955Y-984973D01*
G01X-291773Y-986336D01*
G01X-292682Y-987246D01*
G01X-293591Y-988382D01*
G01X-295182Y-989518D01*
G01X-297000Y-990882D01*
G01X-298136Y-991791D01*
G01X-298818Y-992473D01*
G01X-300637Y-993836D01*
G01X-302682Y-995882D01*
G01X-303364Y-996791D01*
G01X-304500Y-997700D01*
G01X-305637Y-998382D01*
G01X-306773Y-999291D01*
G01X-308136Y-1000427D01*
G01X-309273Y-1001336D01*
G01X-310182Y-1002018D01*
G01X-311773Y-1003609D01*
G01X-313137Y-1004291D01*
G01X-313932Y-1004518D01*
G01X-315636Y-1006564D01*
G01X-316546Y-1007700D01*
G01X-317455Y-1008609D01*
G01X-318364Y-1009291D01*
G01X-321091Y-1011564D01*
G01X-322000Y-1012246D01*
G01X-323364Y-1012700D01*
G01X-324500Y-1013609D01*
G01X-325864Y-1015200D01*
G01X-327228Y-1016564D01*
G01X-327909Y-1017473D01*
G01X-329273Y-1018609D01*
G01X-331318Y-1019745D01*
G01X-332909Y-1020882D01*
G01X-333818Y-1021393D01*
G01X-335182Y-1021564D01*
G37*
G36*
G01X-30182Y-989745D02*
G01X-32682Y-989291D01*
G01X-34273Y-988382D01*
G01X-35864Y-987246D01*
G01X-37000Y-985655D01*
G01X-38137Y-983609D01*
G01X-39046Y-981109D01*
G01X-39727Y-979064D01*
G01X-40182Y-976791D01*
G01X-40637Y-974064D01*
G01X-43364Y-960427D01*
G01X-43818Y-957700D01*
G01X-46546Y-944064D01*
G01X-47000Y-941336D01*
G01X-49273Y-929973D01*
G01X-49727Y-927245D01*
G01X-52000Y-915882D01*
G01X-52228Y-914291D01*
G01X-52682Y-913155D01*
G01X-53137Y-913268D01*
G01X-53591Y-914064D01*
G01X-54500Y-916564D01*
G01X-55409Y-919291D01*
G01X-57228Y-924291D01*
G01X-61773Y-937927D01*
G01X-62682Y-940200D01*
G01X-67455Y-954518D01*
G01X-68818Y-958154D01*
G01X-73591Y-972473D01*
G01X-74500Y-974745D01*
G01X-75409Y-977245D01*
G01X-76318Y-979291D01*
G01X-77228Y-981109D01*
G01X-79046Y-983836D01*
G01X-80182Y-985200D01*
G01X-81773Y-986336D01*
G01X-84500Y-987018D01*
G01X-87682Y-986564D01*
G01X-89500Y-985427D01*
G01X-90637Y-984291D01*
G01X-91773Y-982927D01*
G01X-92682Y-981336D01*
G01X-93591Y-979291D01*
G01X-95182Y-974518D01*
G01X-95637Y-972473D01*
G01X-96318Y-969518D01*
G01X-97000Y-967245D01*
G01X-97455Y-965200D01*
G01X-98137Y-962245D01*
G01X-98818Y-959973D01*
G01X-99273Y-957927D01*
G01X-99955Y-954973D01*
G01X-100637Y-952700D01*
G01X-101091Y-950655D01*
G01X-101773Y-947700D01*
G01X-102455Y-945427D01*
G01X-102909Y-943382D01*
G01X-103591Y-940427D01*
G01X-104273Y-938155D01*
G01X-104728Y-936109D01*
G01X-105409Y-933155D01*
G01X-106091Y-930882D01*
G01X-106546Y-928837D01*
G01X-107227Y-925882D01*
G01X-107909Y-923609D01*
G01X-108364Y-921564D01*
G01X-109046Y-918609D01*
G01X-109728Y-916336D01*
G01X-109955Y-914746D01*
G01X-110068Y-914121D01*
G01X-110409Y-914064D01*
G01X-111318Y-915882D01*
G01X-112455Y-920427D01*
G01X-115182Y-932700D01*
G01X-115637Y-934973D01*
G01X-116318Y-938155D01*
G01X-117455Y-942700D01*
G01X-119273Y-950882D01*
G01X-119728Y-953154D01*
G01X-120409Y-956336D01*
G01X-121546Y-960882D01*
G01X-123364Y-969064D01*
G01X-123818Y-971336D01*
G01X-124500Y-974518D01*
G01X-125637Y-979064D01*
G01X-126091Y-981336D01*
G01X-126773Y-983836D01*
G01X-127455Y-985655D01*
G01X-128364Y-987018D01*
G01X-129500Y-988155D01*
G01X-130864Y-989064D01*
G01X-133364Y-989064D01*
G01X-135637Y-988382D01*
G01X-137000Y-987700D01*
G01X-138591Y-986336D01*
G01X-139728Y-984518D01*
G01X-140409Y-982927D01*
G01X-140864Y-979745D01*
G01X-140637Y-975427D01*
G01X-139955Y-971791D01*
G01X-139273Y-969518D01*
G01X-138818Y-967245D01*
G01X-138136Y-964064D01*
G01X-137455Y-961791D01*
G01X-136091Y-955655D01*
G01X-135409Y-952700D01*
G01X-134273Y-948154D01*
G01X-133818Y-945882D01*
G01X-133136Y-942700D01*
G01X-132455Y-940427D01*
G01X-131091Y-934291D01*
G01X-130409Y-931336D01*
G01X-129273Y-926791D01*
G01X-128818Y-924518D01*
G01X-128136Y-921336D01*
G01X-127455Y-919064D01*
G01X-127000Y-916791D01*
G01X-126318Y-913609D01*
G01X-125637Y-911336D01*
G01X-124273Y-905200D01*
G01X-123591Y-902246D01*
G01X-122455Y-897700D01*
G01X-122000Y-895427D01*
G01X-121318Y-892246D01*
G01X-120637Y-889973D01*
G01X-120182Y-887927D01*
G01X-119500Y-885200D01*
G01X-118591Y-882700D01*
G01X-117000Y-879518D01*
G01X-115637Y-877927D01*
G01X-113591Y-876564D01*
G01X-112000Y-875882D01*
G01X-110409Y-875654D01*
G01X-108818Y-875882D01*
G01X-107000Y-876336D01*
G01X-105409Y-877246D01*
G01X-104273Y-878382D01*
G01X-103364Y-879745D01*
G01X-102682Y-881564D01*
G01X-102000Y-883836D01*
G01X-101318Y-886791D01*
G01X-100637Y-889064D01*
G01X-100182Y-891336D01*
G01X-99500Y-894518D01*
G01X-98818Y-896791D01*
G01X-97455Y-902927D01*
G01X-96773Y-905882D01*
G01X-96091Y-908155D01*
G01X-95637Y-910427D01*
G01X-94955Y-913609D01*
G01X-94273Y-915882D01*
G01X-93818Y-918155D01*
G01X-93137Y-921336D01*
G01X-92455Y-923609D01*
G01X-91091Y-929746D01*
G01X-90409Y-932700D01*
G01X-89727Y-934973D01*
G01X-89273Y-937245D01*
G01X-88591Y-940427D01*
G01X-87909Y-942700D01*
G01X-86546Y-948836D01*
G01X-85864Y-951791D01*
G01X-85182Y-954064D01*
G01X-84955Y-955882D01*
G01X-84784Y-956677D01*
G01X-84273Y-956791D01*
G01X-83705Y-956280D01*
G01X-83364Y-955200D01*
G01X-81318Y-948382D01*
G01X-80636Y-946336D01*
G01X-79955Y-943836D01*
G01X-78364Y-939064D01*
G01X-77909Y-937245D01*
G01X-77228Y-935200D01*
G01X-75864Y-930655D01*
G01X-75182Y-928609D01*
G01X-74500Y-926109D01*
G01X-67228Y-902473D01*
G01X-66546Y-900427D01*
G01X-66091Y-898609D01*
G01X-65409Y-896564D01*
G01X-62682Y-887473D01*
G01X-62000Y-885427D01*
G01X-61318Y-883609D01*
G01X-60636Y-882018D01*
G01X-59727Y-880200D01*
G01X-58364Y-878155D01*
G01X-56546Y-876109D01*
G01X-54046Y-874745D01*
G01X-51091Y-874518D01*
G01X-48818Y-875200D01*
G01X-47228Y-876109D01*
G01X-45637Y-877700D01*
G01X-44500Y-879518D01*
G01X-43591Y-881564D01*
G01X-42682Y-884518D01*
G01X-42000Y-886791D01*
G01X-40182Y-895882D01*
G01X-39273Y-899973D01*
G01X-38364Y-904518D01*
G01X-37909Y-907018D01*
G01X-37228Y-910427D01*
G01X-36546Y-913155D01*
G01X-34727Y-922245D01*
G01X-34273Y-924064D01*
G01X-32455Y-933155D01*
G01X-32000Y-935655D01*
G01X-31318Y-939064D01*
G01X-30637Y-941791D01*
G01X-28818Y-950882D01*
G01X-28364Y-952700D01*
G01X-25637Y-966336D01*
G01X-24727Y-970427D01*
G01X-23818Y-974973D01*
G01X-22909Y-979973D01*
G01X-22682Y-982245D01*
G01X-23137Y-984745D01*
G01X-24046Y-986791D01*
G01X-25409Y-988382D01*
G01X-27228Y-989291D01*
G01X-30182Y-989745D01*
G37*
G36*
G01X45Y-989291D02*
G01X-3136Y-988609D01*
G01X-5409Y-986791D01*
G01X-6546Y-984291D01*
G01X-6546Y-981791D01*
G01X-6091Y-979973D01*
G01X-5637Y-977927D01*
G01X-4955Y-975655D01*
G01X-3591Y-972018D01*
G01X-2909Y-969973D01*
G01X-1546Y-966336D01*
G01X-864Y-964291D01*
G01X45Y-962018D01*
G01X954Y-959291D01*
G01X2773Y-954291D01*
G01X3682Y-951564D01*
G01X4591Y-949291D01*
G01X5954Y-945200D01*
G01X6864Y-942927D01*
G01X7773Y-940200D01*
G01X8682Y-937927D01*
G01X9969Y-934064D01*
G01X25727Y-934064D01*
G01X37773Y-934291D01*
G01X49591Y-934291D01*
G01X49363Y-933155D01*
G01X48000Y-929064D01*
G01X46636Y-925427D01*
G01X45954Y-923382D01*
G01X44591Y-919746D01*
G01X43909Y-917700D01*
G01X42545Y-914064D01*
G01X41863Y-912018D01*
G01X40500Y-908382D01*
G01X39818Y-906336D01*
G01X38454Y-902700D01*
G01X37773Y-901336D01*
G01X37318Y-901450D01*
G01X36863Y-902246D01*
G01X32318Y-914746D01*
G01X31409Y-917473D01*
G01X30500Y-919746D01*
G01X29818Y-921791D01*
G01X28454Y-925427D01*
G01X27773Y-927473D01*
G01X26863Y-929746D01*
G01X25954Y-932473D01*
G01X25954Y-932473D01*
G01X25727Y-934064D01*
G01X9969Y-934064D01*
G01X10045Y-933837D01*
G01X10954Y-931564D01*
G01X11863Y-928837D01*
G01X15500Y-918836D01*
G01X16409Y-916109D01*
G01X17318Y-913836D01*
G01X18682Y-909746D01*
G01X20045Y-906109D01*
G01X20727Y-904064D01*
G01X22091Y-900427D01*
G01X22773Y-898382D01*
G01X24136Y-894745D01*
G01X24818Y-892700D01*
G01X26181Y-889064D01*
G01X26863Y-887018D01*
G01X27545Y-885200D01*
G01X28227Y-883609D01*
G01X30727Y-878609D01*
G01X31636Y-877473D01*
G01X32773Y-876336D01*
G01X34363Y-874973D01*
G01X36181Y-874064D01*
G01X38227Y-874064D01*
G01X40272Y-874745D01*
G01X42091Y-875882D01*
G01X43454Y-877246D01*
G01X44363Y-878382D01*
G01X45500Y-879973D01*
G01X47318Y-883609D01*
G01X48227Y-885882D01*
G01X49136Y-888382D01*
G01X50045Y-891109D01*
G01X50954Y-893382D01*
G01X52318Y-897473D01*
G01X53227Y-899745D01*
G01X54136Y-902473D01*
G01X55045Y-904745D01*
G01X56409Y-908836D01*
G01X57318Y-911109D01*
G01X58227Y-913836D01*
G01X59136Y-916109D01*
G01X60500Y-920200D01*
G01X61863Y-923837D01*
G01X62545Y-925882D01*
G01X63909Y-929518D01*
G01X64591Y-931564D01*
G01X65500Y-933837D01*
G01X66409Y-936564D01*
G01X70045Y-946564D01*
G01X70954Y-949291D01*
G01X71863Y-951564D01*
G01X73227Y-955655D01*
G01X74136Y-957927D01*
G01X75045Y-960655D01*
G01X75954Y-962927D01*
G01X77318Y-967018D01*
G01X78227Y-969291D01*
G01X79136Y-972018D01*
G01X80045Y-974291D01*
G01X81409Y-978382D01*
G01X81863Y-982018D01*
G01X81693Y-984348D01*
G01X81182Y-985882D01*
G01X79591Y-987700D01*
G01X77772Y-988836D01*
G01X75727Y-989291D01*
G01X73909Y-989064D01*
G01X72091Y-988382D01*
G01X70500Y-987246D01*
G01X69364Y-986109D01*
G01X68227Y-984518D01*
G01X67318Y-982473D01*
G01X64591Y-975200D01*
G01X63909Y-973155D01*
G01X62545Y-969518D01*
G01X61863Y-967473D01*
G01X60954Y-965200D01*
G01X60045Y-962473D01*
G01X59136Y-960200D01*
G01X57772Y-956109D01*
G01X56409Y-952473D01*
G01X55727Y-950427D01*
G01X55500Y-949291D01*
G01X38000Y-949291D01*
G01X20045Y-949746D01*
G01X19136Y-951336D01*
G01X18227Y-953836D01*
G01X17318Y-956564D01*
G01X16409Y-958836D01*
G01X15727Y-960882D01*
G01X14363Y-964518D01*
G01X13682Y-966564D01*
G01X12318Y-970200D01*
G01X11636Y-972245D01*
G01X10272Y-975882D01*
G01X9591Y-977927D01*
G01X8227Y-981564D01*
G01X7318Y-983609D01*
G01X6409Y-985200D01*
G01X5727Y-986336D01*
G01X4818Y-987473D01*
G01X3000Y-988609D01*
G01X45Y-989291D01*
G37*
G54D11*
G01X494700Y-63292D02*
G01X414690Y-63292D01*
G01X414690Y-76500D02*
G01X414690Y-63292D01*
G01X414690Y-63292D02*
G01X414690Y-49830D01*
G01X494700Y-76500D02*
G01X494700Y-63292D01*
G01X494700Y-63292D02*
G01X494700Y-49830D01*
G01X494700Y16718D02*
G01X481492Y3510D01*
G01X441360Y-9952D02*
G01X441360Y3510D01*
G01X441360Y3510D02*
G01X441360Y16718D01*
G01X481492Y3510D02*
G01X441360Y3510D01*
G01X441360Y3510D02*
G01X428152Y3510D01*
G01X441360Y56596D02*
G01X428152Y70058D01*
G01X428152Y70058D02*
G01X401482Y70058D01*
G01X494700Y109936D02*
G01X494700Y150068D01*
G01X494700Y150068D02*
G01X481238Y163276D01*
G01X468030Y150068D02*
G01X481238Y163276D01*
G01X468030Y123398D02*
G01X468030Y150068D01*
G01X454568Y109936D02*
G01X468030Y123398D01*
G01X454568Y109936D02*
G01X441360Y123398D01*
G01X441360Y123398D02*
G01X441360Y163276D01*
G01X441360Y309834D02*
G01X441360Y269956D01*
G01X441360Y269956D02*
G01X494700Y269956D01*
G01X454568Y323296D02*
G01X441360Y309834D01*
G01X494700Y323296D02*
G01X454568Y323296D01*
G01X454568Y349966D02*
G01X441360Y363174D01*
G01X481238Y349966D02*
G01X454568Y349966D01*
G01X481238Y349966D02*
G01X494700Y363174D01*
G01X494700Y363174D02*
G01X494700Y389844D01*
G01X494700Y389844D02*
G01X481238Y403306D01*
G01X481238Y403306D02*
G01X454568Y403306D01*
G01X441360Y389844D02*
G01X454568Y403306D01*
G01X441360Y363174D02*
G01X441360Y389844D01*
G01X494700Y456646D02*
G01X481492Y443184D01*
G01X441360Y429976D02*
G01X441360Y443184D01*
G01X441360Y443184D02*
G01X441360Y456646D01*
G01X481492Y443184D02*
G01X441360Y443184D01*
G01X441360Y443184D02*
G01X428152Y443184D01*
G01X468030Y589996D02*
G01X468030Y629874D01*
G01X481238Y576534D02*
G01X468030Y589996D01*
G01X481238Y576534D02*
G01X494700Y589996D01*
G01X494700Y589996D02*
G01X494700Y629874D01*
G01X441360Y616666D02*
G01X454568Y629874D01*
G01X441360Y589996D02*
G01X441360Y616666D01*
G01X494700Y629874D02*
G01X468030Y629874D01*
G01X468030Y629874D02*
G01X454568Y629874D01*
G01X441360Y736554D02*
G01X441360Y776432D01*
G01X441360Y776432D02*
G01X454822Y789894D01*
G01X481238Y789894D02*
G01X454822Y789894D01*
G01X494700Y776432D02*
G01X481238Y789894D01*
G01X494700Y736554D02*
G01X494700Y776432D01*
G01X494700Y736554D02*
G01X441360Y736554D01*
G01X441360Y736554D02*
G01X414690Y736554D01*
G01X494700Y869904D02*
G01X441360Y869904D01*
G01X494700Y829772D02*
G01X494700Y869904D01*
G01X481238Y816564D02*
G01X494700Y829772D01*
G01X481238Y816564D02*
G01X441360Y816564D01*
G01X521370Y923244D02*
G01X521370Y936452D01*
G01X521370Y936452D02*
G01X507908Y949914D01*
G01X441360Y909782D02*
G01X441360Y949914D01*
G01X454822Y896574D02*
G01X441360Y909782D01*
G01X481492Y896574D02*
G01X454822Y896574D01*
G01X481492Y896574D02*
G01X494700Y909782D01*
G01X494700Y909782D02*
G01X494700Y949914D01*
G01X507908Y949914D02*
G01X494700Y949914D01*
G01X494700Y949914D02*
G01X441360Y949914D01*
G01X521370Y976584D02*
G01X494700Y1003254D01*
G01X494700Y1003254D02*
G01X481492Y1003254D01*
G01X481492Y989792D02*
G01X481492Y1003254D01*
G01X494700Y989792D02*
G01X481492Y989792D01*
G01X494700Y989792D02*
G01X494700Y1003254D01*
G01X494700Y1149812D02*
G01X441360Y1149812D01*
G01X441360Y1136604D02*
G01X441360Y1149812D01*
G01X414690Y1149812D02*
G01X414690Y1149812D01*
G01X494700Y1136604D02*
G01X494700Y1149812D01*
G01X494700Y1149812D02*
G01X494700Y1163274D01*
G01X494700Y1229822D02*
G01X481492Y1216614D01*
G01X441360Y1203152D02*
G01X441360Y1216614D01*
G01X441360Y1216614D02*
G01X441360Y1229822D01*
G01X481492Y1216614D02*
G01X441360Y1216614D01*
G01X441360Y1216614D02*
G01X428152Y1216614D01*
G01X441360Y1269700D02*
G01X428152Y1283162D01*
G01X428152Y1283162D02*
G01X401482Y1283162D01*
G01X494700Y1323040D02*
G01X494700Y1363172D01*
G01X494700Y1363172D02*
G01X481238Y1376380D01*
G01X468030Y1363172D02*
G01X481238Y1376380D01*
G01X468030Y1336502D02*
G01X468030Y1363172D01*
G01X454568Y1323040D02*
G01X468030Y1336502D01*
G01X454568Y1323040D02*
G01X441360Y1336502D01*
G01X441360Y1336502D02*
G01X441360Y1376380D01*
G01X468030Y1496268D02*
G01X468030Y1536400D01*
G01X481238Y1483060D02*
G01X468030Y1496268D01*
G01X481238Y1483060D02*
G01X494700Y1496268D01*
G01X494700Y1496268D02*
G01X494700Y1536400D01*
G01X441360Y1522938D02*
G01X454568Y1536400D01*
G01X441360Y1496268D02*
G01X441360Y1522938D01*
G01X494700Y1536400D02*
G01X468030Y1536400D01*
G01X468030Y1536400D02*
G01X454568Y1536400D01*
G01X428152Y1656288D02*
G01X414690Y1669750D01*
G01X454822Y1643080D02*
G01X454822Y1656288D01*
G01X454822Y1656288D02*
G01X454822Y1669750D01*
G01X494700Y1656288D02*
G01X454822Y1656288D01*
G01X454822Y1656288D02*
G01X428152Y1656288D01*
G01X494700Y1723090D02*
G01X494700Y1749760D01*
G01X481238Y1709628D02*
G01X494700Y1723090D01*
G01X454568Y1709628D02*
G01X441360Y1723090D01*
G01X441360Y1723090D02*
G01X441360Y1749760D01*
G01X441360Y1749760D02*
G01X454568Y1762968D01*
G01X468030Y1762968D02*
G01X454568Y1762968D01*
G01X468030Y1709628D02*
G01X468030Y1762968D01*
G01X481238Y1709628D02*
G01X468030Y1709628D01*
G01X468030Y1709628D02*
G01X454568Y1709628D01*
G01X468030Y1802846D02*
G01X468030Y1842978D01*
G01X481238Y1789638D02*
G01X468030Y1802846D01*
G01X481238Y1789638D02*
G01X494700Y1802846D01*
G01X494700Y1802846D02*
G01X494700Y1842978D01*
G01X441360Y1829516D02*
G01X454568Y1842978D01*
G01X441360Y1802846D02*
G01X441360Y1829516D01*
G01X494700Y1842978D02*
G01X468030Y1842978D01*
G01X468030Y1842978D02*
G01X454568Y1842978D01*
G01X494700Y1896318D02*
G01X481492Y1882856D01*
G01X441360Y1869648D02*
G01X441360Y1882856D01*
G01X441360Y1882856D02*
G01X441360Y1896318D01*
G01X481492Y1882856D02*
G01X441360Y1882856D01*
G01X441360Y1882856D02*
G01X428152Y1882856D01*
G01X494700Y1989536D02*
G01X441360Y1989536D01*
G01X494700Y1949658D02*
G01X494700Y1989536D01*
G01X481238Y1936196D02*
G01X494700Y1949658D01*
G01X481238Y1936196D02*
G01X441360Y1936196D01*
G01X468030Y2016206D02*
G01X441360Y2042876D01*
G01X441360Y2042876D02*
G01X441360Y2056084D01*
G01X494700Y2016206D02*
G01X468030Y2016206D01*
G01X468030Y2016206D02*
G01X441360Y2016206D01*
G01X494700Y2109424D02*
G01X494700Y2136094D01*
G01X481238Y2095962D02*
G01X494700Y2109424D01*
G01X454568Y2095962D02*
G01X441360Y2109424D01*
G01X441360Y2109424D02*
G01X441360Y2136094D01*
G01X441360Y2136094D02*
G01X454568Y2149302D01*
G01X468030Y2149302D02*
G01X454568Y2149302D01*
G01X468030Y2095962D02*
G01X468030Y2149302D01*
G01X481238Y2095962D02*
G01X468030Y2095962D01*
G01X468030Y2095962D02*
G01X454568Y2095962D01*
G04 Text End*

G04 PolygonModel Start*
G54D12*
G01X-338019Y-2220957D02*
G01X-418016Y-2220957D01*
G01X-281974Y-2221003D02*
G01X-201976Y-2221003D01*
G01X-338019Y-2078989D02*
G01X-418016Y-2078989D01*
G01X-281974Y-2079037D02*
G01X-201976Y-2079037D01*
G01X-448991Y-2189975D02*
G01X-448991Y-2109970D01*
G01X-170998Y-2110023D02*
G01X-170998Y-2190025D01*
G01X-201981Y-2079037D02*
G02X-170998Y-2110023I0J-30983D01*
G01X-170998Y-2190020D02*
G02X-201981Y-2221003I-30983J0D01*
G01X-418011Y-2220957D02*
G02X-448991Y-2189975I3J30983D01*
G01X-448991Y-2109977D02*
G02X-418011Y-2078989I30983J5D01*
G01X-338019Y-2040957D02*
G01X-418016Y-2040957D01*
G01X-281974Y-2041003D02*
G01X-201976Y-2041003D01*
G01X-338019Y-1898989D02*
G01X-418016Y-1898989D01*
G01X-281974Y-1899037D02*
G01X-201976Y-1899037D01*
G01X-448991Y-2009974D02*
G01X-448991Y-1929969D01*
G01X-170998Y-1930023D02*
G01X-170998Y-2010025D01*
G01X-201981Y-1899037D02*
G02X-170998Y-1930023I0J-30983D01*
G01X-170998Y-2010020D02*
G02X-201981Y-2041003I-30983J0D01*
G01X-418011Y-2040957D02*
G02X-448991Y-2009974I3J30983D01*
G01X-448991Y-1929977D02*
G02X-418011Y-1898989I30983J5D01*
G01X338019Y-2059043D02*
G01X418016Y-2059043D01*
G01X281974Y-2058997D02*
G01X201976Y-2058997D01*
G01X338019Y-2201011D02*
G01X418016Y-2201011D01*
G01X281974Y-2200963D02*
G01X201976Y-2200963D01*
G01X448991Y-2090026D02*
G01X448991Y-2170030D01*
G01X170998Y-2169977D02*
G01X170998Y-2089975D01*
G01X201981Y-2200963D02*
G02X170998Y-2169977I0J30983D01*
G01X170998Y-2089980D02*
G02X201981Y-2058997I30983J0D01*
G01X418011Y-2059043D02*
G02X448991Y-2090026I-3J-30983D01*
G01X448991Y-2170023D02*
G02X418011Y-2201011I-30983J-5D01*
G01X338019Y-1879042D02*
G01X418016Y-1879042D01*
G01X281974Y-1878997D02*
G01X201976Y-1878997D01*
G01X338019Y-2021011D02*
G01X418016Y-2021011D01*
G01X281974Y-2020962D02*
G01X201976Y-2020962D01*
G01X448991Y-1910025D02*
G01X448991Y-1990030D01*
G01X170998Y-1989977D02*
G01X170998Y-1909975D01*
G01X201981Y-2020962D02*
G02X170998Y-1989977I0J30983D01*
G01X170998Y-1909980D02*
G02X201981Y-1878997I30983J0D01*
G01X418011Y-1879042D02*
G02X448991Y-1910025I-3J-30983D01*
G01X448991Y-1990023D02*
G02X418011Y-2021011I-30983J-5D01*
G01X669044Y2658028D02*
G01X669044Y2738025D01*
G01X668998Y2601983D02*
G01X668998Y2521985D01*
G01X811012Y2658028D02*
G01X811012Y2738025D01*
G01X810964Y2601983D02*
G01X810964Y2521985D01*
G01X700027Y2769000D02*
G01X780032Y2769000D01*
G01X779978Y2491007D02*
G01X699976Y2491007D01*
G01X810964Y2521990D02*
G02X779978Y2491007I-30983J0D01*
G01X699981Y2491007D02*
G02X668998Y2521990I0J30983D01*
G01X669044Y2738020D02*
G02X700027Y2769000I30983J-3D01*
G01X780024Y2769000D02*
G02X811012Y2738020I5J-30983D01*
G01X469044Y2658028D02*
G01X469044Y2738025D01*
G01X468998Y2601983D02*
G01X468998Y2521985D01*
G01X611012Y2658028D02*
G01X611012Y2738025D01*
G01X610964Y2601983D02*
G01X610964Y2521985D01*
G01X500027Y2769000D02*
G01X580032Y2769000D01*
G01X579978Y2491007D02*
G01X499976Y2491007D01*
G01X610964Y2521990D02*
G02X579978Y2491007I-30983J0D01*
G01X499981Y2491007D02*
G02X468998Y2521990I0J30983D01*
G01X469044Y2738020D02*
G02X500027Y2769000I30983J-3D01*
G01X580024Y2769000D02*
G02X611012Y2738020I5J-30983D01*
G01X911981Y-70957D02*
G01X831984Y-70957D01*
G01X968026Y-71003D02*
G01X1048024Y-71003D01*
G01X911981Y71011D02*
G01X831984Y71011D01*
G01X968026Y70963D02*
G01X1048024Y70963D01*
G01X801009Y-39975D02*
G01X801009Y40030D01*
G01X1079001Y39977D02*
G01X1079001Y-40025D01*
G01X1048018Y70963D02*
G02X1079001Y39977I0J-30983D01*
G01X1079001Y-40020D02*
G02X1048018Y-71003I-30983J0D01*
G01X831989Y-70957D02*
G02X801009Y-39975I3J30983D01*
G01X801009Y40023D02*
G02X831989Y71011I30983J5D01*
G01X-1058019Y-750957D02*
G01X-1138016Y-750957D01*
G01X-1001974Y-751003D02*
G01X-921976Y-751003D01*
G01X-1058019Y-608989D02*
G01X-1138016Y-608989D01*
G01X-1001974Y-609037D02*
G01X-921976Y-609037D01*
G01X-1168991Y-719974D02*
G01X-1168991Y-639970D01*
G01X-890998Y-640023D02*
G01X-890998Y-720025D01*
G01X-921981Y-609037D02*
G02X-890998Y-640023I0J-30983D01*
G01X-890998Y-720020D02*
G02X-921981Y-751003I-30983J0D01*
G01X-1138011Y-750957D02*
G02X-1168991Y-719974I3J30983D01*
G01X-1168991Y-639977D02*
G02X-1138011Y-608989I30983J5D01*
G01X1058019Y760957D02*
G01X1138016Y760957D01*
G01X1001974Y761003D02*
G01X921976Y761003D01*
G01X1058019Y618989D02*
G01X1138016Y618989D01*
G01X1001974Y619037D02*
G01X921976Y619037D01*
G01X1168991Y729974D02*
G01X1168991Y649969D01*
G01X890998Y650023D02*
G01X890998Y730025D01*
G01X921981Y619037D02*
G02X890998Y650023I0J30983D01*
G01X890998Y730020D02*
G02X921981Y761003I30983J0D01*
G01X1138011Y760957D02*
G02X1168991Y729974I-3J-30983D01*
G01X1168991Y649977D02*
G02X1138011Y618989I-30983J-5D01*
G01X-1058019Y2259042D02*
G01X-1138016Y2259042D01*
G01X-1001974Y2258997D02*
G01X-921976Y2258997D01*
G01X-1058019Y2401011D02*
G01X-1138016Y2401011D01*
G01X-1001974Y2400962D02*
G01X-921976Y2400962D01*
G01X-1168991Y2290025D02*
G01X-1168991Y2370030D01*
G01X-890998Y2369977D02*
G01X-890998Y2289975D01*
G01X-921981Y2400962D02*
G02X-890998Y2369977I0J-30983D01*
G01X-890998Y2289980D02*
G02X-921981Y2258997I-30983J0D01*
G01X-1138011Y2259042D02*
G02X-1168991Y2290025I3J30983D01*
G01X-1168991Y2370023D02*
G02X-1138011Y2401011I30983J5D01*
G01X1058019Y-2219043D02*
G01X1138016Y-2219043D01*
G01X1001974Y-2218997D02*
G01X921976Y-2218997D01*
G01X1058019Y-2361011D02*
G01X1138016Y-2361011D01*
G01X1001974Y-2360963D02*
G01X921976Y-2360963D01*
G01X1168991Y-2250025D02*
G01X1168991Y-2330030D01*
G01X890998Y-2329977D02*
G01X890998Y-2249975D01*
G01X921981Y-2360963D02*
G02X890998Y-2329977I0J30983D01*
G01X890998Y-2249980D02*
G02X921981Y-2218997I30983J0D01*
G01X1138011Y-2219043D02*
G02X1168991Y-2250025I-3J-30983D01*
G01X1168991Y-2330023D02*
G02X1138011Y-2361011I-30983J-5D01*
G54D10*
G01X-1037379Y233940D02*
G01X-941491Y233940D01*
G01X-941491Y233940D02*
G01X-941491Y366060D01*
G01X-941491Y366060D02*
G01X-1037379Y366060D01*
G01X-1122621Y233940D02*
G01X-1218509Y233940D01*
G01X-1218509Y233940D02*
G01X-1218509Y366060D01*
G01X-1218509Y366060D02*
G01X-1122621Y366060D01*
G54D12*
G01X-225001Y-130000D02*
G01X-225001Y-50000D01*
G01X-225001Y130000D02*
G01X-225001Y50000D01*
G01X225001Y-130000D02*
G01X221112Y-130000D01*
G01X-225001Y-130000D02*
G01X-221115Y-130000D01*
G01X221112Y130000D02*
G01X225001Y130000D01*
G01X-225001Y130000D02*
G01X-221112Y130000D01*
G01X225001Y130000D02*
G01X225001Y-130000D01*
G01X-225001Y-50000D02*
G03X-225044Y50038I-377J50019D01*
G01X-1496588Y150000D02*
G01X-1106180Y150000D01*
G01X-1249200Y-150000D02*
G01X-1106180Y-150000D01*
G01X-1350800Y-150114D02*
G01X-1496588Y-150114D01*
G01X-1106180Y-150000D02*
G01X-1106180Y150000D01*
G01X-1496588Y-150000D02*
G01X-1496588Y150000D01*
G01X-1249200Y-150000D02*
G03X-1350800Y-150114I-50800J-57D01*
G36*
G01X-1173000Y-129299D02*
G02X-1173000Y-48499I-320J40400D01*
G02X-1173000Y-129299I320J-40400D01*
G37*
G54D13*
G01X1507020Y84999D02*
G01X1510000Y84999D01*
G01X1290000Y84999D02*
G01X1292980Y84999D01*
G01X1290000Y33015D02*
G01X1290000Y84999D01*
G01X1292980Y-85001D02*
G01X1290000Y-85001D01*
G01X1290000Y-85001D02*
G01X1290000Y-33015D01*
G01X1510000Y-33015D02*
G01X1510000Y-85001D01*
G01X1510000Y-85001D02*
G01X1507020Y-85001D01*
G01X1510000Y84999D02*
G01X1510000Y33015D01*
G54D12*
G01X457208Y-2739695D02*
G01X457208Y-2540300D01*
G01X457208Y-3082597D02*
G01X457208Y-2935300D01*
G01X-449991Y-2739382D02*
G01X-449991Y-2540610D01*
G01X-449991Y-3097497D02*
G01X-449991Y-2935613D01*
G01X450007Y-3097497D02*
G01X-449991Y-3097497D01*
G01X-1662824Y-2160400D02*
G01X-1095200Y-2160400D01*
G01X-1095200Y-2160400D02*
G01X-1095200Y-1929113D01*
G01X-2016168Y-839600D02*
G01X-2098500Y-839600D01*
G01X-2098500Y-839600D02*
G01X-2098500Y-2160400D01*
G01X-2098500Y-2160400D02*
G01X-2016168Y-2160400D01*
G01X-1095203Y-1070887D02*
G01X-1095203Y-839600D01*
G01X-1095203Y-839600D02*
G01X-1662824Y-839600D01*
G01X-1095203Y-1679113D02*
G01X-1095203Y-1770886D01*
G01X-1095203Y-1479114D02*
G01X-1095203Y-1520886D01*
G01X-1095203Y-1229114D02*
G01X-1095203Y-1320887D01*
G01X-1687043Y-1757808D02*
G01X-1687043Y-1960809D01*
G01X-1566027Y-1743810D02*
G01X-1566027Y-1969824D01*
G01X-1677134Y-1069701D02*
G01X-1677134Y-1272695D01*
G01X-1556136Y-1055703D02*
G01X-1556136Y-1281712D01*
G01X-1329609Y-1350521D02*
G01X-1903662Y-1314964D01*
G01X-1903662Y-1314964D02*
G01X-1903662Y-1025399D01*
G01X-1903662Y-1025399D02*
G01X-1329609Y-977141D01*
G01X-1329609Y-977141D02*
G01X-1329609Y-1027941D01*
G01X-1329609Y-1027941D02*
G01X-1843126Y-1078462D01*
G01X-1843126Y-1078462D02*
G01X-1843126Y-1253491D01*
G01X-1843126Y-1253491D02*
G01X-1329609Y-1312421D01*
G01X-1329609Y-1312421D02*
G01X-1329609Y-1350521D01*
G01X-1336503Y-2033400D02*
G01X-1910162Y-1998600D01*
G01X-1910162Y-1998600D02*
G01X-1909666Y-1710076D01*
G01X-1909666Y-1710076D02*
G01X-1336162Y-1660579D01*
G01X-1336162Y-1660579D02*
G01X-1336553Y-1711453D01*
G01X-1336553Y-1711453D02*
G01X-1790578Y-1762484D01*
G01X-1790578Y-1762484D02*
G01X-1858401Y-1770000D01*
G01X-1858401Y-1770000D02*
G01X-1857322Y-1944983D01*
G01X-1857322Y-1944983D02*
G01X-1379502Y-1992379D01*
G01X-1379502Y-1992379D02*
G01X-1336503Y-1995374D01*
G01X-1336503Y-1995374D02*
G01X-1336503Y-2033400D01*
G01X1662824Y2160400D02*
G01X1095200Y2160400D01*
G01X1095200Y2160400D02*
G01X1095200Y1929113D01*
G01X2016168Y839600D02*
G01X2098500Y839600D01*
G01X2098500Y839600D02*
G01X2098500Y2160400D01*
G01X2098500Y2160400D02*
G01X2016168Y2160400D01*
G01X1095203Y1070887D02*
G01X1095203Y839600D01*
G01X1095203Y839600D02*
G01X1662824Y839600D01*
G01X1095203Y1679113D02*
G01X1095203Y1770886D01*
G01X1095203Y1479114D02*
G01X1095203Y1520886D01*
G01X1095203Y1229114D02*
G01X1095203Y1320887D01*
G01X1687043Y1757808D02*
G01X1687043Y1960809D01*
G01X1566027Y1743810D02*
G01X1566027Y1969824D01*
G01X1677134Y1069701D02*
G01X1677134Y1272695D01*
G01X1556136Y1055703D02*
G01X1556136Y1281712D01*
G01X1329609Y1350521D02*
G01X1903662Y1314964D01*
G01X1903662Y1314964D02*
G01X1903662Y1025399D01*
G01X1903662Y1025399D02*
G01X1329609Y977141D01*
G01X1329609Y977141D02*
G01X1329609Y1027941D01*
G01X1329609Y1027941D02*
G01X1843126Y1078462D01*
G01X1843126Y1078462D02*
G01X1843126Y1253491D01*
G01X1843126Y1253491D02*
G01X1329609Y1312421D01*
G01X1329609Y1312421D02*
G01X1329609Y1350521D01*
G01X1336503Y2033400D02*
G01X1910162Y1998600D01*
G01X1910162Y1998600D02*
G01X1909666Y1710076D01*
G01X1909666Y1710076D02*
G01X1336162Y1660579D01*
G01X1336162Y1660579D02*
G01X1336553Y1711453D01*
G01X1336553Y1711453D02*
G01X1790578Y1762484D01*
G01X1790578Y1762484D02*
G01X1858401Y1770000D01*
G01X1858401Y1770000D02*
G01X1857322Y1944983D01*
G01X1857322Y1944983D02*
G01X1379502Y1992379D01*
G01X1379502Y1992379D02*
G01X1336503Y1995374D01*
G01X1336503Y1995374D02*
G01X1336503Y2033400D01*
G01X-1662824Y839600D02*
G01X-1095200Y839600D01*
G01X-1095200Y839600D02*
G01X-1095200Y1070887D01*
G01X-2016168Y2160400D02*
G01X-2098500Y2160400D01*
G01X-2098500Y2160400D02*
G01X-2098500Y839600D01*
G01X-2098500Y839600D02*
G01X-2016168Y839600D01*
G01X-1095203Y1929113D02*
G01X-1095203Y2160400D01*
G01X-1095203Y2160400D02*
G01X-1662824Y2160400D01*
G01X-1095203Y1320887D02*
G01X-1095203Y1229114D01*
G01X-1095203Y1520886D02*
G01X-1095203Y1479114D01*
G01X-1095203Y1770886D02*
G01X-1095203Y1679113D01*
G01X-1687043Y1242193D02*
G01X-1687043Y1039191D01*
G01X-1566027Y1256191D02*
G01X-1566027Y1030176D01*
G01X-1677134Y1930299D02*
G01X-1677134Y1727305D01*
G01X-1556136Y1944297D02*
G01X-1556136Y1718288D01*
G01X-1329609Y1649479D02*
G01X-1903662Y1685037D01*
G01X-1903662Y1685037D02*
G01X-1903662Y1974602D01*
G01X-1903662Y1974602D02*
G01X-1329609Y2022859D01*
G01X-1329609Y2022859D02*
G01X-1329609Y1972059D01*
G01X-1329609Y1972059D02*
G01X-1843126Y1921538D01*
G01X-1843126Y1921538D02*
G01X-1843126Y1746510D01*
G01X-1843126Y1746510D02*
G01X-1329609Y1687579D01*
G01X-1329609Y1687579D02*
G01X-1329609Y1649479D01*
G01X-1336503Y966600D02*
G01X-1910162Y1001401D01*
G01X-1910162Y1001401D02*
G01X-1909666Y1289924D01*
G01X-1909666Y1289924D02*
G01X-1336162Y1339421D01*
G01X-1336162Y1339421D02*
G01X-1336553Y1288548D01*
G01X-1336553Y1288548D02*
G01X-1790578Y1237516D01*
G01X-1790578Y1237516D02*
G01X-1858401Y1230001D01*
G01X-1858401Y1230001D02*
G01X-1857322Y1055017D01*
G01X-1857322Y1055017D02*
G01X-1379502Y1007621D01*
G01X-1379502Y1007621D02*
G01X-1336503Y1004626D01*
G01X-1336503Y1004626D02*
G01X-1336503Y966600D01*
G01X1662824Y-839600D02*
G01X1095200Y-839600D01*
G01X1095200Y-839600D02*
G01X1095200Y-1070887D01*
G01X2016168Y-2160400D02*
G01X2098500Y-2160400D01*
G01X2098500Y-2160400D02*
G01X2098500Y-839600D01*
G01X2098500Y-839600D02*
G01X2016168Y-839600D01*
G01X1095203Y-1929113D02*
G01X1095203Y-2160400D01*
G01X1095203Y-2160400D02*
G01X1662824Y-2160400D01*
G01X1095203Y-1320887D02*
G01X1095203Y-1229114D01*
G01X1095203Y-1520886D02*
G01X1095203Y-1479114D01*
G01X1095203Y-1770886D02*
G01X1095203Y-1679113D01*
G01X1687043Y-1242193D02*
G01X1687043Y-1039191D01*
G01X1566027Y-1256191D02*
G01X1566027Y-1030176D01*
G01X1677134Y-1930299D02*
G01X1677134Y-1727305D01*
G01X1556136Y-1944297D02*
G01X1556136Y-1718288D01*
G01X1329609Y-1649479D02*
G01X1903662Y-1685037D01*
G01X1903662Y-1685037D02*
G01X1903662Y-1974602D01*
G01X1903662Y-1974602D02*
G01X1329609Y-2022859D01*
G01X1329609Y-2022859D02*
G01X1329609Y-1972059D01*
G01X1329609Y-1972059D02*
G01X1843126Y-1921538D01*
G01X1843126Y-1921538D02*
G01X1843126Y-1746510D01*
G01X1843126Y-1746510D02*
G01X1329609Y-1687579D01*
G01X1329609Y-1687579D02*
G01X1329609Y-1649479D01*
G01X1336503Y-966600D02*
G01X1910162Y-1001401D01*
G01X1910162Y-1001401D02*
G01X1909666Y-1289924D01*
G01X1909666Y-1289924D02*
G01X1336162Y-1339421D01*
G01X1336162Y-1339421D02*
G01X1336553Y-1288548D01*
G01X1336553Y-1288548D02*
G01X1790578Y-1237516D01*
G01X1790578Y-1237516D02*
G01X1858401Y-1230001D01*
G01X1858401Y-1230001D02*
G01X1857322Y-1055017D01*
G01X1857322Y-1055017D02*
G01X1379502Y-1007621D01*
G01X1379502Y-1007621D02*
G01X1336503Y-1004626D01*
G01X1336503Y-1004626D02*
G01X1336503Y-966600D01*
G01X374546Y2705839D02*
G01X374546Y2527493D01*
G01X327360Y2527493D01*
G01X-327378Y2527493D02*
G01X-379009Y2527493D01*
G01X-379009Y2706591D01*
G01X299989Y3045148D02*
G01X299989Y3095148D01*
G01X-309004Y3098137D01*
G01X-310002Y3045148D01*
G01X-379009Y2944825D02*
G01X-379009Y3004071D01*
G01X374546Y3005163D02*
G01X374546Y2945557D01*
G01X299989Y3045148D02*
G01X344990Y3047139D01*
G01X386997Y3096656D01*
G01X374546Y3005163D01*
G01X299989Y3045148D02*
G01X-310002Y3045148D01*
G01X-340009Y3045148D01*
G01X-393004Y3092643D01*
G01X-380007Y3004071D01*
G01X373268Y2701158D02*
G01X373187Y2683701D01*
G01X373492Y2701194D02*
G01X373131Y2680414D01*
G01X204902Y2464440D02*
G02X204902Y2439040I0J-12700D01*
G02X204902Y2464440I0J12700D01*

G04 Circle Start*
G01X-244526Y-186004D02*
G03X-219481Y-186004I12522J0D01*
G03X-244526Y-186004I-12522J0D01*
G54D11*
G01X1317501Y-119990D02*
G03X1332487Y-119990I7493J0D01*
G03X1317501Y-119990I-7493J0D01*
G04 Circle End*

M02*

