;TYPE=PLATED
;Layer: PTH_Through_Via
;EasyEDA Pro v3.2.148, 2026-08-03 13:40:34
;Gerber Generator version 0.3
M48
METRIC,LZ,0000.00000
;Hole size 1 = 0.30500 METRIC
T01C0.30500
%
G05
G90
T01
X10.1Y-1.3
X1.32512Y2.9
X2.5Y1.8001
X1.32512Y-2.9
X13.25251Y1.45587
X0.14043Y-15.2235
X1.428Y-14.637
X1.75019Y-22.491
X-1.224Y-22.491
X15.4275Y-2.5245
X-3.927Y-12.546
X-5.60462Y-10.97038
X3.672Y5.304
X4.488Y6.936
X-3.19282Y8.72535
X2.10746Y10.047
X-2.35312Y8.72997
X2.70301Y10.52908
X-3.264Y3.213
X-3.264Y3.975
X6.61604Y-14.47004
X6.579Y-15.328
X-17.442Y0.765
X8.976Y25.602
X9.588Y5.559
X7.803Y-18.411
X-2.244Y-11.832
X-8.313Y-6.783
X3.468Y-2.754
X-2.295Y5.508
X5.406Y-11.322
X3.927Y3.366
X-3.009Y-5.712
X8.71983Y-1.66552
M30