G04 Layer: BottomLayer*
G04 EasyEDA Pro v3.2.148, 2026-08-03 13:40:32*
G04 Gerber Generator version 0.3*
G04 Scale: 100 percent, Rotated: No, Reflected: No*
G04 Dimensions in millimeters*
G04 Leading zeros omitted, absolute positions, 4 integers and 5 decimals*
G04 Generated by one-click*
G04 Object Configs: Pad,Via,Track,Text,Image,Dimension,BoardOutline,BoardCutout,CopperFilled,SolidRegion,FPCStiffener,Line,PlaneZone,ComponentProperty,ComponentSilkscreen,TearDrop*
G04 Layer Configs: 1,15,16,2,3,4,5,6,7,8,9,10,11,13,14,56*
G04 Copper Areas: 94*
%FSLAX45Y45*%
%MOMM*%
%ADD10C,0.2032*%
%ADD11C,0.254*%
%ADD12R,0.8X0.9*%
%ADD13R,0.9X0.8*%
%ADD14R,0.86401X0.80648*%
%ADD15R,0.8142X0.86401*%
%ADD16R,0.80648X0.86401*%
%ADD17R,1.1X2.49999*%
%ADD18R,3.59999X2.34*%
%ADD19O,1.1X2.0*%
%ADD20O,1.2X1.8*%
%ADD21O,2.49999X1.2*%
%ADD22C,1.3*%
%ADD23O,1.3X1.8*%
%ADD24C,0.61*%
G75*


G04 Copper Start*
G36*
G01X1964186Y2070058D02*
G01X1964186Y929942D01*
G01X1950802Y938874D01*
G01X1936112Y945440D01*
G01X1920530Y949455D01*
G01X1904496Y950806D01*
G01X1774496Y950806D01*
G01X1755804Y948965D01*
G01X1737830Y943513D01*
G01X1721265Y934659D01*
G01X1706746Y922743D01*
G01X1694830Y908224D01*
G01X1685976Y891659D01*
G01X1680523Y873685D01*
G01X1678682Y854992D01*
G01X1680523Y836300D01*
G01X1685976Y818326D01*
G01X1694830Y801761D01*
G01X1706746Y787242D01*
G01X1721265Y775326D01*
G01X1737830Y766472D01*
G01X1755804Y761020D01*
G01X1774496Y759179D01*
G01X1904496Y759179D01*
G01X1920530Y760530D01*
G01X1936112Y764545D01*
G01X1950802Y771111D01*
G01X1964186Y780043D01*
G01X1964186Y-780043D01*
G01X1950802Y-771111D01*
G01X1936112Y-764545D01*
G01X1920530Y-760530D01*
G01X1904496Y-759179D01*
G01X1774496Y-759179D01*
G01X1755804Y-761020D01*
G01X1737830Y-766472D01*
G01X1721265Y-775326D01*
G01X1706746Y-787242D01*
G01X1694830Y-801761D01*
G01X1685976Y-818326D01*
G01X1680523Y-836300D01*
G01X1678682Y-854992D01*
G01X1680523Y-873685D01*
G01X1685976Y-891659D01*
G01X1694830Y-908224D01*
G01X1706746Y-922743D01*
G01X1721265Y-934659D01*
G01X1737830Y-943513D01*
G01X1755804Y-948965D01*
G01X1774496Y-950806D01*
G01X1904496Y-950806D01*
G01X1920530Y-949455D01*
G01X1936112Y-945440D01*
G01X1950802Y-938874D01*
G01X1964186Y-929942D01*
G01X1964186Y-2070058D01*
G01X1950802Y-2061126D01*
G01X1936112Y-2054560D01*
G01X1920530Y-2050545D01*
G01X1904496Y-2049194D01*
G01X1774496Y-2049194D01*
G01X1755804Y-2051035D01*
G01X1737830Y-2056487D01*
G01X1721265Y-2065341D01*
G01X1706746Y-2077257D01*
G01X1694830Y-2091776D01*
G01X1685976Y-2108341D01*
G01X1680523Y-2126315D01*
G01X1678682Y-2145008D01*
G01X1680523Y-2163700D01*
G01X1685976Y-2181674D01*
G01X1694830Y-2198239D01*
G01X1706746Y-2212758D01*
G01X1721265Y-2224674D01*
G01X1737830Y-2233528D01*
G01X1755804Y-2238980D01*
G01X1774496Y-2240822D01*
G01X1904496Y-2240822D01*
G01X1920530Y-2239470D01*
G01X1936112Y-2235455D01*
G01X1950802Y-2228889D01*
G01X1964186Y-2219957D01*
G01X1964186Y-2964186D01*
G01X-1964186Y-2964186D01*
G01X-1964186Y-2700000D01*
G01X-1877235Y-2700000D01*
G01X-1875256Y-2726415D01*
G01X-1869361Y-2752241D01*
G01X-1859683Y-2776899D01*
G01X-1846439Y-2799840D01*
G01X-1829923Y-2820551D01*
G01X-1810504Y-2838568D01*
G01X-1788618Y-2853490D01*
G01X-1764751Y-2864984D01*
G01X-1739438Y-2872792D01*
G01X-1713245Y-2876740D01*
G01X-1686755Y-2876740D01*
G01X-1660561Y-2872792D01*
G01X-1635249Y-2864984D01*
G01X-1611382Y-2853490D01*
G01X-1589495Y-2838568D01*
G01X-1570077Y-2820551D01*
G01X-1559672Y-2807503D01*
G01X-528312Y-2807503D01*
G01X-528312Y-2867503D01*
G01X-526471Y-2886195D01*
G01X-521019Y-2904169D01*
G01X-512165Y-2920734D01*
G01X-500249Y-2935253D01*
G01X-485730Y-2947169D01*
G01X-469165Y-2956023D01*
G01X-451191Y-2961475D01*
G01X-432498Y-2963316D01*
G01X-413806Y-2961475D01*
G01X-395832Y-2956023D01*
G01X-379267Y-2947169D01*
G01X-364748Y-2935253D01*
G01X-352832Y-2920734D01*
G01X-343978Y-2904169D01*
G01X-338526Y-2886195D01*
G01X-336685Y-2867503D01*
G01X336685Y-2867503D01*
G01X338526Y-2886195D01*
G01X343978Y-2904169D01*
G01X352832Y-2920734D01*
G01X364748Y-2935253D01*
G01X379267Y-2947169D01*
G01X395832Y-2956023D01*
G01X413806Y-2961475D01*
G01X432499Y-2963316D01*
G01X451191Y-2961475D01*
G01X469165Y-2956023D01*
G01X485730Y-2947169D01*
G01X500249Y-2935253D01*
G01X512165Y-2920734D01*
G01X521019Y-2904169D01*
G01X526471Y-2886195D01*
G01X528312Y-2867503D01*
G01X528312Y-2807503D01*
G01X526471Y-2788810D01*
G01X521019Y-2770836D01*
G01X512165Y-2754271D01*
G01X500249Y-2739752D01*
G01X485730Y-2727836D01*
G01X469165Y-2718982D01*
G01X451191Y-2713530D01*
G01X432499Y-2711689D01*
G01X413806Y-2713530D01*
G01X395832Y-2718982D01*
G01X379267Y-2727836D01*
G01X364748Y-2739752D01*
G01X352832Y-2754271D01*
G01X343978Y-2770836D01*
G01X338526Y-2788810D01*
G01X336685Y-2807503D01*
G01X336685Y-2807503D01*
G01X336685Y-2867503D01*
G01X-336685Y-2867503D01*
G01X-336685Y-2807503D01*
G01X-338526Y-2788810D01*
G01X-343978Y-2770836D01*
G01X-352832Y-2754271D01*
G01X-364748Y-2739752D01*
G01X-379267Y-2727836D01*
G01X-395832Y-2718982D01*
G01X-413806Y-2713530D01*
G01X-432498Y-2711689D01*
G01X-451191Y-2713530D01*
G01X-469165Y-2718982D01*
G01X-485730Y-2727836D01*
G01X-500249Y-2739752D01*
G01X-512165Y-2754271D01*
G01X-521019Y-2770836D01*
G01X-526471Y-2788810D01*
G01X-528312Y-2807503D01*
G01X-528312Y-2807503D01*
G01X-1559672Y-2807503D01*
G01X-1553561Y-2799840D01*
G01X-1540316Y-2776899D01*
G01X-1530639Y-2752241D01*
G01X-1524744Y-2726415D01*
G01X-1522765Y-2700000D01*
G01X-1522765Y-2700000D01*
G01X1522765Y-2700000D01*
G01X1524744Y-2726415D01*
G01X1530639Y-2752241D01*
G01X1540316Y-2776899D01*
G01X1553561Y-2799840D01*
G01X1570077Y-2820551D01*
G01X1589495Y-2838568D01*
G01X1611382Y-2853490D01*
G01X1635249Y-2864984D01*
G01X1660561Y-2872792D01*
G01X1686755Y-2876740D01*
G01X1713245Y-2876740D01*
G01X1739438Y-2872792D01*
G01X1764751Y-2864984D01*
G01X1788618Y-2853490D01*
G01X1810504Y-2838568D01*
G01X1829923Y-2820551D01*
G01X1846439Y-2799840D01*
G01X1859683Y-2776899D01*
G01X1869361Y-2752241D01*
G01X1875256Y-2726415D01*
G01X1877235Y-2700000D01*
G01X1875256Y-2673584D01*
G01X1869361Y-2647759D01*
G01X1859683Y-2623100D01*
G01X1846439Y-2600160D01*
G01X1829923Y-2579449D01*
G01X1810504Y-2561432D01*
G01X1788618Y-2546510D01*
G01X1764751Y-2535016D01*
G01X1739438Y-2527208D01*
G01X1713245Y-2523260D01*
G01X1686755Y-2523260D01*
G01X1660561Y-2527208D01*
G01X1635249Y-2535016D01*
G01X1611382Y-2546510D01*
G01X1589495Y-2561432D01*
G01X1570077Y-2579449D01*
G01X1553561Y-2600160D01*
G01X1540316Y-2623100D01*
G01X1530639Y-2647759D01*
G01X1524744Y-2673584D01*
G01X1522765Y-2700000D01*
G01X1522765Y-2700000D01*
G01X-1522765Y-2700000D01*
G01X-1524744Y-2673584D01*
G01X-1530639Y-2647759D01*
G01X-1540316Y-2623100D01*
G01X-1553561Y-2600160D01*
G01X-1570077Y-2579449D01*
G01X-1589495Y-2561432D01*
G01X-1611382Y-2546510D01*
G01X-1635249Y-2535016D01*
G01X-1660561Y-2527208D01*
G01X-1686755Y-2523260D01*
G01X-1713245Y-2523260D01*
G01X-1739438Y-2527208D01*
G01X-1764751Y-2535016D01*
G01X-1788618Y-2546510D01*
G01X-1810504Y-2561432D01*
G01X-1829923Y-2579449D01*
G01X-1846439Y-2600160D01*
G01X-1859683Y-2623100D01*
G01X-1869361Y-2647759D01*
G01X-1875256Y-2673584D01*
G01X-1877235Y-2700000D01*
G01X-1877235Y-2700000D01*
G01X-1964186Y-2700000D01*
G01X-1964186Y-2372488D01*
G01X-523312Y-2372488D01*
G01X-523312Y-2462488D01*
G01X-521393Y-2481059D01*
G01X-515717Y-2498845D01*
G01X-506524Y-2515094D01*
G01X-494202Y-2529120D01*
G01X-479273Y-2540330D01*
G01X-462366Y-2548250D01*
G01X-444198Y-2552545D01*
G01X-425534Y-2553035D01*
G01X-407166Y-2549697D01*
G01X-389867Y-2542674D01*
G01X-374371Y-2532262D01*
G01X-361331Y-2518901D01*
G01X-351299Y-2503155D01*
G01X-341995Y-2516466D01*
G01X-329903Y-2527307D01*
G01X-315659Y-2535108D01*
G01X-300012Y-2539459D01*
G01X-283785Y-2540131D01*
G01X-267832Y-2537089D01*
G01X-252992Y-2530492D01*
G01X-240045Y-2520687D01*
G01X-229673Y-2508191D01*
G01X-222419Y-2493660D01*
G01X-218667Y-2477859D01*
G01X-218614Y-2461627D01*
G01X218639Y-2461627D01*
G01X218694Y-2477864D01*
G01X218694Y-2477864D01*
G01X222446Y-2493662D01*
G01X229697Y-2508190D01*
G01X240068Y-2520684D01*
G01X253012Y-2530488D01*
G01X267848Y-2537086D01*
G01X283798Y-2540130D01*
G01X300022Y-2539462D01*
G01X315667Y-2535116D01*
G01X329910Y-2527320D01*
G01X342004Y-2516485D01*
G01X351311Y-2503180D01*
G01X361347Y-2518920D01*
G01X374389Y-2532276D01*
G01X389886Y-2542684D01*
G01X407184Y-2549702D01*
G01X425551Y-2553036D01*
G01X444212Y-2552543D01*
G01X462378Y-2548246D01*
G01X479282Y-2540324D01*
G01X494208Y-2529114D01*
G01X506528Y-2515089D01*
G01X515719Y-2498841D01*
G01X521394Y-2481057D01*
G01X523312Y-2462488D01*
G01X523312Y-2372488D01*
G01X521328Y-2353607D01*
G01X515461Y-2335551D01*
G01X505968Y-2319109D01*
G01X493265Y-2305000D01*
G01X477905Y-2293841D01*
G01X460562Y-2286119D01*
G01X441991Y-2282172D01*
G01X423006Y-2282172D01*
G01X404435Y-2286119D01*
G01X387092Y-2293841D01*
G01X371732Y-2305000D01*
G01X359029Y-2319109D01*
G01X349536Y-2335551D01*
G01X343669Y-2353607D01*
G01X341685Y-2372488D01*
G01X341685Y-2422173D01*
G01X329518Y-2411419D01*
G01X315222Y-2403720D01*
G01X299548Y-2399480D01*
G01X283320Y-2398921D01*
G01X267392Y-2402074D01*
G01X252600Y-2408772D01*
G01X239723Y-2418663D01*
G01X229437Y-2431227D01*
G01X222284Y-2445804D01*
G01X218639Y-2461627D01*
G01X-218614Y-2461627D01*
G01X-218614Y-2461619D01*
G01X-222262Y-2445793D01*
G01X-229419Y-2431215D01*
G01X-239710Y-2418651D01*
G01X-252592Y-2408761D01*
G01X-267388Y-2402067D01*
G01X-283321Y-2398919D01*
G01X-299551Y-2399484D01*
G01X-315226Y-2403732D01*
G01X-329521Y-2411439D01*
G01X-341685Y-2422201D01*
G01X-341685Y-2372488D01*
G01X-341685Y-2372488D01*
G01X-343669Y-2353607D01*
G01X-349536Y-2335551D01*
G01X-359029Y-2319109D01*
G01X-371732Y-2305000D01*
G01X-387092Y-2293841D01*
G01X-404435Y-2286119D01*
G01X-423006Y-2282172D01*
G01X-441991Y-2282172D01*
G01X-460562Y-2286119D01*
G01X-477905Y-2293841D01*
G01X-493265Y-2305000D01*
G01X-505968Y-2319109D01*
G01X-515461Y-2335551D01*
G01X-521328Y-2353607D01*
G01X-523312Y-2372488D01*
G01X-1964186Y-2372488D01*
G01X-1964186Y-2219957D01*
G01X-1950802Y-2228889D01*
G01X-1936112Y-2235455D01*
G01X-1920530Y-2239470D01*
G01X-1904496Y-2240822D01*
G01X-1774496Y-2240822D01*
G01X-1755804Y-2238980D01*
G01X-1737830Y-2233528D01*
G01X-1721265Y-2224674D01*
G01X-1706746Y-2212758D01*
G01X-1694830Y-2198239D01*
G01X-1685976Y-2181674D01*
G01X-1680523Y-2163700D01*
G01X-1678682Y-2145008D01*
G01X-1680523Y-2126315D01*
G01X-1685976Y-2108341D01*
G01X-1694830Y-2091776D01*
G01X-1706746Y-2077257D01*
G01X-1721265Y-2065341D01*
G01X-1737830Y-2056487D01*
G01X-1755804Y-2051035D01*
G01X-1774496Y-2049194D01*
G01X-1904496Y-2049194D01*
G01X-1920530Y-2050545D01*
G01X-1936112Y-2054560D01*
G01X-1950802Y-2061126D01*
G01X-1964186Y-2070058D01*
G01X-1964186Y-1914987D01*
G01X-204014Y-1914987D01*
G01X-202700Y-1924601D01*
G01X-198853Y-1933509D01*
G01X-192756Y-1941058D01*
G01X-184856Y-1946692D01*
G01X-175734Y-1950000D01*
G01X-184856Y-1953307D01*
G01X-192756Y-1958942D01*
G01X-198853Y-1966491D01*
G01X-202700Y-1975399D01*
G01X-204014Y-1985013D01*
G01X-204014Y-2065660D01*
G01X-202576Y-2075708D01*
G01X-198376Y-2084949D01*
G01X-191753Y-2092640D01*
G01X-183237Y-2098164D01*
G01X-173514Y-2101078D01*
G01X-173514Y-2206852D01*
G01X-181856Y-2219731D01*
G01X-187015Y-2234183D01*
G01X-188713Y-2249433D01*
G01X-186861Y-2264666D01*
G01X-181558Y-2279065D01*
G01X-173087Y-2291860D01*
G01X-161901Y-2302365D01*
G01X-148601Y-2310018D01*
G01X-133898Y-2314410D01*
G01X-118579Y-2315304D01*
G01X-118579Y-2315304D01*
G01X-103465Y-2312653D01*
G01X-89365Y-2306600D01*
G01X-77033Y-2297467D01*
G01X-67131Y-2285745D01*
G01X-60188Y-2272061D01*
G01X-56576Y-2257147D01*
G01X-56489Y-2241802D01*
G01X-59931Y-2226848D01*
G01X-66718Y-2213086D01*
G01X-76486Y-2201252D01*
G01X-76486Y-2101078D01*
G01X-66763Y-2098164D01*
G01X-58247Y-2092640D01*
G01X-51624Y-2084949D01*
G01X-47424Y-2075708D01*
G01X-45986Y-2065660D01*
G01X-45986Y-1985013D01*
G01X-47300Y-1975399D01*
G01X-51147Y-1966491D01*
G01X-57244Y-1958942D01*
G01X-65144Y-1953307D01*
G01X-74266Y-1950000D01*
G01X-65144Y-1946692D01*
G01X-57244Y-1941058D01*
G01X-51147Y-1933509D01*
G01X-47300Y-1924601D01*
G01X-45986Y-1914987D01*
G01X-45986Y-1914987D01*
G01X95986Y-1914987D01*
G01X97300Y-1924601D01*
G01X101147Y-1933509D01*
G01X107244Y-1941058D01*
G01X115144Y-1946692D01*
G01X124266Y-1950000D01*
G01X115144Y-1953307D01*
G01X107244Y-1958942D01*
G01X101147Y-1966491D01*
G01X97300Y-1975399D01*
G01X95986Y-1985013D01*
G01X95986Y-2065660D01*
G01X97425Y-2075712D01*
G01X101628Y-2084955D01*
G01X108256Y-2092648D01*
G01X116776Y-2098171D01*
G01X126505Y-2101081D01*
G01X126505Y-2203890D01*
G01X117406Y-2216261D01*
G01X111398Y-2230394D01*
G01X108801Y-2245529D01*
G01X109755Y-2260856D01*
G01X114209Y-2275553D01*
G01X121924Y-2288831D01*
G01X132487Y-2299978D01*
G01X145330Y-2308397D01*
G01X159765Y-2313636D01*
G01X175019Y-2315414D01*
G01X190272Y-2313636D01*
G01X204708Y-2308397D01*
G01X217551Y-2299978D01*
G01X228113Y-2288831D01*
G01X235828Y-2275553D01*
G01X240282Y-2260856D01*
G01X241237Y-2245529D01*
G01X238640Y-2230394D01*
G01X232631Y-2216261D01*
G01X223533Y-2203890D01*
G01X223533Y-2101075D01*
G01X223533Y-2101075D01*
G01X233251Y-2098158D01*
G01X241761Y-2092633D01*
G01X248380Y-2084942D01*
G01X252577Y-2075704D01*
G01X254014Y-2065660D01*
G01X254014Y-1985013D01*
G01X252700Y-1975399D01*
G01X248853Y-1966491D01*
G01X242756Y-1958942D01*
G01X234856Y-1953307D01*
G01X225734Y-1950000D01*
G01X234856Y-1946692D01*
G01X242756Y-1941058D01*
G01X248853Y-1933509D01*
G01X252700Y-1924601D01*
G01X254014Y-1914987D01*
G01X254014Y-1834340D01*
G01X252261Y-1823273D01*
G01X247174Y-1813289D01*
G01X239251Y-1805366D01*
G01X229267Y-1800279D01*
G01X218200Y-1798526D01*
G01X131800Y-1798526D01*
G01X120732Y-1800279D01*
G01X110749Y-1805366D01*
G01X102825Y-1813289D01*
G01X97738Y-1823273D01*
G01X95986Y-1834340D01*
G01X95986Y-1914987D01*
G01X-45986Y-1914987D01*
G01X-45986Y-1834340D01*
G01X-47739Y-1823273D01*
G01X-52826Y-1813289D01*
G01X-60749Y-1805366D01*
G01X-70733Y-1800279D01*
G01X-81800Y-1798526D01*
G01X-168200Y-1798526D01*
G01X-179267Y-1800279D01*
G01X-189251Y-1805366D01*
G01X-197174Y-1813289D01*
G01X-202261Y-1823273D01*
G01X-204014Y-1834340D01*
G01X-204014Y-1914987D01*
G01X-1964186Y-1914987D01*
G01X-1964186Y-1091137D01*
G01X-626513Y-1091137D01*
G01X-626099Y-1106488D01*
G01X-622165Y-1121332D01*
G01X-614923Y-1134874D01*
G01X-604760Y-1146387D01*
G01X-592221Y-1155253D01*
G01X-577979Y-1160997D01*
G01X-562798Y-1163311D01*
G01X-457522Y-1268587D01*
G01X-452608Y-1283035D01*
G01X-444521Y-1295978D01*
G01X-433690Y-1306729D01*
G01X-420687Y-1314719D01*
G01X-406202Y-1319525D01*
G01X-391002Y-1320892D01*
G01X-375892Y-1318749D01*
G01X-361673Y-1313208D01*
G01X-349096Y-1304563D01*
G01X-338829Y-1293271D01*
G01X-331415Y-1279932D01*
G01X-327247Y-1265251D01*
G01X-326545Y-1250006D01*
G01X-329347Y-1235004D01*
G01X-335505Y-1221040D01*
G01X-344691Y-1208854D01*
G01X-356421Y-1199090D01*
G01X-370071Y-1192266D01*
G01X-384920Y-1188744D01*
G01X-400182Y-1188709D01*
G01X-494189Y-1094702D01*
G01X-496503Y-1079521D01*
G01X-502247Y-1065279D01*
G01X-511114Y-1052740D01*
G01X-522626Y-1042577D01*
G01X-536168Y-1035335D01*
G01X-551012Y-1031401D01*
G01X-566363Y-1030987D01*
G01X-581398Y-1034116D01*
G01X-595310Y-1040619D01*
G01X-607353Y-1050147D01*
G01X-607353Y-1050147D01*
G01X-616881Y-1062190D01*
G01X-623384Y-1076102D01*
G01X-626513Y-1091137D01*
G01X-1964186Y-1091137D01*
G01X-1964186Y-929942D01*
G01X-1950802Y-938874D01*
G01X-1936112Y-945440D01*
G01X-1920530Y-949455D01*
G01X-1904496Y-950806D01*
G01X-1774496Y-950806D01*
G01X-1755804Y-948965D01*
G01X-1737830Y-943513D01*
G01X-1721265Y-934659D01*
G01X-1706746Y-922743D01*
G01X-1694830Y-908224D01*
G01X-1685976Y-891659D01*
G01X-1680523Y-873685D01*
G01X-1678682Y-854992D01*
G01X-1680523Y-836300D01*
G01X-1685976Y-818326D01*
G01X-1694830Y-801761D01*
G01X-1706746Y-787242D01*
G01X-1721265Y-775326D01*
G01X-1737830Y-766472D01*
G01X-1755804Y-761020D01*
G01X-1774496Y-759179D01*
G01X-1904496Y-759179D01*
G01X-1920530Y-760530D01*
G01X-1936112Y-764545D01*
G01X-1950802Y-771111D01*
G01X-1964186Y-780043D01*
G01X-1964186Y-678300D01*
G01X-897614Y-678300D01*
G01X-895836Y-693553D01*
G01X-890597Y-707989D01*
G01X-882178Y-720832D01*
G01X-871031Y-731394D01*
G01X-857753Y-739109D01*
G01X-843056Y-743564D01*
G01X-827729Y-744518D01*
G01X-812594Y-741921D01*
G01X-798461Y-735912D01*
G01X-786090Y-726814D01*
G01X-749395Y-726814D01*
G01X-290673Y-1185536D01*
G01X-290673Y-1185536D01*
G01X-288359Y-1200718D01*
G01X-282614Y-1214959D01*
G01X-273748Y-1227498D01*
G01X-262236Y-1237661D01*
G01X-248694Y-1244904D01*
G01X-233850Y-1248837D01*
G01X-218499Y-1249251D01*
G01X-203464Y-1246123D01*
G01X-189552Y-1239620D01*
G01X-177509Y-1230091D01*
G01X-167981Y-1218048D01*
G01X-161478Y-1204136D01*
G01X-158349Y-1189102D01*
G01X-158763Y-1173750D01*
G01X-162696Y-1158906D01*
G01X-169939Y-1145365D01*
G01X-180102Y-1133852D01*
G01X-192641Y-1124986D01*
G01X-206883Y-1119242D01*
G01X-222064Y-1116927D01*
G01X-694995Y-643995D01*
G01X-705043Y-636286D01*
G01X-716744Y-631439D01*
G01X-729300Y-629786D01*
G01X-786090Y-629786D01*
G01X-798461Y-620688D01*
G01X-812594Y-614679D01*
G01X-827729Y-612082D01*
G01X-843056Y-613036D01*
G01X-857753Y-617490D01*
G01X-871031Y-625205D01*
G01X-882178Y-635768D01*
G01X-890597Y-648611D01*
G01X-895836Y-663046D01*
G01X-897614Y-678300D01*
G01X-1964186Y-678300D01*
G01X-1964186Y80071D01*
G01X-1810418Y80071D01*
G01X-1809464Y64744D01*
G01X-1805010Y50047D01*
G01X-1797294Y36769D01*
G01X-1786732Y25622D01*
G01X-1773889Y17203D01*
G01X-1759453Y11964D01*
G01X-1744200Y10186D01*
G01X-1728947Y11964D01*
G01X-1714511Y17203D01*
G01X-1701668Y25622D01*
G01X-1691105Y36769D01*
G01X-1683390Y50047D01*
G01X-1678936Y64744D01*
G01X-1677982Y80071D01*
G01X-1680579Y95206D01*
G01X-1686588Y109339D01*
G01X-1695686Y121710D01*
G01X-1695686Y279946D01*
G01X-594114Y279946D01*
G01X-594114Y-616546D01*
G01X-594114Y-616546D01*
G01X-592461Y-629102D01*
G01X-587614Y-640803D01*
G01X-579904Y-650850D01*
G01X174940Y-1405695D01*
G01X162183Y-1400282D01*
G01X148580Y-1397638D01*
G01X134724Y-1397879D01*
G01X121221Y-1400995D01*
G01X108660Y-1406849D01*
G01X97590Y-1415186D01*
G01X72693Y-1415186D01*
G01X60137Y-1416839D01*
G01X48436Y-1421686D01*
G01X38389Y-1429395D01*
G01X11707Y-1456077D01*
G01X-3474Y-1458392D01*
G01X-17716Y-1464136D01*
G01X-30255Y-1473002D01*
G01X-40418Y-1484514D01*
G01X-47661Y-1498056D01*
G01X-51594Y-1512900D01*
G01X-52008Y-1528252D01*
G01X-48879Y-1543286D01*
G01X-42376Y-1557198D01*
G01X-32848Y-1569241D01*
G01X-20805Y-1578770D01*
G01X-6893Y-1585272D01*
G01X8142Y-1588401D01*
G01X23493Y-1587987D01*
G01X38337Y-1584054D01*
G01X51879Y-1576811D01*
G01X63391Y-1566648D01*
G01X72257Y-1554109D01*
G01X78002Y-1539868D01*
G01X80316Y-1524686D01*
G01X92788Y-1512214D01*
G01X97590Y-1512214D01*
G01X110162Y-1521426D01*
G01X124537Y-1527450D01*
G01X139921Y-1529951D01*
G01X155464Y-1528794D01*
G01X170307Y-1524040D01*
G01X183631Y-1515953D01*
G01X194700Y-1504979D01*
G01X202901Y-1491726D01*
G01X207782Y-1476924D01*
G01X209074Y-1461391D01*
G01X206705Y-1445986D01*
G01X200805Y-1431560D01*
G01X236550Y-1467305D01*
G01X246597Y-1475014D01*
G01X258298Y-1479861D01*
G01X270854Y-1481514D01*
G01X544914Y-1481514D01*
G01X591736Y-1528336D01*
G01X592593Y-1544314D01*
G01X597252Y-1559622D01*
G01X605442Y-1573368D01*
G01X616686Y-1584752D01*
G01X630330Y-1593111D01*
G01X645579Y-1597959D01*
G01X661545Y-1599014D01*
G01X677299Y-1596213D01*
G01X691924Y-1589720D01*
G01X704568Y-1579913D01*
G01X714494Y-1567364D01*
G01X721126Y-1552801D01*
G01X724076Y-1537075D01*
G01X723174Y-1521099D01*
G01X718471Y-1505805D01*
G01X710241Y-1492082D01*
G01X719181Y-1479905D01*
G01X725134Y-1466020D01*
G01X727789Y-1451149D01*
G01X727010Y-1436062D01*
G01X722836Y-1421544D01*
G01X715485Y-1408346D01*
G01X705338Y-1397155D01*
G01X692921Y-1388551D01*
G01X678879Y-1382980D01*
G01X663941Y-1380732D01*
G01X646305Y-1363095D01*
G01X636257Y-1355386D01*
G01X624556Y-1350539D01*
G01X612000Y-1348886D01*
G01X305695Y-1348886D01*
G01X-461486Y-581705D01*
G01X-461486Y-445000D01*
G01X54184Y-445000D01*
G01X56148Y-456696D01*
G01X61824Y-467110D01*
G01X70589Y-475099D01*
G01X81484Y-479787D01*
G01X81484Y-520213D01*
G01X70589Y-524901D01*
G01X61824Y-532890D01*
G01X56148Y-543304D01*
G01X54184Y-555000D01*
G01X54184Y-645000D01*
G01X56148Y-656696D01*
G01X61824Y-667110D01*
G01X70589Y-675099D01*
G01X81484Y-679787D01*
G01X81484Y-777698D01*
G01X83137Y-790254D01*
G01X87983Y-801955D01*
G01X95693Y-812002D01*
G01X264990Y-981299D01*
G01X275038Y-989009D01*
G01X286738Y-993855D01*
G01X299295Y-995509D01*
G01X689189Y-995509D01*
G01X689189Y-1071994D01*
G01X690942Y-1083061D01*
G01X696029Y-1093045D01*
G01X703952Y-1100968D01*
G01X713936Y-1106055D01*
G01X725003Y-1107808D01*
G01X731786Y-1107808D01*
G01X731786Y-1795890D01*
G01X722688Y-1808261D01*
G01X716679Y-1822394D01*
G01X714082Y-1837529D01*
G01X715036Y-1852856D01*
G01X719490Y-1867553D01*
G01X727205Y-1880831D01*
G01X737768Y-1891978D01*
G01X750611Y-1900397D01*
G01X765047Y-1905636D01*
G01X780300Y-1907414D01*
G01X795553Y-1905636D01*
G01X809989Y-1900397D01*
G01X822832Y-1891978D01*
G01X833394Y-1880831D01*
G01X841110Y-1867553D01*
G01X845564Y-1852856D01*
G01X846518Y-1837529D01*
G01X843921Y-1822394D01*
G01X837912Y-1808261D01*
G01X828814Y-1795890D01*
G01X828814Y-1107808D01*
G01X835003Y-1107808D01*
G01X846070Y-1106055D01*
G01X856054Y-1100968D01*
G01X863977Y-1093045D01*
G01X869064Y-1083061D01*
G01X870817Y-1071994D01*
G01X870817Y-821995D01*
G01X869064Y-810928D01*
G01X863977Y-800944D01*
G01X856054Y-793021D01*
G01X846070Y-787934D01*
G01X835003Y-786181D01*
G01X725003Y-786181D01*
G01X713936Y-787934D01*
G01X703952Y-793021D01*
G01X696029Y-800944D01*
G01X690942Y-810928D01*
G01X689189Y-821995D01*
G01X689189Y-898481D01*
G01X319390Y-898481D01*
G01X178512Y-757603D01*
G01X178512Y-679787D01*
G01X186886Y-676582D01*
G01X194202Y-671397D01*
G01X200000Y-664557D01*
G01X207986Y-673247D01*
G01X218362Y-678869D01*
G01X230003Y-680814D01*
G01X310002Y-680814D01*
G01X321070Y-679061D01*
G01X331053Y-673974D01*
G01X338977Y-666051D01*
G01X344064Y-656067D01*
G01X345816Y-645000D01*
G01X345816Y-555000D01*
G01X344064Y-543933D01*
G01X338977Y-533949D01*
G01X331053Y-526026D01*
G01X321070Y-520939D01*
G01X310002Y-519186D01*
G01X230003Y-519186D01*
G01X218362Y-521131D01*
G01X207986Y-526753D01*
G01X200000Y-535443D01*
G01X194202Y-528603D01*
G01X186886Y-523418D01*
G01X178512Y-520213D01*
G01X178512Y-479787D01*
G01X186886Y-476582D01*
G01X194202Y-471397D01*
G01X200000Y-464557D01*
G01X207986Y-473247D01*
G01X218362Y-478869D01*
G01X230003Y-480814D01*
G01X310002Y-480814D01*
G01X321070Y-479061D01*
G01X331053Y-473974D01*
G01X335025Y-470003D01*
G01X794186Y-470003D01*
G01X795939Y-481070D01*
G01X801026Y-491054D01*
G01X808949Y-498977D01*
G01X818933Y-504064D01*
G01X830000Y-505817D01*
G01X961486Y-505817D01*
G01X961486Y-786181D01*
G01X961486Y-786181D01*
G01X955000Y-786181D01*
G01X943933Y-787934D01*
G01X933949Y-793021D01*
G01X926026Y-800944D01*
G01X920939Y-810928D01*
G01X919186Y-821995D01*
G01X919186Y-1071994D01*
G01X920939Y-1083061D01*
G01X926026Y-1093045D01*
G01X933949Y-1100968D01*
G01X943933Y-1106055D01*
G01X955000Y-1107808D01*
G01X961486Y-1107808D01*
G01X961486Y-1170176D01*
G01X953297Y-1175764D01*
G01X946954Y-1183383D01*
G01X942943Y-1192450D01*
G01X941570Y-1202268D01*
G01X941570Y-1292268D01*
G01X942943Y-1302086D01*
G01X946954Y-1311153D01*
G01X953297Y-1318772D01*
G01X961486Y-1324360D01*
G01X961486Y-1364341D01*
G01X954304Y-1370051D01*
G01X948808Y-1377398D01*
G01X945359Y-1385900D01*
G01X944184Y-1395000D01*
G01X944184Y-1485000D01*
G01X945937Y-1496067D01*
G01X951024Y-1506051D01*
G01X958947Y-1513974D01*
G01X968931Y-1519061D01*
G01X979998Y-1520814D01*
G01X1059998Y-1520814D01*
G01X1071638Y-1518869D01*
G01X1082014Y-1513247D01*
G01X1090000Y-1504557D01*
G01X1097986Y-1513247D01*
G01X1108362Y-1518869D01*
G01X1120003Y-1520814D01*
G01X1200002Y-1520814D01*
G01X1211070Y-1519061D01*
G01X1221053Y-1513974D01*
G01X1228977Y-1506051D01*
G01X1234064Y-1496067D01*
G01X1235816Y-1485000D01*
G01X1235816Y-1395000D01*
G01X1234064Y-1383933D01*
G01X1228977Y-1373949D01*
G01X1221053Y-1366026D01*
G01X1211070Y-1360939D01*
G01X1200002Y-1359186D01*
G01X1120003Y-1359186D01*
G01X1108362Y-1361131D01*
G01X1097986Y-1366753D01*
G01X1090000Y-1375443D01*
G01X1082014Y-1366753D01*
G01X1071638Y-1361131D01*
G01X1059998Y-1359186D01*
G01X1058514Y-1359186D01*
G01X1058514Y-1328064D01*
G01X1069734Y-1325885D01*
G01X1079697Y-1320282D01*
G01X1087387Y-1311825D01*
G01X1095372Y-1320515D01*
G01X1105749Y-1326137D01*
G01X1117389Y-1328082D01*
G01X1197389Y-1328082D01*
G01X1208456Y-1326329D01*
G01X1218440Y-1321242D01*
G01X1226363Y-1313319D01*
G01X1231450Y-1303335D01*
G01X1233203Y-1292268D01*
G01X1233203Y-1202268D01*
G01X1231450Y-1191201D01*
G01X1226363Y-1181217D01*
G01X1218440Y-1173294D01*
G01X1208456Y-1168207D01*
G01X1197389Y-1166454D01*
G01X1117389Y-1166454D01*
G01X1105749Y-1168399D01*
G01X1095372Y-1174021D01*
G01X1087387Y-1182711D01*
G01X1079697Y-1174254D01*
G01X1069734Y-1168651D01*
G01X1058514Y-1166472D01*
G01X1058514Y-1107808D01*
G01X1065000Y-1107808D01*
G01X1076067Y-1106055D01*
G01X1086051Y-1100968D01*
G01X1093974Y-1093045D01*
G01X1099061Y-1083061D01*
G01X1100814Y-1071994D01*
G01X1100814Y-821995D01*
G01X1149183Y-821995D01*
G01X1149183Y-1071994D01*
G01X1150936Y-1083061D01*
G01X1156023Y-1093045D01*
G01X1163946Y-1100968D01*
G01X1173930Y-1106055D01*
G01X1184997Y-1107808D01*
G01X1294997Y-1107808D01*
G01X1306064Y-1106055D01*
G01X1316048Y-1100968D01*
G01X1323971Y-1093045D01*
G01X1329058Y-1083061D01*
G01X1330811Y-1071994D01*
G01X1330811Y-821995D01*
G01X1329058Y-810928D01*
G01X1323971Y-800944D01*
G01X1316048Y-793021D01*
G01X1306064Y-787934D01*
G01X1294997Y-786181D01*
G01X1184997Y-786181D01*
G01X1184997Y-786181D01*
G01X1173930Y-787934D01*
G01X1163946Y-793021D01*
G01X1156023Y-800944D01*
G01X1150936Y-810928D01*
G01X1149183Y-821995D01*
G01X1100814Y-821995D01*
G01X1099061Y-810928D01*
G01X1093974Y-800944D01*
G01X1086051Y-793021D01*
G01X1076067Y-787934D01*
G01X1065000Y-786181D01*
G01X1058514Y-786181D01*
G01X1058514Y-505817D01*
G01X1190000Y-505817D01*
G01X1201067Y-504064D01*
G01X1211051Y-498977D01*
G01X1218974Y-491054D01*
G01X1224061Y-481070D01*
G01X1225814Y-470003D01*
G01X1225814Y-236003D01*
G01X1224061Y-224936D01*
G01X1218974Y-214952D01*
G01X1211051Y-207029D01*
G01X1201067Y-201942D01*
G01X1190000Y-200189D01*
G01X1058514Y-200189D01*
G01X1058514Y-175210D01*
G01X1067612Y-162839D01*
G01X1073621Y-148706D01*
G01X1076218Y-133571D01*
G01X1075264Y-118244D01*
G01X1070810Y-103547D01*
G01X1063095Y-90269D01*
G01X1052532Y-79122D01*
G01X1039689Y-70703D01*
G01X1025253Y-65464D01*
G01X1010000Y-63686D01*
G01X994747Y-65464D01*
G01X980311Y-70703D01*
G01X967468Y-79122D01*
G01X956906Y-90269D01*
G01X949190Y-103547D01*
G01X944736Y-118244D01*
G01X943782Y-133571D01*
G01X946379Y-148706D01*
G01X952388Y-162839D01*
G01X961486Y-175210D01*
G01X961486Y-200189D01*
G01X830000Y-200189D01*
G01X818933Y-201942D01*
G01X808949Y-207029D01*
G01X801026Y-214952D01*
G01X795939Y-224936D01*
G01X794186Y-236003D01*
G01X794186Y-470003D01*
G01X335025Y-470003D01*
G01X338977Y-466051D01*
G01X344064Y-456067D01*
G01X345816Y-445000D01*
G01X345816Y-355000D01*
G01X344064Y-343933D01*
G01X338977Y-333949D01*
G01X331053Y-326026D01*
G01X321070Y-320939D01*
G01X310002Y-319186D01*
G01X230003Y-319186D01*
G01X218362Y-321131D01*
G01X207986Y-326753D01*
G01X200000Y-335443D01*
G01X195105Y-329461D01*
G01X189042Y-324669D01*
G01X194132Y-314505D01*
G01X197412Y-303621D01*
G01X198785Y-292336D01*
G01X259007Y-232114D01*
G01X678300Y-232114D01*
G01X690856Y-230461D01*
G01X702557Y-225614D01*
G01X712604Y-217905D01*
G01X993105Y62595D01*
G01X1000814Y72643D01*
G01X1005661Y84344D01*
G01X1007314Y96900D01*
G01X1007314Y243200D01*
G01X1008526Y243200D01*
G01X1008526Y156800D01*
G01X1010279Y145733D01*
G01X1015366Y135749D01*
G01X1023289Y127826D01*
G01X1033273Y122739D01*
G01X1044340Y120986D01*
G01X1124987Y120986D01*
G01X1134601Y122300D01*
G01X1143509Y126147D01*
G01X1151058Y132244D01*
G01X1156693Y140144D01*
G01X1160000Y149266D01*
G01X1163307Y140144D01*
G01X1168942Y132244D01*
G01X1176491Y126147D01*
G01X1185399Y122300D01*
G01X1195013Y120986D01*
G01X1263669Y120986D01*
G01X1271211Y107153D01*
G01X1281803Y95490D01*
G01X1294847Y86654D01*
G01X1309607Y81145D01*
G01X1325251Y79273D01*
G01X1340894Y81145D01*
G01X1355655Y86654D01*
G01X1368699Y95490D01*
G01X1379291Y107153D01*
G01X1386833Y120986D01*
G01X1439987Y120986D01*
G01X1449601Y122300D01*
G01X1458509Y126147D01*
G01X1466058Y132244D01*
G01X1471693Y140144D01*
G01X1475000Y149266D01*
G01X1478806Y139228D01*
G01X1485416Y130768D01*
G01X1494236Y124648D01*
G01X1494236Y-207240D01*
G01X1494236Y-207240D01*
G01X1485138Y-219611D01*
G01X1479129Y-233744D01*
G01X1476532Y-248879D01*
G01X1477486Y-264206D01*
G01X1481940Y-278903D01*
G01X1489656Y-292181D01*
G01X1500218Y-303328D01*
G01X1513061Y-311747D01*
G01X1527497Y-316986D01*
G01X1542750Y-318764D01*
G01X1558003Y-316986D01*
G01X1572439Y-311747D01*
G01X1585282Y-303328D01*
G01X1595845Y-292181D01*
G01X1603560Y-278903D01*
G01X1608014Y-264206D01*
G01X1608968Y-248879D01*
G01X1606371Y-233744D01*
G01X1600362Y-219611D01*
G01X1591264Y-207240D01*
G01X1591264Y120991D01*
G01X1602186Y122891D01*
G01X1612003Y128040D01*
G01X1619776Y135945D01*
G01X1624759Y145848D01*
G01X1626474Y156800D01*
G01X1626474Y243200D01*
G01X1624721Y254268D01*
G01X1619634Y264251D01*
G01X1611711Y272175D01*
G01X1601727Y277262D01*
G01X1590660Y279014D01*
G01X1510013Y279014D01*
G01X1500399Y277700D01*
G01X1491491Y273853D01*
G01X1483942Y267756D01*
G01X1478308Y259856D01*
G01X1475000Y250734D01*
G01X1471693Y259856D01*
G01X1466058Y267756D01*
G01X1458509Y273853D01*
G01X1449601Y277700D01*
G01X1439987Y279014D01*
G01X1359340Y279014D01*
G01X1348273Y277262D01*
G01X1338289Y272175D01*
G01X1330366Y264251D01*
G01X1325279Y254268D01*
G01X1323526Y243200D01*
G01X1323526Y215922D01*
G01X1311474Y227973D01*
G01X1311474Y243200D01*
G01X1309721Y254268D01*
G01X1304634Y264251D01*
G01X1296711Y272175D01*
G01X1286727Y277262D01*
G01X1275660Y279014D01*
G01X1195013Y279014D01*
G01X1185399Y277700D01*
G01X1176491Y273853D01*
G01X1168942Y267756D01*
G01X1163307Y259856D01*
G01X1160000Y250734D01*
G01X1156693Y259856D01*
G01X1151058Y267756D01*
G01X1143509Y273853D01*
G01X1134601Y277700D01*
G01X1124987Y279014D01*
G01X1044340Y279014D01*
G01X1033273Y277262D01*
G01X1023289Y272175D01*
G01X1015366Y264251D01*
G01X1010279Y254268D01*
G01X1008526Y243200D01*
G01X1007314Y243200D01*
G01X1007314Y510690D01*
G01X1016412Y523061D01*
G01X1022421Y537194D01*
G01X1025018Y552329D01*
G01X1024064Y567656D01*
G01X1019610Y582353D01*
G01X1011894Y595631D01*
G01X1001332Y606778D01*
G01X988489Y615197D01*
G01X974053Y620436D01*
G01X958800Y622214D01*
G01X943547Y620436D01*
G01X929111Y615197D01*
G01X916268Y606778D01*
G01X905705Y595631D01*
G01X897990Y582353D01*
G01X893536Y567656D01*
G01X892582Y552329D01*
G01X895179Y537194D01*
G01X901188Y523061D01*
G01X910286Y510690D01*
G01X910286Y116995D01*
G01X658205Y-135086D01*
G01X658205Y-135086D01*
G01X238912Y-135086D01*
G01X226355Y-136739D01*
G01X214655Y-141586D01*
G01X204607Y-149296D01*
G01X130176Y-223727D01*
G01X115275Y-225965D01*
G01X101265Y-231509D01*
G01X88868Y-240072D01*
G01X78724Y-251213D01*
G01X71357Y-264356D01*
G01X67146Y-278823D01*
G01X66311Y-293867D01*
G01X68892Y-308712D01*
G01X74759Y-322590D01*
G01X66320Y-328130D01*
G01X59762Y-335805D01*
G01X55607Y-345006D01*
G01X54184Y-355000D01*
G01X54184Y-445000D01*
G01X-461486Y-445000D01*
G01X-461486Y180010D01*
G01X183686Y180010D01*
G01X185464Y164756D01*
G01X190703Y150321D01*
G01X199122Y137478D01*
G01X210269Y126915D01*
G01X223547Y119200D01*
G01X238244Y114746D01*
G01X253571Y113792D01*
G01X268706Y116389D01*
G01X282839Y122398D01*
G01X295210Y131496D01*
G01X300203Y131496D01*
G01X303408Y123119D01*
G01X308594Y115800D01*
G01X315435Y110000D01*
G01X306745Y102014D01*
G01X301123Y91638D01*
G01X299178Y79998D01*
G01X299178Y-2D01*
G01X300931Y-11069D01*
G01X306018Y-21053D01*
G01X313942Y-28976D01*
G01X323925Y-34063D01*
G01X334992Y-35816D01*
G01X424992Y-35816D01*
G01X436059Y-34063D01*
G01X446043Y-28976D01*
G01X453966Y-21053D01*
G01X459053Y-11069D01*
G01X460806Y-2D01*
G01X460806Y79998D01*
G01X458862Y91638D01*
G01X453239Y102014D01*
G01X444550Y110000D01*
G01X451389Y115798D01*
G01X456574Y123114D01*
G01X459780Y131488D01*
G01X520213Y131488D01*
G01X523418Y123114D01*
G01X528603Y115798D01*
G01X535443Y110000D01*
G01X526753Y102014D01*
G01X521131Y91638D01*
G01X519186Y79998D01*
G01X519186Y-2D01*
G01X520939Y-11069D01*
G01X526026Y-21053D01*
G01X533949Y-28976D01*
G01X543933Y-34063D01*
G01X555000Y-35816D01*
G01X645000Y-35816D01*
G01X656067Y-34063D01*
G01X666051Y-28976D01*
G01X673974Y-21053D01*
G01X679061Y-11069D01*
G01X680814Y-2D01*
G01X680814Y79998D01*
G01X678869Y91638D01*
G01X673247Y102014D01*
G01X664557Y110000D01*
G01X673247Y117986D01*
G01X678869Y128362D01*
G01X680814Y140003D01*
G01X680814Y220002D01*
G01X679061Y231069D01*
G01X673974Y241053D01*
G01X666051Y248976D01*
G01X656067Y254063D01*
G01X645000Y255816D01*
G01X555000Y255816D01*
G01X543304Y253853D01*
G01X532890Y248177D01*
G01X524901Y239411D01*
G01X520213Y228516D01*
G01X459780Y228516D01*
G01X459780Y228516D01*
G01X455091Y239411D01*
G01X447102Y248177D01*
G01X436689Y253853D01*
G01X424992Y255816D01*
G01X334992Y255816D01*
G01X323298Y253853D01*
G01X312885Y248179D01*
G01X304896Y239415D01*
G01X300207Y228524D01*
G01X295210Y228524D01*
G01X282839Y237622D01*
G01X268706Y243631D01*
G01X253571Y246228D01*
G01X238244Y245273D01*
G01X223547Y240819D01*
G01X210269Y233104D01*
G01X199122Y222542D01*
G01X190703Y209699D01*
G01X185464Y195263D01*
G01X183686Y180010D01*
G01X-461486Y180010D01*
G01X-461486Y245105D01*
G01X-433805Y272786D01*
G01X-371610Y272786D01*
G01X-358526Y263288D01*
G01X-343533Y257238D01*
G01X-327521Y254996D01*
G01X-311443Y256695D01*
G01X-296254Y262234D01*
G01X-282856Y271285D01*
G01X-272047Y283309D01*
G01X-264469Y297591D01*
G01X-260572Y313282D01*
G01X-260589Y329450D01*
G01X-264517Y345133D01*
G01X-272123Y359400D01*
G01X-264972Y372517D01*
G01X-260938Y386901D01*
G01X-260227Y401824D01*
G01X-262874Y416527D01*
G01X-268745Y430265D01*
G01X-277543Y442339D01*
G01X-288820Y452138D01*
G01X-302004Y459164D01*
G01X-316426Y463060D01*
G01X-331355Y463629D01*
G01X-346032Y460842D01*
G01X-359713Y454840D01*
G01X-371703Y445927D01*
G01X-381394Y434557D01*
G01X-388293Y421307D01*
G01X-392052Y406848D01*
G01X-393486Y405414D01*
G01X-468646Y405414D01*
G01X-481202Y403761D01*
G01X-492903Y398914D01*
G01X-502951Y391204D01*
G01X-579905Y314250D01*
G01X-587614Y304203D01*
G01X-592461Y292502D01*
G01X-594114Y279946D01*
G01X-1695686Y279946D01*
G01X-1695686Y465000D01*
G01X-85816Y465000D01*
G01X-85816Y375000D01*
G01X-84064Y363933D01*
G01X-78977Y353949D01*
G01X-71053Y346026D01*
G01X-61070Y340939D01*
G01X-50002Y339186D01*
G01X29997Y339186D01*
G01X41638Y341131D01*
G01X52014Y346753D01*
G01X60000Y355443D01*
G01X66435Y348033D01*
G01X74640Y342648D01*
G01X83998Y339693D01*
G01X83998Y335210D01*
G01X74900Y322839D01*
G01X68891Y308706D01*
G01X66294Y293571D01*
G01X67248Y278244D01*
G01X71702Y263547D01*
G01X79417Y250269D01*
G01X89980Y239122D01*
G01X102823Y230703D01*
G01X117258Y225464D01*
G01X132512Y223686D01*
G01X147765Y225464D01*
G01X162201Y230703D01*
G01X175044Y239122D01*
G01X185606Y250269D01*
G01X193321Y263547D01*
G01X197775Y278244D01*
G01X198730Y293571D01*
G01X196133Y308706D01*
G01X190124Y322839D01*
G01X181026Y335210D01*
G01X181026Y340925D01*
G01X191025Y346006D01*
G01X198963Y353931D01*
G01X204060Y363922D01*
G01X205816Y375000D01*
G01X205816Y465000D01*
G01X203852Y476696D01*
G01X198176Y487110D01*
G01X189411Y495099D01*
G01X178516Y499787D01*
G01X178516Y533971D01*
G01X300982Y533971D01*
G01X301936Y518644D01*
G01X306390Y503947D01*
G01X314105Y490669D01*
G01X324668Y479522D01*
G01X337511Y471103D01*
G01X351947Y465864D01*
G01X367200Y464086D01*
G01X382453Y465864D01*
G01X396889Y471103D01*
G01X409732Y479522D01*
G01X420294Y490669D01*
G01X428010Y503947D01*
G01X432464Y518644D01*
G01X433418Y533971D01*
G01X430821Y549106D01*
G01X424812Y563239D01*
G01X415714Y575610D01*
G01X415714Y591905D01*
G01X451136Y627327D01*
G01X466318Y629642D01*
G01X480559Y635386D01*
G01X493098Y644252D01*
G01X503261Y655765D01*
G01X510504Y669306D01*
G01X514437Y684150D01*
G01X514851Y699502D01*
G01X511722Y714536D01*
G01X505220Y728448D01*
G01X495691Y740491D01*
G01X495691Y740491D01*
G01X483648Y750020D01*
G01X469736Y756523D01*
G01X454701Y759651D01*
G01X439350Y759237D01*
G01X424506Y755304D01*
G01X410964Y748061D01*
G01X399452Y737898D01*
G01X390586Y725360D01*
G01X384841Y711118D01*
G01X382527Y695936D01*
G01X332895Y646305D01*
G01X325186Y636257D01*
G01X320339Y624556D01*
G01X318686Y612000D01*
G01X318686Y575610D01*
G01X309588Y563239D01*
G01X303579Y549106D01*
G01X300982Y533971D01*
G01X178516Y533971D01*
G01X178516Y560213D01*
G01X189411Y564901D01*
G01X198176Y572890D01*
G01X203852Y583304D01*
G01X205816Y595000D01*
G01X205816Y685000D01*
G01X204063Y696067D01*
G01X198976Y706051D01*
G01X191053Y713974D01*
G01X181069Y719061D01*
G01X170002Y720814D01*
G01X90002Y720814D01*
G01X78362Y718869D01*
G01X67986Y713247D01*
G01X60000Y704557D01*
G01X52014Y713247D01*
G01X41638Y718869D01*
G01X29997Y720814D01*
G01X-50002Y720814D01*
G01X-61070Y719061D01*
G01X-71053Y713974D01*
G01X-78977Y706051D01*
G01X-84064Y696067D01*
G01X-85816Y685000D01*
G01X-85816Y595000D01*
G01X-84064Y583933D01*
G01X-78977Y573949D01*
G01X-71053Y566026D01*
G01X-61070Y560939D01*
G01X-50002Y559186D01*
G01X29997Y559186D01*
G01X41638Y561131D01*
G01X52014Y566753D01*
G01X60000Y575443D01*
G01X65798Y568603D01*
G01X73114Y563418D01*
G01X81488Y560213D01*
G01X81488Y499787D01*
G01X73114Y496582D01*
G01X65798Y491397D01*
G01X60000Y484557D01*
G01X52014Y493247D01*
G01X41638Y498869D01*
G01X29997Y500814D01*
G01X29997Y500814D01*
G01X-50002Y500814D01*
G01X-61070Y499061D01*
G01X-71053Y493974D01*
G01X-78977Y486051D01*
G01X-84064Y476067D01*
G01X-85816Y465000D01*
G01X-1695686Y465000D01*
G01X-1695686Y551105D01*
G01X-1366876Y879915D01*
G01X-385184Y879915D01*
G01X-385072Y864213D01*
G01X-381271Y848978D01*
G01X-373994Y835064D01*
G01X-363650Y823251D01*
G01X-350819Y814200D01*
G01X-336219Y808421D01*
G01X-320670Y806236D01*
G01X-305043Y807768D01*
G01X-290214Y812932D01*
G01X-277015Y821437D01*
G01X-264912Y813656D01*
G01X-251415Y808668D01*
G01X-237161Y806709D01*
G01X-222819Y807871D01*
G01X-209066Y812099D01*
G01X-196548Y819193D01*
G01X-185855Y828821D01*
G01X-177491Y840529D01*
G01X-171848Y853765D01*
G01X-169194Y867907D01*
G01X-162414Y874686D01*
G01X179592Y874686D01*
G01X192148Y876339D01*
G01X203849Y881186D01*
G01X213897Y888896D01*
G01X222787Y897786D01*
G01X234936Y897786D01*
G01X247492Y899439D01*
G01X259193Y904285D01*
G01X269240Y911995D01*
G01X304605Y947360D01*
G01X312315Y957407D01*
G01X317162Y969108D01*
G01X318815Y981665D01*
G01X318815Y1007698D01*
G01X327715Y1019724D01*
G01X333693Y1033439D01*
G01X336444Y1048144D01*
G01X335828Y1063093D01*
G01X331878Y1077522D01*
G01X324793Y1090699D01*
G01X314935Y1101953D01*
G01X302805Y1110710D01*
G01X289021Y1116525D01*
G01X274284Y1119103D01*
G01X259344Y1118311D01*
G01X244962Y1114190D01*
G01X231869Y1106951D01*
G01X220733Y1096960D01*
G01X212120Y1084728D01*
G01X206467Y1070876D01*
G01X190577Y1067873D01*
G01X175887Y1061113D01*
G01X163269Y1050998D01*
G01X153475Y1038130D01*
G01X147086Y1023274D01*
G01X144484Y1007314D01*
G01X-233018Y1007314D01*
G01X-233018Y1007314D01*
G01X-245574Y1005661D01*
G01X-257275Y1000814D01*
G01X-267322Y993105D01*
G01X-321618Y938808D01*
G01X-337135Y936401D01*
G01X-351650Y930413D01*
G01X-364351Y921180D01*
G01X-374525Y909220D01*
G01X-381602Y895203D01*
G01X-385184Y879915D01*
G01X-1366876Y879915D01*
G01X65995Y2312786D01*
G01X484500Y2312786D01*
G01X484500Y2312786D01*
G01X497056Y2314439D01*
G01X508757Y2319286D01*
G01X518804Y2326995D01*
G01X574904Y2383095D01*
G01X582614Y2393143D01*
G01X587461Y2404844D01*
G01X589114Y2417400D01*
G01X589114Y2473805D01*
G01X626995Y2511686D01*
G01X852390Y2511686D01*
G01X864761Y2502588D01*
G01X878894Y2496579D01*
G01X894029Y2493982D01*
G01X909356Y2494936D01*
G01X924053Y2499391D01*
G01X937331Y2507106D01*
G01X948478Y2517668D01*
G01X956897Y2530511D01*
G01X962136Y2544947D01*
G01X963914Y2560200D01*
G01X962136Y2575454D01*
G01X956897Y2589889D01*
G01X948478Y2602732D01*
G01X937331Y2613295D01*
G01X924053Y2621010D01*
G01X909356Y2625464D01*
G01X894029Y2626418D01*
G01X878894Y2623821D01*
G01X864761Y2617812D01*
G01X852390Y2608714D01*
G01X606900Y2608714D01*
G01X594344Y2607061D01*
G01X582643Y2602214D01*
G01X572595Y2594505D01*
G01X506295Y2528205D01*
G01X498586Y2518157D01*
G01X493739Y2506456D01*
G01X492086Y2493900D01*
G01X492086Y2437495D01*
G01X464405Y2409814D01*
G01X45900Y2409814D01*
G01X33344Y2408161D01*
G01X21643Y2403314D01*
G01X11596Y2395605D01*
G01X-1778505Y605505D01*
G01X-1786214Y595457D01*
G01X-1791061Y583756D01*
G01X-1792714Y571200D01*
G01X-1792714Y121710D01*
G01X-1801812Y109339D01*
G01X-1807821Y95206D01*
G01X-1810418Y80071D01*
G01X-1964186Y80071D01*
G01X-1964186Y780043D01*
G01X-1950802Y771111D01*
G01X-1936112Y764545D01*
G01X-1920530Y760530D01*
G01X-1904496Y759179D01*
G01X-1774496Y759179D01*
G01X-1755804Y761020D01*
G01X-1737830Y766472D01*
G01X-1721265Y775326D01*
G01X-1706746Y787242D01*
G01X-1694830Y801761D01*
G01X-1685976Y818326D01*
G01X-1680523Y836300D01*
G01X-1678682Y854992D01*
G01X-1680523Y873685D01*
G01X-1685976Y891659D01*
G01X-1694830Y908224D01*
G01X-1706746Y922743D01*
G01X-1721265Y934659D01*
G01X-1737830Y943513D01*
G01X-1755804Y948965D01*
G01X-1774496Y950806D01*
G01X-1904496Y950806D01*
G01X-1920530Y949455D01*
G01X-1936112Y945440D01*
G01X-1950802Y938874D01*
G01X-1964186Y929942D01*
G01X-1964186Y2070058D01*
G01X-1950802Y2061126D01*
G01X-1936112Y2054560D01*
G01X-1920530Y2050545D01*
G01X-1904496Y2049194D01*
G01X-1774496Y2049194D01*
G01X-1755804Y2051035D01*
G01X-1737830Y2056487D01*
G01X-1721265Y2065341D01*
G01X-1706746Y2077257D01*
G01X-1694830Y2091776D01*
G01X-1685976Y2108341D01*
G01X-1680523Y2126315D01*
G01X-1678682Y2145008D01*
G01X-1680523Y2163700D01*
G01X-1685976Y2181674D01*
G01X-1694830Y2198239D01*
G01X-1706746Y2212758D01*
G01X-1721265Y2224674D01*
G01X-1737830Y2233528D01*
G01X-1755804Y2238980D01*
G01X-1774496Y2240822D01*
G01X-1904496Y2240822D01*
G01X-1920530Y2239470D01*
G01X-1936112Y2235455D01*
G01X-1950802Y2228889D01*
G01X-1964186Y2219957D01*
G01X-1964186Y2700000D01*
G01X-1877235Y2700000D01*
G01X-1875256Y2673584D01*
G01X-1869361Y2647759D01*
G01X-1859683Y2623100D01*
G01X-1846439Y2600160D01*
G01X-1829923Y2579449D01*
G01X-1810504Y2561432D01*
G01X-1788618Y2546510D01*
G01X-1764751Y2535016D01*
G01X-1739438Y2527208D01*
G01X-1713245Y2523260D01*
G01X-1686755Y2523260D01*
G01X-1660561Y2527208D01*
G01X-1635249Y2535016D01*
G01X-1611382Y2546510D01*
G01X-1589495Y2561432D01*
G01X-1584583Y2565990D01*
G01X-343308Y2565990D01*
G01X-341371Y2546322D01*
G01X-335634Y2527410D01*
G01X-326317Y2509980D01*
G01X-313780Y2494703D01*
G01X-298503Y2482166D01*
G01X-281074Y2472850D01*
G01X-262162Y2467113D01*
G01X-242494Y2465176D01*
G01X-222826Y2467113D01*
G01X-203914Y2472850D01*
G01X-186485Y2482166D01*
G01X-171208Y2494703D01*
G01X-158670Y2509980D01*
G01X-149354Y2527410D01*
G01X-143617Y2546322D01*
G01X-141680Y2565990D01*
G01X-141680Y2565990D01*
G01X141680Y2565990D01*
G01X143617Y2546322D01*
G01X149354Y2527410D01*
G01X158670Y2509980D01*
G01X171208Y2494703D01*
G01X186485Y2482166D01*
G01X203914Y2472850D01*
G01X222826Y2467113D01*
G01X242494Y2465176D01*
G01X262162Y2467113D01*
G01X281074Y2472850D01*
G01X298503Y2482166D01*
G01X313780Y2494703D01*
G01X326317Y2509980D01*
G01X335634Y2527410D01*
G01X341371Y2546322D01*
G01X343308Y2565990D01*
G01X343308Y2565990D01*
G01X341371Y2585657D01*
G01X335634Y2604569D01*
G01X326317Y2621999D01*
G01X313780Y2637276D01*
G01X298503Y2649813D01*
G01X281074Y2659129D01*
G01X262162Y2664866D01*
G01X242494Y2666803D01*
G01X222826Y2664866D01*
G01X203914Y2659129D01*
G01X186485Y2649813D01*
G01X171208Y2637276D01*
G01X158670Y2621999D01*
G01X149354Y2604569D01*
G01X143617Y2585657D01*
G01X141680Y2565990D01*
G01X-141680Y2565990D01*
G01X-143617Y2585657D01*
G01X-149354Y2604569D01*
G01X-158670Y2621999D01*
G01X-171208Y2637276D01*
G01X-186485Y2649813D01*
G01X-203914Y2659129D01*
G01X-222826Y2664866D01*
G01X-242494Y2666803D01*
G01X-262162Y2664866D01*
G01X-281074Y2659129D01*
G01X-298503Y2649813D01*
G01X-313780Y2637276D01*
G01X-326317Y2621999D01*
G01X-335634Y2604569D01*
G01X-341371Y2585657D01*
G01X-343308Y2565990D01*
G01X-1584583Y2565990D01*
G01X-1570077Y2579449D01*
G01X-1553561Y2600160D01*
G01X-1540316Y2623100D01*
G01X-1530639Y2647759D01*
G01X-1524744Y2673584D01*
G01X-1522765Y2700000D01*
G01X-1522765Y2700000D01*
G01X1522765Y2700000D01*
G01X1524744Y2673584D01*
G01X1530639Y2647759D01*
G01X1540316Y2623100D01*
G01X1553561Y2600160D01*
G01X1570077Y2579449D01*
G01X1589495Y2561432D01*
G01X1611382Y2546510D01*
G01X1635249Y2535016D01*
G01X1660561Y2527208D01*
G01X1686755Y2523260D01*
G01X1713245Y2523260D01*
G01X1739438Y2527208D01*
G01X1764751Y2535016D01*
G01X1788618Y2546510D01*
G01X1810504Y2561432D01*
G01X1829923Y2579449D01*
G01X1846439Y2600160D01*
G01X1859683Y2623100D01*
G01X1869361Y2647759D01*
G01X1875256Y2673584D01*
G01X1877235Y2700000D01*
G01X1875256Y2726415D01*
G01X1869361Y2752241D01*
G01X1859683Y2776899D01*
G01X1846439Y2799840D01*
G01X1829923Y2820551D01*
G01X1810504Y2838568D01*
G01X1788618Y2853490D01*
G01X1764751Y2864984D01*
G01X1739438Y2872792D01*
G01X1713245Y2876740D01*
G01X1686755Y2876740D01*
G01X1660561Y2872792D01*
G01X1635249Y2864984D01*
G01X1611382Y2853490D01*
G01X1589495Y2838568D01*
G01X1570077Y2820551D01*
G01X1553561Y2799840D01*
G01X1540316Y2776899D01*
G01X1530639Y2752241D01*
G01X1524744Y2726415D01*
G01X1522765Y2700000D01*
G01X1522765Y2700000D01*
G01X-1522765Y2700000D01*
G01X-1524744Y2726415D01*
G01X-1530639Y2752241D01*
G01X-1540316Y2776899D01*
G01X-1553561Y2799840D01*
G01X-1570077Y2820551D01*
G01X-1589495Y2838568D01*
G01X-1611382Y2853490D01*
G01X-1622845Y2859010D01*
G01X-463297Y2859010D01*
G01X-463297Y2809010D01*
G01X-461360Y2789343D01*
G01X-455623Y2770431D01*
G01X-446307Y2753001D01*
G01X-433770Y2737724D01*
G01X-418493Y2725187D01*
G01X-401063Y2715871D01*
G01X-382151Y2710134D01*
G01X-362483Y2708197D01*
G01X-342816Y2710134D01*
G01X-323904Y2715871D01*
G01X-306474Y2725187D01*
G01X-291197Y2737724D01*
G01X-278660Y2753001D01*
G01X-269344Y2770431D01*
G01X-263607Y2789343D01*
G01X-261670Y2809010D01*
G01X-261670Y2809010D01*
G01X-261670Y2859010D01*
G01X261670Y2859010D01*
G01X261670Y2809010D01*
G01X263607Y2789343D01*
G01X269344Y2770431D01*
G01X278660Y2753001D01*
G01X291197Y2737724D01*
G01X306474Y2725187D01*
G01X323904Y2715871D01*
G01X342816Y2710134D01*
G01X362483Y2708197D01*
G01X382151Y2710134D01*
G01X401063Y2715871D01*
G01X418493Y2725187D01*
G01X433770Y2737724D01*
G01X446307Y2753001D01*
G01X455623Y2770431D01*
G01X461360Y2789343D01*
G01X463297Y2809010D01*
G01X463297Y2809010D01*
G01X463297Y2859010D01*
G01X461360Y2878678D01*
G01X455623Y2897590D01*
G01X446307Y2915019D01*
G01X433770Y2930296D01*
G01X418493Y2942834D01*
G01X401063Y2952150D01*
G01X382151Y2957887D01*
G01X362483Y2959824D01*
G01X342816Y2957887D01*
G01X323904Y2952150D01*
G01X306474Y2942834D01*
G01X291197Y2930296D01*
G01X278660Y2915019D01*
G01X269344Y2897590D01*
G01X263607Y2878678D01*
G01X261670Y2859010D01*
G01X-261670Y2859010D01*
G01X-263607Y2878678D01*
G01X-269344Y2897590D01*
G01X-278660Y2915019D01*
G01X-291197Y2930296D01*
G01X-306474Y2942834D01*
G01X-323904Y2952150D01*
G01X-342816Y2957887D01*
G01X-362483Y2959824D01*
G01X-382151Y2957887D01*
G01X-401063Y2952150D01*
G01X-418493Y2942834D01*
G01X-433770Y2930296D01*
G01X-446307Y2915019D01*
G01X-455623Y2897590D01*
G01X-461360Y2878678D01*
G01X-463297Y2859010D01*
G01X-1622845Y2859010D01*
G01X-1635249Y2864984D01*
G01X-1660561Y2872792D01*
G01X-1686755Y2876740D01*
G01X-1713245Y2876740D01*
G01X-1739438Y2872792D01*
G01X-1764751Y2864984D01*
G01X-1788618Y2853490D01*
G01X-1810504Y2838568D01*
G01X-1829923Y2820551D01*
G01X-1846439Y2799840D01*
G01X-1859683Y2776899D01*
G01X-1869361Y2752241D01*
G01X-1875256Y2726415D01*
G01X-1877235Y2700000D01*
G01X-1877235Y2700000D01*
G01X-1964186Y2700000D01*
G01X-1964186Y2964186D01*
G01X1964186Y2964186D01*
G01X1964186Y2219957D01*
G01X1950802Y2228889D01*
G01X1936112Y2235455D01*
G01X1920530Y2239470D01*
G01X1904496Y2240822D01*
G01X1774496Y2240822D01*
G01X1755804Y2238980D01*
G01X1737830Y2233528D01*
G01X1721265Y2224674D01*
G01X1706746Y2212758D01*
G01X1694830Y2198239D01*
G01X1685976Y2181674D01*
G01X1680523Y2163700D01*
G01X1678682Y2145008D01*
G01X1680523Y2126315D01*
G01X1685976Y2108341D01*
G01X1694830Y2091776D01*
G01X1706746Y2077257D01*
G01X1721265Y2065341D01*
G01X1737830Y2056487D01*
G01X1755804Y2051035D01*
G01X1774496Y2049194D01*
G01X1904496Y2049194D01*
G01X1920530Y2050545D01*
G01X1936112Y2054560D01*
G01X1950802Y2061126D01*
G01X1964186Y2070058D01*
G37*
G54D10*
G01X1964186Y2070058D02*
G01X1964186Y929942D01*
G03X1904496Y950806I-59690J-74950D01*
G01X1774496Y950806D01*
G03X1774496Y759179I0J-95814D01*
G01X1904496Y759179D01*
G03X1964186Y780043I0J95814D01*
G01X1964186Y-780043D01*
G03X1904496Y-759179I-59690J-74950D01*
G01X1774496Y-759179D01*
G03X1774496Y-950806I0J-95814D01*
G01X1904496Y-950806D01*
G03X1964186Y-929942I0J95814D01*
G01X1964186Y-2070058D01*
G03X1904496Y-2049194I-59690J-74950D01*
G01X1774496Y-2049194D01*
G03X1774496Y-2240822I0J-95814D01*
G01X1904496Y-2240822D01*
G03X1964186Y-2219957I0J95814D01*
G01X1964186Y-2964186D01*
G01X-1964186Y-2964186D01*
G01X-1964186Y-2219957D01*
G03X-1904496Y-2240822I59690J74949D01*
G01X-1774496Y-2240822D01*
G03X-1774496Y-2049194I0J95814D01*
G01X-1904496Y-2049194D01*
G03X-1964186Y-2070058I0J-95814D01*
G01X-1964186Y-929942D01*
G03X-1904496Y-950806I59690J74949D01*
G01X-1774496Y-950806D01*
G03X-1774496Y-759179I0J95814D01*
G01X-1904496Y-759179D01*
G03X-1964186Y-780043I0J-95814D01*
G01X-1964186Y780043D01*
G03X-1904496Y759179I59690J74949D01*
G01X-1774496Y759179D01*
G03X-1774496Y950806I0J95814D01*
G01X-1904496Y950806D01*
G03X-1964186Y929942I0J-95814D01*
G01X-1964186Y2070058D01*
G03X-1904496Y2049194I59690J74949D01*
G01X-1774496Y2049194D01*
G03X-1774496Y2240822I0J95814D01*
G01X-1904496Y2240822D01*
G03X-1964186Y2219957I0J-95814D01*
G01X-1964186Y2964186D01*
G01X1964186Y2964186D01*
G01X1964186Y2219957D01*
G03X1904496Y2240822I-59690J-74950D01*
G01X1774496Y2240822D01*
G03X1774496Y2049194I0J-95814D01*
G01X1904496Y2049194D01*
G03X1964186Y2070058I0J95814D01*
G01X-1877235Y2700000D02*
G03X-1522765Y2700000I177235J0D01*
G03X-1877235Y2700000I-177235J0D01*
G01X-1877235Y-2700000D02*
G03X-1522765Y-2700000I177235J0D01*
G03X-1877235Y-2700000I-177235J0D01*
G01X484500Y2312786D02*
G03X518804Y2326995I0J48514D01*
G01X574904Y2383095D01*
G03X589114Y2417400I-34305J34305D01*
G01X589114Y2473805D01*
G01X626995Y2511686D01*
G01X852390Y2511686D01*
G03X963914Y2560200I45210J48514D01*
G03X852390Y2608714I-66314J0D01*
G01X606900Y2608714D01*
G03X572595Y2594505I0J-48514D01*
G01X506295Y2528205D01*
G03X492086Y2493900I34305J-34305D01*
G01X492086Y2437495D01*
G01X464405Y2409814D01*
G01X45900Y2409814D01*
G03X11596Y2395605I0J-48514D01*
G01X-1778505Y605505D01*
G03X-1792714Y571200I34305J-34305D01*
G01X-1792714Y121710D01*
G03X-1744200Y10186I48514J-45210D01*
G03X-1695686Y121710I0J66314D01*
G01X-1695686Y551105D01*
G01X65995Y2312786D01*
G01X484500Y2312786D01*
G01X-290673Y-1185536D02*
G03X-177509Y-1230091I66273J2336D01*
G03X-222064Y-1116927I-46891J46891D01*
G01X-694995Y-643995D01*
G03X-729300Y-629786I-34305J-34305D01*
G01X-786090Y-629786D01*
G03X-897614Y-678300I-45210J-48514D01*
G03X-786090Y-726814I66314J0D01*
G01X-749395Y-726814D01*
G01X-290673Y-1185536D01*
G01X-607353Y-1050147D02*
G03X-562798Y-1163311I46891J-46891D01*
G01X-457522Y-1268587D01*
G03X-338829Y-1293271I64822J13987D01*
G03X-400182Y-1188709I-53871J38671D01*
G01X-494189Y-1094702D01*
G03X-607353Y-1050147I-66273J-2336D01*
G01X-594114Y-616546D02*
G03X-579904Y-650850I48514J0D01*
G01X174940Y-1405695D01*
G03X97590Y-1415186I-32140J-58005D01*
G01X72693Y-1415186D01*
G03X38389Y-1429395I0J-48514D01*
G01X11707Y-1456077D01*
G03X-32848Y-1569241I2336J-66273D01*
G03X80316Y-1524686I46891J46891D01*
G01X92788Y-1512214D01*
G01X97590Y-1512214D01*
G03X183631Y-1515953I45210J48514D01*
G03X200805Y-1431560I-40831J52253D01*
G01X236550Y-1467305D01*
G03X270854Y-1481514I34305J34305D01*
G01X544914Y-1481514D01*
G01X591736Y-1528336D01*
G03X677299Y-1596213I66164J-4464D01*
G03X710241Y-1492082I-19400J63413D01*
G03X722836Y-1421544I-48637J45078D01*
G03X663941Y-1380732I-61232J-25461D01*
G01X646305Y-1363095D01*
G03X612000Y-1348886I-34305J-34305D01*
G01X305695Y-1348886D01*
G01X-461486Y-581705D01*
G01X-461486Y245105D01*
G01X-433805Y272786D01*
G01X-371610Y272786D01*
G03X-282856Y271285I45210J48514D01*
G03X-272123Y359400I-43544J50015D01*
G03X-302004Y459164I-54276J38100D01*
G03X-392052Y406848I-24396J-61664D01*
G01X-393486Y405414D01*
G01X-468646Y405414D01*
G03X-502951Y391204I0J-48514D01*
G01X-579905Y314250D01*
G03X-594114Y279946I34305J-34305D01*
G01X-594114Y-616546D01*
G01X-528312Y-2807503D02*
G01X-528312Y-2867503D01*
G03X-336685Y-2867503I95814J0D01*
G01X-336685Y-2807503D01*
G03X-528312Y-2807503I-95814J0D01*
G01X-341685Y-2372488D02*
G03X-523312Y-2372488I-90814J0D01*
G01X-523312Y-2462488D01*
G03X-351299Y-2503155I90814J0D01*
G03X-218667Y-2477859I62311J33648D01*
G03X-341685Y-2422201I-70321J8352D01*
G01X-341685Y-2372488D01*
G01X-261670Y2809010D02*
G01X-261670Y2859010D01*
G03X-463297Y2859010I-100814J0D01*
G01X-463297Y2809010D01*
G03X-261670Y2809010I100814J0D01*
G01X-233018Y1007314D02*
G03X-267322Y993105I0J-48514D01*
G01X-321618Y938808D01*
G03X-381271Y848978I2336J-66273D01*
G03X-277015Y821437I61989J23557D01*
G03X-209066Y812099I41703J51560D01*
G03X-169194Y867907I-26247J60899D01*
G01X-162414Y874686D01*
G01X179592Y874686D01*
G03X213897Y888896I0J48514D01*
G01X222787Y897786D01*
G01X234936Y897786D01*
G03X269240Y911995I0J48514D01*
G01X304605Y947360D01*
G03X318815Y981665I-34304J34305D01*
G01X318815Y1007698D01*
G03X302805Y1110710I-48514J45210D01*
G03X206467Y1070876I-32504J-57802D01*
G03X144484Y1007314I4279J-66176D01*
G01X-233018Y1007314D01*
G01X-141680Y2565990D02*
G03X-343308Y2565990I-100814J0D01*
G03X-141680Y2565990I100814J0D01*
G01X-118579Y-2315304D02*
G03X-76486Y-2201252I-3821J66204D01*
G01X-76486Y-2101078D01*
G03X-45986Y-2065660I-5314J35418D01*
G01X-45986Y-1985013D01*
G03X-74266Y-1950000I-35814J0D01*
G03X-45986Y-1914987I-7534J35013D01*
G01X-45986Y-1834340D01*
G03X-81800Y-1798526I-35814J0D01*
G01X-168200Y-1798526D01*
G03X-204014Y-1834340I0J-35814D01*
G01X-204014Y-1914987D01*
G03X-175734Y-1950000I35814J0D01*
G03X-204014Y-1985013I7534J-35013D01*
G01X-204014Y-2065660D01*
G03X-173514Y-2101078I35814J0D01*
G01X-173514Y-2206852D01*
G03X-118579Y-2315304I51114J-42248D01*
G01X29997Y500814D02*
G01X-50002Y500814D01*
G03X-85816Y465000I0J-35814D01*
G01X-85816Y375000D01*
G03X-50002Y339186I35814J0D01*
G01X29997Y339186D01*
G03X60000Y355443I0J35814D01*
G03X83998Y339693I30002J19557D01*
G01X83998Y335210D01*
G03X132512Y223686I48514J-45210D01*
G03X181026Y335210I0J66314D01*
G01X181026Y340925D01*
G03X205816Y375000I-11024J34075D01*
G01X205816Y465000D01*
G03X178516Y499787I-35814J0D01*
G01X178516Y560213D01*
G03X205816Y595000I-8514J34787D01*
G01X205816Y685000D01*
G03X170002Y720814I-35814J0D01*
G01X90002Y720814D01*
G03X60000Y704557I0J-35814D01*
G03X29997Y720814I-30002J-19557D01*
G01X-50002Y720814D01*
G03X-85816Y685000I0J-35814D01*
G01X-85816Y595000D01*
G03X-50002Y559186I35814J0D01*
G01X29997Y559186D01*
G03X60000Y575443I0J35814D01*
G03X81488Y560213I30002J19557D01*
G01X81488Y499787D01*
G03X60000Y484557I8514J-34787D01*
G03X29997Y500814I-30002J-19557D01*
G01X658205Y-135086D02*
G01X238912Y-135086D01*
G03X204607Y-149296I0J-48514D01*
G01X130176Y-223727D01*
G03X74759Y-322590I2336J-66273D01*
G03X54184Y-355000I15239J-32410D01*
G01X54184Y-445000D01*
G03X81484Y-479787I35814J0D01*
G01X81484Y-520213D01*
G03X54184Y-555000I8514J-34787D01*
G01X54184Y-645000D01*
G03X81484Y-679787I35814J0D01*
G01X81484Y-777698D01*
G03X95693Y-812002I48514J0D01*
G01X264990Y-981299D01*
G03X299295Y-995509I34305J34305D01*
G01X689189Y-995509D01*
G01X689189Y-1071994D01*
G03X725003Y-1107808I35814J0D01*
G01X731786Y-1107808D01*
G01X731786Y-1795890D01*
G03X780300Y-1907414I48514J-45210D01*
G03X828814Y-1795890I0J66314D01*
G01X828814Y-1107808D01*
G01X835003Y-1107808D01*
G03X870817Y-1071994I0J35814D01*
G01X870817Y-821995D01*
G03X835003Y-786181I-35814J0D01*
G01X725003Y-786181D01*
G03X689189Y-821995I0J-35814D01*
G01X689189Y-898481D01*
G01X319390Y-898481D01*
G01X178512Y-757603D01*
G01X178512Y-679787D01*
G03X200000Y-664557I-8514J34787D01*
G03X230003Y-680814I30002J19557D01*
G01X310002Y-680814D01*
G03X345816Y-645000I0J35814D01*
G01X345816Y-555000D01*
G03X310002Y-519186I-35814J0D01*
G01X230003Y-519186D01*
G03X200000Y-535443I0J-35814D01*
G03X178512Y-520213I-30002J-19557D01*
G01X178512Y-479787D01*
G03X200000Y-464557I-8514J34787D01*
G03X230003Y-480814I30002J19557D01*
G01X310002Y-480814D01*
G03X345816Y-445000I0J35814D01*
G01X345816Y-355000D01*
G03X310002Y-319186I-35814J0D01*
G01X230003Y-319186D01*
G03X200000Y-335443I0J-35814D01*
G03X189042Y-324669I-30002J-19557D01*
G03X198785Y-292336I-56530J34669D01*
G01X259007Y-232114D01*
G01X678300Y-232114D01*
G03X712604Y-217905I0J48514D01*
G01X993105Y62595D01*
G03X1007314Y96900I-34305J34305D01*
G01X1007314Y510690D01*
G03X958800Y622214I-48514J45210D01*
G03X910286Y510690I0J-66314D01*
G01X910286Y116995D01*
G01X658205Y-135086D01*
G01X223533Y-2101075D02*
G03X254014Y-2065660I-5332J35415D01*
G01X254014Y-1985013D01*
G03X225734Y-1950000I-35814J0D01*
G03X254014Y-1914987I-7534J35013D01*
G01X254014Y-1834340D01*
G03X218200Y-1798526I-35814J0D01*
G01X131800Y-1798526D01*
G03X95986Y-1834340I0J-35814D01*
G01X95986Y-1914987D01*
G03X124266Y-1950000I35814J0D01*
G03X95986Y-1985013I7534J-35013D01*
G01X95986Y-2065660D01*
G03X126505Y-2101081I35814J0D01*
G01X126505Y-2203890D01*
G03X175019Y-2315414I48514J-45210D01*
G03X223533Y-2203890I0J66314D01*
G01X223533Y-2101075D01*
G01X343308Y2565990D02*
G03X141680Y2565990I-100814J0D01*
G03X343308Y2565990I100814J0D01*
G01X459780Y228516D02*
G03X424992Y255816I-34787J-8514D01*
G01X334992Y255816D01*
G03X300207Y228524I0J-35814D01*
G01X295210Y228524D01*
G03X183686Y180010I-45210J-48514D01*
G03X295210Y131496I66314J0D01*
G01X300203Y131496D01*
G03X315435Y110000I34789J8507D01*
G03X299178Y79998I19557J-30002D01*
G01X299178Y-2D01*
G03X334992Y-35816I35814J0D01*
G01X424992Y-35816D01*
G03X460806Y-2I0J35814D01*
G01X460806Y79998D01*
G03X444550Y110000I-35814J0D01*
G03X459780Y131488I-19557J30002D01*
G01X520213Y131488D01*
G03X535443Y110000I34787J8514D01*
G03X519186Y79998I19557J-30002D01*
G01X519186Y-2D01*
G03X555000Y-35816I35814J0D01*
G01X645000Y-35816D01*
G03X680814Y-2I0J35814D01*
G01X680814Y79998D01*
G03X664557Y110000I-35814J0D01*
G03X680814Y140003I-19557J30002D01*
G01X680814Y220002D01*
G03X645000Y255816I-35814J0D01*
G01X555000Y255816D01*
G03X520213Y228516I0J-35814D01*
G01X459780Y228516D01*
G01X218694Y-2477864D02*
G03X351311Y-2503180I70320J8357D01*
G03X523312Y-2462488I81187J40692D01*
G01X523312Y-2372488D01*
G03X341685Y-2372488I-90814J0D01*
G01X341685Y-2422173D01*
G03X218694Y-2477864I-52671J-47335D01*
G01X463297Y2809010D02*
G01X463297Y2859010D01*
G03X261670Y2859010I-100814J0D01*
G01X261670Y2809010D01*
G03X463297Y2809010I100814J0D01*
G01X495691Y740491D02*
G03X382527Y695936I-46891J-46891D01*
G01X332895Y646305D01*
G03X318686Y612000I34305J-34305D01*
G01X318686Y575610D01*
G03X367200Y464086I48514J-45210D01*
G03X415714Y575610I0J66314D01*
G01X415714Y591905D01*
G01X451136Y627327D01*
G03X495691Y740491I-2336J66273D01*
G01X336685Y-2807503D02*
G01X336685Y-2867503D01*
G03X528312Y-2867503I95814J0D01*
G01X528312Y-2807503D01*
G03X336685Y-2807503I-95814J0D01*
G01X961486Y-786181D02*
G01X955000Y-786181D01*
G03X919186Y-821995I0J-35814D01*
G01X919186Y-1071994D01*
G03X955000Y-1107808I35814J0D01*
G01X961486Y-1107808D01*
G01X961486Y-1170176D01*
G03X941570Y-1202268I15898J-32092D01*
G01X941570Y-1292268D01*
G03X961486Y-1324360I35814J0D01*
G01X961486Y-1364341D01*
G03X944184Y-1395000I18512J-30659D01*
G01X944184Y-1485000D01*
G03X979998Y-1520814I35814J0D01*
G01X1059998Y-1520814D01*
G03X1090000Y-1504557I0J35814D01*
G03X1120003Y-1520814I30002J19557D01*
G01X1200002Y-1520814D01*
G03X1235816Y-1485000I0J35814D01*
G01X1235816Y-1395000D01*
G03X1200002Y-1359186I-35814J0D01*
G01X1120003Y-1359186D01*
G03X1090000Y-1375443I0J-35814D01*
G03X1059998Y-1359186I-30002J-19557D01*
G01X1058514Y-1359186D01*
G01X1058514Y-1328064D01*
G03X1087387Y-1311825I-1130J35796D01*
G03X1117389Y-1328082I30002J19557D01*
G01X1197389Y-1328082D01*
G03X1233203Y-1292268I0J35814D01*
G01X1233203Y-1202268D01*
G03X1197389Y-1166454I-35814J0D01*
G01X1117389Y-1166454D01*
G03X1087387Y-1182711I0J-35814D01*
G03X1058514Y-1166472I-30002J-19557D01*
G01X1058514Y-1107808D01*
G01X1065000Y-1107808D01*
G03X1100814Y-1071994I0J35814D01*
G01X1100814Y-821995D01*
G03X1065000Y-786181I-35814J0D01*
G01X1058514Y-786181D01*
G01X1058514Y-505817D01*
G01X1190000Y-505817D01*
G03X1225814Y-470003I0J35814D01*
G01X1225814Y-236003D01*
G03X1190000Y-200189I-35814J0D01*
G01X1058514Y-200189D01*
G01X1058514Y-175210D01*
G03X1010000Y-63686I-48514J45210D01*
G03X961486Y-175210I0J-66314D01*
G01X961486Y-200189D01*
G01X830000Y-200189D01*
G03X794186Y-236003I0J-35814D01*
G01X794186Y-470003D01*
G03X830000Y-505817I35814J0D01*
G01X961486Y-505817D01*
G01X961486Y-786181D01*
G01X1494236Y-207240D02*
G03X1542750Y-318764I48514J-45210D01*
G03X1591264Y-207240I0J66314D01*
G01X1591264Y120991D01*
G03X1626474Y156800I-604J35809D01*
G01X1626474Y243200D01*
G03X1590660Y279014I-35814J0D01*
G01X1510013Y279014D01*
G03X1475000Y250734I0J-35814D01*
G03X1439987Y279014I-35013J-7534D01*
G01X1359340Y279014D01*
G03X1323526Y243200I0J-35814D01*
G01X1323526Y215922D01*
G01X1311474Y227973D01*
G01X1311474Y243200D01*
G03X1275660Y279014I-35814J0D01*
G01X1195013Y279014D01*
G03X1160000Y250734I0J-35814D01*
G03X1124987Y279014I-35013J-7534D01*
G01X1044340Y279014D01*
G03X1008526Y243200I0J-35814D01*
G01X1008526Y156800D01*
G03X1044340Y120986I35814J0D01*
G01X1124987Y120986D01*
G03X1160000Y149266I0J35814D01*
G03X1195013Y120986I35013J7534D01*
G01X1263669Y120986D01*
G03X1325251Y79273I61582J24602D01*
G03X1386833Y120986I0J66314D01*
G01X1439987Y120986D01*
G03X1475000Y149266I0J35814D01*
G03X1494236Y124648I35013J7534D01*
G01X1494236Y-207240D01*
G01X1184997Y-786181D02*
G03X1149183Y-821995I0J-35814D01*
G01X1149183Y-1071994D01*
G03X1184997Y-1107808I35814J0D01*
G01X1294997Y-1107808D01*
G03X1330811Y-1071994I0J35814D01*
G01X1330811Y-821995D01*
G03X1294997Y-786181I-35814J0D01*
G01X1184997Y-786181D01*
G01X1522765Y2700000D02*
G03X1877235Y2700000I177235J0D01*
G03X1522765Y2700000I-177235J0D01*
G01X1522765Y-2700000D02*
G03X1877235Y-2700000I177235J0D01*
G03X1522765Y-2700000I-177235J0D01*
G54D11*
G01X-125000Y-1874664D02*
G01X-125000Y-1808686D01*
G01X-125000Y-1874664D02*
G01X-56146Y-1874664D01*
G01X-125000Y-1874664D02*
G01X-193854Y-1874664D01*
G01X-10003Y420000D02*
G01X-75656Y420000D01*
G01X-10003Y420000D02*
G01X-10003Y490654D01*
G01X-10003Y420000D02*
G01X-10003Y349346D01*
G01X-10003Y640000D02*
G01X-75656Y640000D01*
G01X-10003Y640000D02*
G01X-10003Y710654D01*
G01X-10003Y640000D02*
G01X-10003Y569346D01*
G01X175000Y-1874664D02*
G01X175000Y-1808686D01*
G01X175000Y-1874664D02*
G01X243854Y-1874664D01*
G01X175000Y-1874664D02*
G01X106146Y-1874664D01*
G01X270003Y-400000D02*
G01X335656Y-400000D01*
G01X270003Y-400000D02*
G01X270003Y-470654D01*
G01X270003Y-400000D02*
G01X270003Y-329346D01*
G01X270003Y-600000D02*
G01X335656Y-600000D01*
G01X270003Y-600000D02*
G01X270003Y-670654D01*
G01X270003Y-600000D02*
G01X270003Y-529346D01*
G01X379992Y39998D02*
G01X379992Y-25656D01*
G01X379992Y39998D02*
G01X309338Y39998D01*
G01X379992Y39998D02*
G01X450646Y39998D01*
G01X600000Y39998D02*
G01X600000Y-25656D01*
G01X600000Y39998D02*
G01X529346Y39998D01*
G01X600000Y39998D02*
G01X670654Y39998D01*
G01X1084664Y200000D02*
G01X1018686Y200000D01*
G01X1084664Y200000D02*
G01X1084664Y268854D01*
G01X1084664Y200000D02*
G01X1084664Y131146D01*
G01X1157389Y-1247268D02*
G01X1223043Y-1247268D01*
G01X1157389Y-1247268D02*
G01X1157389Y-1317922D01*
G01X1157389Y-1247268D02*
G01X1157389Y-1176614D01*
G01X1160003Y-1440000D02*
G01X1225656Y-1440000D01*
G01X1160003Y-1440000D02*
G01X1160003Y-1510654D01*
G01X1160003Y-1440000D02*
G01X1160003Y-1369346D01*
G01X1239997Y-946995D02*
G01X1239997Y-796341D01*
G01X1239997Y-946995D02*
G01X1239997Y-1097648D01*
G01X1239997Y-946995D02*
G01X1320651Y-946995D01*
G01X1239997Y-946995D02*
G01X1159343Y-946995D01*
G01X-1839496Y2145008D02*
G01X-1839496Y2230662D01*
G01X-1839496Y2145008D02*
G01X-1839496Y2059354D01*
G01X-1839496Y2145008D02*
G01X-1688842Y2145008D01*
G01X-1839496Y854992D02*
G01X-1839496Y940646D01*
G01X-1839496Y854992D02*
G01X-1839496Y769339D01*
G01X-1839496Y854992D02*
G01X-1688842Y854992D01*
G01X-1839496Y-2145008D02*
G01X-1839496Y-2059354D01*
G01X-1839496Y-2145008D02*
G01X-1839496Y-2230662D01*
G01X-1839496Y-2145008D02*
G01X-1688842Y-2145008D01*
G01X-1839496Y-854992D02*
G01X-1839496Y-769339D01*
G01X-1839496Y-854992D02*
G01X-1839496Y-940646D01*
G01X-1839496Y-854992D02*
G01X-1688842Y-854992D01*
G01X-432498Y-2837503D02*
G01X-518152Y-2837503D01*
G01X-432498Y-2837503D02*
G01X-346845Y-2837503D01*
G01X-432498Y-2837503D02*
G01X-432498Y-2721849D01*
G01X-432498Y-2837503D02*
G01X-432498Y-2953156D01*
G01X-432498Y-2417488D02*
G01X-513152Y-2417488D01*
G01X-432498Y-2417488D02*
G01X-351845Y-2417488D01*
G01X-432498Y-2417488D02*
G01X-432498Y-2291834D01*
G01X-432498Y-2417488D02*
G01X-432498Y-2543142D01*
G01X-362483Y2834010D02*
G01X-271830Y2834010D01*
G01X-362483Y2834010D02*
G01X-453137Y2834010D01*
G01X-362483Y2834010D02*
G01X-362483Y2718357D01*
G01X-362483Y2834010D02*
G01X-362483Y2949664D01*
G01X-242494Y2565990D02*
G01X-151840Y2565990D01*
G01X-242494Y2565990D02*
G01X-333148Y2565990D01*
G01X-242494Y2565990D02*
G01X-242494Y2475336D01*
G01X-242494Y2565990D02*
G01X-242494Y2656643D01*
G01X242494Y2565990D02*
G01X333148Y2565990D01*
G01X242494Y2565990D02*
G01X151840Y2565990D01*
G01X242494Y2565990D02*
G01X242494Y2475336D01*
G01X242494Y2565990D02*
G01X242494Y2656643D01*
G01X362483Y2834010D02*
G01X453137Y2834010D01*
G01X362483Y2834010D02*
G01X271830Y2834010D01*
G01X362483Y2834010D02*
G01X362483Y2718357D01*
G01X362483Y2834010D02*
G01X362483Y2949664D01*
G01X432499Y-2837503D02*
G01X346845Y-2837503D01*
G01X432499Y-2837503D02*
G01X518152Y-2837503D01*
G01X432499Y-2837503D02*
G01X432499Y-2721849D01*
G01X432499Y-2837503D02*
G01X432499Y-2953156D01*
G01X432499Y-2417488D02*
G01X351845Y-2417488D01*
G01X432499Y-2417488D02*
G01X513152Y-2417488D01*
G01X432499Y-2417488D02*
G01X432499Y-2291834D01*
G01X432499Y-2417488D02*
G01X432499Y-2543142D01*
G01X1839496Y-2145008D02*
G01X1839496Y-2230662D01*
G01X1839496Y-2145008D02*
G01X1839496Y-2059354D01*
G01X1839496Y-2145008D02*
G01X1688842Y-2145008D01*
G01X1839496Y-854992D02*
G01X1839496Y-940646D01*
G01X1839496Y-854992D02*
G01X1839496Y-769339D01*
G01X1839496Y-854992D02*
G01X1688842Y-854992D01*
G01X1839496Y854992D02*
G01X1839496Y769339D01*
G01X1839496Y854992D02*
G01X1839496Y940646D01*
G01X1839496Y854992D02*
G01X1688842Y854992D01*
G01X1839496Y2145008D02*
G01X1839496Y2059354D01*
G01X1839496Y2145008D02*
G01X1839496Y2230662D01*
G01X1839496Y2145008D02*
G01X1688842Y2145008D01*
G04 Copper End*

G04 Pad Start*
G54D12*
G01X1019998Y-1440000D03*
G01X1160003Y-1440000D03*
G01X1017384Y-1247268D03*
G01X1157389Y-1247268D03*
G01X129998Y-600000D03*
G01X270003Y-600000D03*
G01X129998Y-400000D03*
G01X270003Y-400000D03*
G01X130002Y640000D03*
G01X-10003Y640000D03*
G01X130002Y420000D03*
G01X-10003Y420000D03*
G54D13*
G01X379992Y180002D03*
G01X379992Y39998D03*
G01X600000Y180002D03*
G01X600000Y39998D03*
G54D14*
G01X175000Y-2025336D03*
G01X175000Y-1874664D03*
G01X-125000Y-2025336D03*
G01X-125000Y-1874664D03*
G54D16*
G01X1550336Y200000D03*
G01X1399664Y200000D03*
G01X1235336Y200000D03*
G01X1084664Y200000D03*
G54D17*
G01X1239997Y-946995D03*
G01X1010000Y-946995D03*
G01X780003Y-946995D03*
G54D18*
G01X1010000Y-353003D03*
G54D19*
G01X-432498Y-2417488D03*
G01X432499Y-2417488D03*
G54D20*
G01X-432498Y-2837503D03*
G01X432499Y-2837503D03*
G54D21*
G01X-1839496Y-2145008D03*
G01X-1839496Y-854992D03*
G01X1839496Y2145008D03*
G01X1839496Y854992D03*
G01X-1839496Y854992D03*
G01X-1839496Y2145008D03*
G01X1839496Y-854992D03*
G01X1839496Y-2145008D03*
G54D22*
G01X-242494Y2565990D03*
G01X242494Y2565990D03*
G54D23*
G01X362483Y2834010D03*
G01X-362483Y2834010D03*
G04 Pad End*

G04 Via Start*
G54D24*
G01X1010000Y-130000D03*
G01X132512Y290000D03*
G01X250000Y180010D03*
G01X132512Y-290000D03*
G01X1325251Y145587D03*
G01X14043Y-1522350D03*
G01X142800Y-1463700D03*
G01X175019Y-2249100D03*
G01X-122400Y-2249100D03*
G01X1542750Y-252450D03*
G01X-392700Y-1254600D03*
G01X-560462Y-1097038D03*
G01X367200Y530400D03*
G01X448800Y693600D03*
G01X-319282Y872535D03*
G01X210746Y1004700D03*
G01X-235312Y872997D03*
G01X270301Y1052908D03*
G01X-326400Y321300D03*
G01X-326400Y397500D03*
G01X661604Y-1447004D03*
G01X657900Y-1532800D03*
G01X-1744200Y76500D03*
G01X897600Y2560200D03*
G01X958800Y555900D03*
G01X780300Y-1841100D03*
G01X-224400Y-1183200D03*
G01X-831300Y-678300D03*
G01X346800Y-275400D03*
G01X-229500Y550800D03*
G01X540600Y-1132200D03*
G01X392700Y336600D03*
G01X-300900Y-571200D03*
G01X871983Y-166552D03*
G04 Via End*

G04 Track Start*
G54D11*
G01X1010000Y-353003D02*
G01X1010000Y-130000D01*
G01X132512Y290000D02*
G01X132512Y417491D01*
G01X130002Y420000D01*
G01X130002Y640000D01*
G01X250000Y180010D02*
G01X379985Y180010D01*
G01X132512Y-290000D02*
G01X132512Y-397486D01*
G01X129998Y-400000D01*
G01X129998Y-600000D02*
G01X129998Y-400000D01*
G01X1399664Y200000D02*
G01X1379664Y200000D01*
G01X1325251Y145587D01*
G01X1270838Y200000D01*
G01X1235336Y200000D01*
G01X1010000Y-1430002D02*
G01X1019998Y-1440000D01*
G01X175019Y-2249100D02*
G01X175019Y-2025355D01*
G01X-125000Y-2025336D02*
G01X-125000Y-2246500D01*
G01X-122400Y-2249100D01*
G01X1542750Y-252450D02*
G01X1542750Y192414D01*
G01X1550336Y200000D01*
G01X367200Y530400D02*
G01X367200Y612000D01*
G01X448800Y693600D01*
G01X164846Y958800D02*
G01X210746Y1004700D01*
G01X-182509Y923200D02*
G01X179592Y923200D01*
G01X202692Y946300D01*
G01X234936Y946300D01*
G01X-235312Y872997D02*
G01X-232712Y872997D01*
G01X-182509Y923200D01*
G01X-319282Y872535D02*
G01X-233018Y958800D01*
G01X164846Y958800D01*
G01X270301Y981665D02*
G01X270301Y1052908D01*
G01X234936Y946300D02*
G01X270301Y981665D01*
G01X-392700Y-1254600D02*
G01X-402900Y-1254600D01*
G01X-560462Y-1097038D01*
G01X14043Y-1522350D02*
G01X72693Y-1463700D01*
G01X142800Y-1463700D01*
G01X-326400Y397500D02*
G01X-332790Y397500D01*
G01X-373390Y356900D01*
G01X-468646Y356900D01*
G01X-545600Y279946D01*
G01X-545600Y-616546D02*
G01X270854Y-1433000D01*
G01X-545600Y279946D02*
G01X-545600Y-616546D01*
G01X270854Y-1433000D02*
G01X565010Y-1433000D01*
G01X657900Y-1525890D01*
G01X657900Y-1532800D01*
G01X661604Y-1447004D02*
G01X612000Y-1397400D01*
G01X285600Y-1397400D01*
G01X-453900Y321300D02*
G01X-326400Y321300D01*
G01X285600Y-1397400D02*
G01X-510000Y-601800D01*
G01X-510000Y265200D01*
G01X-453900Y321300D01*
G01X-1744200Y76500D02*
G01X-1744200Y571200D01*
G01X484500Y2361300D02*
G01X540600Y2417400D01*
G01X540600Y2493900D01*
G01X606900Y2560200D01*
G01X897600Y2560200D01*
G01X-1744200Y571200D02*
G01X45900Y2361300D01*
G01X484500Y2361300D01*
G01X958800Y555900D02*
G01X958800Y96900D01*
G01X678300Y-183600D01*
G01X238912Y-183600D01*
G01X132512Y-290000D01*
G01X780300Y-1841100D02*
G01X780300Y-947291D01*
G01X780003Y-946995D01*
G01X299295Y-946995D01*
G01X129998Y-777698D01*
G01X129998Y-600000D01*
G01X-224400Y-1183200D02*
G01X-729300Y-678300D01*
G01X-831300Y-678300D01*
G01X600000Y180002D02*
G01X379992Y180002D01*
G01X1010000Y-946995D02*
G01X1010000Y-353003D01*
G01X1010000Y-946995D02*
G01X1010000Y-1430002D01*
G04 Track End*

M02*

