G04 Layer: DrillDrawingLayer*
G04 EasyEDA Pro v3.2.148, 2026-08-03 13:40:32*
G04 Gerber Generator version 0.3*
G04 Scale: 100 percent, Rotated: No, Reflected: No*
G04 Dimensions in millimeters*
G04 Leading zeros omitted, absolute positions, 4 integers and 5 decimals*
G04 Generated by one-click*
G04 Object Configs: Pad,Via,Track,Text,Image,Dimension,BoardOutline,BoardCutout,CopperFilled,SolidRegion,FPCStiffener,Line,PlaneZone,ComponentProperty,ComponentSilkscreen,TearDrop*
G04 Layer Configs: 1,15,16,2,3,4,5,6,7,8,9,10,11,13,14,56*
G04 Copper Areas: 0*
%FSLAX45Y45*%
%MOMM*%
%AMIconRect*4,1,4,0.28,-0.28,-0.28,-0.28,-0.28,0.28,0.28,0.28,0.28,-0.28,0*4,0,4,0.233333,-0.233333,0.233333,0.233333,-0.233333,0.233333,-0.233333,-0.233333,0.233333,-0.233333,0*%
%AMIconTriangle*4,1,3,-0.339593,0.240473,0.339593,0.240473,0,-0.37884,-0.339593,0.240473,0*4,0,3,-0.265673,0.19404,0,-0.27342,0.266233,0.19404,-0.265673,0.19404,0*%
%AMIconStar6*4,1,12,0.12068,0.20888,0.298527,0.172713,0.241313,0,0.298527,-0.17206,0.12068,-0.208227,0,-0.344073,-0.120073,-0.208227,-0.298573,-0.17206,-0.240707,0,-0.298573,0.17206,-0.120073,0.20888,0,0.344073,0.12068,0.20888,0*4,0,12,-0.000467,0.273467,-0.090067,0.171733,-0.237533,0.136733,-0.193667,-0.007467,-0.237533,-0.1372,-0.090067,-0.171733,-0.000467,-0.273933,0.090067,-0.171733,0.237533,-0.1372,0.194133,0.007,0.237533,0.1372,0.090067,0.171267,-0.000467,0.273467,0*%
%AMIconStar4*4,1,8,-0.311733,0.311733,0,0.202533,0.311733,0.311733,0.202533,0,0.311733,-0.311733,0,-0.202533,-0.304407,-0.311733,-0.202533,0,-0.311733,0.311733,0*4,0,8,0.233333,-0.233333,0.1512,0,0.233333,0.233333,0,0.1512,-0.233333,0.233333,-0.1512,0,-0.233333,-0.233333,0,-0.1512,0.233333,-0.233333,0*%
%AMIconPlus*4,1,12,0.1736,-0.28,-0.1736,-0.28,-0.1736,-0.1736,-0.28,-0.1736,-0.28,0.1736,-0.1736,0.1736,-0.1736,0.28,0.1736,0.28,0.1736,0.1736,0.28,0.1736,0.28,-0.1736,0.1736,-0.1736,0.1736,-0.28,0*4,0,12,0.126933,-0.233333,0.126933,-0.126933,0.233333,-0.126933,0.233333,0.126933,0.126933,0.126933,0.126933,0.233333,-0.126933,0.233333,-0.126933,0.126933,-0.233333,0.126933,-0.233333,-0.126933,-0.126933,-0.126933,-0.126933,-0.233333,0.126933,-0.233333,0*%
%AMIconX*4,1,16,0.28,-0.28,0.076347,-0.28,0,-0.203653,-0.076347,-0.28,-0.28,-0.28,-0.28,-0.076347,-0.203653,0,-0.28,0.076347,-0.28,0.28,-0.076347,0.28,0,0.203653,0.076347,0.28,0.28,0.28,0.28,0.076347,0.203653,0,0.28,-0.076347,0.28,-0.28,0*4,0,16,0.23352,-0.23296,0.23352,-0.095853,0.137107,0.000093,0.23352,0.095853,0.23352,0.2331,0.095853,0.2331,0,0.137107,-0.095853,0.2331,-0.23352,0.2331,-0.23352,0.095853,-0.137107,0.000093,-0.23352,-0.095853,-0.23352,-0.23296,-0.095853,-0.23296,0,-0.137107,0.095853,-0.23296,0.23352,-0.23296,0*%
%AMIconDiamond*4,1,4,0,-0.364,-0.364,0,0,0.364,0.364,0,0,-0.364,0*4,0,4,0,-0.284807,0.284807,0,0,0.28504,-0.284807,0,0,-0.284807,0*%
%ADD10IconRect*%
%ADD11C,0.616X0.522667*%
%ADD12IconTriangle*%
%ADD13IconStar6*%
%ADD14IconStar4*%
%ADD15IconPlus*%
%ADD16IconX*%
%ADD17IconDiamond*%
%ADD18C,0.2032*%
%ADD19C,0.254*%
G75*


G04 Drill Drawing Start*
G54D10*
G01X-432493Y-2417496D03*
G01X432509Y-2417498D03*
G54D11*
G01X-432493Y-2837497D03*
G01X432509Y-2837497D03*
G54D12*
G01X-242499Y2565997D03*
G01X242499Y2566000D03*
G54D13*
G01X-362499Y2834005D03*
G01X362499Y2834005D03*
G54D14*
G01X-288988Y-2469507D03*
G01X289014Y-2469507D03*
G54D15*
G01X-1700000Y-2700000D03*
G01X-1700000Y2700000D03*
G01X1700000Y-2700000D03*
G01X1700000Y2700000D03*
G54D16*
G01X-1839504Y-2145000D03*
G01X-1839504Y-855000D03*
G01X-1839504Y855000D03*
G01X-1839504Y2145000D03*
G01X1839504Y-2145000D03*
G01X1839504Y-855000D03*
G01X1839504Y855000D03*
G01X1839504Y2145000D03*
G54D17*
G01X-1744200Y76500D03*
G01X-831300Y-678300D03*
G01X-560462Y-1097038D03*
G01X-392700Y-1254600D03*
G01X-326400Y321300D03*
G01X-326400Y397500D03*
G01X-319282Y872535D03*
G01X-300900Y-571200D03*
G01X-235312Y872997D03*
G01X-229500Y550800D03*
G01X-224400Y-1183200D03*
G01X-122400Y-2249100D03*
G01X14043Y-1522350D03*
G01X132512Y-290000D03*
G01X132512Y290000D03*
G01X142800Y-1463700D03*
G01X175019Y-2249100D03*
G01X210746Y1004700D03*
G01X250000Y180010D03*
G01X270301Y1052908D03*
G01X346800Y-275400D03*
G01X367200Y530400D03*
G01X392700Y336600D03*
G01X448800Y693600D03*
G01X540600Y-1132200D03*
G01X657900Y-1532800D03*
G01X661604Y-1447004D03*
G01X780300Y-1841100D03*
G01X871983Y-166552D03*
G01X897600Y2560200D03*
G01X958800Y555900D03*
G01X1010000Y-130000D03*
G01X1325251Y145587D03*
G01X1542750Y-252450D03*
G04 Drill Drawing End*

G04 Text Start*
G54D18*
G01X4300446Y2778294D02*
G01X4300446Y2658152D01*
G01X4300446Y2778294D02*
G01X4346166Y2658152D01*
G01X4391886Y2778294D02*
G01X4346166Y2658152D01*
G01X4391886Y2778294D02*
G01X4391886Y2658152D01*
G01X4508218Y2738162D02*
G01X4508218Y2658152D01*
G01X4508218Y2721144D02*
G01X4496788Y2732574D01*
G01X4485358Y2738162D01*
G01X4468340Y2738162D01*
G01X4456910Y2732574D01*
G01X4445480Y2721144D01*
G01X4439638Y2703872D01*
G01X4439638Y2692442D01*
G01X4445480Y2675424D01*
G01X4456910Y2663994D01*
G01X4468340Y2658152D01*
G01X4485358Y2658152D01*
G01X4496788Y2663994D01*
G01X4508218Y2675424D01*
G01X4555970Y2738162D02*
G01X4555970Y2658152D01*
G01X4555970Y2703872D02*
G01X4561812Y2721144D01*
G01X4573242Y2732574D01*
G01X4584672Y2738162D01*
G01X4601690Y2738162D01*
G01X4649442Y2778294D02*
G01X4649442Y2658152D01*
G01X4706592Y2738162D02*
G01X4649442Y2681012D01*
G01X4672302Y2703872D02*
G01X4712434Y2658152D01*
G01X5837726Y2749592D02*
G01X5831884Y2761022D01*
G01X5820454Y2772452D01*
G01X5809024Y2778294D01*
G01X5786164Y2778294D01*
G01X5774734Y2772452D01*
G01X5763304Y2761022D01*
G01X5757716Y2749592D01*
G01X5751874Y2732574D01*
G01X5751874Y2703872D01*
G01X5757716Y2686854D01*
G01X5763304Y2675424D01*
G01X5774734Y2663994D01*
G01X5786164Y2658152D01*
G01X5809024Y2658152D01*
G01X5820454Y2663994D01*
G01X5831884Y2675424D01*
G01X5837726Y2686854D01*
G01X5914180Y2738162D02*
G01X5902750Y2732574D01*
G01X5891320Y2721144D01*
G01X5885478Y2703872D01*
G01X5885478Y2692442D01*
G01X5891320Y2675424D01*
G01X5902750Y2663994D01*
G01X5914180Y2658152D01*
G01X5931198Y2658152D01*
G01X5942628Y2663994D01*
G01X5954058Y2675424D01*
G01X5959900Y2692442D01*
G01X5959900Y2703872D01*
G01X5954058Y2721144D01*
G01X5942628Y2732574D01*
G01X5931198Y2738162D01*
G01X5914180Y2738162D01*
G01X6007652Y2738162D02*
G01X6007652Y2681012D01*
G01X6013494Y2663994D01*
G01X6024924Y2658152D01*
G01X6041942Y2658152D01*
G01X6053372Y2663994D01*
G01X6070644Y2681012D01*
G01X6070644Y2738162D02*
G01X6070644Y2658152D01*
G01X6118396Y2738162D02*
G01X6118396Y2658152D01*
G01X6118396Y2715302D02*
G01X6135668Y2732574D01*
G01X6147098Y2738162D01*
G01X6164116Y2738162D01*
G01X6175546Y2732574D01*
G01X6181388Y2715302D01*
G01X6181388Y2658152D01*
G01X6246412Y2778294D02*
G01X6246412Y2681012D01*
G01X6252000Y2663994D01*
G01X6263430Y2658152D01*
G01X6274860Y2658152D01*
G01X6229140Y2738162D02*
G01X6269272Y2738162D01*
G01X7246047Y2761022D02*
G01X7234617Y2772452D01*
G01X7217599Y2778294D01*
G01X7194739Y2778294D01*
G01X7177467Y2772452D01*
G01X7166037Y2761022D01*
G01X7166037Y2749592D01*
G01X7171879Y2738162D01*
G01X7177467Y2732574D01*
G01X7188897Y2726732D01*
G01X7223187Y2715302D01*
G01X7234617Y2709714D01*
G01X7240459Y2703872D01*
G01X7246047Y2692442D01*
G01X7246047Y2675424D01*
G01X7234617Y2663994D01*
G01X7217599Y2658152D01*
G01X7194739Y2658152D01*
G01X7177467Y2663994D01*
G01X7166037Y2675424D01*
G01X7293799Y2778294D02*
G01X7299641Y2772452D01*
G01X7305229Y2778294D01*
G01X7299641Y2783882D01*
G01X7293799Y2778294D01*
G01X7299641Y2738162D02*
G01X7299641Y2658152D01*
G01X7415973Y2738162D02*
G01X7352981Y2658152D01*
G01X7352981Y2738162D02*
G01X7415973Y2738162D01*
G01X7352981Y2658152D02*
G01X7415973Y2658152D01*
G01X7463725Y2703872D02*
G01X7532305Y2703872D01*
G01X7532305Y2715302D01*
G01X7526717Y2726732D01*
G01X7520875Y2732574D01*
G01X7509445Y2738162D01*
G01X7492427Y2738162D01*
G01X7480997Y2732574D01*
G01X7469567Y2721144D01*
G01X7463725Y2703872D01*
G01X7463725Y2692442D01*
G01X7469567Y2675424D01*
G01X7480997Y2663994D01*
G01X7492427Y2658152D01*
G01X7509445Y2658152D01*
G01X7520875Y2663994D01*
G01X7532305Y2675424D01*
G01X11053906Y2778294D02*
G01X11053906Y2658152D01*
G01X11053906Y2778294D02*
G01X11105468Y2778294D01*
G01X11122486Y2772452D01*
G01X11128328Y2766864D01*
G01X11133916Y2755434D01*
G01X11133916Y2738162D01*
G01X11128328Y2726732D01*
G01X11122486Y2721144D01*
G01X11105468Y2715302D01*
G01X11053906Y2715302D01*
G01X11181668Y2778294D02*
G01X11181668Y2658152D01*
G01X11298000Y2738162D02*
G01X11298000Y2658152D01*
G01X11298000Y2721144D02*
G01X11286570Y2732574D01*
G01X11275140Y2738162D01*
G01X11258122Y2738162D01*
G01X11246692Y2732574D01*
G01X11235262Y2721144D01*
G01X11229420Y2703872D01*
G01X11229420Y2692442D01*
G01X11235262Y2675424D01*
G01X11246692Y2663994D01*
G01X11258122Y2658152D01*
G01X11275140Y2658152D01*
G01X11286570Y2663994D01*
G01X11298000Y2675424D01*
G01X11363024Y2778294D02*
G01X11363024Y2681012D01*
G01X11368612Y2663994D01*
G01X11380042Y2658152D01*
G01X11391472Y2658152D01*
G01X11345752Y2738162D02*
G01X11385884Y2738162D01*
G01X11439224Y2703872D02*
G01X11507804Y2703872D01*
G01X11507804Y2715302D01*
G01X11502216Y2726732D01*
G01X11496374Y2732574D01*
G01X11484944Y2738162D01*
G01X11467926Y2738162D01*
G01X11456496Y2732574D01*
G01X11445066Y2721144D01*
G01X11439224Y2703872D01*
G01X11439224Y2692442D01*
G01X11445066Y2675424D01*
G01X11456496Y2663994D01*
G01X11467926Y2658152D01*
G01X11484944Y2658152D01*
G01X11496374Y2663994D01*
G01X11507804Y2675424D01*
G01X11624136Y2778294D02*
G01X11624136Y2658152D01*
G01X11624136Y2721144D02*
G01X11612706Y2732574D01*
G01X11601276Y2738162D01*
G01X11584258Y2738162D01*
G01X11572828Y2732574D01*
G01X11561398Y2721144D01*
G01X11555556Y2703872D01*
G01X11555556Y2692442D01*
G01X11561398Y2675424D01*
G01X11572828Y2663994D01*
G01X11584258Y2658152D01*
G01X11601276Y2658152D01*
G01X11612706Y2663994D01*
G01X11624136Y2675424D01*
G01X12595324Y2761022D02*
G01X12583894Y2772452D01*
G01X12566876Y2778294D01*
G01X12544016Y2778294D01*
G01X12526744Y2772452D01*
G01X12515314Y2761022D01*
G01X12515314Y2749592D01*
G01X12521156Y2738162D01*
G01X12526744Y2732574D01*
G01X12538174Y2726732D01*
G01X12572464Y2715302D01*
G01X12583894Y2709714D01*
G01X12589736Y2703872D01*
G01X12595324Y2692442D01*
G01X12595324Y2675424D01*
G01X12583894Y2663994D01*
G01X12566876Y2658152D01*
G01X12544016Y2658152D01*
G01X12526744Y2663994D01*
G01X12515314Y2675424D01*
G01X12643076Y2778294D02*
G01X12643076Y2658152D01*
G01X12643076Y2715302D02*
G01X12660348Y2732574D01*
G01X12671778Y2738162D01*
G01X12688796Y2738162D01*
G01X12700226Y2732574D01*
G01X12706068Y2715302D01*
G01X12706068Y2658152D01*
G01X12822400Y2738162D02*
G01X12822400Y2658152D01*
G01X12822400Y2721144D02*
G01X12810970Y2732574D01*
G01X12799540Y2738162D01*
G01X12782522Y2738162D01*
G01X12771092Y2732574D01*
G01X12759662Y2721144D01*
G01X12753820Y2703872D01*
G01X12753820Y2692442D01*
G01X12759662Y2675424D01*
G01X12771092Y2663994D01*
G01X12782522Y2658152D01*
G01X12799540Y2658152D01*
G01X12810970Y2663994D01*
G01X12822400Y2675424D01*
G01X12870152Y2738162D02*
G01X12870152Y2618274D01*
G01X12870152Y2721144D02*
G01X12881582Y2732574D01*
G01X12893012Y2738162D01*
G01X12910284Y2738162D01*
G01X12921714Y2732574D01*
G01X12933144Y2721144D01*
G01X12938732Y2703872D01*
G01X12938732Y2692442D01*
G01X12933144Y2675424D01*
G01X12921714Y2663994D01*
G01X12910284Y2658152D01*
G01X12893012Y2658152D01*
G01X12881582Y2663994D01*
G01X12870152Y2675424D01*
G01X12986484Y2703872D02*
G01X13055064Y2703872D01*
G01X13055064Y2715302D01*
G01X13049476Y2726732D01*
G01X13043634Y2732574D01*
G01X13032204Y2738162D01*
G01X13015186Y2738162D01*
G01X13003756Y2732574D01*
G01X12992326Y2721144D01*
G01X12986484Y2703872D01*
G01X12986484Y2692442D01*
G01X12992326Y2675424D01*
G01X13003756Y2663994D01*
G01X13015186Y2658152D01*
G01X13032204Y2658152D01*
G01X13043634Y2663994D01*
G01X13055064Y2675424D01*
G01X13946495Y2778294D02*
G01X13992215Y2658152D01*
G01X14037935Y2778294D02*
G01X13992215Y2658152D01*
G01X14085687Y2778294D02*
G01X14091529Y2772452D01*
G01X14097117Y2778294D01*
G01X14091529Y2783882D01*
G01X14085687Y2778294D01*
G01X14091529Y2738162D02*
G01X14091529Y2658152D01*
G01X14213449Y2738162D02*
G01X14213449Y2658152D01*
G01X14213449Y2721144D02*
G01X14202019Y2732574D01*
G01X14190589Y2738162D01*
G01X14173571Y2738162D01*
G01X14162141Y2732574D01*
G01X14150711Y2721144D01*
G01X14144869Y2703872D01*
G01X14144869Y2692442D01*
G01X14150711Y2675424D01*
G01X14162141Y2663994D01*
G01X14173571Y2658152D01*
G01X14190589Y2658152D01*
G01X14202019Y2663994D01*
G01X14213449Y2675424D01*
G01X14364071Y2801154D02*
G01X14261201Y2618274D01*
G01X14411823Y2778294D02*
G01X14411823Y2658152D01*
G01X14411823Y2778294D02*
G01X14463385Y2778294D01*
G01X14480403Y2772452D01*
G01X14486245Y2766864D01*
G01X14491833Y2755434D01*
G01X14491833Y2738162D01*
G01X14486245Y2726732D01*
G01X14480403Y2721144D01*
G01X14463385Y2715302D01*
G01X14411823Y2715302D01*
G01X14608165Y2738162D02*
G01X14608165Y2658152D01*
G01X14608165Y2721144D02*
G01X14596735Y2732574D01*
G01X14585305Y2738162D01*
G01X14568287Y2738162D01*
G01X14556857Y2732574D01*
G01X14545427Y2721144D01*
G01X14539585Y2703872D01*
G01X14539585Y2692442D01*
G01X14545427Y2675424D01*
G01X14556857Y2663994D01*
G01X14568287Y2658152D01*
G01X14585305Y2658152D01*
G01X14596735Y2663994D01*
G01X14608165Y2675424D01*
G01X14724497Y2778294D02*
G01X14724497Y2658152D01*
G01X14724497Y2721144D02*
G01X14713067Y2732574D01*
G01X14701637Y2738162D01*
G01X14684619Y2738162D01*
G01X14673189Y2732574D01*
G01X14661759Y2721144D01*
G01X14655917Y2703872D01*
G01X14655917Y2692442D01*
G01X14661759Y2675424D01*
G01X14673189Y2663994D01*
G01X14684619Y2658152D01*
G01X14701637Y2658152D01*
G01X14713067Y2663994D01*
G01X14724497Y2675424D01*
G01X15615674Y2778294D02*
G01X15615674Y2658152D01*
G01X15615674Y2778294D02*
G01X15667236Y2778294D01*
G01X15684254Y2772452D01*
G01X15690096Y2766864D01*
G01X15695684Y2755434D01*
G01X15695684Y2738162D01*
G01X15690096Y2726732D01*
G01X15684254Y2721144D01*
G01X15667236Y2715302D01*
G01X15615674Y2715302D01*
G01X15812016Y2738162D02*
G01X15812016Y2658152D01*
G01X15812016Y2721144D02*
G01X15800586Y2732574D01*
G01X15789156Y2738162D01*
G01X15772138Y2738162D01*
G01X15760708Y2732574D01*
G01X15749278Y2721144D01*
G01X15743436Y2703872D01*
G01X15743436Y2692442D01*
G01X15749278Y2675424D01*
G01X15760708Y2663994D01*
G01X15772138Y2658152D01*
G01X15789156Y2658152D01*
G01X15800586Y2663994D01*
G01X15812016Y2675424D01*
G01X15928348Y2778294D02*
G01X15928348Y2658152D01*
G01X15928348Y2721144D02*
G01X15916918Y2732574D01*
G01X15905488Y2738162D01*
G01X15888470Y2738162D01*
G01X15877040Y2732574D01*
G01X15865610Y2721144D01*
G01X15859768Y2703872D01*
G01X15859768Y2692442D01*
G01X15865610Y2675424D01*
G01X15877040Y2663994D01*
G01X15888470Y2658152D01*
G01X15905488Y2658152D01*
G01X15916918Y2663994D01*
G01X15928348Y2675424D01*
G01X16184126Y2761022D02*
G01X16172696Y2772452D01*
G01X16155678Y2778294D01*
G01X16132818Y2778294D01*
G01X16115546Y2772452D01*
G01X16104116Y2761022D01*
G01X16104116Y2749592D01*
G01X16109958Y2738162D01*
G01X16115546Y2732574D01*
G01X16126976Y2726732D01*
G01X16161266Y2715302D01*
G01X16172696Y2709714D01*
G01X16178538Y2703872D01*
G01X16184126Y2692442D01*
G01X16184126Y2675424D01*
G01X16172696Y2663994D01*
G01X16155678Y2658152D01*
G01X16132818Y2658152D01*
G01X16115546Y2663994D01*
G01X16104116Y2675424D01*
G01X16231878Y2778294D02*
G01X16231878Y2658152D01*
G01X16231878Y2715302D02*
G01X16249150Y2732574D01*
G01X16260580Y2738162D01*
G01X16277598Y2738162D01*
G01X16289028Y2732574D01*
G01X16294870Y2715302D01*
G01X16294870Y2658152D01*
G01X16411202Y2738162D02*
G01X16411202Y2658152D01*
G01X16411202Y2721144D02*
G01X16399772Y2732574D01*
G01X16388342Y2738162D01*
G01X16371324Y2738162D01*
G01X16359894Y2732574D01*
G01X16348464Y2721144D01*
G01X16342622Y2703872D01*
G01X16342622Y2692442D01*
G01X16348464Y2675424D01*
G01X16359894Y2663994D01*
G01X16371324Y2658152D01*
G01X16388342Y2658152D01*
G01X16399772Y2663994D01*
G01X16411202Y2675424D01*
G01X16458954Y2738162D02*
G01X16458954Y2618274D01*
G01X16458954Y2721144D02*
G01X16470384Y2732574D01*
G01X16481814Y2738162D01*
G01X16499086Y2738162D01*
G01X16510516Y2732574D01*
G01X16521946Y2721144D01*
G01X16527534Y2703872D01*
G01X16527534Y2692442D01*
G01X16521946Y2675424D01*
G01X16510516Y2663994D01*
G01X16499086Y2658152D01*
G01X16481814Y2658152D01*
G01X16470384Y2663994D01*
G01X16458954Y2675424D01*
G01X16575286Y2703872D02*
G01X16643866Y2703872D01*
G01X16643866Y2715302D01*
G01X16638278Y2726732D01*
G01X16632436Y2732574D01*
G01X16621006Y2738162D01*
G01X16603988Y2738162D01*
G01X16592558Y2732574D01*
G01X16581128Y2721144D01*
G01X16575286Y2703872D01*
G01X16575286Y2692442D01*
G01X16581128Y2675424D01*
G01X16592558Y2663994D01*
G01X16603988Y2658152D01*
G01X16621006Y2658152D01*
G01X16632436Y2663994D01*
G01X16643866Y2675424D01*
G01X17535043Y2778294D02*
G01X17535043Y2658152D01*
G01X17535043Y2658152D02*
G01X17603623Y2658152D01*
G01X17719955Y2738162D02*
G01X17719955Y2658152D01*
G01X17719955Y2721144D02*
G01X17708525Y2732574D01*
G01X17697095Y2738162D01*
G01X17680077Y2738162D01*
G01X17668647Y2732574D01*
G01X17657217Y2721144D01*
G01X17651375Y2703872D01*
G01X17651375Y2692442D01*
G01X17657217Y2675424D01*
G01X17668647Y2663994D01*
G01X17680077Y2658152D01*
G01X17697095Y2658152D01*
G01X17708525Y2663994D01*
G01X17719955Y2675424D01*
G01X17773549Y2738162D02*
G01X17807839Y2658152D01*
G01X17842129Y2738162D02*
G01X17807839Y2658152D01*
G01X17796409Y2635292D01*
G01X17784979Y2623862D01*
G01X17773549Y2618274D01*
G01X17767707Y2618274D01*
G01X17889881Y2703872D02*
G01X17958461Y2703872D01*
G01X17958461Y2715302D01*
G01X17952873Y2726732D01*
G01X17947031Y2732574D01*
G01X17935601Y2738162D01*
G01X17918583Y2738162D01*
G01X17907153Y2732574D01*
G01X17895723Y2721144D01*
G01X17889881Y2703872D01*
G01X17889881Y2692442D01*
G01X17895723Y2675424D01*
G01X17907153Y2663994D01*
G01X17918583Y2658152D01*
G01X17935601Y2658152D01*
G01X17947031Y2663994D01*
G01X17958461Y2675424D01*
G01X18006213Y2738162D02*
G01X18006213Y2658152D01*
G01X18006213Y2703872D02*
G01X18012055Y2721144D01*
G01X18023485Y2732574D01*
G01X18034915Y2738162D01*
G01X18051933Y2738162D01*
G01X18227701Y2778294D02*
G01X18227701Y2658152D01*
G01X18227701Y2778294D02*
G01X18279263Y2778294D01*
G01X18296281Y2772452D01*
G01X18302123Y2766864D01*
G01X18307711Y2755434D01*
G01X18307711Y2738162D01*
G01X18302123Y2726732D01*
G01X18296281Y2721144D01*
G01X18279263Y2715302D01*
G01X18227701Y2715302D01*
G01X18424043Y2738162D02*
G01X18424043Y2658152D01*
G01X18424043Y2721144D02*
G01X18412613Y2732574D01*
G01X18401183Y2738162D01*
G01X18384165Y2738162D01*
G01X18372735Y2732574D01*
G01X18361305Y2721144D01*
G01X18355463Y2703872D01*
G01X18355463Y2692442D01*
G01X18361305Y2675424D01*
G01X18372735Y2663994D01*
G01X18384165Y2658152D01*
G01X18401183Y2658152D01*
G01X18412613Y2663994D01*
G01X18424043Y2675424D01*
G01X18471795Y2778294D02*
G01X18477637Y2772452D01*
G01X18483225Y2778294D01*
G01X18477637Y2783882D01*
G01X18471795Y2778294D01*
G01X18477637Y2738162D02*
G01X18477637Y2658152D01*
G01X18530977Y2738162D02*
G01X18530977Y2658152D01*
G01X18530977Y2703872D02*
G01X18536819Y2721144D01*
G01X18548249Y2732574D01*
G01X18559679Y2738162D01*
G01X18576697Y2738162D01*
G01X5757716Y2169021D02*
G01X5757716Y2174863D01*
G01X5763304Y2186293D01*
G01X5769146Y2191881D01*
G01X5780576Y2197723D01*
G01X5803436Y2197723D01*
G01X5814866Y2191881D01*
G01X5820454Y2186293D01*
G01X5826296Y2174863D01*
G01X5826296Y2163433D01*
G01X5820454Y2152003D01*
G01X5809024Y2134731D01*
G01X5751874Y2077581D01*
G01X5831884Y2077581D01*
G01X7171879Y2169021D02*
G01X7171879Y2174863D01*
G01X7177467Y2186293D01*
G01X7183309Y2191881D01*
G01X7194739Y2197723D01*
G01X7217599Y2197723D01*
G01X7229029Y2191881D01*
G01X7234617Y2186293D01*
G01X7240459Y2174863D01*
G01X7240459Y2163433D01*
G01X7234617Y2152003D01*
G01X7223187Y2134731D01*
G01X7166037Y2077581D01*
G01X7246047Y2077581D01*
G01X7305229Y2197723D02*
G01X7368221Y2197723D01*
G01X7333931Y2152003D01*
G01X7350949Y2152003D01*
G01X7362379Y2146161D01*
G01X7368221Y2140573D01*
G01X7373809Y2123301D01*
G01X7373809Y2111871D01*
G01X7368221Y2094853D01*
G01X7356791Y2083423D01*
G01X7339519Y2077581D01*
G01X7322501Y2077581D01*
G01X7305229Y2083423D01*
G01X7299641Y2089011D01*
G01X7293799Y2100441D01*
G01X7427403Y2106283D02*
G01X7421561Y2100441D01*
G01X7427403Y2094853D01*
G01X7432991Y2100441D01*
G01X7427403Y2106283D01*
G01X7549323Y2180451D02*
G01X7543735Y2191881D01*
G01X7526463Y2197723D01*
G01X7515033Y2197723D01*
G01X7498015Y2191881D01*
G01X7486585Y2174863D01*
G01X7480743Y2146161D01*
G01X7480743Y2117713D01*
G01X7486585Y2094853D01*
G01X7498015Y2083423D01*
G01X7515033Y2077581D01*
G01X7520875Y2077581D01*
G01X7537893Y2083423D01*
G01X7549323Y2094853D01*
G01X7555165Y2111871D01*
G01X7555165Y2117713D01*
G01X7549323Y2134731D01*
G01X7537893Y2146161D01*
G01X7520875Y2152003D01*
G01X7515033Y2152003D01*
G01X7498015Y2146161D01*
G01X7486585Y2134731D01*
G01X7480743Y2117713D01*
G01X7602917Y2157591D02*
G01X7665909Y2077581D01*
G01X7665909Y2157591D02*
G01X7602917Y2077581D01*
G01X7782241Y2197723D02*
G01X7725091Y2197723D01*
G01X7719503Y2146161D01*
G01X7725091Y2152003D01*
G01X7742363Y2157591D01*
G01X7759381Y2157591D01*
G01X7776653Y2152003D01*
G01X7788083Y2140573D01*
G01X7793671Y2123301D01*
G01X7793671Y2111871D01*
G01X7788083Y2094853D01*
G01X7776653Y2083423D01*
G01X7759381Y2077581D01*
G01X7742363Y2077581D01*
G01X7725091Y2083423D01*
G01X7719503Y2089011D01*
G01X7713661Y2100441D01*
G01X7915845Y2157591D02*
G01X7910003Y2140573D01*
G01X7898573Y2129143D01*
G01X7881555Y2123301D01*
G01X7875713Y2123301D01*
G01X7858695Y2129143D01*
G01X7847265Y2140573D01*
G01X7841423Y2157591D01*
G01X7841423Y2163433D01*
G01X7847265Y2180451D01*
G01X7858695Y2191881D01*
G01X7875713Y2197723D01*
G01X7881555Y2197723D01*
G01X7898573Y2191881D01*
G01X7910003Y2180451D01*
G01X7915845Y2157591D01*
G01X7915845Y2129143D01*
G01X7910003Y2100441D01*
G01X7898573Y2083423D01*
G01X7881555Y2077581D01*
G01X7870125Y2077581D01*
G01X7852853Y2083423D01*
G01X7847265Y2094853D01*
G01X7969439Y2106283D02*
G01X7963597Y2100441D01*
G01X7969439Y2094853D01*
G01X7975027Y2100441D01*
G01X7969439Y2106283D01*
G01X8022779Y2174863D02*
G01X8034209Y2180451D01*
G01X8051481Y2197723D01*
G01X8051481Y2077581D01*
G01X8099233Y2157591D02*
G01X8099233Y2077581D01*
G01X8099233Y2134731D02*
G01X8116505Y2152003D01*
G01X8127935Y2157591D01*
G01X8144953Y2157591D01*
G01X8156383Y2152003D01*
G01X8162225Y2134731D01*
G01X8162225Y2077581D01*
G01X8162225Y2134731D02*
G01X8179243Y2152003D01*
G01X8190673Y2157591D01*
G01X8207945Y2157591D01*
G01X8219375Y2152003D01*
G01X8224963Y2134731D01*
G01X8224963Y2077581D01*
G01X8272715Y2197723D02*
G01X8278557Y2191881D01*
G01X8284145Y2197723D01*
G01X8278557Y2203311D01*
G01X8272715Y2197723D01*
G01X8278557Y2157591D02*
G01X8278557Y2077581D01*
G01X8331897Y2197723D02*
G01X8331897Y2077581D01*
G01X8419781Y2220583D02*
G01X8408351Y2209153D01*
G01X8396921Y2191881D01*
G01X8385491Y2169021D01*
G01X8379649Y2140573D01*
G01X8379649Y2117713D01*
G01X8385491Y2089011D01*
G01X8396921Y2066151D01*
G01X8408351Y2049133D01*
G01X8419781Y2037703D01*
G01X8501823Y2197723D02*
G01X8484805Y2191881D01*
G01X8473375Y2174863D01*
G01X8467533Y2146161D01*
G01X8467533Y2129143D01*
G01X8473375Y2100441D01*
G01X8484805Y2083423D01*
G01X8501823Y2077581D01*
G01X8513253Y2077581D01*
G01X8530525Y2083423D01*
G01X8541955Y2100441D01*
G01X8547543Y2129143D01*
G01X8547543Y2146161D01*
G01X8541955Y2174863D01*
G01X8530525Y2191881D01*
G01X8513253Y2197723D01*
G01X8501823Y2197723D01*
G01X8601137Y2106283D02*
G01X8595295Y2100441D01*
G01X8601137Y2094853D01*
G01X8606725Y2100441D01*
G01X8601137Y2106283D01*
G01X8723057Y2180451D02*
G01X8717469Y2191881D01*
G01X8700197Y2197723D01*
G01X8688767Y2197723D01*
G01X8671749Y2191881D01*
G01X8660319Y2174863D01*
G01X8654477Y2146161D01*
G01X8654477Y2117713D01*
G01X8660319Y2094853D01*
G01X8671749Y2083423D01*
G01X8688767Y2077581D01*
G01X8694609Y2077581D01*
G01X8711627Y2083423D01*
G01X8723057Y2094853D01*
G01X8728899Y2111871D01*
G01X8728899Y2117713D01*
G01X8723057Y2134731D01*
G01X8711627Y2146161D01*
G01X8694609Y2152003D01*
G01X8688767Y2152003D01*
G01X8671749Y2146161D01*
G01X8660319Y2134731D01*
G01X8654477Y2117713D01*
G01X8810941Y2197723D02*
G01X8793923Y2191881D01*
G01X8782493Y2174863D01*
G01X8776651Y2146161D01*
G01X8776651Y2129143D01*
G01X8782493Y2100441D01*
G01X8793923Y2083423D01*
G01X8810941Y2077581D01*
G01X8822371Y2077581D01*
G01X8839643Y2083423D01*
G01X8851073Y2100441D01*
G01X8856661Y2129143D01*
G01X8856661Y2146161D01*
G01X8851073Y2174863D01*
G01X8839643Y2191881D01*
G01X8822371Y2197723D01*
G01X8810941Y2197723D01*
G01X8938703Y2197723D02*
G01X8921685Y2191881D01*
G01X8910255Y2174863D01*
G01X8904413Y2146161D01*
G01X8904413Y2129143D01*
G01X8910255Y2100441D01*
G01X8921685Y2083423D01*
G01X8938703Y2077581D01*
G01X8950133Y2077581D01*
G01X8967405Y2083423D01*
G01X8978835Y2100441D01*
G01X8984423Y2129143D01*
G01X8984423Y2146161D01*
G01X8978835Y2174863D01*
G01X8967405Y2191881D01*
G01X8950133Y2197723D01*
G01X8938703Y2197723D01*
G01X9032175Y2157591D02*
G01X9095167Y2077581D01*
G01X9095167Y2157591D02*
G01X9032175Y2077581D01*
G01X9142919Y2174863D02*
G01X9154349Y2180451D01*
G01X9171621Y2197723D01*
G01X9171621Y2077581D01*
G01X9225215Y2106283D02*
G01X9219373Y2100441D01*
G01X9225215Y2094853D01*
G01X9230803Y2100441D01*
G01X9225215Y2106283D01*
G01X9347135Y2197723D02*
G01X9289985Y2197723D01*
G01X9284397Y2146161D01*
G01X9289985Y2152003D01*
G01X9307257Y2157591D01*
G01X9324275Y2157591D01*
G01X9341547Y2152003D01*
G01X9352977Y2140573D01*
G01X9358565Y2123301D01*
G01X9358565Y2111871D01*
G01X9352977Y2094853D01*
G01X9341547Y2083423D01*
G01X9324275Y2077581D01*
G01X9307257Y2077581D01*
G01X9289985Y2083423D01*
G01X9284397Y2089011D01*
G01X9278555Y2100441D01*
G01X9440607Y2197723D02*
G01X9423589Y2191881D01*
G01X9412159Y2174863D01*
G01X9406317Y2146161D01*
G01X9406317Y2129143D01*
G01X9412159Y2100441D01*
G01X9423589Y2083423D01*
G01X9440607Y2077581D01*
G01X9452037Y2077581D01*
G01X9469309Y2083423D01*
G01X9480739Y2100441D01*
G01X9486327Y2129143D01*
G01X9486327Y2146161D01*
G01X9480739Y2174863D01*
G01X9469309Y2191881D01*
G01X9452037Y2197723D01*
G01X9440607Y2197723D01*
G01X9568369Y2197723D02*
G01X9551351Y2191881D01*
G01X9539921Y2174863D01*
G01X9534079Y2146161D01*
G01X9534079Y2129143D01*
G01X9539921Y2100441D01*
G01X9551351Y2083423D01*
G01X9568369Y2077581D01*
G01X9579799Y2077581D01*
G01X9597071Y2083423D01*
G01X9608501Y2100441D01*
G01X9614089Y2129143D01*
G01X9614089Y2146161D01*
G01X9608501Y2174863D01*
G01X9597071Y2191881D01*
G01X9579799Y2197723D01*
G01X9568369Y2197723D01*
G01X9661841Y2157591D02*
G01X9661841Y2077581D01*
G01X9661841Y2134731D02*
G01X9679113Y2152003D01*
G01X9690543Y2157591D01*
G01X9707561Y2157591D01*
G01X9718991Y2152003D01*
G01X9724833Y2134731D01*
G01X9724833Y2077581D01*
G01X9724833Y2134731D02*
G01X9741851Y2152003D01*
G01X9753281Y2157591D01*
G01X9770553Y2157591D01*
G01X9781983Y2152003D01*
G01X9787571Y2134731D01*
G01X9787571Y2077581D01*
G01X9835323Y2157591D02*
G01X9835323Y2077581D01*
G01X9835323Y2134731D02*
G01X9852595Y2152003D01*
G01X9864025Y2157591D01*
G01X9881043Y2157591D01*
G01X9892473Y2152003D01*
G01X9898315Y2134731D01*
G01X9898315Y2077581D01*
G01X9898315Y2134731D02*
G01X9915333Y2152003D01*
G01X9926763Y2157591D01*
G01X9944035Y2157591D01*
G01X9955465Y2152003D01*
G01X9961053Y2134731D01*
G01X9961053Y2077581D01*
G01X10008805Y2220583D02*
G01X10020235Y2209153D01*
G01X10031665Y2191881D01*
G01X10043095Y2169021D01*
G01X10048937Y2140573D01*
G01X10048937Y2117713D01*
G01X10043095Y2089011D01*
G01X10031665Y2066151D01*
G01X10020235Y2049133D01*
G01X10008805Y2037703D01*
G01X11053906Y2197723D02*
G01X11053906Y2077581D01*
G01X11053906Y2197723D02*
G01X11105468Y2197723D01*
G01X11122486Y2191881D01*
G01X11128328Y2186293D01*
G01X11133916Y2174863D01*
G01X11133916Y2157591D01*
G01X11128328Y2146161D01*
G01X11122486Y2140573D01*
G01X11105468Y2134731D01*
G01X11053906Y2134731D01*
G01X11221800Y2197723D02*
G01X11221800Y2077581D01*
G01X11181668Y2197723D02*
G01X11261678Y2197723D01*
G01X11309430Y2197723D02*
G01X11309430Y2077581D01*
G01X11389440Y2197723D02*
G01X11389440Y2077581D01*
G01X11309430Y2140573D02*
G01X11389440Y2140573D01*
G01X12595324Y2180451D02*
G01X12583894Y2191881D01*
G01X12566876Y2197723D01*
G01X12544016Y2197723D01*
G01X12526744Y2191881D01*
G01X12515314Y2180451D01*
G01X12515314Y2169021D01*
G01X12521156Y2157591D01*
G01X12526744Y2152003D01*
G01X12538174Y2146161D01*
G01X12572464Y2134731D01*
G01X12583894Y2129143D01*
G01X12589736Y2123301D01*
G01X12595324Y2111871D01*
G01X12595324Y2094853D01*
G01X12583894Y2083423D01*
G01X12566876Y2077581D01*
G01X12544016Y2077581D01*
G01X12526744Y2083423D01*
G01X12515314Y2094853D01*
G01X12643076Y2197723D02*
G01X12643076Y2077581D01*
G01X12719530Y2157591D02*
G01X12708100Y2152003D01*
G01X12696670Y2140573D01*
G01X12690828Y2123301D01*
G01X12690828Y2111871D01*
G01X12696670Y2094853D01*
G01X12708100Y2083423D01*
G01X12719530Y2077581D01*
G01X12736548Y2077581D01*
G01X12747978Y2083423D01*
G01X12759408Y2094853D01*
G01X12765250Y2111871D01*
G01X12765250Y2123301D01*
G01X12759408Y2140573D01*
G01X12747978Y2152003D01*
G01X12736548Y2157591D01*
G01X12719530Y2157591D01*
G01X12830274Y2197723D02*
G01X12830274Y2100441D01*
G01X12835862Y2083423D01*
G01X12847292Y2077581D01*
G01X12858722Y2077581D01*
G01X12813002Y2157591D02*
G01X12853134Y2157591D01*
G01X13946495Y2197723D02*
G01X13946495Y2077581D01*
G01X13946495Y2197723D02*
G01X13998057Y2197723D01*
G01X14015075Y2191881D01*
G01X14020917Y2186293D01*
G01X14026505Y2174863D01*
G01X14026505Y2157591D01*
G01X14020917Y2146161D01*
G01X14015075Y2140573D01*
G01X13998057Y2134731D01*
G01X13946495Y2134731D01*
G01X14142837Y2157591D02*
G01X14142837Y2077581D01*
G01X14142837Y2140573D02*
G01X14131407Y2152003D01*
G01X14119977Y2157591D01*
G01X14102959Y2157591D01*
G01X14091529Y2152003D01*
G01X14080099Y2140573D01*
G01X14074257Y2123301D01*
G01X14074257Y2111871D01*
G01X14080099Y2094853D01*
G01X14091529Y2083423D01*
G01X14102959Y2077581D01*
G01X14119977Y2077581D01*
G01X14131407Y2083423D01*
G01X14142837Y2094853D01*
G01X14259169Y2197723D02*
G01X14259169Y2077581D01*
G01X14259169Y2140573D02*
G01X14247739Y2152003D01*
G01X14236309Y2157591D01*
G01X14219291Y2157591D01*
G01X14207861Y2152003D01*
G01X14196431Y2140573D01*
G01X14190589Y2123301D01*
G01X14190589Y2111871D01*
G01X14196431Y2094853D01*
G01X14207861Y2083423D01*
G01X14219291Y2077581D01*
G01X14236309Y2077581D01*
G01X14247739Y2083423D01*
G01X14259169Y2094853D01*
G01X15649964Y2197723D02*
G01X15638534Y2191881D01*
G01X15627104Y2180451D01*
G01X15621516Y2169021D01*
G01X15615674Y2152003D01*
G01X15615674Y2123301D01*
G01X15621516Y2106283D01*
G01X15627104Y2094853D01*
G01X15638534Y2083423D01*
G01X15649964Y2077581D01*
G01X15672824Y2077581D01*
G01X15684254Y2083423D01*
G01X15695684Y2094853D01*
G01X15701526Y2106283D01*
G01X15707114Y2123301D01*
G01X15707114Y2152003D01*
G01X15701526Y2169021D01*
G01X15695684Y2180451D01*
G01X15684254Y2191881D01*
G01X15672824Y2197723D01*
G01X15649964Y2197723D01*
G01X15754866Y2157591D02*
G01X15789156Y2077581D01*
G01X15823446Y2157591D02*
G01X15789156Y2077581D01*
G01X15939778Y2157591D02*
G01X15939778Y2077581D01*
G01X15939778Y2140573D02*
G01X15928348Y2152003D01*
G01X15916918Y2157591D01*
G01X15899900Y2157591D01*
G01X15888470Y2152003D01*
G01X15877040Y2140573D01*
G01X15871198Y2123301D01*
G01X15871198Y2111871D01*
G01X15877040Y2094853D01*
G01X15888470Y2083423D01*
G01X15899900Y2077581D01*
G01X15916918Y2077581D01*
G01X15928348Y2083423D01*
G01X15939778Y2094853D01*
G01X15987530Y2197723D02*
G01X15987530Y2077581D01*
G01X17575175Y2197723D02*
G01X17575175Y2077581D01*
G01X17535043Y2197723D02*
G01X17615053Y2197723D01*
G01X17691507Y2157591D02*
G01X17680077Y2152003D01*
G01X17668647Y2140573D01*
G01X17662805Y2123301D01*
G01X17662805Y2111871D01*
G01X17668647Y2094853D01*
G01X17680077Y2083423D01*
G01X17691507Y2077581D01*
G01X17708525Y2077581D01*
G01X17719955Y2083423D01*
G01X17731385Y2094853D01*
G01X17737227Y2111871D01*
G01X17737227Y2123301D01*
G01X17731385Y2140573D01*
G01X17719955Y2152003D01*
G01X17708525Y2157591D01*
G01X17691507Y2157591D01*
G01X17784979Y2157591D02*
G01X17784979Y2037703D01*
G01X17784979Y2140573D02*
G01X17796409Y2152003D01*
G01X17807839Y2157591D01*
G01X17825111Y2157591D01*
G01X17836541Y2152003D01*
G01X17847971Y2140573D01*
G01X17853559Y2123301D01*
G01X17853559Y2111871D01*
G01X17847971Y2094853D01*
G01X17836541Y2083423D01*
G01X17825111Y2077581D01*
G01X17807839Y2077581D01*
G01X17796409Y2083423D01*
G01X17784979Y2094853D01*
G01X18029327Y2197723D02*
G01X18029327Y2077581D01*
G01X18029327Y2077581D02*
G01X18097907Y2077581D01*
G01X18214239Y2157591D02*
G01X18214239Y2077581D01*
G01X18214239Y2140573D02*
G01X18202809Y2152003D01*
G01X18191379Y2157591D01*
G01X18174361Y2157591D01*
G01X18162931Y2152003D01*
G01X18151501Y2140573D01*
G01X18145659Y2123301D01*
G01X18145659Y2111871D01*
G01X18151501Y2094853D01*
G01X18162931Y2083423D01*
G01X18174361Y2077581D01*
G01X18191379Y2077581D01*
G01X18202809Y2083423D01*
G01X18214239Y2094853D01*
G01X18267833Y2157591D02*
G01X18302123Y2077581D01*
G01X18336413Y2157591D02*
G01X18302123Y2077581D01*
G01X18290693Y2054721D01*
G01X18279263Y2043291D01*
G01X18267833Y2037703D01*
G01X18261991Y2037703D01*
G01X18384165Y2123301D02*
G01X18452745Y2123301D01*
G01X18452745Y2134731D01*
G01X18447157Y2146161D01*
G01X18441315Y2152003D01*
G01X18429885Y2157591D01*
G01X18412867Y2157591D01*
G01X18401437Y2152003D01*
G01X18390007Y2140573D01*
G01X18384165Y2123301D01*
G01X18384165Y2111871D01*
G01X18390007Y2094853D01*
G01X18401437Y2083423D01*
G01X18412867Y2077581D01*
G01X18429885Y2077581D01*
G01X18441315Y2083423D01*
G01X18452745Y2094853D01*
G01X18500497Y2157591D02*
G01X18500497Y2077581D01*
G01X18500497Y2123301D02*
G01X18506339Y2140573D01*
G01X18517769Y2152003D01*
G01X18529199Y2157591D01*
G01X18546217Y2157591D01*
G01X18593969Y2129143D02*
G01X18696839Y2129143D01*
G01X18744591Y2197723D02*
G01X18744591Y2077581D01*
G01X18744591Y2197723D02*
G01X18796153Y2197723D01*
G01X18813171Y2191881D01*
G01X18819013Y2186293D01*
G01X18824601Y2174863D01*
G01X18824601Y2163433D01*
G01X18819013Y2152003D01*
G01X18813171Y2146161D01*
G01X18796153Y2140573D01*
G01X18744591Y2140573D02*
G01X18796153Y2140573D01*
G01X18813171Y2134731D01*
G01X18819013Y2129143D01*
G01X18824601Y2117713D01*
G01X18824601Y2100441D01*
G01X18819013Y2089011D01*
G01X18813171Y2083423D01*
G01X18796153Y2077581D01*
G01X18744591Y2077581D01*
G01X18901055Y2157591D02*
G01X18889625Y2152003D01*
G01X18878195Y2140573D01*
G01X18872353Y2123301D01*
G01X18872353Y2111871D01*
G01X18878195Y2094853D01*
G01X18889625Y2083423D01*
G01X18901055Y2077581D01*
G01X18918073Y2077581D01*
G01X18929503Y2083423D01*
G01X18940933Y2094853D01*
G01X18946775Y2111871D01*
G01X18946775Y2123301D01*
G01X18940933Y2140573D01*
G01X18929503Y2152003D01*
G01X18918073Y2157591D01*
G01X18901055Y2157591D01*
G01X19011799Y2197723D02*
G01X19011799Y2100441D01*
G01X19017387Y2083423D01*
G01X19028817Y2077581D01*
G01X19040247Y2077581D01*
G01X18994527Y2157591D02*
G01X19034659Y2157591D01*
G01X19105271Y2197723D02*
G01X19105271Y2100441D01*
G01X19110859Y2083423D01*
G01X19122289Y2077581D01*
G01X19133719Y2077581D01*
G01X19087999Y2157591D02*
G01X19128131Y2157591D01*
G01X19210173Y2157591D02*
G01X19198743Y2152003D01*
G01X19187313Y2140573D01*
G01X19181471Y2123301D01*
G01X19181471Y2111871D01*
G01X19187313Y2094853D01*
G01X19198743Y2083423D01*
G01X19210173Y2077581D01*
G01X19227191Y2077581D01*
G01X19238621Y2083423D01*
G01X19250051Y2094853D01*
G01X19255893Y2111871D01*
G01X19255893Y2123301D01*
G01X19250051Y2140573D01*
G01X19238621Y2152003D01*
G01X19227191Y2157591D01*
G01X19210173Y2157591D01*
G01X19303645Y2157591D02*
G01X19303645Y2077581D01*
G01X19303645Y2134731D02*
G01X19320917Y2152003D01*
G01X19332347Y2157591D01*
G01X19349365Y2157591D01*
G01X19360795Y2152003D01*
G01X19366637Y2134731D01*
G01X19366637Y2077581D01*
G01X19366637Y2134731D02*
G01X19383655Y2152003D01*
G01X19395085Y2157591D01*
G01X19412357Y2157591D01*
G01X19423787Y2152003D01*
G01X19429375Y2134731D01*
G01X19429375Y2077581D01*
G01X19605143Y2197723D02*
G01X19605143Y2077581D01*
G01X19605143Y2077581D02*
G01X19673723Y2077581D01*
G01X19790055Y2157591D02*
G01X19790055Y2077581D01*
G01X19790055Y2140573D02*
G01X19778625Y2152003D01*
G01X19767195Y2157591D01*
G01X19750177Y2157591D01*
G01X19738747Y2152003D01*
G01X19727317Y2140573D01*
G01X19721475Y2123301D01*
G01X19721475Y2111871D01*
G01X19727317Y2094853D01*
G01X19738747Y2083423D01*
G01X19750177Y2077581D01*
G01X19767195Y2077581D01*
G01X19778625Y2083423D01*
G01X19790055Y2094853D01*
G01X19843649Y2157591D02*
G01X19877939Y2077581D01*
G01X19912229Y2157591D02*
G01X19877939Y2077581D01*
G01X19866509Y2054721D01*
G01X19855079Y2043291D01*
G01X19843649Y2037703D01*
G01X19837807Y2037703D01*
G01X19959981Y2123301D02*
G01X20028561Y2123301D01*
G01X20028561Y2134731D01*
G01X20022973Y2146161D01*
G01X20017131Y2152003D01*
G01X20005701Y2157591D01*
G01X19988683Y2157591D01*
G01X19977253Y2152003D01*
G01X19965823Y2140573D01*
G01X19959981Y2123301D01*
G01X19959981Y2111871D01*
G01X19965823Y2094853D01*
G01X19977253Y2083423D01*
G01X19988683Y2077581D01*
G01X20005701Y2077581D01*
G01X20017131Y2083423D01*
G01X20028561Y2094853D01*
G01X20076313Y2157591D02*
G01X20076313Y2077581D01*
G01X20076313Y2123301D02*
G01X20082155Y2140573D01*
G01X20093585Y2152003D01*
G01X20105015Y2157591D01*
G01X20122033Y2157591D01*
G01X5757716Y1588450D02*
G01X5757716Y1594292D01*
G01X5763304Y1605722D01*
G01X5769146Y1611310D01*
G01X5780576Y1617152D01*
G01X5803436Y1617152D01*
G01X5814866Y1611310D01*
G01X5820454Y1605722D01*
G01X5826296Y1594292D01*
G01X5826296Y1582862D01*
G01X5820454Y1571432D01*
G01X5809024Y1554160D01*
G01X5751874Y1497010D01*
G01X5831884Y1497010D01*
G01X7171879Y1588450D02*
G01X7171879Y1594292D01*
G01X7177467Y1605722D01*
G01X7183309Y1611310D01*
G01X7194739Y1617152D01*
G01X7217599Y1617152D01*
G01X7229029Y1611310D01*
G01X7234617Y1605722D01*
G01X7240459Y1594292D01*
G01X7240459Y1582862D01*
G01X7234617Y1571432D01*
G01X7223187Y1554160D01*
G01X7166037Y1497010D01*
G01X7246047Y1497010D01*
G01X7305229Y1617152D02*
G01X7368221Y1617152D01*
G01X7333931Y1571432D01*
G01X7350949Y1571432D01*
G01X7362379Y1565590D01*
G01X7368221Y1560002D01*
G01X7373809Y1542730D01*
G01X7373809Y1531300D01*
G01X7368221Y1514282D01*
G01X7356791Y1502852D01*
G01X7339519Y1497010D01*
G01X7322501Y1497010D01*
G01X7305229Y1502852D01*
G01X7299641Y1508440D01*
G01X7293799Y1519870D01*
G01X7427403Y1525712D02*
G01X7421561Y1519870D01*
G01X7427403Y1514282D01*
G01X7432991Y1519870D01*
G01X7427403Y1525712D01*
G01X7549323Y1599880D02*
G01X7543735Y1611310D01*
G01X7526463Y1617152D01*
G01X7515033Y1617152D01*
G01X7498015Y1611310D01*
G01X7486585Y1594292D01*
G01X7480743Y1565590D01*
G01X7480743Y1537142D01*
G01X7486585Y1514282D01*
G01X7498015Y1502852D01*
G01X7515033Y1497010D01*
G01X7520875Y1497010D01*
G01X7537893Y1502852D01*
G01X7549323Y1514282D01*
G01X7555165Y1531300D01*
G01X7555165Y1537142D01*
G01X7549323Y1554160D01*
G01X7537893Y1565590D01*
G01X7520875Y1571432D01*
G01X7515033Y1571432D01*
G01X7498015Y1565590D01*
G01X7486585Y1554160D01*
G01X7480743Y1537142D01*
G01X7602917Y1577020D02*
G01X7665909Y1497010D01*
G01X7665909Y1577020D02*
G01X7602917Y1497010D01*
G01X7770811Y1617152D02*
G01X7713661Y1537142D01*
G01X7799513Y1537142D01*
G01X7770811Y1617152D02*
G01X7770811Y1497010D01*
G01X7927275Y1617152D02*
G01X7870125Y1497010D01*
G01X7847265Y1617152D02*
G01X7927275Y1617152D01*
G01X7980869Y1525712D02*
G01X7975027Y1519870D01*
G01X7980869Y1514282D01*
G01X7986457Y1519870D01*
G01X7980869Y1525712D01*
G01X8040051Y1588450D02*
G01X8040051Y1594292D01*
G01X8045639Y1605722D01*
G01X8051481Y1611310D01*
G01X8062911Y1617152D01*
G01X8085771Y1617152D01*
G01X8097201Y1611310D01*
G01X8102789Y1605722D01*
G01X8108631Y1594292D01*
G01X8108631Y1582862D01*
G01X8102789Y1571432D01*
G01X8091359Y1554160D01*
G01X8034209Y1497010D01*
G01X8114219Y1497010D01*
G01X8161971Y1577020D02*
G01X8161971Y1497010D01*
G01X8161971Y1554160D02*
G01X8179243Y1571432D01*
G01X8190673Y1577020D01*
G01X8207691Y1577020D01*
G01X8219121Y1571432D01*
G01X8224963Y1554160D01*
G01X8224963Y1497010D01*
G01X8224963Y1554160D02*
G01X8241981Y1571432D01*
G01X8253411Y1577020D01*
G01X8270683Y1577020D01*
G01X8282113Y1571432D01*
G01X8287701Y1554160D01*
G01X8287701Y1497010D01*
G01X8335453Y1617152D02*
G01X8341295Y1611310D01*
G01X8346883Y1617152D01*
G01X8341295Y1622740D01*
G01X8335453Y1617152D01*
G01X8341295Y1577020D02*
G01X8341295Y1497010D01*
G01X8394635Y1617152D02*
G01X8394635Y1497010D01*
G01X8482519Y1640012D02*
G01X8471089Y1628582D01*
G01X8459659Y1611310D01*
G01X8448229Y1588450D01*
G01X8442387Y1560002D01*
G01X8442387Y1537142D01*
G01X8448229Y1508440D01*
G01X8459659Y1485580D01*
G01X8471089Y1468562D01*
G01X8482519Y1457132D01*
G01X8564561Y1617152D02*
G01X8547543Y1611310D01*
G01X8536113Y1594292D01*
G01X8530271Y1565590D01*
G01X8530271Y1548572D01*
G01X8536113Y1519870D01*
G01X8547543Y1502852D01*
G01X8564561Y1497010D01*
G01X8575991Y1497010D01*
G01X8593263Y1502852D01*
G01X8604693Y1519870D01*
G01X8610281Y1548572D01*
G01X8610281Y1565590D01*
G01X8604693Y1594292D01*
G01X8593263Y1611310D01*
G01X8575991Y1617152D01*
G01X8564561Y1617152D01*
G01X8663875Y1525712D02*
G01X8658033Y1519870D01*
G01X8663875Y1514282D01*
G01X8669463Y1519870D01*
G01X8663875Y1525712D01*
G01X8785795Y1599880D02*
G01X8780207Y1611310D01*
G01X8762935Y1617152D01*
G01X8751505Y1617152D01*
G01X8734487Y1611310D01*
G01X8723057Y1594292D01*
G01X8717215Y1565590D01*
G01X8717215Y1537142D01*
G01X8723057Y1514282D01*
G01X8734487Y1502852D01*
G01X8751505Y1497010D01*
G01X8757347Y1497010D01*
G01X8774365Y1502852D01*
G01X8785795Y1514282D01*
G01X8791637Y1531300D01*
G01X8791637Y1537142D01*
G01X8785795Y1554160D01*
G01X8774365Y1565590D01*
G01X8757347Y1571432D01*
G01X8751505Y1571432D01*
G01X8734487Y1565590D01*
G01X8723057Y1554160D01*
G01X8717215Y1537142D01*
G01X8873679Y1617152D02*
G01X8856661Y1611310D01*
G01X8845231Y1594292D01*
G01X8839389Y1565590D01*
G01X8839389Y1548572D01*
G01X8845231Y1519870D01*
G01X8856661Y1502852D01*
G01X8873679Y1497010D01*
G01X8885109Y1497010D01*
G01X8902381Y1502852D01*
G01X8913811Y1519870D01*
G01X8919399Y1548572D01*
G01X8919399Y1565590D01*
G01X8913811Y1594292D01*
G01X8902381Y1611310D01*
G01X8885109Y1617152D01*
G01X8873679Y1617152D01*
G01X9001441Y1617152D02*
G01X8984423Y1611310D01*
G01X8972993Y1594292D01*
G01X8967151Y1565590D01*
G01X8967151Y1548572D01*
G01X8972993Y1519870D01*
G01X8984423Y1502852D01*
G01X9001441Y1497010D01*
G01X9012871Y1497010D01*
G01X9030143Y1502852D01*
G01X9041573Y1519870D01*
G01X9047161Y1548572D01*
G01X9047161Y1565590D01*
G01X9041573Y1594292D01*
G01X9030143Y1611310D01*
G01X9012871Y1617152D01*
G01X9001441Y1617152D01*
G01X9094913Y1577020D02*
G01X9157905Y1497010D01*
G01X9157905Y1577020D02*
G01X9094913Y1497010D01*
G01X9205657Y1594292D02*
G01X9217087Y1599880D01*
G01X9234359Y1617152D01*
G01X9234359Y1497010D01*
G01X9287953Y1525712D02*
G01X9282111Y1519870D01*
G01X9287953Y1514282D01*
G01X9293541Y1519870D01*
G01X9287953Y1525712D01*
G01X9347135Y1588450D02*
G01X9347135Y1594292D01*
G01X9352723Y1605722D01*
G01X9358565Y1611310D01*
G01X9369995Y1617152D01*
G01X9392855Y1617152D01*
G01X9404285Y1611310D01*
G01X9409873Y1605722D01*
G01X9415715Y1594292D01*
G01X9415715Y1582862D01*
G01X9409873Y1571432D01*
G01X9398443Y1554160D01*
G01X9341293Y1497010D01*
G01X9421303Y1497010D01*
G01X9503345Y1617152D02*
G01X9486327Y1611310D01*
G01X9474897Y1594292D01*
G01X9469055Y1565590D01*
G01X9469055Y1548572D01*
G01X9474897Y1519870D01*
G01X9486327Y1502852D01*
G01X9503345Y1497010D01*
G01X9514775Y1497010D01*
G01X9532047Y1502852D01*
G01X9543477Y1519870D01*
G01X9549065Y1548572D01*
G01X9549065Y1565590D01*
G01X9543477Y1594292D01*
G01X9532047Y1611310D01*
G01X9514775Y1617152D01*
G01X9503345Y1617152D01*
G01X9631107Y1617152D02*
G01X9614089Y1611310D01*
G01X9602659Y1594292D01*
G01X9596817Y1565590D01*
G01X9596817Y1548572D01*
G01X9602659Y1519870D01*
G01X9614089Y1502852D01*
G01X9631107Y1497010D01*
G01X9642537Y1497010D01*
G01X9659809Y1502852D01*
G01X9671239Y1519870D01*
G01X9676827Y1548572D01*
G01X9676827Y1565590D01*
G01X9671239Y1594292D01*
G01X9659809Y1611310D01*
G01X9642537Y1617152D01*
G01X9631107Y1617152D01*
G01X9724579Y1577020D02*
G01X9724579Y1497010D01*
G01X9724579Y1554160D02*
G01X9741851Y1571432D01*
G01X9753281Y1577020D01*
G01X9770299Y1577020D01*
G01X9781729Y1571432D01*
G01X9787571Y1554160D01*
G01X9787571Y1497010D01*
G01X9787571Y1554160D02*
G01X9804589Y1571432D01*
G01X9816019Y1577020D01*
G01X9833291Y1577020D01*
G01X9844721Y1571432D01*
G01X9850309Y1554160D01*
G01X9850309Y1497010D01*
G01X9898061Y1577020D02*
G01X9898061Y1497010D01*
G01X9898061Y1554160D02*
G01X9915333Y1571432D01*
G01X9926763Y1577020D01*
G01X9943781Y1577020D01*
G01X9955211Y1571432D01*
G01X9961053Y1554160D01*
G01X9961053Y1497010D01*
G01X9961053Y1554160D02*
G01X9978071Y1571432D01*
G01X9989501Y1577020D01*
G01X10006773Y1577020D01*
G01X10018203Y1571432D01*
G01X10023791Y1554160D01*
G01X10023791Y1497010D01*
G01X10071543Y1640012D02*
G01X10082973Y1628582D01*
G01X10094403Y1611310D01*
G01X10105833Y1588450D01*
G01X10111675Y1560002D01*
G01X10111675Y1537142D01*
G01X10105833Y1508440D01*
G01X10094403Y1485580D01*
G01X10082973Y1468562D01*
G01X10071543Y1457132D01*
G01X11053906Y1617152D02*
G01X11053906Y1497010D01*
G01X11053906Y1617152D02*
G01X11105468Y1617152D01*
G01X11122486Y1611310D01*
G01X11128328Y1605722D01*
G01X11133916Y1594292D01*
G01X11133916Y1577020D01*
G01X11128328Y1565590D01*
G01X11122486Y1560002D01*
G01X11105468Y1554160D01*
G01X11053906Y1554160D01*
G01X11221800Y1617152D02*
G01X11221800Y1497010D01*
G01X11181668Y1617152D02*
G01X11261678Y1617152D01*
G01X11309430Y1617152D02*
G01X11309430Y1497010D01*
G01X11389440Y1617152D02*
G01X11389440Y1497010D01*
G01X11309430Y1560002D02*
G01X11389440Y1560002D01*
G01X12595324Y1599880D02*
G01X12583894Y1611310D01*
G01X12566876Y1617152D01*
G01X12544016Y1617152D01*
G01X12526744Y1611310D01*
G01X12515314Y1599880D01*
G01X12515314Y1588450D01*
G01X12521156Y1577020D01*
G01X12526744Y1571432D01*
G01X12538174Y1565590D01*
G01X12572464Y1554160D01*
G01X12583894Y1548572D01*
G01X12589736Y1542730D01*
G01X12595324Y1531300D01*
G01X12595324Y1514282D01*
G01X12583894Y1502852D01*
G01X12566876Y1497010D01*
G01X12544016Y1497010D01*
G01X12526744Y1502852D01*
G01X12515314Y1514282D01*
G01X12643076Y1617152D02*
G01X12643076Y1497010D01*
G01X12719530Y1577020D02*
G01X12708100Y1571432D01*
G01X12696670Y1560002D01*
G01X12690828Y1542730D01*
G01X12690828Y1531300D01*
G01X12696670Y1514282D01*
G01X12708100Y1502852D01*
G01X12719530Y1497010D01*
G01X12736548Y1497010D01*
G01X12747978Y1502852D01*
G01X12759408Y1514282D01*
G01X12765250Y1531300D01*
G01X12765250Y1542730D01*
G01X12759408Y1560002D01*
G01X12747978Y1571432D01*
G01X12736548Y1577020D01*
G01X12719530Y1577020D01*
G01X12830274Y1617152D02*
G01X12830274Y1519870D01*
G01X12835862Y1502852D01*
G01X12847292Y1497010D01*
G01X12858722Y1497010D01*
G01X12813002Y1577020D02*
G01X12853134Y1577020D01*
G01X13946495Y1617152D02*
G01X13946495Y1497010D01*
G01X13946495Y1617152D02*
G01X13998057Y1617152D01*
G01X14015075Y1611310D01*
G01X14020917Y1605722D01*
G01X14026505Y1594292D01*
G01X14026505Y1577020D01*
G01X14020917Y1565590D01*
G01X14015075Y1560002D01*
G01X13998057Y1554160D01*
G01X13946495Y1554160D01*
G01X14142837Y1577020D02*
G01X14142837Y1497010D01*
G01X14142837Y1560002D02*
G01X14131407Y1571432D01*
G01X14119977Y1577020D01*
G01X14102959Y1577020D01*
G01X14091529Y1571432D01*
G01X14080099Y1560002D01*
G01X14074257Y1542730D01*
G01X14074257Y1531300D01*
G01X14080099Y1514282D01*
G01X14091529Y1502852D01*
G01X14102959Y1497010D01*
G01X14119977Y1497010D01*
G01X14131407Y1502852D01*
G01X14142837Y1514282D01*
G01X14259169Y1617152D02*
G01X14259169Y1497010D01*
G01X14259169Y1560002D02*
G01X14247739Y1571432D01*
G01X14236309Y1577020D01*
G01X14219291Y1577020D01*
G01X14207861Y1571432D01*
G01X14196431Y1560002D01*
G01X14190589Y1542730D01*
G01X14190589Y1531300D01*
G01X14196431Y1514282D01*
G01X14207861Y1502852D01*
G01X14219291Y1497010D01*
G01X14236309Y1497010D01*
G01X14247739Y1502852D01*
G01X14259169Y1514282D01*
G01X15649964Y1617152D02*
G01X15638534Y1611310D01*
G01X15627104Y1599880D01*
G01X15621516Y1588450D01*
G01X15615674Y1571432D01*
G01X15615674Y1542730D01*
G01X15621516Y1525712D01*
G01X15627104Y1514282D01*
G01X15638534Y1502852D01*
G01X15649964Y1497010D01*
G01X15672824Y1497010D01*
G01X15684254Y1502852D01*
G01X15695684Y1514282D01*
G01X15701526Y1525712D01*
G01X15707114Y1542730D01*
G01X15707114Y1571432D01*
G01X15701526Y1588450D01*
G01X15695684Y1599880D01*
G01X15684254Y1611310D01*
G01X15672824Y1617152D01*
G01X15649964Y1617152D01*
G01X15754866Y1577020D02*
G01X15789156Y1497010D01*
G01X15823446Y1577020D02*
G01X15789156Y1497010D01*
G01X15939778Y1577020D02*
G01X15939778Y1497010D01*
G01X15939778Y1560002D02*
G01X15928348Y1571432D01*
G01X15916918Y1577020D01*
G01X15899900Y1577020D01*
G01X15888470Y1571432D01*
G01X15877040Y1560002D01*
G01X15871198Y1542730D01*
G01X15871198Y1531300D01*
G01X15877040Y1514282D01*
G01X15888470Y1502852D01*
G01X15899900Y1497010D01*
G01X15916918Y1497010D01*
G01X15928348Y1502852D01*
G01X15939778Y1514282D01*
G01X15987530Y1617152D02*
G01X15987530Y1497010D01*
G01X17575175Y1617152D02*
G01X17575175Y1497010D01*
G01X17535043Y1617152D02*
G01X17615053Y1617152D01*
G01X17691507Y1577020D02*
G01X17680077Y1571432D01*
G01X17668647Y1560002D01*
G01X17662805Y1542730D01*
G01X17662805Y1531300D01*
G01X17668647Y1514282D01*
G01X17680077Y1502852D01*
G01X17691507Y1497010D01*
G01X17708525Y1497010D01*
G01X17719955Y1502852D01*
G01X17731385Y1514282D01*
G01X17737227Y1531300D01*
G01X17737227Y1542730D01*
G01X17731385Y1560002D01*
G01X17719955Y1571432D01*
G01X17708525Y1577020D01*
G01X17691507Y1577020D01*
G01X17784979Y1577020D02*
G01X17784979Y1457132D01*
G01X17784979Y1560002D02*
G01X17796409Y1571432D01*
G01X17807839Y1577020D01*
G01X17825111Y1577020D01*
G01X17836541Y1571432D01*
G01X17847971Y1560002D01*
G01X17853559Y1542730D01*
G01X17853559Y1531300D01*
G01X17847971Y1514282D01*
G01X17836541Y1502852D01*
G01X17825111Y1497010D01*
G01X17807839Y1497010D01*
G01X17796409Y1502852D01*
G01X17784979Y1514282D01*
G01X18029327Y1617152D02*
G01X18029327Y1497010D01*
G01X18029327Y1497010D02*
G01X18097907Y1497010D01*
G01X18214239Y1577020D02*
G01X18214239Y1497010D01*
G01X18214239Y1560002D02*
G01X18202809Y1571432D01*
G01X18191379Y1577020D01*
G01X18174361Y1577020D01*
G01X18162931Y1571432D01*
G01X18151501Y1560002D01*
G01X18145659Y1542730D01*
G01X18145659Y1531300D01*
G01X18151501Y1514282D01*
G01X18162931Y1502852D01*
G01X18174361Y1497010D01*
G01X18191379Y1497010D01*
G01X18202809Y1502852D01*
G01X18214239Y1514282D01*
G01X18267833Y1577020D02*
G01X18302123Y1497010D01*
G01X18336413Y1577020D02*
G01X18302123Y1497010D01*
G01X18290693Y1474150D01*
G01X18279263Y1462720D01*
G01X18267833Y1457132D01*
G01X18261991Y1457132D01*
G01X18384165Y1542730D02*
G01X18452745Y1542730D01*
G01X18452745Y1554160D01*
G01X18447157Y1565590D01*
G01X18441315Y1571432D01*
G01X18429885Y1577020D01*
G01X18412867Y1577020D01*
G01X18401437Y1571432D01*
G01X18390007Y1560002D01*
G01X18384165Y1542730D01*
G01X18384165Y1531300D01*
G01X18390007Y1514282D01*
G01X18401437Y1502852D01*
G01X18412867Y1497010D01*
G01X18429885Y1497010D01*
G01X18441315Y1502852D01*
G01X18452745Y1514282D01*
G01X18500497Y1577020D02*
G01X18500497Y1497010D01*
G01X18500497Y1542730D02*
G01X18506339Y1560002D01*
G01X18517769Y1571432D01*
G01X18529199Y1577020D01*
G01X18546217Y1577020D01*
G01X18593969Y1548572D02*
G01X18696839Y1548572D01*
G01X18744591Y1617152D02*
G01X18744591Y1497010D01*
G01X18744591Y1617152D02*
G01X18796153Y1617152D01*
G01X18813171Y1611310D01*
G01X18819013Y1605722D01*
G01X18824601Y1594292D01*
G01X18824601Y1582862D01*
G01X18819013Y1571432D01*
G01X18813171Y1565590D01*
G01X18796153Y1560002D01*
G01X18744591Y1560002D02*
G01X18796153Y1560002D01*
G01X18813171Y1554160D01*
G01X18819013Y1548572D01*
G01X18824601Y1537142D01*
G01X18824601Y1519870D01*
G01X18819013Y1508440D01*
G01X18813171Y1502852D01*
G01X18796153Y1497010D01*
G01X18744591Y1497010D01*
G01X18901055Y1577020D02*
G01X18889625Y1571432D01*
G01X18878195Y1560002D01*
G01X18872353Y1542730D01*
G01X18872353Y1531300D01*
G01X18878195Y1514282D01*
G01X18889625Y1502852D01*
G01X18901055Y1497010D01*
G01X18918073Y1497010D01*
G01X18929503Y1502852D01*
G01X18940933Y1514282D01*
G01X18946775Y1531300D01*
G01X18946775Y1542730D01*
G01X18940933Y1560002D01*
G01X18929503Y1571432D01*
G01X18918073Y1577020D01*
G01X18901055Y1577020D01*
G01X19011799Y1617152D02*
G01X19011799Y1519870D01*
G01X19017387Y1502852D01*
G01X19028817Y1497010D01*
G01X19040247Y1497010D01*
G01X18994527Y1577020D02*
G01X19034659Y1577020D01*
G01X19105271Y1617152D02*
G01X19105271Y1519870D01*
G01X19110859Y1502852D01*
G01X19122289Y1497010D01*
G01X19133719Y1497010D01*
G01X19087999Y1577020D02*
G01X19128131Y1577020D01*
G01X19210173Y1577020D02*
G01X19198743Y1571432D01*
G01X19187313Y1560002D01*
G01X19181471Y1542730D01*
G01X19181471Y1531300D01*
G01X19187313Y1514282D01*
G01X19198743Y1502852D01*
G01X19210173Y1497010D01*
G01X19227191Y1497010D01*
G01X19238621Y1502852D01*
G01X19250051Y1514282D01*
G01X19255893Y1531300D01*
G01X19255893Y1542730D01*
G01X19250051Y1560002D01*
G01X19238621Y1571432D01*
G01X19227191Y1577020D01*
G01X19210173Y1577020D01*
G01X19303645Y1577020D02*
G01X19303645Y1497010D01*
G01X19303645Y1554160D02*
G01X19320917Y1571432D01*
G01X19332347Y1577020D01*
G01X19349365Y1577020D01*
G01X19360795Y1571432D01*
G01X19366637Y1554160D01*
G01X19366637Y1497010D01*
G01X19366637Y1554160D02*
G01X19383655Y1571432D01*
G01X19395085Y1577020D01*
G01X19412357Y1577020D01*
G01X19423787Y1571432D01*
G01X19429375Y1554160D01*
G01X19429375Y1497010D01*
G01X19605143Y1617152D02*
G01X19605143Y1497010D01*
G01X19605143Y1497010D02*
G01X19673723Y1497010D01*
G01X19790055Y1577020D02*
G01X19790055Y1497010D01*
G01X19790055Y1560002D02*
G01X19778625Y1571432D01*
G01X19767195Y1577020D01*
G01X19750177Y1577020D01*
G01X19738747Y1571432D01*
G01X19727317Y1560002D01*
G01X19721475Y1542730D01*
G01X19721475Y1531300D01*
G01X19727317Y1514282D01*
G01X19738747Y1502852D01*
G01X19750177Y1497010D01*
G01X19767195Y1497010D01*
G01X19778625Y1502852D01*
G01X19790055Y1514282D01*
G01X19843649Y1577020D02*
G01X19877939Y1497010D01*
G01X19912229Y1577020D02*
G01X19877939Y1497010D01*
G01X19866509Y1474150D01*
G01X19855079Y1462720D01*
G01X19843649Y1457132D01*
G01X19837807Y1457132D01*
G01X19959981Y1542730D02*
G01X20028561Y1542730D01*
G01X20028561Y1554160D01*
G01X20022973Y1565590D01*
G01X20017131Y1571432D01*
G01X20005701Y1577020D01*
G01X19988683Y1577020D01*
G01X19977253Y1571432D01*
G01X19965823Y1560002D01*
G01X19959981Y1542730D01*
G01X19959981Y1531300D01*
G01X19965823Y1514282D01*
G01X19977253Y1502852D01*
G01X19988683Y1497010D01*
G01X20005701Y1497010D01*
G01X20017131Y1502852D01*
G01X20028561Y1514282D01*
G01X20076313Y1577020D02*
G01X20076313Y1497010D01*
G01X20076313Y1542730D02*
G01X20082155Y1560002D01*
G01X20093585Y1571432D01*
G01X20105015Y1577020D01*
G01X20122033Y1577020D01*
G01X5757716Y1007878D02*
G01X5757716Y1013720D01*
G01X5763304Y1025150D01*
G01X5769146Y1030738D01*
G01X5780576Y1036580D01*
G01X5803436Y1036580D01*
G01X5814866Y1030738D01*
G01X5820454Y1025150D01*
G01X5826296Y1013720D01*
G01X5826296Y1002290D01*
G01X5820454Y990860D01*
G01X5809024Y973588D01*
G01X5751874Y916438D01*
G01X5831884Y916438D01*
G01X7171879Y1007878D02*
G01X7171879Y1013720D01*
G01X7177467Y1025150D01*
G01X7183309Y1030738D01*
G01X7194739Y1036580D01*
G01X7217599Y1036580D01*
G01X7229029Y1030738D01*
G01X7234617Y1025150D01*
G01X7240459Y1013720D01*
G01X7240459Y1002290D01*
G01X7234617Y990860D01*
G01X7223187Y973588D01*
G01X7166037Y916438D01*
G01X7246047Y916438D01*
G01X7373809Y1036580D02*
G01X7316659Y916438D01*
G01X7293799Y1036580D02*
G01X7373809Y1036580D01*
G01X7427403Y945140D02*
G01X7421561Y939298D01*
G01X7427403Y933710D01*
G01X7432991Y939298D01*
G01X7427403Y945140D01*
G01X7549323Y1019308D02*
G01X7543735Y1030738D01*
G01X7526463Y1036580D01*
G01X7515033Y1036580D01*
G01X7498015Y1030738D01*
G01X7486585Y1013720D01*
G01X7480743Y985018D01*
G01X7480743Y956570D01*
G01X7486585Y933710D01*
G01X7498015Y922280D01*
G01X7515033Y916438D01*
G01X7520875Y916438D01*
G01X7537893Y922280D01*
G01X7549323Y933710D01*
G01X7555165Y950728D01*
G01X7555165Y956570D01*
G01X7549323Y973588D01*
G01X7537893Y985018D01*
G01X7520875Y990860D01*
G01X7515033Y990860D01*
G01X7498015Y985018D01*
G01X7486585Y973588D01*
G01X7480743Y956570D01*
G01X7602917Y996448D02*
G01X7665909Y916438D01*
G01X7665909Y996448D02*
G01X7602917Y916438D01*
G01X7719503Y1007878D02*
G01X7719503Y1013720D01*
G01X7725091Y1025150D01*
G01X7730933Y1030738D01*
G01X7742363Y1036580D01*
G01X7765223Y1036580D01*
G01X7776653Y1030738D01*
G01X7782241Y1025150D01*
G01X7788083Y1013720D01*
G01X7788083Y1002290D01*
G01X7782241Y990860D01*
G01X7770811Y973588D01*
G01X7713661Y916438D01*
G01X7793671Y916438D01*
G01X7921433Y1036580D02*
G01X7864283Y916438D01*
G01X7841423Y1036580D02*
G01X7921433Y1036580D01*
G01X7975027Y945140D02*
G01X7969185Y939298D01*
G01X7975027Y933710D01*
G01X7980615Y939298D01*
G01X7975027Y945140D01*
G01X8096947Y1019308D02*
G01X8091359Y1030738D01*
G01X8074087Y1036580D01*
G01X8062657Y1036580D01*
G01X8045639Y1030738D01*
G01X8034209Y1013720D01*
G01X8028367Y985018D01*
G01X8028367Y956570D01*
G01X8034209Y933710D01*
G01X8045639Y922280D01*
G01X8062657Y916438D01*
G01X8068499Y916438D01*
G01X8085517Y922280D01*
G01X8096947Y933710D01*
G01X8102789Y950728D01*
G01X8102789Y956570D01*
G01X8096947Y973588D01*
G01X8085517Y985018D01*
G01X8068499Y990860D01*
G01X8062657Y990860D01*
G01X8045639Y985018D01*
G01X8034209Y973588D01*
G01X8028367Y956570D01*
G01X8150541Y996448D02*
G01X8150541Y916438D01*
G01X8150541Y973588D02*
G01X8167813Y990860D01*
G01X8179243Y996448D01*
G01X8196261Y996448D01*
G01X8207691Y990860D01*
G01X8213533Y973588D01*
G01X8213533Y916438D01*
G01X8213533Y973588D02*
G01X8230551Y990860D01*
G01X8241981Y996448D01*
G01X8259253Y996448D01*
G01X8270683Y990860D01*
G01X8276271Y973588D01*
G01X8276271Y916438D01*
G01X8324023Y1036580D02*
G01X8329865Y1030738D01*
G01X8335453Y1036580D01*
G01X8329865Y1042168D01*
G01X8324023Y1036580D01*
G01X8329865Y996448D02*
G01X8329865Y916438D01*
G01X8383205Y1036580D02*
G01X8383205Y916438D01*
G01X8471089Y1059440D02*
G01X8459659Y1048010D01*
G01X8448229Y1030738D01*
G01X8436799Y1007878D01*
G01X8430957Y979430D01*
G01X8430957Y956570D01*
G01X8436799Y927868D01*
G01X8448229Y905008D01*
G01X8459659Y887990D01*
G01X8471089Y876560D01*
G01X8553131Y1036580D02*
G01X8536113Y1030738D01*
G01X8524683Y1013720D01*
G01X8518841Y985018D01*
G01X8518841Y968000D01*
G01X8524683Y939298D01*
G01X8536113Y922280D01*
G01X8553131Y916438D01*
G01X8564561Y916438D01*
G01X8581833Y922280D01*
G01X8593263Y939298D01*
G01X8598851Y968000D01*
G01X8598851Y985018D01*
G01X8593263Y1013720D01*
G01X8581833Y1030738D01*
G01X8564561Y1036580D01*
G01X8553131Y1036580D01*
G01X8652445Y945140D02*
G01X8646603Y939298D01*
G01X8652445Y933710D01*
G01X8658033Y939298D01*
G01X8652445Y945140D01*
G01X8785795Y1036580D02*
G01X8728645Y916438D01*
G01X8705785Y1036580D02*
G01X8785795Y1036580D01*
G01X8867837Y1036580D02*
G01X8850819Y1030738D01*
G01X8839389Y1013720D01*
G01X8833547Y985018D01*
G01X8833547Y968000D01*
G01X8839389Y939298D01*
G01X8850819Y922280D01*
G01X8867837Y916438D01*
G01X8879267Y916438D01*
G01X8896539Y922280D01*
G01X8907969Y939298D01*
G01X8913557Y968000D01*
G01X8913557Y985018D01*
G01X8907969Y1013720D01*
G01X8896539Y1030738D01*
G01X8879267Y1036580D01*
G01X8867837Y1036580D01*
G01X8995599Y1036580D02*
G01X8978581Y1030738D01*
G01X8967151Y1013720D01*
G01X8961309Y985018D01*
G01X8961309Y968000D01*
G01X8967151Y939298D01*
G01X8978581Y922280D01*
G01X8995599Y916438D01*
G01X9007029Y916438D01*
G01X9024301Y922280D01*
G01X9035731Y939298D01*
G01X9041319Y968000D01*
G01X9041319Y985018D01*
G01X9035731Y1013720D01*
G01X9024301Y1030738D01*
G01X9007029Y1036580D01*
G01X8995599Y1036580D01*
G01X9089071Y996448D02*
G01X9152063Y916438D01*
G01X9152063Y996448D02*
G01X9089071Y916438D01*
G01X9234105Y1036580D02*
G01X9217087Y1030738D01*
G01X9205657Y1013720D01*
G01X9199815Y985018D01*
G01X9199815Y968000D01*
G01X9205657Y939298D01*
G01X9217087Y922280D01*
G01X9234105Y916438D01*
G01X9245535Y916438D01*
G01X9262807Y922280D01*
G01X9274237Y939298D01*
G01X9279825Y968000D01*
G01X9279825Y985018D01*
G01X9274237Y1013720D01*
G01X9262807Y1030738D01*
G01X9245535Y1036580D01*
G01X9234105Y1036580D01*
G01X9333419Y945140D02*
G01X9327577Y939298D01*
G01X9333419Y933710D01*
G01X9339007Y939298D01*
G01X9333419Y945140D01*
G01X9466769Y1036580D02*
G01X9409619Y916438D01*
G01X9386759Y1036580D02*
G01X9466769Y1036580D01*
G01X9548811Y1036580D02*
G01X9531793Y1030738D01*
G01X9520363Y1013720D01*
G01X9514521Y985018D01*
G01X9514521Y968000D01*
G01X9520363Y939298D01*
G01X9531793Y922280D01*
G01X9548811Y916438D01*
G01X9560241Y916438D01*
G01X9577513Y922280D01*
G01X9588943Y939298D01*
G01X9594531Y968000D01*
G01X9594531Y985018D01*
G01X9588943Y1013720D01*
G01X9577513Y1030738D01*
G01X9560241Y1036580D01*
G01X9548811Y1036580D01*
G01X9676573Y1036580D02*
G01X9659555Y1030738D01*
G01X9648125Y1013720D01*
G01X9642283Y985018D01*
G01X9642283Y968000D01*
G01X9648125Y939298D01*
G01X9659555Y922280D01*
G01X9676573Y916438D01*
G01X9688003Y916438D01*
G01X9705275Y922280D01*
G01X9716705Y939298D01*
G01X9722293Y968000D01*
G01X9722293Y985018D01*
G01X9716705Y1013720D01*
G01X9705275Y1030738D01*
G01X9688003Y1036580D01*
G01X9676573Y1036580D01*
G01X9770045Y996448D02*
G01X9770045Y916438D01*
G01X9770045Y973588D02*
G01X9787317Y990860D01*
G01X9798747Y996448D01*
G01X9815765Y996448D01*
G01X9827195Y990860D01*
G01X9833037Y973588D01*
G01X9833037Y916438D01*
G01X9833037Y973588D02*
G01X9850055Y990860D01*
G01X9861485Y996448D01*
G01X9878757Y996448D01*
G01X9890187Y990860D01*
G01X9895775Y973588D01*
G01X9895775Y916438D01*
G01X9943527Y996448D02*
G01X9943527Y916438D01*
G01X9943527Y973588D02*
G01X9960799Y990860D01*
G01X9972229Y996448D01*
G01X9989247Y996448D01*
G01X10000677Y990860D01*
G01X10006519Y973588D01*
G01X10006519Y916438D01*
G01X10006519Y973588D02*
G01X10023537Y990860D01*
G01X10034967Y996448D01*
G01X10052239Y996448D01*
G01X10063669Y990860D01*
G01X10069257Y973588D01*
G01X10069257Y916438D01*
G01X10117009Y1059440D02*
G01X10128439Y1048010D01*
G01X10139869Y1030738D01*
G01X10151299Y1007878D01*
G01X10157141Y979430D01*
G01X10157141Y956570D01*
G01X10151299Y927868D01*
G01X10139869Y905008D01*
G01X10128439Y887990D01*
G01X10117009Y876560D01*
G01X11053906Y1036580D02*
G01X11053906Y916438D01*
G01X11053906Y1036580D02*
G01X11105468Y1036580D01*
G01X11122486Y1030738D01*
G01X11128328Y1025150D01*
G01X11133916Y1013720D01*
G01X11133916Y996448D01*
G01X11128328Y985018D01*
G01X11122486Y979430D01*
G01X11105468Y973588D01*
G01X11053906Y973588D01*
G01X11221800Y1036580D02*
G01X11221800Y916438D01*
G01X11181668Y1036580D02*
G01X11261678Y1036580D01*
G01X11309430Y1036580D02*
G01X11309430Y916438D01*
G01X11389440Y1036580D02*
G01X11389440Y916438D01*
G01X11309430Y979430D02*
G01X11389440Y979430D01*
G01X12515314Y1036580D02*
G01X12515314Y916438D01*
G01X12515314Y1036580D02*
G01X12566876Y1036580D01*
G01X12583894Y1030738D01*
G01X12589736Y1025150D01*
G01X12595324Y1013720D01*
G01X12595324Y1002290D01*
G01X12589736Y990860D01*
G01X12583894Y985018D01*
G01X12566876Y979430D01*
G01X12515314Y979430D01*
G01X12555446Y979430D02*
G01X12595324Y916438D01*
G01X12671778Y996448D02*
G01X12660348Y990860D01*
G01X12648918Y979430D01*
G01X12643076Y962158D01*
G01X12643076Y950728D01*
G01X12648918Y933710D01*
G01X12660348Y922280D01*
G01X12671778Y916438D01*
G01X12688796Y916438D01*
G01X12700226Y922280D01*
G01X12711656Y933710D01*
G01X12717498Y950728D01*
G01X12717498Y962158D01*
G01X12711656Y979430D01*
G01X12700226Y990860D01*
G01X12688796Y996448D01*
G01X12671778Y996448D01*
G01X12765250Y996448D02*
G01X12765250Y939298D01*
G01X12771092Y922280D01*
G01X12782522Y916438D01*
G01X12799540Y916438D01*
G01X12810970Y922280D01*
G01X12828242Y939298D01*
G01X12828242Y996448D02*
G01X12828242Y916438D01*
G01X12875994Y996448D02*
G01X12875994Y916438D01*
G01X12875994Y973588D02*
G01X12893266Y990860D01*
G01X12904696Y996448D01*
G01X12921714Y996448D01*
G01X12933144Y990860D01*
G01X12938986Y973588D01*
G01X12938986Y916438D01*
G01X13055318Y1036580D02*
G01X13055318Y916438D01*
G01X13055318Y979430D02*
G01X13043888Y990860D01*
G01X13032458Y996448D01*
G01X13015440Y996448D01*
G01X13004010Y990860D01*
G01X12992580Y979430D01*
G01X12986738Y962158D01*
G01X12986738Y950728D01*
G01X12992580Y933710D01*
G01X13004010Y922280D01*
G01X13015440Y916438D01*
G01X13032458Y916438D01*
G01X13043888Y922280D01*
G01X13055318Y933710D01*
G01X13946495Y1036580D02*
G01X13946495Y916438D01*
G01X13946495Y1036580D02*
G01X13998057Y1036580D01*
G01X14015075Y1030738D01*
G01X14020917Y1025150D01*
G01X14026505Y1013720D01*
G01X14026505Y996448D01*
G01X14020917Y985018D01*
G01X14015075Y979430D01*
G01X13998057Y973588D01*
G01X13946495Y973588D01*
G01X14142837Y996448D02*
G01X14142837Y916438D01*
G01X14142837Y979430D02*
G01X14131407Y990860D01*
G01X14119977Y996448D01*
G01X14102959Y996448D01*
G01X14091529Y990860D01*
G01X14080099Y979430D01*
G01X14074257Y962158D01*
G01X14074257Y950728D01*
G01X14080099Y933710D01*
G01X14091529Y922280D01*
G01X14102959Y916438D01*
G01X14119977Y916438D01*
G01X14131407Y922280D01*
G01X14142837Y933710D01*
G01X14259169Y1036580D02*
G01X14259169Y916438D01*
G01X14259169Y979430D02*
G01X14247739Y990860D01*
G01X14236309Y996448D01*
G01X14219291Y996448D01*
G01X14207861Y990860D01*
G01X14196431Y979430D01*
G01X14190589Y962158D01*
G01X14190589Y950728D01*
G01X14196431Y933710D01*
G01X14207861Y922280D01*
G01X14219291Y916438D01*
G01X14236309Y916438D01*
G01X14247739Y922280D01*
G01X14259169Y933710D01*
G01X15615674Y1036580D02*
G01X15615674Y916438D01*
G01X15615674Y1036580D02*
G01X15667236Y1036580D01*
G01X15684254Y1030738D01*
G01X15690096Y1025150D01*
G01X15695684Y1013720D01*
G01X15695684Y1002290D01*
G01X15690096Y990860D01*
G01X15684254Y985018D01*
G01X15667236Y979430D01*
G01X15615674Y979430D01*
G01X15655806Y979430D02*
G01X15695684Y916438D01*
G01X15772138Y996448D02*
G01X15760708Y990860D01*
G01X15749278Y979430D01*
G01X15743436Y962158D01*
G01X15743436Y950728D01*
G01X15749278Y933710D01*
G01X15760708Y922280D01*
G01X15772138Y916438D01*
G01X15789156Y916438D01*
G01X15800586Y922280D01*
G01X15812016Y933710D01*
G01X15817858Y950728D01*
G01X15817858Y962158D01*
G01X15812016Y979430D01*
G01X15800586Y990860D01*
G01X15789156Y996448D01*
G01X15772138Y996448D01*
G01X15865610Y996448D02*
G01X15865610Y939298D01*
G01X15871452Y922280D01*
G01X15882882Y916438D01*
G01X15899900Y916438D01*
G01X15911330Y922280D01*
G01X15928602Y939298D01*
G01X15928602Y996448D02*
G01X15928602Y916438D01*
G01X15976354Y996448D02*
G01X15976354Y916438D01*
G01X15976354Y973588D02*
G01X15993626Y990860D01*
G01X16005056Y996448D01*
G01X16022074Y996448D01*
G01X16033504Y990860D01*
G01X16039346Y973588D01*
G01X16039346Y916438D01*
G01X16155678Y1036580D02*
G01X16155678Y916438D01*
G01X16155678Y979430D02*
G01X16144248Y990860D01*
G01X16132818Y996448D01*
G01X16115800Y996448D01*
G01X16104370Y990860D01*
G01X16092940Y979430D01*
G01X16087098Y962158D01*
G01X16087098Y950728D01*
G01X16092940Y933710D01*
G01X16104370Y922280D01*
G01X16115800Y916438D01*
G01X16132818Y916438D01*
G01X16144248Y922280D01*
G01X16155678Y933710D01*
G01X17575175Y1036580D02*
G01X17575175Y916438D01*
G01X17535043Y1036580D02*
G01X17615053Y1036580D01*
G01X17691507Y996448D02*
G01X17680077Y990860D01*
G01X17668647Y979430D01*
G01X17662805Y962158D01*
G01X17662805Y950728D01*
G01X17668647Y933710D01*
G01X17680077Y922280D01*
G01X17691507Y916438D01*
G01X17708525Y916438D01*
G01X17719955Y922280D01*
G01X17731385Y933710D01*
G01X17737227Y950728D01*
G01X17737227Y962158D01*
G01X17731385Y979430D01*
G01X17719955Y990860D01*
G01X17708525Y996448D01*
G01X17691507Y996448D01*
G01X17784979Y996448D02*
G01X17784979Y876560D01*
G01X17784979Y979430D02*
G01X17796409Y990860D01*
G01X17807839Y996448D01*
G01X17825111Y996448D01*
G01X17836541Y990860D01*
G01X17847971Y979430D01*
G01X17853559Y962158D01*
G01X17853559Y950728D01*
G01X17847971Y933710D01*
G01X17836541Y922280D01*
G01X17825111Y916438D01*
G01X17807839Y916438D01*
G01X17796409Y922280D01*
G01X17784979Y933710D01*
G01X18029327Y1036580D02*
G01X18029327Y916438D01*
G01X18029327Y916438D02*
G01X18097907Y916438D01*
G01X18214239Y996448D02*
G01X18214239Y916438D01*
G01X18214239Y979430D02*
G01X18202809Y990860D01*
G01X18191379Y996448D01*
G01X18174361Y996448D01*
G01X18162931Y990860D01*
G01X18151501Y979430D01*
G01X18145659Y962158D01*
G01X18145659Y950728D01*
G01X18151501Y933710D01*
G01X18162931Y922280D01*
G01X18174361Y916438D01*
G01X18191379Y916438D01*
G01X18202809Y922280D01*
G01X18214239Y933710D01*
G01X18267833Y996448D02*
G01X18302123Y916438D01*
G01X18336413Y996448D02*
G01X18302123Y916438D01*
G01X18290693Y893578D01*
G01X18279263Y882148D01*
G01X18267833Y876560D01*
G01X18261991Y876560D01*
G01X18384165Y962158D02*
G01X18452745Y962158D01*
G01X18452745Y973588D01*
G01X18447157Y985018D01*
G01X18441315Y990860D01*
G01X18429885Y996448D01*
G01X18412867Y996448D01*
G01X18401437Y990860D01*
G01X18390007Y979430D01*
G01X18384165Y962158D01*
G01X18384165Y950728D01*
G01X18390007Y933710D01*
G01X18401437Y922280D01*
G01X18412867Y916438D01*
G01X18429885Y916438D01*
G01X18441315Y922280D01*
G01X18452745Y933710D01*
G01X18500497Y996448D02*
G01X18500497Y916438D01*
G01X18500497Y962158D02*
G01X18506339Y979430D01*
G01X18517769Y990860D01*
G01X18529199Y996448D01*
G01X18546217Y996448D01*
G01X18593969Y968000D02*
G01X18696839Y968000D01*
G01X18744591Y1036580D02*
G01X18744591Y916438D01*
G01X18744591Y1036580D02*
G01X18796153Y1036580D01*
G01X18813171Y1030738D01*
G01X18819013Y1025150D01*
G01X18824601Y1013720D01*
G01X18824601Y1002290D01*
G01X18819013Y990860D01*
G01X18813171Y985018D01*
G01X18796153Y979430D01*
G01X18744591Y979430D02*
G01X18796153Y979430D01*
G01X18813171Y973588D01*
G01X18819013Y968000D01*
G01X18824601Y956570D01*
G01X18824601Y939298D01*
G01X18819013Y927868D01*
G01X18813171Y922280D01*
G01X18796153Y916438D01*
G01X18744591Y916438D01*
G01X18901055Y996448D02*
G01X18889625Y990860D01*
G01X18878195Y979430D01*
G01X18872353Y962158D01*
G01X18872353Y950728D01*
G01X18878195Y933710D01*
G01X18889625Y922280D01*
G01X18901055Y916438D01*
G01X18918073Y916438D01*
G01X18929503Y922280D01*
G01X18940933Y933710D01*
G01X18946775Y950728D01*
G01X18946775Y962158D01*
G01X18940933Y979430D01*
G01X18929503Y990860D01*
G01X18918073Y996448D01*
G01X18901055Y996448D01*
G01X19011799Y1036580D02*
G01X19011799Y939298D01*
G01X19017387Y922280D01*
G01X19028817Y916438D01*
G01X19040247Y916438D01*
G01X18994527Y996448D02*
G01X19034659Y996448D01*
G01X19105271Y1036580D02*
G01X19105271Y939298D01*
G01X19110859Y922280D01*
G01X19122289Y916438D01*
G01X19133719Y916438D01*
G01X19087999Y996448D02*
G01X19128131Y996448D01*
G01X19210173Y996448D02*
G01X19198743Y990860D01*
G01X19187313Y979430D01*
G01X19181471Y962158D01*
G01X19181471Y950728D01*
G01X19187313Y933710D01*
G01X19198743Y922280D01*
G01X19210173Y916438D01*
G01X19227191Y916438D01*
G01X19238621Y922280D01*
G01X19250051Y933710D01*
G01X19255893Y950728D01*
G01X19255893Y962158D01*
G01X19250051Y979430D01*
G01X19238621Y990860D01*
G01X19227191Y996448D01*
G01X19210173Y996448D01*
G01X19303645Y996448D02*
G01X19303645Y916438D01*
G01X19303645Y973588D02*
G01X19320917Y990860D01*
G01X19332347Y996448D01*
G01X19349365Y996448D01*
G01X19360795Y990860D01*
G01X19366637Y973588D01*
G01X19366637Y916438D01*
G01X19366637Y973588D02*
G01X19383655Y990860D01*
G01X19395085Y996448D01*
G01X19412357Y996448D01*
G01X19423787Y990860D01*
G01X19429375Y973588D01*
G01X19429375Y916438D01*
G01X19605143Y1036580D02*
G01X19605143Y916438D01*
G01X19605143Y916438D02*
G01X19673723Y916438D01*
G01X19790055Y996448D02*
G01X19790055Y916438D01*
G01X19790055Y979430D02*
G01X19778625Y990860D01*
G01X19767195Y996448D01*
G01X19750177Y996448D01*
G01X19738747Y990860D01*
G01X19727317Y979430D01*
G01X19721475Y962158D01*
G01X19721475Y950728D01*
G01X19727317Y933710D01*
G01X19738747Y922280D01*
G01X19750177Y916438D01*
G01X19767195Y916438D01*
G01X19778625Y922280D01*
G01X19790055Y933710D01*
G01X19843649Y996448D02*
G01X19877939Y916438D01*
G01X19912229Y996448D02*
G01X19877939Y916438D01*
G01X19866509Y893578D01*
G01X19855079Y882148D01*
G01X19843649Y876560D01*
G01X19837807Y876560D01*
G01X19959981Y962158D02*
G01X20028561Y962158D01*
G01X20028561Y973588D01*
G01X20022973Y985018D01*
G01X20017131Y990860D01*
G01X20005701Y996448D01*
G01X19988683Y996448D01*
G01X19977253Y990860D01*
G01X19965823Y979430D01*
G01X19959981Y962158D01*
G01X19959981Y950728D01*
G01X19965823Y933710D01*
G01X19977253Y922280D01*
G01X19988683Y916438D01*
G01X20005701Y916438D01*
G01X20017131Y922280D01*
G01X20028561Y933710D01*
G01X20076313Y996448D02*
G01X20076313Y916438D01*
G01X20076313Y962158D02*
G01X20082155Y979430D01*
G01X20093585Y990860D01*
G01X20105015Y996448D01*
G01X20122033Y996448D01*
G01X5757716Y427307D02*
G01X5757716Y433149D01*
G01X5763304Y444579D01*
G01X5769146Y450167D01*
G01X5780576Y456009D01*
G01X5803436Y456009D01*
G01X5814866Y450167D01*
G01X5820454Y444579D01*
G01X5826296Y433149D01*
G01X5826296Y421719D01*
G01X5820454Y410289D01*
G01X5809024Y393017D01*
G01X5751874Y335867D01*
G01X5831884Y335867D01*
G01X7171879Y427307D02*
G01X7171879Y433149D01*
G01X7177467Y444579D01*
G01X7183309Y450167D01*
G01X7194739Y456009D01*
G01X7217599Y456009D01*
G01X7229029Y450167D01*
G01X7234617Y444579D01*
G01X7240459Y433149D01*
G01X7240459Y421719D01*
G01X7234617Y410289D01*
G01X7223187Y393017D01*
G01X7166037Y335867D01*
G01X7246047Y335867D01*
G01X7373809Y456009D02*
G01X7316659Y335867D01*
G01X7293799Y456009D02*
G01X7373809Y456009D01*
G01X7427403Y364569D02*
G01X7421561Y358727D01*
G01X7427403Y353139D01*
G01X7432991Y358727D01*
G01X7427403Y364569D01*
G01X7549323Y438737D02*
G01X7543735Y450167D01*
G01X7526463Y456009D01*
G01X7515033Y456009D01*
G01X7498015Y450167D01*
G01X7486585Y433149D01*
G01X7480743Y404447D01*
G01X7480743Y375999D01*
G01X7486585Y353139D01*
G01X7498015Y341709D01*
G01X7515033Y335867D01*
G01X7520875Y335867D01*
G01X7537893Y341709D01*
G01X7549323Y353139D01*
G01X7555165Y370157D01*
G01X7555165Y375999D01*
G01X7549323Y393017D01*
G01X7537893Y404447D01*
G01X7520875Y410289D01*
G01X7515033Y410289D01*
G01X7498015Y404447D01*
G01X7486585Y393017D01*
G01X7480743Y375999D01*
G01X7602917Y415877D02*
G01X7665909Y335867D01*
G01X7665909Y415877D02*
G01X7602917Y335867D01*
G01X7770811Y456009D02*
G01X7713661Y375999D01*
G01X7799513Y375999D01*
G01X7770811Y456009D02*
G01X7770811Y335867D01*
G01X7858695Y456009D02*
G01X7921687Y456009D01*
G01X7887397Y410289D01*
G01X7904415Y410289D01*
G01X7915845Y404447D01*
G01X7921687Y398859D01*
G01X7927275Y381587D01*
G01X7927275Y370157D01*
G01X7921687Y353139D01*
G01X7910257Y341709D01*
G01X7892985Y335867D01*
G01X7875967Y335867D01*
G01X7858695Y341709D01*
G01X7853107Y347297D01*
G01X7847265Y358727D01*
G01X7980869Y364569D02*
G01X7975027Y358727D01*
G01X7980869Y353139D01*
G01X7986457Y358727D01*
G01X7980869Y364569D01*
G01X8045639Y456009D02*
G01X8108631Y456009D01*
G01X8074341Y410289D01*
G01X8091359Y410289D01*
G01X8102789Y404447D01*
G01X8108631Y398859D01*
G01X8114219Y381587D01*
G01X8114219Y370157D01*
G01X8108631Y353139D01*
G01X8097201Y341709D01*
G01X8079929Y335867D01*
G01X8062911Y335867D01*
G01X8045639Y341709D01*
G01X8040051Y347297D01*
G01X8034209Y358727D01*
G01X8161971Y415877D02*
G01X8161971Y335867D01*
G01X8161971Y393017D02*
G01X8179243Y410289D01*
G01X8190673Y415877D01*
G01X8207691Y415877D01*
G01X8219121Y410289D01*
G01X8224963Y393017D01*
G01X8224963Y335867D01*
G01X8224963Y393017D02*
G01X8241981Y410289D01*
G01X8253411Y415877D01*
G01X8270683Y415877D01*
G01X8282113Y410289D01*
G01X8287701Y393017D01*
G01X8287701Y335867D01*
G01X8335453Y456009D02*
G01X8341295Y450167D01*
G01X8346883Y456009D01*
G01X8341295Y461597D01*
G01X8335453Y456009D01*
G01X8341295Y415877D02*
G01X8341295Y335867D01*
G01X8394635Y456009D02*
G01X8394635Y335867D01*
G01X8482519Y478869D02*
G01X8471089Y467439D01*
G01X8459659Y450167D01*
G01X8448229Y427307D01*
G01X8442387Y398859D01*
G01X8442387Y375999D01*
G01X8448229Y347297D01*
G01X8459659Y324437D01*
G01X8471089Y307419D01*
G01X8482519Y295989D01*
G01X8564561Y456009D02*
G01X8547543Y450167D01*
G01X8536113Y433149D01*
G01X8530271Y404447D01*
G01X8530271Y387429D01*
G01X8536113Y358727D01*
G01X8547543Y341709D01*
G01X8564561Y335867D01*
G01X8575991Y335867D01*
G01X8593263Y341709D01*
G01X8604693Y358727D01*
G01X8610281Y387429D01*
G01X8610281Y404447D01*
G01X8604693Y433149D01*
G01X8593263Y450167D01*
G01X8575991Y456009D01*
G01X8564561Y456009D01*
G01X8663875Y364569D02*
G01X8658033Y358727D01*
G01X8663875Y353139D01*
G01X8669463Y358727D01*
G01X8663875Y364569D01*
G01X8797225Y456009D02*
G01X8740075Y335867D01*
G01X8717215Y456009D02*
G01X8797225Y456009D01*
G01X8879267Y456009D02*
G01X8862249Y450167D01*
G01X8850819Y433149D01*
G01X8844977Y404447D01*
G01X8844977Y387429D01*
G01X8850819Y358727D01*
G01X8862249Y341709D01*
G01X8879267Y335867D01*
G01X8890697Y335867D01*
G01X8907969Y341709D01*
G01X8919399Y358727D01*
G01X8924987Y387429D01*
G01X8924987Y404447D01*
G01X8919399Y433149D01*
G01X8907969Y450167D01*
G01X8890697Y456009D01*
G01X8879267Y456009D01*
G01X9007029Y456009D02*
G01X8990011Y450167D01*
G01X8978581Y433149D01*
G01X8972739Y404447D01*
G01X8972739Y387429D01*
G01X8978581Y358727D01*
G01X8990011Y341709D01*
G01X9007029Y335867D01*
G01X9018459Y335867D01*
G01X9035731Y341709D01*
G01X9047161Y358727D01*
G01X9052749Y387429D01*
G01X9052749Y404447D01*
G01X9047161Y433149D01*
G01X9035731Y450167D01*
G01X9018459Y456009D01*
G01X9007029Y456009D01*
G01X9100501Y415877D02*
G01X9163493Y335867D01*
G01X9163493Y415877D02*
G01X9100501Y335867D01*
G01X9211245Y433149D02*
G01X9222675Y438737D01*
G01X9239947Y456009D01*
G01X9239947Y335867D01*
G01X9293541Y364569D02*
G01X9287699Y358727D01*
G01X9293541Y353139D01*
G01X9299129Y358727D01*
G01X9293541Y364569D01*
G01X9346881Y433149D02*
G01X9358311Y438737D01*
G01X9375583Y456009D01*
G01X9375583Y335867D01*
G01X9457625Y456009D02*
G01X9440607Y450167D01*
G01X9429177Y433149D01*
G01X9423335Y404447D01*
G01X9423335Y387429D01*
G01X9429177Y358727D01*
G01X9440607Y341709D01*
G01X9457625Y335867D01*
G01X9469055Y335867D01*
G01X9486327Y341709D01*
G01X9497757Y358727D01*
G01X9503345Y387429D01*
G01X9503345Y404447D01*
G01X9497757Y433149D01*
G01X9486327Y450167D01*
G01X9469055Y456009D01*
G01X9457625Y456009D01*
G01X9585387Y456009D02*
G01X9568369Y450167D01*
G01X9556939Y433149D01*
G01X9551097Y404447D01*
G01X9551097Y387429D01*
G01X9556939Y358727D01*
G01X9568369Y341709D01*
G01X9585387Y335867D01*
G01X9596817Y335867D01*
G01X9614089Y341709D01*
G01X9625519Y358727D01*
G01X9631107Y387429D01*
G01X9631107Y404447D01*
G01X9625519Y433149D01*
G01X9614089Y450167D01*
G01X9596817Y456009D01*
G01X9585387Y456009D01*
G01X9678859Y415877D02*
G01X9678859Y335867D01*
G01X9678859Y393017D02*
G01X9696131Y410289D01*
G01X9707561Y415877D01*
G01X9724579Y415877D01*
G01X9736009Y410289D01*
G01X9741851Y393017D01*
G01X9741851Y335867D01*
G01X9741851Y393017D02*
G01X9758869Y410289D01*
G01X9770299Y415877D01*
G01X9787571Y415877D01*
G01X9799001Y410289D01*
G01X9804589Y393017D01*
G01X9804589Y335867D01*
G01X9852341Y415877D02*
G01X9852341Y335867D01*
G01X9852341Y393017D02*
G01X9869613Y410289D01*
G01X9881043Y415877D01*
G01X9898061Y415877D01*
G01X9909491Y410289D01*
G01X9915333Y393017D01*
G01X9915333Y335867D01*
G01X9915333Y393017D02*
G01X9932351Y410289D01*
G01X9943781Y415877D01*
G01X9961053Y415877D01*
G01X9972483Y410289D01*
G01X9978071Y393017D01*
G01X9978071Y335867D01*
G01X10025823Y478869D02*
G01X10037253Y467439D01*
G01X10048683Y450167D01*
G01X10060113Y427307D01*
G01X10065955Y398859D01*
G01X10065955Y375999D01*
G01X10060113Y347297D01*
G01X10048683Y324437D01*
G01X10037253Y307419D01*
G01X10025823Y295989D01*
G01X11053906Y456009D02*
G01X11053906Y335867D01*
G01X11053906Y456009D02*
G01X11105468Y456009D01*
G01X11122486Y450167D01*
G01X11128328Y444579D01*
G01X11133916Y433149D01*
G01X11133916Y415877D01*
G01X11128328Y404447D01*
G01X11122486Y398859D01*
G01X11105468Y393017D01*
G01X11053906Y393017D01*
G01X11221800Y456009D02*
G01X11221800Y335867D01*
G01X11181668Y456009D02*
G01X11261678Y456009D01*
G01X11309430Y456009D02*
G01X11309430Y335867D01*
G01X11389440Y456009D02*
G01X11389440Y335867D01*
G01X11309430Y398859D02*
G01X11389440Y398859D01*
G01X12595324Y438737D02*
G01X12583894Y450167D01*
G01X12566876Y456009D01*
G01X12544016Y456009D01*
G01X12526744Y450167D01*
G01X12515314Y438737D01*
G01X12515314Y427307D01*
G01X12521156Y415877D01*
G01X12526744Y410289D01*
G01X12538174Y404447D01*
G01X12572464Y393017D01*
G01X12583894Y387429D01*
G01X12589736Y381587D01*
G01X12595324Y370157D01*
G01X12595324Y353139D01*
G01X12583894Y341709D01*
G01X12566876Y335867D01*
G01X12544016Y335867D01*
G01X12526744Y341709D01*
G01X12515314Y353139D01*
G01X12643076Y456009D02*
G01X12643076Y335867D01*
G01X12719530Y415877D02*
G01X12708100Y410289D01*
G01X12696670Y398859D01*
G01X12690828Y381587D01*
G01X12690828Y370157D01*
G01X12696670Y353139D01*
G01X12708100Y341709D01*
G01X12719530Y335867D01*
G01X12736548Y335867D01*
G01X12747978Y341709D01*
G01X12759408Y353139D01*
G01X12765250Y370157D01*
G01X12765250Y381587D01*
G01X12759408Y398859D01*
G01X12747978Y410289D01*
G01X12736548Y415877D01*
G01X12719530Y415877D01*
G01X12830274Y456009D02*
G01X12830274Y358727D01*
G01X12835862Y341709D01*
G01X12847292Y335867D01*
G01X12858722Y335867D01*
G01X12813002Y415877D02*
G01X12853134Y415877D01*
G01X13946495Y456009D02*
G01X13946495Y335867D01*
G01X13946495Y456009D02*
G01X13998057Y456009D01*
G01X14015075Y450167D01*
G01X14020917Y444579D01*
G01X14026505Y433149D01*
G01X14026505Y415877D01*
G01X14020917Y404447D01*
G01X14015075Y398859D01*
G01X13998057Y393017D01*
G01X13946495Y393017D01*
G01X14142837Y415877D02*
G01X14142837Y335867D01*
G01X14142837Y398859D02*
G01X14131407Y410289D01*
G01X14119977Y415877D01*
G01X14102959Y415877D01*
G01X14091529Y410289D01*
G01X14080099Y398859D01*
G01X14074257Y381587D01*
G01X14074257Y370157D01*
G01X14080099Y353139D01*
G01X14091529Y341709D01*
G01X14102959Y335867D01*
G01X14119977Y335867D01*
G01X14131407Y341709D01*
G01X14142837Y353139D01*
G01X14259169Y456009D02*
G01X14259169Y335867D01*
G01X14259169Y398859D02*
G01X14247739Y410289D01*
G01X14236309Y415877D01*
G01X14219291Y415877D01*
G01X14207861Y410289D01*
G01X14196431Y398859D01*
G01X14190589Y381587D01*
G01X14190589Y370157D01*
G01X14196431Y353139D01*
G01X14207861Y341709D01*
G01X14219291Y335867D01*
G01X14236309Y335867D01*
G01X14247739Y341709D01*
G01X14259169Y353139D01*
G01X15649964Y456009D02*
G01X15638534Y450167D01*
G01X15627104Y438737D01*
G01X15621516Y427307D01*
G01X15615674Y410289D01*
G01X15615674Y381587D01*
G01X15621516Y364569D01*
G01X15627104Y353139D01*
G01X15638534Y341709D01*
G01X15649964Y335867D01*
G01X15672824Y335867D01*
G01X15684254Y341709D01*
G01X15695684Y353139D01*
G01X15701526Y364569D01*
G01X15707114Y381587D01*
G01X15707114Y410289D01*
G01X15701526Y427307D01*
G01X15695684Y438737D01*
G01X15684254Y450167D01*
G01X15672824Y456009D01*
G01X15649964Y456009D01*
G01X15754866Y415877D02*
G01X15789156Y335867D01*
G01X15823446Y415877D02*
G01X15789156Y335867D01*
G01X15939778Y415877D02*
G01X15939778Y335867D01*
G01X15939778Y398859D02*
G01X15928348Y410289D01*
G01X15916918Y415877D01*
G01X15899900Y415877D01*
G01X15888470Y410289D01*
G01X15877040Y398859D01*
G01X15871198Y381587D01*
G01X15871198Y370157D01*
G01X15877040Y353139D01*
G01X15888470Y341709D01*
G01X15899900Y335867D01*
G01X15916918Y335867D01*
G01X15928348Y341709D01*
G01X15939778Y353139D01*
G01X15987530Y456009D02*
G01X15987530Y335867D01*
G01X17575175Y456009D02*
G01X17575175Y335867D01*
G01X17535043Y456009D02*
G01X17615053Y456009D01*
G01X17691507Y415877D02*
G01X17680077Y410289D01*
G01X17668647Y398859D01*
G01X17662805Y381587D01*
G01X17662805Y370157D01*
G01X17668647Y353139D01*
G01X17680077Y341709D01*
G01X17691507Y335867D01*
G01X17708525Y335867D01*
G01X17719955Y341709D01*
G01X17731385Y353139D01*
G01X17737227Y370157D01*
G01X17737227Y381587D01*
G01X17731385Y398859D01*
G01X17719955Y410289D01*
G01X17708525Y415877D01*
G01X17691507Y415877D01*
G01X17784979Y415877D02*
G01X17784979Y295989D01*
G01X17784979Y398859D02*
G01X17796409Y410289D01*
G01X17807839Y415877D01*
G01X17825111Y415877D01*
G01X17836541Y410289D01*
G01X17847971Y398859D01*
G01X17853559Y381587D01*
G01X17853559Y370157D01*
G01X17847971Y353139D01*
G01X17836541Y341709D01*
G01X17825111Y335867D01*
G01X17807839Y335867D01*
G01X17796409Y341709D01*
G01X17784979Y353139D01*
G01X18029327Y456009D02*
G01X18029327Y335867D01*
G01X18029327Y335867D02*
G01X18097907Y335867D01*
G01X18214239Y415877D02*
G01X18214239Y335867D01*
G01X18214239Y398859D02*
G01X18202809Y410289D01*
G01X18191379Y415877D01*
G01X18174361Y415877D01*
G01X18162931Y410289D01*
G01X18151501Y398859D01*
G01X18145659Y381587D01*
G01X18145659Y370157D01*
G01X18151501Y353139D01*
G01X18162931Y341709D01*
G01X18174361Y335867D01*
G01X18191379Y335867D01*
G01X18202809Y341709D01*
G01X18214239Y353139D01*
G01X18267833Y415877D02*
G01X18302123Y335867D01*
G01X18336413Y415877D02*
G01X18302123Y335867D01*
G01X18290693Y313007D01*
G01X18279263Y301577D01*
G01X18267833Y295989D01*
G01X18261991Y295989D01*
G01X18384165Y381587D02*
G01X18452745Y381587D01*
G01X18452745Y393017D01*
G01X18447157Y404447D01*
G01X18441315Y410289D01*
G01X18429885Y415877D01*
G01X18412867Y415877D01*
G01X18401437Y410289D01*
G01X18390007Y398859D01*
G01X18384165Y381587D01*
G01X18384165Y370157D01*
G01X18390007Y353139D01*
G01X18401437Y341709D01*
G01X18412867Y335867D01*
G01X18429885Y335867D01*
G01X18441315Y341709D01*
G01X18452745Y353139D01*
G01X18500497Y415877D02*
G01X18500497Y335867D01*
G01X18500497Y381587D02*
G01X18506339Y398859D01*
G01X18517769Y410289D01*
G01X18529199Y415877D01*
G01X18546217Y415877D01*
G01X18593969Y387429D02*
G01X18696839Y387429D01*
G01X18744591Y456009D02*
G01X18744591Y335867D01*
G01X18744591Y456009D02*
G01X18796153Y456009D01*
G01X18813171Y450167D01*
G01X18819013Y444579D01*
G01X18824601Y433149D01*
G01X18824601Y421719D01*
G01X18819013Y410289D01*
G01X18813171Y404447D01*
G01X18796153Y398859D01*
G01X18744591Y398859D02*
G01X18796153Y398859D01*
G01X18813171Y393017D01*
G01X18819013Y387429D01*
G01X18824601Y375999D01*
G01X18824601Y358727D01*
G01X18819013Y347297D01*
G01X18813171Y341709D01*
G01X18796153Y335867D01*
G01X18744591Y335867D01*
G01X18901055Y415877D02*
G01X18889625Y410289D01*
G01X18878195Y398859D01*
G01X18872353Y381587D01*
G01X18872353Y370157D01*
G01X18878195Y353139D01*
G01X18889625Y341709D01*
G01X18901055Y335867D01*
G01X18918073Y335867D01*
G01X18929503Y341709D01*
G01X18940933Y353139D01*
G01X18946775Y370157D01*
G01X18946775Y381587D01*
G01X18940933Y398859D01*
G01X18929503Y410289D01*
G01X18918073Y415877D01*
G01X18901055Y415877D01*
G01X19011799Y456009D02*
G01X19011799Y358727D01*
G01X19017387Y341709D01*
G01X19028817Y335867D01*
G01X19040247Y335867D01*
G01X18994527Y415877D02*
G01X19034659Y415877D01*
G01X19105271Y456009D02*
G01X19105271Y358727D01*
G01X19110859Y341709D01*
G01X19122289Y335867D01*
G01X19133719Y335867D01*
G01X19087999Y415877D02*
G01X19128131Y415877D01*
G01X19210173Y415877D02*
G01X19198743Y410289D01*
G01X19187313Y398859D01*
G01X19181471Y381587D01*
G01X19181471Y370157D01*
G01X19187313Y353139D01*
G01X19198743Y341709D01*
G01X19210173Y335867D01*
G01X19227191Y335867D01*
G01X19238621Y341709D01*
G01X19250051Y353139D01*
G01X19255893Y370157D01*
G01X19255893Y381587D01*
G01X19250051Y398859D01*
G01X19238621Y410289D01*
G01X19227191Y415877D01*
G01X19210173Y415877D01*
G01X19303645Y415877D02*
G01X19303645Y335867D01*
G01X19303645Y393017D02*
G01X19320917Y410289D01*
G01X19332347Y415877D01*
G01X19349365Y415877D01*
G01X19360795Y410289D01*
G01X19366637Y393017D01*
G01X19366637Y335867D01*
G01X19366637Y393017D02*
G01X19383655Y410289D01*
G01X19395085Y415877D01*
G01X19412357Y415877D01*
G01X19423787Y410289D01*
G01X19429375Y393017D01*
G01X19429375Y335867D01*
G01X19605143Y456009D02*
G01X19605143Y335867D01*
G01X19605143Y335867D02*
G01X19673723Y335867D01*
G01X19790055Y415877D02*
G01X19790055Y335867D01*
G01X19790055Y398859D02*
G01X19778625Y410289D01*
G01X19767195Y415877D01*
G01X19750177Y415877D01*
G01X19738747Y410289D01*
G01X19727317Y398859D01*
G01X19721475Y381587D01*
G01X19721475Y370157D01*
G01X19727317Y353139D01*
G01X19738747Y341709D01*
G01X19750177Y335867D01*
G01X19767195Y335867D01*
G01X19778625Y341709D01*
G01X19790055Y353139D01*
G01X19843649Y415877D02*
G01X19877939Y335867D01*
G01X19912229Y415877D02*
G01X19877939Y335867D01*
G01X19866509Y313007D01*
G01X19855079Y301577D01*
G01X19843649Y295989D01*
G01X19837807Y295989D01*
G01X19959981Y381587D02*
G01X20028561Y381587D01*
G01X20028561Y393017D01*
G01X20022973Y404447D01*
G01X20017131Y410289D01*
G01X20005701Y415877D01*
G01X19988683Y415877D01*
G01X19977253Y410289D01*
G01X19965823Y398859D01*
G01X19959981Y381587D01*
G01X19959981Y370157D01*
G01X19965823Y353139D01*
G01X19977253Y341709D01*
G01X19988683Y335867D01*
G01X20005701Y335867D01*
G01X20017131Y341709D01*
G01X20028561Y353139D01*
G01X20076313Y415877D02*
G01X20076313Y335867D01*
G01X20076313Y381587D02*
G01X20082155Y398859D01*
G01X20093585Y410289D01*
G01X20105015Y415877D01*
G01X20122033Y415877D01*
G01X5757716Y-153265D02*
G01X5757716Y-147423D01*
G01X5763304Y-135993D01*
G01X5769146Y-130405D01*
G01X5780576Y-124563D01*
G01X5803436Y-124563D01*
G01X5814866Y-130405D01*
G01X5820454Y-135993D01*
G01X5826296Y-147423D01*
G01X5826296Y-158853D01*
G01X5820454Y-170283D01*
G01X5809024Y-187555D01*
G01X5751874Y-244705D01*
G01X5831884Y-244705D01*
G01X7171879Y-153265D02*
G01X7171879Y-147423D01*
G01X7177467Y-135993D01*
G01X7183309Y-130405D01*
G01X7194739Y-124563D01*
G01X7217599Y-124563D01*
G01X7229029Y-130405D01*
G01X7234617Y-135993D01*
G01X7240459Y-147423D01*
G01X7240459Y-158853D01*
G01X7234617Y-170283D01*
G01X7223187Y-187555D01*
G01X7166037Y-244705D01*
G01X7246047Y-244705D01*
G01X7373809Y-124563D02*
G01X7316659Y-244705D01*
G01X7293799Y-124563D02*
G01X7373809Y-124563D01*
G01X7427403Y-216003D02*
G01X7421561Y-221845D01*
G01X7427403Y-227433D01*
G01X7432991Y-221845D01*
G01X7427403Y-216003D01*
G01X7549323Y-141835D02*
G01X7543735Y-130405D01*
G01X7526463Y-124563D01*
G01X7515033Y-124563D01*
G01X7498015Y-130405D01*
G01X7486585Y-147423D01*
G01X7480743Y-176125D01*
G01X7480743Y-204573D01*
G01X7486585Y-227433D01*
G01X7498015Y-238863D01*
G01X7515033Y-244705D01*
G01X7520875Y-244705D01*
G01X7537893Y-238863D01*
G01X7549323Y-227433D01*
G01X7555165Y-210415D01*
G01X7555165Y-204573D01*
G01X7549323Y-187555D01*
G01X7537893Y-176125D01*
G01X7520875Y-170283D01*
G01X7515033Y-170283D01*
G01X7498015Y-176125D01*
G01X7486585Y-187555D01*
G01X7480743Y-204573D01*
G01X7602917Y-164695D02*
G01X7602917Y-244705D01*
G01X7602917Y-187555D02*
G01X7620189Y-170283D01*
G01X7631619Y-164695D01*
G01X7648637Y-164695D01*
G01X7660067Y-170283D01*
G01X7665909Y-187555D01*
G01X7665909Y-244705D01*
G01X7665909Y-187555D02*
G01X7682927Y-170283D01*
G01X7694357Y-164695D01*
G01X7711629Y-164695D01*
G01X7723059Y-170283D01*
G01X7728647Y-187555D01*
G01X7728647Y-244705D01*
G01X7776399Y-124563D02*
G01X7782241Y-130405D01*
G01X7787829Y-124563D01*
G01X7782241Y-118975D01*
G01X7776399Y-124563D01*
G01X7782241Y-164695D02*
G01X7782241Y-244705D01*
G01X7835581Y-124563D02*
G01X7835581Y-244705D01*
G01X7923465Y-101703D02*
G01X7912035Y-113133D01*
G01X7900605Y-130405D01*
G01X7889175Y-153265D01*
G01X7883333Y-181713D01*
G01X7883333Y-204573D01*
G01X7889175Y-233275D01*
G01X7900605Y-256135D01*
G01X7912035Y-273153D01*
G01X7923465Y-284583D01*
G01X8005507Y-124563D02*
G01X7988489Y-130405D01*
G01X7977059Y-147423D01*
G01X7971217Y-176125D01*
G01X7971217Y-193143D01*
G01X7977059Y-221845D01*
G01X7988489Y-238863D01*
G01X8005507Y-244705D01*
G01X8016937Y-244705D01*
G01X8034209Y-238863D01*
G01X8045639Y-221845D01*
G01X8051227Y-193143D01*
G01X8051227Y-176125D01*
G01X8045639Y-147423D01*
G01X8034209Y-130405D01*
G01X8016937Y-124563D01*
G01X8005507Y-124563D01*
G01X8104821Y-216003D02*
G01X8098979Y-221845D01*
G01X8104821Y-227433D01*
G01X8110409Y-221845D01*
G01X8104821Y-216003D01*
G01X8238171Y-124563D02*
G01X8181021Y-244705D01*
G01X8158161Y-124563D02*
G01X8238171Y-124563D01*
G01X8320213Y-124563D02*
G01X8303195Y-130405D01*
G01X8291765Y-147423D01*
G01X8285923Y-176125D01*
G01X8285923Y-193143D01*
G01X8291765Y-221845D01*
G01X8303195Y-238863D01*
G01X8320213Y-244705D01*
G01X8331643Y-244705D01*
G01X8348915Y-238863D01*
G01X8360345Y-221845D01*
G01X8365933Y-193143D01*
G01X8365933Y-176125D01*
G01X8360345Y-147423D01*
G01X8348915Y-130405D01*
G01X8331643Y-124563D01*
G01X8320213Y-124563D01*
G01X8447975Y-124563D02*
G01X8430957Y-130405D01*
G01X8419527Y-147423D01*
G01X8413685Y-176125D01*
G01X8413685Y-193143D01*
G01X8419527Y-221845D01*
G01X8430957Y-238863D01*
G01X8447975Y-244705D01*
G01X8459405Y-244705D01*
G01X8476677Y-238863D01*
G01X8488107Y-221845D01*
G01X8493695Y-193143D01*
G01X8493695Y-176125D01*
G01X8488107Y-147423D01*
G01X8476677Y-130405D01*
G01X8459405Y-124563D01*
G01X8447975Y-124563D01*
G01X8541447Y-164695D02*
G01X8541447Y-244705D01*
G01X8541447Y-187555D02*
G01X8558719Y-170283D01*
G01X8570149Y-164695D01*
G01X8587167Y-164695D01*
G01X8598597Y-170283D01*
G01X8604439Y-187555D01*
G01X8604439Y-244705D01*
G01X8604439Y-187555D02*
G01X8621457Y-170283D01*
G01X8632887Y-164695D01*
G01X8650159Y-164695D01*
G01X8661589Y-170283D01*
G01X8667177Y-187555D01*
G01X8667177Y-244705D01*
G01X8714929Y-164695D02*
G01X8714929Y-244705D01*
G01X8714929Y-187555D02*
G01X8732201Y-170283D01*
G01X8743631Y-164695D01*
G01X8760649Y-164695D01*
G01X8772079Y-170283D01*
G01X8777921Y-187555D01*
G01X8777921Y-244705D01*
G01X8777921Y-187555D02*
G01X8794939Y-170283D01*
G01X8806369Y-164695D01*
G01X8823641Y-164695D01*
G01X8835071Y-170283D01*
G01X8840659Y-187555D01*
G01X8840659Y-244705D01*
G01X8888411Y-101703D02*
G01X8899841Y-113133D01*
G01X8911271Y-130405D01*
G01X8922701Y-153265D01*
G01X8928543Y-181713D01*
G01X8928543Y-204573D01*
G01X8922701Y-233275D01*
G01X8911271Y-256135D01*
G01X8899841Y-273153D01*
G01X8888411Y-284583D01*
G01X11053906Y-124563D02*
G01X11053906Y-244705D01*
G01X11053906Y-124563D02*
G01X11133916Y-244705D01*
G01X11133916Y-124563D02*
G01X11133916Y-244705D01*
G01X11181668Y-124563D02*
G01X11181668Y-244705D01*
G01X11181668Y-124563D02*
G01X11233230Y-124563D01*
G01X11250248Y-130405D01*
G01X11256090Y-135993D01*
G01X11261678Y-147423D01*
G01X11261678Y-164695D01*
G01X11256090Y-176125D01*
G01X11250248Y-181713D01*
G01X11233230Y-187555D01*
G01X11181668Y-187555D01*
G01X11349562Y-124563D02*
G01X11349562Y-244705D01*
G01X11309430Y-124563D02*
G01X11389440Y-124563D01*
G01X11437192Y-124563D02*
G01X11437192Y-244705D01*
G01X11517202Y-124563D02*
G01X11517202Y-244705D01*
G01X11437192Y-181713D02*
G01X11517202Y-181713D01*
G01X12515314Y-124563D02*
G01X12515314Y-244705D01*
G01X12515314Y-124563D02*
G01X12566876Y-124563D01*
G01X12583894Y-130405D01*
G01X12589736Y-135993D01*
G01X12595324Y-147423D01*
G01X12595324Y-158853D01*
G01X12589736Y-170283D01*
G01X12583894Y-176125D01*
G01X12566876Y-181713D01*
G01X12515314Y-181713D01*
G01X12555446Y-181713D02*
G01X12595324Y-244705D01*
G01X12671778Y-164695D02*
G01X12660348Y-170283D01*
G01X12648918Y-181713D01*
G01X12643076Y-198985D01*
G01X12643076Y-210415D01*
G01X12648918Y-227433D01*
G01X12660348Y-238863D01*
G01X12671778Y-244705D01*
G01X12688796Y-244705D01*
G01X12700226Y-238863D01*
G01X12711656Y-227433D01*
G01X12717498Y-210415D01*
G01X12717498Y-198985D01*
G01X12711656Y-181713D01*
G01X12700226Y-170283D01*
G01X12688796Y-164695D01*
G01X12671778Y-164695D01*
G01X12765250Y-164695D02*
G01X12765250Y-221845D01*
G01X12771092Y-238863D01*
G01X12782522Y-244705D01*
G01X12799540Y-244705D01*
G01X12810970Y-238863D01*
G01X12828242Y-221845D01*
G01X12828242Y-164695D02*
G01X12828242Y-244705D01*
G01X12875994Y-164695D02*
G01X12875994Y-244705D01*
G01X12875994Y-187555D02*
G01X12893266Y-170283D01*
G01X12904696Y-164695D01*
G01X12921714Y-164695D01*
G01X12933144Y-170283D01*
G01X12938986Y-187555D01*
G01X12938986Y-244705D01*
G01X13055318Y-124563D02*
G01X13055318Y-244705D01*
G01X13055318Y-181713D02*
G01X13043888Y-170283D01*
G01X13032458Y-164695D01*
G01X13015440Y-164695D01*
G01X13004010Y-170283D01*
G01X12992580Y-181713D01*
G01X12986738Y-198985D01*
G01X12986738Y-210415D01*
G01X12992580Y-227433D01*
G01X13004010Y-238863D01*
G01X13015440Y-244705D01*
G01X13032458Y-244705D01*
G01X13043888Y-238863D01*
G01X13055318Y-227433D01*
G01X13946495Y-124563D02*
G01X13992215Y-244705D01*
G01X14037935Y-124563D02*
G01X13992215Y-244705D01*
G01X14085687Y-124563D02*
G01X14091529Y-130405D01*
G01X14097117Y-124563D01*
G01X14091529Y-118975D01*
G01X14085687Y-124563D01*
G01X14091529Y-164695D02*
G01X14091529Y-244705D01*
G01X14213449Y-164695D02*
G01X14213449Y-244705D01*
G01X14213449Y-181713D02*
G01X14202019Y-170283D01*
G01X14190589Y-164695D01*
G01X14173571Y-164695D01*
G01X14162141Y-170283D01*
G01X14150711Y-181713D01*
G01X14144869Y-198985D01*
G01X14144869Y-210415D01*
G01X14150711Y-227433D01*
G01X14162141Y-238863D01*
G01X14173571Y-244705D01*
G01X14190589Y-244705D01*
G01X14202019Y-238863D01*
G01X14213449Y-227433D01*
G01X17575175Y-124563D02*
G01X17575175Y-244705D01*
G01X17535043Y-124563D02*
G01X17615053Y-124563D01*
G01X17691507Y-164695D02*
G01X17680077Y-170283D01*
G01X17668647Y-181713D01*
G01X17662805Y-198985D01*
G01X17662805Y-210415D01*
G01X17668647Y-227433D01*
G01X17680077Y-238863D01*
G01X17691507Y-244705D01*
G01X17708525Y-244705D01*
G01X17719955Y-238863D01*
G01X17731385Y-227433D01*
G01X17737227Y-210415D01*
G01X17737227Y-198985D01*
G01X17731385Y-181713D01*
G01X17719955Y-170283D01*
G01X17708525Y-164695D01*
G01X17691507Y-164695D01*
G01X17784979Y-164695D02*
G01X17784979Y-284583D01*
G01X17784979Y-181713D02*
G01X17796409Y-170283D01*
G01X17807839Y-164695D01*
G01X17825111Y-164695D01*
G01X17836541Y-170283D01*
G01X17847971Y-181713D01*
G01X17853559Y-198985D01*
G01X17853559Y-210415D01*
G01X17847971Y-227433D01*
G01X17836541Y-238863D01*
G01X17825111Y-244705D01*
G01X17807839Y-244705D01*
G01X17796409Y-238863D01*
G01X17784979Y-227433D01*
G01X18029327Y-124563D02*
G01X18029327Y-244705D01*
G01X18029327Y-244705D02*
G01X18097907Y-244705D01*
G01X18214239Y-164695D02*
G01X18214239Y-244705D01*
G01X18214239Y-181713D02*
G01X18202809Y-170283D01*
G01X18191379Y-164695D01*
G01X18174361Y-164695D01*
G01X18162931Y-170283D01*
G01X18151501Y-181713D01*
G01X18145659Y-198985D01*
G01X18145659Y-210415D01*
G01X18151501Y-227433D01*
G01X18162931Y-238863D01*
G01X18174361Y-244705D01*
G01X18191379Y-244705D01*
G01X18202809Y-238863D01*
G01X18214239Y-227433D01*
G01X18267833Y-164695D02*
G01X18302123Y-244705D01*
G01X18336413Y-164695D02*
G01X18302123Y-244705D01*
G01X18290693Y-267565D01*
G01X18279263Y-278995D01*
G01X18267833Y-284583D01*
G01X18261991Y-284583D01*
G01X18384165Y-198985D02*
G01X18452745Y-198985D01*
G01X18452745Y-187555D01*
G01X18447157Y-176125D01*
G01X18441315Y-170283D01*
G01X18429885Y-164695D01*
G01X18412867Y-164695D01*
G01X18401437Y-170283D01*
G01X18390007Y-181713D01*
G01X18384165Y-198985D01*
G01X18384165Y-210415D01*
G01X18390007Y-227433D01*
G01X18401437Y-238863D01*
G01X18412867Y-244705D01*
G01X18429885Y-244705D01*
G01X18441315Y-238863D01*
G01X18452745Y-227433D01*
G01X18500497Y-164695D02*
G01X18500497Y-244705D01*
G01X18500497Y-198985D02*
G01X18506339Y-181713D01*
G01X18517769Y-170283D01*
G01X18529199Y-164695D01*
G01X18546217Y-164695D01*
G01X18593969Y-193143D02*
G01X18696839Y-193143D01*
G01X18744591Y-124563D02*
G01X18744591Y-244705D01*
G01X18744591Y-124563D02*
G01X18796153Y-124563D01*
G01X18813171Y-130405D01*
G01X18819013Y-135993D01*
G01X18824601Y-147423D01*
G01X18824601Y-158853D01*
G01X18819013Y-170283D01*
G01X18813171Y-176125D01*
G01X18796153Y-181713D01*
G01X18744591Y-181713D02*
G01X18796153Y-181713D01*
G01X18813171Y-187555D01*
G01X18819013Y-193143D01*
G01X18824601Y-204573D01*
G01X18824601Y-221845D01*
G01X18819013Y-233275D01*
G01X18813171Y-238863D01*
G01X18796153Y-244705D01*
G01X18744591Y-244705D01*
G01X18901055Y-164695D02*
G01X18889625Y-170283D01*
G01X18878195Y-181713D01*
G01X18872353Y-198985D01*
G01X18872353Y-210415D01*
G01X18878195Y-227433D01*
G01X18889625Y-238863D01*
G01X18901055Y-244705D01*
G01X18918073Y-244705D01*
G01X18929503Y-238863D01*
G01X18940933Y-227433D01*
G01X18946775Y-210415D01*
G01X18946775Y-198985D01*
G01X18940933Y-181713D01*
G01X18929503Y-170283D01*
G01X18918073Y-164695D01*
G01X18901055Y-164695D01*
G01X19011799Y-124563D02*
G01X19011799Y-221845D01*
G01X19017387Y-238863D01*
G01X19028817Y-244705D01*
G01X19040247Y-244705D01*
G01X18994527Y-164695D02*
G01X19034659Y-164695D01*
G01X19105271Y-124563D02*
G01X19105271Y-221845D01*
G01X19110859Y-238863D01*
G01X19122289Y-244705D01*
G01X19133719Y-244705D01*
G01X19087999Y-164695D02*
G01X19128131Y-164695D01*
G01X19210173Y-164695D02*
G01X19198743Y-170283D01*
G01X19187313Y-181713D01*
G01X19181471Y-198985D01*
G01X19181471Y-210415D01*
G01X19187313Y-227433D01*
G01X19198743Y-238863D01*
G01X19210173Y-244705D01*
G01X19227191Y-244705D01*
G01X19238621Y-238863D01*
G01X19250051Y-227433D01*
G01X19255893Y-210415D01*
G01X19255893Y-198985D01*
G01X19250051Y-181713D01*
G01X19238621Y-170283D01*
G01X19227191Y-164695D01*
G01X19210173Y-164695D01*
G01X19303645Y-164695D02*
G01X19303645Y-244705D01*
G01X19303645Y-187555D02*
G01X19320917Y-170283D01*
G01X19332347Y-164695D01*
G01X19349365Y-164695D01*
G01X19360795Y-170283D01*
G01X19366637Y-187555D01*
G01X19366637Y-244705D01*
G01X19366637Y-187555D02*
G01X19383655Y-170283D01*
G01X19395085Y-164695D01*
G01X19412357Y-164695D01*
G01X19423787Y-170283D01*
G01X19429375Y-187555D01*
G01X19429375Y-244705D01*
G01X19605143Y-124563D02*
G01X19605143Y-244705D01*
G01X19605143Y-244705D02*
G01X19673723Y-244705D01*
G01X19790055Y-164695D02*
G01X19790055Y-244705D01*
G01X19790055Y-181713D02*
G01X19778625Y-170283D01*
G01X19767195Y-164695D01*
G01X19750177Y-164695D01*
G01X19738747Y-170283D01*
G01X19727317Y-181713D01*
G01X19721475Y-198985D01*
G01X19721475Y-210415D01*
G01X19727317Y-227433D01*
G01X19738747Y-238863D01*
G01X19750177Y-244705D01*
G01X19767195Y-244705D01*
G01X19778625Y-238863D01*
G01X19790055Y-227433D01*
G01X19843649Y-164695D02*
G01X19877939Y-244705D01*
G01X19912229Y-164695D02*
G01X19877939Y-244705D01*
G01X19866509Y-267565D01*
G01X19855079Y-278995D01*
G01X19843649Y-284583D01*
G01X19837807Y-284583D01*
G01X19959981Y-198985D02*
G01X20028561Y-198985D01*
G01X20028561Y-187555D01*
G01X20022973Y-176125D01*
G01X20017131Y-170283D01*
G01X20005701Y-164695D01*
G01X19988683Y-164695D01*
G01X19977253Y-170283D01*
G01X19965823Y-181713D01*
G01X19959981Y-198985D01*
G01X19959981Y-210415D01*
G01X19965823Y-227433D01*
G01X19977253Y-238863D01*
G01X19988683Y-244705D01*
G01X20005701Y-244705D01*
G01X20017131Y-238863D01*
G01X20028561Y-227433D01*
G01X20076313Y-164695D02*
G01X20076313Y-244705D01*
G01X20076313Y-198985D02*
G01X20082155Y-181713D01*
G01X20093585Y-170283D01*
G01X20105015Y-164695D01*
G01X20122033Y-164695D01*
G01X5809024Y-705134D02*
G01X5751874Y-785144D01*
G01X5837726Y-785144D01*
G01X5809024Y-705134D02*
G01X5809024Y-825276D01*
G01X7166037Y-727994D02*
G01X7177467Y-722406D01*
G01X7194739Y-705134D01*
G01X7194739Y-825276D01*
G01X7242491Y-727994D02*
G01X7253921Y-722406D01*
G01X7271193Y-705134D01*
G01X7271193Y-825276D01*
G01X7318945Y-727994D02*
G01X7330375Y-722406D01*
G01X7347647Y-705134D01*
G01X7347647Y-825276D01*
G01X7401241Y-796574D02*
G01X7395399Y-802416D01*
G01X7401241Y-808004D01*
G01X7406829Y-802416D01*
G01X7401241Y-796574D01*
G01X7511731Y-705134D02*
G01X7454581Y-785144D01*
G01X7540433Y-785144D01*
G01X7511731Y-705134D02*
G01X7511731Y-825276D01*
G01X7588185Y-745266D02*
G01X7588185Y-825276D01*
G01X7588185Y-768126D02*
G01X7605457Y-750854D01*
G01X7616887Y-745266D01*
G01X7633905Y-745266D01*
G01X7645335Y-750854D01*
G01X7651177Y-768126D01*
G01X7651177Y-825276D01*
G01X7651177Y-768126D02*
G01X7668195Y-750854D01*
G01X7679625Y-745266D01*
G01X7696897Y-745266D01*
G01X7708327Y-750854D01*
G01X7713915Y-768126D01*
G01X7713915Y-825276D01*
G01X7761667Y-705134D02*
G01X7767509Y-710976D01*
G01X7773097Y-705134D01*
G01X7767509Y-699546D01*
G01X7761667Y-705134D01*
G01X7767509Y-745266D02*
G01X7767509Y-825276D01*
G01X7820849Y-705134D02*
G01X7820849Y-825276D01*
G01X7908733Y-682274D02*
G01X7897303Y-693704D01*
G01X7885873Y-710976D01*
G01X7874443Y-733836D01*
G01X7868601Y-762284D01*
G01X7868601Y-785144D01*
G01X7874443Y-813846D01*
G01X7885873Y-836706D01*
G01X7897303Y-853724D01*
G01X7908733Y-865154D01*
G01X7962327Y-733836D02*
G01X7962327Y-727994D01*
G01X7967915Y-716564D01*
G01X7973757Y-710976D01*
G01X7985187Y-705134D01*
G01X8008047Y-705134D01*
G01X8019477Y-710976D01*
G01X8025065Y-716564D01*
G01X8030907Y-727994D01*
G01X8030907Y-739424D01*
G01X8025065Y-750854D01*
G01X8013635Y-768126D01*
G01X7956485Y-825276D01*
G01X8036495Y-825276D01*
G01X8090089Y-796574D02*
G01X8084247Y-802416D01*
G01X8090089Y-808004D01*
G01X8095677Y-802416D01*
G01X8090089Y-796574D01*
G01X8172131Y-705134D02*
G01X8154859Y-710976D01*
G01X8149271Y-722406D01*
G01X8149271Y-733836D01*
G01X8154859Y-745266D01*
G01X8166289Y-750854D01*
G01X8189149Y-756696D01*
G01X8206421Y-762284D01*
G01X8217851Y-773714D01*
G01X8223439Y-785144D01*
G01X8223439Y-802416D01*
G01X8217851Y-813846D01*
G01X8212009Y-819434D01*
G01X8194991Y-825276D01*
G01X8172131Y-825276D01*
G01X8154859Y-819434D01*
G01X8149271Y-813846D01*
G01X8143429Y-802416D01*
G01X8143429Y-785144D01*
G01X8149271Y-773714D01*
G01X8160701Y-762284D01*
G01X8177719Y-756696D01*
G01X8200579Y-750854D01*
G01X8212009Y-745266D01*
G01X8217851Y-733836D01*
G01X8217851Y-722406D01*
G01X8212009Y-710976D01*
G01X8194991Y-705134D01*
G01X8172131Y-705134D01*
G01X8277033Y-733836D02*
G01X8277033Y-727994D01*
G01X8282621Y-716564D01*
G01X8288463Y-710976D01*
G01X8299893Y-705134D01*
G01X8322753Y-705134D01*
G01X8334183Y-710976D01*
G01X8339771Y-716564D01*
G01X8345613Y-727994D01*
G01X8345613Y-739424D01*
G01X8339771Y-750854D01*
G01X8328341Y-768126D01*
G01X8271191Y-825276D01*
G01X8351201Y-825276D01*
G01X8427655Y-705134D02*
G01X8410383Y-710976D01*
G01X8404795Y-722406D01*
G01X8404795Y-733836D01*
G01X8410383Y-745266D01*
G01X8421813Y-750854D01*
G01X8444673Y-756696D01*
G01X8461945Y-762284D01*
G01X8473375Y-773714D01*
G01X8478963Y-785144D01*
G01X8478963Y-802416D01*
G01X8473375Y-813846D01*
G01X8467533Y-819434D01*
G01X8450515Y-825276D01*
G01X8427655Y-825276D01*
G01X8410383Y-819434D01*
G01X8404795Y-813846D01*
G01X8398953Y-802416D01*
G01X8398953Y-785144D01*
G01X8404795Y-773714D01*
G01X8416225Y-762284D01*
G01X8433243Y-756696D01*
G01X8456103Y-750854D01*
G01X8467533Y-745266D01*
G01X8473375Y-733836D01*
G01X8473375Y-722406D01*
G01X8467533Y-710976D01*
G01X8450515Y-705134D01*
G01X8427655Y-705134D01*
G01X8526715Y-745266D02*
G01X8526715Y-825276D01*
G01X8526715Y-768126D02*
G01X8543987Y-750854D01*
G01X8555417Y-745266D01*
G01X8572435Y-745266D01*
G01X8583865Y-750854D01*
G01X8589707Y-768126D01*
G01X8589707Y-825276D01*
G01X8589707Y-768126D02*
G01X8606725Y-750854D01*
G01X8618155Y-745266D01*
G01X8635427Y-745266D01*
G01X8646857Y-750854D01*
G01X8652445Y-768126D01*
G01X8652445Y-825276D01*
G01X8700197Y-745266D02*
G01X8700197Y-825276D01*
G01X8700197Y-768126D02*
G01X8717469Y-750854D01*
G01X8728899Y-745266D01*
G01X8745917Y-745266D01*
G01X8757347Y-750854D01*
G01X8763189Y-768126D01*
G01X8763189Y-825276D01*
G01X8763189Y-768126D02*
G01X8780207Y-750854D01*
G01X8791637Y-745266D01*
G01X8808909Y-745266D01*
G01X8820339Y-750854D01*
G01X8825927Y-768126D01*
G01X8825927Y-825276D01*
G01X8873679Y-682274D02*
G01X8885109Y-693704D01*
G01X8896539Y-710976D01*
G01X8907969Y-733836D01*
G01X8913811Y-762284D01*
G01X8913811Y-785144D01*
G01X8907969Y-813846D01*
G01X8896539Y-836706D01*
G01X8885109Y-853724D01*
G01X8873679Y-865154D01*
G01X11053906Y-705134D02*
G01X11053906Y-825276D01*
G01X11053906Y-705134D02*
G01X11133916Y-825276D01*
G01X11133916Y-705134D02*
G01X11133916Y-825276D01*
G01X11181668Y-705134D02*
G01X11181668Y-825276D01*
G01X11181668Y-705134D02*
G01X11233230Y-705134D01*
G01X11250248Y-710976D01*
G01X11256090Y-716564D01*
G01X11261678Y-727994D01*
G01X11261678Y-745266D01*
G01X11256090Y-756696D01*
G01X11250248Y-762284D01*
G01X11233230Y-768126D01*
G01X11181668Y-768126D01*
G01X11349562Y-705134D02*
G01X11349562Y-825276D01*
G01X11309430Y-705134D02*
G01X11389440Y-705134D01*
G01X11437192Y-705134D02*
G01X11437192Y-825276D01*
G01X11517202Y-705134D02*
G01X11517202Y-825276D01*
G01X11437192Y-762284D02*
G01X11517202Y-762284D01*
G01X12515314Y-705134D02*
G01X12515314Y-825276D01*
G01X12515314Y-705134D02*
G01X12566876Y-705134D01*
G01X12583894Y-710976D01*
G01X12589736Y-716564D01*
G01X12595324Y-727994D01*
G01X12595324Y-739424D01*
G01X12589736Y-750854D01*
G01X12583894Y-756696D01*
G01X12566876Y-762284D01*
G01X12515314Y-762284D01*
G01X12555446Y-762284D02*
G01X12595324Y-825276D01*
G01X12671778Y-745266D02*
G01X12660348Y-750854D01*
G01X12648918Y-762284D01*
G01X12643076Y-779556D01*
G01X12643076Y-790986D01*
G01X12648918Y-808004D01*
G01X12660348Y-819434D01*
G01X12671778Y-825276D01*
G01X12688796Y-825276D01*
G01X12700226Y-819434D01*
G01X12711656Y-808004D01*
G01X12717498Y-790986D01*
G01X12717498Y-779556D01*
G01X12711656Y-762284D01*
G01X12700226Y-750854D01*
G01X12688796Y-745266D01*
G01X12671778Y-745266D01*
G01X12765250Y-745266D02*
G01X12765250Y-802416D01*
G01X12771092Y-819434D01*
G01X12782522Y-825276D01*
G01X12799540Y-825276D01*
G01X12810970Y-819434D01*
G01X12828242Y-802416D01*
G01X12828242Y-745266D02*
G01X12828242Y-825276D01*
G01X12875994Y-745266D02*
G01X12875994Y-825276D01*
G01X12875994Y-768126D02*
G01X12893266Y-750854D01*
G01X12904696Y-745266D01*
G01X12921714Y-745266D01*
G01X12933144Y-750854D01*
G01X12938986Y-768126D01*
G01X12938986Y-825276D01*
G01X13055318Y-705134D02*
G01X13055318Y-825276D01*
G01X13055318Y-762284D02*
G01X13043888Y-750854D01*
G01X13032458Y-745266D01*
G01X13015440Y-745266D01*
G01X13004010Y-750854D01*
G01X12992580Y-762284D01*
G01X12986738Y-779556D01*
G01X12986738Y-790986D01*
G01X12992580Y-808004D01*
G01X13004010Y-819434D01*
G01X13015440Y-825276D01*
G01X13032458Y-825276D01*
G01X13043888Y-819434D01*
G01X13055318Y-808004D01*
G01X13946495Y-705134D02*
G01X13992215Y-825276D01*
G01X14037935Y-705134D02*
G01X13992215Y-825276D01*
G01X14085687Y-705134D02*
G01X14091529Y-710976D01*
G01X14097117Y-705134D01*
G01X14091529Y-699546D01*
G01X14085687Y-705134D01*
G01X14091529Y-745266D02*
G01X14091529Y-825276D01*
G01X14213449Y-745266D02*
G01X14213449Y-825276D01*
G01X14213449Y-762284D02*
G01X14202019Y-750854D01*
G01X14190589Y-745266D01*
G01X14173571Y-745266D01*
G01X14162141Y-750854D01*
G01X14150711Y-762284D01*
G01X14144869Y-779556D01*
G01X14144869Y-790986D01*
G01X14150711Y-808004D01*
G01X14162141Y-819434D01*
G01X14173571Y-825276D01*
G01X14190589Y-825276D01*
G01X14202019Y-819434D01*
G01X14213449Y-808004D01*
G01X17575175Y-705134D02*
G01X17575175Y-825276D01*
G01X17535043Y-705134D02*
G01X17615053Y-705134D01*
G01X17691507Y-745266D02*
G01X17680077Y-750854D01*
G01X17668647Y-762284D01*
G01X17662805Y-779556D01*
G01X17662805Y-790986D01*
G01X17668647Y-808004D01*
G01X17680077Y-819434D01*
G01X17691507Y-825276D01*
G01X17708525Y-825276D01*
G01X17719955Y-819434D01*
G01X17731385Y-808004D01*
G01X17737227Y-790986D01*
G01X17737227Y-779556D01*
G01X17731385Y-762284D01*
G01X17719955Y-750854D01*
G01X17708525Y-745266D01*
G01X17691507Y-745266D01*
G01X17784979Y-745266D02*
G01X17784979Y-865154D01*
G01X17784979Y-762284D02*
G01X17796409Y-750854D01*
G01X17807839Y-745266D01*
G01X17825111Y-745266D01*
G01X17836541Y-750854D01*
G01X17847971Y-762284D01*
G01X17853559Y-779556D01*
G01X17853559Y-790986D01*
G01X17847971Y-808004D01*
G01X17836541Y-819434D01*
G01X17825111Y-825276D01*
G01X17807839Y-825276D01*
G01X17796409Y-819434D01*
G01X17784979Y-808004D01*
G01X18029327Y-705134D02*
G01X18029327Y-825276D01*
G01X18029327Y-825276D02*
G01X18097907Y-825276D01*
G01X18214239Y-745266D02*
G01X18214239Y-825276D01*
G01X18214239Y-762284D02*
G01X18202809Y-750854D01*
G01X18191379Y-745266D01*
G01X18174361Y-745266D01*
G01X18162931Y-750854D01*
G01X18151501Y-762284D01*
G01X18145659Y-779556D01*
G01X18145659Y-790986D01*
G01X18151501Y-808004D01*
G01X18162931Y-819434D01*
G01X18174361Y-825276D01*
G01X18191379Y-825276D01*
G01X18202809Y-819434D01*
G01X18214239Y-808004D01*
G01X18267833Y-745266D02*
G01X18302123Y-825276D01*
G01X18336413Y-745266D02*
G01X18302123Y-825276D01*
G01X18290693Y-848136D01*
G01X18279263Y-859566D01*
G01X18267833Y-865154D01*
G01X18261991Y-865154D01*
G01X18384165Y-779556D02*
G01X18452745Y-779556D01*
G01X18452745Y-768126D01*
G01X18447157Y-756696D01*
G01X18441315Y-750854D01*
G01X18429885Y-745266D01*
G01X18412867Y-745266D01*
G01X18401437Y-750854D01*
G01X18390007Y-762284D01*
G01X18384165Y-779556D01*
G01X18384165Y-790986D01*
G01X18390007Y-808004D01*
G01X18401437Y-819434D01*
G01X18412867Y-825276D01*
G01X18429885Y-825276D01*
G01X18441315Y-819434D01*
G01X18452745Y-808004D01*
G01X18500497Y-745266D02*
G01X18500497Y-825276D01*
G01X18500497Y-779556D02*
G01X18506339Y-762284D01*
G01X18517769Y-750854D01*
G01X18529199Y-745266D01*
G01X18546217Y-745266D01*
G01X18593969Y-773714D02*
G01X18696839Y-773714D01*
G01X18744591Y-705134D02*
G01X18744591Y-825276D01*
G01X18744591Y-705134D02*
G01X18796153Y-705134D01*
G01X18813171Y-710976D01*
G01X18819013Y-716564D01*
G01X18824601Y-727994D01*
G01X18824601Y-739424D01*
G01X18819013Y-750854D01*
G01X18813171Y-756696D01*
G01X18796153Y-762284D01*
G01X18744591Y-762284D02*
G01X18796153Y-762284D01*
G01X18813171Y-768126D01*
G01X18819013Y-773714D01*
G01X18824601Y-785144D01*
G01X18824601Y-802416D01*
G01X18819013Y-813846D01*
G01X18813171Y-819434D01*
G01X18796153Y-825276D01*
G01X18744591Y-825276D01*
G01X18901055Y-745266D02*
G01X18889625Y-750854D01*
G01X18878195Y-762284D01*
G01X18872353Y-779556D01*
G01X18872353Y-790986D01*
G01X18878195Y-808004D01*
G01X18889625Y-819434D01*
G01X18901055Y-825276D01*
G01X18918073Y-825276D01*
G01X18929503Y-819434D01*
G01X18940933Y-808004D01*
G01X18946775Y-790986D01*
G01X18946775Y-779556D01*
G01X18940933Y-762284D01*
G01X18929503Y-750854D01*
G01X18918073Y-745266D01*
G01X18901055Y-745266D01*
G01X19011799Y-705134D02*
G01X19011799Y-802416D01*
G01X19017387Y-819434D01*
G01X19028817Y-825276D01*
G01X19040247Y-825276D01*
G01X18994527Y-745266D02*
G01X19034659Y-745266D01*
G01X19105271Y-705134D02*
G01X19105271Y-802416D01*
G01X19110859Y-819434D01*
G01X19122289Y-825276D01*
G01X19133719Y-825276D01*
G01X19087999Y-745266D02*
G01X19128131Y-745266D01*
G01X19210173Y-745266D02*
G01X19198743Y-750854D01*
G01X19187313Y-762284D01*
G01X19181471Y-779556D01*
G01X19181471Y-790986D01*
G01X19187313Y-808004D01*
G01X19198743Y-819434D01*
G01X19210173Y-825276D01*
G01X19227191Y-825276D01*
G01X19238621Y-819434D01*
G01X19250051Y-808004D01*
G01X19255893Y-790986D01*
G01X19255893Y-779556D01*
G01X19250051Y-762284D01*
G01X19238621Y-750854D01*
G01X19227191Y-745266D01*
G01X19210173Y-745266D01*
G01X19303645Y-745266D02*
G01X19303645Y-825276D01*
G01X19303645Y-768126D02*
G01X19320917Y-750854D01*
G01X19332347Y-745266D01*
G01X19349365Y-745266D01*
G01X19360795Y-750854D01*
G01X19366637Y-768126D01*
G01X19366637Y-825276D01*
G01X19366637Y-768126D02*
G01X19383655Y-750854D01*
G01X19395085Y-745266D01*
G01X19412357Y-745266D01*
G01X19423787Y-750854D01*
G01X19429375Y-768126D01*
G01X19429375Y-825276D01*
G01X19605143Y-705134D02*
G01X19605143Y-825276D01*
G01X19605143Y-825276D02*
G01X19673723Y-825276D01*
G01X19790055Y-745266D02*
G01X19790055Y-825276D01*
G01X19790055Y-762284D02*
G01X19778625Y-750854D01*
G01X19767195Y-745266D01*
G01X19750177Y-745266D01*
G01X19738747Y-750854D01*
G01X19727317Y-762284D01*
G01X19721475Y-779556D01*
G01X19721475Y-790986D01*
G01X19727317Y-808004D01*
G01X19738747Y-819434D01*
G01X19750177Y-825276D01*
G01X19767195Y-825276D01*
G01X19778625Y-819434D01*
G01X19790055Y-808004D01*
G01X19843649Y-745266D02*
G01X19877939Y-825276D01*
G01X19912229Y-745266D02*
G01X19877939Y-825276D01*
G01X19866509Y-848136D01*
G01X19855079Y-859566D01*
G01X19843649Y-865154D01*
G01X19837807Y-865154D01*
G01X19959981Y-779556D02*
G01X20028561Y-779556D01*
G01X20028561Y-768126D01*
G01X20022973Y-756696D01*
G01X20017131Y-750854D01*
G01X20005701Y-745266D01*
G01X19988683Y-745266D01*
G01X19977253Y-750854D01*
G01X19965823Y-762284D01*
G01X19959981Y-779556D01*
G01X19959981Y-790986D01*
G01X19965823Y-808004D01*
G01X19977253Y-819434D01*
G01X19988683Y-825276D01*
G01X20005701Y-825276D01*
G01X20017131Y-819434D01*
G01X20028561Y-808004D01*
G01X20076313Y-745266D02*
G01X20076313Y-825276D01*
G01X20076313Y-779556D02*
G01X20082155Y-762284D01*
G01X20093585Y-750854D01*
G01X20105015Y-745266D01*
G01X20122033Y-745266D01*
G01X5780576Y-1285706D02*
G01X5763304Y-1291548D01*
G01X5757716Y-1302978D01*
G01X5757716Y-1314408D01*
G01X5763304Y-1325838D01*
G01X5774734Y-1331426D01*
G01X5797594Y-1337268D01*
G01X5814866Y-1342856D01*
G01X5826296Y-1354286D01*
G01X5831884Y-1365716D01*
G01X5831884Y-1382988D01*
G01X5826296Y-1394418D01*
G01X5820454Y-1400006D01*
G01X5803436Y-1405848D01*
G01X5780576Y-1405848D01*
G01X5763304Y-1400006D01*
G01X5757716Y-1394418D01*
G01X5751874Y-1382988D01*
G01X5751874Y-1365716D01*
G01X5757716Y-1354286D01*
G01X5769146Y-1342856D01*
G01X5786164Y-1337268D01*
G01X5809024Y-1331426D01*
G01X5820454Y-1325838D01*
G01X5826296Y-1314408D01*
G01X5826296Y-1302978D01*
G01X5820454Y-1291548D01*
G01X5803436Y-1285706D01*
G01X5780576Y-1285706D01*
G01X7171879Y-1314408D02*
G01X7171879Y-1308566D01*
G01X7177467Y-1297136D01*
G01X7183309Y-1291548D01*
G01X7194739Y-1285706D01*
G01X7217599Y-1285706D01*
G01X7229029Y-1291548D01*
G01X7234617Y-1297136D01*
G01X7240459Y-1308566D01*
G01X7240459Y-1319996D01*
G01X7234617Y-1331426D01*
G01X7223187Y-1348698D01*
G01X7166037Y-1405848D01*
G01X7246047Y-1405848D01*
G01X7373809Y-1285706D02*
G01X7316659Y-1405848D01*
G01X7293799Y-1285706D02*
G01X7373809Y-1285706D01*
G01X7427403Y-1377146D02*
G01X7421561Y-1382988D01*
G01X7427403Y-1388576D01*
G01X7432991Y-1382988D01*
G01X7427403Y-1377146D01*
G01X7549323Y-1302978D02*
G01X7543735Y-1291548D01*
G01X7526463Y-1285706D01*
G01X7515033Y-1285706D01*
G01X7498015Y-1291548D01*
G01X7486585Y-1308566D01*
G01X7480743Y-1337268D01*
G01X7480743Y-1365716D01*
G01X7486585Y-1388576D01*
G01X7498015Y-1400006D01*
G01X7515033Y-1405848D01*
G01X7520875Y-1405848D01*
G01X7537893Y-1400006D01*
G01X7549323Y-1388576D01*
G01X7555165Y-1371558D01*
G01X7555165Y-1365716D01*
G01X7549323Y-1348698D01*
G01X7537893Y-1337268D01*
G01X7520875Y-1331426D01*
G01X7515033Y-1331426D01*
G01X7498015Y-1337268D01*
G01X7486585Y-1348698D01*
G01X7480743Y-1365716D01*
G01X7602917Y-1325838D02*
G01X7665909Y-1405848D01*
G01X7665909Y-1325838D02*
G01X7602917Y-1405848D01*
G01X7793671Y-1285706D02*
G01X7736521Y-1405848D01*
G01X7713661Y-1285706D02*
G01X7793671Y-1285706D01*
G01X7870125Y-1285706D02*
G01X7852853Y-1291548D01*
G01X7847265Y-1302978D01*
G01X7847265Y-1314408D01*
G01X7852853Y-1325838D01*
G01X7864283Y-1331426D01*
G01X7887143Y-1337268D01*
G01X7904415Y-1342856D01*
G01X7915845Y-1354286D01*
G01X7921433Y-1365716D01*
G01X7921433Y-1382988D01*
G01X7915845Y-1394418D01*
G01X7910003Y-1400006D01*
G01X7892985Y-1405848D01*
G01X7870125Y-1405848D01*
G01X7852853Y-1400006D01*
G01X7847265Y-1394418D01*
G01X7841423Y-1382988D01*
G01X7841423Y-1365716D01*
G01X7847265Y-1354286D01*
G01X7858695Y-1342856D01*
G01X7875713Y-1337268D01*
G01X7898573Y-1331426D01*
G01X7910003Y-1325838D01*
G01X7915845Y-1314408D01*
G01X7915845Y-1302978D01*
G01X7910003Y-1291548D01*
G01X7892985Y-1285706D01*
G01X7870125Y-1285706D01*
G01X7975027Y-1377146D02*
G01X7969185Y-1382988D01*
G01X7975027Y-1388576D01*
G01X7980615Y-1382988D01*
G01X7975027Y-1377146D01*
G01X8108377Y-1285706D02*
G01X8051227Y-1405848D01*
G01X8028367Y-1285706D02*
G01X8108377Y-1285706D01*
G01X8156129Y-1325838D02*
G01X8156129Y-1405848D01*
G01X8156129Y-1348698D02*
G01X8173401Y-1331426D01*
G01X8184831Y-1325838D01*
G01X8201849Y-1325838D01*
G01X8213279Y-1331426D01*
G01X8219121Y-1348698D01*
G01X8219121Y-1405848D01*
G01X8219121Y-1348698D02*
G01X8236139Y-1331426D01*
G01X8247569Y-1325838D01*
G01X8264841Y-1325838D01*
G01X8276271Y-1331426D01*
G01X8281859Y-1348698D01*
G01X8281859Y-1405848D01*
G01X8329611Y-1285706D02*
G01X8335453Y-1291548D01*
G01X8341041Y-1285706D01*
G01X8335453Y-1280118D01*
G01X8329611Y-1285706D01*
G01X8335453Y-1325838D02*
G01X8335453Y-1405848D01*
G01X8388793Y-1285706D02*
G01X8388793Y-1405848D01*
G01X8476677Y-1262846D02*
G01X8465247Y-1274276D01*
G01X8453817Y-1291548D01*
G01X8442387Y-1314408D01*
G01X8436545Y-1342856D01*
G01X8436545Y-1365716D01*
G01X8442387Y-1394418D01*
G01X8453817Y-1417278D01*
G01X8465247Y-1434296D01*
G01X8476677Y-1445726D01*
G01X8558719Y-1285706D02*
G01X8541701Y-1291548D01*
G01X8530271Y-1308566D01*
G01X8524429Y-1337268D01*
G01X8524429Y-1354286D01*
G01X8530271Y-1382988D01*
G01X8541701Y-1400006D01*
G01X8558719Y-1405848D01*
G01X8570149Y-1405848D01*
G01X8587421Y-1400006D01*
G01X8598851Y-1382988D01*
G01X8604439Y-1354286D01*
G01X8604439Y-1337268D01*
G01X8598851Y-1308566D01*
G01X8587421Y-1291548D01*
G01X8570149Y-1285706D01*
G01X8558719Y-1285706D01*
G01X8658033Y-1377146D02*
G01X8652191Y-1382988D01*
G01X8658033Y-1388576D01*
G01X8663621Y-1382988D01*
G01X8658033Y-1377146D01*
G01X8791383Y-1285706D02*
G01X8734233Y-1405848D01*
G01X8711373Y-1285706D02*
G01X8791383Y-1285706D01*
G01X8873425Y-1285706D02*
G01X8856407Y-1291548D01*
G01X8844977Y-1308566D01*
G01X8839135Y-1337268D01*
G01X8839135Y-1354286D01*
G01X8844977Y-1382988D01*
G01X8856407Y-1400006D01*
G01X8873425Y-1405848D01*
G01X8884855Y-1405848D01*
G01X8902127Y-1400006D01*
G01X8913557Y-1382988D01*
G01X8919145Y-1354286D01*
G01X8919145Y-1337268D01*
G01X8913557Y-1308566D01*
G01X8902127Y-1291548D01*
G01X8884855Y-1285706D01*
G01X8873425Y-1285706D01*
G01X9001187Y-1285706D02*
G01X8984169Y-1291548D01*
G01X8972739Y-1308566D01*
G01X8966897Y-1337268D01*
G01X8966897Y-1354286D01*
G01X8972739Y-1382988D01*
G01X8984169Y-1400006D01*
G01X9001187Y-1405848D01*
G01X9012617Y-1405848D01*
G01X9029889Y-1400006D01*
G01X9041319Y-1382988D01*
G01X9046907Y-1354286D01*
G01X9046907Y-1337268D01*
G01X9041319Y-1308566D01*
G01X9029889Y-1291548D01*
G01X9012617Y-1285706D01*
G01X9001187Y-1285706D01*
G01X9094659Y-1325838D02*
G01X9157651Y-1405848D01*
G01X9157651Y-1325838D02*
G01X9094659Y-1405848D01*
G01X9211245Y-1314408D02*
G01X9211245Y-1308566D01*
G01X9216833Y-1297136D01*
G01X9222675Y-1291548D01*
G01X9234105Y-1285706D01*
G01X9256965Y-1285706D01*
G01X9268395Y-1291548D01*
G01X9273983Y-1297136D01*
G01X9279825Y-1308566D01*
G01X9279825Y-1319996D01*
G01X9273983Y-1331426D01*
G01X9262553Y-1348698D01*
G01X9205403Y-1405848D01*
G01X9285413Y-1405848D01*
G01X9339007Y-1377146D02*
G01X9333165Y-1382988D01*
G01X9339007Y-1388576D01*
G01X9344595Y-1382988D01*
G01X9339007Y-1377146D01*
G01X9426637Y-1285706D02*
G01X9409619Y-1291548D01*
G01X9398189Y-1308566D01*
G01X9392347Y-1337268D01*
G01X9392347Y-1354286D01*
G01X9398189Y-1382988D01*
G01X9409619Y-1400006D01*
G01X9426637Y-1405848D01*
G01X9438067Y-1405848D01*
G01X9455339Y-1400006D01*
G01X9466769Y-1382988D01*
G01X9472357Y-1354286D01*
G01X9472357Y-1337268D01*
G01X9466769Y-1308566D01*
G01X9455339Y-1291548D01*
G01X9438067Y-1285706D01*
G01X9426637Y-1285706D01*
G01X9554399Y-1285706D02*
G01X9537381Y-1291548D01*
G01X9525951Y-1308566D01*
G01X9520109Y-1337268D01*
G01X9520109Y-1354286D01*
G01X9525951Y-1382988D01*
G01X9537381Y-1400006D01*
G01X9554399Y-1405848D01*
G01X9565829Y-1405848D01*
G01X9583101Y-1400006D01*
G01X9594531Y-1382988D01*
G01X9600119Y-1354286D01*
G01X9600119Y-1337268D01*
G01X9594531Y-1308566D01*
G01X9583101Y-1291548D01*
G01X9565829Y-1285706D01*
G01X9554399Y-1285706D01*
G01X9682161Y-1285706D02*
G01X9665143Y-1291548D01*
G01X9653713Y-1308566D01*
G01X9647871Y-1337268D01*
G01X9647871Y-1354286D01*
G01X9653713Y-1382988D01*
G01X9665143Y-1400006D01*
G01X9682161Y-1405848D01*
G01X9693591Y-1405848D01*
G01X9710863Y-1400006D01*
G01X9722293Y-1382988D01*
G01X9727881Y-1354286D01*
G01X9727881Y-1337268D01*
G01X9722293Y-1308566D01*
G01X9710863Y-1291548D01*
G01X9693591Y-1285706D01*
G01X9682161Y-1285706D01*
G01X9775633Y-1325838D02*
G01X9775633Y-1405848D01*
G01X9775633Y-1348698D02*
G01X9792905Y-1331426D01*
G01X9804335Y-1325838D01*
G01X9821353Y-1325838D01*
G01X9832783Y-1331426D01*
G01X9838625Y-1348698D01*
G01X9838625Y-1405848D01*
G01X9838625Y-1348698D02*
G01X9855643Y-1331426D01*
G01X9867073Y-1325838D01*
G01X9884345Y-1325838D01*
G01X9895775Y-1331426D01*
G01X9901363Y-1348698D01*
G01X9901363Y-1405848D01*
G01X9949115Y-1325838D02*
G01X9949115Y-1405848D01*
G01X9949115Y-1348698D02*
G01X9966387Y-1331426D01*
G01X9977817Y-1325838D01*
G01X9994835Y-1325838D01*
G01X10006265Y-1331426D01*
G01X10012107Y-1348698D01*
G01X10012107Y-1405848D01*
G01X10012107Y-1348698D02*
G01X10029125Y-1331426D01*
G01X10040555Y-1325838D01*
G01X10057827Y-1325838D01*
G01X10069257Y-1331426D01*
G01X10074845Y-1348698D01*
G01X10074845Y-1405848D01*
G01X10122597Y-1262846D02*
G01X10134027Y-1274276D01*
G01X10145457Y-1291548D01*
G01X10156887Y-1314408D01*
G01X10162729Y-1342856D01*
G01X10162729Y-1365716D01*
G01X10156887Y-1394418D01*
G01X10145457Y-1417278D01*
G01X10134027Y-1434296D01*
G01X10122597Y-1445726D01*
G01X11053906Y-1285706D02*
G01X11053906Y-1405848D01*
G01X11053906Y-1285706D02*
G01X11105468Y-1285706D01*
G01X11122486Y-1291548D01*
G01X11128328Y-1297136D01*
G01X11133916Y-1308566D01*
G01X11133916Y-1325838D01*
G01X11128328Y-1337268D01*
G01X11122486Y-1342856D01*
G01X11105468Y-1348698D01*
G01X11053906Y-1348698D01*
G01X11221800Y-1285706D02*
G01X11221800Y-1405848D01*
G01X11181668Y-1285706D02*
G01X11261678Y-1285706D01*
G01X11309430Y-1285706D02*
G01X11309430Y-1405848D01*
G01X11389440Y-1285706D02*
G01X11389440Y-1405848D01*
G01X11309430Y-1342856D02*
G01X11389440Y-1342856D01*
G01X12595324Y-1302978D02*
G01X12583894Y-1291548D01*
G01X12566876Y-1285706D01*
G01X12544016Y-1285706D01*
G01X12526744Y-1291548D01*
G01X12515314Y-1302978D01*
G01X12515314Y-1314408D01*
G01X12521156Y-1325838D01*
G01X12526744Y-1331426D01*
G01X12538174Y-1337268D01*
G01X12572464Y-1348698D01*
G01X12583894Y-1354286D01*
G01X12589736Y-1360128D01*
G01X12595324Y-1371558D01*
G01X12595324Y-1388576D01*
G01X12583894Y-1400006D01*
G01X12566876Y-1405848D01*
G01X12544016Y-1405848D01*
G01X12526744Y-1400006D01*
G01X12515314Y-1388576D01*
G01X12643076Y-1285706D02*
G01X12643076Y-1405848D01*
G01X12719530Y-1325838D02*
G01X12708100Y-1331426D01*
G01X12696670Y-1342856D01*
G01X12690828Y-1360128D01*
G01X12690828Y-1371558D01*
G01X12696670Y-1388576D01*
G01X12708100Y-1400006D01*
G01X12719530Y-1405848D01*
G01X12736548Y-1405848D01*
G01X12747978Y-1400006D01*
G01X12759408Y-1388576D01*
G01X12765250Y-1371558D01*
G01X12765250Y-1360128D01*
G01X12759408Y-1342856D01*
G01X12747978Y-1331426D01*
G01X12736548Y-1325838D01*
G01X12719530Y-1325838D01*
G01X12830274Y-1285706D02*
G01X12830274Y-1382988D01*
G01X12835862Y-1400006D01*
G01X12847292Y-1405848D01*
G01X12858722Y-1405848D01*
G01X12813002Y-1325838D02*
G01X12853134Y-1325838D01*
G01X13946495Y-1285706D02*
G01X13946495Y-1405848D01*
G01X13946495Y-1285706D02*
G01X13998057Y-1285706D01*
G01X14015075Y-1291548D01*
G01X14020917Y-1297136D01*
G01X14026505Y-1308566D01*
G01X14026505Y-1325838D01*
G01X14020917Y-1337268D01*
G01X14015075Y-1342856D01*
G01X13998057Y-1348698D01*
G01X13946495Y-1348698D01*
G01X14142837Y-1325838D02*
G01X14142837Y-1405848D01*
G01X14142837Y-1342856D02*
G01X14131407Y-1331426D01*
G01X14119977Y-1325838D01*
G01X14102959Y-1325838D01*
G01X14091529Y-1331426D01*
G01X14080099Y-1342856D01*
G01X14074257Y-1360128D01*
G01X14074257Y-1371558D01*
G01X14080099Y-1388576D01*
G01X14091529Y-1400006D01*
G01X14102959Y-1405848D01*
G01X14119977Y-1405848D01*
G01X14131407Y-1400006D01*
G01X14142837Y-1388576D01*
G01X14259169Y-1285706D02*
G01X14259169Y-1405848D01*
G01X14259169Y-1342856D02*
G01X14247739Y-1331426D01*
G01X14236309Y-1325838D01*
G01X14219291Y-1325838D01*
G01X14207861Y-1331426D01*
G01X14196431Y-1342856D01*
G01X14190589Y-1360128D01*
G01X14190589Y-1371558D01*
G01X14196431Y-1388576D01*
G01X14207861Y-1400006D01*
G01X14219291Y-1405848D01*
G01X14236309Y-1405848D01*
G01X14247739Y-1400006D01*
G01X14259169Y-1388576D01*
G01X15649964Y-1285706D02*
G01X15638534Y-1291548D01*
G01X15627104Y-1302978D01*
G01X15621516Y-1314408D01*
G01X15615674Y-1331426D01*
G01X15615674Y-1360128D01*
G01X15621516Y-1377146D01*
G01X15627104Y-1388576D01*
G01X15638534Y-1400006D01*
G01X15649964Y-1405848D01*
G01X15672824Y-1405848D01*
G01X15684254Y-1400006D01*
G01X15695684Y-1388576D01*
G01X15701526Y-1377146D01*
G01X15707114Y-1360128D01*
G01X15707114Y-1331426D01*
G01X15701526Y-1314408D01*
G01X15695684Y-1302978D01*
G01X15684254Y-1291548D01*
G01X15672824Y-1285706D01*
G01X15649964Y-1285706D01*
G01X15754866Y-1325838D02*
G01X15789156Y-1405848D01*
G01X15823446Y-1325838D02*
G01X15789156Y-1405848D01*
G01X15939778Y-1325838D02*
G01X15939778Y-1405848D01*
G01X15939778Y-1342856D02*
G01X15928348Y-1331426D01*
G01X15916918Y-1325838D01*
G01X15899900Y-1325838D01*
G01X15888470Y-1331426D01*
G01X15877040Y-1342856D01*
G01X15871198Y-1360128D01*
G01X15871198Y-1371558D01*
G01X15877040Y-1388576D01*
G01X15888470Y-1400006D01*
G01X15899900Y-1405848D01*
G01X15916918Y-1405848D01*
G01X15928348Y-1400006D01*
G01X15939778Y-1388576D01*
G01X15987530Y-1285706D02*
G01X15987530Y-1405848D01*
G01X17575175Y-1285706D02*
G01X17575175Y-1405848D01*
G01X17535043Y-1285706D02*
G01X17615053Y-1285706D01*
G01X17691507Y-1325838D02*
G01X17680077Y-1331426D01*
G01X17668647Y-1342856D01*
G01X17662805Y-1360128D01*
G01X17662805Y-1371558D01*
G01X17668647Y-1388576D01*
G01X17680077Y-1400006D01*
G01X17691507Y-1405848D01*
G01X17708525Y-1405848D01*
G01X17719955Y-1400006D01*
G01X17731385Y-1388576D01*
G01X17737227Y-1371558D01*
G01X17737227Y-1360128D01*
G01X17731385Y-1342856D01*
G01X17719955Y-1331426D01*
G01X17708525Y-1325838D01*
G01X17691507Y-1325838D01*
G01X17784979Y-1325838D02*
G01X17784979Y-1445726D01*
G01X17784979Y-1342856D02*
G01X17796409Y-1331426D01*
G01X17807839Y-1325838D01*
G01X17825111Y-1325838D01*
G01X17836541Y-1331426D01*
G01X17847971Y-1342856D01*
G01X17853559Y-1360128D01*
G01X17853559Y-1371558D01*
G01X17847971Y-1388576D01*
G01X17836541Y-1400006D01*
G01X17825111Y-1405848D01*
G01X17807839Y-1405848D01*
G01X17796409Y-1400006D01*
G01X17784979Y-1388576D01*
G01X18029327Y-1285706D02*
G01X18029327Y-1405848D01*
G01X18029327Y-1405848D02*
G01X18097907Y-1405848D01*
G01X18214239Y-1325838D02*
G01X18214239Y-1405848D01*
G01X18214239Y-1342856D02*
G01X18202809Y-1331426D01*
G01X18191379Y-1325838D01*
G01X18174361Y-1325838D01*
G01X18162931Y-1331426D01*
G01X18151501Y-1342856D01*
G01X18145659Y-1360128D01*
G01X18145659Y-1371558D01*
G01X18151501Y-1388576D01*
G01X18162931Y-1400006D01*
G01X18174361Y-1405848D01*
G01X18191379Y-1405848D01*
G01X18202809Y-1400006D01*
G01X18214239Y-1388576D01*
G01X18267833Y-1325838D02*
G01X18302123Y-1405848D01*
G01X18336413Y-1325838D02*
G01X18302123Y-1405848D01*
G01X18290693Y-1428708D01*
G01X18279263Y-1440138D01*
G01X18267833Y-1445726D01*
G01X18261991Y-1445726D01*
G01X18384165Y-1360128D02*
G01X18452745Y-1360128D01*
G01X18452745Y-1348698D01*
G01X18447157Y-1337268D01*
G01X18441315Y-1331426D01*
G01X18429885Y-1325838D01*
G01X18412867Y-1325838D01*
G01X18401437Y-1331426D01*
G01X18390007Y-1342856D01*
G01X18384165Y-1360128D01*
G01X18384165Y-1371558D01*
G01X18390007Y-1388576D01*
G01X18401437Y-1400006D01*
G01X18412867Y-1405848D01*
G01X18429885Y-1405848D01*
G01X18441315Y-1400006D01*
G01X18452745Y-1388576D01*
G01X18500497Y-1325838D02*
G01X18500497Y-1405848D01*
G01X18500497Y-1360128D02*
G01X18506339Y-1342856D01*
G01X18517769Y-1331426D01*
G01X18529199Y-1325838D01*
G01X18546217Y-1325838D01*
G01X18593969Y-1354286D02*
G01X18696839Y-1354286D01*
G01X18744591Y-1285706D02*
G01X18744591Y-1405848D01*
G01X18744591Y-1285706D02*
G01X18796153Y-1285706D01*
G01X18813171Y-1291548D01*
G01X18819013Y-1297136D01*
G01X18824601Y-1308566D01*
G01X18824601Y-1319996D01*
G01X18819013Y-1331426D01*
G01X18813171Y-1337268D01*
G01X18796153Y-1342856D01*
G01X18744591Y-1342856D02*
G01X18796153Y-1342856D01*
G01X18813171Y-1348698D01*
G01X18819013Y-1354286D01*
G01X18824601Y-1365716D01*
G01X18824601Y-1382988D01*
G01X18819013Y-1394418D01*
G01X18813171Y-1400006D01*
G01X18796153Y-1405848D01*
G01X18744591Y-1405848D01*
G01X18901055Y-1325838D02*
G01X18889625Y-1331426D01*
G01X18878195Y-1342856D01*
G01X18872353Y-1360128D01*
G01X18872353Y-1371558D01*
G01X18878195Y-1388576D01*
G01X18889625Y-1400006D01*
G01X18901055Y-1405848D01*
G01X18918073Y-1405848D01*
G01X18929503Y-1400006D01*
G01X18940933Y-1388576D01*
G01X18946775Y-1371558D01*
G01X18946775Y-1360128D01*
G01X18940933Y-1342856D01*
G01X18929503Y-1331426D01*
G01X18918073Y-1325838D01*
G01X18901055Y-1325838D01*
G01X19011799Y-1285706D02*
G01X19011799Y-1382988D01*
G01X19017387Y-1400006D01*
G01X19028817Y-1405848D01*
G01X19040247Y-1405848D01*
G01X18994527Y-1325838D02*
G01X19034659Y-1325838D01*
G01X19105271Y-1285706D02*
G01X19105271Y-1382988D01*
G01X19110859Y-1400006D01*
G01X19122289Y-1405848D01*
G01X19133719Y-1405848D01*
G01X19087999Y-1325838D02*
G01X19128131Y-1325838D01*
G01X19210173Y-1325838D02*
G01X19198743Y-1331426D01*
G01X19187313Y-1342856D01*
G01X19181471Y-1360128D01*
G01X19181471Y-1371558D01*
G01X19187313Y-1388576D01*
G01X19198743Y-1400006D01*
G01X19210173Y-1405848D01*
G01X19227191Y-1405848D01*
G01X19238621Y-1400006D01*
G01X19250051Y-1388576D01*
G01X19255893Y-1371558D01*
G01X19255893Y-1360128D01*
G01X19250051Y-1342856D01*
G01X19238621Y-1331426D01*
G01X19227191Y-1325838D01*
G01X19210173Y-1325838D01*
G01X19303645Y-1325838D02*
G01X19303645Y-1405848D01*
G01X19303645Y-1348698D02*
G01X19320917Y-1331426D01*
G01X19332347Y-1325838D01*
G01X19349365Y-1325838D01*
G01X19360795Y-1331426D01*
G01X19366637Y-1348698D01*
G01X19366637Y-1405848D01*
G01X19366637Y-1348698D02*
G01X19383655Y-1331426D01*
G01X19395085Y-1325838D01*
G01X19412357Y-1325838D01*
G01X19423787Y-1331426D01*
G01X19429375Y-1348698D01*
G01X19429375Y-1405848D01*
G01X19605143Y-1285706D02*
G01X19605143Y-1405848D01*
G01X19605143Y-1405848D02*
G01X19673723Y-1405848D01*
G01X19790055Y-1325838D02*
G01X19790055Y-1405848D01*
G01X19790055Y-1342856D02*
G01X19778625Y-1331426D01*
G01X19767195Y-1325838D01*
G01X19750177Y-1325838D01*
G01X19738747Y-1331426D01*
G01X19727317Y-1342856D01*
G01X19721475Y-1360128D01*
G01X19721475Y-1371558D01*
G01X19727317Y-1388576D01*
G01X19738747Y-1400006D01*
G01X19750177Y-1405848D01*
G01X19767195Y-1405848D01*
G01X19778625Y-1400006D01*
G01X19790055Y-1388576D01*
G01X19843649Y-1325838D02*
G01X19877939Y-1405848D01*
G01X19912229Y-1325838D02*
G01X19877939Y-1405848D01*
G01X19866509Y-1428708D01*
G01X19855079Y-1440138D01*
G01X19843649Y-1445726D01*
G01X19837807Y-1445726D01*
G01X19959981Y-1360128D02*
G01X20028561Y-1360128D01*
G01X20028561Y-1348698D01*
G01X20022973Y-1337268D01*
G01X20017131Y-1331426D01*
G01X20005701Y-1325838D01*
G01X19988683Y-1325838D01*
G01X19977253Y-1331426D01*
G01X19965823Y-1342856D01*
G01X19959981Y-1360128D01*
G01X19959981Y-1371558D01*
G01X19965823Y-1388576D01*
G01X19977253Y-1400006D01*
G01X19988683Y-1405848D01*
G01X20005701Y-1405848D01*
G01X20017131Y-1400006D01*
G01X20028561Y-1388576D01*
G01X20076313Y-1325838D02*
G01X20076313Y-1405848D01*
G01X20076313Y-1360128D02*
G01X20082155Y-1342856D01*
G01X20093585Y-1331426D01*
G01X20105015Y-1325838D01*
G01X20122033Y-1325838D01*
G01X5763304Y-1866277D02*
G01X5826296Y-1866277D01*
G01X5792006Y-1911997D01*
G01X5809024Y-1911997D01*
G01X5820454Y-1917839D01*
G01X5826296Y-1923427D01*
G01X5831884Y-1940699D01*
G01X5831884Y-1952129D01*
G01X5826296Y-1969147D01*
G01X5814866Y-1980577D01*
G01X5797594Y-1986419D01*
G01X5780576Y-1986419D01*
G01X5763304Y-1980577D01*
G01X5757716Y-1974989D01*
G01X5751874Y-1963559D01*
G01X5936786Y-1866277D02*
G01X5879636Y-1946287D01*
G01X5965488Y-1946287D01*
G01X5936786Y-1866277D02*
G01X5936786Y-1986419D01*
G01X7166037Y-1889137D02*
G01X7177467Y-1883549D01*
G01X7194739Y-1866277D01*
G01X7194739Y-1986419D01*
G01X7248333Y-1894979D02*
G01X7248333Y-1889137D01*
G01X7253921Y-1877707D01*
G01X7259763Y-1872119D01*
G01X7271193Y-1866277D01*
G01X7294053Y-1866277D01*
G01X7305483Y-1872119D01*
G01X7311071Y-1877707D01*
G01X7316913Y-1889137D01*
G01X7316913Y-1900567D01*
G01X7311071Y-1911997D01*
G01X7299641Y-1929269D01*
G01X7242491Y-1986419D01*
G01X7322501Y-1986419D01*
G01X7376095Y-1957717D02*
G01X7370253Y-1963559D01*
G01X7376095Y-1969147D01*
G01X7381683Y-1963559D01*
G01X7376095Y-1957717D01*
G01X7463725Y-1866277D02*
G01X7446707Y-1872119D01*
G01X7435277Y-1889137D01*
G01X7429435Y-1917839D01*
G01X7429435Y-1934857D01*
G01X7435277Y-1963559D01*
G01X7446707Y-1980577D01*
G01X7463725Y-1986419D01*
G01X7475155Y-1986419D01*
G01X7492427Y-1980577D01*
G01X7503857Y-1963559D01*
G01X7509445Y-1934857D01*
G01X7509445Y-1917839D01*
G01X7503857Y-1889137D01*
G01X7492427Y-1872119D01*
G01X7475155Y-1866277D01*
G01X7463725Y-1866277D01*
G01X7557197Y-1906409D02*
G01X7557197Y-1986419D01*
G01X7557197Y-1929269D02*
G01X7574469Y-1911997D01*
G01X7585899Y-1906409D01*
G01X7602917Y-1906409D01*
G01X7614347Y-1911997D01*
G01X7620189Y-1929269D01*
G01X7620189Y-1986419D01*
G01X7620189Y-1929269D02*
G01X7637207Y-1911997D01*
G01X7648637Y-1906409D01*
G01X7665909Y-1906409D01*
G01X7677339Y-1911997D01*
G01X7682927Y-1929269D01*
G01X7682927Y-1986419D01*
G01X7730679Y-1866277D02*
G01X7736521Y-1872119D01*
G01X7742109Y-1866277D01*
G01X7736521Y-1860689D01*
G01X7730679Y-1866277D01*
G01X7736521Y-1906409D02*
G01X7736521Y-1986419D01*
G01X7789861Y-1866277D02*
G01X7789861Y-1986419D01*
G01X7877745Y-1843417D02*
G01X7866315Y-1854847D01*
G01X7854885Y-1872119D01*
G01X7843455Y-1894979D01*
G01X7837613Y-1923427D01*
G01X7837613Y-1946287D01*
G01X7843455Y-1974989D01*
G01X7854885Y-1997849D01*
G01X7866315Y-2014867D01*
G01X7877745Y-2026297D01*
G01X7959787Y-1866277D02*
G01X7942769Y-1872119D01*
G01X7931339Y-1889137D01*
G01X7925497Y-1917839D01*
G01X7925497Y-1934857D01*
G01X7931339Y-1963559D01*
G01X7942769Y-1980577D01*
G01X7959787Y-1986419D01*
G01X7971217Y-1986419D01*
G01X7988489Y-1980577D01*
G01X7999919Y-1963559D01*
G01X8005507Y-1934857D01*
G01X8005507Y-1917839D01*
G01X7999919Y-1889137D01*
G01X7988489Y-1872119D01*
G01X7971217Y-1866277D01*
G01X7959787Y-1866277D01*
G01X8059101Y-1957717D02*
G01X8053259Y-1963559D01*
G01X8059101Y-1969147D01*
G01X8064689Y-1963559D01*
G01X8059101Y-1957717D01*
G01X8123871Y-1866277D02*
G01X8186863Y-1866277D01*
G01X8152573Y-1911997D01*
G01X8169591Y-1911997D01*
G01X8181021Y-1917839D01*
G01X8186863Y-1923427D01*
G01X8192451Y-1940699D01*
G01X8192451Y-1952129D01*
G01X8186863Y-1969147D01*
G01X8175433Y-1980577D01*
G01X8158161Y-1986419D01*
G01X8141143Y-1986419D01*
G01X8123871Y-1980577D01*
G01X8118283Y-1974989D01*
G01X8112441Y-1963559D01*
G01X8274493Y-1866277D02*
G01X8257475Y-1872119D01*
G01X8246045Y-1889137D01*
G01X8240203Y-1917839D01*
G01X8240203Y-1934857D01*
G01X8246045Y-1963559D01*
G01X8257475Y-1980577D01*
G01X8274493Y-1986419D01*
G01X8285923Y-1986419D01*
G01X8303195Y-1980577D01*
G01X8314625Y-1963559D01*
G01X8320213Y-1934857D01*
G01X8320213Y-1917839D01*
G01X8314625Y-1889137D01*
G01X8303195Y-1872119D01*
G01X8285923Y-1866277D01*
G01X8274493Y-1866277D01*
G01X8436545Y-1866277D02*
G01X8379395Y-1866277D01*
G01X8373807Y-1917839D01*
G01X8379395Y-1911997D01*
G01X8396667Y-1906409D01*
G01X8413685Y-1906409D01*
G01X8430957Y-1911997D01*
G01X8442387Y-1923427D01*
G01X8447975Y-1940699D01*
G01X8447975Y-1952129D01*
G01X8442387Y-1969147D01*
G01X8430957Y-1980577D01*
G01X8413685Y-1986419D01*
G01X8396667Y-1986419D01*
G01X8379395Y-1980577D01*
G01X8373807Y-1974989D01*
G01X8367965Y-1963559D01*
G01X8495727Y-1906409D02*
G01X8495727Y-1986419D01*
G01X8495727Y-1929269D02*
G01X8512999Y-1911997D01*
G01X8524429Y-1906409D01*
G01X8541447Y-1906409D01*
G01X8552877Y-1911997D01*
G01X8558719Y-1929269D01*
G01X8558719Y-1986419D01*
G01X8558719Y-1929269D02*
G01X8575737Y-1911997D01*
G01X8587167Y-1906409D01*
G01X8604439Y-1906409D01*
G01X8615869Y-1911997D01*
G01X8621457Y-1929269D01*
G01X8621457Y-1986419D01*
G01X8669209Y-1906409D02*
G01X8669209Y-1986419D01*
G01X8669209Y-1929269D02*
G01X8686481Y-1911997D01*
G01X8697911Y-1906409D01*
G01X8714929Y-1906409D01*
G01X8726359Y-1911997D01*
G01X8732201Y-1929269D01*
G01X8732201Y-1986419D01*
G01X8732201Y-1929269D02*
G01X8749219Y-1911997D01*
G01X8760649Y-1906409D01*
G01X8777921Y-1906409D01*
G01X8789351Y-1911997D01*
G01X8794939Y-1929269D01*
G01X8794939Y-1986419D01*
G01X8842691Y-1843417D02*
G01X8854121Y-1854847D01*
G01X8865551Y-1872119D01*
G01X8876981Y-1894979D01*
G01X8882823Y-1923427D01*
G01X8882823Y-1946287D01*
G01X8876981Y-1974989D01*
G01X8865551Y-1997849D01*
G01X8854121Y-2014867D01*
G01X8842691Y-2026297D01*
G01X11053906Y-1866277D02*
G01X11053906Y-1986419D01*
G01X11053906Y-1866277D02*
G01X11105468Y-1866277D01*
G01X11122486Y-1872119D01*
G01X11128328Y-1877707D01*
G01X11133916Y-1889137D01*
G01X11133916Y-1906409D01*
G01X11128328Y-1917839D01*
G01X11122486Y-1923427D01*
G01X11105468Y-1929269D01*
G01X11053906Y-1929269D01*
G01X11221800Y-1866277D02*
G01X11221800Y-1986419D01*
G01X11181668Y-1866277D02*
G01X11261678Y-1866277D01*
G01X11309430Y-1866277D02*
G01X11309430Y-1986419D01*
G01X11389440Y-1866277D02*
G01X11389440Y-1986419D01*
G01X11309430Y-1923427D02*
G01X11389440Y-1923427D01*
G01X12515314Y-1866277D02*
G01X12515314Y-1986419D01*
G01X12515314Y-1866277D02*
G01X12566876Y-1866277D01*
G01X12583894Y-1872119D01*
G01X12589736Y-1877707D01*
G01X12595324Y-1889137D01*
G01X12595324Y-1900567D01*
G01X12589736Y-1911997D01*
G01X12583894Y-1917839D01*
G01X12566876Y-1923427D01*
G01X12515314Y-1923427D01*
G01X12555446Y-1923427D02*
G01X12595324Y-1986419D01*
G01X12671778Y-1906409D02*
G01X12660348Y-1911997D01*
G01X12648918Y-1923427D01*
G01X12643076Y-1940699D01*
G01X12643076Y-1952129D01*
G01X12648918Y-1969147D01*
G01X12660348Y-1980577D01*
G01X12671778Y-1986419D01*
G01X12688796Y-1986419D01*
G01X12700226Y-1980577D01*
G01X12711656Y-1969147D01*
G01X12717498Y-1952129D01*
G01X12717498Y-1940699D01*
G01X12711656Y-1923427D01*
G01X12700226Y-1911997D01*
G01X12688796Y-1906409D01*
G01X12671778Y-1906409D01*
G01X12765250Y-1906409D02*
G01X12765250Y-1963559D01*
G01X12771092Y-1980577D01*
G01X12782522Y-1986419D01*
G01X12799540Y-1986419D01*
G01X12810970Y-1980577D01*
G01X12828242Y-1963559D01*
G01X12828242Y-1906409D02*
G01X12828242Y-1986419D01*
G01X12875994Y-1906409D02*
G01X12875994Y-1986419D01*
G01X12875994Y-1929269D02*
G01X12893266Y-1911997D01*
G01X12904696Y-1906409D01*
G01X12921714Y-1906409D01*
G01X12933144Y-1911997D01*
G01X12938986Y-1929269D01*
G01X12938986Y-1986419D01*
G01X13055318Y-1866277D02*
G01X13055318Y-1986419D01*
G01X13055318Y-1923427D02*
G01X13043888Y-1911997D01*
G01X13032458Y-1906409D01*
G01X13015440Y-1906409D01*
G01X13004010Y-1911997D01*
G01X12992580Y-1923427D01*
G01X12986738Y-1940699D01*
G01X12986738Y-1952129D01*
G01X12992580Y-1969147D01*
G01X13004010Y-1980577D01*
G01X13015440Y-1986419D01*
G01X13032458Y-1986419D01*
G01X13043888Y-1980577D01*
G01X13055318Y-1969147D01*
G01X13946495Y-1866277D02*
G01X13992215Y-1986419D01*
G01X14037935Y-1866277D02*
G01X13992215Y-1986419D01*
G01X14085687Y-1866277D02*
G01X14091529Y-1872119D01*
G01X14097117Y-1866277D01*
G01X14091529Y-1860689D01*
G01X14085687Y-1866277D01*
G01X14091529Y-1906409D02*
G01X14091529Y-1986419D01*
G01X14213449Y-1906409D02*
G01X14213449Y-1986419D01*
G01X14213449Y-1923427D02*
G01X14202019Y-1911997D01*
G01X14190589Y-1906409D01*
G01X14173571Y-1906409D01*
G01X14162141Y-1911997D01*
G01X14150711Y-1923427D01*
G01X14144869Y-1940699D01*
G01X14144869Y-1952129D01*
G01X14150711Y-1969147D01*
G01X14162141Y-1980577D01*
G01X14173571Y-1986419D01*
G01X14190589Y-1986419D01*
G01X14202019Y-1980577D01*
G01X14213449Y-1969147D01*
G01X17575175Y-1866277D02*
G01X17575175Y-1986419D01*
G01X17535043Y-1866277D02*
G01X17615053Y-1866277D01*
G01X17691507Y-1906409D02*
G01X17680077Y-1911997D01*
G01X17668647Y-1923427D01*
G01X17662805Y-1940699D01*
G01X17662805Y-1952129D01*
G01X17668647Y-1969147D01*
G01X17680077Y-1980577D01*
G01X17691507Y-1986419D01*
G01X17708525Y-1986419D01*
G01X17719955Y-1980577D01*
G01X17731385Y-1969147D01*
G01X17737227Y-1952129D01*
G01X17737227Y-1940699D01*
G01X17731385Y-1923427D01*
G01X17719955Y-1911997D01*
G01X17708525Y-1906409D01*
G01X17691507Y-1906409D01*
G01X17784979Y-1906409D02*
G01X17784979Y-2026297D01*
G01X17784979Y-1923427D02*
G01X17796409Y-1911997D01*
G01X17807839Y-1906409D01*
G01X17825111Y-1906409D01*
G01X17836541Y-1911997D01*
G01X17847971Y-1923427D01*
G01X17853559Y-1940699D01*
G01X17853559Y-1952129D01*
G01X17847971Y-1969147D01*
G01X17836541Y-1980577D01*
G01X17825111Y-1986419D01*
G01X17807839Y-1986419D01*
G01X17796409Y-1980577D01*
G01X17784979Y-1969147D01*
G01X18029327Y-1866277D02*
G01X18029327Y-1986419D01*
G01X18029327Y-1986419D02*
G01X18097907Y-1986419D01*
G01X18214239Y-1906409D02*
G01X18214239Y-1986419D01*
G01X18214239Y-1923427D02*
G01X18202809Y-1911997D01*
G01X18191379Y-1906409D01*
G01X18174361Y-1906409D01*
G01X18162931Y-1911997D01*
G01X18151501Y-1923427D01*
G01X18145659Y-1940699D01*
G01X18145659Y-1952129D01*
G01X18151501Y-1969147D01*
G01X18162931Y-1980577D01*
G01X18174361Y-1986419D01*
G01X18191379Y-1986419D01*
G01X18202809Y-1980577D01*
G01X18214239Y-1969147D01*
G01X18267833Y-1906409D02*
G01X18302123Y-1986419D01*
G01X18336413Y-1906409D02*
G01X18302123Y-1986419D01*
G01X18290693Y-2009279D01*
G01X18279263Y-2020709D01*
G01X18267833Y-2026297D01*
G01X18261991Y-2026297D01*
G01X18384165Y-1940699D02*
G01X18452745Y-1940699D01*
G01X18452745Y-1929269D01*
G01X18447157Y-1917839D01*
G01X18441315Y-1911997D01*
G01X18429885Y-1906409D01*
G01X18412867Y-1906409D01*
G01X18401437Y-1911997D01*
G01X18390007Y-1923427D01*
G01X18384165Y-1940699D01*
G01X18384165Y-1952129D01*
G01X18390007Y-1969147D01*
G01X18401437Y-1980577D01*
G01X18412867Y-1986419D01*
G01X18429885Y-1986419D01*
G01X18441315Y-1980577D01*
G01X18452745Y-1969147D01*
G01X18500497Y-1906409D02*
G01X18500497Y-1986419D01*
G01X18500497Y-1940699D02*
G01X18506339Y-1923427D01*
G01X18517769Y-1911997D01*
G01X18529199Y-1906409D01*
G01X18546217Y-1906409D01*
G01X18593969Y-1934857D02*
G01X18696839Y-1934857D01*
G01X18744591Y-1866277D02*
G01X18744591Y-1986419D01*
G01X18744591Y-1866277D02*
G01X18796153Y-1866277D01*
G01X18813171Y-1872119D01*
G01X18819013Y-1877707D01*
G01X18824601Y-1889137D01*
G01X18824601Y-1900567D01*
G01X18819013Y-1911997D01*
G01X18813171Y-1917839D01*
G01X18796153Y-1923427D01*
G01X18744591Y-1923427D02*
G01X18796153Y-1923427D01*
G01X18813171Y-1929269D01*
G01X18819013Y-1934857D01*
G01X18824601Y-1946287D01*
G01X18824601Y-1963559D01*
G01X18819013Y-1974989D01*
G01X18813171Y-1980577D01*
G01X18796153Y-1986419D01*
G01X18744591Y-1986419D01*
G01X18901055Y-1906409D02*
G01X18889625Y-1911997D01*
G01X18878195Y-1923427D01*
G01X18872353Y-1940699D01*
G01X18872353Y-1952129D01*
G01X18878195Y-1969147D01*
G01X18889625Y-1980577D01*
G01X18901055Y-1986419D01*
G01X18918073Y-1986419D01*
G01X18929503Y-1980577D01*
G01X18940933Y-1969147D01*
G01X18946775Y-1952129D01*
G01X18946775Y-1940699D01*
G01X18940933Y-1923427D01*
G01X18929503Y-1911997D01*
G01X18918073Y-1906409D01*
G01X18901055Y-1906409D01*
G01X19011799Y-1866277D02*
G01X19011799Y-1963559D01*
G01X19017387Y-1980577D01*
G01X19028817Y-1986419D01*
G01X19040247Y-1986419D01*
G01X18994527Y-1906409D02*
G01X19034659Y-1906409D01*
G01X19105271Y-1866277D02*
G01X19105271Y-1963559D01*
G01X19110859Y-1980577D01*
G01X19122289Y-1986419D01*
G01X19133719Y-1986419D01*
G01X19087999Y-1906409D02*
G01X19128131Y-1906409D01*
G01X19210173Y-1906409D02*
G01X19198743Y-1911997D01*
G01X19187313Y-1923427D01*
G01X19181471Y-1940699D01*
G01X19181471Y-1952129D01*
G01X19187313Y-1969147D01*
G01X19198743Y-1980577D01*
G01X19210173Y-1986419D01*
G01X19227191Y-1986419D01*
G01X19238621Y-1980577D01*
G01X19250051Y-1969147D01*
G01X19255893Y-1952129D01*
G01X19255893Y-1940699D01*
G01X19250051Y-1923427D01*
G01X19238621Y-1911997D01*
G01X19227191Y-1906409D01*
G01X19210173Y-1906409D01*
G01X19303645Y-1906409D02*
G01X19303645Y-1986419D01*
G01X19303645Y-1929269D02*
G01X19320917Y-1911997D01*
G01X19332347Y-1906409D01*
G01X19349365Y-1906409D01*
G01X19360795Y-1911997D01*
G01X19366637Y-1929269D01*
G01X19366637Y-1986419D01*
G01X19366637Y-1929269D02*
G01X19383655Y-1911997D01*
G01X19395085Y-1906409D01*
G01X19412357Y-1906409D01*
G01X19423787Y-1911997D01*
G01X19429375Y-1929269D01*
G01X19429375Y-1986419D01*
G01X19605143Y-1866277D02*
G01X19605143Y-1986419D01*
G01X19605143Y-1986419D02*
G01X19673723Y-1986419D01*
G01X19790055Y-1906409D02*
G01X19790055Y-1986419D01*
G01X19790055Y-1923427D02*
G01X19778625Y-1911997D01*
G01X19767195Y-1906409D01*
G01X19750177Y-1906409D01*
G01X19738747Y-1911997D01*
G01X19727317Y-1923427D01*
G01X19721475Y-1940699D01*
G01X19721475Y-1952129D01*
G01X19727317Y-1969147D01*
G01X19738747Y-1980577D01*
G01X19750177Y-1986419D01*
G01X19767195Y-1986419D01*
G01X19778625Y-1980577D01*
G01X19790055Y-1969147D01*
G01X19843649Y-1906409D02*
G01X19877939Y-1986419D01*
G01X19912229Y-1906409D02*
G01X19877939Y-1986419D01*
G01X19866509Y-2009279D01*
G01X19855079Y-2020709D01*
G01X19843649Y-2026297D01*
G01X19837807Y-2026297D01*
G01X19959981Y-1940699D02*
G01X20028561Y-1940699D01*
G01X20028561Y-1929269D01*
G01X20022973Y-1917839D01*
G01X20017131Y-1911997D01*
G01X20005701Y-1906409D01*
G01X19988683Y-1906409D01*
G01X19977253Y-1911997D01*
G01X19965823Y-1923427D01*
G01X19959981Y-1940699D01*
G01X19959981Y-1952129D01*
G01X19965823Y-1969147D01*
G01X19977253Y-1980577D01*
G01X19988683Y-1986419D01*
G01X20005701Y-1986419D01*
G01X20017131Y-1980577D01*
G01X20028561Y-1969147D01*
G01X20076313Y-1906409D02*
G01X20076313Y-1986419D01*
G01X20076313Y-1940699D02*
G01X20082155Y-1923427D01*
G01X20093585Y-1911997D01*
G01X20105015Y-1906409D01*
G01X20122033Y-1906409D01*

G04 Image Start*
G36*
G01X4455386Y-1789714D02*
G01X4620486Y-1954814D01*
G01X4455386Y-2119914D01*
G01X4290286Y-1954814D01*
G01X4326201Y-1954814D01*
G01X4455386Y-2083999D01*
G01X4584570Y-1954814D01*
G01X4455386Y-1825630D01*
G01X4455386Y-1825630D01*
G01X4326201Y-1954814D01*
G01X4290286Y-1954814D01*
G01X4455386Y-1789714D01*
G37*
G36*
G01X4587262Y275397D02*
G01X4481649Y286877D01*
G01X4438774Y189672D01*
G01X4395899Y286877D01*
G01X4290286Y275397D01*
G01X4353049Y361122D01*
G01X4313327Y415376D01*
G01X4344819Y415376D01*
G01X4384520Y361122D01*
G01X4344819Y306867D01*
G01X4411647Y314132D01*
G01X4411647Y314132D01*
G01X4438774Y252638D01*
G01X4465901Y314132D01*
G01X4532729Y306867D01*
G01X4493028Y361122D01*
G01X4532703Y415351D01*
G01X4465876Y408086D01*
G01X4438774Y469605D01*
G01X4411647Y408112D01*
G01X4344819Y415376D01*
G01X4313327Y415376D01*
G01X4290286Y446847D01*
G01X4395924Y435366D01*
G01X4438774Y532572D01*
G01X4481649Y435366D01*
G01X4587262Y446847D01*
G01X4524499Y361122D01*
G01X4587262Y275397D01*
G37*
G36*
G01X4458269Y1389701D02*
G01X4450529Y1389113D01*
G01X4442686Y1388914D01*
G01X4434842Y1389113D01*
G01X4427102Y1389701D01*
G01X4419475Y1390670D01*
G01X4411969Y1392010D01*
G01X4397364Y1395765D01*
G01X4383361Y1400890D01*
G01X4370039Y1407307D01*
G01X4357474Y1414940D01*
G01X4345742Y1423713D01*
G01X4334920Y1433549D01*
G01X4325084Y1444371D01*
G01X4316311Y1456103D01*
G01X4308678Y1468668D01*
G01X4302261Y1481990D01*
G01X4297136Y1495993D01*
G01X4293381Y1510598D01*
G01X4292041Y1518104D01*
G01X4291072Y1525731D01*
G01X4290484Y1533471D01*
G01X4290286Y1541314D01*
G01X4315686Y1541314D01*
G01X4316342Y1528348D01*
G01X4318270Y1515752D01*
G01X4321405Y1503590D01*
G01X4325682Y1491928D01*
G01X4331036Y1480828D01*
G01X4337405Y1470357D01*
G01X4344722Y1460577D01*
G01X4352925Y1451554D01*
G01X4361948Y1443351D01*
G01X4371728Y1436034D01*
G01X4382200Y1429665D01*
G01X4393299Y1424310D01*
G01X4404961Y1420034D01*
G01X4417123Y1416899D01*
G01X4417123Y1416899D01*
G01X4429719Y1414971D01*
G01X4442686Y1414314D01*
G01X4455652Y1414971D01*
G01X4468248Y1416899D01*
G01X4480410Y1420034D01*
G01X4492072Y1424310D01*
G01X4503171Y1429665D01*
G01X4513643Y1436034D01*
G01X4523423Y1443351D01*
G01X4532446Y1451554D01*
G01X4540649Y1460577D01*
G01X4547966Y1470357D01*
G01X4554335Y1480828D01*
G01X4559689Y1491928D01*
G01X4563966Y1503590D01*
G01X4567101Y1515752D01*
G01X4569029Y1528348D01*
G01X4569686Y1541314D01*
G01X4569029Y1554281D01*
G01X4567101Y1566877D01*
G01X4563966Y1579039D01*
G01X4559689Y1590701D01*
G01X4554335Y1601800D01*
G01X4547966Y1612272D01*
G01X4540649Y1622052D01*
G01X4532446Y1631075D01*
G01X4523423Y1639277D01*
G01X4513643Y1646595D01*
G01X4503171Y1652964D01*
G01X4492072Y1658318D01*
G01X4480410Y1662595D01*
G01X4468248Y1665730D01*
G01X4455652Y1667657D01*
G01X4442686Y1668314D01*
G01X4429719Y1667657D01*
G01X4417123Y1665730D01*
G01X4404961Y1662595D01*
G01X4393299Y1658318D01*
G01X4382200Y1652964D01*
G01X4371728Y1646595D01*
G01X4361948Y1639277D01*
G01X4352925Y1631075D01*
G01X4344722Y1622052D01*
G01X4337405Y1612272D01*
G01X4331036Y1601800D01*
G01X4325682Y1590701D01*
G01X4321405Y1579039D01*
G01X4318270Y1566877D01*
G01X4316342Y1554281D01*
G01X4315686Y1541314D01*
G01X4290286Y1541314D01*
G01X4290484Y1549158D01*
G01X4291072Y1556898D01*
G01X4292041Y1564525D01*
G01X4293381Y1572030D01*
G01X4297136Y1586636D01*
G01X4302261Y1600638D01*
G01X4308678Y1613961D01*
G01X4316311Y1626526D01*
G01X4325084Y1638258D01*
G01X4334920Y1649080D01*
G01X4345742Y1658916D01*
G01X4357474Y1667689D01*
G01X4370039Y1675322D01*
G01X4383361Y1681739D01*
G01X4397364Y1686863D01*
G01X4411969Y1690618D01*
G01X4419475Y1691959D01*
G01X4427102Y1692928D01*
G01X4434842Y1693516D01*
G01X4442686Y1693714D01*
G01X4450529Y1693516D01*
G01X4458269Y1692928D01*
G01X4465896Y1691959D01*
G01X4473402Y1690618D01*
G01X4488007Y1686863D01*
G01X4502010Y1681739D01*
G01X4515332Y1675322D01*
G01X4527897Y1667689D01*
G01X4539629Y1658916D01*
G01X4550451Y1649080D01*
G01X4560287Y1638258D01*
G01X4569060Y1626526D01*
G01X4576693Y1613961D01*
G01X4583110Y1600638D01*
G01X4588235Y1586636D01*
G01X4591990Y1572030D01*
G01X4593330Y1564525D01*
G01X4594299Y1556898D01*
G01X4594887Y1549158D01*
G01X4595086Y1541314D01*
G01X4594887Y1533471D01*
G01X4594299Y1525731D01*
G01X4593330Y1518104D01*
G01X4591990Y1510598D01*
G01X4588235Y1495993D01*
G01X4583110Y1481990D01*
G01X4576693Y1468668D01*
G01X4569060Y1456103D01*
G01X4560287Y1444371D01*
G01X4550451Y1433549D01*
G01X4539629Y1423713D01*
G01X4527897Y1414940D01*
G01X4515332Y1407307D01*
G01X4502010Y1400890D01*
G01X4488007Y1395765D01*
G01X4473402Y1392010D01*
G01X4465896Y1390670D01*
G01X4458269Y1389701D01*
G37*
G36*
G01X4595086Y-850237D02*
G01X4511977Y-850237D01*
G01X4511977Y-933371D01*
G01X4373420Y-933371D01*
G01X4373420Y-850263D01*
G01X4290286Y-850263D01*
G01X4290286Y-737106D01*
G01X4315686Y-737106D01*
G01X4315686Y-824837D01*
G01X4398820Y-824837D01*
G01X4398820Y-907971D01*
G01X4398820Y-907971D01*
G01X4486551Y-907971D01*
G01X4486551Y-824863D01*
G01X4569686Y-824863D01*
G01X4569686Y-737106D01*
G01X4486551Y-737106D01*
G01X4486551Y-653971D01*
G01X4398820Y-653971D01*
G01X4398820Y-737106D01*
G01X4315686Y-737106D01*
G01X4290286Y-737106D01*
G01X4290286Y-711706D01*
G01X4373420Y-711706D01*
G01X4373420Y-628571D01*
G01X4511951Y-628571D01*
G01X4511951Y-711706D01*
G01X4595086Y-711706D01*
G01X4595086Y-850237D01*
G37*
G36*
G01X4595086Y-48000D02*
G01X4525058Y-200400D01*
G01X4595086Y-352800D01*
G01X4442686Y-282772D01*
G01X4290286Y-352800D01*
G01X4314048Y-301086D01*
G01X4342000Y-301086D01*
G01X4432068Y-259684D01*
G01X4442686Y-254807D01*
G01X4453303Y-259684D01*
G01X4543371Y-301086D01*
G01X4501969Y-211017D01*
G01X4497092Y-200400D01*
G01X4501969Y-189783D01*
G01X4543371Y-99714D01*
G01X4453303Y-141116D01*
G01X4442686Y-145993D01*
G01X4432068Y-141116D01*
G01X4342000Y-99714D01*
G01X4383402Y-189783D01*
G01X4388279Y-200400D01*
G01X4383402Y-211017D01*
G01X4383402Y-211017D01*
G01X4342000Y-301086D01*
G01X4314048Y-301086D01*
G01X4360313Y-200400D01*
G01X4290286Y-48000D01*
G01X4442686Y-118028D01*
G01X4595086Y-48000D01*
G37*
G36*
G01X4290286Y1113143D02*
G01X4595086Y1113143D01*
G01X4442686Y849186D01*
G01X4304951Y1087743D01*
G01X4334278Y1087743D01*
G01X4442686Y899986D01*
G01X4551093Y1087743D01*
G01X4551093Y1087743D01*
G01X4334278Y1087743D01*
G01X4304951Y1087743D01*
G01X4290286Y1113143D01*
G37*
G36*
G01X4569686Y-1488543D02*
G01X4468086Y-1488543D01*
G01X4429986Y-1412343D01*
G01X4391886Y-1488543D01*
G01X4290286Y-1488543D01*
G01X4290286Y-1463143D01*
G01X4315686Y-1463143D01*
G01X4376188Y-1463143D01*
G01X4407253Y-1400989D01*
G01X4429986Y-1355548D01*
G01X4452719Y-1400989D01*
G01X4483783Y-1463143D01*
G01X4544286Y-1463143D01*
G01X4544286Y-1402640D01*
G01X4482132Y-1371550D01*
G01X4436691Y-1348843D01*
G01X4482132Y-1326135D01*
G01X4544286Y-1295046D01*
G01X4544286Y-1234543D01*
G01X4483783Y-1234543D01*
G01X4452719Y-1296697D01*
G01X4429986Y-1342137D01*
G01X4407253Y-1296697D01*
G01X4376188Y-1234543D01*
G01X4315686Y-1234543D01*
G01X4315686Y-1295046D01*
G01X4377839Y-1326135D01*
G01X4423280Y-1348843D01*
G01X4377839Y-1371550D01*
G01X4315686Y-1402640D01*
G01X4315686Y-1463143D01*
G01X4315686Y-1463143D01*
G01X4290286Y-1463143D01*
G01X4290286Y-1386943D01*
G01X4366486Y-1348843D01*
G01X4290286Y-1310743D01*
G01X4290286Y-1209143D01*
G01X4391886Y-1209143D01*
G01X4429986Y-1285343D01*
G01X4468086Y-1209143D01*
G01X4569686Y-1209143D01*
G01X4569686Y-1310743D01*
G01X4493486Y-1348843D01*
G01X4569686Y-1386943D01*
G01X4569686Y-1488543D01*
G37*
G36*
G01X4290286Y2274286D02*
G01X4569686Y2274286D01*
G01X4569686Y1994886D01*
G01X4290286Y1994886D01*
G01X4290286Y2248886D01*
G01X4315686Y2248886D01*
G01X4315686Y2020286D01*
G01X4544286Y2020286D01*
G01X4544286Y2248886D01*
G01X4544286Y2248886D01*
G01X4315686Y2248886D01*
G01X4290286Y2248886D01*
G01X4290286Y2274286D01*
G37*

G04 PolygonModel Start*
G54D19*
G01X4000000Y-2225143D02*
G01X20712764Y-2225143D01*
G01X4000000Y-1644571D02*
G01X20712764Y-1644571D01*
G01X4000000Y-1064000D02*
G01X20712764Y-1064000D01*
G01X4000000Y-483428D02*
G01X20712764Y-483428D01*
G01X4000000Y97143D02*
G01X20712764Y97143D01*
G01X4000000Y677714D02*
G01X20712764Y677714D01*
G01X4000000Y1258286D02*
G01X20712764Y1258286D01*
G01X4000000Y1838857D02*
G01X20712764Y1838857D01*
G01X4000000Y2419429D02*
G01X20712764Y2419429D01*
G01X4000000Y3000000D02*
G01X20712764Y3000000D01*
G01X4000000Y3000000D02*
G01X4000000Y-2199743D01*
G01X5451428Y3000000D02*
G01X5451428Y-2199743D01*
G01X6865592Y3000000D02*
G01X6865592Y-2199743D01*
G01X10753461Y3000000D02*
G01X10753461Y-2199743D01*
G01X12214868Y3000000D02*
G01X12214868Y-2199743D01*
G01X13646049Y3000000D02*
G01X13646049Y-2199743D01*
G01X15315228Y3000000D02*
G01X15315228Y-2199743D01*
G01X17234597Y3000000D02*
G01X17234597Y-2199743D01*
G01X20712764Y3000000D02*
G01X20712764Y-2199743D01*

M02*

