G04 Layer: TopSolderMaskLayer*
G04 EasyEDA Pro v3.2.148, 2026-08-03 13:40:32*
G04 Gerber Generator version 0.3*
G04 Scale: 100 percent, Rotated: No, Reflected: No*
G04 Dimensions in millimeters*
G04 Leading zeros omitted, absolute positions, 4 integers and 5 decimals*
G04 Generated by one-click*
G04 Object Configs: Pad,Via,Track,Text,Image,Dimension,BoardOutline,BoardCutout,CopperFilled,SolidRegion,FPCStiffener,Line,PlaneZone,ComponentProperty,ComponentSilkscreen,TearDrop*
G04 Layer Configs: 1,15,16,2,3,4,5,6,7,8,9,10,11,13,14,56*
G04 Copper Areas: 0*
%FSLAX45Y45*%
%MOMM*%
%AMRoundRect*1,1,$1,$2,$3*1,1,$1,$4,$5*1,1,$1,0-$2,0-$3*1,1,$1,0-$4,0-$5*20,1,$1,$2,$3,$4,$5,0*20,1,$1,$4,$5,0-$2,0-$3,0*20,1,$1,0-$2,0-$3,0-$4,0-$5,0*20,1,$1,0-$4,0-$5,$2,$3,0*4,1,4,$2,$3,$4,$5,0-$2,0-$3,0-$4,0-$5,$2,$3,0*%
%ADD10RoundRect,0.1016X-0.4X0.45X0.4X0.45*%
%ADD11RoundRect,0.1016X-0.45X-0.4X-0.45X0.4*%
%ADD12RoundRect,0.1016X-0.40324X0.432X0.40324X0.432*%
%ADD13RoundRect,0.10003X-0.12501X-0.6X-0.12501X0.6*%
%ADD14O,1.5556X0.45461*%
%ADD15RoundRect,0.1006X-0.12501X0.2625X0.12501X0.2625*%
%ADD16RoundRect,0.1016X-0.12501X0.2625X0.12501X0.2625*%
%ADD17RoundRect,0.1016X-0.29X0.15X0.29X0.15*%
%ADD18RoundRect,0.10003X-0.27501X0.55X0.27501X0.55*%
%ADD19RoundRect,0.10003X-0.15X0.55X0.15X0.55*%
%ADD20O,1.20002X2.10002*%
%ADD21O,1.30002X1.90002*%
%ADD22RoundRect,0.1016X-1.44X-0.55999X-1.44X0.55999*%
%ADD23O,2.6016X1.3016*%
%ADD24RoundRect,0.10201X-0.2X1.0X0.2X1.0*%
%ADD25C,1.402*%
%ADD26C,1.4016*%
%ADD27O,1.4016X1.9016*%
G75*


G04 Pad Start*
G54D10*
G01X-239997Y-2150000D03*
G01X-380002Y-2150000D03*
G01X-239997Y-1970000D03*
G01X-380002Y-1970000D03*
G01X239997Y-2130000D03*
G01X380002Y-2130000D03*
G01X239997Y-1950000D03*
G01X380002Y-1950000D03*
G54D11*
G01X740001Y2560007D03*
G01X740001Y2700011D03*
G01X540001Y2560007D03*
G01X540001Y2700011D03*
G54D10*
G01X1010002Y0D03*
G01X869997Y0D03*
G01X-959998Y-680000D03*
G01X-1100002Y-680000D03*
G01X959998Y690000D03*
G01X1100002Y690000D03*
G01X-959998Y2330000D03*
G01X-1100002Y2330000D03*
G01X959998Y-2290000D03*
G01X1100002Y-2290000D03*
G54D12*
G01X-1004664Y300000D03*
G01X-1155337Y300000D03*
G54D13*
G01X-185496Y-180010D03*
G01X-132486Y-180010D03*
G01X-79502Y-180010D03*
G01X-26492Y-180010D03*
G01X26492Y-180010D03*
G01X79502Y-180010D03*
G01X132512Y-180010D03*
G01X185496Y-180010D03*
G01X185496Y180010D03*
G01X132512Y180010D03*
G01X79502Y180010D03*
G01X26492Y180010D03*
G01X-26492Y180010D03*
G01X-79502Y180010D03*
G01X-132486Y180010D03*
G01X-185496Y180010D03*
G54D14*
G01X-1007290Y-97511D03*
G01X-1007290Y-32487D03*
G01X-1007290Y32512D03*
G01X-1007290Y97511D03*
G01X-1592710Y-97511D03*
G01X-1592710Y-32487D03*
G01X-1592710Y32512D03*
G01X-1592710Y97511D03*
G54D16*
G01X1324994Y-67513D03*
G01X1375006Y-67513D03*
G01X1424994Y-67513D03*
G01X1475006Y-67513D03*
G54D17*
G01X1485999Y0D03*
G54D16*
G01X1475006Y67513D03*
G01X1424994Y67513D03*
G01X1375006Y67513D03*
G01X1324994Y67513D03*
G54D17*
G01X1314001Y0D03*
G54D18*
G01X-320002Y-2362497D03*
G01X-239992Y-2362497D03*
G54D19*
G01X-174993Y-2362497D03*
G01X-124981Y-2362497D03*
G01X-74993Y-2362497D03*
G01X-25006Y-2362497D03*
G01X25006Y-2362497D03*
G01X74994Y-2362497D03*
G01X125006Y-2362497D03*
G01X175019Y-2362497D03*
G54D18*
G01X240017Y-2362497D03*
G01X320002Y-2362497D03*
G54D20*
G01X-432498Y-2417488D03*
G01X432499Y-2417488D03*
G54D21*
G01X-432498Y-2837503D03*
G01X432499Y-2837503D03*
G54D22*
G01X-960504Y-1849987D03*
G01X-960504Y-1600000D03*
G01X-960504Y-1400000D03*
G01X-960504Y-1150013D03*
G54D23*
G01X-1839496Y-2145008D03*
G01X-1839496Y-854992D03*
G54D22*
G01X960504Y1849987D03*
G01X960504Y1600000D03*
G01X960504Y1400000D03*
G01X960504Y1150013D03*
G54D23*
G01X1839496Y2145008D03*
G01X1839496Y854992D03*
G54D22*
G01X-960504Y1150013D03*
G01X-960504Y1400000D03*
G01X-960504Y1600000D03*
G01X-960504Y1849987D03*
G54D23*
G01X-1839496Y854992D03*
G01X-1839496Y2145008D03*
G54D22*
G01X960504Y-1150013D03*
G01X960504Y-1400000D03*
G01X960504Y-1600000D03*
G01X960504Y-1849987D03*
G54D23*
G01X1839496Y-854992D03*
G01X1839496Y-2145008D03*
G54D24*
G01X-129997Y2566777D03*
G01X-64999Y2566777D03*
G01X0Y2566777D03*
G01X64999Y2566777D03*
G01X129997Y2566777D03*
G54D25*
G01X-242494Y2565990D03*
G54D26*
G01X242494Y2565990D03*
G54D27*
G01X362483Y2834010D03*
G01X-362483Y2834010D03*
G04 Pad End*

M02*

