G04 Layer: TopLayer*
G04 EasyEDA Pro v3.2.148, 2026-08-03 13:40:32*
G04 Gerber Generator version 0.3*
G04 Scale: 100 percent, Rotated: No, Reflected: No*
G04 Dimensions in millimeters*
G04 Leading zeros omitted, absolute positions, 4 integers and 5 decimals*
G04 Generated by one-click*
G04 Object Configs: Pad,Via,Track,Text,Image,Dimension,BoardOutline,BoardCutout,CopperFilled,SolidRegion,FPCStiffener,Line,PlaneZone,ComponentProperty,ComponentSilkscreen,TearDrop*
G04 Layer Configs: 1,15,16,2,3,4,5,6,7,8,9,10,11,13,14,56*
G04 Copper Areas: 126*
%FSLAX45Y45*%
%MOMM*%
%ADD10C,0.2032*%
%ADD11C,0.254*%
%ADD12R,0.8X0.9*%
%ADD13R,0.9X0.8*%
%ADD14R,0.80648X0.86401*%
%ADD15R,0.25001X1.2*%
%ADD16O,1.454X0.35301*%
%ADD17R,0.25001X0.52499*%
%ADD18R,0.5853X0.3*%
%ADD19R,0.58001X0.3*%
%ADD20R,0.55001X1.1*%
%ADD21R,0.3X1.1*%
%ADD22O,1.1X2.0*%
%ADD23O,1.2X1.8*%
%ADD24R,2.88X1.11999*%
%ADD25O,2.49999X1.2*%
%ADD26R,0.4X2.0*%
%ADD27C,1.3*%
%ADD28O,1.3X1.8*%
%ADD29C,0.61*%
G75*


G04 Copper Start*
G36*
G01X1964186Y2964186D02*
G01X1964186Y2219957D01*
G01X1950802Y2228889D01*
G01X1936112Y2235455D01*
G01X1920530Y2239470D01*
G01X1904496Y2240822D01*
G01X1774496Y2240822D01*
G01X1755804Y2238980D01*
G01X1737830Y2233528D01*
G01X1721265Y2224674D01*
G01X1706746Y2212758D01*
G01X1694830Y2198239D01*
G01X1685976Y2181674D01*
G01X1680523Y2163700D01*
G01X1678682Y2145008D01*
G01X1680523Y2126315D01*
G01X1685976Y2108341D01*
G01X1694830Y2091776D01*
G01X1706746Y2077257D01*
G01X1721265Y2065341D01*
G01X1737830Y2056487D01*
G01X1755804Y2051035D01*
G01X1774496Y2049194D01*
G01X1904496Y2049194D01*
G01X1920530Y2050545D01*
G01X1936112Y2054560D01*
G01X1950802Y2061126D01*
G01X1964186Y2070058D01*
G01X1964186Y929942D01*
G01X1950802Y938874D01*
G01X1936112Y945440D01*
G01X1920530Y949455D01*
G01X1904496Y950806D01*
G01X1774496Y950806D01*
G01X1755804Y948965D01*
G01X1737830Y943513D01*
G01X1721265Y934659D01*
G01X1706746Y922743D01*
G01X1694830Y908224D01*
G01X1685976Y891659D01*
G01X1680523Y873685D01*
G01X1678682Y854992D01*
G01X1680523Y836300D01*
G01X1685976Y818326D01*
G01X1694830Y801761D01*
G01X1706746Y787242D01*
G01X1721265Y775326D01*
G01X1737830Y766472D01*
G01X1755804Y761020D01*
G01X1774496Y759179D01*
G01X1904496Y759179D01*
G01X1920530Y760530D01*
G01X1936112Y764545D01*
G01X1950802Y771111D01*
G01X1964186Y780043D01*
G01X1964186Y-780043D01*
G01X1950802Y-771111D01*
G01X1936112Y-764545D01*
G01X1920530Y-760530D01*
G01X1904496Y-759179D01*
G01X1774496Y-759179D01*
G01X1755804Y-761020D01*
G01X1737830Y-766472D01*
G01X1721265Y-775326D01*
G01X1706746Y-787242D01*
G01X1694830Y-801761D01*
G01X1685976Y-818326D01*
G01X1680523Y-836300D01*
G01X1678682Y-854992D01*
G01X1680523Y-873685D01*
G01X1685976Y-891659D01*
G01X1694830Y-908224D01*
G01X1706746Y-922743D01*
G01X1721265Y-934659D01*
G01X1737830Y-943513D01*
G01X1755804Y-948965D01*
G01X1774496Y-950806D01*
G01X1904496Y-950806D01*
G01X1920530Y-949455D01*
G01X1936112Y-945440D01*
G01X1950802Y-938874D01*
G01X1964186Y-929942D01*
G01X1964186Y-2070058D01*
G01X1950802Y-2061126D01*
G01X1936112Y-2054560D01*
G01X1920530Y-2050545D01*
G01X1904496Y-2049194D01*
G01X1774496Y-2049194D01*
G01X1755804Y-2051035D01*
G01X1737830Y-2056487D01*
G01X1721265Y-2065341D01*
G01X1706746Y-2077257D01*
G01X1694830Y-2091776D01*
G01X1685976Y-2108341D01*
G01X1680523Y-2126315D01*
G01X1678682Y-2145008D01*
G01X1680523Y-2163700D01*
G01X1685976Y-2181674D01*
G01X1694830Y-2198239D01*
G01X1706746Y-2212758D01*
G01X1721265Y-2224674D01*
G01X1737830Y-2233528D01*
G01X1755804Y-2238980D01*
G01X1774496Y-2240822D01*
G01X1904496Y-2240822D01*
G01X1920530Y-2239470D01*
G01X1936112Y-2235455D01*
G01X1950802Y-2228889D01*
G01X1964186Y-2219957D01*
G01X1964186Y-2964186D01*
G01X-1964186Y-2964186D01*
G01X-1964186Y-2700000D01*
G01X-1877235Y-2700000D01*
G01X-1875256Y-2726415D01*
G01X-1869361Y-2752241D01*
G01X-1859683Y-2776899D01*
G01X-1846439Y-2799840D01*
G01X-1829923Y-2820551D01*
G01X-1810504Y-2838568D01*
G01X-1788618Y-2853490D01*
G01X-1764751Y-2864984D01*
G01X-1739438Y-2872792D01*
G01X-1713245Y-2876740D01*
G01X-1686755Y-2876740D01*
G01X-1660561Y-2872792D01*
G01X-1635249Y-2864984D01*
G01X-1611382Y-2853490D01*
G01X-1589495Y-2838568D01*
G01X-1570077Y-2820551D01*
G01X-1559672Y-2807503D01*
G01X-528312Y-2807503D01*
G01X-528312Y-2867503D01*
G01X-526471Y-2886195D01*
G01X-521019Y-2904169D01*
G01X-512165Y-2920734D01*
G01X-500249Y-2935253D01*
G01X-485730Y-2947169D01*
G01X-469165Y-2956023D01*
G01X-451191Y-2961475D01*
G01X-432498Y-2963316D01*
G01X-413806Y-2961475D01*
G01X-395832Y-2956023D01*
G01X-379267Y-2947169D01*
G01X-364748Y-2935253D01*
G01X-352832Y-2920734D01*
G01X-343978Y-2904169D01*
G01X-338526Y-2886195D01*
G01X-336685Y-2867503D01*
G01X336685Y-2867503D01*
G01X338526Y-2886195D01*
G01X343978Y-2904169D01*
G01X352832Y-2920734D01*
G01X364748Y-2935253D01*
G01X379267Y-2947169D01*
G01X395832Y-2956023D01*
G01X413806Y-2961475D01*
G01X432499Y-2963316D01*
G01X451191Y-2961475D01*
G01X469165Y-2956023D01*
G01X485730Y-2947169D01*
G01X500249Y-2935253D01*
G01X512165Y-2920734D01*
G01X521019Y-2904169D01*
G01X526471Y-2886195D01*
G01X528312Y-2867503D01*
G01X528312Y-2807503D01*
G01X526471Y-2788810D01*
G01X521019Y-2770836D01*
G01X512165Y-2754271D01*
G01X500249Y-2739752D01*
G01X485730Y-2727836D01*
G01X469165Y-2718982D01*
G01X451191Y-2713530D01*
G01X432499Y-2711689D01*
G01X413806Y-2713530D01*
G01X395832Y-2718982D01*
G01X379267Y-2727836D01*
G01X364748Y-2739752D01*
G01X352832Y-2754271D01*
G01X343978Y-2770836D01*
G01X338526Y-2788810D01*
G01X336685Y-2807503D01*
G01X336685Y-2807503D01*
G01X336685Y-2867503D01*
G01X-336685Y-2867503D01*
G01X-336685Y-2807503D01*
G01X-338526Y-2788810D01*
G01X-343978Y-2770836D01*
G01X-352832Y-2754271D01*
G01X-364748Y-2739752D01*
G01X-379267Y-2727836D01*
G01X-395832Y-2718982D01*
G01X-413806Y-2713530D01*
G01X-432498Y-2711689D01*
G01X-451191Y-2713530D01*
G01X-469165Y-2718982D01*
G01X-485730Y-2727836D01*
G01X-500249Y-2739752D01*
G01X-512165Y-2754271D01*
G01X-521019Y-2770836D01*
G01X-526471Y-2788810D01*
G01X-528312Y-2807503D01*
G01X-528312Y-2807503D01*
G01X-1559672Y-2807503D01*
G01X-1553561Y-2799840D01*
G01X-1540316Y-2776899D01*
G01X-1530639Y-2752241D01*
G01X-1524744Y-2726415D01*
G01X-1522765Y-2700000D01*
G01X-1522765Y-2700000D01*
G01X1522765Y-2700000D01*
G01X1524744Y-2726415D01*
G01X1530639Y-2752241D01*
G01X1540316Y-2776899D01*
G01X1553561Y-2799840D01*
G01X1570077Y-2820551D01*
G01X1589495Y-2838568D01*
G01X1611382Y-2853490D01*
G01X1635249Y-2864984D01*
G01X1660561Y-2872792D01*
G01X1686755Y-2876740D01*
G01X1713245Y-2876740D01*
G01X1739438Y-2872792D01*
G01X1764751Y-2864984D01*
G01X1788618Y-2853490D01*
G01X1810504Y-2838568D01*
G01X1829923Y-2820551D01*
G01X1846439Y-2799840D01*
G01X1859683Y-2776899D01*
G01X1869361Y-2752241D01*
G01X1875256Y-2726415D01*
G01X1877235Y-2700000D01*
G01X1875256Y-2673584D01*
G01X1869361Y-2647759D01*
G01X1859683Y-2623100D01*
G01X1846439Y-2600160D01*
G01X1829923Y-2579449D01*
G01X1810504Y-2561432D01*
G01X1788618Y-2546510D01*
G01X1764751Y-2535016D01*
G01X1739438Y-2527208D01*
G01X1713245Y-2523260D01*
G01X1686755Y-2523260D01*
G01X1660561Y-2527208D01*
G01X1635249Y-2535016D01*
G01X1611382Y-2546510D01*
G01X1589495Y-2561432D01*
G01X1570077Y-2579449D01*
G01X1553561Y-2600160D01*
G01X1540316Y-2623100D01*
G01X1530639Y-2647759D01*
G01X1524744Y-2673584D01*
G01X1522765Y-2700000D01*
G01X1522765Y-2700000D01*
G01X-1522765Y-2700000D01*
G01X-1524744Y-2673584D01*
G01X-1530639Y-2647759D01*
G01X-1540316Y-2623100D01*
G01X-1553561Y-2600160D01*
G01X-1570077Y-2579449D01*
G01X-1589495Y-2561432D01*
G01X-1611382Y-2546510D01*
G01X-1635249Y-2535016D01*
G01X-1660561Y-2527208D01*
G01X-1686755Y-2523260D01*
G01X-1713245Y-2523260D01*
G01X-1739438Y-2527208D01*
G01X-1764751Y-2535016D01*
G01X-1788618Y-2546510D01*
G01X-1810504Y-2561432D01*
G01X-1829923Y-2579449D01*
G01X-1846439Y-2600160D01*
G01X-1859683Y-2623100D01*
G01X-1869361Y-2647759D01*
G01X-1875256Y-2673584D01*
G01X-1877235Y-2700000D01*
G01X-1877235Y-2700000D01*
G01X-1964186Y-2700000D01*
G01X-1964186Y-2219957D01*
G01X-1950802Y-2228889D01*
G01X-1936112Y-2235455D01*
G01X-1920530Y-2239470D01*
G01X-1904496Y-2240822D01*
G01X-1774496Y-2240822D01*
G01X-1755804Y-2238980D01*
G01X-1737830Y-2233528D01*
G01X-1721265Y-2224674D01*
G01X-1706746Y-2212758D01*
G01X-1694830Y-2198239D01*
G01X-1685976Y-2181674D01*
G01X-1680523Y-2163700D01*
G01X-1678682Y-2145008D01*
G01X-1680523Y-2126315D01*
G01X-1685976Y-2108341D01*
G01X-1694830Y-2091776D01*
G01X-1706746Y-2077257D01*
G01X-1721265Y-2065341D01*
G01X-1737830Y-2056487D01*
G01X-1755804Y-2051035D01*
G01X-1774496Y-2049194D01*
G01X-1904496Y-2049194D01*
G01X-1920530Y-2050545D01*
G01X-1936112Y-2054560D01*
G01X-1950802Y-2061126D01*
G01X-1964186Y-2070058D01*
G01X-1964186Y-1793987D01*
G01X-1140318Y-1793987D01*
G01X-1140318Y-1905986D01*
G01X-1138565Y-1917053D01*
G01X-1133478Y-1927037D01*
G01X-1125555Y-1934960D01*
G01X-1115571Y-1940047D01*
G01X-1104504Y-1941800D01*
G01X-816504Y-1941800D01*
G01X-805436Y-1940047D01*
G01X-795453Y-1934960D01*
G01X-787529Y-1927037D01*
G01X-782442Y-1917053D01*
G01X-780690Y-1905986D01*
G01X-780690Y-1793987D01*
G01X-782442Y-1782920D01*
G01X-787529Y-1772936D01*
G01X-795453Y-1765013D01*
G01X-805436Y-1759926D01*
G01X-816504Y-1758173D01*
G01X-1104504Y-1758173D01*
G01X-1104504Y-1758173D01*
G01X-1115571Y-1759926D01*
G01X-1125555Y-1765013D01*
G01X-1133478Y-1772936D01*
G01X-1138565Y-1782920D01*
G01X-1140318Y-1793987D01*
G01X-1964186Y-1793987D01*
G01X-1964186Y-929942D01*
G01X-1950802Y-938874D01*
G01X-1936112Y-945440D01*
G01X-1920530Y-949455D01*
G01X-1904496Y-950806D01*
G01X-1774496Y-950806D01*
G01X-1755217Y-948847D01*
G01X-1736727Y-943048D01*
G01X-1719782Y-933647D01*
G01X-1705074Y-921029D01*
G01X-1693207Y-905710D01*
G01X-1684664Y-888316D01*
G01X-1679796Y-869559D01*
G01X-1678802Y-850207D01*
G01X-1681722Y-831049D01*
G01X-1688437Y-812872D01*
G01X-1309305Y-1192005D01*
G01X-1299257Y-1199714D01*
G01X-1287556Y-1204561D01*
G01X-1275000Y-1206214D01*
G01X-1140317Y-1206214D01*
G01X-1138515Y-1217233D01*
G01X-1133407Y-1227161D01*
G01X-1125490Y-1235034D01*
G01X-1115533Y-1240086D01*
G01X-1104504Y-1241827D01*
G01X-816504Y-1241827D01*
G01X-805436Y-1240074D01*
G01X-795453Y-1234987D01*
G01X-787529Y-1227064D01*
G01X-782442Y-1217080D01*
G01X-780690Y-1206013D01*
G01X-780690Y-1094014D01*
G01X-782442Y-1082947D01*
G01X-787529Y-1072963D01*
G01X-795453Y-1065040D01*
G01X-805436Y-1059953D01*
G01X-816504Y-1058200D01*
G01X-911484Y-1058200D01*
G01X-911484Y-759787D01*
G01X-900972Y-755342D01*
G01X-892393Y-747817D01*
G01X-886616Y-737974D01*
G01X-884230Y-726814D01*
G01X-876510Y-726814D01*
G01X-864139Y-735912D01*
G01X-850006Y-741921D01*
G01X-834871Y-744518D01*
G01X-819544Y-743564D01*
G01X-804847Y-739109D01*
G01X-791569Y-731394D01*
G01X-780422Y-720832D01*
G01X-772003Y-707989D01*
G01X-766764Y-693553D01*
G01X-764986Y-678300D01*
G01X-766764Y-663046D01*
G01X-772003Y-648611D01*
G01X-780422Y-635768D01*
G01X-791569Y-625205D01*
G01X-804847Y-617490D01*
G01X-819544Y-613036D01*
G01X-834871Y-612082D01*
G01X-850006Y-614679D01*
G01X-864139Y-620688D01*
G01X-876510Y-629786D01*
G01X-884565Y-629786D01*
G01X-887460Y-620036D01*
G01X-892978Y-611493D01*
G01X-900675Y-604846D01*
G01X-909930Y-600630D01*
G01X-919998Y-599186D01*
G01X-999997Y-599186D01*
G01X-1011638Y-601131D01*
G01X-1022014Y-606753D01*
G01X-1030000Y-615443D01*
G01X-1037986Y-606753D01*
G01X-1048362Y-601131D01*
G01X-1060002Y-599186D01*
G01X-1140002Y-599186D01*
G01X-1151069Y-600939D01*
G01X-1161053Y-606026D01*
G01X-1168976Y-613949D01*
G01X-1174063Y-623933D01*
G01X-1175816Y-635000D01*
G01X-1175816Y-725000D01*
G01X-1174063Y-736067D01*
G01X-1168976Y-746051D01*
G01X-1161053Y-753974D01*
G01X-1151069Y-759061D01*
G01X-1140002Y-760814D01*
G01X-1060002Y-760814D01*
G01X-1048362Y-758869D01*
G01X-1037986Y-753247D01*
G01X-1030000Y-744557D01*
G01X-1024202Y-751397D01*
G01X-1016886Y-756582D01*
G01X-1008512Y-759787D01*
G01X-1008512Y-1058200D01*
G01X-1104504Y-1058200D01*
G01X-1115571Y-1059953D01*
G01X-1125555Y-1065040D01*
G01X-1133478Y-1072963D01*
G01X-1138565Y-1082947D01*
G01X-1140318Y-1094014D01*
G01X-1140318Y-1109186D01*
G01X-1254905Y-1109186D01*
G01X-1777286Y-586805D01*
G01X-1777286Y-152695D01*
G01X-1708805Y-84214D01*
G01X-1699544Y-84214D01*
G01X-1701221Y-97990D01*
G01X-1699297Y-111734D01*
G01X-1693900Y-124519D01*
G01X-1685394Y-135485D01*
G01X-1674353Y-143892D01*
G01X-1661519Y-149174D01*
G01X-1647759Y-150975D01*
G01X-1537660Y-150975D01*
G01X-1526156Y-149723D01*
G01X-1515191Y-146025D01*
G01X-1275611Y-146025D01*
G01X-1263054Y-144372D01*
G01X-1251354Y-139525D01*
G01X-1241306Y-131815D01*
G01X-1127405Y-17914D01*
G01X-1113780Y-17914D01*
G01X-1115753Y-30155D01*
G01X-1114854Y-42521D01*
G01X-1111131Y-54348D01*
G01X-1104783Y-64999D01*
G01X-1111447Y-76371D01*
G01X-1115127Y-89027D01*
G01X-1115598Y-102200D01*
G01X-1112832Y-115087D01*
G01X-1106998Y-126906D01*
G01X-1098449Y-136939D01*
G01X-1087705Y-144575D01*
G01X-1075420Y-149350D01*
G01X-1062340Y-150975D01*
G01X-952241Y-150975D01*
G01X-939161Y-149350D01*
G01X-926875Y-144575D01*
G01X-916132Y-136939D01*
G01X-907583Y-126906D01*
G01X-901748Y-115087D01*
G01X-898982Y-102200D01*
G01X-899454Y-89027D01*
G01X-903133Y-76371D01*
G01X-909798Y-64999D01*
G01X-903248Y-53891D01*
G01X-899548Y-41538D01*
G01X-898914Y-28659D01*
G01X-901381Y-16002D01*
G01X-883907Y-16002D01*
G01X-752314Y-147595D01*
G01X-752314Y-953700D01*
G01X-750661Y-966256D01*
G01X-745814Y-977957D01*
G01X-738105Y-988005D01*
G01X-626735Y-1099375D01*
G01X-624551Y-1114072D01*
G01X-619150Y-1127914D01*
G01X-610802Y-1140205D01*
G01X-599927Y-1150330D01*
G01X-587071Y-1157780D01*
G01X-572879Y-1162179D01*
G01X-558064Y-1163309D01*
G01X-780690Y-1385935D01*
G01X-780690Y-1344001D01*
G01X-782442Y-1332934D01*
G01X-787529Y-1322950D01*
G01X-795453Y-1315027D01*
G01X-805436Y-1309940D01*
G01X-816504Y-1308187D01*
G01X-1104504Y-1308187D01*
G01X-1115571Y-1309940D01*
G01X-1125555Y-1315027D01*
G01X-1133478Y-1322950D01*
G01X-1138565Y-1332934D01*
G01X-1140318Y-1344001D01*
G01X-1140318Y-1456000D01*
G01X-1138565Y-1467067D01*
G01X-1133478Y-1477051D01*
G01X-1125555Y-1484974D01*
G01X-1115571Y-1490061D01*
G01X-1104504Y-1491814D01*
G01X-937300Y-1491814D01*
G01X-929113Y-1500000D01*
G01X-937300Y-1508186D01*
G01X-1104504Y-1508186D01*
G01X-1115571Y-1509939D01*
G01X-1125555Y-1515026D01*
G01X-1133478Y-1522950D01*
G01X-1138565Y-1532933D01*
G01X-1140318Y-1544000D01*
G01X-1140318Y-1655999D01*
G01X-1138565Y-1667066D01*
G01X-1133478Y-1677050D01*
G01X-1125555Y-1684973D01*
G01X-1115571Y-1690060D01*
G01X-1104504Y-1691813D01*
G01X-816504Y-1691813D01*
G01X-805436Y-1690060D01*
G01X-795453Y-1684973D01*
G01X-787529Y-1677050D01*
G01X-782442Y-1667066D01*
G01X-780690Y-1655999D01*
G01X-780690Y-1565966D01*
G01X-770288Y-1561187D01*
G01X-761295Y-1554105D01*
G01X-458953Y-1251763D01*
G01X-458224Y-1264804D01*
G01X-454953Y-1277450D01*
G01X-449266Y-1289210D01*
G01X-441385Y-1299626D01*
G01X-431614Y-1308296D01*
G01X-420334Y-1314882D01*
G01X-407982Y-1319129D01*
G01X-395036Y-1320873D01*
G01X-288511Y-1427398D01*
G01X-288511Y-1890213D01*
G01X-296886Y-1893418D01*
G01X-304201Y-1898603D01*
G01X-310000Y-1905443D01*
G01X-317986Y-1896753D01*
G01X-328362Y-1891130D01*
G01X-340002Y-1889186D01*
G01X-420002Y-1889186D01*
G01X-431069Y-1890939D01*
G01X-441053Y-1896026D01*
G01X-448976Y-1903949D01*
G01X-454063Y-1913933D01*
G01X-455816Y-1925000D01*
G01X-455816Y-2015000D01*
G01X-454063Y-2026067D01*
G01X-448976Y-2036051D01*
G01X-441053Y-2043974D01*
G01X-431069Y-2049061D01*
G01X-420002Y-2050814D01*
G01X-340002Y-2050814D01*
G01X-328362Y-2048869D01*
G01X-317986Y-2043247D01*
G01X-310000Y-2034557D01*
G01X-304201Y-2041397D01*
G01X-296886Y-2046582D01*
G01X-288511Y-2049787D01*
G01X-288511Y-2070213D01*
G01X-296886Y-2073418D01*
G01X-304201Y-2078603D01*
G01X-310000Y-2085443D01*
G01X-317986Y-2076753D01*
G01X-328362Y-2071131D01*
G01X-340002Y-2069186D01*
G01X-420002Y-2069186D01*
G01X-431069Y-2070939D01*
G01X-441053Y-2076026D01*
G01X-448976Y-2083949D01*
G01X-454063Y-2093933D01*
G01X-455816Y-2105000D01*
G01X-455816Y-2195000D01*
G01X-454063Y-2206067D01*
G01X-448976Y-2216051D01*
G01X-441053Y-2223974D01*
G01X-431069Y-2229061D01*
G01X-420002Y-2230814D01*
G01X-340002Y-2230814D01*
G01X-328362Y-2228869D01*
G01X-317986Y-2223247D01*
G01X-310000Y-2214557D01*
G01X-304200Y-2221398D01*
G01X-296882Y-2226584D01*
G01X-288506Y-2229789D01*
G01X-288506Y-2271907D01*
G01X-292501Y-2271683D01*
G01X-347502Y-2271683D01*
G01X-358749Y-2273495D01*
G01X-368858Y-2278747D01*
G01X-376806Y-2286907D01*
G01X-381789Y-2297151D01*
G01X-397487Y-2288695D01*
G01X-414535Y-2283469D01*
G01X-432275Y-2281675D01*
G01X-450023Y-2283381D01*
G01X-467096Y-2288523D01*
G01X-482836Y-2296902D01*
G01X-496634Y-2308194D01*
G01X-507961Y-2321965D01*
G01X-516378Y-2337684D01*
G01X-521562Y-2354744D01*
G01X-523312Y-2372488D01*
G01X-523312Y-2462488D01*
G01X-521393Y-2481059D01*
G01X-515717Y-2498845D01*
G01X-506524Y-2515094D01*
G01X-494202Y-2529120D01*
G01X-479273Y-2540330D01*
G01X-462366Y-2548250D01*
G01X-444198Y-2552545D01*
G01X-425534Y-2553035D01*
G01X-407166Y-2549697D01*
G01X-389867Y-2542674D01*
G01X-374371Y-2532262D01*
G01X-361331Y-2518901D01*
G01X-351299Y-2503155D01*
G01X-341968Y-2516497D01*
G01X-329836Y-2527355D01*
G01X-315545Y-2535155D01*
G01X-299850Y-2539485D01*
G01X-283581Y-2540116D01*
G01X-267598Y-2537015D01*
G01X-252746Y-2530345D01*
G01X-239809Y-2520460D01*
G01X-229472Y-2507882D01*
G01X-222281Y-2493275D01*
G01X-200255Y-2515302D01*
G01X-190207Y-2523011D01*
G01X-178506Y-2527858D01*
G01X-165950Y-2529511D01*
G01X165975Y-2529511D01*
G01X178532Y-2527858D01*
G01X190232Y-2523011D01*
G01X200280Y-2515302D01*
G01X222306Y-2493275D01*
G01X229496Y-2507880D01*
G01X239831Y-2520457D01*
G01X252764Y-2530341D01*
G01X267613Y-2537011D01*
G01X283593Y-2540115D01*
G01X299859Y-2539487D01*
G01X315552Y-2535162D01*
G01X329843Y-2527367D01*
G01X341976Y-2516515D01*
G01X351311Y-2503180D01*
G01X361347Y-2518920D01*
G01X374389Y-2532276D01*
G01X389886Y-2542684D01*
G01X407184Y-2549702D01*
G01X425551Y-2553036D01*
G01X444212Y-2552543D01*
G01X462378Y-2548246D01*
G01X479282Y-2540324D01*
G01X494208Y-2529114D01*
G01X506528Y-2515089D01*
G01X515719Y-2498841D01*
G01X521394Y-2481057D01*
G01X523312Y-2462488D01*
G01X523312Y-2372488D01*
G01X521562Y-2354744D01*
G01X516378Y-2337684D01*
G01X507961Y-2321965D01*
G01X496634Y-2308194D01*
G01X482836Y-2296902D01*
G01X467096Y-2288523D01*
G01X450023Y-2283381D01*
G01X432275Y-2281675D01*
G01X414535Y-2283469D01*
G01X397487Y-2288695D01*
G01X381789Y-2297151D01*
G01X376806Y-2286907D01*
G01X368858Y-2278747D01*
G01X358749Y-2273495D01*
G01X347502Y-2271683D01*
G01X292501Y-2271683D01*
G01X288531Y-2271904D01*
G01X288531Y-2209782D01*
G01X296898Y-2206576D01*
G01X304206Y-2201392D01*
G01X310000Y-2194557D01*
G01X317986Y-2203247D01*
G01X328362Y-2208869D01*
G01X340002Y-2210814D01*
G01X420002Y-2210814D01*
G01X431069Y-2209061D01*
G01X441053Y-2203974D01*
G01X448976Y-2196051D01*
G01X454063Y-2186067D01*
G01X455816Y-2175000D01*
G01X455816Y-2085000D01*
G01X454063Y-2073933D01*
G01X448976Y-2063949D01*
G01X441053Y-2056026D01*
G01X431069Y-2050939D01*
G01X420002Y-2049186D01*
G01X340002Y-2049186D01*
G01X328362Y-2051131D01*
G01X317986Y-2056753D01*
G01X310000Y-2065443D01*
G01X304201Y-2058603D01*
G01X296886Y-2053418D01*
G01X288511Y-2050213D01*
G01X288511Y-2029787D01*
G01X296886Y-2026582D01*
G01X304201Y-2021397D01*
G01X310000Y-2014557D01*
G01X317986Y-2023247D01*
G01X328362Y-2028869D01*
G01X340002Y-2030814D01*
G01X420002Y-2030814D01*
G01X431069Y-2029061D01*
G01X441053Y-2023974D01*
G01X448976Y-2016051D01*
G01X454063Y-2006067D01*
G01X455816Y-1995000D01*
G01X455816Y-1905000D01*
G01X454063Y-1893933D01*
G01X448976Y-1883949D01*
G01X441053Y-1876026D01*
G01X431069Y-1870939D01*
G01X420002Y-1869186D01*
G01X340002Y-1869186D01*
G01X328362Y-1871131D01*
G01X317986Y-1876753D01*
G01X310000Y-1885443D01*
G01X304201Y-1878603D01*
G01X296886Y-1873418D01*
G01X288511Y-1870213D01*
G01X288511Y-1838400D01*
G01X714041Y-1838400D01*
G01X715184Y-1853650D01*
G01X719790Y-1868232D01*
G01X727614Y-1881371D01*
G01X738240Y-1892369D01*
G01X751102Y-1900640D01*
G01X765517Y-1905745D01*
G01X780718Y-1907413D01*
G01X782812Y-1918133D01*
G01X788041Y-1927724D01*
G01X795917Y-1935292D01*
G01X805708Y-1940134D01*
G01X816504Y-1941800D01*
G01X911990Y-1941800D01*
G01X911990Y-2210093D01*
G01X900918Y-2214691D01*
G01X891985Y-2222686D01*
G01X886190Y-2233181D01*
G01X884184Y-2245000D01*
G01X884184Y-2335000D01*
G01X885937Y-2346067D01*
G01X891024Y-2356051D01*
G01X898947Y-2363974D01*
G01X908931Y-2369061D01*
G01X919998Y-2370814D01*
G01X999997Y-2370814D01*
G01X1011638Y-2368869D01*
G01X1022014Y-2363247D01*
G01X1030000Y-2354557D01*
G01X1037986Y-2363247D01*
G01X1048362Y-2368869D01*
G01X1060002Y-2370814D01*
G01X1140002Y-2370814D01*
G01X1151069Y-2369061D01*
G01X1161053Y-2363974D01*
G01X1168976Y-2356051D01*
G01X1174063Y-2346067D01*
G01X1175816Y-2335000D01*
G01X1175816Y-2245000D01*
G01X1174063Y-2233933D01*
G01X1168976Y-2223949D01*
G01X1161053Y-2216026D01*
G01X1151069Y-2210939D01*
G01X1140002Y-2209186D01*
G01X1060002Y-2209186D01*
G01X1048362Y-2211131D01*
G01X1037986Y-2216753D01*
G01X1030000Y-2225443D01*
G01X1024330Y-2218721D01*
G01X1017192Y-2213584D01*
G01X1009018Y-2210341D01*
G01X1009018Y-2210341D01*
G01X1009018Y-1941800D01*
G01X1104504Y-1941800D01*
G01X1115571Y-1940047D01*
G01X1125555Y-1934960D01*
G01X1133478Y-1927037D01*
G01X1138565Y-1917053D01*
G01X1140318Y-1905986D01*
G01X1140318Y-1793987D01*
G01X1138565Y-1782920D01*
G01X1133478Y-1772936D01*
G01X1125555Y-1765013D01*
G01X1115571Y-1759926D01*
G01X1104504Y-1758173D01*
G01X816504Y-1758173D01*
G01X807527Y-1759316D01*
G01X799124Y-1762673D01*
G01X791830Y-1768028D01*
G01X786111Y-1775041D01*
G01X770825Y-1775466D01*
G01X756043Y-1779382D01*
G01X742550Y-1786579D01*
G01X731065Y-1796676D01*
G01X722198Y-1809135D01*
G01X716421Y-1823294D01*
G01X714041Y-1838400D01*
G01X288511Y-1838400D01*
G01X288511Y-1575298D01*
G01X333418Y-1530391D01*
G01X591630Y-1530391D01*
G01X592917Y-1546021D01*
G01X597839Y-1560910D01*
G01X606119Y-1574228D01*
G01X617295Y-1585229D01*
G01X617295Y-1585229D01*
G01X630742Y-1593298D01*
G01X645708Y-1597984D01*
G01X661356Y-1599024D01*
G01X676810Y-1596361D01*
G01X691207Y-1590143D01*
G01X703741Y-1580718D01*
G01X713711Y-1568614D01*
G01X780690Y-1568614D01*
G01X780690Y-1655999D01*
G01X782442Y-1667066D01*
G01X787529Y-1677050D01*
G01X795453Y-1684973D01*
G01X805436Y-1690060D01*
G01X816504Y-1691813D01*
G01X1104504Y-1691813D01*
G01X1115571Y-1690060D01*
G01X1125555Y-1684973D01*
G01X1133478Y-1677050D01*
G01X1138565Y-1667066D01*
G01X1140318Y-1655999D01*
G01X1140318Y-1544000D01*
G01X1138565Y-1532933D01*
G01X1133478Y-1522950D01*
G01X1125555Y-1515026D01*
G01X1115571Y-1509939D01*
G01X1104504Y-1508186D01*
G01X937300Y-1508186D01*
G01X929113Y-1500000D01*
G01X937300Y-1491814D01*
G01X1104504Y-1491814D01*
G01X1115571Y-1490061D01*
G01X1125555Y-1484974D01*
G01X1133478Y-1477051D01*
G01X1138565Y-1467067D01*
G01X1140318Y-1456000D01*
G01X1140318Y-1344001D01*
G01X1138565Y-1332934D01*
G01X1133478Y-1322950D01*
G01X1125555Y-1315027D01*
G01X1115571Y-1309940D01*
G01X1104504Y-1308187D01*
G01X816504Y-1308187D01*
G01X805436Y-1309940D01*
G01X795453Y-1315027D01*
G01X787529Y-1322950D01*
G01X782442Y-1332934D01*
G01X780690Y-1344001D01*
G01X780690Y-1435986D01*
G01X726997Y-1435986D01*
G01X722833Y-1421537D01*
G01X715522Y-1408398D01*
G01X705438Y-1397243D01*
G01X693101Y-1388647D01*
G01X679144Y-1383052D01*
G01X664285Y-1380745D01*
G01X649289Y-1381844D01*
G01X634926Y-1386294D01*
G01X621934Y-1393865D01*
G01X610983Y-1404168D01*
G01X602633Y-1416673D01*
G01X597316Y-1430739D01*
G01X595304Y-1445640D01*
G01X596701Y-1460612D01*
G01X601435Y-1474883D01*
G01X609263Y-1487722D01*
G01X600038Y-1500404D01*
G01X594048Y-1514897D01*
G01X591630Y-1530391D01*
G01X333418Y-1530391D01*
G01X783356Y-1080453D01*
G01X781363Y-1087104D01*
G01X780690Y-1094014D01*
G01X780690Y-1206013D01*
G01X782442Y-1217080D01*
G01X787529Y-1227064D01*
G01X795453Y-1234987D01*
G01X805436Y-1240074D01*
G01X816504Y-1241827D01*
G01X1104504Y-1241827D01*
G01X1115571Y-1240074D01*
G01X1125555Y-1234987D01*
G01X1133478Y-1227064D01*
G01X1138565Y-1217080D01*
G01X1140318Y-1206013D01*
G01X1140318Y-1094014D01*
G01X1138565Y-1082947D01*
G01X1133478Y-1072963D01*
G01X1125555Y-1065040D01*
G01X1115571Y-1059953D01*
G01X1104504Y-1058200D01*
G01X816504Y-1058200D01*
G01X809593Y-1058873D01*
G01X802942Y-1060867D01*
G01X1545086Y-318723D01*
G01X1560826Y-316253D01*
G01X1575522Y-310100D01*
G01X1588327Y-300619D01*
G01X1598501Y-288358D01*
G01X1605457Y-274024D01*
G01X1608793Y-258445D01*
G01X1608316Y-242520D01*
G01X1620132Y-240535D01*
G01X1631101Y-235716D01*
G01X1640555Y-228355D01*
G01X1691805Y-177105D01*
G01X1699514Y-167057D01*
G01X1704361Y-155356D01*
G01X1706014Y-142800D01*
G01X1706014Y269646D01*
G01X1704361Y282202D01*
G01X1699514Y293903D01*
G01X1691805Y303951D01*
G01X1604450Y391305D01*
G01X1594403Y399014D01*
G01X1582702Y403861D01*
G01X1570146Y405514D01*
G01X683095Y405514D01*
G01X460316Y628294D01*
G01X475043Y632699D01*
G01X488359Y640378D01*
G01X499550Y650916D01*
G01X508015Y663748D01*
G01X513297Y678183D01*
G01X515114Y693447D01*
G01X513367Y708720D01*
G01X508152Y723180D01*
G01X499747Y736050D01*
G01X488604Y746640D01*
G01X475323Y754379D01*
G01X460616Y758853D01*
G01X445275Y759820D01*
G01X430123Y757230D01*
G01X415975Y751220D01*
G01X403590Y742114D01*
G01X396841Y742114D01*
G01X199631Y939324D01*
G01X215763Y938576D01*
G01X231598Y941750D01*
G01X246196Y948657D01*
G01X258692Y958888D01*
G01X268344Y971836D01*
G01X274580Y986733D01*
G01X289224Y989352D01*
G01X302915Y995169D01*
G01X314966Y1003892D01*
G01X324768Y1015082D01*
G01X331830Y1028175D01*
G01X335795Y1042513D01*
G01X336464Y1057375D01*
G01X333804Y1072011D01*
G01X327948Y1085686D01*
G01X319191Y1097712D01*
G01X307973Y1107483D01*
G01X294860Y1114507D01*
G01X294860Y1206013D01*
G01X780690Y1206013D01*
G01X780690Y1094014D01*
G01X782442Y1082947D01*
G01X787529Y1072963D01*
G01X795453Y1065040D01*
G01X805436Y1059953D01*
G01X816504Y1058200D01*
G01X911990Y1058200D01*
G01X911990Y769907D01*
G01X900918Y765309D01*
G01X891985Y757314D01*
G01X886190Y746819D01*
G01X884184Y735000D01*
G01X884184Y645000D01*
G01X886147Y633304D01*
G01X891823Y622890D01*
G01X900589Y614901D01*
G01X911484Y610213D01*
G01X911484Y602362D01*
G01X902067Y590235D01*
G01X895691Y576267D01*
G01X892699Y561207D01*
G01X893250Y545863D01*
G01X897315Y531057D01*
G01X904677Y517582D01*
G01X914940Y506162D01*
G01X927555Y497408D01*
G01X941844Y491790D01*
G01X957043Y489609D01*
G01X972335Y490982D01*
G01X986902Y495835D01*
G01X999963Y503908D01*
G01X1010817Y514768D01*
G01X1018882Y527834D01*
G01X1023726Y542404D01*
G01X1025090Y557697D01*
G01X1022899Y572895D01*
G01X1017273Y587181D01*
G01X1008512Y599790D01*
G01X1008512Y610213D01*
G01X1016886Y613418D01*
G01X1024202Y618603D01*
G01X1030000Y625443D01*
G01X1037986Y616753D01*
G01X1048362Y611130D01*
G01X1060002Y609186D01*
G01X1060002Y609186D01*
G01X1140002Y609186D01*
G01X1151069Y610939D01*
G01X1161053Y616026D01*
G01X1168976Y623949D01*
G01X1174063Y633933D01*
G01X1175816Y645000D01*
G01X1175816Y735000D01*
G01X1174063Y746067D01*
G01X1168976Y756051D01*
G01X1161053Y763974D01*
G01X1151069Y769061D01*
G01X1140002Y770814D01*
G01X1060002Y770814D01*
G01X1048362Y768869D01*
G01X1037986Y763247D01*
G01X1030000Y754557D01*
G01X1024330Y761279D01*
G01X1017192Y766416D01*
G01X1009018Y769659D01*
G01X1009018Y1058200D01*
G01X1104504Y1058200D01*
G01X1115571Y1059953D01*
G01X1125555Y1065040D01*
G01X1133478Y1072963D01*
G01X1138565Y1082947D01*
G01X1140318Y1094014D01*
G01X1140318Y1206013D01*
G01X1138565Y1217080D01*
G01X1133478Y1227064D01*
G01X1125555Y1234987D01*
G01X1115571Y1240074D01*
G01X1104504Y1241827D01*
G01X816504Y1241827D01*
G01X805436Y1240074D01*
G01X795453Y1234987D01*
G01X787529Y1227064D01*
G01X782442Y1217080D01*
G01X780690Y1206013D01*
G01X294860Y1206013D01*
G01X294860Y1206105D01*
G01X524441Y1435686D01*
G01X780690Y1435686D01*
G01X780690Y1344001D01*
G01X782442Y1332934D01*
G01X787529Y1322950D01*
G01X795453Y1315027D01*
G01X805436Y1309940D01*
G01X816504Y1308187D01*
G01X1104504Y1308187D01*
G01X1115571Y1309940D01*
G01X1125555Y1315027D01*
G01X1133478Y1322950D01*
G01X1138565Y1332934D01*
G01X1140318Y1344001D01*
G01X1140318Y1456000D01*
G01X1138565Y1467067D01*
G01X1133478Y1477051D01*
G01X1125555Y1484974D01*
G01X1115571Y1490061D01*
G01X1104504Y1491814D01*
G01X937300Y1491814D01*
G01X929113Y1500000D01*
G01X937300Y1508186D01*
G01X1104504Y1508186D01*
G01X1115571Y1509939D01*
G01X1125555Y1515026D01*
G01X1133478Y1522950D01*
G01X1138565Y1532933D01*
G01X1140318Y1544000D01*
G01X1140318Y1655999D01*
G01X1138565Y1667066D01*
G01X1133478Y1677050D01*
G01X1125555Y1684973D01*
G01X1115571Y1690060D01*
G01X1104504Y1691813D01*
G01X816504Y1691813D01*
G01X805436Y1690060D01*
G01X795453Y1684973D01*
G01X787529Y1677050D01*
G01X782442Y1667066D01*
G01X780690Y1655999D01*
G01X780690Y1568314D01*
G01X489600Y1568314D01*
G01X477044Y1566661D01*
G01X465343Y1561814D01*
G01X455295Y1554105D01*
G01X176441Y1275251D01*
G01X168732Y1265203D01*
G01X163885Y1253502D01*
G01X162232Y1240946D01*
G01X162232Y1049910D01*
G01X153215Y1037680D01*
G01X147218Y1023718D01*
G01X144556Y1008758D01*
G01X145370Y993585D01*
G01X84114Y1054841D01*
G01X84114Y1905986D01*
G01X780690Y1905986D01*
G01X780690Y1793987D01*
G01X782442Y1782920D01*
G01X787529Y1772936D01*
G01X795453Y1765013D01*
G01X805436Y1759926D01*
G01X816504Y1758173D01*
G01X1104504Y1758173D01*
G01X1104504Y1758173D01*
G01X1115571Y1759926D01*
G01X1125555Y1765013D01*
G01X1133478Y1772936D01*
G01X1138565Y1782920D01*
G01X1140318Y1793987D01*
G01X1140318Y1905986D01*
G01X1138565Y1917053D01*
G01X1133478Y1927037D01*
G01X1125555Y1934960D01*
G01X1115571Y1940047D01*
G01X1104504Y1941800D01*
G01X816504Y1941800D01*
G01X805436Y1940047D01*
G01X795453Y1934960D01*
G01X787529Y1927037D01*
G01X782442Y1917053D01*
G01X780690Y1905986D01*
G01X84114Y1905986D01*
G01X84114Y2404244D01*
G01X88845Y2394310D01*
G01X95693Y2385698D01*
G01X155695Y2325696D01*
G01X165743Y2317986D01*
G01X177444Y2313139D01*
G01X190000Y2311486D01*
G01X480000Y2311486D01*
G01X492556Y2313139D01*
G01X504257Y2317986D01*
G01X514305Y2325696D01*
G01X574305Y2385695D01*
G01X582014Y2395743D01*
G01X586861Y2407443D01*
G01X588514Y2420000D01*
G01X588515Y2484365D01*
G01X599158Y2487110D01*
G01X608468Y2492952D01*
G01X615568Y2501343D01*
G01X619788Y2511493D01*
G01X660214Y2511493D01*
G01X664902Y2500598D01*
G01X672891Y2491832D01*
G01X683305Y2486156D01*
G01X695001Y2484193D01*
G01X785001Y2484193D01*
G01X796745Y2486173D01*
G01X807190Y2491894D01*
G01X815181Y2500724D01*
G01X819835Y2511686D01*
G01X852390Y2511686D01*
G01X864761Y2502588D01*
G01X878894Y2496579D01*
G01X894029Y2493982D01*
G01X909356Y2494936D01*
G01X924053Y2499391D01*
G01X937331Y2507106D01*
G01X948478Y2517668D01*
G01X956897Y2530511D01*
G01X962136Y2544947D01*
G01X963914Y2560200D01*
G01X962136Y2575454D01*
G01X956897Y2589889D01*
G01X948478Y2602732D01*
G01X937331Y2613295D01*
G01X924053Y2621010D01*
G01X909356Y2625464D01*
G01X894029Y2626418D01*
G01X878894Y2623821D01*
G01X864761Y2617812D01*
G01X852390Y2608714D01*
G01X819741Y2608714D01*
G01X816520Y2617012D01*
G01X811353Y2624259D01*
G01X804559Y2630009D01*
G01X813248Y2637995D01*
G01X818871Y2648371D01*
G01X820815Y2660011D01*
G01X820815Y2700000D01*
G01X1522765Y2700000D01*
G01X1524744Y2673584D01*
G01X1530639Y2647759D01*
G01X1540316Y2623100D01*
G01X1553561Y2600160D01*
G01X1570077Y2579449D01*
G01X1589495Y2561432D01*
G01X1611382Y2546510D01*
G01X1635249Y2535016D01*
G01X1660561Y2527208D01*
G01X1686755Y2523260D01*
G01X1713245Y2523260D01*
G01X1739438Y2527208D01*
G01X1764751Y2535016D01*
G01X1788618Y2546510D01*
G01X1810504Y2561432D01*
G01X1829923Y2579449D01*
G01X1846439Y2600160D01*
G01X1859683Y2623100D01*
G01X1869361Y2647759D01*
G01X1875256Y2673584D01*
G01X1877235Y2700000D01*
G01X1875256Y2726415D01*
G01X1869361Y2752241D01*
G01X1859683Y2776899D01*
G01X1846439Y2799840D01*
G01X1829923Y2820551D01*
G01X1810504Y2838568D01*
G01X1788618Y2853490D01*
G01X1764751Y2864984D01*
G01X1739438Y2872792D01*
G01X1713245Y2876740D01*
G01X1686755Y2876740D01*
G01X1660561Y2872792D01*
G01X1635249Y2864984D01*
G01X1611382Y2853490D01*
G01X1589495Y2838568D01*
G01X1570077Y2820551D01*
G01X1553561Y2799840D01*
G01X1540316Y2776899D01*
G01X1530639Y2752241D01*
G01X1524744Y2726415D01*
G01X1522765Y2700000D01*
G01X1522765Y2700000D01*
G01X820815Y2700000D01*
G01X820815Y2740011D01*
G01X819062Y2751078D01*
G01X813975Y2761062D01*
G01X806052Y2768985D01*
G01X796068Y2774072D01*
G01X785001Y2775825D01*
G01X695001Y2775825D01*
G01X683934Y2774072D01*
G01X673950Y2768985D01*
G01X666027Y2761062D01*
G01X660940Y2751078D01*
G01X659187Y2740011D01*
G01X659187Y2660011D01*
G01X661132Y2648371D01*
G01X666754Y2637995D01*
G01X675444Y2630009D01*
G01X668604Y2624211D01*
G01X663419Y2616895D01*
G01X660214Y2608521D01*
G01X619788Y2608521D01*
G01X616583Y2616895D01*
G01X611398Y2624211D01*
G01X604559Y2630009D01*
G01X613248Y2637995D01*
G01X618871Y2648371D01*
G01X620815Y2660011D01*
G01X620815Y2740011D01*
G01X619062Y2751078D01*
G01X613975Y2761062D01*
G01X606052Y2768985D01*
G01X596068Y2774072D01*
G01X585001Y2775825D01*
G01X495001Y2775825D01*
G01X483934Y2774072D01*
G01X473950Y2768985D01*
G01X466027Y2761062D01*
G01X460940Y2751078D01*
G01X459187Y2740011D01*
G01X459187Y2660011D01*
G01X461132Y2648371D01*
G01X466754Y2637995D01*
G01X475444Y2630009D01*
G01X466754Y2622023D01*
G01X461132Y2611647D01*
G01X459187Y2600006D01*
G01X459187Y2520007D01*
G01X460729Y2509611D01*
G01X465222Y2500111D01*
G01X472279Y2492324D01*
G01X481293Y2486920D01*
G01X491487Y2484366D01*
G01X491486Y2440095D01*
G01X459905Y2408514D01*
G01X210095Y2408514D01*
G01X178511Y2440098D01*
G01X178511Y2445107D01*
G01X183937Y2455344D01*
G01X185811Y2466777D01*
G01X185811Y2482620D01*
G01X203233Y2473135D01*
G01X222175Y2467245D01*
G01X241903Y2465177D01*
G01X261654Y2467013D01*
G01X280664Y2472681D01*
G01X298196Y2481961D01*
G01X306830Y2489000D01*
G01X358186Y2489000D01*
G01X360085Y2477005D01*
G01X365598Y2466185D01*
G01X374185Y2457599D01*
G01X385005Y2452086D01*
G01X396999Y2450186D01*
G01X408994Y2452086D01*
G01X419814Y2457599D01*
G01X428400Y2466185D01*
G01X433914Y2477005D01*
G01X435813Y2489000D01*
G01X433914Y2500994D01*
G01X428400Y2511814D01*
G01X419814Y2520401D01*
G01X408994Y2525914D01*
G01X396999Y2527813D01*
G01X396999Y2527813D01*
G01X385005Y2525914D01*
G01X374185Y2520401D01*
G01X365598Y2511814D01*
G01X360085Y2500994D01*
G01X358186Y2489000D01*
G01X306830Y2489000D01*
G01X313571Y2494495D01*
G01X326194Y2509796D01*
G01X335577Y2527273D01*
G01X341356Y2546249D01*
G01X343308Y2565990D01*
G01X341356Y2585730D01*
G01X335577Y2604706D01*
G01X326194Y2622183D01*
G01X313571Y2637484D01*
G01X298196Y2650018D01*
G01X280664Y2659298D01*
G01X261654Y2664966D01*
G01X241903Y2666802D01*
G01X222175Y2664735D01*
G01X203233Y2658844D01*
G01X185811Y2649359D01*
G01X185811Y2666777D01*
G01X184058Y2677844D01*
G01X178971Y2687828D01*
G01X171048Y2695751D01*
G01X161064Y2700838D01*
G01X149997Y2702591D01*
G01X109997Y2702591D01*
G01X103647Y2702023D01*
G01X97498Y2700339D01*
G01X91349Y2702023D01*
G01X84999Y2702591D01*
G01X44999Y2702591D01*
G01X38648Y2702023D01*
G01X32499Y2700339D01*
G01X26350Y2702023D01*
G01X20000Y2702591D01*
G01X-20000Y2702591D01*
G01X-26350Y2702023D01*
G01X-32499Y2700339D01*
G01X-38648Y2702023D01*
G01X-44999Y2702591D01*
G01X-84999Y2702591D01*
G01X-91349Y2702023D01*
G01X-97498Y2700339D01*
G01X-103647Y2702023D01*
G01X-109997Y2702591D01*
G01X-149997Y2702591D01*
G01X-161064Y2700838D01*
G01X-171048Y2695751D01*
G01X-178971Y2687828D01*
G01X-184058Y2677844D01*
G01X-185811Y2666777D01*
G01X-185811Y2649359D01*
G01X-203233Y2658844D01*
G01X-222175Y2664735D01*
G01X-241903Y2666802D01*
G01X-261654Y2664966D01*
G01X-280664Y2659298D01*
G01X-298196Y2650018D01*
G01X-313571Y2637484D01*
G01X-326194Y2622183D01*
G01X-335577Y2604706D01*
G01X-341356Y2585730D01*
G01X-343308Y2565990D01*
G01X-341356Y2546249D01*
G01X-335577Y2527273D01*
G01X-326194Y2509796D01*
G01X-313571Y2494495D01*
G01X-298196Y2481961D01*
G01X-280664Y2472681D01*
G01X-261654Y2467013D01*
G01X-241903Y2465177D01*
G01X-222175Y2467245D01*
G01X-203233Y2473135D01*
G01X-185811Y2482620D01*
G01X-185811Y2466777D01*
G01X-184058Y2455710D01*
G01X-178971Y2445726D01*
G01X-171048Y2437803D01*
G01X-161064Y2432716D01*
G01X-149997Y2430963D01*
G01X-109997Y2430963D01*
G01X-103647Y2431531D01*
G01X-97498Y2433215D01*
G01X-91349Y2431531D01*
G01X-84999Y2430963D01*
G01X-48514Y2430963D01*
G01X-48514Y1020000D01*
G01X-46861Y1007444D01*
G01X-42014Y995743D01*
G01X-34305Y985695D01*
G01X355684Y595707D01*
G01X340957Y591301D01*
G01X327641Y583622D01*
G01X316449Y573084D01*
G01X307985Y560253D01*
G01X302703Y545817D01*
G01X300886Y530553D01*
G01X302633Y515280D01*
G01X307848Y500820D01*
G01X316253Y487950D01*
G01X327396Y477360D01*
G01X340677Y469621D01*
G01X355384Y465147D01*
G01X370725Y464180D01*
G01X385877Y466770D01*
G01X400025Y472780D01*
G01X412410Y481886D01*
G01X419159Y481886D01*
G01X613949Y287096D01*
G01X621437Y280972D01*
G01X629991Y276455D01*
G01X639271Y273725D01*
G01X424159Y58614D01*
G01X133154Y58614D01*
G01X120598Y56961D01*
G01X108897Y52114D01*
G01X98850Y44404D01*
G01X9598Y-44847D01*
G01X1888Y-54895D01*
G01X-2959Y-66596D01*
G01X-4612Y-79152D01*
G01X-4612Y-85446D01*
G01X-13992Y-84196D01*
G01X-38993Y-84196D01*
G01X-46139Y-84916D01*
G01X-52997Y-87047D01*
G01X-59856Y-84916D01*
G01X-67001Y-84196D01*
G01X-92003Y-84196D01*
G01X-99142Y-84915D01*
G01X-105994Y-87042D01*
G01X-112847Y-84915D01*
G01X-119986Y-84196D01*
G01X-144987Y-84196D01*
G01X-152133Y-84916D01*
G01X-158991Y-87047D01*
G01X-165850Y-84916D01*
G01X-172996Y-84196D01*
G01X-197997Y-84196D01*
G01X-209064Y-85949D01*
G01X-219048Y-91036D01*
G01X-226971Y-98959D01*
G01X-232058Y-108943D01*
G01X-233811Y-120010D01*
G01X-233811Y-175616D01*
G01X-234010Y-180010D01*
G01X-234010Y-247101D01*
G01X-249595Y-262686D01*
G01X-357859Y-262686D01*
G01X-374886Y-245659D01*
G01X-374886Y276060D01*
G01X-363609Y266409D01*
G01X-350467Y259507D01*
G01X-336119Y255702D01*
G01X-321284Y255184D01*
G01X-306705Y257978D01*
G01X-293114Y263945D01*
G01X-281190Y272786D01*
G01X-259795Y272786D01*
G01X-234010Y247001D01*
G01X-234010Y180010D01*
G01X-233811Y175616D01*
G01X-233811Y120010D01*
G01X-232058Y108943D01*
G01X-226971Y98959D01*
G01X-219048Y91036D01*
G01X-209064Y85949D01*
G01X-197997Y84196D01*
G01X-172996Y84196D01*
G01X-165850Y84916D01*
G01X-158991Y87047D01*
G01X-152133Y84916D01*
G01X-144987Y84196D01*
G01X-119986Y84196D01*
G01X-112847Y84915D01*
G01X-105994Y87042D01*
G01X-99142Y84915D01*
G01X-92003Y84196D01*
G01X-67001Y84196D01*
G01X-59856Y84916D01*
G01X-52997Y87047D01*
G01X-46139Y84916D01*
G01X-38993Y84196D01*
G01X-13992Y84196D01*
G01X-6853Y84915D01*
G01X0Y87042D01*
G01X6853Y84915D01*
G01X13992Y84196D01*
G01X38993Y84196D01*
G01X46139Y84916D01*
G01X52997Y87047D01*
G01X59856Y84916D01*
G01X67001Y84196D01*
G01X92003Y84196D01*
G01X99148Y84916D01*
G01X106007Y87047D01*
G01X112865Y84916D01*
G01X120011Y84196D01*
G01X145012Y84196D01*
G01X152151Y84915D01*
G01X159004Y87042D01*
G01X165857Y84915D01*
G01X172996Y84196D01*
G01X197997Y84196D01*
G01X208252Y85696D01*
G01X217648Y90069D01*
G01X225399Y96949D01*
G01X230854Y105761D01*
G01X233559Y115766D01*
G01X248483Y113713D01*
G01X263486Y115081D01*
G01X277792Y119801D01*
G01X290665Y127627D01*
G01X301439Y138157D01*
G01X309558Y150847D01*
G01X314603Y165042D01*
G01X316314Y180010D01*
G01X314603Y194977D01*
G01X309558Y209172D01*
G01X301439Y221862D01*
G01X290665Y232392D01*
G01X277792Y240219D01*
G01X263486Y244938D01*
G01X248483Y246307D01*
G01X233559Y244253D01*
G01X230854Y254258D01*
G01X225399Y263070D01*
G01X217648Y269951D01*
G01X208252Y274324D01*
G01X197997Y275824D01*
G01X197293Y275824D01*
G01X198824Y290520D01*
G01X197063Y305190D01*
G01X192097Y319107D01*
G01X184172Y331578D01*
G01X173683Y341985D01*
G01X161150Y349811D01*
G01X147196Y354668D01*
G01X132512Y356314D01*
G01X117828Y354668D01*
G01X103873Y349811D01*
G01X91340Y341985D01*
G01X80851Y331578D01*
G01X72927Y319107D01*
G01X67961Y305190D01*
G01X66200Y290520D01*
G01X67731Y275824D01*
G01X67001Y275824D01*
G01X59856Y275104D01*
G01X52997Y272972D01*
G01X46139Y275104D01*
G01X38993Y275824D01*
G01X18318Y275824D01*
G01X14138Y282972D01*
G01X8805Y289305D01*
G01X4612Y293497D01*
G01X4612Y815948D01*
G01X2959Y828504D01*
G01X-1888Y840205D01*
G01X-9598Y850253D01*
G01X-713449Y1554105D01*
G01X-723497Y1561814D01*
G01X-735198Y1566661D01*
G01X-747754Y1568314D01*
G01X-780690Y1568314D01*
G01X-780690Y1655999D01*
G01X-782442Y1667066D01*
G01X-787529Y1677050D01*
G01X-795453Y1684973D01*
G01X-805436Y1690060D01*
G01X-816504Y1691813D01*
G01X-1104504Y1691813D01*
G01X-1115571Y1690060D01*
G01X-1125555Y1684973D01*
G01X-1133478Y1677050D01*
G01X-1138565Y1667066D01*
G01X-1140318Y1655999D01*
G01X-1140318Y1544000D01*
G01X-1138565Y1532933D01*
G01X-1133478Y1522950D01*
G01X-1125555Y1515026D01*
G01X-1115571Y1509939D01*
G01X-1104504Y1508186D01*
G01X-937300Y1508186D01*
G01X-929113Y1500000D01*
G01X-937300Y1491814D01*
G01X-1104504Y1491814D01*
G01X-1115571Y1490061D01*
G01X-1125555Y1484974D01*
G01X-1133478Y1477051D01*
G01X-1138565Y1467067D01*
G01X-1140318Y1456000D01*
G01X-1140318Y1344001D01*
G01X-1138565Y1332934D01*
G01X-1133478Y1322950D01*
G01X-1125555Y1315027D01*
G01X-1115571Y1309940D01*
G01X-1104504Y1308187D01*
G01X-816504Y1308187D01*
G01X-805436Y1309940D01*
G01X-795453Y1315027D01*
G01X-787529Y1322950D01*
G01X-782442Y1332934D01*
G01X-780690Y1344001D01*
G01X-780690Y1433781D01*
G01X-273863Y926955D01*
G01X-277580Y924096D01*
G01X-289930Y932000D01*
G01X-303715Y936996D01*
G01X-318261Y938842D01*
G01X-332857Y937445D01*
G01X-346790Y932875D01*
G01X-359377Y925355D01*
G01X-370005Y915253D01*
G01X-378152Y903062D01*
G01X-383421Y889379D01*
G01X-385555Y874872D01*
G01X-493305Y767122D01*
G01X-501014Y757074D01*
G01X-505861Y745374D01*
G01X-507514Y732817D01*
G01X-507514Y-280500D01*
G01X-505861Y-293056D01*
G01X-501014Y-304757D01*
G01X-493305Y-314805D01*
G01X-427005Y-381105D01*
G01X-416957Y-388814D01*
G01X-405256Y-393661D01*
G01X-392700Y-395314D01*
G01X-204000Y-395314D01*
G01X-191444Y-393661D01*
G01X-179743Y-388814D01*
G01X-169696Y-381105D01*
G01X-128016Y-339425D01*
G01X-128016Y-733261D01*
G01X-494191Y-1099436D01*
G01X-495321Y-1084621D01*
G01X-499721Y-1070429D01*
G01X-507170Y-1057573D01*
G01X-517295Y-1046698D01*
G01X-529587Y-1038350D01*
G01X-543428Y-1032949D01*
G01X-558125Y-1030766D01*
G01X-655286Y-933605D01*
G01X-655286Y-127500D01*
G01X-656939Y-114944D01*
G01X-661786Y-103243D01*
G01X-669495Y-93196D01*
G01X-829508Y66817D01*
G01X-839555Y74526D01*
G01X-851256Y79373D01*
G01X-863812Y81026D01*
G01X-901381Y81026D01*
G01X-898829Y95145D01*
G01X-900123Y109435D01*
G01X-905171Y122865D01*
G01X-913609Y134470D01*
G01X-924829Y143413D01*
G01X-938023Y149050D01*
G01X-952241Y150975D01*
G01X-956150Y150975D01*
G01X-956150Y221935D01*
G01X-945142Y226566D01*
G01X-936269Y234559D01*
G01X-930517Y245024D01*
G01X-928526Y256800D01*
G01X-928526Y343200D01*
G01X-930279Y354267D01*
G01X-935366Y364251D01*
G01X-943289Y372174D01*
G01X-953273Y377261D01*
G01X-964340Y379014D01*
G01X-1044987Y379014D01*
G01X-1054601Y377700D01*
G01X-1063509Y373853D01*
G01X-1071058Y367756D01*
G01X-1076693Y359856D01*
G01X-1080000Y350734D01*
G01X-1083308Y359856D01*
G01X-1088942Y367756D01*
G01X-1096491Y373853D01*
G01X-1105399Y377700D01*
G01X-1115013Y379014D01*
G01X-1195660Y379014D01*
G01X-1206727Y377261D01*
G01X-1216711Y372174D01*
G01X-1224634Y364251D01*
G01X-1229721Y354267D01*
G01X-1231474Y343200D01*
G01X-1231474Y256800D01*
G01X-1229721Y245732D01*
G01X-1224634Y235749D01*
G01X-1216711Y227825D01*
G01X-1206727Y222738D01*
G01X-1195660Y220986D01*
G01X-1115013Y220986D01*
G01X-1105399Y222300D01*
G01X-1096491Y226147D01*
G01X-1088942Y232244D01*
G01X-1083308Y240144D01*
G01X-1080000Y249266D01*
G01X-1076520Y239819D01*
G01X-1070549Y231714D01*
G01X-1062557Y225592D01*
G01X-1053178Y221935D01*
G01X-1053178Y150975D01*
G01X-1062340Y150975D01*
G01X-1076836Y148972D01*
G01X-1090247Y143114D01*
G01X-1101566Y133839D01*
G01X-1109947Y121842D01*
G01X-1114761Y108022D01*
G01X-1115647Y93414D01*
G01X-1112539Y79114D01*
G01X-1147500Y79114D01*
G01X-1160056Y77461D01*
G01X-1171757Y72614D01*
G01X-1181805Y64904D01*
G01X-1295706Y-48997D01*
G01X-1486809Y-48997D01*
G01X-1484335Y-36338D01*
G01X-1484964Y-23456D01*
G01X-1488660Y-11099D01*
G01X-1495207Y13D01*
G01X-1488252Y12085D01*
G01X-1484651Y25545D01*
G01X-1484651Y39479D01*
G01X-1488252Y52939D01*
G01X-1495207Y65011D01*
G01X-1488547Y76384D01*
G01X-1484871Y89040D01*
G01X-1484403Y102210D01*
G01X-1487170Y115096D01*
G01X-1493006Y126912D01*
G01X-1501555Y136942D01*
G01X-1512298Y144576D01*
G01X-1524582Y149351D01*
G01X-1537660Y150975D01*
G01X-1647759Y150975D01*
G01X-1659476Y149675D01*
G01X-1670624Y145839D01*
G01X-1680660Y139653D01*
G01X-1689096Y131418D01*
G01X-1695522Y121534D01*
G01X-1706766Y131238D01*
G01X-1719887Y138196D01*
G01X-1734228Y142060D01*
G01X-1749069Y142635D01*
G01X-1763666Y139893D01*
G01X-1777286Y133971D01*
G01X-1777286Y586805D01*
G01X-1582396Y781695D01*
G01X-1574686Y791743D01*
G01X-1569839Y803444D01*
G01X-1568186Y816000D01*
G01X-1568186Y1094014D01*
G01X-1140318Y1094014D01*
G01X-1138565Y1082947D01*
G01X-1133478Y1072963D01*
G01X-1125555Y1065040D01*
G01X-1115571Y1059953D01*
G01X-1104504Y1058200D01*
G01X-816504Y1058200D01*
G01X-805436Y1059953D01*
G01X-795453Y1065040D01*
G01X-787529Y1072963D01*
G01X-782442Y1082947D01*
G01X-780690Y1094014D01*
G01X-780690Y1206013D01*
G01X-782442Y1217080D01*
G01X-787529Y1227064D01*
G01X-795453Y1234987D01*
G01X-805436Y1240074D01*
G01X-816504Y1241827D01*
G01X-1104504Y1241827D01*
G01X-1104504Y1241827D01*
G01X-1115571Y1240074D01*
G01X-1125555Y1234987D01*
G01X-1133478Y1227064D01*
G01X-1138565Y1217080D01*
G01X-1140318Y1206013D01*
G01X-1140318Y1094014D01*
G01X-1568186Y1094014D01*
G01X-1568186Y1596605D01*
G01X-1363318Y1801473D01*
G01X-1140318Y1801473D01*
G01X-1140318Y1793987D01*
G01X-1138565Y1782920D01*
G01X-1133478Y1772936D01*
G01X-1125555Y1765013D01*
G01X-1115571Y1759926D01*
G01X-1104504Y1758173D01*
G01X-816504Y1758173D01*
G01X-805436Y1759926D01*
G01X-795453Y1765013D01*
G01X-787529Y1772936D01*
G01X-782442Y1782920D01*
G01X-780690Y1793987D01*
G01X-780690Y1905986D01*
G01X-782442Y1917053D01*
G01X-787529Y1927037D01*
G01X-795453Y1934960D01*
G01X-805436Y1940047D01*
G01X-816504Y1941800D01*
G01X-911990Y1941800D01*
G01X-911990Y2250093D01*
G01X-900918Y2254691D01*
G01X-891985Y2262686D01*
G01X-886190Y2273181D01*
G01X-884184Y2285000D01*
G01X-884184Y2375000D01*
G01X-885937Y2386067D01*
G01X-891024Y2396051D01*
G01X-898947Y2403974D01*
G01X-908931Y2409061D01*
G01X-919998Y2410814D01*
G01X-999997Y2410814D01*
G01X-1011638Y2408869D01*
G01X-1022014Y2403247D01*
G01X-1030000Y2394557D01*
G01X-1037986Y2403247D01*
G01X-1048362Y2408869D01*
G01X-1060002Y2410814D01*
G01X-1140002Y2410814D01*
G01X-1151069Y2409061D01*
G01X-1161053Y2403974D01*
G01X-1168976Y2396051D01*
G01X-1174063Y2386067D01*
G01X-1175816Y2375000D01*
G01X-1175816Y2285000D01*
G01X-1174063Y2273933D01*
G01X-1168976Y2263949D01*
G01X-1161053Y2256026D01*
G01X-1151069Y2250939D01*
G01X-1140002Y2249186D01*
G01X-1060002Y2249186D01*
G01X-1048362Y2251131D01*
G01X-1037986Y2256753D01*
G01X-1030000Y2265443D01*
G01X-1024330Y2258721D01*
G01X-1017192Y2253584D01*
G01X-1009018Y2250341D01*
G01X-1009018Y1941800D01*
G01X-1104504Y1941800D01*
G01X-1115571Y1940047D01*
G01X-1125555Y1934960D01*
G01X-1133478Y1927037D01*
G01X-1138565Y1917053D01*
G01X-1140318Y1905986D01*
G01X-1140318Y1898501D01*
G01X-1383413Y1898501D01*
G01X-1395970Y1896848D01*
G01X-1407670Y1892001D01*
G01X-1417718Y1884291D01*
G01X-1651005Y1651005D01*
G01X-1658714Y1640957D01*
G01X-1663561Y1629256D01*
G01X-1665214Y1616700D01*
G01X-1665214Y836095D01*
G01X-1688437Y812872D01*
G01X-1681722Y831049D01*
G01X-1678802Y850207D01*
G01X-1679796Y869559D01*
G01X-1684664Y888316D01*
G01X-1693207Y905710D01*
G01X-1705074Y921029D01*
G01X-1719782Y933647D01*
G01X-1736727Y943048D01*
G01X-1755217Y948847D01*
G01X-1774496Y950806D01*
G01X-1904496Y950806D01*
G01X-1920530Y949455D01*
G01X-1936112Y945440D01*
G01X-1950802Y938874D01*
G01X-1964186Y929942D01*
G01X-1964186Y2070058D01*
G01X-1950802Y2061126D01*
G01X-1936112Y2054560D01*
G01X-1920530Y2050545D01*
G01X-1904496Y2049194D01*
G01X-1774496Y2049194D01*
G01X-1755804Y2051035D01*
G01X-1737830Y2056487D01*
G01X-1721265Y2065341D01*
G01X-1706746Y2077257D01*
G01X-1694830Y2091776D01*
G01X-1685976Y2108341D01*
G01X-1680523Y2126315D01*
G01X-1678682Y2145008D01*
G01X-1680523Y2163700D01*
G01X-1685976Y2181674D01*
G01X-1694830Y2198239D01*
G01X-1706746Y2212758D01*
G01X-1721265Y2224674D01*
G01X-1737830Y2233528D01*
G01X-1755804Y2238980D01*
G01X-1774496Y2240822D01*
G01X-1904496Y2240822D01*
G01X-1920530Y2239470D01*
G01X-1936112Y2235455D01*
G01X-1950802Y2228889D01*
G01X-1964186Y2219957D01*
G01X-1964186Y2700000D01*
G01X-1877235Y2700000D01*
G01X-1875256Y2673584D01*
G01X-1869361Y2647759D01*
G01X-1859683Y2623100D01*
G01X-1846439Y2600160D01*
G01X-1829923Y2579449D01*
G01X-1810504Y2561432D01*
G01X-1788618Y2546510D01*
G01X-1764751Y2535016D01*
G01X-1739438Y2527208D01*
G01X-1713245Y2523260D01*
G01X-1686755Y2523260D01*
G01X-1660561Y2527208D01*
G01X-1635249Y2535016D01*
G01X-1611382Y2546510D01*
G01X-1589495Y2561432D01*
G01X-1570077Y2579449D01*
G01X-1553561Y2600160D01*
G01X-1540316Y2623100D01*
G01X-1530639Y2647759D01*
G01X-1524744Y2673584D01*
G01X-1522765Y2700000D01*
G01X-1524744Y2726415D01*
G01X-1530639Y2752241D01*
G01X-1540316Y2776899D01*
G01X-1553561Y2799840D01*
G01X-1570077Y2820551D01*
G01X-1589495Y2838568D01*
G01X-1611382Y2853490D01*
G01X-1622845Y2859010D01*
G01X-463297Y2859010D01*
G01X-463297Y2809010D01*
G01X-461360Y2789343D01*
G01X-455623Y2770431D01*
G01X-446307Y2753001D01*
G01X-433770Y2737724D01*
G01X-418493Y2725187D01*
G01X-401063Y2715871D01*
G01X-382151Y2710134D01*
G01X-362483Y2708197D01*
G01X-342816Y2710134D01*
G01X-323904Y2715871D01*
G01X-306474Y2725187D01*
G01X-291197Y2737724D01*
G01X-278660Y2753001D01*
G01X-269344Y2770431D01*
G01X-263607Y2789343D01*
G01X-261670Y2809010D01*
G01X-261670Y2809010D01*
G01X-261670Y2859010D01*
G01X261670Y2859010D01*
G01X261670Y2809010D01*
G01X263607Y2789343D01*
G01X269344Y2770431D01*
G01X278660Y2753001D01*
G01X291197Y2737724D01*
G01X306474Y2725187D01*
G01X323904Y2715871D01*
G01X342816Y2710134D01*
G01X362483Y2708197D01*
G01X382151Y2710134D01*
G01X401063Y2715871D01*
G01X418493Y2725187D01*
G01X433770Y2737724D01*
G01X446307Y2753001D01*
G01X455623Y2770431D01*
G01X461360Y2789343D01*
G01X463297Y2809010D01*
G01X463297Y2809010D01*
G01X463297Y2859010D01*
G01X461360Y2878678D01*
G01X455623Y2897590D01*
G01X446307Y2915019D01*
G01X433770Y2930296D01*
G01X418493Y2942834D01*
G01X401063Y2952150D01*
G01X382151Y2957887D01*
G01X362483Y2959824D01*
G01X342816Y2957887D01*
G01X323904Y2952150D01*
G01X306474Y2942834D01*
G01X291197Y2930296D01*
G01X278660Y2915019D01*
G01X269344Y2897590D01*
G01X263607Y2878678D01*
G01X261670Y2859010D01*
G01X-261670Y2859010D01*
G01X-263607Y2878678D01*
G01X-269344Y2897590D01*
G01X-278660Y2915019D01*
G01X-291197Y2930296D01*
G01X-306474Y2942834D01*
G01X-323904Y2952150D01*
G01X-342816Y2957887D01*
G01X-362483Y2959824D01*
G01X-382151Y2957887D01*
G01X-401063Y2952150D01*
G01X-418493Y2942834D01*
G01X-433770Y2930296D01*
G01X-446307Y2915019D01*
G01X-455623Y2897590D01*
G01X-461360Y2878678D01*
G01X-463297Y2859010D01*
G01X-1622845Y2859010D01*
G01X-1635249Y2864984D01*
G01X-1660561Y2872792D01*
G01X-1686755Y2876740D01*
G01X-1713245Y2876740D01*
G01X-1739438Y2872792D01*
G01X-1764751Y2864984D01*
G01X-1788618Y2853490D01*
G01X-1810504Y2838568D01*
G01X-1829923Y2820551D01*
G01X-1846439Y2799840D01*
G01X-1859683Y2776899D01*
G01X-1869361Y2752241D01*
G01X-1875256Y2726415D01*
G01X-1877235Y2700000D01*
G01X-1877235Y2700000D01*
G01X-1964186Y2700000D01*
G01X-1964186Y2964186D01*
G01X1964186Y2964186D01*
G37*
G36*
G01X-1964186Y-780043D02*
G01X-1964186Y780043D01*
G01X-1950802Y771111D01*
G01X-1936112Y764545D01*
G01X-1920530Y760530D01*
G01X-1904496Y759179D01*
G01X-1774496Y759179D01*
G01X-1760015Y760279D01*
G01X-1745866Y763556D01*
G01X-1732376Y768933D01*
G01X-1860105Y641205D01*
G01X-1867814Y631157D01*
G01X-1872661Y619456D01*
G01X-1874314Y606900D01*
G01X-1874314Y61200D01*
G01X-1872661Y48644D01*
G01X-1867814Y36943D01*
G01X-1860105Y26895D01*
G01X-1797509Y-35700D01*
G01X-1860105Y-98295D01*
G01X-1867814Y-108343D01*
G01X-1872661Y-120044D01*
G01X-1874314Y-132600D01*
G01X-1874314Y-606900D01*
G01X-1872661Y-619456D01*
G01X-1867814Y-631157D01*
G01X-1860105Y-641205D01*
G01X-1732376Y-768933D01*
G01X-1745866Y-763556D01*
G01X-1760015Y-760279D01*
G01X-1774496Y-759179D01*
G01X-1904496Y-759179D01*
G01X-1920530Y-760530D01*
G01X-1936112Y-764545D01*
G01X-1950802Y-771111D01*
G01X-1964186Y-780043D01*
G37*
G36*
G01X708583Y155474D02*
G01X1259678Y155474D01*
G01X1259125Y140598D01*
G01X1261904Y125974D01*
G01X1267875Y112338D01*
G01X1276737Y100377D01*
G01X1276737Y95794D01*
G01X1276679Y93763D01*
G01X1276679Y71907D01*
G01X1276679Y63119D01*
G01X1276679Y49834D01*
G01X1272373Y48514D01*
G01X1085643Y48514D01*
G01X1083089Y58708D01*
G01X1077685Y67722D01*
G01X1069898Y74779D01*
G01X1060398Y79272D01*
G01X1050002Y80814D01*
G01X970002Y80814D01*
G01X958362Y78869D01*
G01X947986Y73247D01*
G01X940000Y64557D01*
G01X932014Y73247D01*
G01X921638Y78869D01*
G01X909997Y80814D01*
G01X829998Y80814D01*
G01X818930Y79061D01*
G01X808947Y73974D01*
G01X801023Y66051D01*
G01X795936Y56067D01*
G01X794184Y45000D01*
G01X794184Y-45000D01*
G01X795936Y-56067D01*
G01X801023Y-66051D01*
G01X808947Y-73974D01*
G01X818930Y-79061D01*
G01X829998Y-80814D01*
G01X909997Y-80814D01*
G01X921638Y-78869D01*
G01X932014Y-73247D01*
G01X940000Y-64557D01*
G01X945798Y-71396D01*
G01X953113Y-76581D01*
G01X961486Y-79787D01*
G01X961486Y-84790D01*
G01X952388Y-97161D01*
G01X946379Y-111294D01*
G01X943782Y-126429D01*
G01X944736Y-141756D01*
G01X949190Y-156453D01*
G01X956906Y-169731D01*
G01X967468Y-180878D01*
G01X980311Y-189297D01*
G01X994747Y-194536D01*
G01X1010000Y-196314D01*
G01X1025253Y-194536D01*
G01X1039689Y-189297D01*
G01X1052532Y-180878D01*
G01X1063095Y-169731D01*
G01X1070810Y-156453D01*
G01X1075264Y-141756D01*
G01X1076218Y-126429D01*
G01X1073621Y-111294D01*
G01X1067612Y-97161D01*
G01X1058514Y-84790D01*
G01X1058514Y-79788D01*
G01X1068664Y-75568D01*
G01X1077056Y-68468D01*
G01X1082899Y-59158D01*
G01X1085643Y-48514D01*
G01X1272373Y-48514D01*
G01X1276679Y-49834D01*
G01X1276679Y-63119D01*
G01X1276679Y-71907D01*
G01X1276679Y-93763D01*
G01X1277769Y-102530D01*
G01X1280971Y-110763D01*
G01X1286092Y-117962D01*
G01X1286092Y-134499D01*
G01X40689Y-1379902D01*
G01X32979Y-1389949D01*
G01X28133Y-1401650D01*
G01X26480Y-1414206D01*
G01X26480Y-1457213D01*
G01X12469Y-1456055D01*
G01X-1470Y-1457876D01*
G01X-14712Y-1462595D01*
G01X-26662Y-1469999D01*
G01X-36783Y-1479756D01*
G01X-44619Y-1491426D01*
G01X-49820Y-1504487D01*
G01X-52150Y-1518350D01*
G01X-51506Y-1532393D01*
G01X-47916Y-1545985D01*
G01X-41542Y-1558515D01*
G01X-32669Y-1569419D01*
G01X-21698Y-1578208D01*
G01X-9120Y-1584487D01*
G01X-9120Y-2231083D01*
G01X-51563Y-2231083D01*
G01X-58444Y-2231574D01*
G01X-63162Y-2219294D01*
G01X-70211Y-2208188D01*
G01X-79313Y-2198691D01*
G01X-90111Y-2191178D01*
G01X-102180Y-2185944D01*
G01X-115044Y-2183195D01*
G01X-128198Y-2183040D01*
G01X-141123Y-2185484D01*
G01X-153312Y-2190431D01*
G01X-164285Y-2197687D01*
G01X-164184Y-2195000D01*
G01X-164184Y-2105000D01*
G01X-166147Y-2093304D01*
G01X-171823Y-2082890D01*
G01X-180589Y-2074901D01*
G01X-191483Y-2070213D01*
G01X-191483Y-2049787D01*
G01X-180589Y-2045099D01*
G01X-171823Y-2037110D01*
G01X-166147Y-2026696D01*
G01X-164184Y-2015000D01*
G01X-164184Y-1925000D01*
G01X-166147Y-1913304D01*
G01X-171823Y-1902890D01*
G01X-180589Y-1894901D01*
G01X-191483Y-1890213D01*
G01X-191483Y-1407302D01*
G01X-193137Y-1394746D01*
G01X-197983Y-1383045D01*
G01X-205693Y-1372998D01*
G01X-326427Y-1252264D01*
G01X-328627Y-1237506D01*
G01X-334071Y-1223614D01*
G01X-342483Y-1211290D01*
G01X-353437Y-1201159D01*
G01X-366379Y-1193733D01*
G01X-380653Y-1189389D01*
G01X-395537Y-1188347D01*
G01X-9598Y-802407D01*
G01X-1888Y-792359D01*
G01X2959Y-780658D01*
G01X4612Y-768102D01*
G01X4612Y-293497D01*
G01X8805Y-289305D01*
G01X14138Y-282972D01*
G01X18318Y-275824D01*
G01X38993Y-275824D01*
G01X46139Y-275104D01*
G01X52997Y-272972D01*
G01X59856Y-275104D01*
G01X67001Y-275824D01*
G01X67731Y-275824D01*
G01X66220Y-291721D01*
G01X68554Y-307519D01*
G01X74597Y-322301D01*
G01X83998Y-335210D01*
G01X83998Y-933693D01*
G01X-116995Y-1134686D01*
G01X-179190Y-1134686D01*
G01X-191561Y-1125588D01*
G01X-205694Y-1119579D01*
G01X-220829Y-1116982D01*
G01X-236156Y-1117936D01*
G01X-250853Y-1122390D01*
G01X-264131Y-1130106D01*
G01X-275278Y-1140668D01*
G01X-283697Y-1153511D01*
G01X-288936Y-1167947D01*
G01X-290714Y-1183200D01*
G01X-288936Y-1198453D01*
G01X-283697Y-1212889D01*
G01X-275278Y-1225732D01*
G01X-264131Y-1236295D01*
G01X-250853Y-1244010D01*
G01X-236156Y-1248464D01*
G01X-220829Y-1249418D01*
G01X-205694Y-1246821D01*
G01X-191561Y-1240812D01*
G01X-179190Y-1231714D01*
G01X-96900Y-1231714D01*
G01X-84344Y-1230061D01*
G01X-72643Y-1225214D01*
G01X-62595Y-1217505D01*
G01X166816Y-988093D01*
G01X174526Y-978045D01*
G01X179373Y-966345D01*
G01X181026Y-953788D01*
G01X181026Y-335210D01*
G01X190427Y-322301D01*
G01X196470Y-307519D01*
G01X198804Y-291721D01*
G01X197293Y-275824D01*
G01X197997Y-275824D01*
G01X209064Y-274071D01*
G01X219048Y-268984D01*
G01X226971Y-261061D01*
G01X232058Y-251077D01*
G01X233811Y-240010D01*
G01X233811Y-120010D01*
G01X232058Y-108943D01*
G01X226971Y-98959D01*
G01X219048Y-91036D01*
G01X209064Y-85949D01*
G01X197997Y-84196D01*
G01X172996Y-84196D01*
G01X165857Y-84915D01*
G01X159004Y-87042D01*
G01X156065Y-85944D01*
G01X167995Y-74014D01*
G01X459000Y-74014D01*
G01X471556Y-72361D01*
G01X483257Y-67514D01*
G01X493305Y-59805D01*
G01X708583Y155474D01*
G37*
G36*
G01X-322442Y746904D02*
G01X-312892Y746904D01*
G01X-300336Y748557D01*
G01X-288635Y753403D01*
G01X-278588Y761113D01*
G01X-232976Y806725D01*
G01X-218006Y808982D01*
G01X-203938Y814575D01*
G01X-191505Y823213D01*
G01X-181355Y834446D01*
G01X-128016Y781107D01*
G01X-128016Y328571D01*
G01X-190650Y391205D01*
G01X-200697Y398914D01*
G01X-212398Y403761D01*
G01X-224954Y405414D01*
G01X-259314Y405414D01*
G01X-260748Y406847D01*
G01X-264487Y421255D01*
G01X-271345Y434467D01*
G01X-280977Y445815D01*
G01X-292898Y454729D01*
G01X-306507Y460760D01*
G01X-321118Y463604D01*
G01X-335995Y463117D01*
G01X-350389Y459323D01*
G01X-363574Y452415D01*
G01X-374886Y442740D01*
G01X-374886Y694459D01*
G01X-322442Y746904D01*
G37*
G36*
G01X199058Y-1498808D02*
G01X205320Y-1485809D01*
G01X208622Y-1471763D01*
G01X208808Y-1457335D01*
G01X205869Y-1443209D01*
G01X199944Y-1430053D01*
G01X191314Y-1418490D01*
G01X191314Y-1416841D01*
G01X1404510Y-203645D01*
G01X1409372Y-197969D01*
G01X1413304Y-191614D01*
G01X1450045Y-228354D01*
G01X1458068Y-234828D01*
G01X1467277Y-239461D01*
G01X1477258Y-242043D01*
G01X1476477Y-250114D01*
G01X205693Y-1520898D01*
G01X197983Y-1530946D01*
G01X193137Y-1542646D01*
G01X191483Y-1555203D01*
G01X191483Y-1870213D01*
G01X180589Y-1874901D01*
G01X171823Y-1882890D01*
G01X166147Y-1893304D01*
G01X164184Y-1905000D01*
G01X164184Y-1995000D01*
G01X166147Y-2006696D01*
G01X171823Y-2017110D01*
G01X180589Y-2025099D01*
G01X191483Y-2029787D01*
G01X191483Y-2050213D01*
G01X180589Y-2054901D01*
G01X171823Y-2062890D01*
G01X166147Y-2073304D01*
G01X164184Y-2085000D01*
G01X164184Y-2175000D01*
G01X165211Y-2183515D01*
G01X153297Y-2186444D01*
G01X142127Y-2191518D01*
G01X132082Y-2198563D01*
G01X123508Y-2207337D01*
G01X123508Y-1527146D01*
G01X137687Y-1529817D01*
G01X152108Y-1529357D01*
G01X166089Y-1525790D01*
G01X178967Y-1519283D01*
G01X190133Y-1510145D01*
G01X199058Y-1498808D01*
G37*
G36*
G01X1378815Y5450D02*
G01X1387507Y5450D01*
G01X1393854Y6016D01*
G01X1400000Y7699D01*
G01X1406146Y6016D01*
G01X1412493Y5450D01*
G01X1421185Y5450D01*
G01X1421185Y-5450D01*
G01X1412493Y-5450D01*
G01X1406146Y-6016D01*
G01X1400000Y-7699D01*
G01X1393854Y-6016D01*
G01X1387507Y-5450D01*
G01X1378815Y-5450D01*
G01X1378815Y5450D01*
G37*
G36*
G01X1550814Y-15000D02*
G01X1550814Y15000D01*
G01X1548834Y26743D01*
G01X1543113Y37188D01*
G01X1534283Y45180D01*
G01X1523321Y49834D01*
G01X1523321Y93763D01*
G01X1521568Y104830D01*
G01X1516481Y114814D01*
G01X1508558Y122737D01*
G01X1498574Y127824D01*
G01X1487507Y129577D01*
G01X1467765Y129577D01*
G01X1467765Y184524D01*
G01X1466112Y197080D01*
G01X1461265Y208781D01*
G01X1453555Y218828D01*
G01X1399498Y272886D01*
G01X1535305Y272886D01*
G01X1573386Y234805D01*
G01X1573386Y-107959D01*
G01X1571409Y-109936D01*
G01X1540245Y-109936D01*
G01X1523520Y-93211D01*
G01X1523520Y-67513D01*
G01X1523321Y-63119D01*
G01X1523321Y-49834D01*
G01X1534283Y-45180D01*
G01X1543113Y-37188D01*
G01X1548834Y-26743D01*
G01X1550814Y-15000D01*
G37*
G54D10*
G01X1964186Y2964186D02*
G01X1964186Y2219957D01*
G03X1904496Y2240822I-59690J-74950D01*
G01X1774496Y2240822D01*
G03X1774496Y2049194I0J-95814D01*
G01X1904496Y2049194D01*
G03X1964186Y2070058I0J95814D01*
G01X1964186Y929942D01*
G03X1904496Y950806I-59690J-74950D01*
G01X1774496Y950806D01*
G03X1774496Y759179I0J-95814D01*
G01X1904496Y759179D01*
G03X1964186Y780043I0J95814D01*
G01X1964186Y-780043D01*
G03X1904496Y-759179I-59690J-74950D01*
G01X1774496Y-759179D01*
G03X1774496Y-950806I0J-95814D01*
G01X1904496Y-950806D01*
G03X1964186Y-929942I0J95814D01*
G01X1964186Y-2070058D01*
G03X1904496Y-2049194I-59690J-74950D01*
G01X1774496Y-2049194D01*
G03X1774496Y-2240822I0J-95814D01*
G01X1904496Y-2240822D01*
G03X1964186Y-2219957I0J95814D01*
G01X1964186Y-2964186D01*
G01X-1964186Y-2964186D01*
G01X-1964186Y-2219957D01*
G03X-1904496Y-2240822I59690J74949D01*
G01X-1774496Y-2240822D01*
G03X-1774496Y-2049194I0J95814D01*
G01X-1904496Y-2049194D01*
G03X-1964186Y-2070058I0J-95814D01*
G01X-1964186Y-929942D01*
G03X-1904496Y-950806I59690J74949D01*
G01X-1774496Y-950806D01*
G03X-1688437Y-812872I0J95814D01*
G01X-1309305Y-1192005D01*
G03X-1275000Y-1206214I34305J34305D01*
G01X-1140317Y-1206214D01*
G03X-1104504Y-1241827I35813J201D01*
G01X-816504Y-1241827D01*
G03X-780690Y-1206013I0J35814D01*
G01X-780690Y-1094014D01*
G03X-816504Y-1058200I-35814J0D01*
G01X-911484Y-1058200D01*
G01X-911484Y-759787D01*
G03X-884230Y-726814I-8514J34787D01*
G01X-876510Y-726814D01*
G03X-764986Y-678300I45210J48514D01*
G03X-876510Y-629786I-66314J0D01*
G01X-884565Y-629786D01*
G03X-919998Y-599186I-35432J-5214D01*
G01X-999997Y-599186D01*
G03X-1030000Y-615443I0J-35814D01*
G03X-1060002Y-599186I-30002J-19557D01*
G01X-1140002Y-599186D01*
G03X-1175816Y-635000I0J-35814D01*
G01X-1175816Y-725000D01*
G03X-1140002Y-760814I35814J0D01*
G01X-1060002Y-760814D01*
G03X-1030000Y-744557I0J35814D01*
G03X-1008512Y-759787I30002J19557D01*
G01X-1008512Y-1058200D01*
G01X-1104504Y-1058200D01*
G03X-1140318Y-1094014I0J-35814D01*
G01X-1140318Y-1109186D01*
G01X-1254905Y-1109186D01*
G01X-1777286Y-586805D01*
G01X-1777286Y-152695D01*
G01X-1708805Y-84214D01*
G01X-1699544Y-84214D01*
G03X-1647759Y-150975I51785J-13297D01*
G01X-1537660Y-150975D01*
G03X-1515191Y-146025I0J53464D01*
G01X-1275611Y-146025D01*
G03X-1241306Y-131815I0J48514D01*
G01X-1127405Y-17914D01*
G01X-1113780Y-17914D01*
G03X-1104783Y-64999I51440J-14572D01*
G03X-1062340Y-150975I42443J-32512D01*
G01X-952241Y-150975D01*
G03X-909798Y-64999I0J53464D01*
G03X-901381Y-16002I-42443J32512D01*
G01X-883907Y-16002D01*
G01X-752314Y-147595D01*
G01X-752314Y-953700D01*
G03X-738105Y-988005I48514J0D01*
G01X-626735Y-1099375D01*
G03X-558064Y-1163309I66273J2336D01*
G01X-780690Y-1385935D01*
G01X-780690Y-1344001D01*
G03X-816504Y-1308187I-35814J0D01*
G01X-1104504Y-1308187D01*
G03X-1140318Y-1344001I0J-35814D01*
G01X-1140318Y-1456000D01*
G03X-1104504Y-1491814I35814J0D01*
G01X-937300Y-1491814D01*
G01X-929113Y-1500000D01*
G01X-937300Y-1508186D01*
G01X-1104504Y-1508186D01*
G03X-1140318Y-1544000I0J-35814D01*
G01X-1140318Y-1655999D01*
G03X-1104504Y-1691813I35814J0D01*
G01X-816504Y-1691813D01*
G03X-780690Y-1655999I0J35814D01*
G01X-780690Y-1565966D01*
G03X-761295Y-1554105I-14910J46166D01*
G01X-458953Y-1251763D01*
G03X-441385Y-1299626I66253J-2837D01*
G03X-395036Y-1320873I48685J45026D01*
G01X-288511Y-1427398D01*
G01X-288511Y-1890213D01*
G03X-310000Y-1905443I8514J-34787D01*
G03X-340002Y-1889186I-30002J-19557D01*
G01X-420002Y-1889186D01*
G03X-455816Y-1925000I0J-35814D01*
G01X-455816Y-2015000D01*
G03X-420002Y-2050814I35814J0D01*
G01X-340002Y-2050814D01*
G03X-310000Y-2034557I0J35814D01*
G03X-288511Y-2049787I30002J19557D01*
G01X-288511Y-2070213D01*
G03X-310000Y-2085443I8514J-34787D01*
G03X-340002Y-2069186I-30002J-19557D01*
G01X-420002Y-2069186D01*
G03X-455816Y-2105000I0J-35814D01*
G01X-455816Y-2195000D01*
G03X-420002Y-2230814I35814J0D01*
G01X-340002Y-2230814D01*
G03X-310000Y-2214557I0J35814D01*
G03X-288506Y-2229789I30002J19557D01*
G01X-288506Y-2271907D01*
G03X-292501Y-2271683I-3995J-35590D01*
G01X-347502Y-2271683D01*
G03X-381789Y-2297151I0J-35814D01*
G03X-523312Y-2372488I-50709J-75338D01*
G01X-523312Y-2462488D01*
G03X-351299Y-2503155I90814J0D01*
G03X-283581Y-2540116I62311J33648D01*
G03X-222281Y-2493275I-5407J70608D01*
G01X-200255Y-2515302D01*
G03X-165950Y-2529511I34305J34305D01*
G01X165975Y-2529511D01*
G03X200280Y-2515302I0J48514D01*
G01X222306Y-2493275D01*
G03X283593Y-2540115I66707J23768D01*
G03X351311Y-2503180I5421J70607D01*
G03X523312Y-2462488I81187J40692D01*
G01X523312Y-2372488D01*
G03X381789Y-2297151I-90814J0D01*
G03X347502Y-2271683I-34287J-10347D01*
G01X292501Y-2271683D01*
G03X288531Y-2271904I0J-35814D01*
G01X288531Y-2209782D01*
G03X310000Y-2194557I-8534J34782D01*
G03X340002Y-2210814I30002J19557D01*
G01X420002Y-2210814D01*
G03X455816Y-2175000I0J35814D01*
G01X455816Y-2085000D01*
G03X420002Y-2049186I-35814J0D01*
G01X340002Y-2049186D01*
G03X310000Y-2065443I0J-35814D01*
G03X288511Y-2050213I-30002J-19557D01*
G01X288511Y-2029787D01*
G03X310000Y-2014557I-8514J34787D01*
G03X340002Y-2030814I30002J19557D01*
G01X420002Y-2030814D01*
G03X455816Y-1995000I0J35814D01*
G01X455816Y-1905000D01*
G03X420002Y-1869186I-35814J0D01*
G01X340002Y-1869186D01*
G03X310000Y-1885443I0J-35814D01*
G03X288511Y-1870213I-30002J-19557D01*
G01X288511Y-1575298D01*
G01X783356Y-1080453D01*
G03X780690Y-1094014I33147J-13561D01*
G01X780690Y-1206013D01*
G03X816504Y-1241827I35814J0D01*
G01X1104504Y-1241827D01*
G03X1140318Y-1206013I0J35814D01*
G01X1140318Y-1094014D01*
G03X1104504Y-1058200I-35814J0D01*
G01X816504Y-1058200D01*
G03X802942Y-1060867I0J-35814D01*
G01X1545086Y-318723D01*
G03X1608316Y-242520I-2336J66273D01*
G03X1640555Y-228355I-2066J48470D01*
G01X1691805Y-177105D01*
G03X1706014Y-142800I-34304J34305D01*
G01X1706014Y269646D01*
G03X1691805Y303951I-48514J0D01*
G01X1604450Y391305D01*
G03X1570146Y405514I-34305J-34305D01*
G01X683095Y405514D01*
G01X460316Y628294D01*
G03X508152Y723180I-11516J65307D01*
G03X403590Y742114I-59352J-29580D01*
G01X396841Y742114D01*
G01X199631Y939324D01*
G03X274580Y986733I11115J65376D01*
G03X335795Y1042513I-4279J66176D01*
G03X294860Y1114507I-65494J10395D01*
G01X294860Y1206105D01*
G01X524441Y1435686D01*
G01X780690Y1435686D01*
G01X780690Y1344001D01*
G03X816504Y1308187I35814J0D01*
G01X1104504Y1308187D01*
G03X1140318Y1344001I0J35814D01*
G01X1140318Y1456000D01*
G03X1104504Y1491814I-35814J0D01*
G01X937300Y1491814D01*
G01X929113Y1500000D01*
G01X937300Y1508186D01*
G01X1104504Y1508186D01*
G03X1140318Y1544000I0J35814D01*
G01X1140318Y1655999D01*
G03X1104504Y1691813I-35814J0D01*
G01X816504Y1691813D01*
G03X780690Y1655999I0J-35814D01*
G01X780690Y1568314D01*
G01X489600Y1568314D01*
G03X455295Y1554105I0J-48514D01*
G01X176441Y1275251D01*
G03X162232Y1240946I34305J-34305D01*
G01X162232Y1049910D01*
G03X145370Y993585I48514J-45210D01*
G01X84114Y1054841D01*
G01X84114Y2404244D01*
G03X95693Y2385698I45883J15758D01*
G01X155695Y2325696D01*
G03X190000Y2311486I34305J34305D01*
G01X480000Y2311486D01*
G03X514305Y2325696I0J48514D01*
G01X574305Y2385695D01*
G03X588514Y2420000I-34305J34305D01*
G01X588515Y2484365D01*
G03X619788Y2511493I-3513J35641D01*
G01X660214Y2511493D01*
G03X695001Y2484193I34787J8514D01*
G01X785001Y2484193D01*
G03X819835Y2511686I0J35814D01*
G01X852390Y2511686D01*
G03X963914Y2560200I45210J48514D01*
G03X852390Y2608714I-66314J0D01*
G01X819741Y2608714D01*
G03X804559Y2630009I-34739J-8708D01*
G03X820815Y2660011I-19557J30002D01*
G01X820815Y2740011D01*
G03X785001Y2775825I-35814J0D01*
G01X695001Y2775825D01*
G03X659187Y2740011I0J-35814D01*
G01X659187Y2660011D01*
G03X675444Y2630009I35814J0D01*
G03X660214Y2608521I19557J-30002D01*
G01X619788Y2608521D01*
G03X604559Y2630009I-34787J-8514D01*
G03X620815Y2660011I-19557J30002D01*
G01X620815Y2740011D01*
G03X585001Y2775825I-35814J0D01*
G01X495001Y2775825D01*
G03X459187Y2740011I0J-35814D01*
G01X459187Y2660011D01*
G03X475444Y2630009I35814J0D01*
G03X459187Y2600006I19557J-30002D01*
G01X459187Y2520007D01*
G03X491487Y2484366I35814J0D01*
G01X491486Y2440095D01*
G01X459905Y2408514D01*
G01X210095Y2408514D01*
G01X178511Y2440098D01*
G01X178511Y2445107D01*
G03X185811Y2466777I-28514J21670D01*
G01X185811Y2482620D01*
G03X343308Y2565990I56683J83370D01*
G03X185811Y2649359I-100814J0D01*
G01X185811Y2666777D01*
G03X149997Y2702591I-35814J0D01*
G01X109997Y2702591D01*
G03X97498Y2700339I0J-35814D01*
G03X84999Y2702591I-12499J-33562D01*
G01X44999Y2702591D01*
G03X32499Y2700339I0J-35814D01*
G03X20000Y2702591I-12499J-33562D01*
G01X-20000Y2702591D01*
G03X-32499Y2700339I0J-35814D01*
G03X-44999Y2702591I-12499J-33562D01*
G01X-84999Y2702591D01*
G03X-97498Y2700339I0J-35814D01*
G03X-109997Y2702591I-12499J-33562D01*
G01X-149997Y2702591D01*
G03X-185811Y2666777I0J-35814D01*
G01X-185811Y2649359D01*
G03X-343308Y2565990I-56683J-83370D01*
G03X-185811Y2482620I100814J0D01*
G01X-185811Y2466777D01*
G03X-149997Y2430963I35814J0D01*
G01X-109997Y2430963D01*
G03X-97498Y2433215I0J35814D01*
G03X-84999Y2430963I12499J33562D01*
G01X-48514Y2430963D01*
G01X-48514Y1020000D01*
G03X-34305Y985695I48514J0D01*
G01X355684Y595707D01*
G03X307848Y500820I11516J-65307D01*
G03X412410Y481886I59352J29580D01*
G01X419159Y481886D01*
G01X613949Y287096D01*
G03X639271Y273725I34305J34305D01*
G01X424159Y58614D01*
G01X133154Y58614D01*
G03X98850Y44404I0J-48514D01*
G01X9598Y-44847D01*
G03X-4612Y-79152I34305J-34305D01*
G01X-4612Y-85446D01*
G03X-13992Y-84196I-9380J-34564D01*
G01X-38993Y-84196D01*
G03X-52997Y-87047I0J-35814D01*
G03X-67001Y-84196I-14004J-32962D01*
G01X-92003Y-84196D01*
G03X-105994Y-87042I0J-35814D01*
G03X-119986Y-84196I-13992J-32968D01*
G01X-144987Y-84196D01*
G03X-158991Y-87047I0J-35814D01*
G03X-172996Y-84196I-14004J-32962D01*
G01X-197997Y-84196D01*
G03X-233811Y-120010I0J-35814D01*
G01X-233811Y-175616D01*
G03X-234010Y-180010I48315J-4394D01*
G01X-234010Y-247101D01*
G01X-249595Y-262686D01*
G01X-357859Y-262686D01*
G01X-374886Y-245659D01*
G01X-374886Y276060D01*
G03X-281190Y272786I48486J45240D01*
G01X-259795Y272786D01*
G01X-234010Y247001D01*
G01X-234010Y180010D01*
G03X-233811Y175616I48514J0D01*
G01X-233811Y120010D01*
G03X-197997Y84196I35814J0D01*
G01X-172996Y84196D01*
G03X-158991Y87047I0J35814D01*
G03X-144987Y84196I14004J32962D01*
G01X-119986Y84196D01*
G03X-105994Y87042I0J35814D01*
G03X-92003Y84196I13992J32968D01*
G01X-67001Y84196D01*
G03X-52997Y87047I0J35814D01*
G03X-38993Y84196I14004J32962D01*
G01X-13992Y84196D01*
G03X0Y87042I0J35814D01*
G03X13992Y84196I13992J32968D01*
G01X38993Y84196D01*
G03X52997Y87047I0J35814D01*
G03X67001Y84196I14004J32962D01*
G01X92003Y84196D01*
G03X106007Y87047I0J35814D01*
G03X120011Y84196I14004J32962D01*
G01X145012Y84196D01*
G03X159004Y87042I0J35814D01*
G03X172996Y84196I13992J32968D01*
G01X197997Y84196D01*
G03X233559Y115766I0J35814D01*
G03X316314Y180010I16442J64244D01*
G03X233559Y244253I-66314J0D01*
G03X197997Y275824I-35562J-4244D01*
G01X197293Y275824D01*
G03X132512Y356314I-64781J14176D01*
G03X67731Y275824I0J-66314D01*
G01X67001Y275824D01*
G03X52997Y272972I0J-35814D01*
G03X38993Y275824I-14004J-32962D01*
G01X18318Y275824D01*
G03X8805Y289305I-43818J-20824D01*
G01X4612Y293497D01*
G01X4612Y815948D01*
G03X-9598Y850253I-48514J0D01*
G01X-713449Y1554105D01*
G03X-747754Y1568314I-34305J-34305D01*
G01X-780690Y1568314D01*
G01X-780690Y1655999D01*
G03X-816504Y1691813I-35814J0D01*
G01X-1104504Y1691813D01*
G03X-1140318Y1655999I0J-35814D01*
G01X-1140318Y1544000D01*
G03X-1104504Y1508186I35814J0D01*
G01X-937300Y1508186D01*
G01X-929113Y1500000D01*
G01X-937300Y1491814D01*
G01X-1104504Y1491814D01*
G03X-1140318Y1456000I0J-35814D01*
G01X-1140318Y1344001D01*
G03X-1104504Y1308187I35814J0D01*
G01X-816504Y1308187D01*
G03X-780690Y1344001I0J35814D01*
G01X-780690Y1433781D01*
G01X-273863Y926955D01*
G03X-277580Y924096I38551J-53957D01*
G03X-346790Y932875I-41703J-51560D01*
G03X-385555Y874872I27508J-60340D01*
G01X-493305Y767122D01*
G03X-507514Y732817I34305J-34305D01*
G01X-507514Y-280500D01*
G03X-493305Y-314805I48514J0D01*
G01X-427005Y-381105D01*
G03X-392700Y-395314I34305J34305D01*
G01X-204000Y-395314D01*
G03X-169696Y-381105I0J48514D01*
G01X-128016Y-339425D01*
G01X-128016Y-733261D01*
G01X-494191Y-1099436D01*
G03X-558125Y-1030766I-66271J2398D01*
G01X-655286Y-933605D01*
G01X-655286Y-127500D01*
G03X-669495Y-93196I-48514J0D01*
G01X-829508Y66817D01*
G03X-863812Y81026I-34305J-34305D01*
G01X-901381Y81026D01*
G03X-952241Y150975I-50860J16485D01*
G01X-956150Y150975D01*
G01X-956150Y221935D01*
G03X-928526Y256800I-8190J34865D01*
G01X-928526Y343200D01*
G03X-964340Y379014I-35814J0D01*
G01X-1044987Y379014D01*
G03X-1080000Y350734I0J-35814D01*
G03X-1115013Y379014I-35013J-7534D01*
G01X-1195660Y379014D01*
G03X-1231474Y343200I0J-35814D01*
G01X-1231474Y256800D01*
G03X-1195660Y220986I35814J0D01*
G01X-1115013Y220986D01*
G03X-1080000Y249266I0J35814D01*
G03X-1053178Y221935I35013J7534D01*
G01X-1053178Y150975D01*
G01X-1062340Y150975D01*
G03X-1112539Y79114I0J-53464D01*
G01X-1147500Y79114D01*
G03X-1181805Y64904I0J-48514D01*
G01X-1295706Y-48997D01*
G01X-1486809Y-48997D01*
G03X-1495207Y13I-50851J16510D01*
G03X-1495207Y65011I-42453J32499D01*
G03X-1537660Y150975I-42453J32499D01*
G01X-1647759Y150975D01*
G03X-1695522Y121534I0J-53464D01*
G03X-1777286Y133971I-48678J-45034D01*
G01X-1777286Y586805D01*
G01X-1582396Y781695D01*
G03X-1568186Y816000I-34305J34305D01*
G01X-1568186Y1596605D01*
G01X-1363318Y1801473D01*
G01X-1140318Y1801473D01*
G01X-1140318Y1793987D01*
G03X-1104504Y1758173I35814J0D01*
G01X-816504Y1758173D01*
G03X-780690Y1793987I0J35814D01*
G01X-780690Y1905986D01*
G03X-816504Y1941800I-35814J0D01*
G01X-911990Y1941800D01*
G01X-911990Y2250093D01*
G03X-884184Y2285000I-8008J34907D01*
G01X-884184Y2375000D01*
G03X-919998Y2410814I-35814J0D01*
G01X-999997Y2410814D01*
G03X-1030000Y2394557I0J-35814D01*
G03X-1060002Y2410814I-30002J-19557D01*
G01X-1140002Y2410814D01*
G03X-1175816Y2375000I0J-35814D01*
G01X-1175816Y2285000D01*
G03X-1140002Y2249186I35814J0D01*
G01X-1060002Y2249186D01*
G03X-1030000Y2265443I0J35814D01*
G03X-1009018Y2250341I30002J19557D01*
G01X-1009018Y1941800D01*
G01X-1104504Y1941800D01*
G03X-1140318Y1905986I0J-35814D01*
G01X-1140318Y1898501D01*
G01X-1383413Y1898501D01*
G03X-1417718Y1884291I0J-48514D01*
G01X-1651005Y1651005D01*
G03X-1665214Y1616700I34305J-34305D01*
G01X-1665214Y836095D01*
G01X-1688437Y812872D01*
G03X-1774496Y950806I-86059J42121D01*
G01X-1904496Y950806D01*
G03X-1964186Y929942I0J-95814D01*
G01X-1964186Y2070058D01*
G03X-1904496Y2049194I59690J74949D01*
G01X-1774496Y2049194D01*
G03X-1774496Y2240822I0J95814D01*
G01X-1904496Y2240822D01*
G03X-1964186Y2219957I0J-95814D01*
G01X-1964186Y2964186D01*
G01X1964186Y2964186D01*
G01X-1877235Y2700000D02*
G03X-1522765Y2700000I177235J0D01*
G03X-1877235Y2700000I-177235J0D01*
G01X-1877235Y-2700000D02*
G03X-1522765Y-2700000I177235J0D01*
G03X-1877235Y-2700000I-177235J0D01*
G01X-1104504Y1241827D02*
G03X-1140318Y1206013I0J-35814D01*
G01X-1140318Y1094014D01*
G03X-1104504Y1058200I35814J0D01*
G01X-816504Y1058200D01*
G03X-780690Y1094014I0J35814D01*
G01X-780690Y1206013D01*
G03X-816504Y1241827I-35814J0D01*
G01X-1104504Y1241827D01*
G01X-1104504Y-1758173D02*
G03X-1140318Y-1793987I0J-35814D01*
G01X-1140318Y-1905986D01*
G03X-1104504Y-1941800I35814J0D01*
G01X-816504Y-1941800D01*
G03X-780690Y-1905986I0J35814D01*
G01X-780690Y-1793987D01*
G03X-816504Y-1758173I-35814J0D01*
G01X-1104504Y-1758173D01*
G01X-528312Y-2807503D02*
G01X-528312Y-2867503D01*
G03X-336685Y-2867503I95814J0D01*
G01X-336685Y-2807503D01*
G03X-528312Y-2807503I-95814J0D01*
G01X-261670Y2809010D02*
G01X-261670Y2859010D01*
G03X-463297Y2859010I-100814J0D01*
G01X-463297Y2809010D01*
G03X-261670Y2809010I100814J0D01*
G01X463297Y2809010D02*
G01X463297Y2859010D01*
G03X261670Y2859010I-100814J0D01*
G01X261670Y2809010D01*
G03X463297Y2809010I100814J0D01*
G01X336685Y-2807503D02*
G01X336685Y-2867503D01*
G03X528312Y-2867503I95814J0D01*
G01X528312Y-2807503D01*
G03X336685Y-2807503I-95814J0D01*
G01X396999Y2527813D02*
G03X396999Y2450186I0J-38814D01*
G03X396999Y2527813I0J38814D01*
G01X617295Y-1585229D02*
G03X713711Y-1568614I40605J52429D01*
G01X780690Y-1568614D01*
G01X780690Y-1655999D01*
G03X816504Y-1691813I35814J0D01*
G01X1104504Y-1691813D01*
G03X1140318Y-1655999I0J35814D01*
G01X1140318Y-1544000D01*
G03X1104504Y-1508186I-35814J0D01*
G01X937300Y-1508186D01*
G01X929113Y-1500000D01*
G01X937300Y-1491814D01*
G01X1104504Y-1491814D01*
G03X1140318Y-1456000I0J35814D01*
G01X1140318Y-1344001D01*
G03X1104504Y-1308187I-35814J0D01*
G01X816504Y-1308187D01*
G03X780690Y-1344001I0J-35814D01*
G01X780690Y-1435986D01*
G01X726997Y-1435986D01*
G03X634926Y-1386294I-65392J-11019D01*
G03X609263Y-1487722I26679J-60711D01*
G03X617295Y-1585229I48637J-45078D01*
G01X1009018Y-2210341D02*
G01X1009018Y-1941800D01*
G01X1104504Y-1941800D01*
G03X1140318Y-1905986I0J35814D01*
G01X1140318Y-1793987D01*
G03X1104504Y-1758173I-35814J0D01*
G01X816504Y-1758173D01*
G03X786111Y-1775041I0J-35814D01*
G03X714041Y-1838400I-5811J-66059D01*
G03X780718Y-1907413I66259J-2700D01*
G03X816504Y-1941800I35786J1427D01*
G01X911990Y-1941800D01*
G01X911990Y-2210093D01*
G03X884184Y-2245000I8008J-34907D01*
G01X884184Y-2335000D01*
G03X919998Y-2370814I35814J0D01*
G01X999997Y-2370814D01*
G03X1030000Y-2354557I0J35814D01*
G03X1060002Y-2370814I30002J19557D01*
G01X1140002Y-2370814D01*
G03X1175816Y-2335000I0J35814D01*
G01X1175816Y-2245000D01*
G03X1140002Y-2209186I-35814J0D01*
G01X1060002Y-2209186D01*
G03X1030000Y-2225443I0J-35814D01*
G03X1009018Y-2210341I-30002J-19557D01*
G01X1104504Y1758173D02*
G03X1140318Y1793987I0J35814D01*
G01X1140318Y1905986D01*
G03X1104504Y1941800I-35814J0D01*
G01X816504Y1941800D01*
G03X780690Y1905986I0J-35814D01*
G01X780690Y1793987D01*
G03X816504Y1758173I35814J0D01*
G01X1104504Y1758173D01*
G01X1060002Y609186D02*
G01X1140002Y609186D01*
G03X1175816Y645000I0J35814D01*
G01X1175816Y735000D01*
G03X1140002Y770814I-35814J0D01*
G01X1060002Y770814D01*
G03X1030000Y754557I0J-35814D01*
G03X1009018Y769659I-30002J-19557D01*
G01X1009018Y1058200D01*
G01X1104504Y1058200D01*
G03X1140318Y1094014I0J35814D01*
G01X1140318Y1206013D01*
G03X1104504Y1241827I-35814J0D01*
G01X816504Y1241827D01*
G03X780690Y1206013I0J-35814D01*
G01X780690Y1094014D01*
G03X816504Y1058200I35814J0D01*
G01X911990Y1058200D01*
G01X911990Y769907D01*
G03X884184Y735000I8008J-34907D01*
G01X884184Y645000D01*
G03X911484Y610213I35814J0D01*
G01X911484Y602362D01*
G03X957043Y489609I47316J-46462D01*
G03X1008512Y599790I1757J66291D01*
G01X1008512Y610213D01*
G03X1030000Y625443I-8514J34787D01*
G03X1060002Y609186I30002J19557D01*
G01X1522765Y2700000D02*
G03X1877235Y2700000I177235J0D01*
G03X1522765Y2700000I-177235J0D01*
G01X1522765Y-2700000D02*
G03X1877235Y-2700000I177235J0D01*
G03X1522765Y-2700000I-177235J0D01*
G01X-1964186Y-780043D02*
G01X-1964186Y780043D01*
G03X-1904496Y759179I59690J74949D01*
G01X-1774496Y759179D01*
G03X-1732376Y768933I0J95814D01*
G01X-1860105Y641205D01*
G03X-1874314Y606900I34305J-34305D01*
G01X-1874314Y61200D01*
G03X-1860105Y26895I48514J0D01*
G01X-1797509Y-35700D01*
G01X-1860105Y-98295D01*
G03X-1874314Y-132600I34305J-34305D01*
G01X-1874314Y-606900D01*
G03X-1860105Y-641205I48514J0D01*
G01X-1732376Y-768933D01*
G03X-1774496Y-759179I-42121J-86059D01*
G01X-1904496Y-759179D01*
G03X-1964186Y-780043I0J-95814D01*
G01X708583Y155474D02*
G01X1259678Y155474D01*
G03X1276737Y100377I65573J-9886D01*
G01X1276737Y95794D01*
G01X1276679Y93763D01*
G01X1276679Y71907D01*
G03X1276679Y63119I48315J-4394D01*
G01X1276679Y49834D01*
G03X1272373Y48514I8321J-34834D01*
G01X1085643Y48514D01*
G03X1050002Y80814I-35641J-3514D01*
G01X970002Y80814D01*
G03X940000Y64557I0J-35814D01*
G03X909997Y80814I-30002J-19557D01*
G01X829998Y80814D01*
G03X794184Y45000I0J-35814D01*
G01X794184Y-45000D01*
G03X829998Y-80814I35814J0D01*
G01X909997Y-80814D01*
G03X940000Y-64557I0J35814D01*
G03X961486Y-79787I30002J19557D01*
G01X961486Y-84790D01*
G03X1010000Y-196314I48514J-45210D01*
G03X1058514Y-84790I0J66314D01*
G01X1058514Y-79788D01*
G03X1085643Y-48514I-8512J34788D01*
G01X1272373Y-48514D01*
G03X1276679Y-49834I12627J33514D01*
G01X1276679Y-63119D01*
G03X1276679Y-71907I48315J-4394D01*
G01X1276679Y-93763D01*
G03X1286092Y-117962I35814J0D01*
G01X1286092Y-134499D01*
G01X40689Y-1379902D01*
G03X26480Y-1414206I34305J-34305D01*
G01X26480Y-1457213D01*
G03X-49820Y-1504487I-12436J-65137D01*
G03X-9120Y-1584487I63863J-17863D01*
G01X-9120Y-2231083D01*
G01X-51563Y-2231083D01*
G03X-58444Y-2231574I0J-48514D01*
G03X-102180Y-2185944I-63956J-17526D01*
G03X-164285Y-2197687I-20220J-63156D01*
G03X-164184Y-2195000I-35713J2687D01*
G01X-164184Y-2105000D01*
G03X-191483Y-2070213I-35814J0D01*
G01X-191483Y-2049787D01*
G03X-164184Y-2015000I-8514J34787D01*
G01X-164184Y-1925000D01*
G03X-191483Y-1890213I-35814J0D01*
G01X-191483Y-1407302D01*
G03X-205693Y-1372998I-48514J0D01*
G01X-326427Y-1252264D01*
G03X-395537Y-1188347I-66273J-2336D01*
G01X-9598Y-802407D01*
G03X4612Y-768102I-34305J34305D01*
G01X4612Y-293497D01*
G01X8805Y-289305D01*
G03X18318Y-275824I-34305J34305D01*
G01X38993Y-275824D01*
G03X52997Y-272972I0J35814D01*
G03X67001Y-275824I14004J32962D01*
G01X67731Y-275824D01*
G03X83998Y-335210I64781J-14176D01*
G01X83998Y-933693D01*
G01X-116995Y-1134686D01*
G01X-179190Y-1134686D01*
G03X-290714Y-1183200I-45210J-48514D01*
G03X-179190Y-1231714I66314J0D01*
G01X-96900Y-1231714D01*
G03X-62595Y-1217505I0J48514D01*
G01X166816Y-988093D01*
G03X181026Y-953788I-34305J34305D01*
G01X181026Y-335210D01*
G03X197293Y-275824I-48514J45210D01*
G01X197997Y-275824D01*
G03X233811Y-240010I0J35814D01*
G01X233811Y-120010D01*
G03X197997Y-84196I-35814J0D01*
G01X172996Y-84196D01*
G03X159004Y-87042I0J-35814D01*
G03X156065Y-85944I-13992J-32968D01*
G01X167995Y-74014D01*
G01X459000Y-74014D01*
G03X493305Y-59805I0J48514D01*
G01X708583Y155474D01*
G01X-322442Y746904D02*
G01X-312892Y746904D01*
G03X-278588Y761113I0J48514D01*
G01X-232976Y806725D01*
G03X-181355Y834446I-2336J66273D01*
G01X-128016Y781107D01*
G01X-128016Y328571D01*
G01X-190650Y391205D01*
G03X-224954Y405414I-34305J-34305D01*
G01X-259314Y405414D01*
G01X-260748Y406847D01*
G03X-374886Y442740I-65652J-9347D01*
G01X-374886Y694459D01*
G01X-322442Y746904D01*
G01X199058Y-1498808D02*
G03X191314Y-1418490I-56258J35108D01*
G01X191314Y-1416841D01*
G01X1404510Y-203645D01*
G03X1413304Y-191614I-34305J34305D01*
G01X1450045Y-228354D01*
G03X1477258Y-242043I34305J34305D01*
G03X1476477Y-250114I65492J-10407D01*
G01X205693Y-1520898D01*
G03X191483Y-1555203I34305J-34305D01*
G01X191483Y-1870213D01*
G03X164184Y-1905000I8514J-34787D01*
G01X164184Y-1995000D01*
G03X191483Y-2029787I35814J0D01*
G01X191483Y-2050213D01*
G03X164184Y-2085000I8514J-34787D01*
G01X164184Y-2175000D01*
G03X165211Y-2183515I35814J0D01*
G03X142127Y-2191518I9808J-65585D01*
G03X123508Y-2207337I32892J-57582D01*
G01X123508Y-1527146D01*
G03X199058Y-1498808I19293J63446D01*
G01X1378815Y5450D02*
G01X1387507Y5450D01*
G03X1400000Y7699I0J35814D01*
G03X1412493Y5450I12493J33564D01*
G01X1421185Y5450D01*
G01X1421185Y-5450D01*
G01X1412493Y-5450D01*
G03X1400000Y-7699I0J-35814D01*
G03X1387507Y-5450I-12493J-33564D01*
G01X1378815Y-5450D01*
G01X1378815Y5450D01*
G01X1550814Y-15000D02*
G01X1550814Y15000D01*
G03X1523321Y49834I-35814J0D01*
G01X1523321Y93763D01*
G03X1487507Y129577I-35814J0D01*
G01X1467765Y129577D01*
G01X1467765Y184524D01*
G03X1453555Y218828I-48514J0D01*
G01X1399498Y272886D01*
G01X1535305Y272886D01*
G01X1573386Y234805D01*
G01X1573386Y-107959D01*
G01X1571409Y-109936D01*
G01X1540245Y-109936D01*
G01X1523520Y-93211D01*
G01X1523520Y-67513D01*
G03X1523321Y-63119I-48514J0D01*
G01X1523321Y-49834D01*
G03X1550814Y-15000I-8321J34834D01*
G54D11*
G01X-1592710Y97511D02*
G01X-1592710Y140815D01*
G01X-1592710Y97511D02*
G01X-1494356Y97511D01*
G01X-1155337Y300000D02*
G01X-1221314Y300000D01*
G01X-1155337Y300000D02*
G01X-1155337Y368854D01*
G01X-1155337Y300000D02*
G01X-1155337Y231146D01*
G01X-1100002Y-680000D02*
G01X-1165656Y-680000D01*
G01X-1100002Y-680000D02*
G01X-1100002Y-609346D01*
G01X-1100002Y-680000D02*
G01X-1100002Y-750654D01*
G01X-1100002Y2330000D02*
G01X-1165656Y2330000D01*
G01X-1100002Y2330000D02*
G01X-1100002Y2400654D01*
G01X-1100002Y2330000D02*
G01X-1100002Y2259346D01*
G01X-1007290Y-32487D02*
G01X-1105644Y-32487D01*
G01X-1007290Y-32487D02*
G01X-908936Y-32487D01*
G01X-960504Y1150013D02*
G01X-960504Y1231667D01*
G01X-960504Y1150013D02*
G01X-960504Y1068360D01*
G01X-960504Y1150013D02*
G01X-790850Y1150013D01*
G01X-960504Y1150013D02*
G01X-1130158Y1150013D01*
G01X-960504Y-1849987D02*
G01X-960504Y-1768333D01*
G01X-960504Y-1849987D02*
G01X-960504Y-1931640D01*
G01X-960504Y-1849987D02*
G01X-790850Y-1849987D01*
G01X-960504Y-1849987D02*
G01X-1130158Y-1849987D01*
G01X-380002Y-1970000D02*
G01X-445656Y-1970000D01*
G01X-380002Y-1970000D02*
G01X-380002Y-1899346D01*
G01X-380002Y-1970000D02*
G01X-380002Y-2040654D01*
G01X-380002Y-2150000D02*
G01X-445656Y-2150000D01*
G01X-380002Y-2150000D02*
G01X-380002Y-2079346D01*
G01X-380002Y-2150000D02*
G01X-380002Y-2220654D01*
G01X-320002Y-2362497D02*
G01X-320002Y-2281843D01*
G01X-129997Y2566777D02*
G01X-129997Y2441123D01*
G01X-129997Y2566777D02*
G01X-129997Y2692431D01*
G01X26492Y180010D02*
G01X26492Y94356D01*
G01X26492Y180010D02*
G01X26492Y265664D01*
G01X185496Y-180010D02*
G01X185496Y-94356D01*
G01X185496Y-180010D02*
G01X223651Y-180010D01*
G01X320002Y-2362497D02*
G01X320002Y-2281843D01*
G01X380002Y-2130000D02*
G01X445656Y-2130000D01*
G01X380002Y-2130000D02*
G01X380002Y-2200654D01*
G01X380002Y-2130000D02*
G01X380002Y-2059346D01*
G01X380002Y-1950000D02*
G01X445656Y-1950000D01*
G01X380002Y-1950000D02*
G01X380002Y-2020654D01*
G01X380002Y-1950000D02*
G01X380002Y-1879346D01*
G01X540001Y2700011D02*
G01X540001Y2765665D01*
G01X540001Y2700011D02*
G01X610655Y2700011D01*
G01X540001Y2700011D02*
G01X469347Y2700011D01*
G01X740001Y2700011D02*
G01X740001Y2765665D01*
G01X740001Y2700011D02*
G01X810655Y2700011D01*
G01X740001Y2700011D02*
G01X669347Y2700011D01*
G01X869997Y0D02*
G01X804344Y0D01*
G01X869997Y0D02*
G01X869997Y70654D01*
G01X869997Y0D02*
G01X869997Y-70654D01*
G01X960504Y-1150013D02*
G01X960504Y-1231667D01*
G01X960504Y-1150013D02*
G01X960504Y-1068360D01*
G01X960504Y-1150013D02*
G01X790850Y-1150013D01*
G01X960504Y-1150013D02*
G01X1130158Y-1150013D01*
G01X960504Y1849987D02*
G01X960504Y1768333D01*
G01X960504Y1849987D02*
G01X960504Y1931640D01*
G01X960504Y1849987D02*
G01X790850Y1849987D01*
G01X960504Y1849987D02*
G01X1130158Y1849987D01*
G01X1100002Y690000D02*
G01X1165656Y690000D01*
G01X1100002Y690000D02*
G01X1100002Y619346D01*
G01X1100002Y690000D02*
G01X1100002Y760654D01*
G01X1100002Y-2290000D02*
G01X1165656Y-2290000D01*
G01X1100002Y-2290000D02*
G01X1100002Y-2360654D01*
G01X1100002Y-2290000D02*
G01X1100002Y-2219346D01*
G01X1487507Y67513D02*
G01X1513161Y67513D01*
G01X1485999Y0D02*
G01X1431345Y0D01*
G01X1485999Y0D02*
G01X1540654Y0D01*
G01X-1839496Y2145008D02*
G01X-1839496Y2230662D01*
G01X-1839496Y2145008D02*
G01X-1839496Y2059354D01*
G01X-1839496Y2145008D02*
G01X-1688842Y2145008D01*
G01X-1839496Y854992D02*
G01X-1839496Y940646D01*
G01X-1839496Y854992D02*
G01X-1839496Y769339D01*
G01X-1839496Y854992D02*
G01X-1688842Y854992D01*
G01X-1839496Y-2145008D02*
G01X-1839496Y-2059354D01*
G01X-1839496Y-2145008D02*
G01X-1839496Y-2230662D01*
G01X-1839496Y-2145008D02*
G01X-1688842Y-2145008D01*
G01X-1839496Y-854992D02*
G01X-1839496Y-769339D01*
G01X-1839496Y-854992D02*
G01X-1839496Y-940646D01*
G01X-1839496Y-854992D02*
G01X-1688842Y-854992D01*
G01X-432498Y-2837503D02*
G01X-518152Y-2837503D01*
G01X-432498Y-2837503D02*
G01X-346845Y-2837503D01*
G01X-432498Y-2837503D02*
G01X-432498Y-2721849D01*
G01X-432498Y-2837503D02*
G01X-432498Y-2953156D01*
G01X-432498Y-2417488D02*
G01X-513152Y-2417488D01*
G01X-432498Y-2417488D02*
G01X-432498Y-2291834D01*
G01X-432498Y-2417488D02*
G01X-432498Y-2543142D01*
G01X-362483Y2834010D02*
G01X-271830Y2834010D01*
G01X-362483Y2834010D02*
G01X-453137Y2834010D01*
G01X-362483Y2834010D02*
G01X-362483Y2718357D01*
G01X-362483Y2834010D02*
G01X-362483Y2949664D01*
G01X-242494Y2565990D02*
G01X-333148Y2565990D01*
G01X-242494Y2565990D02*
G01X-242494Y2475336D01*
G01X-242494Y2565990D02*
G01X-242494Y2656643D01*
G01X242494Y2565990D02*
G01X333148Y2565990D01*
G01X242494Y2565990D02*
G01X242494Y2475336D01*
G01X242494Y2565990D02*
G01X242494Y2656643D01*
G01X362483Y2834010D02*
G01X453137Y2834010D01*
G01X362483Y2834010D02*
G01X271830Y2834010D01*
G01X362483Y2834010D02*
G01X362483Y2718357D01*
G01X362483Y2834010D02*
G01X362483Y2949664D01*
G01X432499Y-2837503D02*
G01X346845Y-2837503D01*
G01X432499Y-2837503D02*
G01X518152Y-2837503D01*
G01X432499Y-2837503D02*
G01X432499Y-2721849D01*
G01X432499Y-2837503D02*
G01X432499Y-2953156D01*
G01X432499Y-2417488D02*
G01X513152Y-2417488D01*
G01X432499Y-2417488D02*
G01X432499Y-2291834D01*
G01X432499Y-2417488D02*
G01X432499Y-2543142D01*
G01X1839496Y-2145008D02*
G01X1839496Y-2230662D01*
G01X1839496Y-2145008D02*
G01X1839496Y-2059354D01*
G01X1839496Y-2145008D02*
G01X1688842Y-2145008D01*
G01X1839496Y-854992D02*
G01X1839496Y-940646D01*
G01X1839496Y-854992D02*
G01X1839496Y-769339D01*
G01X1839496Y-854992D02*
G01X1688842Y-854992D01*
G01X1839496Y854992D02*
G01X1839496Y769339D01*
G01X1839496Y854992D02*
G01X1839496Y940646D01*
G01X1839496Y854992D02*
G01X1688842Y854992D01*
G01X1839496Y2145008D02*
G01X1839496Y2059354D01*
G01X1839496Y2145008D02*
G01X1839496Y2230662D01*
G01X1839496Y2145008D02*
G01X1688842Y2145008D01*
G04 Copper End*

G04 PolygonModel Start*
G36*
G01X396999Y2491999D02*
G02X396999Y2486000I0J-3000D01*
G02X396999Y2491999I0J3000D01*
G37*

G04 Pad Start*
G54D12*
G01X-239997Y-2150000D03*
G01X-380002Y-2150000D03*
G01X-239997Y-1970000D03*
G01X-380002Y-1970000D03*
G01X239997Y-2130000D03*
G01X380002Y-2130000D03*
G01X239997Y-1950000D03*
G01X380002Y-1950000D03*
G54D13*
G01X740001Y2560007D03*
G01X740001Y2700011D03*
G01X540001Y2560007D03*
G01X540001Y2700011D03*
G54D12*
G01X1010002Y0D03*
G01X869997Y0D03*
G01X-959998Y-680000D03*
G01X-1100002Y-680000D03*
G01X959998Y690000D03*
G01X1100002Y690000D03*
G01X-959998Y2330000D03*
G01X-1100002Y2330000D03*
G01X959998Y-2290000D03*
G01X1100002Y-2290000D03*
G54D14*
G01X-1004664Y300000D03*
G01X-1155337Y300000D03*
G54D15*
G01X-185496Y-180010D03*
G01X-132486Y-180010D03*
G01X-79502Y-180010D03*
G01X-26492Y-180010D03*
G01X26492Y-180010D03*
G01X79502Y-180010D03*
G01X132512Y-180010D03*
G01X185496Y-180010D03*
G01X185496Y180010D03*
G01X132512Y180010D03*
G01X79502Y180010D03*
G01X26492Y180010D03*
G01X-26492Y180010D03*
G01X-79502Y180010D03*
G01X-132486Y180010D03*
G01X-185496Y180010D03*
G54D16*
G01X-1007290Y-97511D03*
G01X-1007290Y-32487D03*
G01X-1007290Y32512D03*
G01X-1007290Y97511D03*
G01X-1592710Y-97511D03*
G01X-1592710Y-32487D03*
G01X-1592710Y32512D03*
G01X-1592710Y97511D03*
G54D17*
G01X1324994Y-67513D03*
G01X1375006Y-67513D03*
G01X1424994Y-67513D03*
G01X1475006Y-67513D03*
G54D19*
G01X1485999Y0D03*
G54D17*
G01X1475006Y67513D03*
G01X1424994Y67513D03*
G01X1375006Y67513D03*
G01X1324994Y67513D03*
G54D19*
G01X1314001Y0D03*
G54D20*
G01X-320002Y-2362497D03*
G01X-239992Y-2362497D03*
G54D21*
G01X-174993Y-2362497D03*
G01X-124981Y-2362497D03*
G01X-74993Y-2362497D03*
G01X-25006Y-2362497D03*
G01X25006Y-2362497D03*
G01X74994Y-2362497D03*
G01X125006Y-2362497D03*
G01X175019Y-2362497D03*
G54D20*
G01X240017Y-2362497D03*
G01X320002Y-2362497D03*
G54D22*
G01X-432498Y-2417488D03*
G01X432499Y-2417488D03*
G54D23*
G01X-432498Y-2837503D03*
G01X432499Y-2837503D03*
G54D24*
G01X-960504Y-1849987D03*
G01X-960504Y-1600000D03*
G01X-960504Y-1400000D03*
G01X-960504Y-1150013D03*
G54D25*
G01X-1839496Y-2145008D03*
G01X-1839496Y-854992D03*
G54D24*
G01X960504Y1849987D03*
G01X960504Y1600000D03*
G01X960504Y1400000D03*
G01X960504Y1150013D03*
G54D25*
G01X1839496Y2145008D03*
G01X1839496Y854992D03*
G54D24*
G01X-960504Y1150013D03*
G01X-960504Y1400000D03*
G01X-960504Y1600000D03*
G01X-960504Y1849987D03*
G54D25*
G01X-1839496Y854992D03*
G01X-1839496Y2145008D03*
G54D24*
G01X960504Y-1150013D03*
G01X960504Y-1400000D03*
G01X960504Y-1600000D03*
G01X960504Y-1849987D03*
G54D25*
G01X1839496Y-854992D03*
G01X1839496Y-2145008D03*
G54D26*
G01X-129997Y2566777D03*
G01X-64999Y2566777D03*
G01X0Y2566777D03*
G01X64999Y2566777D03*
G01X129997Y2566777D03*
G54D27*
G01X-242494Y2565990D03*
G01X242494Y2565990D03*
G54D28*
G01X362483Y2834010D03*
G01X-362483Y2834010D03*
G04 Pad End*

G04 Via Start*
G54D29*
G01X1010000Y-130000D03*
G01X132512Y290000D03*
G01X250000Y180010D03*
G01X132512Y-290000D03*
G01X1325251Y145587D03*
G01X14043Y-1522350D03*
G01X142800Y-1463700D03*
G01X175019Y-2249100D03*
G01X-122400Y-2249100D03*
G01X1542750Y-252450D03*
G01X-392700Y-1254600D03*
G01X-560462Y-1097038D03*
G01X367200Y530400D03*
G01X448800Y693600D03*
G01X-319282Y872535D03*
G01X210746Y1004700D03*
G01X-235312Y872997D03*
G01X270301Y1052908D03*
G01X-326400Y321300D03*
G01X-326400Y397500D03*
G01X661604Y-1447004D03*
G01X657900Y-1532800D03*
G01X-1744200Y76500D03*
G01X897600Y2560200D03*
G01X958800Y555900D03*
G01X780300Y-1841100D03*
G01X-224400Y-1183200D03*
G01X-831300Y-678300D03*
G01X346800Y-275400D03*
G01X-229500Y550800D03*
G01X540600Y-1132200D03*
G01X392700Y336600D03*
G01X-300900Y-571200D03*
G01X871983Y-166552D03*
G04 Via End*

G04 Track Start*
G54D11*
G01X1010000Y-130000D02*
G01X1010000Y-2D01*
G01X1010002Y0D02*
G01X1314001Y0D01*
G01X-960504Y1849987D02*
G01X-960504Y2329494D01*
G01X-959998Y2330000D01*
G01X-1007290Y97511D02*
G01X-1004664Y100137D01*
G01X-1004664Y300000D01*
G01X-960504Y-1150013D02*
G01X-959998Y-1149507D01*
G01X-959998Y-680000D01*
G01X960504Y-1849987D02*
G01X960504Y-2289494D01*
G01X959998Y-2290000D01*
G01X960504Y1150013D02*
G01X960504Y690506D01*
G01X959998Y690000D01*
G01X-239992Y-2362497D02*
G01X-239992Y-2150006D01*
G01X-239997Y-1970000D02*
G01X-239997Y-2150000D01*
G01X240017Y-2362497D02*
G01X240017Y-2130020D01*
G01X239997Y-2130000D02*
G01X239997Y-1950000D01*
G01X129997Y2566777D02*
G01X129997Y2420003D01*
G01X190000Y2360000D01*
G01X480000Y2360000D01*
G01X540000Y2420000D01*
G01X540001Y2560007D01*
G01X740001Y2560007D01*
G01X132512Y180010D02*
G01X132512Y290000D01*
G01X185496Y180010D02*
G01X250000Y180010D01*
G01X132512Y-180010D02*
G01X132512Y-290000D01*
G01X1325251Y145587D02*
G01X1325251Y67770D01*
G01X1324994Y67513D01*
G01X74994Y-2362497D02*
G01X74994Y-1414206D01*
G01X175019Y-2362497D02*
G01X175019Y-2249100D01*
G01X-122400Y-2249100D02*
G01X-122400Y-2359917D01*
G01X-124981Y-2362497D01*
G01X239997Y-1950000D02*
G01X239997Y-1555203D01*
G01X1542750Y-252450D01*
G01X-703800Y-127500D02*
G01X-863812Y32512D01*
G01X-1007290Y32512D01*
G01X-79502Y801202D02*
G01X-79502Y180010D01*
G01X-43902Y273402D02*
G01X-25500Y255000D01*
G01X-25500Y181002D01*
G01X-26492Y180010D01*
G01X-43902Y273402D02*
G01X-43902Y815948D01*
G01X-43902Y-273402D02*
G01X-25500Y-255000D01*
G01X-25500Y-181002D01*
G01X-26492Y-180010D01*
G01X0Y1020000D02*
G01X0Y2566777D01*
G01X663000Y357000D02*
G01X0Y1020000D01*
G01X64999Y2566777D02*
G01X64999Y2456999D01*
G01X376746Y693600D02*
G01X448800Y693600D01*
G01X439254Y530400D02*
G01X367200Y530400D01*
G01X648254Y321400D02*
G01X439254Y530400D01*
G01X1621900Y254900D02*
G01X1555400Y321400D01*
G01X648254Y321400D01*
G01X1657500Y269646D02*
G01X1570146Y357000D01*
G01X663000Y357000D01*
G01X1424994Y-67513D02*
G01X1424994Y-134694D01*
G01X1657500Y-142800D02*
G01X1657500Y269646D01*
G01X1424994Y-134694D02*
G01X1484350Y-194050D01*
G01X1606250Y-194050D01*
G01X1657500Y-142800D01*
G01X1621900Y-128054D02*
G01X1621900Y254900D01*
G01X1475006Y-67513D02*
G01X1475006Y-113306D01*
G01X1520150Y-158450D01*
G01X1591504Y-158450D01*
G01X1621900Y-128054D01*
G01X-132486Y-180010D02*
G01X-132486Y-275286D01*
G01X-204000Y-346800D01*
G01X-392700Y-346800D01*
G01X-459000Y-280500D01*
G01X210746Y1004700D02*
G01X210746Y1240946D01*
G01X-185496Y-180010D02*
G01X-185496Y-267196D01*
G01X-229500Y-311200D01*
G01X-342537Y795418D02*
G01X-312892Y795418D01*
G01X-235312Y872997D01*
G01X-459000Y-280500D02*
G01X-459000Y732817D01*
G01X-319282Y872535D01*
G01X-423400Y714554D02*
G01X-342537Y795418D01*
G01X-229500Y-311200D02*
G01X-377954Y-311200D01*
G01X-423400Y-265754D01*
G01X-423400Y714554D01*
G01X270301Y1052908D02*
G01X246346Y1076863D01*
G01X246346Y1226200D01*
G01X210746Y1240946D02*
G01X489600Y1519800D01*
G01X880304Y1519800D01*
G01X960504Y1600000D01*
G01X246346Y1226200D02*
G01X504346Y1484200D01*
G01X876304Y1484200D01*
G01X960504Y1400000D01*
G01X-960504Y1600000D02*
G01X-880304Y1519800D01*
G01X-747754Y1519800D01*
G01X-43902Y815948D01*
G01X-960504Y1400000D02*
G01X-876404Y1484100D01*
G01X-762400Y1484100D01*
G01X-79502Y801202D01*
G01X64999Y2456999D02*
G01X35600Y2427600D01*
G01X35600Y1034746D01*
G01X376746Y693600D01*
G01X-43902Y-273402D02*
G01X-43902Y-768102D01*
G01X-960504Y-1400000D02*
G01X-876304Y-1484200D01*
G01X-810346Y-1484200D01*
G01X-79502Y-753356D01*
G01X-79502Y-180010D01*
G01X-43902Y-768102D02*
G01X-795600Y-1519800D01*
G01X-880304Y-1519800D01*
G01X-960504Y-1600000D01*
G01X-560462Y-1097038D02*
G01X-703800Y-953700D01*
G01X-703800Y-127500D01*
G01X-239997Y-1970000D02*
G01X-239997Y-1407302D01*
G01X-392700Y-1254600D01*
G01X-185496Y180010D02*
G01X-185496Y267096D01*
G01X-239700Y321300D01*
G01X-326400Y321300D01*
G01X-132486Y180010D02*
G01X-132486Y203587D01*
G01X-224954Y356900D02*
G01X-279410Y356900D01*
G01X-302210Y379700D01*
G01X-308600Y379700D01*
G01X-326400Y397500D01*
G01X-132486Y203587D02*
G01X-145095Y216196D01*
G01X-145095Y277041D01*
G01X-224954Y356900D01*
G01X876004Y-1484500D02*
G01X960504Y-1400000D01*
G01X657900Y-1532800D02*
G01X670600Y-1520100D01*
G01X880604Y-1520100D01*
G01X960504Y-1600000D01*
G01X661604Y-1447004D02*
G01X699100Y-1484500D01*
G01X876004Y-1484500D01*
G01X-1592710Y32512D02*
G01X-1700212Y32512D01*
G01X-1744200Y76500D01*
G01X897600Y2560200D02*
G01X740195Y2560200D01*
G01X740001Y2560007D01*
G01X959998Y690000D02*
G01X959998Y557098D01*
G01X958800Y555900D01*
G01X-960504Y1849987D02*
G01X-1383413Y1849987D01*
G01X-1616700Y1616700D01*
G01X-1616700Y816000D01*
G01X-1825800Y606900D01*
G01X-1825800Y61200D01*
G01X-1728900Y-35700D01*
G01X-1595923Y-35700D01*
G01X-1592710Y-32487D01*
G01X-1728900Y-35700D02*
G01X-1825800Y-132600D01*
G01X-1825800Y-606900D02*
G01X-1275000Y-1157700D01*
G01X-968190Y-1157700D01*
G01X-960504Y-1150013D01*
G01X-1825800Y-132600D02*
G01X-1825800Y-606900D01*
G01X960504Y-1849987D02*
G01X951617Y-1841100D01*
G01X780300Y-1841100D01*
G01X132512Y-290000D02*
G01X132512Y-953788D01*
G01X-96900Y-1183200D01*
G01X-224400Y-1183200D01*
G01X-831300Y-678300D02*
G01X-958298Y-678300D01*
G01X-959998Y-680000D01*
G01X14043Y-1522350D02*
G01X39394Y-1547700D01*
G01X39394Y-2260706D01*
G01X25006Y-2275094D01*
G01X25006Y-2362497D01*
G01X79502Y-180010D02*
G01X79502Y-93898D01*
G01X147900Y-25500D01*
G01X459000Y-25500D01*
G01X688488Y203988D01*
G01X1349441Y203988D01*
G01X1383651Y169778D01*
G01X1383651Y121397D01*
G01X1375006Y112753D01*
G01X1375006Y67513D01*
G01X1424994Y67513D02*
G01X1419251Y73256D01*
G01X1419251Y184524D01*
G01X1364187Y239588D01*
G01X673742Y239588D01*
G01X133154Y10100D02*
G01X43902Y-79152D01*
G01X43902Y-103653D01*
G01X39101Y-108453D01*
G01X39101Y-167401D01*
G01X26492Y-180010D01*
G01X673742Y239588D02*
G01X444254Y10100D01*
G01X133154Y10100D01*
G01X74994Y-1414206D02*
G01X1334606Y-154594D01*
G01X1334606Y-77125D01*
G01X1324994Y-67513D01*
G01X1370206Y-72314D02*
G01X1375006Y-67513D01*
G01X142800Y-1463700D02*
G01X142800Y-1396746D01*
G01X1370206Y-169340D01*
G01X1370206Y-72314D01*
G01X-1592710Y-97511D02*
G01X-1275611Y-97511D01*
G01X-1147500Y30600D01*
G01X-1009202Y30600D01*
G01X-1007290Y32512D01*
G01X-25006Y-2362497D02*
G01X-17894Y-2369610D01*
G01X-17894Y-2429054D01*
G01X-1550Y-2445397D01*
G01X51563Y-2445397D01*
G01X67906Y-2429054D01*
G01X67906Y-2369584D01*
G01X74994Y-2362497D01*
G01X12410Y-2275094D02*
G01X25006Y-2275094D01*
G01X-74993Y-2362497D02*
G01X-67906Y-2355410D01*
G01X-67906Y-2295941D01*
G01X-51563Y-2279597D01*
G01X7907Y-2279597D01*
G01X12410Y-2275094D01*
G01X-239992Y-2362497D02*
G01X-217893Y-2384596D01*
G01X-217893Y-2429054D01*
G01X217919Y-2429054D02*
G01X217919Y-2384596D01*
G01X240017Y-2362497D01*
G01X-217893Y-2429054D02*
G01X-165950Y-2480997D01*
G01X165975Y-2480997D01*
G01X217919Y-2429054D01*
G01X1417800Y275400D02*
G01X1388920Y275400D01*
G01X1384033Y280287D01*
G01X633424Y280287D01*
G01X633018Y279882D01*
G04 Track End*

M02*

