G04 Layer: InnerLayer2*
G04 EasyEDA Pro v3.2.148, 2026-08-03 13:40:32*
G04 Gerber Generator version 0.3*
G04 Scale: 100 percent, Rotated: No, Reflected: No*
G04 Dimensions in millimeters*
G04 Leading zeros omitted, absolute positions, 4 integers and 5 decimals*
G04 Generated by one-click*
G04 Object Configs: Pad,Via,Track,Text,Image,Dimension,BoardOutline,BoardCutout,CopperFilled,SolidRegion,FPCStiffener,Line,PlaneZone,ComponentProperty,ComponentSilkscreen,TearDrop*
G04 Layer Configs: 1,15,16,2,3,4,5,6,7,8,9,10,11,13,14,56*
G04 Copper Areas: 0*
%FSLAX45Y45*%
%MOMM*%
%ADD10C,0.1*%
%ADD11O,1.1X2.0*%
%ADD12O,1.2X1.8*%
%ADD13O,2.49999X1.2*%
%ADD14C,1.3*%
%ADD15O,1.3009X1.8*%
%ADD16O,1.3X1.8*%
%ADD17C,0.61*%
G75*


G04 PolygonModel Start*
G54D10*
G01X789704Y2291421D02*
G02X789704Y2281413I0J-5004D01*
G02X789704Y2291421I0J5004D01*

G04 Pad Start*
G54D11*
G01X-432498Y-2417488D03*
G01X432499Y-2417488D03*
G54D12*
G01X-432498Y-2837503D03*
G01X432499Y-2837503D03*
G54D13*
G01X-1839496Y-2145008D03*
G01X-1839496Y-854992D03*
G01X1839496Y2145008D03*
G01X1839496Y854992D03*
G01X-1839496Y854992D03*
G01X-1839496Y2145008D03*
G01X1839496Y-854992D03*
G01X1839496Y-2145008D03*
G54D14*
G01X-242494Y2565990D03*
G01X242494Y2565990D03*
G54D16*
G01X362483Y2834010D03*
G01X-362483Y2834010D03*
G04 Pad End*

G04 Via Start*
G54D17*
G01X1010000Y-130000D03*
G01X132512Y290000D03*
G01X250000Y180010D03*
G01X132512Y-290000D03*
G01X1325251Y145587D03*
G01X14043Y-1522350D03*
G01X142800Y-1463700D03*
G01X175019Y-2249100D03*
G01X-122400Y-2249100D03*
G01X1542750Y-252450D03*
G01X-392700Y-1254600D03*
G01X-560462Y-1097038D03*
G01X367200Y530400D03*
G01X448800Y693600D03*
G01X-319282Y872535D03*
G01X210746Y1004700D03*
G01X-235312Y872997D03*
G01X270301Y1052908D03*
G01X-326400Y321300D03*
G01X-326400Y397500D03*
G01X661604Y-1447004D03*
G01X657900Y-1532800D03*
G01X-1744200Y76500D03*
G01X897600Y2560200D03*
G01X958800Y555900D03*
G01X780300Y-1841100D03*
G01X-224400Y-1183200D03*
G01X-831300Y-678300D03*
G01X346800Y-275400D03*
G01X-229500Y550800D03*
G01X540600Y-1132200D03*
G01X392700Y336600D03*
G01X-300900Y-571200D03*
G01X871983Y-166552D03*
G04 Via End*

M02*

